# This file uses centimeters as units for non-parametric coordinates.

v -3.000000 4.000000 1.000011
v -3.000000 0.000000 1.000011
v -3.000000 0.000000 0.000011
v -3.000000 4.000000 0.000011
v 3.000000 -4.000000 1.000011
v -3.000000 -4.000000 1.000011
v -3.000000 -4.000000 0.000011
v 3.000000 -4.000000 0.000011
v 0.013199 1.981108 1.000011
v -0.380775 0.000000 1.000011
v 0.007813 0.976968 1.000011
v -0.373505 0.973382 1.000011
v 0.595482 -0.000000 1.000011
v 0.595261 -1.013597 1.000011
v 3.000000 -2.005191 1.000011
v 3.000000 -2.005430 0.000011
v 1.153496 -1.011292 1.000011
v 1.153496 -2.000000 1.000011
v -0.751488 1.995900 1.000011
v -0.769135 2.980024 1.000011
v -0.934830 4.000000 1.000011
v -0.946777 2.989727 1.000011
v -0.934830 4.000000 0.000011
v 0.013199 1.981108 0.000011
v 0.007813 0.976968 0.000011
v -0.373505 0.973382 0.000011
v -0.380775 0.000000 0.000011
v 0.595482 -0.000000 0.000011
v 0.595261 -1.013597 0.000011
v 1.153496 -1.011292 0.000011
v 1.153496 -2.000000 0.000011
v -0.751488 1.995900 0.000011
v -0.769135 2.980024 0.000011
v -0.946777 2.989727 0.000011
v -0.778194 3.002476 0.094837
v -0.778194 1.991650 0.094837
v -0.712112 1.991650 1.092651
v -0.712112 3.002476 1.092651
v 1.054344 3.002476 -0.026524
v 1.120426 3.002476 0.971291
v 1.054344 1.991650 -0.026524
v 1.120426 1.991650 0.971291
v -0.316975 0.974725 -0.064411
v -0.316975 0.003758 -0.064411
v -0.396561 0.003757 0.932419
v -0.396561 0.974725 0.932419
v 1.304703 0.974725 0.065063
v 1.225113 0.974725 1.061893
v 1.304703 0.003758 0.065063
v 1.225113 0.003757 1.061893
v 0.011871 1.983037 -0.038239
v 0.011871 0.980449 -0.038239
v 0.033794 0.980449 0.961521
v 0.033794 1.983037 0.961521
v 1.587620 1.983037 -0.072792
v 1.609547 1.983037 0.926964
v 1.587620 0.980449 -0.072792
v 1.609547 0.980449 0.926964
v 0.610462 0.000716 0.071960
v 0.610462 -1.011541 0.071960
v 0.615486 -1.011542 1.071945
v 0.615486 0.000716 1.071945
v 1.897312 0.000716 0.065491
v 1.902340 0.000716 1.065479
v 1.897312 -1.011541 0.065491
v 1.902340 -1.011542 1.065479
v 1.193726 -1.020945 -0.022232
v 1.193726 -1.996166 -0.022232
v 1.145260 -1.996166 0.976593
v 1.145260 -1.020945 0.976593
v 3.104031 -1.020945 0.070461
v 3.055569 -1.020945 1.069286
v 3.104031 -1.996166 0.070461
v 3.055569 -1.996166 1.069286
vt 0.308158 0.778377
vt 0.515947 0.841946
vt 0.515947 0.554214
vt 0.449343 0.554215
vt 0.308158 0.714460
vt 0.450019 0.841947
vt 0.450019 0.554213
vt 0.449343 0.841946
vt 0.819362 0.554215
vt 0.885009 0.554214
vt 0.515947 0.554214
vt 0.515947 0.841946
vt 0.450019 0.841947
vt 0.450019 0.554213
vt 1.699036 0.841468
vt 1.699036 0.556095
vt 1.746454 0.556095
vt 1.746454 0.841468
vt 0.449343 0.841946
vt 0.449343 0.554215
vt 0.885194 0.554215
vt 0.668227 0.696721
vt 0.639608 0.841946
vt 0.639608 0.554215
vt 0.667836 0.624491
vt 0.640136 0.624233
vt 0.710526 0.841946
vt 0.710509 0.769035
vt 0.819361 0.697707
vt 0.885193 0.697707
vt 0.885009 0.697673
vt 0.751060 0.769201
vt 0.751060 0.698081
vt 0.612679 0.697785
vt 0.611397 0.768576
vt 0.439744 0.778373
vt 0.599360 0.841945
vt 0.598493 0.769274
vt 0.439746 0.714460
vt 0.594899 0.694338
vt 0.594899 0.626921
vt 0.663396 0.626921
vt 0.663396 0.694338
vt 0.649930 0.702007
vt 0.627777 0.702007
vt 0.627777 0.760103
vt 0.649930 0.760103
vt 0.594899 0.694338
vt 0.594899 0.626921
vt 0.663396 0.626921
vt 0.663396 0.694338
vt 0.627833 0.702007
vt 0.684550 0.702007
vt 0.684550 0.760103
vt 0.627833 0.760103
vt 0.594899 0.694338
vt 0.594899 0.626921
vt 0.663396 0.626921
vt 0.663396 0.694338
vt 0.628045 0.702007
vt 0.660476 0.702007
vt 0.660476 0.760103
vt 0.628045 0.760103
vt 0.594899 0.694338
vt 0.594899 0.626921
vt 0.663396 0.626921
vt 0.663396 0.694338
vt 0.246052 0.849810
vt 0.369183 0.849810
vt 0.369183 0.921005
vt 0.246052 0.921005
vt 0.627361 0.702485
vt 0.671786 0.702485
vt 0.671786 0.760581
vt 0.627361 0.760581
vt 0.594899 0.694338
vt 0.594899 0.626921
vt 0.663396 0.626921
vt 0.663396 0.694338
vt 0.157881 0.636525
vt 0.157881 0.624797
vt 0.223902 0.624797
vt 0.223902 0.636525
vt 0.594899 0.694338
vt 0.594899 0.626921
vt 0.663396 0.626921
vt 0.663396 0.694338
vt 0.735176 0.841946
vt 0.736044 0.769274
vt 0.723140 0.768576
vt 0.721858 0.697785
vt 0.666310 0.696721
vt 0.666701 0.624491
vt 0.694400 0.624233
vt 0.694929 0.554215
vt 0.885194 0.554215
vt 0.885194 0.841946
vt 0.449344 0.697690
vt 0.449343 0.554215
vt 0.885194 0.554215
vt 0.885194 0.841946
vt 0.694929 0.841946
vt 0.624012 0.841946
vt 0.624028 0.769035
vt 0.583477 0.769201
vt 0.583477 0.698081
vt 0.721765 0.840908
vt 0.721764 0.771101
vt 0.806269 0.771094
vt 0.806270 0.840915
vt 0.369224 0.913783
vt 0.246462 0.913745
vt 0.246458 0.850247
vt 0.369228 0.850247
vt 0.657351 0.627270
vt 0.657351 0.696181
vt 0.586562 0.696188
vt 0.586562 0.627262
vt 1.712920 0.778137
vt 1.806545 0.778137
vt 1.806548 0.839681
vt 1.712917 0.839681
vt 0.748033 0.699130
vt 0.748034 0.764494
vt 0.614628 0.768058
vt 0.614629 0.699130
vt 0.721765 0.840907
vt 0.721764 0.771101
vt 0.806269 0.771094
vt 0.806270 0.840915
vt 0.355196 0.913627
vt 0.246465 0.913623
vt 0.246458 0.850247
vt 0.355194 0.850258
vt 0.657341 0.627280
vt 0.657341 0.696170
vt 0.586573 0.696170
vt 0.586574 0.627280
vt 1.712922 0.778141
vt 1.795847 0.778138
vt 1.795846 0.839671
vt 1.712917 0.839681
vt 0.759625 0.554520
vt 0.759625 0.623304
vt 0.641576 0.623310
vt 0.641576 0.554515
vt 0.721784 0.840902
vt 0.721784 0.771107
vt 0.806261 0.771101
vt 0.806261 0.840908
vt 0.369221 0.913827
vt 0.260959 0.913782
vt 0.260958 0.850225
vt 0.369228 0.850247
vt 0.657351 0.627270
vt 0.657351 0.696181
vt 0.586562 0.696188
vt 0.586562 0.627262
vt 1.723976 0.778142
vt 1.806543 0.778145
vt 1.806548 0.839681
vt 1.723975 0.839675
vt 0.785255 0.625850
vt 0.783348 0.694990
vt 0.668227 0.694986
vt 0.668227 0.625855
vt 0.748033 0.699130
vt 0.614629 0.699130
vt 0.614628 0.768058
vt 0.748034 0.764494
vt 0.759625 0.554520
vt 0.641576 0.554515
vt 0.641576 0.623310
vt 0.759625 0.623304
vt 0.785255 0.625850
vt 0.668227 0.625855
vt 0.668227 0.694986
vt 0.783348 0.694990
vt 0.721764 0.840907
vt 0.721764 0.771101
vt 0.806269 0.771094
vt 0.806270 0.840915
vt 0.332475 0.913627
vt 0.246465 0.913623
vt 0.246458 0.850247
vt 0.332478 0.850253
vt 0.657345 0.627279
vt 0.657345 0.696171
vt 0.586570 0.696177
vt 0.586570 0.627273
vt 1.712922 0.778141
vt 1.778518 0.778137
vt 1.778521 0.839676
vt 1.712917 0.839681
vt 0.806199 0.771312
vt 0.806199 0.840171
vt 0.712768 0.840167
vt 0.712768 0.771316
vt 0.721784 0.840902
vt 0.721784 0.771107
vt 0.806261 0.771101
vt 0.806261 0.840908
vt 0.442185 0.566318
vt 0.442538 0.700780
vt 0.372234 0.700965
vt 0.371880 0.566503
vt 0.657348 0.627270
vt 0.657347 0.696180
vt 0.586566 0.696180
vt 0.586566 0.627270
vt 1.763539 0.778143
vt 1.860155 0.778155
vt 1.860157 0.839683
vt 1.763536 0.839675
vt 0.891038 0.699135
vt 0.891039 0.765503
vt 0.753362 0.765505
vt 0.753362 0.699134
vt 0.806199 0.771312
vt 0.712768 0.771316
vt 0.712768 0.840167
vt 0.806199 0.840171
vt 0.891038 0.699135
vt 0.753362 0.699134
vt 0.753362 0.768054
vt 0.891039 0.768052
vn 0.000000 1.000000 0.000000
vn 0.000000 1.000000 0.000000
vn 0.000000 1.000000 0.000000
vn 0.000000 1.000000 0.000000
vn -1.000000 0.000000 -0.000000
vn -1.000000 0.000000 -0.000000
vn -1.000000 0.000000 -0.000000
vn -1.000000 0.000000 -0.000000
vn -1.000000 0.000000 -0.000000
vn -1.000000 0.000000 -0.000000
vn -0.000000 -1.000000 -0.000000
vn -0.000000 -1.000000 -0.000000
vn -0.000000 -1.000000 -0.000000
vn -0.000000 -1.000000 -0.000000
vn -0.000000 0.000000 1.000000
vn -0.000000 0.000000 1.000000
vn -0.000000 0.000000 1.000000
vn -0.000000 0.000000 1.000000
vn -0.000000 0.000000 1.000000
vn -0.000000 0.000000 1.000000
vn -0.000000 0.000000 1.000000
vn -0.000000 0.000000 1.000000
vn -0.000000 0.000000 1.000000
vn -0.000000 0.000000 1.000000
vn 1.000000 -0.000000 0.000000
vn 1.000000 -0.000000 0.000000
vn 1.000000 -0.000000 0.000000
vn 1.000000 -0.000000 0.000000
vn -0.000000 0.000000 1.000000
vn -0.000000 0.000000 1.000000
vn -0.000000 0.000000 1.000000
vn -0.000000 0.000000 1.000000
vn -0.000000 0.000000 1.000000
vn -0.000000 0.000000 1.000000
vn -0.000000 0.000000 1.000000
vn 0.999986 -0.005364 0.000000
vn 0.999986 -0.005364 0.000000
vn 0.999986 -0.005364 0.000000
vn 0.999986 -0.005364 0.000000
vn 0.009405 -0.999956 0.000000
vn 0.009405 -0.999956 0.000000
vn 0.009405 -0.999956 0.000000
vn 0.009405 -0.999956 0.000000
vn 0.999972 -0.007469 0.000000
vn 0.999972 -0.007469 0.000000
vn 0.999972 -0.007469 0.000000
vn 0.999972 -0.007469 0.000000
vn 0.000000 1.000000 0.000000
vn 0.000000 1.000000 0.000000
vn 0.000000 1.000000 0.000000
vn 0.000000 1.000000 0.000000
vn 1.000000 -0.000218 0.000000
vn 1.000000 -0.000218 0.000000
vn 1.000000 -0.000218 0.000000
vn 1.000000 -0.000218 0.000000
vn -0.004129 0.999992 -0.000000
vn -0.004129 0.999992 -0.000000
vn -0.004129 0.999992 -0.000000
vn -0.004129 0.999992 -0.000000
vn 1.000000 -0.000000 0.000000
vn 1.000000 -0.000000 0.000000
vn 1.000000 -0.000000 0.000000
vn 1.000000 -0.000000 0.000000
vn 0.002876 0.999996 -0.000119
vn 0.002876 0.999996 -0.000119
vn 0.002876 0.999996 -0.000119
vn 0.002876 0.999996 -0.000119
vn 0.019340 0.999813 0.000000
vn 0.019340 0.999813 0.000000
vn 0.019340 0.999813 0.000000
vn 0.019340 0.999813 0.000000
vn 0.999839 0.017929 0.000000
vn 0.999839 0.017929 0.000000
vn 0.999839 0.017929 0.000000
vn 0.999839 0.017929 0.000000
vn 0.054535 0.998512 0.000000
vn 0.054535 0.998512 0.000000
vn 0.054535 0.998512 0.000000
vn 0.054535 0.998512 0.000000
vn 0.999930 -0.011825 0.000000
vn 0.999930 -0.011825 0.000000
vn 0.999930 -0.011825 0.000000
vn 0.999930 -0.011825 0.000000
vn 0.000000 -0.000000 -1.000000
vn 0.000000 -0.000000 -1.000000
vn 0.000000 -0.000000 -1.000000
vn 0.000000 -0.000000 -1.000000
vn 0.000000 -0.000000 -1.000000
vn 0.000000 -0.000000 -1.000000
vn 0.000000 -0.000000 -1.000000
vn 0.000000 -0.000000 -1.000000
vn 0.000000 -0.000000 -1.000000
vn 0.000000 -0.000000 -1.000000
vn 0.000000 -0.000000 -1.000000
vn 0.000000 -0.000000 -1.000000
vn 0.000000 -0.000000 -1.000000
vn 0.000000 -0.000000 -1.000000
vn 0.000000 -0.000000 -1.000000
vn 0.000000 -0.000000 -1.000000
vn 0.000000 -0.000000 -1.000000
vn -0.997814 0.000000 0.066082
vn -0.997814 0.000000 0.066082
vn -0.997814 0.000000 0.066082
vn -0.997814 0.000000 0.066082
vn 0.000000 1.000000 0.000000
vn 0.000000 1.000000 0.000000
vn 0.000000 1.000000 0.000000
vn 0.000000 1.000000 0.000000
vn 0.997814 -0.000000 -0.066082
vn 0.997814 -0.000000 -0.066082
vn 0.997814 -0.000000 -0.066082
vn 0.997814 -0.000000 -0.066082
vn -0.000000 -1.000000 -0.000000
vn -0.000000 -1.000000 -0.000000
vn -0.000000 -1.000000 -0.000000
vn -0.000000 -1.000000 -0.000000
vn 0.066081 -0.000000 0.997814
vn 0.066081 -0.000000 0.997814
vn 0.066081 -0.000000 0.997814
vn 0.066081 -0.000000 0.997814
vn -0.996828 0.000000 -0.079586
vn -0.996828 0.000000 -0.079586
vn -0.996828 0.000000 -0.079586
vn -0.996828 0.000000 -0.079586
vn 0.000000 1.000000 -0.000000
vn 0.000000 1.000000 -0.000000
vn 0.000000 1.000000 -0.000000
vn 0.000000 1.000000 -0.000000
vn 0.996828 -0.000000 0.079590
vn 0.996828 -0.000000 0.079590
vn 0.996828 -0.000000 0.079590
vn 0.996828 -0.000000 0.079590
vn 0.000000 -1.000000 -0.000002
vn 0.000000 -1.000000 -0.000002
vn 0.000000 -1.000000 -0.000002
vn 0.000000 -1.000000 -0.000002
vn -0.079587 0.000000 0.996828
vn -0.079587 0.000000 0.996828
vn -0.079587 0.000000 0.996828
vn -0.079587 0.000000 0.996828
vn -0.999760 0.000000 0.021923
vn -0.999760 0.000000 0.021923
vn -0.999760 0.000000 0.021923
vn -0.999760 0.000000 0.021923
vn 0.000000 1.000000 0.000000
vn 0.000000 1.000000 0.000000
vn 0.000000 1.000000 0.000000
vn 0.000000 1.000000 0.000000
vn 0.999760 -0.000000 -0.021927
vn 0.999760 -0.000000 -0.021927
vn 0.999760 -0.000000 -0.021927
vn 0.999760 -0.000000 -0.021927
vn 0.000000 -1.000000 0.000000
vn 0.000000 -1.000000 0.000000
vn 0.000000 -1.000000 0.000000
vn 0.000000 -1.000000 0.000000
vn 0.021925 -0.000000 0.999760
vn 0.021925 -0.000000 0.999760
vn 0.021925 -0.000000 0.999760
vn 0.021925 -0.000000 0.999760
vn -0.066081 0.000000 -0.997814
vn -0.066081 0.000000 -0.997814
vn -0.066081 0.000000 -0.997814
vn -0.066081 0.000000 -0.997814
vn 0.079587 -0.000000 -0.996828
vn 0.079587 -0.000000 -0.996828
vn 0.079587 -0.000000 -0.996828
vn 0.079587 -0.000000 -0.996828
vn -0.021923 0.000000 -0.999760
vn -0.021923 0.000000 -0.999760
vn -0.021923 0.000000 -0.999760
vn -0.021923 0.000000 -0.999760
vn -0.999987 0.000000 0.005024
vn -0.999987 0.000000 0.005024
vn -0.999987 0.000000 0.005024
vn -0.999987 0.000000 0.005024
vn 0.000000 1.000000 -0.000000
vn 0.000000 1.000000 -0.000000
vn 0.000000 1.000000 -0.000000
vn 0.000000 1.000000 -0.000000
vn 0.999987 -0.000000 -0.005028
vn 0.999987 -0.000000 -0.005028
vn 0.999987 -0.000000 -0.005028
vn 0.999987 -0.000000 -0.005028
vn -0.000000 -1.000000 -0.000001
vn -0.000000 -1.000000 -0.000001
vn -0.000000 -1.000000 -0.000001
vn -0.000000 -1.000000 -0.000001
vn 0.005025 -0.000000 0.999987
vn 0.005025 -0.000000 0.999987
vn 0.005025 -0.000000 0.999987
vn 0.005025 -0.000000 0.999987
vn -0.998825 0.000000 -0.048466
vn -0.998825 0.000000 -0.048466
vn -0.998825 0.000000 -0.048466
vn -0.998825 0.000000 -0.048466
vn 0.000000 1.000000 -0.000000
vn 0.000000 1.000000 -0.000000
vn 0.000000 1.000000 -0.000000
vn 0.000000 1.000000 -0.000000
vn 0.998825 -0.000000 0.048462
vn 0.998825 -0.000000 0.048462
vn 0.998825 -0.000000 0.048462
vn 0.998825 -0.000000 0.048462
vn -0.000000 -1.000000 -0.000000
vn -0.000000 -1.000000 -0.000000
vn -0.000000 -1.000000 -0.000000
vn -0.000000 -1.000000 -0.000000
vn -0.048466 0.000000 0.998825
vn -0.048466 0.000000 0.998825
vn -0.048466 0.000000 0.998825
vn -0.048466 0.000000 0.998825
vn -0.005028 0.000000 -0.999987
vn -0.005028 0.000000 -0.999987
vn -0.005028 0.000000 -0.999987
vn -0.005028 0.000000 -0.999987
vn 0.048466 -0.000000 -0.998825
vn 0.048466 -0.000000 -0.998825
vn 0.048466 -0.000000 -0.998825
vn 0.048466 -0.000000 -0.998825
s off
f 1/1/1 21/36/2 23/39/3 4/5/4
s 1
f 2/3/5 1/2/6 4/6/7 3/7/8
f 6/11/9 2/12/5 3/13/8 7/14/10
s off
f 5/15/11 6/16/12 7/17/13 8/18/14
s 2
f 20/35/15 22/38/16 21/37/17 1/8/18 2/4/19 10/24/20 12/26/21 11/25/22 9/22/23 19/34/24
s off
f 16/31/25 15/29/26 5/9/27 8/10/28
s 2
f 2/19/19 6/20/29 5/21/30 15/30/31 18/33/32 17/32/33 14/28/34 13/27/35 10/23/20
s off
f 9/40/36 11/41/37 25/42/38 24/43/39
f 11/44/40 12/45/41 26/46/42 25/47/43
f 12/48/44 10/49/45 27/50/46 26/51/47
f 10/52/48 13/53/49 28/54/50 27/55/51
f 13/56/52 14/57/53 29/58/54 28/59/55
f 14/60/56 17/61/57 30/62/58 29/63/59
f 17/64/60 18/65/61 31/66/62 30/67/63
f 18/68/64 15/69/65 16/70/66 31/71/67
f 19/72/68 9/73/69 24/74/70 32/75/71
f 20/76/72 19/77/73 32/78/74 33/79/75
f 22/80/76 20/81/77 33/82/78 34/83/79
f 21/84/80 22/85/81 34/86/82 23/87/83
s 3
f 23/88/84 34/89/85 33/90/86 32/91/87 24/92/88 25/93/89 26/94/90 27/95/91 3/96/92 4/97/93
f 16/98/94 8/99/95 7/100/96 3/101/92 27/102/91 28/103/97 29/104/98 30/105/99 31/106/100
s off
f 35/107/101 36/108/102 37/109/103 38/110/104
f 39/111/105 35/112/106 38/113/107 40/114/108
f 41/115/109 39/116/110 40/117/111 42/118/112
f 36/119/113 41/120/114 42/121/115 37/122/116
f 42/123/117 40/124/118 38/125/119 37/126/120
f 43/127/121 44/128/122 45/129/123 46/130/124
f 47/131/125 43/132/126 46/133/127 48/134/128
f 49/135/129 47/136/130 48/137/131 50/138/132
f 44/139/133 49/140/134 50/141/135 45/142/136
f 50/143/137 48/144/138 46/145/139 45/146/140
f 51/147/141 52/148/142 53/149/143 54/150/144
f 55/151/145 51/152/146 54/153/147 56/154/148
f 57/155/149 55/156/150 56/157/151 58/158/152
f 52/159/153 57/160/154 58/161/155 53/162/156
f 58/163/157 56/164/158 54/165/159 53/166/160
f 41/167/161 36/168/162 35/169/163 39/170/164
f 49/171/165 44/172/166 43/173/167 47/174/168
f 57/175/169 52/176/170 51/177/171 55/178/172
f 59/179/173 60/180/174 61/181/175 62/182/176
f 63/183/177 59/184/178 62/185/179 64/186/180
f 65/187/181 63/188/182 64/189/183 66/190/184
f 60/191/185 65/192/186 66/193/187 61/194/188
f 66/195/189 64/196/190 62/197/191 61/198/192
f 67/199/193 68/200/194 69/201/195 70/202/196
f 71/203/197 67/204/198 70/205/199 72/206/200
f 73/207/201 71/208/202 72/209/203 74/210/204
f 68/211/205 73/212/206 74/213/207 69/214/208
f 74/215/209 72/216/210 70/217/211 69/218/212
f 65/219/213 60/220/214 59/221/215 63/222/216
f 73/223/217 68/224/218 67/225/219 71/226/220
