# This file uses centimeters as units for non-parametric coordinates.

v 0.733185 0.991891 0.452530
v 0.733185 0.008274 0.452530
v 0.745338 0.008274 -0.094481
v 0.745338 0.991891 -0.094481
v -1.169842 0.991891 0.414072
v -1.157688 0.991891 -0.132936
v -1.169842 0.008274 0.414072
v -1.157688 0.008274 -0.132936
v 3.031551 0.990116 0.945967
v 3.031551 0.014473 0.945967
v 3.057594 0.014473 -0.090036
v 3.057594 0.990116 -0.090036
v 1.445751 0.990116 0.906103
v 1.471794 0.990116 -0.129900
v 1.445751 0.014473 0.906103
v 1.471794 0.014473 -0.129900
v 1.452713 0.989209 0.470570
v 1.452713 0.014473 0.470570
v 1.441875 0.014473 -0.076468
v 1.441875 0.989209 -0.076468
v 0.762844 0.989209 0.484236
v 0.752007 0.989209 -0.062801
v 0.762844 0.014473 0.484236
v 0.752007 0.014473 -0.062801
v 3.119576 -0.013628 0.878134
v 3.119576 -1.004966 0.878134
v 3.091362 -1.004966 -0.121468
v 3.091362 -0.013628 -0.121468
v 1.162693 -0.013628 0.932751
v 1.134480 -0.013628 -0.066851
v 1.162693 -1.004966 0.932751
v 1.134480 -1.004966 -0.066851
v 0.012348 -0.006210 0.423582
v 0.012348 -1.004966 0.423582
v -0.005558 -1.004966 -0.123272
v -0.005558 -0.006210 -0.123272
v -1.599747 -0.006210 0.475176
v -1.617657 -0.006210 -0.071676
v -1.599747 -1.004966 0.475176
v -1.617657 -1.004966 -0.071676
v -1.595951 -0.005095 0.897728
v -1.595951 -1.004966 0.897728
v -1.628353 -1.004966 -0.101746
v -1.628353 -0.005095 -0.101746
v -3.036171 -0.005095 0.940521
v -3.068569 -0.005095 -0.058954
v -3.036171 -1.004966 0.940521
v -3.068569 -1.004966 -0.058954
v 0.368408 -1.015095 0.474182
v 0.368408 -2.000298 0.474182
v 0.368408 -2.000300 -0.072964
v 0.368408 -1.015095 -0.072964
v -0.842148 -1.015095 0.474182
v -0.842148 -1.015095 -0.072964
v -0.842148 -2.000298 0.474182
v -0.842148 -2.000300 -0.072964
v -1.318378 -1.016348 0.923023
v -1.318378 -2.000298 0.923023
v -1.289696 -2.000300 -0.076565
v -1.289696 -1.016348 -0.076565
v -3.127480 -1.016348 0.871330
v -3.098801 -1.016348 -0.128258
v -3.127480 -2.000298 0.871330
v -3.098801 -2.000300 -0.128258
v 0.382690 1.985412 0.451303
v 0.520508 1.019147 0.451303
v 0.520508 1.019146 -0.050623
v 0.382690 1.985412 -0.050623
v -0.585190 1.985412 0.451303
v -0.585190 1.985412 -0.050623
v -0.585190 1.019147 0.451303
v -0.585190 1.019146 -0.050623
v 0.487724 1.631603 0.451303
v 0.487724 1.631602 -0.050623
v -0.592064 1.977613 0.453758
v -0.592064 1.019147 0.453758
v -0.592064 1.019146 -0.071852
v -0.592064 1.977613 -0.071852
v -1.953102 1.977613 0.453758
v -1.953102 1.977613 -0.071852
v -1.953102 1.019147 0.453758
v -1.953102 1.019146 -0.071852
vt 0.754652 0.840908
vt 0.754651 0.771101
vt 0.806269 0.771094
vt 0.806270 0.840915
vt 0.369224 0.889121
vt 0.246461 0.888969
vt 0.246458 0.850247
vt 0.369228 0.850247
vt 0.629802 0.627269
vt 0.629802 0.696181
vt 0.586562 0.696188
vt 0.586562 0.627262
vt 1.712919 0.802088
vt 1.806546 0.802088
vt 1.806548 0.839681
vt 1.712917 0.839681
vt 0.748033 0.699130
vt 0.748034 0.764494
vt 0.614628 0.768058
vt 0.614629 0.699130
vt 0.711933 0.839602
vt 0.711928 0.771100
vt 0.806269 0.771094
vt 0.806265 0.839602
vt 0.331616 0.921000
vt 0.246463 0.921000
vt 0.246461 0.850253
vt 0.331614 0.850253
vt 0.665587 0.627269
vt 0.665583 0.694888
vt 0.586570 0.694888
vt 0.586566 0.627269
vt 1.712919 0.770973
vt 1.777865 0.770977
vt 1.777865 0.839677
vt 1.712917 0.839681
vt 0.655502 0.766756
vt 0.655499 0.699141
vt 0.748031 0.699138
vt 0.748028 0.766756
vt 0.559739 0.699134
vt 0.559736 0.766759
vt 0.467207 0.766760
vt 0.467204 0.699138
vt 0.754669 0.840904
vt 0.754669 0.771105
vt 0.806252 0.771105
vt 0.806252 0.840904
vt 0.369224 0.889121
vt 0.326392 0.889066
vt 0.326394 0.850250
vt 0.369228 0.850247
vt 0.629802 0.627269
vt 0.629802 0.696181
vt 0.586562 0.696188
vt 0.586562 0.627262
vt 1.773880 0.802097
vt 1.806546 0.802088
vt 1.806548 0.839681
vt 1.773881 0.839671
vt 0.610404 0.699130
vt 0.610405 0.768058
vt 0.563860 0.768052
vt 0.563860 0.699135
vt 0.711928 0.840909
vt 0.711928 0.771100
vt 0.806269 0.771094
vt 0.806270 0.840915
vt 0.369225 0.921310
vt 0.246461 0.921005
vt 0.246458 0.850247
vt 0.369228 0.850247
vt 0.665591 0.627268
vt 0.665591 0.696182
vt 0.586562 0.696188
vt 0.586562 0.627262
vt 1.712919 0.770973
vt 1.806546 0.770973
vt 1.806548 0.839681
vt 1.712917 0.839681
vt 0.614634 0.768050
vt 0.614634 0.699137
vt 0.748031 0.699138
vt 0.748031 0.768050
vt 0.580919 0.625850
vt 0.580919 0.694752
vt 0.451122 0.694750
vt 0.451122 0.625852
vt 0.754660 0.840908
vt 0.754660 0.771101
vt 0.806261 0.771101
vt 0.806261 0.840908
vt 0.369224 0.889122
vt 0.260958 0.889010
vt 0.260958 0.850225
vt 0.369228 0.850247
vt 0.629802 0.627269
vt 0.629802 0.696181
vt 0.586562 0.696188
vt 0.586562 0.627262
vt 1.723975 0.802094
vt 1.806546 0.802088
vt 1.806548 0.839681
vt 1.723975 0.839675
vt 0.785255 0.625850
vt 0.783348 0.694990
vt 0.668227 0.694986
vt 0.668227 0.625855
vt 0.711928 0.840909
vt 0.711928 0.771100
vt 0.806269 0.771094
vt 0.806270 0.840915
vt 0.336281 0.921001
vt 0.246461 0.921005
vt 0.246458 0.850247
vt 0.336281 0.850251
vt 0.665587 0.627269
vt 0.665587 0.696181
vt 0.586566 0.696181
vt 0.586566 0.627269
vt 1.712919 0.770973
vt 1.781421 0.770977
vt 1.781421 0.839677
vt 1.712917 0.839681
vt 0.650432 0.768046
vt 0.650432 0.699141
vt 0.748031 0.699138
vt 0.748031 0.768050
vt 0.884056 0.625864
vt 0.884055 0.694737
vt 0.786482 0.694741
vt 0.786483 0.625860
vt 0.754652 0.840908
vt 0.754651 0.771101
vt 0.806269 0.771094
vt 0.806270 0.840915
vt 0.323650 0.888961
vt 0.246463 0.888961
vt 0.246458 0.850247
vt 0.323652 0.850253
vt 0.629801 0.627277
vt 0.629801 0.696174
vt 0.586570 0.696177
vt 0.586570 0.627273
vt 1.712920 0.802088
vt 1.771788 0.802088
vt 1.771790 0.839676
vt 1.712917 0.839681
vt 0.725378 0.554519
vt 0.725378 0.623306
vt 0.641576 0.623310
vt 0.641576 0.554515
vt 0.711928 0.840909
vt 0.711928 0.771100
vt 0.806269 0.771094
vt 0.806270 0.840915
vt 0.336303 0.921001
vt 0.246461 0.921005
vt 0.246458 0.850247
vt 0.336303 0.850251
vt 0.665587 0.627269
vt 0.665587 0.696181
vt 0.586566 0.696181
vt 0.586566 0.627269
vt 1.712919 0.770973
vt 1.781438 0.770977
vt 1.781438 0.839677
vt 1.712917 0.839681
vt 0.650408 0.768046
vt 0.650408 0.699141
vt 0.748031 0.699138
vt 0.748031 0.768050
vt 0.862169 0.554524
vt 0.862169 0.623300
vt 0.764647 0.623304
vt 0.764647 0.554520
vt 0.760315 0.840674
vt 0.759693 0.815037
vt 0.806257 0.815073
vt 0.806250 0.840770
vt 0.337934 0.884687
vt 0.255717 0.884692
vt 0.255711 0.850259
vt 0.337943 0.850251
vt 0.625035 0.627276
vt 0.625035 0.696174
vt 0.586566 0.696181
vt 0.586566 0.627269
vt 1.712950 0.806234
vt 1.782683 0.806236
vt 1.782689 0.839677
vt 1.712946 0.839674
vt 0.709588 0.771318
vt 0.709588 0.840166
vt 0.640892 0.840159
vt 0.635027 0.815309
vt 0.633196 0.771323
vt 0.760312 0.771133
vt 0.806255 0.771103
vt 0.757310 0.840908
vt 0.757310 0.771102
vt 0.806269 0.771094
vt 0.806270 0.840915
vt 0.332474 0.886970
vt 0.246463 0.886966
vt 0.246458 0.850247
vt 0.332478 0.850253
vt 0.627575 0.627279
vt 0.627575 0.696171
vt 0.586570 0.696177
vt 0.586570 0.627273
vt 1.712921 0.804026
vt 1.778518 0.804022
vt 1.778521 0.839676
vt 1.712917 0.839681
vt 0.806199 0.771312
vt 0.806199 0.840171
vt 0.712768 0.840167
vt 0.712768 0.771316
vn 0.999753 -0.000000 0.022213
vn 0.999753 -0.000000 0.022213
vn 0.999753 -0.000000 0.022213
vn 0.999753 -0.000000 0.022213
vn 0.000000 1.000000 0.000000
vn 0.000000 1.000000 0.000000
vn 0.000000 1.000000 0.000000
vn 0.000000 1.000000 0.000000
vn -0.999753 0.000000 -0.022213
vn -0.999753 0.000000 -0.022213
vn -0.999753 0.000000 -0.022213
vn -0.999753 0.000000 -0.022213
vn -0.000000 -1.000000 0.000000
vn -0.000000 -1.000000 0.000000
vn -0.000000 -1.000000 0.000000
vn -0.000000 -1.000000 0.000000
vn 0.020204 -0.000000 -0.999796
vn 0.020204 -0.000000 -0.999796
vn 0.020204 -0.000000 -0.999796
vn 0.020204 -0.000000 -0.999796
vn 0.999684 -0.000000 0.025130
vn 0.999684 -0.000000 0.025130
vn 0.999684 -0.000000 0.025130
vn 0.999684 -0.000000 0.025130
vn 0.000000 1.000000 -0.000000
vn 0.000000 1.000000 -0.000000
vn 0.000000 1.000000 -0.000000
vn 0.000000 1.000000 -0.000000
vn -0.999684 0.000000 -0.025130
vn -0.999684 0.000000 -0.025130
vn -0.999684 0.000000 -0.025130
vn -0.999684 0.000000 -0.025130
vn -0.000000 -1.000000 -0.000000
vn -0.000000 -1.000000 -0.000000
vn -0.000000 -1.000000 -0.000000
vn -0.000000 -1.000000 -0.000000
vn -0.025130 0.000000 0.999684
vn -0.025130 0.000000 0.999684
vn -0.025130 0.000000 0.999684
vn -0.025130 0.000000 0.999684
vn 0.025130 -0.000000 -0.999684
vn 0.025130 -0.000000 -0.999684
vn 0.025130 -0.000000 -0.999684
vn 0.025130 -0.000000 -0.999684
vn 0.999804 -0.000000 -0.019807
vn 0.999804 -0.000000 -0.019807
vn 0.999804 -0.000000 -0.019807
vn 0.999804 -0.000000 -0.019807
vn 0.000000 1.000000 0.000000
vn 0.000000 1.000000 0.000000
vn 0.000000 1.000000 0.000000
vn 0.000000 1.000000 0.000000
vn -0.999804 0.000000 0.019807
vn -0.999804 0.000000 0.019807
vn -0.999804 0.000000 0.019807
vn -0.999804 0.000000 0.019807
vn -0.000000 -1.000000 -0.000000
vn -0.000000 -1.000000 -0.000000
vn -0.000000 -1.000000 -0.000000
vn -0.000000 -1.000000 -0.000000
vn -0.019806 0.000000 -0.999804
vn -0.019806 0.000000 -0.999804
vn -0.019806 0.000000 -0.999804
vn -0.019806 0.000000 -0.999804
vn 0.999602 -0.000000 -0.028214
vn 0.999602 -0.000000 -0.028214
vn 0.999602 -0.000000 -0.028214
vn 0.999602 -0.000000 -0.028214
vn 0.000000 1.000000 0.000000
vn 0.000000 1.000000 0.000000
vn 0.000000 1.000000 0.000000
vn 0.000000 1.000000 0.000000
vn -0.999602 0.000000 0.028214
vn -0.999602 0.000000 0.028214
vn -0.999602 0.000000 0.028214
vn -0.999602 0.000000 0.028214
vn -0.000000 -1.000000 -0.000000
vn -0.000000 -1.000000 -0.000000
vn -0.000000 -1.000000 -0.000000
vn -0.000000 -1.000000 -0.000000
vn 0.027899 -0.000000 0.999611
vn 0.027899 -0.000000 0.999611
vn 0.027899 -0.000000 0.999611
vn 0.027899 -0.000000 0.999611
vn -0.027899 0.000000 -0.999611
vn -0.027899 0.000000 -0.999611
vn -0.027899 0.000000 -0.999611
vn -0.027899 0.000000 -0.999611
vn 0.999464 -0.000000 -0.032726
vn 0.999464 -0.000000 -0.032726
vn 0.999464 -0.000000 -0.032726
vn 0.999464 -0.000000 -0.032726
vn 0.000000 1.000000 0.000000
vn 0.000000 1.000000 0.000000
vn 0.000000 1.000000 0.000000
vn 0.000000 1.000000 0.000000
vn -0.999464 0.000000 0.032734
vn -0.999464 0.000000 0.032734
vn -0.999464 0.000000 0.032734
vn -0.999464 0.000000 0.032734
vn -0.000000 -1.000000 -0.000000
vn -0.000000 -1.000000 -0.000000
vn -0.000000 -1.000000 -0.000000
vn -0.000000 -1.000000 -0.000000
vn -0.031989 0.000000 -0.999488
vn -0.031989 0.000000 -0.999488
vn -0.031989 0.000000 -0.999488
vn -0.031989 0.000000 -0.999488
vn 0.999475 -0.000000 -0.032402
vn 0.999475 -0.000000 -0.032402
vn 0.999475 -0.000000 -0.032402
vn 0.999475 -0.000000 -0.032402
vn 0.000000 1.000000 -0.000000
vn 0.000000 1.000000 -0.000000
vn 0.000000 1.000000 -0.000000
vn 0.000000 1.000000 -0.000000
vn -0.999475 0.000000 0.032398
vn -0.999475 0.000000 0.032398
vn -0.999475 0.000000 0.032398
vn -0.999475 0.000000 0.032398
vn -0.000000 -1.000000 -0.000000
vn -0.000000 -1.000000 -0.000000
vn -0.000000 -1.000000 -0.000000
vn -0.000000 -1.000000 -0.000000
vn 0.029700 -0.000000 0.999559
vn 0.029700 -0.000000 0.999559
vn 0.029700 -0.000000 0.999559
vn 0.029700 -0.000000 0.999559
vn -0.029699 0.000000 -0.999559
vn -0.029699 0.000000 -0.999559
vn -0.029699 0.000000 -0.999559
vn -0.029699 0.000000 -0.999559
vn 1.000000 -0.000000 0.000000
vn 1.000000 -0.000000 0.000000
vn 1.000000 -0.000000 0.000000
vn 1.000000 -0.000000 0.000000
vn 0.000000 1.000000 0.000000
vn 0.000000 1.000000 0.000000
vn 0.000000 1.000000 0.000000
vn 0.000000 1.000000 0.000000
vn -1.000000 0.000000 -0.000000
vn -1.000000 0.000000 -0.000000
vn -1.000000 0.000000 -0.000000
vn -1.000000 0.000000 -0.000000
vn -0.000000 -1.000000 0.000005
vn -0.000000 -1.000000 0.000005
vn -0.000000 -1.000000 0.000005
vn -0.000000 -1.000000 0.000005
vn 0.000000 0.000000 -1.000000
vn 0.000000 0.000000 -1.000000
vn 0.000000 0.000000 -1.000000
vn 0.000000 0.000000 -1.000000
vn 0.999589 -0.000000 0.028683
vn 0.999589 -0.000000 0.028683
vn 0.999589 -0.000000 0.028683
vn 0.999589 -0.000000 0.028683
vn 0.000000 1.000000 0.000000
vn 0.000000 1.000000 0.000000
vn 0.000000 1.000000 0.000000
vn 0.000000 1.000000 0.000000
vn -0.999589 0.000000 -0.028679
vn -0.999589 0.000000 -0.028679
vn -0.999589 0.000000 -0.028679
vn -0.999589 0.000000 -0.028679
vn -0.000000 -1.000000 0.000003
vn -0.000000 -1.000000 0.000003
vn -0.000000 -1.000000 0.000003
vn -0.000000 -1.000000 0.000003
vn -0.028562 0.000000 0.999592
vn -0.028562 0.000000 0.999592
vn -0.028562 0.000000 0.999592
vn -0.028562 0.000000 0.999592
vn 0.028562 -0.000000 -0.999592
vn 0.028562 -0.000000 -0.999592
vn 0.028562 -0.000000 -0.999592
vn 0.028562 -0.000000 -0.999592
vn 0.958649 0.284590 -0.000000
vn 0.958649 0.284590 -0.000000
vn 0.958649 0.284590 -0.000000
vn 0.958649 0.284590 -0.000000
vn 0.000000 1.000000 0.000000
vn 0.000000 1.000000 0.000000
vn 0.000000 1.000000 0.000000
vn 0.000000 1.000000 0.000000
vn -1.000000 0.000000 -0.000000
vn -1.000000 0.000000 -0.000000
vn -1.000000 0.000000 -0.000000
vn -1.000000 0.000000 -0.000000
vn -0.000000 -1.000000 0.000002
vn -0.000000 -1.000000 0.000002
vn -0.000000 -1.000000 0.000002
vn -0.000000 -1.000000 0.000002
vn 0.000000 0.000000 -1.000000
vn 0.000000 0.000000 -1.000000
vn 0.000000 0.000000 -1.000000
vn 0.000000 0.000000 -1.000000
vn 0.000000 0.000000 -1.000000
vn 0.998570 0.053451 -0.000000
vn 0.998570 0.053451 -0.000000
vn 0.998570 0.053451 -0.000000
vn 0.998570 0.053451 -0.000000
vn 1.000000 -0.000000 0.000000
vn 1.000000 -0.000000 0.000000
vn 1.000000 -0.000000 0.000000
vn 1.000000 -0.000000 0.000000
vn 0.000000 1.000000 0.000000
vn 0.000000 1.000000 0.000000
vn 0.000000 1.000000 0.000000
vn 0.000000 1.000000 0.000000
vn -1.000000 0.000000 -0.000000
vn -1.000000 0.000000 -0.000000
vn -1.000000 0.000000 -0.000000
vn -1.000000 0.000000 -0.000000
vn -0.000000 -1.000000 0.000001
vn -0.000000 -1.000000 0.000001
vn -0.000000 -1.000000 0.000001
vn -0.000000 -1.000000 0.000001
vn 0.000000 0.000000 -1.000000
vn 0.000000 0.000000 -1.000000
vn 0.000000 0.000000 -1.000000
vn 0.000000 0.000000 -1.000000
s off
f 1/1/1 2/2/2 3/3/3 4/4/4
f 5/5/5 1/6/6 4/7/7 6/8/8
f 7/9/9 5/10/10 6/11/11 8/12/12
f 2/13/13 7/14/14 8/15/15 3/16/16
f 8/17/17 6/18/18 4/19/19 3/20/20
f 9/21/21 10/22/22 11/23/23 12/24/24
f 13/25/25 9/26/26 12/27/27 14/28/28
f 15/29/29 13/30/30 14/31/31 16/32/32
f 10/33/33 15/34/34 16/35/35 11/36/36
f 13/37/37 15/38/38 10/39/39 9/40/40
f 16/41/41 14/42/42 12/43/43 11/44/44
f 17/45/45 18/46/46 19/47/47 20/48/48
f 21/49/49 17/50/50 20/51/51 22/52/52
f 23/53/53 21/54/54 22/55/55 24/56/56
f 18/57/57 23/58/58 24/59/59 19/60/60
f 24/61/61 22/62/62 20/63/63 19/64/64
f 25/65/65 26/66/66 27/67/67 28/68/68
f 29/69/69 25/70/70 28/71/71 30/72/72
f 31/73/73 29/74/74 30/75/75 32/76/76
f 26/77/77 31/78/78 32/79/79 27/80/80
f 29/81/81 31/82/82 26/83/83 25/84/84
f 32/85/85 30/86/86 28/87/87 27/88/88
f 33/89/89 34/90/90 35/91/91 36/92/92
f 37/93/93 33/94/94 36/95/95 38/96/96
f 39/97/97 37/98/98 38/99/99 40/100/100
f 34/101/101 39/102/102 40/103/103 35/104/104
f 40/105/105 38/106/106 36/107/107 35/108/108
f 41/109/109 42/110/110 43/111/111 44/112/112
f 45/113/113 41/114/114 44/115/115 46/116/116
f 47/117/117 45/118/118 46/119/119 48/120/120
f 42/121/121 47/122/122 48/123/123 43/124/124
f 45/125/125 47/126/126 42/127/127 41/128/128
f 48/129/129 46/130/130 44/131/131 43/132/132
f 49/133/133 50/134/134 51/135/135 52/136/136
f 53/137/137 49/138/138 52/139/139 54/140/140
f 55/141/141 53/142/142 54/143/143 56/144/144
f 50/145/145 55/146/146 56/147/147 51/148/148
f 56/149/149 54/150/150 52/151/151 51/152/152
f 57/153/153 58/154/154 59/155/155 60/156/156
f 61/157/157 57/158/158 60/159/159 62/160/160
f 63/161/161 61/162/162 62/163/163 64/164/164
f 58/165/165 63/166/166 64/167/167 59/168/168
f 61/169/169 63/170/170 58/171/171 57/172/172
f 64/173/173 62/174/174 60/175/175 59/176/176
f 65/177/177 73/178/178 74/179/179 68/180/180
f 69/181/181 65/182/182 68/183/183 70/184/184
f 71/185/185 69/186/186 70/187/187 72/188/188
f 66/189/189 71/190/190 72/191/191 67/192/192
f 72/193/193 70/194/194 68/195/195 74/196/196 67/197/197
f 73/178/198 66/198/199 67/199/200 74/179/201
f 75/200/202 76/201/203 77/202/204 78/203/205
f 79/204/206 75/205/207 78/206/208 80/207/209
f 81/208/210 79/209/211 80/210/212 82/211/213
f 76/212/214 81/213/215 82/214/216 77/215/217
f 82/216/218 80/217/219 78/218/220 77/219/221
