# This file uses centimeters as units for non-parametric coordinates.

v 1.127197 -0.004528 0.444923
v 1.127197 -1.004966 0.444923
v 1.128212 -1.004966 -0.102226
v 1.128212 -0.004528 -0.102226
v -0.011497 -0.004528 0.442806
v -0.010483 -0.004528 -0.104340
v -0.011497 -1.004966 0.442806
v -0.010483 -1.004966 -0.104340
v 3.110867 1.001053 0.935482
v 3.110867 0.014473 0.935482
v 3.072510 0.014473 -0.100140
v 3.072510 1.001053 -0.100140
v 1.478287 1.001053 0.997139
v 1.439934 1.001053 -0.038483
v 1.478287 0.014473 0.997139
v 1.439934 0.014473 -0.038483
v 0.739670 0.993195 0.476204
v 0.739670 0.008274 0.476204
v 0.739235 0.008274 -0.070942
v 0.739235 0.993195 -0.070942
v -1.163742 0.993195 0.481537
v -1.164177 0.993195 -0.065605
v -1.163742 0.008274 0.481537
v -1.164177 0.008274 -0.065605
v -1.292824 -1.023914 0.467056
v -1.292824 -2.000298 0.467056
v -1.301994 -2.000300 -0.080009
v -1.301994 -1.023914 -0.080009
v -2.703743 -1.023914 0.490707
v -2.712914 -1.023914 -0.056366
v -2.703743 -2.000298 0.490707
v -2.712914 -2.000300 -0.056366
v -1.182999 0.972939 0.455719
v -1.182999 0.014473 0.455719
v -1.183006 0.014473 -0.091431
v -1.183006 0.972939 -0.091431
v -2.057961 0.972939 0.455719
v -2.057961 0.972939 -0.091431
v -2.057961 0.014473 0.455719
v -2.057961 0.014473 -0.091431
v 1.673660 -1.011728 0.490280
v 1.673660 -2.000298 0.490280
v 1.673668 -2.000300 -0.056862
v 1.673668 -1.011728 -0.056862
v 0.375496 -1.011728 0.490280
v 0.375496 -1.011728 -0.056862
v 0.375496 -2.000298 0.490280
v 0.375496 -2.000300 -0.056862
v -0.008240 -0.016750 0.423584
v -0.008240 -1.004966 0.423584
v -0.026146 -1.004966 -0.123272
v -0.026146 -0.016750 -0.123272
v -0.942833 -0.016750 0.475174
v -0.960739 -0.016750 -0.071678
v -0.794388 -1.004966 0.475174
v -0.812294 -1.004966 -0.071678
v 2.350105 1.980216 0.481573
v 2.350105 1.019147 0.481573
v 2.350105 1.019146 -0.052505
v 2.350105 1.980216 -0.052505
v 0.937275 1.980216 0.481573
v 0.937275 1.980216 -0.052505
v 0.937275 1.019147 0.481573
v 0.937275 1.019146 -0.052505
v -0.602425 1.973975 0.481501
v -0.602425 1.019147 0.481501
v -0.602425 1.019146 -0.052578
v -0.602425 1.973975 -0.052578
v -1.939140 1.973975 0.481573
v -1.939140 1.973975 -0.052505
v -1.939140 1.019147 0.481573
v -1.939140 1.019146 -0.052505
vt 0.754652 0.840908
vt 0.754651 0.771101
vt 0.806269 0.771094
vt 0.806270 0.840915
vt 0.318446 0.888962
vt 0.246463 0.888962
vt 0.246458 0.850247
vt 0.318449 0.850251
vt 0.629802 0.627273
vt 0.629802 0.696177
vt 0.586566 0.696181
vt 0.586566 0.627269
vt 1.712920 0.802088
vt 1.767820 0.802088
vt 1.767822 0.839677
vt 1.712917 0.839681
vt 0.664944 0.625859
vt 0.664944 0.694743
vt 0.586731 0.694747
vt 0.586731 0.625855
vt 0.711933 0.839602
vt 0.711928 0.771100
vt 0.806269 0.771094
vt 0.806265 0.839602
vt 0.331616 0.921000
vt 0.246463 0.921000
vt 0.246461 0.850253
vt 0.331614 0.850253
vt 0.665587 0.627269
vt 0.665583 0.694888
vt 0.586570 0.694888
vt 0.586566 0.627269
vt 1.712919 0.770973
vt 1.777865 0.770977
vt 1.777865 0.839677
vt 1.712917 0.839681
vt 0.655502 0.766756
vt 0.655499 0.699141
vt 0.748031 0.699138
vt 0.748028 0.766756
vt 0.559739 0.699134
vt 0.559736 0.766759
vt 0.467207 0.766760
vt 0.467204 0.699138
vt 0.754652 0.840908
vt 0.754651 0.771101
vt 0.806269 0.771094
vt 0.806270 0.840915
vt 0.369224 0.889121
vt 0.246461 0.888969
vt 0.246458 0.850247
vt 0.369228 0.850247
vt 0.629802 0.627269
vt 0.629802 0.696181
vt 0.586562 0.696188
vt 0.586562 0.627262
vt 1.712919 0.802088
vt 1.806546 0.802088
vt 1.806548 0.839681
vt 1.712917 0.839681
vt 0.748033 0.699130
vt 0.748034 0.764494
vt 0.614628 0.768058
vt 0.614629 0.699130
vt 0.754652 0.840908
vt 0.754651 0.771101
vt 0.806269 0.771094
vt 0.806270 0.840915
vt 0.336301 0.888962
vt 0.246462 0.888962
vt 0.246458 0.850247
vt 0.336303 0.850251
vt 0.629802 0.627273
vt 0.629802 0.696177
vt 0.586566 0.696181
vt 0.586566 0.627269
vt 1.712920 0.802088
vt 1.781436 0.802088
vt 1.781438 0.839677
vt 1.712917 0.839681
vt 0.862169 0.554524
vt 0.862169 0.623300
vt 0.764647 0.623304
vt 0.764647 0.554520
vt 0.754660 0.840908
vt 0.754660 0.771101
vt 0.806261 0.771101
vt 0.806261 0.840908
vt 0.369224 0.889121
vt 0.312830 0.889042
vt 0.312830 0.850257
vt 0.369228 0.850247
vt 0.629802 0.627269
vt 0.629802 0.696181
vt 0.586562 0.696188
vt 0.586562 0.627262
vt 1.763536 0.802094
vt 1.806546 0.802088
vt 1.806548 0.839681
vt 1.763536 0.839675
vt 0.814645 0.699130
vt 0.814645 0.767153
vt 0.753362 0.767149
vt 0.753362 0.699134
vt 0.754652 0.840908
vt 0.754651 0.771101
vt 0.806269 0.771094
vt 0.806270 0.840915
vt 0.327505 0.888961
vt 0.246462 0.888961
vt 0.246458 0.850247
vt 0.327507 0.850253
vt 0.629801 0.627277
vt 0.629801 0.696174
vt 0.586570 0.696177
vt 0.586570 0.627273
vt 1.712920 0.802088
vt 1.774728 0.802088
vt 1.774730 0.839676
vt 1.712917 0.839681
vt 0.638411 0.554509
vt 0.638411 0.623316
vt 0.550408 0.623320
vt 0.550408 0.554506
vt 0.754660 0.840908
vt 0.754660 0.771101
vt 0.806261 0.771101
vt 0.806261 0.840908
vt 0.324352 0.890583
vt 0.260958 0.889010
vt 0.260958 0.850225
vt 0.324354 0.851766
vt 0.631885 0.627273
vt 0.631508 0.696181
vt 0.588283 0.696181
vt 0.588674 0.627273
vt 1.723975 0.802094
vt 1.764656 0.800304
vt 1.764657 0.837868
vt 1.723975 0.839675
vt 0.725666 0.625859
vt 0.735716 0.694984
vt 0.668227 0.694986
vt 0.668227 0.625855
vt 0.756881 0.840908
vt 0.756881 0.771101
vt 0.806269 0.771094
vt 0.806270 0.840915
vt 0.337940 0.887291
vt 0.246463 0.887288
vt 0.246458 0.850247
vt 0.337943 0.850251
vt 0.627934 0.627276
vt 0.627934 0.696175
vt 0.586566 0.696181
vt 0.586566 0.627269
vt 1.712921 0.803713
vt 1.782686 0.803711
vt 1.782689 0.839677
vt 1.712917 0.839681
vt 0.597372 0.771318
vt 0.597371 0.840166
vt 0.498017 0.840162
vt 0.498017 0.771322
vt 0.756881 0.840907
vt 0.756881 0.771101
vt 0.806269 0.771094
vt 0.806270 0.840915
vt 0.332474 0.887291
vt 0.246464 0.887287
vt 0.246458 0.850247
vt 0.332478 0.850253
vt 0.627934 0.627279
vt 0.627934 0.696171
vt 0.586570 0.696177
vt 0.586570 0.627273
vt 1.712921 0.803714
vt 1.778518 0.803710
vt 1.778521 0.839676
vt 1.712917 0.839681
vt 0.806199 0.771312
vt 0.806199 0.840171
vt 0.712768 0.840167
vt 0.712768 0.771316
vn 0.999998 -0.000000 0.001855
vn 0.999998 -0.000000 0.001855
vn 0.999998 -0.000000 0.001855
vn 0.999998 -0.000000 0.001855
vn 0.000000 1.000000 -0.000000
vn 0.000000 1.000000 -0.000000
vn 0.000000 1.000000 -0.000000
vn 0.000000 1.000000 -0.000000
vn -0.999998 0.000000 -0.001855
vn -0.999998 0.000000 -0.001855
vn -0.999998 0.000000 -0.001855
vn -0.999998 0.000000 -0.001855
vn 0.000000 -1.000000 -0.000000
vn 0.000000 -1.000000 -0.000000
vn 0.000000 -1.000000 -0.000000
vn 0.000000 -1.000000 -0.000000
vn 0.001856 -0.000000 -0.999998
vn 0.001856 -0.000000 -0.999998
vn 0.001856 -0.000000 -0.999998
vn 0.001856 -0.000000 -0.999998
vn 0.999315 -0.000000 -0.037012
vn 0.999315 -0.000000 -0.037012
vn 0.999315 -0.000000 -0.037012
vn 0.999315 -0.000000 -0.037012
vn 0.000000 1.000000 0.000000
vn 0.000000 1.000000 0.000000
vn 0.000000 1.000000 0.000000
vn 0.000000 1.000000 0.000000
vn -0.999315 0.000000 0.037008
vn -0.999315 0.000000 0.037008
vn -0.999315 0.000000 0.037008
vn -0.999315 0.000000 0.037008
vn -0.000000 -1.000000 0.000000
vn -0.000000 -1.000000 0.000000
vn -0.000000 -1.000000 0.000000
vn -0.000000 -1.000000 0.000000
vn 0.037740 -0.000000 0.999288
vn 0.037740 -0.000000 0.999288
vn 0.037740 -0.000000 0.999288
vn 0.037740 -0.000000 0.999288
vn -0.037740 0.000000 -0.999288
vn -0.037740 0.000000 -0.999288
vn -0.037740 0.000000 -0.999288
vn -0.037740 0.000000 -0.999288
vn 1.000000 -0.000000 -0.000795
vn 1.000000 -0.000000 -0.000795
vn 1.000000 -0.000000 -0.000795
vn 1.000000 -0.000000 -0.000795
vn 0.000000 1.000000 -0.000000
vn 0.000000 1.000000 -0.000000
vn 0.000000 1.000000 -0.000000
vn 0.000000 1.000000 -0.000000
vn -1.000000 0.000000 0.000795
vn -1.000000 0.000000 0.000795
vn -1.000000 0.000000 0.000795
vn -1.000000 0.000000 0.000795
vn -0.000000 -1.000000 0.000000
vn -0.000000 -1.000000 0.000000
vn -0.000000 -1.000000 0.000000
vn -0.000000 -1.000000 0.000000
vn -0.002804 0.000000 -0.999996
vn -0.002804 0.000000 -0.999996
vn -0.002804 0.000000 -0.999996
vn -0.002804 0.000000 -0.999996
vn 0.999860 -0.000000 -0.016761
vn 0.999860 -0.000000 -0.016761
vn 0.999860 -0.000000 -0.016761
vn 0.999860 -0.000000 -0.016761
vn 0.000000 1.000000 -0.000000
vn 0.000000 1.000000 -0.000000
vn 0.000000 1.000000 -0.000000
vn 0.000000 1.000000 -0.000000
vn -0.999860 0.000000 0.016761
vn -0.999860 0.000000 0.016761
vn -0.999860 0.000000 0.016761
vn -0.999860 0.000000 0.016761
vn 0.000000 -1.000000 0.000005
vn 0.000000 -1.000000 0.000005
vn 0.000000 -1.000000 0.000005
vn 0.000000 -1.000000 0.000005
vn -0.016755 0.000000 -0.999860
vn -0.016755 0.000000 -0.999860
vn -0.016755 0.000000 -0.999860
vn -0.016755 0.000000 -0.999860
vn 1.000000 -0.000000 -0.000014
vn 1.000000 -0.000000 -0.000014
vn 1.000000 -0.000000 -0.000014
vn 1.000000 -0.000000 -0.000014
vn 0.000000 1.000000 0.000000
vn 0.000000 1.000000 0.000000
vn 0.000000 1.000000 0.000000
vn 0.000000 1.000000 0.000000
vn -1.000000 0.000000 -0.000000
vn -1.000000 0.000000 -0.000000
vn -1.000000 0.000000 -0.000000
vn -1.000000 0.000000 -0.000000
vn -0.000000 -1.000000 -0.000000
vn -0.000000 -1.000000 -0.000000
vn -0.000000 -1.000000 -0.000000
vn -0.000000 -1.000000 -0.000000
vn 0.000000 0.000000 -1.000000
vn 0.000000 0.000000 -1.000000
vn 0.000000 0.000000 -1.000000
vn 0.000000 0.000000 -1.000000
vn 1.000000 -0.000000 0.000014
vn 1.000000 -0.000000 0.000014
vn 1.000000 -0.000000 0.000014
vn 1.000000 -0.000000 0.000014
vn 0.000000 1.000000 0.000000
vn 0.000000 1.000000 0.000000
vn 0.000000 1.000000 0.000000
vn 0.000000 1.000000 0.000000
vn -1.000000 0.000000 -0.000000
vn -1.000000 0.000000 -0.000000
vn -1.000000 0.000000 -0.000000
vn -1.000000 0.000000 -0.000000
vn -0.000000 -1.000000 0.000005
vn -0.000000 -1.000000 0.000005
vn -0.000000 -1.000000 0.000005
vn -0.000000 -1.000000 0.000005
vn 0.000000 0.000000 -1.000000
vn 0.000000 0.000000 -1.000000
vn 0.000000 0.000000 -1.000000
vn 0.000000 0.000000 -1.000000
vn 0.999464 -0.000000 -0.032726
vn 0.999464 -0.000000 -0.032726
vn 0.999464 -0.000000 -0.032726
vn 0.999464 -0.000000 -0.032726
vn 0.000000 1.000000 0.000000
vn 0.000000 1.000000 0.000000
vn 0.000000 1.000000 0.000000
vn 0.000000 1.000000 0.000000
vn -0.988387 -0.148471 0.032364
vn -0.988387 -0.148471 0.032364
vn -0.988387 -0.148471 0.032364
vn -0.988387 -0.148471 0.032364
vn -0.000000 -1.000000 -0.000001
vn -0.000000 -1.000000 -0.000001
vn -0.000000 -1.000000 -0.000001
vn -0.000000 -1.000000 -0.000001
vn -0.059859 -0.004496 -0.998197
vn -0.059859 -0.004496 -0.998197
vn -0.059859 -0.004496 -0.998197
vn -0.059859 -0.004496 -0.998197
vn 1.000000 -0.000000 0.000000
vn 1.000000 -0.000000 0.000000
vn 1.000000 -0.000000 0.000000
vn 1.000000 -0.000000 0.000000
vn 0.000000 1.000000 0.000000
vn 0.000000 1.000000 0.000000
vn 0.000000 1.000000 0.000000
vn 0.000000 1.000000 0.000000
vn -1.000000 0.000000 -0.000000
vn -1.000000 0.000000 -0.000000
vn -1.000000 0.000000 -0.000000
vn -1.000000 0.000000 -0.000000
vn -0.000000 -1.000000 0.000001
vn -0.000000 -1.000000 0.000001
vn -0.000000 -1.000000 0.000001
vn -0.000000 -1.000000 0.000001
vn 0.000000 0.000000 -1.000000
vn 0.000000 0.000000 -1.000000
vn 0.000000 0.000000 -1.000000
vn 0.000000 0.000000 -1.000000
vn 1.000000 -0.000000 0.000000
vn 1.000000 -0.000000 0.000000
vn 1.000000 -0.000000 0.000000
vn 1.000000 -0.000000 0.000000
vn 0.000000 1.000000 0.000000
vn 0.000000 1.000000 0.000000
vn 0.000000 1.000000 0.000000
vn 0.000000 1.000000 0.000000
vn -1.000000 0.000000 -0.000000
vn -1.000000 0.000000 -0.000000
vn -1.000000 0.000000 -0.000000
vn -1.000000 0.000000 -0.000000
vn 0.000000 -1.000000 0.000001
vn 0.000000 -1.000000 0.000001
vn 0.000000 -1.000000 0.000001
vn 0.000000 -1.000000 0.000001
vn -0.000054 0.000000 -1.000000
vn -0.000054 0.000000 -1.000000
vn -0.000054 0.000000 -1.000000
vn -0.000054 0.000000 -1.000000
s off
f 1/1/1 2/2/2 3/3/3 4/4/4
f 5/5/5 1/6/6 4/7/7 6/8/8
f 7/9/9 5/10/10 6/11/11 8/12/12
f 2/13/13 7/14/14 8/15/15 3/16/16
f 8/17/17 6/18/18 4/19/19 3/20/20
f 9/21/21 10/22/22 11/23/23 12/24/24
f 13/25/25 9/26/26 12/27/27 14/28/28
f 15/29/29 13/30/30 14/31/31 16/32/32
f 10/33/33 15/34/34 16/35/35 11/36/36
f 13/37/37 15/38/38 10/39/39 9/40/40
f 16/41/41 14/42/42 12/43/43 11/44/44
f 17/45/45 18/46/46 19/47/47 20/48/48
f 21/49/49 17/50/50 20/51/51 22/52/52
f 23/53/53 21/54/54 22/55/55 24/56/56
f 18/57/57 23/58/58 24/59/59 19/60/60
f 24/61/61 22/62/62 20/63/63 19/64/64
f 25/65/65 26/66/66 27/67/67 28/68/68
f 29/69/69 25/70/70 28/71/71 30/72/72
f 31/73/73 29/74/74 30/75/75 32/76/76
f 26/77/77 31/78/78 32/79/79 27/80/80
f 32/81/81 30/82/82 28/83/83 27/84/84
f 33/85/85 34/86/86 35/87/87 36/88/88
f 37/89/89 33/90/90 36/91/91 38/92/92
f 39/93/93 37/94/94 38/95/95 40/96/96
f 34/97/97 39/98/98 40/99/99 35/100/100
f 40/101/101 38/102/102 36/103/103 35/104/104
f 41/105/105 42/106/106 43/107/107 44/108/108
f 45/109/109 41/110/110 44/111/111 46/112/112
f 47/113/113 45/114/114 46/115/115 48/116/116
f 42/117/117 47/118/118 48/119/119 43/120/120
f 48/121/121 46/122/122 44/123/123 43/124/124
f 49/125/125 50/126/126 51/127/127 52/128/128
f 53/129/129 49/130/130 52/131/131 54/132/132
f 55/133/133 53/134/134 54/135/135 56/136/136
f 50/137/137 55/138/138 56/139/139 51/140/140
f 56/141/141 54/142/142 52/143/143 51/144/144
f 57/145/145 58/146/146 59/147/147 60/148/148
f 61/149/149 57/150/150 60/151/151 62/152/152
f 63/153/153 61/154/154 62/155/155 64/156/156
f 58/157/157 63/158/158 64/159/159 59/160/160
f 64/161/161 62/162/162 60/163/163 59/164/164
f 65/165/165 66/166/166 67/167/167 68/168/168
f 69/169/169 65/170/170 68/171/171 70/172/172
f 71/173/173 69/174/174 70/175/175 72/176/176
f 66/177/177 71/178/178 72/179/179 67/180/180
f 72/181/181 70/182/182 68/183/183 67/184/184
