# This file uses centimeters as units for non-parametric coordinates.

v -0.407779 -0.006576 -1.391025
v -1.619017 -0.006576 0.491900
v -1.239073 -0.006576 1.285624
v 1.289152 -0.006576 -0.707585
v -1.239201 -0.006576 -0.799536
v -0.280343 0.940442 -0.103537
v 0.940668 -0.006576 2.142945
v -0.987784 0.649946 -0.427527
v 0.081725 -0.006576 2.037043
v 0.851965 0.516614 1.689643
v 1.861702 -0.006576 1.017774
v 0.420445 0.645318 -0.558237
v 1.158612 0.358740 -0.480860
v 1.610733 -0.006576 1.705352
v -1.242263 0.649946 0.345138
v 0.363901 -0.006576 -1.032107
v -0.881486 0.671240 0.716429
v 0.618323 0.786764 1.102480
v 0.193559 0.500177 1.573094
v 1.214721 0.500177 1.079015
v 0.226410 0.679840 0.736503
v 0.801510 0.588890 0.530498
v 0.718880 0.358741 -0.439333
v 1.127286 0.354338 0.383584
v 1.491698 -0.006576 0.516693
v -0.247884 0.442936 1.009594
v -0.431389 -0.006576 1.555659
v 0.138977 0.899675 0.259747
v 1.636693 -0.006576 -0.067692
v 0.849671 -0.006576 -1.064964
v -1.554569 -0.006576 -0.249602
v 1.476389 0.584603 -0.591745
v 0.667332 0.646118 -0.327729
v 1.280184 0.614052 -0.388672
v 0.998927 0.635293 -0.297660
v 0.994883 0.175375 0.195358
v 0.679639 0.466733 -0.282056
v 0.805505 0.260904 -0.077040
v 1.660223 0.352252 -0.303297
v 1.410589 0.328069 -0.118098
v 1.154513 0.211421 0.075987
v 1.089813 0.513989 -0.109582
v 1.128984 0.549657 -1.060576
v 0.920443 0.294792 -1.304375
v 1.008994 0.339116 -1.190572
v 0.737389 0.554863 -1.180938
v 0.993111 0.556303 -1.055471
v 0.511996 0.581418 -1.015902
v 0.520649 0.630340 -0.525516
v 0.474279 0.597601 -0.876819
v 0.270301 0.393262 -0.829272
v 0.364581 0.424085 -0.705472
v 0.366435 0.446613 -0.902542
v 0.196138 0.332547 0.867947
v 0.838269 0.530097 -0.092916
v 1.690558 0.696923 0.510957
v 1.012155 0.492273 1.446118
v 1.752466 0.687088 0.987340
v 1.430654 0.597678 1.279849
v 1.829225 0.411501 0.544929
v 2.123750 0.285022 0.715744
v 1.132463 0.220552 1.470670
v 1.247045 0.555657 1.269576
v 1.302351 0.041266 1.547355
v 1.616219 0.284422 1.465342
v 2.027250 0.246573 1.223143
v 1.374357 0.440259 1.431750
v -1.377355 0.983915 0.994658
v -1.327445 0.122555 0.714761
v -0.133737 1.181531 0.608267
v 0.695128 0.840441 1.805743
v 0.798871 -0.012366 1.509121
v 0.894988 0.435133 1.610716
v 0.496411 1.019448 1.219428
v 0.386198 0.394859 0.182334
v -0.030496 0.988762 0.512571
v 0.265795 0.767185 0.338803
v 0.720048 0.726698 1.073992
v 0.673277 0.439041 0.859815
v 0.776144 0.219000 0.641247
v 0.901509 0.107280 1.092459
v 0.090045 1.093661 0.918582
v -1.088557 0.739266 1.799045
v -0.054932 0.721253 2.038786
v -0.671455 0.760493 1.808096
v -0.877460 0.069220 2.135785
v -0.244009 0.481679 2.033805
v -0.569040 0.346696 2.109446
v -1.036496 0.421407 1.804040
v -1.534390 0.167704 0.180821
v 0.197332 0.228998 0.231898
v -1.539286 1.119884 -0.795817
v 0.204423 1.141842 -1.103964
v -1.020670 1.122913 -0.919130
v -0.430151 1.120638 -1.111325
v 0.268782 -0.005447 -1.909222
v 0.220566 0.760367 -1.193435
v 0.251949 0.350612 -1.765758
v -1.477588 -0.018676 -1.521361
v -1.515434 0.785518 -1.203298
v -1.493086 0.386547 -1.482233
v -0.573414 0.841944 -1.457365
v -0.573090 0.429529 -1.891437
v -0.189936 1.262928 0.105764
v 0.186923 0.552963 0.196078
v -0.030034 1.038668 0.135656
v 0.040122 0.605213 0.185458
v 0.173119 1.244560 -0.165868
v 0.181140 0.962196 -0.098971
v -1.553725 1.167270 -0.363051
v -1.547682 0.581252 0.135095
v -1.556413 1.015695 -0.090043
v -1.154551 1.228786 0.077312
v -1.280833 1.199984 -0.146481
v -1.384551 0.844889 0.111673
v 0.984744 -0.008600 0.211111
v 1.640333 -0.008600 -0.272399
v 0.903646 -0.008600 -1.278499
v 0.248039 -0.008600 -0.795014
v 0.275174 -0.008600 0.850643
v 0.963098 -0.008600 -0.120275
v 2.262796 -0.008600 0.748284
v 1.323087 -0.008600 1.550963
v 1.543567 -0.008600 1.516738
v 2.061166 -0.008600 1.256067
v 2.231767 -0.008600 0.884389
v -1.172623 -0.008600 1.145986
v 0.799679 -0.008600 1.509975
v 0.802101 -0.008600 1.496007
v -0.872951 -0.008600 2.110497
v -1.480658 -0.008600 -1.429337
v -1.477973 -0.008600 -1.520388
v 0.233069 -0.008600 -1.914465
v -0.653698 -0.008600 -2.022923
vt 0.285604 0.296418
vt 0.297886 0.285860
vt 0.329688 0.240398
vt 0.367425 0.278215
vt 0.324909 0.259303
vt 0.319030 0.294535
vt 0.322837 0.308248
vt 0.325758 0.270807
vt 0.342599 0.300741
vt 0.293617 0.268453
vt 0.335287 0.284412
vt 0.353528 0.266024
vt 0.329576 0.260609
vt 0.351134 0.263248
vt 0.362110 0.280901
vt 0.350053 0.294906
vt 0.278674 0.262207
vt 0.310345 0.305782
vt 0.305056 0.276450
vt 0.285688 0.287207
vt 0.299570 0.247140
vt 0.315909 0.241312
vt 0.354401 0.253603
vt 0.332492 0.281845
vt 0.340332 0.272751
vt 0.329028 0.238002
vt 0.325614 0.253222
vt 0.282624 0.240341
vt 0.354923 0.238332
vt 0.372922 0.251522
vt 0.333813 0.240275
vt 0.317279 0.240215
vt 0.288852 0.261562
vt 0.297417 0.249214
vt 0.341470 0.244761
vt 0.354578 0.271470
vt 0.350253 0.291711
vt 0.370591 0.295625
vt 0.359392 0.241421
vt 0.302894 0.307892
vt 0.551301 0.603240
vt 0.584495 0.598937
vt 0.617862 0.587048
vt 0.638935 0.582643
vt 0.125706 0.556234
vt 0.143149 0.576410
vt 0.150495 0.599155
vt 0.146693 0.621762
vt 0.100458 0.621768
vt 0.094429 0.612654
vt 0.074441 0.602033
vt 0.074443 0.579357
vt 0.081569 0.570176
vt 0.106189 0.556239
vt 0.614114 0.722440
vt 0.649459 0.730984
vt 0.674466 0.750254
vt 0.678537 0.766808
vt 0.705112 0.766814
vt 0.731448 0.748717
vt 0.748309 0.746446
vt 0.339357 0.282391
vt 0.365499 0.298874
vt 0.340402 0.299727
vt 0.367132 0.277776
vt 0.350283 0.260885
vt 0.372219 0.254649
vt 0.329612 0.240668
vt 0.333675 0.262931
vt 0.320669 0.243973
vt 0.351187 0.238966
vt 0.374030 0.240825
vt 0.712917 0.766801
vt 0.649973 0.767384
vt 0.614115 0.744700
vt 0.748322 0.744731
vt 0.732637 0.748120
vt 0.349656 0.247843
vt 0.330968 0.283818
vt 0.313369 0.271601
vt 0.372804 0.295802
vt 0.370856 0.241975
vt 0.638957 0.603594
vt 0.626501 0.609670
vt 0.608038 0.623944
vt 0.577703 0.623947
vt 0.551319 0.601540
vt 0.284037 0.243780
vt 0.300152 0.262024
vt 0.313606 0.248573
vt 0.266657 0.261969
vt 0.266765 0.242988
vt 0.277746 0.301894
vt 0.748346 0.766805
vt 0.671140 0.766805
vt 0.664865 0.744779
vt 0.641888 0.731805
vt 0.638966 0.623947
vt 0.551301 0.623947
vt 0.226513 0.656941
vt 0.297366 0.656935
vt 0.297364 0.720511
vt 0.280197 0.726690
vt 0.274201 0.736760
vt 0.248154 0.743442
vt 0.226509 0.723341
vt 0.658328 0.731023
vt 0.669446 0.746001
vt 0.674426 0.766808
vt 0.748348 0.766808
vt 0.334023 0.294579
vt 0.363944 0.286989
vt 0.360062 0.305281
vt 0.356783 0.266950
vt 0.296342 0.300125
vt 0.295981 0.286862
vt 0.306092 0.294884
vt 0.304345 0.272315
vt 0.282633 0.266113
vt 0.278371 0.280917
vt 0.328245 0.263027
vt 0.278079 0.298651
vt 0.614113 0.700494
vt 0.614112 0.766808
vt 0.693495 0.766808
vt 0.699316 0.752806
vt 0.717240 0.734823
vt 0.723487 0.700494
vt 0.100320 0.684530
vt 0.100321 0.772380
vt 0.043395 0.772386
vt 0.034572 0.746084
vt 0.007692 0.712170
vt 0.007690 0.659186
vt 0.048948 0.658436
vt 0.076138 0.677393
vt 0.727559 0.737433
vt 0.716404 0.766805
vt 0.668528 0.767171
vt 0.655693 0.750822
vt 0.634642 0.744465
vt 0.614122 0.727037
vt 0.316694 0.296620
vt 0.360826 0.289970
vt 0.361423 0.302458
vt 0.341897 0.301249
vt 0.283318 0.273766
vt 0.282917 0.299129
vt 0.315661 0.273663
vt 0.321616 0.259004
vt 0.359587 0.268605
vt 0.327881 0.242873
vt 0.359224 0.246822
vt 0.301794 0.247218
vt 0.281317 0.250630
vt 0.551301 0.583579
vt 0.578495 0.601450
vt 0.585095 0.623947
vt 0.638966 0.623947
vt 0.638945 0.556636
vt 0.267691 0.277015
vt 0.302978 0.286212
vt 0.275608 0.296683
vt 0.297386 0.248627
vt 0.268060 0.240085
vt 0.322312 0.250495
vt 0.342604 0.258269
vt 0.815825 0.789599
vt 0.885384 0.826925
vt 0.822009 0.827039
vt 0.814738 0.806374
vt 0.297260 0.556212
vt 0.296617 0.592332
vt 0.284760 0.625565
vt 0.276918 0.654836
vt 0.252420 0.654836
vt 0.240629 0.638899
vt 0.228185 0.631290
vt 0.228184 0.576356
vt 0.244153 0.556215
vt 0.729051 0.700494
vt 0.719355 0.727170
vt 0.686600 0.746386
vt 0.679612 0.766805
vt 0.629255 0.766805
vt 0.627367 0.749189
vt 0.614124 0.721023
vt 0.614128 0.700494
vt 0.339155 0.302784
vt 0.355815 0.284400
vt 0.359077 0.303878
vt 0.289595 0.289606
vt 0.315851 0.299381
vt 0.292529 0.303992
vt 0.319738 0.282557
vt 0.317955 0.261326
vt 0.353913 0.266329
vt 0.287941 0.263450
vt 0.286185 0.249235
vt 0.551302 0.556636
vt 0.551301 0.577474
vt 0.558638 0.581165
vt 0.561480 0.609174
vt 0.569203 0.623947
vt 0.618027 0.623940
vt 0.630282 0.599804
vt 0.638954 0.583237
vt 0.638947 0.556636
vt 0.348252 0.283106
vt 0.374209 0.307290
vt 0.335124 0.302844
vt 0.375907 0.285815
vt 0.357524 0.251559
vt 0.367966 0.243932
vt 0.705479 0.700494
vt 0.614113 0.700494
vt 0.614113 0.726701
vt 0.623506 0.755504
vt 0.637096 0.767274
vt 0.660326 0.766827
vt 0.683894 0.750892
vt 0.701027 0.730584
vt 0.343442 0.270808
vt 0.374398 0.264613
vt 0.365060 0.296879
vt 0.335171 0.240601
vt 0.374059 0.238249
vt 0.301774 0.244399
vt 0.638924 0.562186
vt 0.614115 0.705178
vt 0.614117 0.711979
vt 0.551302 0.568744
vt 0.551341 0.572851
vt 0.748291 0.716468
vt 0.748282 0.709260
vt 0.638964 0.565594
vt 0.748337 0.741129
vt 0.638966 0.597882
vt 0.551332 0.582787
vt 0.748347 0.726257
vt 0.635742 0.708125
vt 0.356959 0.247977
vt 0.282773 0.263004
vt 0.657532 0.727038
vt 0.294673 0.258245
vt 0.325725 0.248954
vt 0.349233 0.247588
vt 0.610072 0.556636
vt 0.885378 0.810284
vt 0.281333 0.250824
vt 0.719909 0.700805
vt 0.823848 0.776847
vt 0.281961 0.250522
vt 0.614123 0.721046
vt 0.551301 0.577498
vt 0.700540 0.700494
vt 0.705368 0.701242
vt 0.355280 0.251661
vt 0.287501 0.248953
vt 0.320299 0.244832
vn 0.659613 0.726577 -0.192343
vn 0.677747 0.733268 -0.054569
vn 0.430361 0.837514 -0.336689
vn 0.375131 0.888271 -0.265049
vn 0.517954 0.836009 -0.181142
vn -0.788251 0.608296 0.092934
vn -0.554688 0.829868 0.060331
vn -0.351230 0.789892 -0.502701
vn -0.664701 0.575000 -0.477021
vn -0.802318 0.543598 -0.246551
vn -0.086990 0.991957 -0.091944
vn -0.230049 0.842482 0.487136
vn 0.385022 0.809374 -0.443477
vn 0.294407 0.694594 -0.656402
vn -0.213218 0.686841 -0.694830
vn 0.475345 0.772104 -0.421786
vn 0.117708 0.814744 -0.567747
vn -0.350773 0.692970 0.629881
vn 0.159844 0.673360 0.721828
vn 0.260604 0.824751 0.501868
vn -0.303562 0.821017 0.483510
vn 0.387520 0.915514 -0.107995
vn 0.096866 0.992405 0.075828
vn 0.511940 0.721282 0.466550
vn 0.543622 0.839284 -0.008852
vn 0.630842 0.775188 -0.033508
vn -0.339784 0.718222 0.607210
vn -0.261633 0.796132 0.545639
vn -0.386168 0.747388 0.540634
vn -0.033079 0.965483 0.258358
vn 0.246239 0.964153 0.098874
vn 0.041824 0.993762 -0.103380
vn 0.041824 0.993762 -0.103380
vn 0.041824 0.993762 -0.103380
vn 0.041824 0.993762 -0.103380
vn 0.041824 0.993762 -0.103380
vn 0.041824 0.993762 -0.103380
vn 0.041824 0.993762 -0.103380
vn 0.041824 0.993762 -0.103380
vn 0.041824 0.993762 -0.103380
vn 0.041824 0.993762 -0.103380
vn 0.375887 0.786570 0.489915
vn 0.426294 0.772375 0.470861
vn 0.478563 0.807305 0.345304
vn 0.380304 0.666570 0.641134
vn 0.066556 0.690175 0.720576
vn 0.013498 0.715009 0.698985
vn -0.231652 0.439057 0.868082
vn -0.085381 0.624269 0.776530
vn -0.079852 0.240798 0.967285
vn -0.237086 0.716366 0.656209
vn 0.005649 0.955176 0.295984
vn 0.803212 -0.094630 -0.588129
vn 0.803212 -0.094630 -0.588129
vn 0.803212 -0.094630 -0.588129
vn 0.803212 -0.094630 -0.588129
vn 0.803212 -0.094630 -0.588129
vn 0.803212 -0.094630 -0.588129
vn 0.803212 -0.094630 -0.588129
vn 0.212725 0.558924 -0.801469
vn 0.212725 0.558924 -0.801469
vn -0.006094 0.527868 -0.849304
vn 0.420667 0.561399 -0.712650
vn 0.420667 0.561399 -0.712650
vn -0.695587 0.717274 -0.040949
vn -0.808701 0.585674 -0.054665
vn -0.759721 0.589422 -0.274603
vn -0.707691 0.702772 0.072697
vn -0.424169 0.900165 0.098912
vn -0.818659 0.571660 0.054784
vn -0.225445 0.973004 0.049384
vn -0.225445 0.973004 0.049384
vn -0.225445 0.973004 0.049384
vn -0.225445 0.973004 0.049384
vn -0.225445 0.973004 0.049384
vn -0.225445 0.973004 0.049384
vn -0.225445 0.973004 0.049384
vn 0.694716 0.682129 0.228191
vn 0.749437 0.612454 -0.251482
vn 0.899193 0.423988 -0.108101
vn 0.777072 0.629379 0.006511
vn -0.049781 0.615461 0.786593
vn 0.043005 0.542980 0.838644
vn 0.175096 0.678649 0.713286
vn 0.307847 0.419208 0.854105
vn 0.039013 0.387222 0.921161
vn 0.063055 0.209791 0.975711
vn 0.754596 0.418089 0.505753
vn 0.899090 0.309177 0.309914
vn 0.876790 0.437358 0.199894
vn 0.104133 0.485336 0.868104
vn -0.324862 0.275201 -0.904837
vn -0.324862 0.275201 -0.904837
vn -0.324862 0.275201 -0.904837
vn -0.324862 0.275201 -0.904837
vn -0.324862 0.275201 -0.904837
vn -0.324862 0.275201 -0.904837
vn -0.055023 0.949608 0.308573
vn -0.055023 0.949608 0.308573
vn -0.055023 0.949608 0.308573
vn -0.055023 0.949608 0.308573
vn -0.055023 0.949608 0.308573
vn -0.055023 0.949608 0.308573
vn -0.055023 0.949608 0.308573
vn -0.055023 0.949608 0.308573
vn 0.722273 0.650819 -0.234001
vn 0.619316 0.685759 -0.382338
vn 0.542259 0.760386 -0.357449
vn 0.542259 0.760386 -0.357449
vn 0.953880 0.295771 -0.051308
vn 0.859289 0.491633 -0.141136
vn 0.783274 0.509131 -0.356746
vn 0.800663 0.522943 -0.292353
vn 0.713423 0.678741 -0.174179
vn 0.820588 0.519406 -0.238438
vn 0.773458 0.520518 -0.361695
vn 0.978802 0.189472 -0.077762
vn 0.955791 -0.242925 0.165681
vn 0.955792 -0.242918 0.165687
vn 0.955792 -0.242918 0.165687
vn -0.246081 0.369778 0.895940
vn -0.215082 0.266421 0.939553
vn -0.022300 0.012054 0.999679
vn -0.340993 0.523154 0.781046
vn -0.406193 0.522639 0.749570
vn -0.304035 0.384482 0.871628
vn -0.326915 0.238997 0.914334
vn 0.038778 -0.952181 -0.303064
vn 0.038778 -0.952181 -0.303064
vn 0.038778 -0.952181 -0.303064
vn 0.038778 -0.952181 -0.303064
vn 0.038778 -0.952181 -0.303064
vn 0.038778 -0.952181 -0.303064
vn -0.031922 0.993436 -0.109843
vn -0.031922 0.993436 -0.109843
vn -0.031922 0.993436 -0.109843
vn -0.031922 0.993436 -0.109843
vn -0.031922 0.993436 -0.109843
vn -0.031922 0.993436 -0.109843
vn -0.031922 0.993436 -0.109843
vn -0.031922 0.993436 -0.109843
vn -0.031922 0.993436 -0.109843
vn 0.998940 0.035356 0.029464
vn 0.998940 0.035356 0.029464
vn 0.998940 0.035356 0.029464
vn 0.998940 0.035356 0.029464
vn 0.998940 0.035356 0.029464
vn 0.998940 0.035356 0.029464
vn 0.998940 0.035356 0.029464
vn 0.998940 0.035356 0.029464
vn -0.180449 0.783455 -0.594673
vn -0.217757 0.728998 -0.648957
vn -0.154732 0.759282 -0.632099
vn 0.181894 0.584673 -0.790615
vn 0.040768 0.611152 -0.790463
vn 0.003658 0.228488 -0.973540
vn -0.033446 0.756569 -0.653058
vn -0.103691 0.517223 -0.849546
vn -0.384583 0.431397 -0.816084
vn 0.189881 0.558056 -0.807786
vn 0.142105 0.313426 -0.938920
vn 0.142105 0.313426 -0.938920
vn -0.165291 0.275848 -0.946883
vn -0.033154 0.108786 0.993512
vn -0.033154 0.108786 0.993512
vn -0.033154 0.108786 0.993512
vn -0.033154 0.108786 0.993512
vn -0.033154 0.108786 0.993512
vn -0.033154 0.108786 0.993512
vn -0.033154 0.108786 0.993512
vn -0.033154 0.108786 0.993512
vn -0.033154 0.108786 0.993512
vn 0.697832 0.285434 0.656931
vn 0.662671 0.330401 0.672088
vn 0.541498 0.478259 0.691410
vn 0.594281 0.336546 0.730457
vn 0.489289 0.417007 0.765965
vn 0.148388 0.579732 0.801181
vn -0.998938 -0.035417 -0.029459
vn -0.998939 -0.035387 -0.029461
vn -0.998939 -0.035387 -0.029461
vn -0.417197 0.616043 0.668159
vn -0.515418 0.664357 0.541271
vn -0.438100 0.787742 0.433047
vn -0.541863 0.524178 0.656980
vn -0.779821 0.500819 0.375578
vn -0.514499 0.386367 0.765514
vn 0.593159 0.036188 0.804272
vn 0.593159 0.036188 0.804272
vn 0.593159 0.036188 0.804272
vn 0.593159 0.036188 0.804272
vn 0.593159 0.036188 0.804272
vn 0.593159 0.036188 0.804272
vn -0.803213 0.094631 0.588127
vn -0.803213 0.094631 0.588127
vn -0.803213 0.094631 0.588127
vn -0.803213 0.094631 0.588127
vn -0.803213 0.094631 0.588127
vn -0.803213 0.094631 0.588127
vn -0.803213 0.094631 0.588127
vn -0.803213 0.094631 0.588127
vn -0.803213 0.094631 0.588127
vn -0.593156 -0.035745 -0.804294
vn -0.593156 -0.035745 -0.804294
vn -0.593156 -0.035745 -0.804294
vn -0.593156 -0.035745 -0.804294
vn -0.593156 -0.035745 -0.804294
vn -0.593156 -0.035745 -0.804294
vn -0.593156 -0.035745 -0.804294
vn 0.547679 0.168533 -0.819539
vn 0.547679 0.168533 -0.819539
vn 0.547679 0.168533 -0.819539
vn 0.547679 0.168533 -0.819539
vn 0.547679 0.168533 -0.819539
vn 0.547679 0.168533 -0.819539
vn -0.805737 -0.157714 -0.570889
vn -0.805737 -0.157714 -0.570889
vn -0.805737 -0.157714 -0.570889
vn -0.805737 -0.157714 -0.570889
vn -0.547699 -0.168454 0.819542
vn -0.547699 -0.168454 0.819542
vn -0.547699 -0.168454 0.819542
vn -0.547699 -0.168454 0.819542
vn -0.547699 -0.168454 0.819542
vn -0.547699 -0.168454 0.819542
vn 0.152007 0.134070 0.979244
vn 0.319212 0.119105 0.940169
vn 0.722599 0.143561 0.676196
vn 0.324862 -0.275201 0.904836
vn 0.324862 -0.275201 0.904836
vn 0.324862 -0.275201 0.904836
vn 0.324862 -0.275201 0.904836
vn 0.324862 -0.275201 0.904836
vn 0.324862 -0.275201 0.904836
vn 0.324862 -0.275201 0.904836
vn 0.324862 -0.275201 0.904836
vn -0.944160 -0.150030 0.293349
vn -0.944160 -0.150030 0.293349
vn -0.944160 -0.150030 0.293349
vn -0.944160 -0.150030 0.293349
vn -0.944160 -0.150030 0.293349
vn -0.944160 -0.150030 0.293349
vn -0.944160 -0.150030 0.293349
vn -0.456823 0.211797 -0.863976
vn -0.998940 -0.035357 -0.029463
vn -0.998940 -0.035357 -0.029463
vn -0.998940 -0.035357 -0.029463
vn -0.998940 -0.035357 -0.029463
vn -0.998940 -0.035357 -0.029463
vn -0.998940 -0.035357 -0.029463
vn -0.998940 -0.035357 -0.029463
s 1
f 25/3/1 29/5/2 4/24/3 13/25/4 24/35/5
f 2/1/6 15/2/7 8/6/8 5/7/9 31/40/10
f 6/8/11 15/2/7 17/10/12
f 12/14/13 16/15/14 1/16/15 8/6/8
f 23/36/16 13/25/4 4/24/3 30/37/17 16/38/14
f 9/4/18 7/9/19 10/11/20 19/12/21
f 5/7/9 8/6/8 1/16/15
f 22/39/22 24/35/5 13/25/4 23/36/16
f 6/8/11 12/14/13 8/6/8
f 10/11/20 18/13/23 19/12/21
f 7/9/19 14/18/24 10/11/20
f 20/19/25 10/11/20 14/18/24 11/20/26
f 17/10/12 15/2/7 2/1/6 3/17/27
f 19/12/21 26/29/28 27/30/29 9/4/18
f 26/29/28 19/12/21 18/13/23 21/31/30
f 17/10/12 26/21/28 21/22/30
f 23/23/16 12/14/13 22/26/22
f 12/14/13 28/27/31 22/26/22
f 18/13/23 22/32/22 21/31/30
f 20/19/25 11/20/26 25/33/1 24/34/5
f 23/23/16 16/15/14 12/14/13
f 6/8/11 17/10/12 21/22/30 28/27/31
f 26/21/28 3/17/27 27/28/29
f 21/22/30 22/26/22 28/27/31
f 26/21/28 17/10/12 3/17/27
f 6/8/11 8/6/8 15/2/7
f 10/11/20 20/19/25 18/13/23
f 20/19/25 24/34/5 22/32/22 18/13/23
f 6/8/11 28/27/31 12/14/13
s off
f 33/45/32 35/46/33 34/47/34 32/48/35 43/49/36 47/50/37 46/51/38 48/52/39 50/53/40 49/54/41
s 5
f 34/62/42 39/63/43 32/64/44
f 34/62/42 40/65/45 39/63/43
f 42/66/46 41/67/47 40/65/45
f 37/68/48 35/69/49 33/70/50
f 38/71/51 41/67/47 42/66/46
f 41/67/47 38/71/51 36/72/52
f 34/62/42 42/66/46 40/65/45
f 38/71/51 42/66/46 35/69/49 37/68/48
f 35/69/49 42/66/46 34/62/42
s off
f 43/73/53 32/74/54 39/75/55 117/231/56 118/234/57 44/76/58 45/77/59
s 8
f 45/78/60 47/79/61 43/80/62
f 46/81/63 47/79/61 45/78/60 44/82/64
s 9
f 53/88/65 50/89/66 48/90/67
f 52/91/68 53/88/65 51/92/69
f 50/89/66 52/91/68 49/93/70
f 52/91/68 50/89/66 53/88/65
s off
f 55/100/71 54/101/72 57/102/73 63/103/74 59/104/75 58/105/76 56/106/77
s 10
f 58/111/78 60/112/79 56/113/80
f 58/111/78 61/114/81 60/112/79
f 63/115/82 67/116/83 59/117/84
f 65/118/85 67/116/83 62/120/86 64/119/87
f 65/118/85 58/111/78 59/117/84
f 66/121/88 61/114/81 58/111/78
f 65/118/85 66/121/88 58/111/78
f 66/121/88 126/247/89 122/242/90 61/114/81
f 65/118/85 59/117/84 67/116/83
f 62/120/86 67/116/83 63/115/82 57/122/91
s off
f 69/123/92 68/124/93 70/125/94 76/126/95 77/127/96 75/128/97
f 70/129/98 68/130/99 83/131/100 85/132/101 84/133/102 71/134/103 74/135/104 82/136/105
s 13
f 74/143/106 76/144/107 70/145/108 82/146/109
f 73/147/110 74/143/106 71/148/111
f 78/149/112 76/144/107 74/143/106
f 79/150/113 76/144/107 78/149/112
f 79/150/113 77/151/114 76/144/107
f 80/152/115 75/153/116 77/151/114 79/150/113
f 73/147/110 78/149/112 74/143/106
f 73/147/110 81/154/117 79/150/113 78/149/112
f 81/154/117 80/152/115 79/150/113
f 72/155/118 129/253/119 128/250/120
s 15
f 89/161/121 85/162/122 83/163/123
f 88/164/124 89/161/121 86/165/125
f 85/162/122 87/166/126 84/167/127
f 89/161/121 88/164/124 87/166/126 85/162/122
s off
f 81/168/128 129/252/129 127/249/130 69/169/131 75/170/132 80/171/133
f 93/172/134 95/173/135 94/174/136 92/175/137 110/176/138 114/177/139 113/178/140 104/179/141 108/180/142
f 96/181/143 98/182/144 97/183/145 93/184/146 108/185/147 109/186/148 105/187/149 91/188/150
s 16
f 94/189/151 100/190/152 92/191/153
f 97/192/154 95/193/155 93/194/156
f 102/195/157 100/190/152 94/189/151
f 103/196/158 101/197/159 100/190/152 102/195/157
f 95/193/155 102/195/157 94/189/151
f 97/192/154 102/195/157 95/193/155
f 98/198/160 103/196/158 102/195/157 97/192/154
f 96/199/161 133/259/162 134/260/163 103/196/158 98/198/160
s off
f 91/200/164 105/201/165 107/202/166 106/203/167 104/204/168 113/205/169 115/206/170 111/207/171 90/208/172
s 18
f 106/209/173 108/210/174 104/211/175
f 106/209/173 109/212/176 108/210/174
f 107/213/177 109/212/176 106/209/173
f 109/212/176 107/213/177 105/214/178
s 19
f 99/215/179 131/256/180 132/257/181
s 20
f 112/223/182 114/224/183 110/225/184
f 114/224/183 115/226/185 113/227/186
f 114/224/183 112/223/182 115/226/185
f 115/226/185 112/223/182 111/228/187
s off
f 116/229/188 117/232/189 39/41/190 40/42/191 41/43/192 36/44/193
f 119/235/194 116/230/195 36/55/196 38/56/197 37/57/198 33/58/199 49/59/200 52/60/201 51/61/202
f 118/233/203 119/236/204 51/83/205 53/84/206 48/85/207 46/86/208 44/87/209
f 122/241/210 121/240/211 55/94/212 56/95/213 60/96/214 61/97/215
f 121/239/216 120/238/217 54/98/218 55/99/219
f 120/237/220 123/244/221 64/107/222 62/108/223 57/109/224 54/110/225
s 10
f 123/243/226 124/245/227 65/118/85 64/119/87
f 125/246/228 126/247/89 66/121/88
f 124/245/227 125/246/228 66/121/88 65/118/85
s off
f 130/254/229 128/251/230 73/137/231 71/138/232 84/139/233 87/140/234 88/141/235 86/142/236
s 13
f 128/250/120 129/253/119 81/154/117 73/147/110
s off
f 127/248/237 130/255/238 86/156/239 89/157/240 83/158/241 68/159/242 69/160/243
s 16
f 134/260/163 132/258/244 101/197/159 103/196/158
s 19
f 132/257/181 131/256/180 90/216/245 111/217/246 112/218/247 110/219/248 92/220/249 100/221/250 101/222/251
