# This file uses centimeters as units for non-parametric coordinates.

v 1.987135 1.987700 0.066873
v 1.913011 1.987700 -0.930422
v 2.932427 1.987700 -0.012909
v 2.868310 1.987700 -1.011041
v 2.938925 2.346822 -0.013452
v 2.773465 2.696587 0.000395
v 2.828919 2.485282 -0.004246
v 2.932167 2.596433 -0.216378
v 1.913080 2.819229 -0.930428
v 2.376987 2.834673 -0.969210
v 2.883962 2.658685 -1.012351
v 2.619770 2.718040 -0.989869
v 2.902994 2.831860 -0.715652
v 2.927292 2.790140 -0.297068
v 1.979485 2.645370 0.067514
v 2.460850 2.777816 0.026773
v 1.931987 2.851137 -0.612885
v 2.127784 2.782548 0.054963
v 1.950055 2.748725 -0.354238
v 2.320171 2.934654 -0.735708
v 2.168659 2.936139 -0.270469
v 2.587219 2.979952 -0.294765
v 2.089100 2.866630 -0.945053
vt 0.879995 0.771236
vt 0.878980 0.835152
vt 0.834072 0.835191
vt 0.834611 0.771283
vt 0.827293 0.557809
vt 0.827295 0.602828
vt 0.808578 0.614445
vt 0.782187 0.611646
vt 0.777103 0.598652
vt 0.764333 0.581906
vt 0.764329 0.557812
vt 0.610363 0.698737
vt 0.610614 0.724063
vt 0.606440 0.733823
vt 0.604333 0.748722
vt 0.592519 0.754450
vt 0.579930 0.754781
vt 0.574333 0.745108
vt 0.574646 0.698740
vt 0.290993 0.285096
vt 0.280327 0.270093
vt 0.287675 0.257585
vt 0.290978 0.304024
vt 0.274626 0.288204
vt 0.573593 0.554220
vt 0.625171 0.554221
vt 0.625159 0.614014
vt 0.600119 0.615126
vt 0.587013 0.606742
vt 0.572751 0.602479
vt 0.591344 0.627602
vt 0.660699 0.627604
vt 0.660700 0.673218
vt 0.631381 0.680381
vt 0.613404 0.687477
vt 0.591349 0.685260
vt 0.363308 0.250893
vt 0.326014 0.241469
vt 0.363354 0.241156
vt 0.275905 0.246406
vt 0.275146 0.273180
vt 0.274838 0.288620
vt 0.301004 0.305523
vt 0.274748 0.305853
vt 0.338028 0.304894
vt 0.363206 0.272762
vt 0.363117 0.293288
vt 0.334951 0.255281
vt 0.295075 0.267623
vt 0.303804 0.244092
vt 0.335802 0.282705
vt 0.615658 0.617423
vt 0.275701 0.256531
vn -0.000000 -1.000000 0.000000
vn -0.000000 -1.000000 0.000000
vn -0.000000 -1.000000 0.000000
vn -0.000000 -1.000000 0.000000
vn 0.997903 -0.018695 -0.061965
vn 0.997903 -0.018695 -0.061965
vn 0.997903 -0.018695 -0.061965
vn 0.997903 -0.018695 -0.061965
vn 0.997903 -0.018695 -0.061965
vn 0.997903 -0.018695 -0.061965
vn 0.997903 -0.018695 -0.061965
vn 0.084142 0.000108 0.996454
vn 0.084142 0.000108 0.996454
vn 0.084142 0.000108 0.996454
vn 0.084142 0.000108 0.996454
vn 0.084142 0.000108 0.996454
vn 0.084142 0.000108 0.996454
vn 0.084142 0.000108 0.996454
vn 0.084142 0.000108 0.996454
vn 0.812130 0.291990 0.505160
vn 0.777384 0.370130 0.508604
vn 0.676218 0.501360 0.539785
vn 0.494126 0.757095 0.427372
vn 0.711905 0.490033 0.503050
vn -0.084066 0.000235 -0.996460
vn -0.084066 0.000235 -0.996460
vn -0.084066 0.000235 -0.996460
vn -0.084032 0.000261 -0.996463
vn -0.084066 0.000235 -0.996460
vn -0.084066 0.000235 -0.996460
vn -0.084066 0.000235 -0.996460
vn -0.997554 -0.006162 0.069626
vn -0.997554 -0.006162 0.069626
vn -0.997554 -0.006162 0.069626
vn -0.997554 -0.006162 0.069626
vn -0.997554 -0.006162 0.069626
vn -0.997554 -0.006162 0.069626
vn -0.288590 0.862043 0.416651
vn -0.623799 0.771589 0.124603
vn -0.651686 0.724927 0.223127
vn 0.259365 0.872647 -0.413785
vn 0.300609 0.919587 -0.252969
vn 0.358055 0.796210 -0.487695
vn 0.256966 0.827221 0.499673
vn -0.347429 0.926465 0.144761
vn -0.121162 0.975074 -0.185877
vn -0.423500 0.892441 -0.155553
vn 0.152581 0.972172 0.177768
vn -0.090437 0.978749 -0.184045
vn -0.191303 0.972117 -0.135618
vn -0.215520 0.971311 -0.100531
s off
f 4/1/1 3/2/2 1/3/3 2/4/4
f 4/5/5 11/6/6 13/7/7 14/8/8 8/9/9 5/10/10 3/11/11
f 3/12/12 5/13/13 7/14/14 6/15/15 16/16/16 18/17/17 15/18/18 1/19/19
s 1
f 8/20/20 7/21/21 5/22/22
f 14/23/23 6/24/24 8/20/20
s off
f 4/25/25 2/26/26 9/27/27 23/52/28 10/28/29 12/29/30 11/30/31
f 2/31/32 1/32/33 15/33/34 19/34/35 17/35/36 9/36/37
s 1
f 8/20/20 6/24/24 7/21/21
f 18/37/38 19/38/39 15/39/40
f 12/42/41 13/43/42 11/44/43
f 14/45/23 16/46/44 6/47/24
f 21/48/45 20/49/46 17/50/47 19/38/39
f 22/51/48 13/43/42 20/49/46
f 22/51/48 14/45/23 13/43/42
f 20/49/46 13/43/42 12/42/41 10/41/49
f 17/50/47 23/53/50 9/40/51
f 18/37/38 21/48/45 19/38/39
f 18/37/38 22/51/48 21/48/45
f 18/37/38 16/46/44 14/45/23 22/51/48
f 22/51/48 20/49/46 21/48/45
f 17/50/47 20/49/46 10/41/49 23/53/50
v 1.857186 2.980400 -0.098247
v -0.002688 2.980400 0.178495
v 1.845162 1.987700 -0.096458
v -0.002688 1.987700 0.178495
v -0.153447 1.987700 -0.810082
v 1.687340 1.987700 -1.083984
v 1.748518 2.980400 -0.728926
v 1.461587 2.980399 -0.795588
v 0.733427 2.980400 -0.942046
v 1.229235 2.980400 -0.912154
v 1.687340 2.538120 -1.083984
v 0.885847 2.816438 -0.964725
v 1.309807 2.692445 -1.027809
v 1.738342 2.759010 -0.787121
v -0.107812 2.980400 -0.510836
v 0.070863 2.980400 -0.843459
v -0.065795 2.980399 -0.692906
v -0.153446 2.763323 -0.810082
v -0.047377 2.796311 -0.825865
vt 0.749946 0.766360
vt 0.613909 0.766360
vt 0.614091 0.697195
vt 0.614051 0.697194
vt 0.749161 0.697193
vt 0.749427 0.697195
vt 0.254435 0.920821
vt 0.353715 0.920821
vt 0.575787 0.689824
vt 0.576459 0.627376
vt 0.459793 0.627376
vt 0.459567 0.689824
vt 0.663262 0.766358
vt 0.353715 0.875282
vt 0.339380 0.867584
vt 0.684463 0.766357
vt 0.302268 0.849645
vt 0.328065 0.856944
vt 0.614278 0.735543
vt 0.673214 0.754933
vt 0.642052 0.746295
vt 0.655167 0.750934
vt 0.276834 0.279526
vt 0.302286 0.297576
vt 0.275303 0.299353
vt 0.318584 0.264526
vt 0.284560 0.247679
vt 0.324779 0.292914
vt 0.356791 0.279684
vt 0.370527 0.294239
vt 0.254435 0.871190
vt 0.708488 0.766357
vt 0.733085 0.766356
vt 0.266533 0.849645
vt 0.258116 0.858813
vt 0.749462 0.751231
vt 0.741691 0.753530
vt 0.306360 0.267407
vt 0.315462 0.290811
vt 0.294081 0.287019
vt 0.317374 0.261967
vt 0.329532 0.299163
vn 0.147176 0.000000 0.989110
vn 0.147176 0.000000 0.989110
vn 0.147176 0.000000 0.989110
vn 0.147176 0.000000 0.989110
vn -0.988571 0.000000 0.150758
vn -0.988571 -0.000000 0.150757
vn -0.988571 -0.000000 0.150757
vn -0.988571 -0.000000 0.150757
vn -0.988571 0.000000 0.150758
vn 0.000000 -1.000000 0.000000
vn 0.000000 -1.000000 0.000000
vn 0.000000 -1.000000 0.000000
vn 0.000000 -1.000000 0.000000
vn 0.985405 -0.012241 -0.169788
vn 0.986786 -0.006346 -0.161907
vn 0.986504 -0.008148 -0.163531
vn 0.987094 -0.006571 -0.160006
vn 0.987469 0.000000 -0.157814
vn 0.987061 -0.004544 -0.160281
vn 0.285567 0.502007 -0.816358
vn 0.339129 0.378298 -0.861326
vn 0.219768 0.238551 -0.945936
vn 0.253025 0.521184 -0.815074
vn 0.221929 0.763622 -0.606325
vn 0.147453 0.339247 -0.929069
vn 0.013734 0.279097 -0.960165
vn 0.059079 0.190464 -0.979915
vn -0.000000 1.000000 -0.000001
vn -0.000001 1.000000 -0.000002
vn 0.000000 1.000000 0.000000
vn 0.000001 1.000000 0.000001
vn 0.000001 1.000000 0.000002
vn -0.000000 1.000000 0.000000
vn -0.000000 1.000000 0.000000
vn -0.000000 1.000000 0.000000
vn -0.000000 1.000000 0.000000
vn -0.147176 0.000000 -0.989110
vn -0.147176 -0.000000 -0.989110
vn -0.147176 -0.000001 -0.989110
vn -0.147176 -0.000000 -0.989110
vn -0.147176 -0.000002 -0.989110
vn -0.147176 -0.000005 -0.989110
vn -0.147175 -0.000003 -0.989110
vn -0.147176 0.000001 -0.989110
vn -0.147176 0.000001 -0.989110
vn -0.498958 0.474059 -0.725472
vn -0.654585 0.491745 -0.574199
vn -0.684777 0.380428 -0.621574
vn -0.866324 0.457725 -0.199926
vn -0.633653 0.549696 -0.544352
s 1
f 27/56/52 26/59/53 25/55/54
f 25/55/54 26/59/53 24/54/55
s 2
f 28/58/56 27/56/57 41/89/58
f 41/89/58 27/56/57 38/85/59
f 38/85/59 27/56/57 25/55/60
s 3
f 26/63/61 27/64/62 29/62/63
f 29/62/63 27/64/62 28/65/64
s 4
f 24/54/65 26/59/66 30/66/67
f 30/66/67 26/59/66 37/75/68
f 29/57/69 34/72/70 26/59/66
f 34/72/70 37/75/68 26/59/66
s 5
f 37/76/71 31/77/72 30/78/73
f 36/79/74 37/76/71 34/80/75
f 33/81/76 35/82/77 32/83/78
f 37/76/71 36/79/74 31/77/72
f 35/82/77 33/81/76 36/79/74
f 36/79/74 33/81/76 31/77/72
s 7
f 24/61/79 30/67/80 25/60/81
f 30/67/80 31/68/82 25/60/81
f 31/68/82 33/71/83 25/60/81
f 33/71/83 32/70/84 25/60/81
f 25/60/81 32/70/84 38/84/85
f 38/84/85 32/70/84 40/88/86
f 32/70/84 39/87/87 40/88/86
s 8
f 29/57/88 28/58/89 34/72/90
f 34/72/90 28/58/89 36/74/91
f 36/74/91 28/58/89 35/73/92
f 28/58/89 41/89/93 35/73/92
f 41/89/93 42/90/94 35/73/92
f 35/73/92 42/90/94 32/69/95
f 42/90/94 39/86/96 32/69/95
s 9
f 42/91/97 40/92/98 39/93/99
f 38/95/100 40/92/98 41/94/101
f 41/94/101 40/92/98 42/91/97
v -0.897937 2.980400 -0.006715
v -2.433781 2.980400 -0.158250
v -0.910033 1.987700 -0.007909
v -2.433781 1.987700 -0.158250
v -2.339197 1.987700 -1.153774
v -0.822557 1.987700 -1.004133
v -0.831032 2.980400 -0.891991
v -2.400974 2.980400 -0.503546
v -2.013142 2.980400 -1.073287
v -2.238301 2.980399 -0.858538
v -2.339197 2.544454 -1.153774
v -2.191081 2.712368 -1.139160
v -2.360395 2.770021 -0.930655
v -0.822557 2.839625 -1.004133
v -2.025943 2.910101 -1.122866
v -1.341133 2.924253 -1.055299
vt 0.596960 0.839853
vt 0.498852 0.839851
vt 0.498937 0.770690
vt 0.498446 0.770687
vt 0.597244 0.770688
vt 0.596442 0.770688
vt 0.267471 0.920817
vt 0.353715 0.920821
vt 0.575787 0.689824
vt 0.576459 0.627376
vt 0.475379 0.627379
vt 0.475152 0.689821
vt 0.509912 0.839847
vt 0.353511 0.857654
vt 0.586093 0.626655
vt 0.664961 0.626655
vt 0.664961 0.695221
vt 0.267657 0.896132
vt 0.637606 0.695216
vt 0.596681 0.864406
vt 0.286661 0.853073
vt 0.275129 0.869856
vt 0.586098 0.665110
vt 0.597395 0.809475
vt 0.587812 0.821172
vt 0.295196 0.253701
vt 0.326116 0.294126
vt 0.286676 0.292551
vt 0.308267 0.230813
vt 0.370301 0.308423
vt 0.329803 0.263832
vt 0.603772 0.680688
vt 0.498726 0.830038
vt 0.282978 0.282124
vt 0.577122 0.834947
vt 0.532582 0.835934
vt 0.567806 0.857994
vt 0.529408 0.854423
vt 0.530911 0.849787
vt 0.597761 0.854368
vn -0.098189 0.000000 0.995168
vn -0.098189 0.000000 0.995168
vn -0.098189 0.000000 0.995168
vn -0.098189 0.000000 0.995168
vn -0.000000 -1.000000 0.000000
vn 0.000000 -1.000000 -0.000000
vn 0.000000 -1.000000 -0.000000
vn 0.000000 -1.000000 -0.000000
vn 0.000000 1.000000 -0.000002
vn -0.000000 1.000000 -0.000000
vn 0.000000 1.000000 -0.000000
vn -0.000000 1.000000 0.000000
vn -0.192029 0.849120 -0.492056
vn 0.093352 0.877592 -0.470232
vn -0.087735 0.305639 -0.948097
vn 0.113897 0.436572 -0.892431
vn 0.145700 0.328632 -0.933152
vn -0.995517 0.000000 -0.094584
vn -0.995517 0.000001 -0.094584
vn -0.995517 0.000000 -0.094584
vn -0.995517 0.000001 -0.094583
vn -0.995517 0.000001 -0.094585
vn -0.995517 0.000000 -0.094587
vn -0.643985 0.551809 -0.529897
vn -0.575712 0.542162 -0.612059
vn -0.638632 0.557302 -0.530626
vn -0.755110 0.556845 -0.346024
vn -0.565798 0.552365 -0.612181
vn 0.997082 -0.012241 0.075354
vn 0.996631 -0.006006 0.081800
vn 0.996837 -0.009009 0.078962
vn 0.996375 -0.002888 0.085020
vn 0.996167 0.000000 0.087472
vn 0.098189 0.000000 -0.995168
vn 0.098189 -0.000000 -0.995168
vn 0.098189 -0.000000 -0.995168
vn 0.098189 -0.000000 -0.995168
s 1
f 46/98/102 45/101/103 44/97/104
f 44/97/104 45/101/103 43/96/105
s 2
f 45/105/106 46/106/107 48/104/108
f 48/104/108 46/106/107 47/107/109
s 3
f 44/102/110 43/103/111 50/113/112
f 50/113/112 43/103/111 52/117/113
f 52/117/113 43/103/111 51/116/114
f 43/103/111 49/109/115 51/116/114
f 57/133/116 51/134/114 58/132/117
f 51/134/114 49/135/115 58/132/117
f 56/115/118 58/132/117 49/135/115
s 5
f 47/110/119 46/111/120 53/118/121
f 53/118/121 46/111/120 55/127/122
f 55/127/122 46/111/120 50/114/123
f 50/114/123 46/111/120 44/112/124
s 3
f 52/122/125 51/123/114 54/121/126
f 54/121/126 51/123/114 57/129/116
f 52/122/125 55/126/127 50/125/128
f 53/124/129 55/126/127 54/121/126
f 54/121/126 55/126/127 52/122/125
s 6
f 43/96/130 45/101/131 49/108/132
f 49/108/132 45/101/131 56/128/133
f 48/99/134 56/128/133 45/101/131
s 3
f 47/100/135 53/119/136 48/99/137
f 53/119/136 54/120/138 48/99/137
f 56/128/118 48/99/137 58/131/117
f 54/120/138 57/130/116 48/99/137
f 48/99/137 57/130/116 58/131/117
v -3.000000 0.000000 -1.000000
v 3.000000 0.000000 -1.000000
v 3.000000 0.000000 -0.000000
v -3.000000 0.000000 -0.000000
v 3.000000 2.000000 -0.999999
v 3.000000 1.987700 -0.000000
v -2.995466 1.987700 -0.000000
v -2.995466 1.987700 -1.000000
v 3.000000 2.000000 -0.999999
v -2.995466 1.987700 -1.000000
v -3.000004 0.000000 -1.267934
v 2.999996 -0.000000 -1.267934
v 2.999996 1.961557 -1.169668
v -3.000004 1.961557 -1.169668
v 2.999996 1.821295 -1.267934
v -3.000004 1.821295 -1.267934
v -3.000004 0.000000 -0.999999
v 2.999996 -0.000000 -0.999999
vt 0.819362 0.554215
vt 0.885009 0.554214
vt 0.515947 0.554214
vt 0.450019 0.554213
vt 0.885194 0.554213
vt 0.449343 0.554213
vt 0.515946 0.697195
vt 0.885194 0.697196
vt 0.450019 0.697196
vt 0.449673 0.697194
vt 0.885006 0.697181
vt 0.819364 0.697183
vt 0.453687 0.846514
vt 0.453687 0.916661
vt 0.874252 0.916661
vt 0.874252 0.846514
vt 0.883724 0.537376
vt 0.883724 0.554567
vt 0.449444 0.554567
vt 0.449444 0.537376
vt 0.449444 0.523101
vt 0.883724 0.523101
vt 0.883724 0.386498
vt 0.449444 0.386499
vt 0.464955 0.386404
vt 0.489197 0.386404
vt 0.489197 0.523297
vt 0.480306 0.533577
vt 0.464955 0.535677
vt 0.464955 0.386404
vt 0.464955 0.535677
vt 0.480306 0.533577
vt 0.489197 0.523297
vt 0.489197 0.386404
vn 1.000000 0.000000 0.000000
vn 1.000000 0.000000 0.000000
vn 1.000000 0.000000 0.000000
vn 1.000000 0.000000 0.000000
vn -0.999997 0.002281 0.000000
vn -0.999997 0.002281 0.000000
vn -0.999997 0.002281 0.000000
vn -0.999997 0.002281 0.000000
vn -0.000000 -0.000000 1.000000
vn -0.000000 -0.000000 1.000000
vn -0.000000 -0.000000 1.000000
vn -0.000000 -0.000000 1.000000
vn -0.001026 0.999981 0.006150
vn -0.001026 0.999981 0.006150
vn -0.001026 0.999981 0.006150
vn -0.001026 0.999981 0.006150
vn -0.000544 0.839805 -0.542888
vn -0.001007 0.982367 -0.186961
vn -0.001007 0.982367 -0.186961
vn -0.000544 0.839805 -0.542888
vn 0.000000 0.300828 -0.953679
vn 0.000000 0.300828 -0.953679
vn 0.000000 0.000000 -1.000000
vn 0.000000 0.000000 -1.000000
vn 1.000000 -0.000001 -0.000007
vn 1.000000 -0.000001 -0.000007
vn 1.000000 -0.000001 -0.000007
vn 1.000000 -0.000001 -0.000007
vn 1.000000 -0.000001 -0.000007
vn -0.999963 0.000739 0.008544
vn -0.999963 0.000739 0.008544
vn -0.999963 0.000739 0.008544
vn -0.999963 0.000739 0.008544
vn -0.999963 0.000739 0.008544
s off
f 60/138/139 63/142/140 64/144/141 61/139/142
f 65/146/143 66/147/144 59/136/145 62/137/146
f 61/140/147 64/143/148 65/145/149 62/141/150
f 65/149/151 64/150/152 63/151/153 66/148/154
s 1
f 72/152/155 68/153/156 67/154/157 71/155/158
f 73/156/159 74/157/160 72/152/155 71/155/158
f 69/158/161 74/157/160 73/156/159 70/159/162
s off
f 76/160/163 70/161/164 73/162/165 71/163/166 67/164/167
f 75/165/168 68/166/169 72/167/170 74/168/171 69/169/172
v 0.452838 1.987700 -0.980100
v 0.374197 1.987700 -0.137962
v -1.142217 1.987700 -0.070251
v -1.201128 1.987700 -0.821430
v -0.363655 1.987700 -0.019900
v -0.363655 1.987700 -0.980100
v 0.644643 1.987700 -0.651772
v -0.511450 2.377801 -0.321823
v -1.338994 1.987700 -0.535251
v -0.238743 2.433772 -0.524438
v -0.460623 2.325978 -0.793785
v -1.013293 2.320937 -0.451251
v -0.607425 2.455482 -0.600046
v 0.063292 2.065192 -0.840418
vt 0.278520 0.253018
vt 0.320351 0.243673
vt 0.313053 0.265796
vt 0.292536 0.273127
vt 0.272496 0.279142
vt 0.353638 0.254762
vt 0.322889 0.273431
vt 0.315311 0.285417
vt 0.364290 0.278881
vt 0.356185 0.294107
vt 0.320121 0.301340
vt 0.281313 0.293306
vt 0.310075 0.276542
vt 0.338484 0.290295
vn -0.349047 0.708042 0.613875
vn -0.512834 0.854416 -0.083511
vn -0.715402 0.698710 0.002036
vn 0.138017 0.671211 0.728305
vn 0.296788 0.953861 0.045448
vn -0.017549 0.813938 0.580687
vn -0.161322 0.963190 -0.215037
vn -0.058520 0.680616 -0.730300
vn 0.204904 0.797704 -0.567170
vn 0.002150 0.612980 -0.790095
vn 0.288557 0.821950 0.491053
vn 0.334247 0.926024 -0.175381
vn -0.387928 0.665052 -0.638136
vn 0.079717 0.949236 -0.304297
s 1
f 79/170/173 88/173/174 85/174/175
f 81/171/176 86/176/177 84/172/178
f 88/173/174 89/182/179 87/177/180
f 86/176/177 90/183/181 87/177/180
f 87/177/180 90/183/181 82/180/182
f 86/176/177 78/175/183 83/178/184
f 80/181/185 87/177/180 82/180/182
f 80/181/185 88/173/174 87/177/180
f 85/174/175 88/173/174 80/181/185
f 81/171/176 78/175/183 86/176/177
f 86/176/177 89/182/179 84/172/178
f 88/173/174 84/172/178 89/182/179
f 81/171/176 84/172/178 79/170/173
f 79/170/173 84/172/178 88/173/174
f 87/177/180 89/182/179 86/176/177
f 86/176/177 83/178/184 90/183/181
f 90/183/181 83/178/184 77/179/186
f 90/183/181 77/179/186 82/180/182
