# This file uses centimeters as units for non-parametric coordinates.

v -3.000000 0.000000 -1.000000
v -3.000000 3.078371 -1.000000
v 3.000000 3.078371 -1.000000
v 3.000000 0.000000 -1.000000
v 3.000000 0.000000 0.000000
v 3.000000 3.078371 0.000000
v -3.000000 0.000000 0.000000
v -3.000000 3.078371 0.000000
v -3.000000 -4.000000 -1.000000
v 3.000000 -4.000000 -1.000000
v 3.000000 -4.000000 0.000000
v -3.000000 -4.000000 0.000000
v 3.000000 -2.000000 -0.999999
v -3.000000 -2.000000 -0.999999
v -3.000004 -4.000000 -1.267934
v 2.999996 -4.000000 -1.267934
v 2.999996 -2.038443 -1.169668
v -3.000004 -2.038443 -1.169668
v 2.999996 -2.178705 -1.267934
v -3.000004 -2.178705 -1.267934
v -3.000004 -4.000000 -0.999999
v 2.999996 -4.000000 -0.999999
v 3.000000 4.325632 0.150674
v -3.000000 4.325632 0.150674
v 3.000000 4.325632 -1.150673
v -3.000000 4.325632 -1.150673
v 3.000000 4.324051 -0.735542
v -3.000000 4.324051 -0.735542
v 3.000000 4.324051 -0.264457
v -3.000000 4.324051 -0.264457
v 3.000000 4.238789 -0.654398
v -3.000000 4.238789 -0.654398
v 3.000000 4.238789 -0.345600
v -3.000000 4.238789 -0.345600
v 3.000000 3.883565 -1.188564
v -3.000000 3.883565 -1.188564
v 3.000000 3.883565 -1.115498
v -3.000000 3.883565 -1.115496
v 3.000000 3.542734 -1.115498
v -3.000000 3.542734 -1.115496
v 3.000000 3.542734 -1.175682
v -3.000000 3.542734 -1.175682
v 3.000000 3.078371 -0.814613
v -3.000000 3.078371 -0.814613
v 3.000000 3.078371 -1.152008
v -3.000000 3.078371 -1.152008
v -3.000000 4.254919 -1.205982
v 3.000000 4.254919 -1.205982
v 3.000000 3.883565 0.188565
v -3.000000 3.883565 0.188565
v 3.000000 3.883565 0.115498
v -3.000000 3.883565 0.115497
v 3.000000 3.542734 0.115498
v -3.000000 3.542734 0.115497
v 3.000000 3.542734 0.175683
v -3.000000 3.542734 0.175683
v 3.000000 3.078371 -0.185386
v -3.000000 3.078371 -0.185386
v 3.000000 3.078371 0.152009
v -3.000000 3.078371 0.152009
v -3.000000 4.254919 0.205983
v 3.000000 4.254919 0.205983
vt 0.819362 0.554215
vt 0.819365 0.775651
vt 0.448732 0.918591
vt 0.515943 0.775650
vt 0.515947 0.554214
vt 0.885194 0.554213
vt 0.885194 0.775651
vt 0.449343 0.554215
vt 0.885280 0.918591
vt 0.449343 0.554213
vt 0.449343 0.775651
vt 0.885194 0.554215
vt 0.885009 0.554214
vt 0.885005 0.775651
vt 0.885280 0.845613
vt 0.448732 0.845613
vt 0.450022 0.775650
vt 0.450019 0.554213
vt 0.885193 0.775650
vt 0.449344 0.775650
vt 0.819362 0.841946
vt 0.819362 0.554215
vt 0.885009 0.554214
vt 0.885009 0.841947
vt 0.515947 0.554214
vt 0.515947 0.841946
vt 0.450019 0.841947
vt 0.450019 0.554213
vt 1.699036 0.841468
vt 1.699036 0.556095
vt 1.746454 0.556095
vt 1.746454 0.841468
vt 0.885194 0.554213
vt 0.885194 0.841947
vt 0.449343 0.841947
vt 0.449343 0.554213
vt 0.449343 0.841946
vt 0.449343 0.554215
vt 0.885194 0.554215
vt 0.885194 0.841946
vt 0.883724 0.537376
vt 0.883724 0.554567
vt 0.449444 0.554567
vt 0.449444 0.537376
vt 0.449444 0.523101
vt 0.883724 0.523101
vt 0.883724 0.386498
vt 0.449444 0.386499
vt 0.450386 0.386704
vt 0.882699 0.386704
vt 0.882699 0.406010
vt 0.450386 0.406010
vt 0.464955 0.386404
vt 0.489197 0.386404
vt 0.489197 0.523297
vt 0.480306 0.533577
vt 0.464955 0.535677
vt 0.464955 0.386404
vt 0.464955 0.535677
vt 0.480306 0.533577
vt 0.489197 0.523297
vt 0.489197 0.386404
vt 0.449819 0.973762
vt 0.884216 0.973762
vt 0.884216 0.994477
vt 0.449819 0.994477
vt 0.884216 0.924016
vt 0.884216 0.944310
vt 0.449819 0.944310
vt 0.449819 0.924016
vt 0.449820 0.966196
vt 0.884215 0.966196
vt 0.884215 0.951876
vt 0.449820 0.951876
vt 0.448175 0.319836
vt 0.885823 0.319836
vt 0.885819 0.345472
vt 0.448178 0.345472
vt 0.885824 0.315842
vt 0.448174 0.315843
vt 0.885827 0.292921
vt 0.448171 0.292922
vt 0.885827 0.288156
vt 0.448171 0.288157
vt 0.885831 0.254336
vt 0.448166 0.254338
vt 0.448163 0.229062
vt 0.885834 0.229060
vt 0.885818 0.355153
vt 0.448180 0.355153
vt 0.885823 0.319836
vt 0.448175 0.319836
vt 0.448178 0.345472
vt 0.885819 0.345472
vt 0.448174 0.315843
vt 0.885824 0.315842
vt 0.448171 0.292922
vt 0.885827 0.292921
vt 0.448171 0.288157
vt 0.885827 0.288156
vt 0.448166 0.254338
vt 0.885831 0.254336
vt 0.885834 0.229060
vt 0.448163 0.229062
vt 0.448180 0.355153
vt 0.885818 0.355153
vt 0.547545 0.250989
vt 0.496523 0.250989
vt 0.469165 0.250989
vt 0.467245 0.288643
vt 0.472126 0.288643
vt 0.472126 0.316280
vt 0.466201 0.316280
vt 0.464788 0.346392
vt 0.469273 0.352126
vt 0.502935 0.351997
vt 0.509514 0.345084
vt 0.534554 0.345084
vt 0.541133 0.351997
vt 0.574795 0.352126
vt 0.579280 0.346392
vt 0.577867 0.316280
vt 0.571942 0.316280
vt 0.571942 0.288643
vt 0.576823 0.288643
vt 0.574903 0.250989
vt 0.496523 0.250989
vt 0.547545 0.250989
vt 0.574903 0.250989
vt 0.576823 0.288643
vt 0.571943 0.288643
vt 0.571943 0.316280
vt 0.577867 0.316280
vt 0.579280 0.346392
vt 0.574795 0.352126
vt 0.541133 0.351998
vt 0.534554 0.345084
vt 0.509514 0.345084
vt 0.502935 0.351998
vt 0.469273 0.352126
vt 0.464788 0.346392
vt 0.466201 0.316280
vt 0.472125 0.316280
vt 0.472125 0.288643
vt 0.467245 0.288643
vt 0.469165 0.250989
vn -1.000000 0.000000 0.000000
vn -1.000000 0.000000 0.000000
vn -1.000000 0.000000 0.000000
vn -1.000000 0.000000 0.000000
vn 0.000000 1.000000 0.000000
vn 0.000000 1.000000 0.000000
vn 0.000000 1.000000 0.000000
vn 0.000000 1.000000 0.000000
vn 1.000000 0.000000 0.000000
vn 1.000000 0.000000 0.000000
vn 1.000000 0.000000 0.000000
vn 1.000000 0.000000 0.000000
vn 0.000000 0.000000 1.000000
vn 0.000000 0.000000 1.000000
vn 0.000000 0.000000 1.000000
vn 0.000000 0.000000 1.000000
vn 0.000000 0.000000 -1.000000
vn 0.000000 0.000000 -1.000000
vn 0.000000 0.000000 -1.000000
vn 0.000000 0.000000 -1.000000
vn -1.000000 0.000000 0.000000
vn -1.000000 0.000000 0.000000
vn 1.000000 0.000000 0.000000
vn 1.000000 0.000000 0.000000
vn 0.000000 -1.000000 0.000000
vn 0.000000 -1.000000 0.000000
vn 0.000000 -1.000000 0.000000
vn 0.000000 -1.000000 0.000000
vn 0.000000 0.000000 1.000000
vn 0.000000 0.000000 1.000000
vn 0.000000 0.000000 -1.000000
vn 0.000000 0.000000 -1.000000
vn 0.000000 0.830247 -0.557396
vn 0.000000 0.975279 -0.220977
vn 0.000000 0.975279 -0.220977
vn 0.000000 0.830247 -0.557396
vn 0.000000 0.300828 -0.953679
vn 0.000000 0.300828 -0.953679
vn 0.000000 0.000000 -1.000000
vn 0.000000 0.000000 -1.000000
vn 0.000000 -1.000000 0.000000
vn 0.000000 -1.000000 0.000000
vn 0.000000 -1.000000 0.000000
vn 0.000000 -1.000000 0.000000
vn 0.000000 0.000000 1.000000
vn 0.000000 0.000000 1.000000
vn 0.000000 0.000000 1.000000
vn 0.000000 0.000000 1.000000
vn 1.000000 -0.000001 -0.000007
vn 1.000000 -0.000001 -0.000007
vn 1.000000 -0.000001 -0.000007
vn 1.000000 -0.000001 -0.000007
vn 1.000000 -0.000001 -0.000007
vn -1.000000 0.000001 0.000007
vn -1.000000 0.000001 0.000007
vn -1.000000 0.000001 0.000007
vn -1.000000 0.000001 0.000007
vn -1.000000 0.000001 0.000007
vn 0.000000 0.999993 -0.003809
vn 0.000000 0.999993 -0.003809
vn 0.000000 0.999993 -0.003809
vn 0.000000 0.999993 -0.003809
vn 0.000000 0.999993 0.003809
vn 0.000000 0.999993 0.003809
vn 0.000000 0.999993 0.003809
vn 0.000000 0.999993 0.003809
vn 0.000000 0.689393 -0.724387
vn 0.000000 0.689393 -0.724387
vn 0.000000 0.689393 -0.724387
vn 0.000000 0.689393 -0.724387
vn 0.000000 0.689397 0.724383
vn 0.000000 0.689397 0.724383
vn 0.000000 0.689397 0.724383
vn 0.000000 0.689397 0.724383
vn 0.000000 1.000000 0.000000
vn 0.000000 1.000000 0.000000
vn 0.000000 1.000000 0.000000
vn 0.000000 1.000000 0.000000
vn 0.000000 -0.046852 -0.998902
vn 0.000000 -0.046852 -0.998902
vn 0.000000 0.303583 -0.952805
vn 0.000000 0.303583 -0.952805
vn 0.000000 -1.000000 0.000000
vn 0.000000 -1.000000 0.000000
vn 0.000000 -1.000000 0.000000
vn 0.000000 -1.000000 0.000000
vn -0.000000 0.000000 -1.000000
vn -0.000000 0.000000 -1.000000
vn -0.000000 0.000000 -1.000000
vn -0.000000 0.000000 -1.000000
vn 0.000000 1.000000 0.000000
vn 0.000000 1.000000 0.000000
vn 0.000000 1.000000 0.000000
vn 0.000000 1.000000 0.000000
vn 0.000000 -0.050916 -0.998703
vn 0.000000 -0.050916 -0.998703
vn 0.000000 -0.050916 -0.998703
vn 0.000000 -0.050916 -0.998703
vn 0.000000 -1.000000 0.000000
vn 0.000000 -1.000000 0.000000
vn 0.000000 -1.000000 0.000000
vn 0.000000 -1.000000 0.000000
vn 0.000000 0.616092 -0.787674
vn 0.000000 0.616092 -0.787674
vn 0.000000 -0.046852 0.998902
vn 0.000000 -0.046852 0.998902
vn 0.000000 0.303583 0.952805
vn 0.000000 0.303583 0.952805
vn 0.000000 -1.000000 0.000000
vn 0.000000 -1.000000 0.000000
vn 0.000000 -1.000000 0.000000
vn 0.000000 -1.000000 0.000000
vn -0.000000 0.000000 1.000000
vn -0.000000 0.000000 1.000000
vn -0.000000 0.000000 1.000000
vn -0.000000 0.000000 1.000000
vn 0.000000 1.000000 0.000000
vn 0.000000 1.000000 0.000000
vn 0.000000 1.000000 0.000000
vn 0.000000 1.000000 0.000000
vn 0.000000 -0.050916 0.998703
vn 0.000000 -0.050916 0.998703
vn 0.000000 -0.050916 0.998703
vn 0.000000 -0.050916 0.998703
vn 0.000000 -1.000000 0.000000
vn 0.000000 -1.000000 0.000000
vn 0.000000 -1.000000 0.000000
vn 0.000000 -1.000000 0.000000
vn 0.000000 0.616092 0.787674
vn 0.000000 0.616092 0.787674
vn -1.000000 0.000000 0.000000
vn -1.000000 0.000000 0.000000
vn -1.000000 0.000000 0.000000
vn -1.000000 0.000000 0.000000
vn -1.000000 0.000000 0.000000
vn -1.000000 0.000000 0.000000
vn -1.000000 0.000000 0.000000
vn -1.000000 0.000000 0.000000
vn -1.000000 0.000000 0.000000
vn -1.000000 0.000000 0.000000
vn -1.000000 0.000000 0.000000
vn -1.000000 0.000000 0.000000
vn -1.000000 0.000000 0.000000
vn -1.000000 0.000000 0.000000
vn -1.000000 0.000000 0.000000
vn -1.000000 0.000000 0.000000
vn -1.000000 0.000000 0.000000
vn -1.000000 0.000000 0.000000
vn -1.000000 0.000000 0.000000
vn -1.000000 0.000000 0.000000
vn 1.000000 0.000000 0.000000
vn 1.000000 0.000000 0.000000
vn 1.000000 0.000000 0.000000
vn 1.000000 0.000000 0.000000
vn 1.000000 0.000000 0.000000
vn 1.000000 0.000000 0.000000
vn 1.000000 0.000000 0.000000
vn 1.000000 0.000000 0.000000
vn 1.000000 0.000000 0.000000
vn 1.000000 0.000000 0.000000
vn 1.000000 0.000000 0.000000
vn 1.000000 0.000000 0.000000
vn 1.000000 0.000000 0.000000
vn 1.000000 0.000000 0.000000
vn 1.000000 0.000000 0.000000
vn 1.000000 0.000000 0.000000
vn 1.000000 0.000000 0.000000
vn 1.000000 0.000000 0.000000
vn 1.000000 0.000000 0.000000
vn 1.000000 0.000000 0.000000
s 1
f 2/2/1 1/1/2 7/13/3 8/14/4
s off
f 3/3/5 2/9/6 8/15/7 6/16/8
s 2
f 4/5/9 3/4/10 6/17/11 5/18/12
s 3
f 5/6/13 6/7/14 8/11/15 7/10/16
s 4
f 3/20/17 4/8/18 1/12/19 2/19/20
s 1
f 1/21/2 9/22/21 12/23/22 7/24/3
s 2
f 10/25/23 4/26/9 5/27/12 11/28/24
s off
f 9/29/25 10/30/26 11/31/27 12/32/28
s 3
f 11/33/29 5/34/13 7/35/16 12/36/30
s 4
f 4/37/18 10/38/31 9/39/32 1/40/19
s 5
f 18/41/33 14/42/34 13/43/35 17/44/36
f 19/45/37 20/46/38 18/41/33 17/44/36
f 15/47/39 20/46/38 19/45/37 16/48/40
s off
f 22/49/41 21/50/42 15/51/43 16/52/44
f 13/43/45 14/42/46 21/50/47 22/49/48
f 22/53/49 16/54/50 19/55/51 17/56/52 13/57/53
f 21/58/54 14/59/55 18/60/56 20/61/57 15/62/58
f 29/63/59 30/64/60 24/65/61 23/66/62
f 26/67/63 28/68/64 27/69/65 25/70/66
f 33/71/67 34/72/68 30/64/69 29/63/70
f 27/69/71 28/68/72 32/73/73 31/74/74
f 31/74/75 32/73/76 34/72/77 33/71/78
s 6
f 35/75/79 36/76/80 47/77/81 48/78/82
s off
f 38/79/83 36/76/84 35/75/85 37/80/86
f 40/81/87 38/79/88 37/80/89 39/82/90
f 42/83/91 40/81/92 39/82/93 41/84/94
f 46/85/95 42/83/96 41/84/97 45/86/98
f 43/87/99 44/88/100 46/85/101 45/86/102
s 6
f 47/77/81 26/89/103 25/90/104 48/78/82
s 7
f 50/91/105 49/92/106 62/93/107 61/94/108
s off
f 51/95/109 49/92/110 50/91/111 52/96/112
f 53/97/113 51/95/114 52/96/115 54/98/116
f 55/99/117 53/97/118 54/98/119 56/100/120
f 59/101/121 55/99/122 56/100/123 60/102/124
f 58/103/125 57/104/126 59/101/127 60/102/128
s 7
f 61/94/108 62/93/107 23/105/129 24/106/130
s off
f 44/107/131 58/108/132 60/109/133 56/110/134 54/111/135 52/112/136 50/113/137 61/114/138 24/115/139 30/116/140 34/117/141 32/118/142 28/119/143 26/120/144 47/121/145 36/122/146 38/123/147 40/124/148 42/125/149 46/126/150
f 57/127/151 43/128/152 45/129/153 41/130/154 39/131/155 37/132/156 35/133/157 48/134/158 25/135/159 27/136/160 31/137/161 33/138/162 29/139/163 23/140/164 62/141/165 49/142/166 51/143/167 53/144/168 55/145/169 59/146/170
