# This file uses centimeters as units for non-parametric coordinates.

v 3.000000 -4.000000 3.000000
v 3.000000 0.000000 3.000000
v -3.000000 0.000000 3.000000
v -3.000000 -4.000000 3.000000
v -3.000000 -4.000000 -3.000000
v -3.000000 0.000000 -3.000000
v 3.000000 -4.000000 -3.000000
v 3.000000 0.000000 -3.000000
v 3.000000 4.000000 3.000000
v -3.000000 4.000000 3.000000
v -3.000000 4.000000 -3.000000
v 3.000000 4.000000 -3.000000
v -1.450476 -4.000000 -3.000000
v -1.450476 0.001251 -3.000000
v -1.021660 0.864729 -3.000000
v 0.000000 1.500795 -3.000000
v 1.450476 -4.000000 -3.000000
v 1.450476 0.001251 -3.000000
v 1.021660 0.864729 -3.000000
v -1.450476 0.001251 3.000000
v 0.000000 1.500795 3.000000
v -1.021660 0.864729 3.000000
v -1.450476 -4.000000 3.000000
v 1.450476 0.001251 3.000000
v 1.021660 0.864729 3.000000
v 1.450476 -4.000000 3.000000
vt 0.449343 0.841947
vt 0.449343 0.554214
vt 0.885194 0.554214
vt 0.885194 0.841947
vt 0.885194 0.554213
vt 0.885194 0.841947
vt 0.449343 0.841947
vt 0.449343 0.554213
vt 0.561898 0.554215
vt 0.561898 0.842036
vt 0.449343 0.841947
vt 0.449343 0.554213
vt 0.449343 0.841947
vt 0.449343 0.554214
vt 0.885194 0.554214
vt 0.885194 0.841947
vt 0.444914 0.996727
vt 0.006472 0.996727
vt 0.006472 0.555379
vt 0.444914 0.555379
vt 0.885194 0.554213
vt 0.885194 0.841947
vt 0.449343 0.841947
vt 0.449343 0.554213
vt 0.885194 0.841947
vt 0.772635 0.554304
vt 0.885194 0.554213
vt 0.885194 0.554213
vt 0.885194 0.841947
vt 0.772639 0.842036
vt 0.772640 0.554214
vt 0.449343 0.841947
vt 0.667269 0.662171
vt 0.593053 0.616417
vt 0.741484 0.616417
vt 0.561902 0.554305
vt 0.449343 0.554213
vt 0.816466 0.642183
vt 0.816466 0.698465
vt 0.462042 0.698465
vt 0.462042 0.642185
vt 0.816466 0.769604
vt 0.462041 0.769602
vt 0.446592 0.558092
vt 0.853877 0.558092
vt 0.853965 0.842653
vt 0.446679 0.842653
vt 0.816466 0.642183
vt 0.462042 0.642185
vt 0.462042 0.698465
vt 0.816466 0.698465
vt 0.462041 0.769602
vt 0.816466 0.769604
vt 0.446592 0.558092
vt 0.446679 0.842653
vt 0.853965 0.842653
vt 0.853877 0.558092
vt 0.772639 0.554215
vt 0.885194 0.554213
vt 0.885194 0.841947
vt 0.772639 0.842036
vt 0.449343 0.841947
vt 0.449343 0.554213
vt 0.561902 0.554304
vt 0.449343 0.554213
vt 0.561897 0.554214
vt 0.561898 0.842036
vt 0.449343 0.841947
vt 0.667269 0.662171
vt 0.885194 0.841947
vt 0.741484 0.616418
vt 0.593053 0.616417
vt 0.772635 0.554305
vt 0.885194 0.554213
vn 1.000000 -0.000000 0.000000
vn 1.000000 -0.000000 0.000000
vn 1.000000 -0.000000 0.000000
vn 1.000000 -0.000000 0.000000
vn -1.000000 0.000000 -0.000000
vn -1.000000 0.000000 -0.000000
vn -1.000000 0.000000 -0.000000
vn -1.000000 0.000000 -0.000000
vn -0.000385 -0.000149 -1.000000
vn -0.000128 -0.000050 -1.000000
vn -0.000192 -0.000074 -1.000000
vn -0.000385 -0.000149 -1.000000
vn 1.000000 -0.000000 0.000000
vn 1.000000 -0.000000 0.000000
vn 0.000000 1.000000 0.000000
vn 0.000000 1.000000 0.000000
vn 0.000000 1.000000 0.000000
vn 0.000000 1.000000 0.000000
vn -1.000000 0.000000 -0.000000
vn -1.000000 0.000000 -0.000000
vn 0.000000 0.000000 -1.000000
vn 0.000128 -0.000050 -1.000000
vn 0.000192 -0.000074 -1.000000
vn 0.000385 -0.000149 -1.000000
vn 0.000385 -0.000149 -1.000000
vn 0.000000 0.000000 -1.000000
vn 0.000000 0.000000 -1.000000
vn -0.000000 0.000000 -1.000000
vn 0.000000 0.000000 -1.000000
vn 0.973560 -0.228433 0.000000
vn 0.740194 -0.672393 0.000000
vn 0.740194 -0.672393 0.000000
vn 0.973560 -0.228433 0.000000
vn 0.000000 -1.000000 0.000000
vn 0.000000 -1.000000 0.000000
vn 1.000000 0.000000 0.000000
vn 1.000000 0.000000 0.000000
vn -0.973560 -0.228433 0.000000
vn -0.973560 -0.228433 0.000000
vn -0.740194 -0.672393 0.000000
vn -0.740194 -0.672393 0.000000
vn -1.000000 0.000000 -0.000000
vn -1.000000 0.000000 -0.000000
vn 0.000192 0.000149 1.000000
vn 0.000192 0.000149 1.000000
vn 0.000000 0.000074 1.000000
vn -0.000028 0.000036 1.000000
vn 0.000080 -0.000057 1.000000
vn 0.000000 0.000074 1.000000
vn 0.000028 0.000036 1.000000
vn -0.000192 0.000149 1.000000
vn -0.000192 0.000149 1.000000
vn 0.000000 -0.000085 1.000000
vn -0.000080 -0.000057 1.000000
vn -0.000063 -0.000055 1.000000
vn 0.000063 -0.000055 1.000000
s 1
f 2/1/1 1/2/2 7/3/3 8/4/4
s 2
f 4/5/5 3/6/6 6/7/7 5/8/8
s 3
f 17/9/9 18/10/10 8/11/11 7/12/12
s 1
f 9/13/13 2/14/1 8/15/4 12/16/14
s off
f 10/17/15 9/18/16 12/19/17 11/20/18
s 2
f 3/21/6 10/22/19 11/23/20 6/24/7
s 3
f 11/25/21 14/26/22 6/27/23
f 5/28/24 6/29/23 14/30/22 13/31/25
f 11/25/21 12/32/26 16/33/27
f 16/33/27 12/32/26 19/34/28
f 11/25/21 16/33/27 15/35/29
f 19/34/28 12/32/26 18/36/10
f 11/25/21 15/35/29 14/26/22
f 18/36/10 12/32/26 8/37/11
s 6
f 14/38/30 15/39/31 22/40/32 20/41/33
f 15/39/31 16/42/34 21/43/35 22/40/32
f 23/44/36 13/45/37 14/46/30 20/47/33
f 18/48/38 24/49/39 25/50/40 19/51/41
f 19/51/41 25/50/40 21/52/35 16/53/34
f 26/54/42 24/55/39 18/56/38 17/57/43
s 8
f 26/58/44 1/59/45 2/60/46 24/61/47
f 10/62/48 3/63/49 20/64/50
f 4/65/51 23/66/52 20/67/50 3/68/49
f 10/62/48 21/69/53 9/70/54
f 21/69/53 25/71/55 9/70/54
f 10/62/48 22/72/56 21/69/53
f 25/71/55 24/73/47 9/70/54
f 10/62/48 20/64/50 22/72/56
f 24/73/47 2/74/46 9/70/54
