# This file uses centimeters as units for non-parametric coordinates.

v 3.000001 -2.000000 3.000000
v 3.000001 2.000000 3.000000
v -3.000001 -2.000000 -3.000000
v -3.000001 2.000000 -3.000000
v 2.999999 -2.000000 -3.000000
v 2.999999 2.000000 -3.000000
v 1.447085 2.000000 2.795555
v 0.000000 2.000000 2.196153
v -1.242640 2.000000 1.242640
v -2.196152 2.000000 -0.000000
v -2.795553 2.000000 -1.447086
v -2.795553 -2.000000 -1.447086
v -2.196152 -2.000000 -0.000000
v -1.242640 -2.000000 1.242640
v -0.000000 -2.000000 2.196153
v 1.447085 -2.000000 2.795555
vt 0.449343 0.554213
vt 0.449343 0.841947
vt 0.885194 0.554213
vt 0.885194 0.841947
vt 0.006472 0.996727
vt 0.449343 0.554213
vt 0.449343 0.841947
vt 1.460392 0.843032
vt 0.739884 0.841947
vt 0.885194 0.554213
vt 0.885194 0.841947
vt 0.006472 0.555379
vt 0.444914 0.555379
vt 0.739884 0.554214
vt 0.885194 0.554214
vt 1.748013 0.554531
vt 1.748013 0.843032
vt 0.885194 0.841947
vt 0.119949 0.981687
vt 0.225692 0.937596
vt 0.316496 0.867458
vt 0.386172 0.776052
vt 0.429973 0.669608
vt 1.673571 0.564362
vt 1.604203 0.593184
vt 1.544635 0.639032
vt 1.498926 0.698782
vt 1.470193 0.768363
vt 0.596222 0.554214
vt 0.596222 0.841947
vt 0.449343 0.841947
vt 0.449343 0.554214
vt 0.739884 0.554214
vt 0.739884 0.841947
vt 0.449343 0.554214
vt 0.885194 0.841947
vt 0.596222 0.841947
vt 0.596222 0.554214
vt 0.449343 0.841947
vt 0.885194 0.554214
vn 1.000000 -0.000000 -0.000000
vn 1.000000 -0.000000 -0.000000
vn 1.000000 -0.000000 -0.000000
vn 1.000000 -0.000000 -0.000000
vn 0.000000 1.000000 0.000000
vn 0.000000 1.000000 0.000000
vn 0.000000 1.000000 0.000000
vn 0.000000 1.000000 0.000000
vn 0.000000 1.000000 0.000000
vn 0.000000 1.000000 0.000000
vn 0.000000 1.000000 0.000000
vn 0.000000 1.000000 0.000000
vn 0.000000 0.000000 -1.000000
vn 0.000000 0.000000 -1.000000
vn 0.000000 0.000000 -1.000000
vn 0.000000 0.000000 -1.000000
vn -0.258819 0.000000 0.965926
vn 0.003351 -0.000000 0.999994
vn 0.003351 -0.000000 0.999994
vn -0.258819 0.000000 0.965926
vn -0.000000 -1.000000 -0.000000
vn -0.000000 -1.000000 -0.000000
vn -0.000000 -1.000000 -0.000000
vn -0.000000 -1.000000 -0.000000
vn -0.000000 -1.000000 -0.000000
vn -0.000000 -1.000000 -0.000000
vn -0.000000 -1.000000 -0.000000
vn -0.000000 -1.000000 -0.000000
vn -0.965926 0.000000 0.258820
vn -0.999992 0.000000 -0.003975
vn -0.999992 0.000000 -0.003975
vn -0.965926 0.000000 0.258820
vn -0.866026 0.000000 0.500000
vn -0.866026 0.000000 0.500000
vn -0.707107 0.000000 0.707107
vn -0.707107 0.000000 0.707107
vn -0.500000 0.000000 0.866025
vn -0.500000 0.000000 0.866025
s off
f 1/1/1 5/10/2 6/11/3 2/2/4
s 1
f 4/13/5 11/23/6 6/12/7
f 7/19/8 2/5/9 6/12/7
f 6/12/7 11/23/6 10/22/10
f 6/12/7 8/20/11 7/19/8
f 9/21/12 6/12/7 10/22/10
f 8/20/11 6/12/7 9/21/12
s off
f 3/3/13 4/4/14 6/7/15 5/6/16
s 3
f 16/14/17 1/15/18 2/18/19 7/9/20
s 4
f 1/8/21 16/28/22 5/17/23
f 12/24/24 3/16/25 5/17/23
f 5/17/23 16/28/22 15/27/26
f 5/17/23 13/25/27 12/24/24
f 14/26/28 5/17/23 15/27/26
f 13/25/27 5/17/23 14/26/28
s 3
f 11/30/29 4/31/30 3/32/31 12/29/32
f 10/34/33 11/30/29 12/29/32 13/33/34
f 9/36/35 10/34/33 13/33/34 14/40/36
f 15/38/37 16/14/17 7/9/20 8/37/38
f 14/35/36 15/38/37 8/37/38 9/39/35
