# This file uses centimeters as units for non-parametric coordinates.

v -3.000000 -2.000000 -3.000000
v -3.000000 2.000000 -3.000000
v -1.242641 2.000000 1.242641
v -1.242641 -2.000000 1.242641
v 3.000000 -2.000000 3.000000
v 3.000000 2.000000 3.000000
v -3.000000 -2.000000 3.000000
v -3.000000 2.000000 3.000000
v 1.447086 2.000000 2.795555
v 0.000000 2.000000 2.196152
v -2.196152 2.000000 0.000000
v -2.795547 2.000000 -1.447083
v -2.196152 -2.000000 -0.000000
v -2.795547 -2.000000 -1.447083
v -0.000000 -2.000000 2.196152
v 1.447086 -2.000000 2.795555
vt 0.449343 0.554214
vt 0.449343 0.841947
vt 0.134889 0.684647
vt 1.663770 0.758532
vt 0.885194 0.554213
vt 0.885194 0.841947
vt 0.006472 0.996727
vt 0.449343 0.554213
vt 0.449343 0.841947
vt 1.460392 0.843032
vt 0.885194 0.554214
vt 0.885194 0.841947
vt 0.006472 0.555379
vt 0.444914 0.555379
vt 1.748013 0.554531
vt 1.748013 0.843032
vt 0.331437 0.570418
vt 0.225693 0.614509
vt 0.065213 0.776053
vt 0.021413 0.882497
vt 1.604202 0.804380
vt 1.534834 0.833201
vt 1.709478 0.698781
vt 1.738212 0.629201
vt 0.594653 0.841947
vt 0.449343 0.841947
vt 0.449343 0.554214
vt 0.594653 0.554214
vt 0.738315 0.554214
vt 0.885194 0.554214
vt 0.885194 0.841947
vt 0.738315 0.841947
vt 0.594653 0.554214
vt 0.594653 0.841947
vt 0.449343 0.554214
vt 0.449343 0.841947
vt 0.738315 0.841947
vt 0.738315 0.554214
vt 0.885194 0.841947
vt 0.885194 0.554214
vn -1.000000 0.000000 -0.000000
vn -1.000000 0.000000 -0.000000
vn -1.000000 0.000000 -0.000000
vn -1.000000 0.000000 -0.000000
vn 0.000000 1.000000 0.000000
vn 0.000000 1.000000 0.000000
vn 0.000000 1.000000 0.000000
vn 0.000000 1.000000 0.000000
vn 0.000000 1.000000 0.000000
vn 0.000000 1.000000 0.000000
vn 0.000000 1.000000 0.000000
vn 0.000000 1.000000 0.000000
vn -0.000000 -1.000000 -0.000000
vn -0.000000 -1.000000 -0.000000
vn -0.000000 -1.000000 -0.000000
vn -0.000000 -1.000000 -0.000000
vn -0.000000 -1.000000 -0.000000
vn -0.000000 -1.000000 -0.000000
vn -0.000000 -1.000000 -0.000000
vn -0.000000 -1.000000 -0.000000
vn -0.000000 -0.000000 1.000000
vn -0.000000 -0.000000 1.000000
vn -0.000000 -0.000000 1.000000
vn -0.000000 -0.000000 1.000000
vn 0.258819 -0.000000 -0.965926
vn 0.258819 -0.000000 -0.965926
vn -0.005636 0.000000 -0.999984
vn -0.005636 0.000000 -0.999984
vn 0.965926 -0.000000 -0.258820
vn 0.965926 -0.000000 -0.258820
vn 0.999996 -0.000000 0.002961
vn 0.999996 -0.000000 0.002961
vn 0.866027 -0.000000 -0.499998
vn 0.866027 -0.000000 -0.499998
vn 0.707107 -0.000000 -0.707107
vn 0.707107 -0.000000 -0.707107
vn 0.500000 -0.000000 -0.866026
vn 0.500000 -0.000000 -0.866026
s off
f 8/12/1 2/2/2 1/1/3 7/11/4
s 1
f 2/7/5 8/13/6 12/20/7
f 6/14/8 9/17/9 8/13/6
f 12/20/7 8/13/6 11/19/10
f 9/17/9 10/18/11 8/13/6
f 11/19/10 8/13/6 3/3/12
f 3/3/12 8/13/6 10/18/11
s 3
f 1/10/13 14/22/14 7/16/15
f 5/15/16 7/16/15 16/24/17
f 14/22/14 13/21/18 7/16/15
f 16/24/17 7/16/15 15/23/19
f 13/21/18 4/4/20 7/16/15
f 4/4/20 15/23/19 7/16/15
s off
f 7/8/21 5/5/22 6/6/23 8/9/24
s 5
f 16/28/25 9/25/26 6/26/27 5/27/28
f 12/32/29 14/29/30 1/30/31 2/31/32
f 11/34/33 13/33/34 14/29/30 12/32/29
f 3/36/35 4/35/36 13/33/34 11/34/33
f 15/38/37 10/37/38 9/25/26 16/28/25
f 4/40/36 3/39/35 10/37/38 15/38/37
