# This file uses centimeters as units for non-parametric coordinates.

v -4.125008 0.000000 2.999999
v -4.125008 4.000000 3.000000
v -9.000000 4.000000 2.999999
v -9.000000 0.000000 2.999999
v -9.000000 0.000000 -3.000000
v -9.000000 4.000000 -3.000000
v -4.125008 0.000000 -3.000000
v -4.125008 4.000000 -3.000000
v -4.125008 -4.000000 2.999999
v -9.000000 -4.000000 2.999999
v -9.000000 -4.000000 -3.000000
v -4.125008 -4.000000 -3.000000
v -3.000000 -8.000000 2.999999
v -3.000000 -4.000000 2.999999
v -9.000000 -8.000000 2.999999
v -9.000000 -8.000000 -3.000000
v -3.000000 -8.000000 -3.000000
v -3.000000 -4.000000 -3.000000
v 3.000000 -8.000000 2.999999
v 3.000000 -4.000000 2.999999
v 3.000000 -8.000000 -3.000000
v 3.000000 -4.000000 -3.000000
v 9.000000 -8.000000 2.999999
v 9.000000 -4.000000 2.999999
v 9.000000 -8.000000 -3.000000
v 9.000000 -4.000000 -3.000000
v 4.124992 -4.000000 2.999999
v 4.124992 -4.000000 -3.000000
v 9.000000 -0.000000 2.999999
v 4.124992 -0.000000 2.999999
v 4.124992 -0.000000 -3.000000
v 9.000000 -0.000000 -3.000000
v 9.000000 4.000000 2.999999
v 4.124992 4.000000 3.000000
v 4.124992 4.000000 -3.000000
v 9.000000 4.000000 -3.000000
v 9.000000 8.000000 2.999999
v 3.000000 8.000000 2.999999
v 3.000000 8.000000 -3.000000
v 9.000000 8.000000 -3.000000
v -3.000000 8.000000 2.999999
v -3.000000 8.000000 -3.000000
v -9.000000 8.000000 2.999999
v -9.000000 8.000000 -3.000000
v 2.999992 5.749266 -3.000000
v 3.699253 4.990067 -3.000000
v 2.149311 5.977198 -3.000000
v 0.229118 4.000000 -3.000000
v 1.294819 5.749266 -3.000000
v 0.597290 4.990067 -3.000000
v -0.229126 4.000000 -3.000000
v -0.597305 4.990067 -3.000000
v -1.294834 5.749266 -3.000000
v -2.149326 5.977198 -3.000000
v -3.000008 5.749266 -3.000000
v -3.699268 4.990067 -3.000000
v -3.000008 5.749266 3.000000
v -3.699268 4.990067 3.000000
v -2.149326 5.977198 3.000000
v -0.229126 4.000000 3.000000
v -1.294834 5.749266 3.000000
v -0.597305 4.990067 3.000000
v 0.229118 4.000000 3.000000
v 0.597290 4.990067 3.000000
v 1.294819 5.749266 3.000000
v 2.149311 5.977198 3.000000
v 2.999992 5.749266 3.000000
v 3.699253 4.990067 3.000000
vt 0.449343 0.554215
vt 0.449343 0.841946
vt 0.885194 0.841947
vt 0.885194 0.554213
vt 0.885194 0.554213
vt 0.885194 0.841947
vt 0.449343 0.554214
vt 0.531066 0.554214
vt 0.531066 0.841946
vt 0.803471 0.554215
vt 0.885194 0.554215
vt 0.885194 0.841946
vt 0.449343 0.841947
vt 0.449343 0.554213
vt 0.803471 0.841946
vt 0.449343 0.841947
vt 0.449343 0.841946
vt 0.449343 0.554215
vt 0.885194 0.554215
vt 0.885194 0.841946
vt 0.885194 0.554213
vt 0.885194 0.841947
vt 0.449343 0.841947
vt 0.449343 0.554213
vt 0.885194 0.554213
vt 0.885194 0.841947
vt 0.531066 0.841946
vt 0.531066 0.554214
vt 0.449343 0.841947
vt 0.449343 0.554214
vt 0.803471 0.554215
vt 0.803471 0.841946
vt 0.885194 0.554213
vt 0.885194 0.841947
vt 0.449343 0.841947
vt 0.449343 0.554213
vt 1.460392 0.843032
vt 1.460392 0.554532
vt 1.748013 0.554531
vt 1.748013 0.843032
vt 0.885194 0.554213
vt 0.885194 0.841947
vt 0.449343 0.841947
vt 0.449343 0.554213
vt 0.449343 0.841947
vt 0.449343 0.554214
vt 0.885194 0.554214
vt 0.885194 0.841947
vt 0.444914 0.996727
vt 0.006472 0.996727
vt 0.006472 0.555379
vt 0.444914 0.555379
vt 1.460392 0.843032
vt 1.460392 0.554532
vt 1.748013 0.554531
vt 1.748013 0.843032
vt 0.885194 0.554213
vt 0.885194 0.841947
vt 0.449343 0.841947
vt 0.449343 0.554213
vt 0.449343 0.841947
vt 0.449343 0.554214
vt 0.885194 0.554214
vt 0.885194 0.841947
vt 0.449343 0.841947
vt 0.449343 0.554214
vt 0.885194 0.554214
vt 0.885194 0.841947
vt 1.460392 0.843032
vt 1.460392 0.554532
vt 1.748013 0.554531
vt 1.748013 0.843032
vt 0.885194 0.554213
vt 0.885194 0.841947
vt 0.449343 0.841947
vt 0.449343 0.554213
vt 0.449343 0.841947
vt 0.449343 0.554214
vt 0.885194 0.554214
vt 0.885194 0.841947
vt 0.444914 0.996727
vt 0.362711 0.996726
vt 0.362711 0.555380
vt 0.444914 0.555379
vt 0.088681 0.996726
vt 0.006472 0.996727
vt 0.006472 0.555379
vt 0.088681 0.555380
vt 0.449343 0.841947
vt 0.449343 0.554214
vt 0.885194 0.554214
vt 0.885194 0.841947
vt 0.885194 0.554214
vt 0.885194 0.841946
vt 0.449343 0.841946
vt 0.449343 0.554214
vt 0.803472 0.554214
vt 0.803472 0.841946
vt 0.449343 0.841947
vt 0.449343 0.554213
vt 0.531065 0.841946
vt 0.531065 0.554215
vt 0.885194 0.554214
vt 0.885194 0.841947
vt 0.449343 0.841947
vt 0.449343 0.554214
vt 0.885194 0.554214
vt 0.885194 0.841947
vt 0.885194 0.554214
vt 0.885194 0.841946
vt 0.449343 0.841946
vt 0.449343 0.554214
vt 0.803472 0.554214
vt 0.803472 0.841946
vt 0.449343 0.841947
vt 0.449343 0.554213
vt 0.531065 0.841946
vt 0.531065 0.554215
vt 0.885194 0.554214
vt 0.885194 0.841947
vt 0.531066 0.841947
vt 0.803472 0.841946
vt 0.531065 0.841947
vt 0.803471 0.841947
vt 0.449343 0.841947
vt 0.449343 0.554214
vt 0.885194 0.554214
vt 0.885194 0.841947
vt 0.444914 0.996727
vt 0.006472 0.996727
vt 0.006472 0.555379
vt 0.444914 0.555379
vt 0.885194 0.680044
vt 0.885194 0.841947
vt 0.449343 0.841947
vt 0.449343 0.554213
vt 0.803472 0.554215
vt 0.834399 0.625433
vt 0.449343 0.841947
vt 0.449343 0.680044
vt 0.500138 0.625433
vt 0.531065 0.554215
vt 0.885194 0.554214
vt 0.885194 0.841947
vt 0.444914 0.996727
vt 0.006472 0.996727
vt 0.006472 0.555379
vt 0.444914 0.555379
vt 0.449343 0.841947
vt 0.449347 0.680046
vt 0.511139 0.696440
vt 0.573211 0.680044
vt 0.623880 0.625433
vt 0.650625 0.554214
vt 0.683912 0.554214
vt 0.710658 0.625433
vt 0.761327 0.680044
vt 0.823399 0.696440
vt 0.885190 0.680046
vt 0.885194 0.841947
vt 0.449343 0.841947
vt 0.449347 0.680046
vt 0.511138 0.696441
vt 0.573210 0.680044
vt 0.623880 0.625433
vt 0.650625 0.554215
vt 0.683912 0.554215
vt 0.710657 0.625433
vt 0.761326 0.680045
vt 0.823398 0.696441
vt 0.885190 0.680046
vt 0.885194 0.841947
vt 0.444914 0.996727
vt 0.006472 0.996727
vt 0.006472 0.555379
vt 0.444914 0.555379
vt 0.885194 0.554213
vt 0.885194 0.841947
vt 0.449343 0.841947
vt 0.449343 0.554213
vt 0.885194 0.554213
vt 0.885194 0.841947
vt 0.449343 0.841947
vt 0.449344 0.680044
vt 0.500139 0.625433
vt 0.531066 0.554214
vt 0.449343 0.841947
vt 0.449343 0.554214
vt 0.803471 0.554215
vt 0.834398 0.625433
vt 0.885193 0.680045
vt 0.885194 0.841947
vt 0.885282 0.701261
vt 0.467816 0.701261
vt 0.467816 0.629446
vt 0.885282 0.629446
vt 0.467816 0.554461
vt 0.885282 0.554461
vt 0.467816 0.762538
vt 0.885282 0.762537
vt 0.467816 0.824070
vt 0.885282 0.824070
vt 0.467816 0.627914
vt 0.467816 0.699648
vt 0.885282 0.699648
vt 0.885282 0.627914
vt 0.467816 0.554419
vt 0.885282 0.554419
vt 0.885282 0.760173
vt 0.885282 0.836317
vt 0.467816 0.836317
vt 0.467816 0.760173
vt 0.885282 0.624342
vt 0.885282 0.553620
vt 0.467816 0.553621
vt 0.467816 0.624343
vt 0.467816 0.695203
vt 0.885282 0.695204
vt 0.467816 0.629962
vt 0.885282 0.629962
vt 0.467816 0.553905
vt 0.885282 0.553905
vt 0.467816 0.698515
vt 0.885282 0.698515
vt 0.885282 0.768588
vt 0.467816 0.768587
vt 0.467816 0.726204
vt 0.885282 0.726204
vt 0.885282 0.758088
vt 0.467816 0.758088
vn 0.979455 -0.201661 0.000000
vn 1.000000 -0.000000 0.000000
vn 1.000000 -0.000000 0.000000
vn 0.979455 -0.201661 0.000000
vn -1.000000 0.000000 -0.000000
vn -1.000000 0.000000 -0.000000
vn -1.000000 0.000000 -0.000000
vn -1.000000 0.000000 -0.000000
vn 0.000000 0.000000 -1.000000
vn 0.000000 0.000000 -1.000000
vn 0.000000 0.000000 -1.000000
vn 0.000000 0.000000 -1.000000
vn -0.000000 0.000000 1.000000
vn -0.000000 -0.000000 1.000000
vn -0.000000 -0.000000 1.000000
vn -0.000000 0.000000 1.000000
vn 1.000000 -0.000000 0.000000
vn 1.000000 -0.000000 0.000000
vn -1.000000 0.000000 -0.000000
vn -1.000000 0.000000 -0.000000
vn 0.000000 0.000000 -1.000000
vn 0.000000 0.000000 -1.000000
vn -0.000000 -0.000000 1.000000
vn -0.000000 -0.000000 1.000000
vn -1.000000 0.000000 -0.000000
vn -1.000000 0.000000 -0.000000
vn -0.000000 -1.000000 -0.000000
vn -0.000000 -1.000000 -0.000000
vn -0.000000 -1.000000 -0.000000
vn -0.000000 -1.000000 -0.000000
vn 0.000000 0.000000 -1.000000
vn 0.000000 0.000000 -1.000000
vn 0.000000 0.000000 -1.000000
vn -0.000000 -0.000000 1.000000
vn -0.000000 -0.000000 1.000000
vn -0.000000 -0.000000 1.000000
vn 0.000000 1.000000 0.000000
vn 0.000000 1.000000 0.000000
vn 0.000000 1.000000 0.000000
vn 0.000000 1.000000 0.000000
vn -0.000000 -1.000000 -0.000000
vn -0.000000 -1.000000 -0.000000
vn 0.000000 0.000000 -1.000000
vn 0.000000 0.000000 -1.000000
vn -0.000000 -0.000000 1.000000
vn -0.000000 -0.000000 1.000000
vn 1.000000 -0.000000 0.000000
vn 1.000000 -0.000000 0.000000
vn 1.000000 -0.000000 0.000000
vn 1.000000 -0.000000 0.000000
vn -0.000000 -1.000000 -0.000000
vn -0.000000 -1.000000 -0.000000
vn 0.000000 0.000000 -1.000000
vn 0.000000 0.000000 -1.000000
vn 0.000000 0.000000 -1.000000
vn -0.000000 -0.000000 1.000000
vn -0.000000 -0.000000 1.000000
vn -0.000000 -0.000000 1.000000
vn 0.000000 1.000000 0.000000
vn 0.000000 1.000000 0.000000
vn 0.000000 1.000000 0.000000
vn 0.000000 1.000000 0.000000
vn 1.000000 -0.000000 0.000000
vn 1.000000 -0.000000 0.000000
vn -1.000000 0.000000 -0.000000
vn -1.000000 0.000000 -0.000000
vn -1.000000 0.000000 -0.000000
vn -1.000000 0.000000 -0.000000
vn 0.000000 0.000000 -1.000000
vn 0.000000 0.000000 -1.000000
vn 0.000000 -0.000000 1.000000
vn 0.000000 -0.000000 1.000000
vn 1.000000 -0.000000 0.000000
vn 1.000000 -0.000000 0.000000
vn -0.979455 -0.201661 -0.000000
vn -0.979455 -0.201661 -0.000000
vn 0.000000 0.000000 -1.000000
vn 0.000000 0.000000 -1.000000
vn 0.000000 0.000000 1.000000
vn 0.000000 0.000000 1.000000
vn 1.000000 -0.000000 0.000000
vn 1.000000 -0.000000 0.000000
vn 0.000000 1.000000 0.000000
vn 0.000000 1.000000 0.000000
vn 0.000000 1.000000 0.000000
vn 0.000000 1.000000 0.000000
vn 0.000000 0.000000 -1.000000
vn 0.000000 0.000000 -1.000000
vn 0.000000 0.000000 -1.000000
vn 0.000000 0.000000 -1.000000
vn 0.000000 0.000000 1.000000
vn 0.000000 0.000000 1.000000
vn 0.000000 0.000000 1.000000
vn 0.000000 0.000000 1.000000
vn 0.000000 1.000000 0.000000
vn 0.000000 1.000000 0.000000
vn 0.000000 0.000000 -1.000000
vn 0.000000 0.000000 -1.000000
vn 0.000000 0.000000 -1.000000
vn 0.000000 0.000000 -1.000000
vn 0.000000 0.000000 -1.000000
vn 0.000000 0.000000 -1.000000
vn 0.000000 0.000000 -1.000000
vn 0.000000 0.000000 -1.000000
vn 0.000000 0.000000 -1.000000
vn 0.000000 0.000000 -1.000000
vn -0.000000 0.000000 1.000000
vn -0.000000 0.000000 1.000000
vn -0.000000 0.000000 1.000000
vn -0.000000 0.000000 1.000000
vn -0.000000 0.000000 1.000000
vn -0.000000 0.000000 1.000000
vn -0.000000 0.000000 1.000000
vn -0.000000 0.000000 1.000000
vn -0.000000 0.000000 1.000000
vn -0.000000 0.000000 1.000000
vn 0.000000 1.000000 0.000000
vn 0.000000 1.000000 0.000000
vn -1.000000 0.000000 -0.000000
vn -1.000000 0.000000 -0.000000
vn 0.000000 0.000000 -1.000000
vn 0.000000 0.000000 -1.000000
vn -0.000000 0.000000 1.000000
vn -0.000000 0.000000 1.000000
vn -0.517675 -0.855577 -0.000000
vn -0.517675 -0.855577 -0.000000
vn -0.839075 -0.544016 -0.000000
vn -0.839075 -0.544016 -0.000000
vn -0.000558 -1.000000 -0.000000
vn -0.000558 -1.000000 -0.000000
vn 0.517727 -0.855546 0.000000
vn 0.517727 -0.855546 0.000000
vn 0.852757 -0.522307 0.000000
vn 0.852757 -0.522307 0.000000
vn 0.937292 -0.348546 0.000000
vn 0.937292 -0.348546 0.000000
vn 0.517675 -0.855577 0.000000
vn 0.839075 -0.544016 0.000000
vn 0.839075 -0.544016 0.000000
vn 0.517675 -0.855577 0.000000
vn 0.000558 -1.000000 -0.000000
vn 0.000558 -1.000000 -0.000000
vn -0.517727 -0.855546 -0.000000
vn -0.517727 -0.855546 -0.000000
vn -0.852756 -0.522310 -0.000000
vn -0.852756 -0.522310 -0.000000
vn -0.937289 -0.348553 -0.000000
vn -0.937289 -0.348553 -0.000000
vn -0.000000 -1.000000 -0.000000
vn -0.000000 -1.000000 -0.000000
vn -0.000000 -1.000000 -0.000000
vn -0.000000 -1.000000 -0.000000
s 1
f 2/2/1 1/1/2 7/11/3 8/12/4
s 2
f 4/4/5 3/3/6 6/13/7 5/14/8
s 3
f 5/5/9 6/6/10 8/9/11 7/8/12
s 4
f 3/16/13 4/7/14 1/10/15 2/15/16
s 1
f 1/17/2 9/18/17 12/19/18 7/20/3
s 2
f 10/21/19 4/22/5 5/23/8 11/24/20
s 3
f 11/25/21 5/26/9 7/27/12 12/28/22
s 4
f 4/29/14 10/30/23 9/31/24 1/32/15
s 2
f 15/33/25 10/34/19 11/35/20 16/36/26
s 5
f 13/37/27 15/38/28 16/39/29 17/40/30
s 3
f 17/44/31 16/41/32 11/42/21 12/121/22 18/43/33
s 4
f 15/46/34 13/47/35 14/48/36 9/124/24 10/45/23
s 6
f 14/49/37 20/50/38 22/51/39 18/52/40
s 5
f 19/53/41 13/54/27 17/55/30 21/56/42
s 3
f 17/57/31 18/58/33 22/59/43 21/60/44
s 4
f 14/61/36 13/62/35 19/63/45 20/64/46
s 7
f 24/65/47 23/66/48 25/67/49 26/68/50
s 5
f 23/69/51 19/70/41 21/71/42 25/72/52
s 3
f 25/76/53 21/73/44 22/74/43 28/122/54 26/75/55
s 4
f 23/79/56 24/80/57 27/123/58 20/77/46 19/78/45
s 6
f 20/81/38 27/82/59 28/83/60 22/84/39
f 9/85/61 14/86/37 18/87/40 12/88/62
s 7
f 29/89/63 24/90/47 26/91/50 32/92/64
s 8
f 27/93/65 30/94/66 31/95/67 28/96/68
s 3
f 28/97/54 31/98/69 32/99/70 26/100/55
s 4
f 30/101/71 27/102/58 24/103/57 29/104/72
s 7
f 33/105/73 29/106/63 32/107/64 36/108/74
s 8
f 30/109/66 34/110/75 35/111/76 31/112/67
s 3
f 31/113/69 35/114/77 36/115/78 32/116/70
s 4
f 34/117/79 30/118/71 29/119/72 33/120/80
s 7
f 37/125/81 33/126/73 36/127/74 40/128/82
s 9
f 38/129/83 37/130/84 40/131/85 39/132/86
s 3
f 45/133/87 39/134/88 40/135/89 36/136/78 35/137/77 46/138/90
s 4
f 38/139/91 67/140/92 68/141/93 34/142/79 33/143/80 37/144/94
s 9
f 41/145/95 38/146/83 39/147/86 42/148/96
s 3
f 39/149/88 45/150/87 47/151/97 49/152/98 50/153/99 48/154/100 51/155/101 52/156/102 53/157/103 54/158/104 55/159/105 42/160/106
s 4
f 41/161/107 57/162/108 59/163/109 61/164/110 62/165/111 60/166/112 63/167/113 64/168/114 65/169/115 66/170/116 67/171/92 38/172/91
s 9
f 43/173/117 41/174/95 42/175/96 44/176/118
s 2
f 3/177/6 43/178/119 44/179/120 6/180/7
s 3
f 6/181/10 44/182/121 42/183/106 55/184/105 56/185/122 8/186/11
s 4
f 43/187/123 3/188/13 2/189/16 58/190/124 57/191/108 41/192/107
s 8
f 67/193/125 45/194/126 46/195/127 68/196/128
f 68/196/128 46/195/127 35/197/76 34/198/75
f 47/199/129 45/194/126 67/193/125 66/200/130
f 49/201/131 47/199/129 66/200/130 65/202/132
f 50/203/133 49/204/131 65/205/132 64/206/134
f 48/207/135 50/203/133 64/206/134 63/208/136
s 1
f 57/209/137 58/210/138 56/211/139 55/212/140
f 58/213/138 2/214/1 8/215/4 56/216/139
f 54/217/141 59/218/142 57/209/137 55/212/140
f 53/219/143 61/220/144 59/218/142 54/217/141
f 52/221/145 62/222/146 61/220/144 53/219/143
f 51/223/147 60/224/148 62/225/146 52/226/145
s off
f 48/227/149 63/228/150 60/229/151 51/230/152
