# This file uses centimeters as units for non-parametric coordinates.

v -0.792305 1.013377 0.792312
v -0.792311 0.807839 0.792310
v -0.654982 0.735606 0.654981
v -0.654982 -0.003516 0.654981
v -0.797394 -0.003517 0.797393
v -0.914742 -1.007191 0.914741
v -0.797394 -0.181049 0.797393
v -0.914742 -0.784568 0.914741
v -0.724390 -0.189242 0.724389
v -0.764912 -0.630606 0.764911
v -0.654987 0.735605 0.278724
v -0.654987 -0.003517 0.278724
v -0.507641 0.735605 0.278724
v -0.507641 -0.003517 0.278724
v -0.792309 1.013376 -0.792310
v -0.792311 0.807839 -0.792310
v -0.654982 0.735606 -0.654981
v -0.654982 -0.003516 -0.654981
v -0.797394 -0.003517 -0.797391
v -0.914742 -1.007191 -0.914741
v -0.797394 -0.181049 -0.797391
v -0.914742 -0.784568 -0.914741
v -0.724390 -0.189242 -0.724389
v -0.764912 -0.630606 -0.764911
v -0.654987 0.735605 -0.278724
v -0.654987 -0.003517 -0.278724
v -0.507641 0.735605 -0.278724
v -0.507641 -0.003517 -0.278724
v -0.278725 0.735605 -0.654986
v -0.278725 -0.003517 -0.654986
v -0.204842 0.677402 -0.507640
v -0.204842 -0.003517 -0.507640
v 0.792309 1.013376 -0.792310
v 0.792311 0.807839 -0.792310
v 0.654982 0.735606 -0.654981
v 0.654982 -0.003516 -0.654981
v 0.797394 -0.003517 -0.797391
v 0.914742 -1.007191 -0.914741
v 0.797394 -0.181049 -0.797391
v 0.914742 -0.784568 -0.914741
v 0.724390 -0.189242 -0.724389
v 0.764912 -0.630606 -0.764911
v 0.278725 0.735605 -0.654986
v 0.278725 -0.003517 -0.654986
v 0.204842 0.677402 -0.507640
v 0.204842 -0.003517 -0.507640
v 0.792313 1.013377 0.792312
v 0.792311 0.807839 0.792310
v 0.654982 0.735606 0.654981
v 0.654982 -0.003516 0.654981
v 0.797394 -0.003517 0.797393
v 0.914742 -1.007191 0.914741
v 0.797394 -0.181049 0.797393
v 0.914742 -0.784568 0.914741
v 0.724390 -0.189242 0.724389
v 0.764912 -0.630606 0.764911
v 0.278725 0.735605 0.654986
v 0.278725 -0.003517 0.654986
v 0.278725 0.735605 0.507640
v 0.278725 -0.003517 0.507640
v -0.278725 0.735605 0.654986
v -0.278725 -0.003517 0.654986
v -0.278725 0.735605 0.507640
v -0.278725 -0.003517 0.507640
v 0.654987 0.735605 -0.278724
v 0.654987 -0.003517 -0.278724
v 0.507641 0.735605 -0.278724
v 0.507641 -0.003517 -0.278724
v 0.654987 0.735605 0.278724
v 0.654987 -0.003517 0.278724
v 0.507641 0.735605 0.278724
v 0.507641 -0.003517 0.278724
vt 0.637285 0.174822
vt 0.637285 0.190988
vt 0.512658 0.190988
vt 0.512658 0.174822
vt 0.596893 0.161856
vt 0.626485 0.161856
vt 0.523458 0.161856
vt 0.553050 0.161856
vt 0.596893 0.103724
vt 0.626485 0.103724
vt 0.637685 0.093264
vt 0.553050 0.103724
vt 0.523458 0.103724
vt 0.512257 0.093264
vt 0.631944 0.073199
vt 0.637685 0.079301
vt 0.512257 0.079301
vt 0.517999 0.073199
vt 0.503028 0.008868
vt 0.646915 0.008868
vt 0.646915 0.026377
vt 0.503028 0.026377
vt 0.635131 0.038487
vt 0.514812 0.038487
vt 0.588490 0.111378
vt 0.588490 0.154200
vt 0.561453 0.154200
vt 0.561453 0.111378
vt 0.588490 0.154200
vt 0.561453 0.154200
vt 0.588490 0.111378
vt 0.561453 0.111378
vt 0.637285 0.174822
vt 0.637285 0.190988
vt 0.512658 0.190988
vt 0.512658 0.174822
vt 0.596893 0.161856
vt 0.626485 0.161856
vt 0.523458 0.161856
vt 0.553050 0.161856
vt 0.596893 0.103724
vt 0.626485 0.103724
vt 0.637685 0.093264
vt 0.553050 0.103724
vt 0.523458 0.103724
vt 0.512257 0.093264
vt 0.631944 0.073199
vt 0.637685 0.079301
vt 0.512257 0.079301
vt 0.517999 0.073199
vt 0.503028 0.008868
vt 0.646915 0.008868
vt 0.646915 0.026377
vt 0.503028 0.026377
vt 0.635131 0.038487
vt 0.514812 0.038487
vt 0.588490 0.111378
vt 0.588490 0.154200
vt 0.561453 0.154200
vt 0.561453 0.111378
vt 0.588490 0.154200
vt 0.561453 0.154200
vt 0.588490 0.111378
vt 0.561453 0.111378
vt 0.637285 0.174822
vt 0.637285 0.190988
vt 0.512658 0.190988
vt 0.512658 0.174822
vt 0.596893 0.161856
vt 0.626485 0.161856
vt 0.523458 0.161856
vt 0.553050 0.161856
vt 0.596893 0.103724
vt 0.626485 0.103724
vt 0.637685 0.093264
vt 0.553050 0.103724
vt 0.523458 0.103724
vt 0.512257 0.093264
vt 0.631944 0.073199
vt 0.637685 0.079301
vt 0.512257 0.079301
vt 0.517999 0.073199
vt 0.503028 0.008868
vt 0.646915 0.008868
vt 0.646915 0.026377
vt 0.503028 0.026377
vt 0.635131 0.038487
vt 0.514812 0.038487
vt 0.588490 0.111378
vt 0.588490 0.154200
vt 0.561453 0.154200
vt 0.561453 0.111378
vt 0.588490 0.154200
vt 0.561453 0.154200
vt 0.588490 0.111378
vt 0.561453 0.111378
vt 0.637285 0.174822
vt 0.637285 0.190988
vt 0.512658 0.190988
vt 0.512658 0.174822
vt 0.596893 0.161856
vt 0.626485 0.161856
vt 0.523458 0.161856
vt 0.553050 0.161856
vt 0.596893 0.103724
vt 0.626485 0.103724
vt 0.637685 0.093264
vt 0.553050 0.103724
vt 0.523458 0.103724
vt 0.512257 0.093264
vt 0.631944 0.073199
vt 0.637685 0.079301
vt 0.512257 0.079301
vt 0.517999 0.073199
vt 0.503028 0.008868
vt 0.646915 0.008868
vt 0.646915 0.026377
vt 0.503028 0.026377
vt 0.635131 0.038487
vt 0.514812 0.038487
vt 0.588490 0.111378
vt 0.588490 0.154200
vt 0.561453 0.154200
vt 0.561453 0.111378
vt 0.588490 0.154200
vt 0.561453 0.154200
vt 0.588490 0.111378
vt 0.561453 0.111378
vt 0.352972 0.008417
vt 0.494304 0.008417
vt 0.494303 0.149008
vt 0.352971 0.149008
vn -1.000000 0.000019 0.000001
vn -1.000000 0.000019 0.000001
vn -1.000000 0.000019 0.000001
vn -1.000000 0.000019 0.000001
vn -0.246509 -0.937270 0.246493
vn -0.121423 -0.923347 0.364261
vn -0.364261 -0.923347 -0.121424
vn -0.465535 -0.885029 0.000001
vn -0.465524 -0.885035 -0.000005
vn -0.246493 -0.937270 -0.246509
vn -1.000000 0.000000 0.000015
vn -1.000000 0.000000 0.000015
vn -1.000000 0.000000 0.000015
vn -1.000000 0.000000 0.000015
vn -0.000003 1.000000 0.000000
vn 0.000000 1.000000 0.000003
vn 0.000000 1.000000 0.000004
vn -0.000001 1.000000 -0.000000
vn -0.000005 1.000000 0.000001
vn -0.000004 1.000000 0.000000
vn -0.055938 -0.996866 -0.055939
vn -0.055938 -0.996866 0.055938
vn -0.055938 -0.996866 0.055938
vn -0.055938 -0.996866 -0.055939
vn -1.000000 0.000000 -0.000000
vn -1.000000 0.000000 -0.000000
vn -1.000000 0.000000 -0.000000
vn -1.000000 0.000000 -0.000000
vn -1.000000 0.000000 -0.000000
vn -1.000000 0.000000 -0.000000
vn -1.000000 0.000000 -0.000000
vn -1.000000 0.000000 -0.000000
vn -0.995812 0.091426 -0.000000
vn -0.995812 0.091426 -0.000000
vn -0.995812 0.091426 -0.000000
vn -0.995812 0.091426 -0.000000
vn -0.716659 0.697424 -0.000000
vn -0.716659 0.697424 -0.000000
vn -0.716659 0.697424 -0.000000
vn -0.716659 0.697424 -0.000000
vn -1.000000 0.000000 -0.000000
vn -1.000000 0.000000 -0.000000
vn -1.000000 0.000000 -0.000000
vn -1.000000 0.000000 -0.000000
vn -0.000000 -1.000000 -0.000000
vn -0.000000 -1.000000 -0.000000
vn -0.000000 -1.000000 -0.000000
vn -0.000000 -1.000000 -0.000000
vn 0.000000 0.000000 -1.000000
vn 0.000000 0.000000 -1.000000
vn 0.000000 0.000000 -1.000000
vn 0.000000 0.000000 -1.000000
vn -1.000000 0.000000 -0.000015
vn -1.000000 0.000000 -0.000015
vn -1.000000 0.000000 -0.000015
vn -1.000000 0.000000 -0.000015
vn 0.000000 1.000000 0.000000
vn 0.000000 1.000000 0.000000
vn 0.000000 1.000000 0.000000
vn 0.000000 1.000000 0.000000
vn -0.000000 -0.000000 1.000000
vn -0.000000 -0.000000 1.000000
vn -0.000000 -0.000000 1.000000
vn -0.000000 -0.000000 1.000000
vn 0.000000 0.000000 -1.000000
vn 0.000000 0.000000 -1.000000
vn 0.000000 0.000000 -1.000000
vn 0.000000 0.000000 -1.000000
vn 0.121423 -0.923347 -0.364261
vn -0.000001 -0.885029 -0.465535
vn 0.000005 -0.885035 -0.465524
vn 0.246509 -0.937270 -0.246493
vn -0.000015 0.000000 -1.000000
vn -0.000015 0.000000 -1.000000
vn -0.000015 0.000000 -1.000000
vn -0.000015 0.000000 -1.000000
vn -0.000000 1.000000 -0.000003
vn 0.000000 1.000000 -0.000001
vn -0.000001 1.000000 -0.000005
vn -0.000000 1.000000 -0.000004
vn 0.055938 -0.996866 -0.055939
vn 0.055938 -0.996866 -0.055939
vn 0.000000 0.000000 -1.000000
vn 0.000000 0.000000 -1.000000
vn 0.000000 0.000000 -1.000000
vn 0.000000 0.000000 -1.000000
vn 0.000000 0.000000 -1.000000
vn 0.000000 0.000000 -1.000000
vn 0.000000 0.000000 -1.000000
vn 0.000000 0.000000 -1.000000
vn 0.000000 0.091426 -0.995812
vn 0.000000 0.091426 -0.995812
vn 0.000000 0.091426 -0.995812
vn 0.000000 0.091426 -0.995812
vn 0.000000 0.697424 -0.716659
vn 0.000000 0.697424 -0.716659
vn 0.000000 0.697424 -0.716659
vn 0.000000 0.697424 -0.716659
vn 0.000000 0.000000 -1.000000
vn 0.000000 0.000000 -1.000000
vn 0.000000 0.000000 -1.000000
vn 0.000000 0.000000 -1.000000
vn -0.000000 -0.930069 -0.367386
vn -0.000000 -0.930069 -0.367386
vn -0.000000 -0.930069 -0.367386
vn -0.000000 -0.930069 -0.367386
vn 0.893917 -0.000000 -0.448232
vn 0.893917 -0.000000 -0.448232
vn 0.893917 -0.000000 -0.448232
vn 0.893917 -0.000000 -0.448232
vn 0.000015 -0.000000 -1.000000
vn 0.000015 -0.000000 -1.000000
vn 0.000015 -0.000000 -1.000000
vn 0.000015 -0.000000 -1.000000
vn 0.000000 1.000000 0.000000
vn 0.000000 1.000000 0.000000
vn 0.000000 1.000000 0.000000
vn 0.000000 1.000000 0.000000
vn -0.893918 0.000000 -0.448232
vn -0.893918 0.000000 -0.448232
vn -0.893918 0.000000 -0.448232
vn -0.893918 0.000000 -0.448232
vn -0.000000 -0.000009 1.000000
vn -0.000000 -0.000009 1.000000
vn -0.000000 -0.000009 1.000000
vn -0.000000 -0.000009 1.000000
vn 0.246493 -0.937270 0.246509
vn 0.364261 -0.923347 0.121424
vn 0.000001 -0.885029 0.465535
vn -0.000005 -0.885035 0.465524
vn 0.000015 -0.000000 1.000000
vn 0.000015 -0.000000 1.000000
vn 0.000015 -0.000000 1.000000
vn 0.000015 -0.000000 1.000000
vn 0.000003 1.000000 -0.000000
vn 0.000004 1.000000 -0.000000
vn -0.000000 1.000000 0.000001
vn 0.000001 1.000000 0.000005
vn 0.055938 -0.996866 0.055938
vn 0.055938 -0.996866 0.055938
vn -0.000000 -0.000000 1.000000
vn -0.000000 -0.000000 1.000000
vn -0.000000 -0.000000 1.000000
vn -0.000000 -0.000000 1.000000
vn -0.000000 -0.000000 1.000000
vn -0.000000 -0.000000 1.000000
vn -0.000000 -0.000000 1.000000
vn -0.000000 -0.000000 1.000000
vn 0.000000 0.091426 0.995812
vn 0.000000 0.091426 0.995812
vn 0.000000 0.091426 0.995812
vn 0.000000 0.091426 0.995812
vn 0.000000 0.697424 0.716659
vn 0.000000 0.697424 0.716659
vn 0.000000 0.697424 0.716659
vn 0.000000 0.697424 0.716659
vn -0.000000 -0.000000 1.000000
vn -0.000000 -0.000000 1.000000
vn -0.000000 -0.000000 1.000000
vn -0.000000 -0.000000 1.000000
vn -0.000000 -1.000000 -0.000000
vn -0.000000 -1.000000 -0.000000
vn -0.000000 -1.000000 -0.000000
vn -0.000000 -1.000000 -0.000000
vn -1.000000 0.000000 -0.000000
vn -1.000000 0.000000 -0.000000
vn -1.000000 0.000000 -0.000000
vn -1.000000 0.000000 -0.000000
vn -0.000015 0.000000 1.000000
vn -0.000015 0.000000 1.000000
vn -0.000015 0.000000 1.000000
vn -0.000015 0.000000 1.000000
vn 0.000000 1.000000 0.000000
vn 0.000000 1.000000 0.000000
vn 0.000000 1.000000 0.000000
vn 0.000000 1.000000 0.000000
vn 1.000000 -0.000000 0.000000
vn 1.000000 -0.000000 0.000000
vn 1.000000 -0.000000 0.000000
vn 1.000000 -0.000000 0.000000
vn 1.000000 -0.000000 -0.000001
vn 1.000000 -0.000000 -0.000001
vn 1.000000 -0.000000 -0.000001
vn 1.000000 -0.000000 -0.000001
vn 0.465535 -0.885029 -0.000001
vn 0.465524 -0.885035 0.000005
vn 1.000000 -0.000000 -0.000015
vn 1.000000 -0.000000 -0.000015
vn 1.000000 -0.000000 -0.000015
vn 1.000000 -0.000000 -0.000015
vn 0.000001 1.000000 0.000000
vn 0.000005 1.000000 -0.000001
vn 1.000000 -0.000000 0.000000
vn 1.000000 -0.000000 0.000000
vn 1.000000 -0.000000 0.000000
vn 1.000000 -0.000000 0.000000
vn 1.000000 -0.000000 0.000000
vn 1.000000 -0.000000 0.000000
vn 1.000000 -0.000000 0.000000
vn 1.000000 -0.000000 0.000000
vn 0.995812 0.091426 0.000000
vn 0.995812 0.091426 0.000000
vn 0.995812 0.091426 0.000000
vn 0.995812 0.091426 0.000000
vn 0.716659 0.697424 0.000000
vn 0.716659 0.697424 0.000000
vn 0.716659 0.697424 0.000000
vn 0.716659 0.697424 0.000000
vn 1.000000 -0.000000 0.000000
vn 1.000000 -0.000000 0.000000
vn 1.000000 -0.000000 0.000000
vn 1.000000 -0.000000 0.000000
vn -0.000000 -1.000000 -0.000000
vn -0.000000 -1.000000 -0.000000
vn -0.000000 -1.000000 -0.000000
vn -0.000000 -1.000000 -0.000000
vn -0.000000 -0.000000 1.000000
vn -0.000000 -0.000000 1.000000
vn -0.000000 -0.000000 1.000000
vn -0.000000 -0.000000 1.000000
vn 1.000000 -0.000000 0.000015
vn 1.000000 -0.000000 0.000015
vn 1.000000 -0.000000 0.000015
vn 1.000000 -0.000000 0.000015
vn 0.000000 1.000000 0.000000
vn 0.000000 1.000000 0.000000
vn 0.000000 1.000000 0.000000
vn 0.000000 1.000000 0.000000
vn 0.000000 0.000000 -1.000000
vn 0.000000 0.000000 -1.000000
vn 0.000000 0.000000 -1.000000
vn 0.000000 0.000000 -1.000000
vn 0.000000 1.000000 -0.000000
vn 0.000000 1.000000 -0.000000
vn 0.000000 1.000000 -0.000000
vn 0.000000 1.000000 -0.000000
s off
f 16/4/1 2/1/2 1/2/3 15/3/4
s 1
f 3/6/5 2/1/6 16/4/7 11/5/8
f 11/5/8 16/4/7 25/8/9
f 16/4/7 17/7/10 25/8/9
s off
f 4/10/11 3/6/12 11/5/13 12/9/14
s 2
f 19/14/15 5/11/16 4/10/17 12/9/18
f 12/9/18 26/12/19 19/14/15
f 26/12/19 18/13/20 19/14/15
s 3
f 23/18/21 9/15/22 7/16/23 21/17/24
s off
f 21/17/25 7/16/26 5/11/27 19/14/28
f 22/22/29 20/19/30 6/20/31 8/21/32
f 24/24/33 10/23/34 9/15/35 23/18/36
f 22/22/37 8/21/38 10/23/39 24/24/40
f 28/28/41 14/25/42 13/26/43 27/27/44
f 27/30/45 13/29/46 11/5/47 25/8/48
f 14/31/49 12/9/50 11/5/51 13/29/52
f 25/8/53 17/7/54 18/13/55 26/12/56
f 12/9/57 14/31/58 28/32/59 26/12/60
f 25/8/61 26/12/62 28/32/63 27/30/64
f 34/36/65 16/33/66 15/34/67 33/35/68
s 1
f 17/38/10 16/33/7 34/36/69 29/37/70
f 29/37/70 34/36/69 43/40/71
f 34/36/69 35/39/72 43/40/71
s off
f 18/42/73 17/38/74 29/37/75 30/41/76
s 2
f 37/46/77 19/43/15 18/42/20 30/41/78
f 30/41/78 44/44/79 37/46/77
f 44/44/79 36/45/80 37/46/77
s 3
f 41/50/81 23/47/21 21/48/24 39/49/82
s off
f 39/49/83 21/48/84 19/43/85 37/46/86
f 40/54/87 38/51/88 20/52/89 22/53/90
f 42/56/91 24/55/92 23/47/93 41/50/94
f 40/54/95 22/53/96 24/55/97 42/56/98
f 46/60/99 32/57/100 31/58/101 45/59/102
f 45/62/103 31/61/104 29/37/105 43/40/106
f 32/63/107 30/41/108 29/37/109 31/61/110
f 43/40/111 35/39/112 36/45/113 44/44/114
f 30/41/115 32/63/116 46/64/117 44/44/118
f 43/40/119 44/44/120 46/64/121 45/62/122
f 2/68/123 48/65/124 47/66/125 1/67/126
s 1
f 49/70/127 48/65/128 2/68/6 57/69/129
f 57/69/129 2/68/6 61/72/130
f 2/68/6 3/71/5 61/72/130
s off
f 50/74/131 49/70/132 57/69/133 58/73/134
s 2
f 5/78/16 51/75/135 50/74/136 58/73/137
f 58/73/137 62/76/138 5/78/16
f 62/76/138 4/77/17 5/78/16
s 3
f 9/82/22 55/79/139 53/80/140 7/81/23
s off
f 7/81/141 53/80/142 51/75/143 5/78/144
f 8/86/145 6/83/146 52/84/147 54/85/148
f 10/88/149 56/87/150 55/79/151 9/82/152
f 8/86/153 54/85/154 56/87/155 10/88/156
f 64/92/157 60/89/158 59/90/159 63/91/160
f 63/94/161 59/93/162 57/69/163 61/72/164
f 60/95/165 58/73/166 57/69/167 59/93/168
f 61/72/169 3/71/170 4/77/171 62/76/172
f 58/73/173 60/95/174 64/96/175 62/76/176
f 61/72/177 62/76/178 64/96/179 63/94/180
f 48/100/181 34/97/182 33/98/183 47/99/184
s 1
f 35/102/72 34/97/69 48/100/128 65/101/185
f 65/101/185 48/100/128 69/104/186
f 48/100/128 49/103/127 69/104/186
s off
f 36/106/187 35/102/188 65/101/189 66/105/190
s 2
f 51/110/135 37/107/77 36/106/80 66/105/191
f 66/105/191 70/108/192 51/110/135
f 70/108/192 50/109/136 51/110/135
s 3
f 55/114/139 41/111/81 39/112/82 53/113/140
s off
f 53/113/193 39/112/194 37/107/195 51/110/196
f 54/118/197 52/115/198 38/116/199 40/117/200
f 56/120/201 42/119/202 41/111/203 55/114/204
f 54/118/205 40/117/206 42/119/207 56/120/208
f 72/124/209 68/121/210 67/122/211 71/123/212
f 71/126/213 67/125/214 65/101/215 69/104/216
f 68/127/217 66/105/218 65/101/219 67/125/220
f 69/104/221 49/103/222 50/109/223 70/108/224
f 66/105/225 68/127/226 72/128/227 70/108/228
f 69/104/229 70/108/230 72/128/231 71/126/232
f 33/129/233 15/130/234 1/131/235 47/132/236
