# This file uses centimeters as units for non-parametric coordinates.

v -0.481483 1.002304 -0.481483
v -0.481483 0.798390 -0.481483
v -0.352253 0.720282 -0.352255
v -0.352253 -0.007498 -0.352255
v -0.486883 -0.006558 -0.486883
v -0.611546 -1.002304 -0.611544
v -0.486883 -0.182688 -0.486883
v -0.611544 -0.781439 -0.611544
v -0.409328 -0.190816 -0.409330
v -0.452377 -0.628694 -0.452379
v -0.480412 1.002304 0.482552
v 0.481483 1.002304 -0.481483
v 0.481483 0.798390 -0.481483
v 0.352253 0.720282 -0.352255
v 0.352253 -0.007498 -0.352255
v 0.486883 -0.006558 -0.486883
v 0.611546 -1.002304 -0.611544
v 0.486883 -0.182688 -0.486883
v 0.611544 -0.781439 -0.611544
v 0.409328 -0.190816 -0.409330
v 0.452377 -0.628694 -0.452379
v 0.480413 1.002304 0.482552
v -0.481483 0.798390 0.481483
v -0.352253 0.720282 0.352254
v -0.352253 -0.007498 0.352254
v -0.486883 -0.006558 0.486883
v -0.611546 -1.002304 0.611545
v -0.486883 -0.182688 0.486883
v -0.611544 -0.781439 0.611544
v -0.409328 -0.190816 0.409329
v -0.452377 -0.628694 0.452378
v 0.481483 0.798390 0.481483
v 0.352253 0.720282 0.352254
v 0.352253 -0.007498 0.352254
v 0.486883 -0.006558 0.486883
v 0.611546 -1.002304 0.611545
v 0.486883 -0.182688 0.486883
v 0.611544 -0.781439 0.611544
v 0.409328 -0.190816 0.409329
v 0.452377 -0.628694 0.452378
vt 0.782791 0.039251
vt 0.848849 0.039251
vt 0.848849 0.101397
vt 0.782791 0.101397
vt 0.875817 0.025807
vt 0.876048 0.114247
vt 0.876048 0.025916
vt 0.875817 0.114399
vt 0.688987 0.014601
vt 0.709133 0.029666
vt 0.709133 0.110982
vt 0.688987 0.126047
vt 0.748876 0.033741
vt 0.748876 0.106906
vt 0.755896 0.026400
vt 0.755896 0.114247
vt 0.771883 0.026400
vt 0.771883 0.114247
vt 0.859080 0.025807
vt 0.859080 0.114399
vt 0.668939 0.126047
vt 0.668939 0.014601
vt 0.782791 0.039251
vt 0.848849 0.039251
vt 0.848849 0.101397
vt 0.782791 0.101397
vt 0.688987 0.014601
vt 0.709133 0.029666
vt 0.709133 0.110982
vt 0.688987 0.126047
vt 0.748876 0.033741
vt 0.748876 0.106906
vt 0.755896 0.026400
vt 0.755896 0.114247
vt 0.771883 0.026400
vt 0.771883 0.114247
vt 0.859080 0.025807
vt 0.964757 0.025916
vt 0.964757 0.114247
vt 0.859080 0.114399
vt 0.668939 0.126047
vt 0.668939 0.014601
vt 0.782791 0.039251
vt 0.848849 0.039251
vt 0.848849 0.101397
vt 0.782791 0.101397
vt 0.688987 0.014601
vt 0.709133 0.029666
vt 0.709133 0.110982
vt 0.688987 0.126047
vt 0.748876 0.033741
vt 0.748876 0.106906
vt 0.755896 0.026400
vt 0.755896 0.114247
vt 0.771883 0.026400
vt 0.771883 0.114247
vt 0.859080 0.025807
vt 0.964757 0.008453
vt 0.876048 0.008453
vt 0.859080 0.114399
vt 0.668939 0.126047
vt 0.668939 0.014601
vt 0.782791 0.039251
vt 0.848849 0.039251
vt 0.848849 0.101397
vt 0.782791 0.101397
vt 0.688987 0.014601
vt 0.709133 0.029666
vt 0.709133 0.110982
vt 0.688987 0.126047
vt 0.748876 0.033741
vt 0.748876 0.106906
vt 0.755896 0.026400
vt 0.755896 0.114247
vt 0.771883 0.026400
vt 0.771883 0.114247
vt 0.859080 0.025807
vt 0.983163 0.114247
vt 0.876048 0.131990
vt 0.859080 0.114399
vt 0.668939 0.126047
vt 0.668939 0.014601
vt 0.964757 0.131990
vt 0.983163 0.025916
vn 0.000000 0.000000 -1.000000
vn 0.000000 0.000000 -1.000000
vn 0.000000 0.000000 -1.000000
vn 0.000000 0.000000 -1.000000
vn 0.000000 0.721505 -0.692409
vn 0.000000 0.721505 -0.692409
vn 0.000000 0.721505 -0.692409
vn 0.000000 0.721505 -0.692409
vn 0.000000 0.097841 -0.995202
vn 0.000000 0.097841 -0.995202
vn 0.000000 0.097841 -0.995202
vn 0.000000 0.097841 -0.995202
vn -0.052259 -0.997265 -0.052261
vn -0.052259 -0.997265 -0.052261
vn 0.052259 -0.997265 -0.052261
vn 0.052259 -0.997265 -0.052261
vn 0.000000 0.000000 -1.000000
vn 0.000000 0.000000 -1.000000
vn 0.000000 0.000000 -1.000000
vn 0.000000 0.000000 -1.000000
vn 0.003490 0.999988 0.003490
vn 0.003490 0.999988 0.003490
vn -0.003490 0.999988 0.003490
vn -0.003490 0.999988 0.003490
vn 0.000000 0.000000 -1.000000
vn 0.000000 0.000000 -1.000000
vn 0.000000 0.000000 -1.000000
vn 0.000000 0.000000 -1.000000
vn 0.000000 0.000000 -1.000000
vn 0.000000 0.000000 -1.000000
vn 0.000000 0.000000 -1.000000
vn 0.000000 0.000000 -1.000000
vn -0.277889 -0.919540 -0.277892
vn 0.277889 -0.919540 -0.277892
vn 0.277889 -0.919540 -0.277892
vn -0.277889 -0.919540 -0.277892
vn 0.000000 1.000000 0.000000
vn 0.000000 1.000000 0.000000
vn 0.000000 1.000000 0.000000
vn 0.000000 1.000000 0.000000
vn -1.000000 0.000000 -0.000000
vn -1.000000 0.000000 -0.000000
vn -1.000000 0.000000 -0.000000
vn -1.000000 0.000000 -0.000000
vn -0.692404 0.721510 -0.000000
vn -0.692404 0.721510 -0.000000
vn -0.692404 0.721510 -0.000000
vn -0.692404 0.721510 -0.000000
vn -0.995202 0.097841 -0.000000
vn -0.995202 0.097841 -0.000000
vn -0.995202 0.097841 -0.000000
vn -0.995202 0.097841 -0.000000
vn -0.052259 -0.997265 0.052260
vn -0.052259 -0.997265 0.052260
vn -1.000000 0.000000 -0.000000
vn -1.000000 0.000000 -0.000000
vn -1.000000 0.000000 -0.000000
vn -1.000000 0.000000 -0.000000
vn 0.003490 0.999988 -0.003490
vn 0.003490 0.999988 -0.003490
vn -0.999996 0.002627 0.000556
vn -0.999996 0.002627 0.000556
vn -0.999996 0.002627 0.000556
vn -0.999996 0.002627 0.000556
vn -1.000000 0.000009 -0.000000
vn -1.000000 0.000009 -0.000000
vn -1.000000 0.000009 -0.000000
vn -1.000000 0.000009 -0.000000
vn -0.277889 -0.919541 0.277890
vn -0.277889 -0.919541 0.277890
vn -0.000000 -0.000000 1.000000
vn -0.000000 -0.000000 1.000000
vn -0.000000 -0.000000 1.000000
vn -0.000000 -0.000000 1.000000
vn 0.000000 0.721507 0.692407
vn 0.000000 0.721507 0.692407
vn 0.000000 0.721507 0.692407
vn 0.000000 0.721507 0.692407
vn 0.000000 0.097841 0.995202
vn 0.000000 0.097841 0.995202
vn 0.000000 0.097841 0.995202
vn 0.000000 0.097841 0.995202
vn 0.052259 -0.997265 0.052260
vn 0.052259 -0.997265 0.052260
vn -0.000000 -0.000000 1.000000
vn -0.000000 -0.000000 1.000000
vn -0.000000 -0.000000 1.000000
vn -0.000000 -0.000000 1.000000
vn -0.003490 0.999988 -0.003490
vn -0.003490 0.999988 -0.003490
vn -0.000000 -0.005238 0.999986
vn -0.000000 -0.005238 0.999986
vn -0.000000 -0.005238 0.999986
vn -0.000000 -0.005238 0.999986
vn -0.000000 0.000004 1.000000
vn -0.000000 0.000004 1.000000
vn -0.000000 0.000004 1.000000
vn -0.000000 0.000004 1.000000
vn 0.277889 -0.919541 0.277890
vn 0.277889 -0.919541 0.277890
vn 1.000000 -0.000000 0.000000
vn 1.000000 -0.000000 0.000000
vn 1.000000 -0.000000 0.000000
vn 1.000000 -0.000000 0.000000
vn 0.692405 0.721510 0.000000
vn 0.692405 0.721510 0.000000
vn 0.692405 0.721510 0.000000
vn 0.692405 0.721510 0.000000
vn 0.995202 0.097841 0.000000
vn 0.995202 0.097841 0.000000
vn 0.995202 0.097841 0.000000
vn 0.995202 0.097841 0.000000
vn 1.000000 -0.000000 0.000000
vn 1.000000 -0.000000 0.000000
vn 1.000000 -0.000000 0.000000
vn 1.000000 -0.000000 0.000000
vn 0.999996 0.002622 0.000555
vn 0.999996 0.002622 0.000555
vn 0.999996 0.002622 0.000555
vn 0.999996 0.002622 0.000555
vn 1.000000 0.000009 0.000000
vn 1.000000 0.000009 0.000000
vn 1.000000 0.000009 0.000000
vn 1.000000 0.000009 0.000000
s off
f 4/1/1 3/2/2 14/3/3 15/4/4
f 8/9/5 10/10/6 21/11/7 19/12/8
f 10/10/9 9/13/10 20/14/11 21/11/12
s 1
f 9/13/13 7/15/14 18/16/15 20/14/16
s off
f 7/15/17 5/17/18 16/18/19 18/16/20
s 2
f 5/17/21 4/1/22 15/4/23 16/18/24
s off
f 2/19/25 1/5/26 12/8/27 13/20/28
f 8/9/29 19/12/30 17/21/31 6/22/32
s 3
f 2/19/33 13/20/34 14/3/35 3/2/36
s off
f 12/6/37 1/7/38 11/38/39 22/39/40
f 25/23/41 24/24/42 3/25/43 4/26/44
f 29/27/45 31/28/46 10/29/47 8/30/48
f 31/28/49 30/31/50 9/32/51 10/29/52
s 1
f 30/31/53 28/33/54 7/34/14 9/32/13
s off
f 28/33/55 26/35/56 5/36/57 7/34/58
s 2
f 26/35/59 25/23/60 4/26/22 5/36/21
s off
f 23/58/61 11/38/62 1/7/63 2/59/64
f 29/27/65 8/30/66 6/41/67 27/42/68
s 3
f 23/37/69 2/40/33 3/25/36 24/24/70
s off
f 34/43/71 33/44/72 24/45/73 25/46/74
f 38/47/75 40/48/76 31/49/77 29/50/78
f 40/48/79 39/51/80 30/52/81 31/49/82
s 1
f 39/51/83 37/53/84 28/54/54 30/52/53
s off
f 37/53/85 35/55/86 26/56/87 28/54/88
s 2
f 35/55/89 34/43/90 25/46/60 26/56/59
s off
f 32/78/91 22/39/92 11/38/93 23/84/94
f 38/47/95 29/50/96 27/61/97 36/62/98
s 3
f 32/57/99 23/60/69 24/45/70 33/44/100
s off
f 15/63/101 14/64/102 33/65/103 34/66/104
f 19/67/105 21/68/106 40/69/107 38/70/108
f 21/68/109 20/71/110 39/72/111 40/69/112
s 1
f 20/71/16 18/73/15 37/74/84 39/72/83
s off
f 18/73/113 16/75/114 35/76/115 37/74/116
s 2
f 16/75/24 15/63/23 34/66/90 35/76/89
s off
f 13/79/117 12/6/118 22/39/119 32/83/120
f 19/67/121 38/70/122 36/81/123 17/82/124
s 3
f 13/77/34 32/80/99 33/65/100 14/64/35
