# This file uses centimeters as units for non-parametric coordinates.

v 0.212549 1.091488 -0.212551
v 0.271526 1.425025 -0.271534
v -0.271526 1.425025 0.271534
v -0.271526 1.425025 -0.271538
v -0.212549 1.091488 0.212551
v -0.212543 1.091488 -0.212551
v 0.112883 1.425025 -0.112875
v -0.112883 1.425025 -0.112877
v -0.112883 1.425025 0.112875
v 0.055086 1.616388 0.055080
v 0.055086 1.616388 -0.055080
v -0.055086 1.616388 -0.055080
v -0.055086 1.616388 0.055080
v -0.149660 1.091488 0.149660
v -0.149658 1.091488 -0.149666
v 0.149660 1.091488 -0.149660
v -0.174479 0.445947 0.174482
v -0.174477 0.445947 -0.174484
v 0.174479 0.445947 -0.174482
v -0.286983 0.357905 0.286978
v -0.286983 0.357905 -0.286980
v 0.286983 0.357905 -0.286978
v -0.256580 -0.131854 0.256577
v -0.256584 -0.131854 -0.256580
v 0.256580 -0.131854 -0.256577
v -0.065859 0.799809 0.065865
v -0.065857 0.799809 -0.065868
v 0.065859 0.799809 -0.065865
v -0.202499 -0.145622 0.202499
v -0.202511 -0.145622 -0.202507
v 0.202499 -0.145622 -0.202499
v -0.189430 -0.411146 0.189432
v -0.189444 -0.411146 -0.189442
v 0.189430 -0.411146 -0.189432
v -0.257677 -0.425946 0.257669
v -0.257696 -0.425946 -0.257679
v 0.257677 -0.425946 -0.257669
v -0.190954 -0.985902 0.190958
v -0.190971 -0.985902 -0.190968
v 0.190954 -0.985902 -0.190958
v -0.125950 -1.077234 0.125946
v -0.125969 -1.077234 -0.125954
v 0.125950 -1.077234 -0.125946
v 0.125950 -1.077234 0.125946
v 0.271526 1.425025 0.271538
v 0.212543 1.091488 0.212551
v 0.112883 1.425025 0.112877
v 0.149658 1.091488 0.149666
v 0.174477 0.445947 0.174484
v 0.286983 0.357905 0.286980
v 0.256584 -0.131854 0.256580
v 0.065857 0.799809 0.065868
v 0.202511 -0.145622 0.202507
v 0.189444 -0.411146 0.189442
v 0.257696 -0.425946 0.257679
v 0.190971 -0.985902 0.190968
v -0.125343 0.693137 0.125347
v -0.125343 0.693137 -0.125343
v 0.125343 0.693137 -0.125343
v -0.125343 0.902866 0.125347
v -0.125343 0.902866 -0.125343
v 0.125343 0.902866 -0.125343
v 0.125343 0.902866 0.125347
v 0.125343 0.693137 0.125347
vt 0.966302 0.441982
vt 0.931593 0.441982
vt 0.931593 0.414198
vt 0.966302 0.414198
vt 0.896501 0.441982
vt 0.896501 0.414198
vt 0.931593 0.454514
vt 0.911679 0.454514
vt 0.951137 0.454514
vt 0.931593 0.474547
vt 0.920880 0.474547
vt 0.943248 0.474547
vt 0.931593 0.407009
vt 0.956366 0.407009
vt 0.906699 0.407009
vt 0.942631 0.388242
vt 0.931573 0.387918
vt 0.931573 0.360255
vt 0.958028 0.360255
vt 0.920515 0.388219
vt 0.905125 0.360255
vt 0.931573 0.349589
vt 0.968235 0.349589
vt 0.894913 0.349589
vt 0.931573 0.311933
vt 0.968235 0.311933
vt 0.894913 0.311933
vt 0.931573 0.192406
vt 0.931573 0.229597
vt 0.894913 0.229597
vt 0.894913 0.192406
vt 0.931573 0.307287
vt 0.968235 0.307287
vt 0.894913 0.307287
vt 0.931573 0.282557
vt 0.968235 0.282741
vt 0.894913 0.282713
vt 0.931573 0.276907
vt 0.968235 0.276907
vt 0.894913 0.276907
vt 0.931573 0.237678
vt 0.968235 0.237678
vt 0.894913 0.237678
vt 0.968235 0.229597
vt 0.943248 0.483850
vt 0.931593 0.483850
vt 0.966302 0.441982
vt 0.931593 0.441982
vt 0.931593 0.414198
vt 0.966302 0.414198
vt 0.896501 0.441982
vt 0.896501 0.414198
vt 0.931593 0.454514
vt 0.911679 0.454514
vt 0.951137 0.454514
vt 0.931593 0.474547
vt 0.920880 0.474547
vt 0.943248 0.474547
vt 0.931593 0.407009
vt 0.956366 0.407009
vt 0.906699 0.407009
vt 0.942631 0.388242
vt 0.931573 0.387918
vt 0.931573 0.360255
vt 0.958028 0.360255
vt 0.920515 0.388219
vt 0.905125 0.360255
vt 0.931573 0.349589
vt 0.968235 0.349589
vt 0.894913 0.349589
vt 0.931573 0.311933
vt 0.968235 0.311933
vt 0.894913 0.311933
vt 0.931573 0.307287
vt 0.968235 0.307287
vt 0.894913 0.307287
vt 0.931573 0.282557
vt 0.968235 0.282741
vt 0.894913 0.282713
vt 0.931573 0.276907
vt 0.968235 0.276907
vt 0.894913 0.276907
vt 0.931573 0.237678
vt 0.968235 0.237678
vt 0.894913 0.237678
vt 0.931573 0.229597
vt 0.968235 0.229597
vt 0.894913 0.229597
vt 0.961589 0.222783
vt 0.961589 0.202353
vt 0.979061 0.202353
vt 0.979061 0.222783
vt 0.941009 0.202353
vt 0.941009 0.184626
vt 0.961589 0.184626
vt 0.941009 0.222783
vt 0.961589 0.222783
vt 0.961589 0.202353
vt 0.979061 0.202353
vt 0.979061 0.222783
vt 0.941009 0.202353
vt 0.941009 0.184626
vt 0.961589 0.184626
vt 0.902992 0.203752
vt 0.923612 0.203752
vt 0.923612 0.224430
vt 0.902992 0.224430
vn -0.984723 -0.174131 -0.000006
vn -0.984723 -0.174131 -0.000006
vn -0.984723 -0.174131 -0.000006
vn -0.984723 -0.174131 -0.000006
vn 0.000004 -0.174144 -0.984720
vn 0.000004 -0.174144 -0.984720
vn 0.000004 -0.174144 -0.984720
vn 0.000004 -0.174144 -0.984720
vn 0.000000 1.000000 -0.000000
vn 0.000000 1.000000 -0.000000
vn 0.000000 1.000000 -0.000000
vn 0.000000 1.000000 -0.000000
vn 0.000000 1.000000 0.000000
vn 0.000000 1.000000 0.000000
vn 0.000005 0.289121 -0.957293
vn 0.000005 0.289121 -0.957293
vn 0.000005 0.289121 -0.957293
vn 0.000005 0.289121 -0.957293
vn -0.957291 0.289126 -0.000000
vn -0.957291 0.289126 -0.000000
vn -0.957291 0.289126 -0.000000
vn -0.957291 0.289126 -0.000000
vn -0.000000 -1.000000 0.000001
vn -0.000000 -1.000000 -0.000001
vn -0.000000 -1.000000 -0.000001
vn -0.000000 -1.000000 0.000001
vn -0.000000 -1.000000 -0.000001
vn -0.000000 -1.000000 -0.000001
vn -0.955977 0.293442 -0.000008
vn -0.955977 0.293442 -0.000008
vn -0.955977 0.293442 -0.000008
vn -0.955977 0.293442 -0.000008
vn 0.000017 0.009031 -0.999959
vn 0.000017 0.009031 -0.999959
vn 0.000011 0.293435 -0.955979
vn 0.000011 0.293435 -0.955979
vn -0.342360 0.874967 0.342377
vn -0.342357 0.874968 -0.342379
vn -0.342357 0.874968 -0.342379
vn -0.342360 0.874967 0.342377
vn 0.342360 0.874967 -0.342377
vn 0.342360 0.874967 -0.342377
vn -0.998079 -0.061955 0.000004
vn -0.998079 -0.061955 0.000004
vn -0.998079 -0.061955 0.000004
vn -0.998079 -0.061955 0.000004
vn 0.000005 -0.061953 -0.998079
vn 0.000005 -0.061953 -0.998079
vn 0.000005 -0.061953 -0.998079
vn 0.000005 -0.061953 -0.998079
vn -0.961119 -0.276135 -0.000008
vn -0.961119 -0.276135 -0.000008
vn -0.961119 -0.276135 -0.000008
vn -0.961119 -0.276135 -0.000008
vn 0.000021 -0.276120 -0.961123
vn 0.000021 -0.276120 -0.961123
vn -0.000000 -1.000000 0.000000
vn -0.000000 -1.000000 0.000000
vn -0.000000 -1.000000 0.000000
vn -0.000000 -1.000000 0.000000
vn -0.125285 -0.984178 0.125289
vn -0.125282 -0.984179 -0.125285
vn -0.125282 -0.984179 -0.125285
vn -0.125285 -0.984178 0.125289
vn 0.125285 -0.984178 -0.125289
vn 0.125285 -0.984178 -0.125289
vn -0.998791 -0.049157 0.000032
vn -0.998791 -0.049157 0.000032
vn -0.998791 -0.049157 0.000032
vn -0.998791 -0.049157 0.000032
vn 0.000022 -0.049150 -0.998791
vn 0.000022 -0.049150 -0.998791
vn 0.000022 -0.049150 -0.998791
vn 0.000022 -0.049150 -0.998791
vn -0.107176 0.988444 0.107196
vn -0.107171 0.988446 -0.107188
vn -0.107171 0.988446 -0.107188
vn -0.107176 0.988444 0.107196
vn 0.107176 0.988444 -0.107196
vn 0.107176 0.988444 -0.107196
vn -0.992975 -0.118322 0.000040
vn -0.992975 -0.118322 0.000040
vn -0.992975 -0.118322 0.000040
vn -0.992975 -0.118322 0.000040
vn 0.000021 -0.118300 -0.992978
vn 0.000021 -0.118300 -0.992978
vn 0.000021 -0.118300 -0.992978
vn 0.000021 -0.118300 -0.992978
vn -0.814717 -0.579859 0.000047
vn -0.814717 -0.579859 0.000047
vn -0.814717 -0.579859 0.000047
vn -0.814717 -0.579859 0.000047
vn 0.000022 -0.579915 -0.814677
vn 0.000022 -0.579915 -0.814677
vn 0.000022 -0.579915 -0.814677
vn 0.000022 -0.579915 -0.814677
vn 0.000000 1.000000 0.000000
vn 0.000000 1.000000 0.000000
vn 0.000000 1.000000 0.000000
vn 0.000000 1.000000 0.000000
vn 0.984723 -0.174131 0.000006
vn 0.984723 -0.174131 0.000006
vn 0.984723 -0.174131 0.000006
vn 0.984723 -0.174131 0.000006
vn -0.000004 -0.174144 0.984720
vn -0.000004 -0.174144 0.984720
vn -0.000004 -0.174144 0.984720
vn -0.000004 -0.174144 0.984720
vn 0.000000 1.000000 0.000000
vn 0.000000 1.000000 0.000000
vn -0.000005 0.289121 0.957293
vn -0.000005 0.289121 0.957293
vn -0.000005 0.289121 0.957293
vn -0.000005 0.289121 0.957293
vn 0.957291 0.289126 0.000000
vn 0.957291 0.289126 0.000000
vn 0.957291 0.289126 0.000000
vn 0.957291 0.289126 0.000000
vn -0.000000 -1.000000 0.000001
vn -0.000000 -1.000000 0.000001
vn 0.955977 0.293442 0.000008
vn 0.955977 0.293442 0.000008
vn 0.955977 0.293442 0.000008
vn 0.955977 0.293442 0.000008
vn -0.000017 0.009031 0.999959
vn -0.000017 0.009031 0.999959
vn -0.000011 0.293435 0.955979
vn -0.000011 0.293435 0.955979
vn 0.342357 0.874968 0.342379
vn 0.342357 0.874968 0.342379
vn 0.998079 -0.061955 -0.000004
vn 0.998079 -0.061955 -0.000004
vn 0.998079 -0.061955 -0.000004
vn 0.998079 -0.061955 -0.000004
vn -0.000005 -0.061953 0.998079
vn -0.000005 -0.061953 0.998079
vn -0.000005 -0.061953 0.998079
vn -0.000005 -0.061953 0.998079
vn 0.961119 -0.276135 0.000008
vn 0.961119 -0.276135 0.000008
vn 0.961119 -0.276135 0.000008
vn 0.961119 -0.276135 0.000008
vn -0.000021 -0.276120 0.961123
vn -0.000021 -0.276120 0.961123
vn 0.125282 -0.984179 0.125285
vn 0.125282 -0.984179 0.125285
vn 0.998791 -0.049157 -0.000032
vn 0.998791 -0.049157 -0.000032
vn 0.998791 -0.049157 -0.000032
vn 0.998791 -0.049157 -0.000032
vn -0.000022 -0.049150 0.998791
vn -0.000022 -0.049150 0.998791
vn -0.000022 -0.049150 0.998791
vn -0.000022 -0.049150 0.998791
vn 0.107171 0.988446 0.107188
vn 0.107171 0.988446 0.107188
vn 0.992975 -0.118322 -0.000040
vn 0.992975 -0.118322 -0.000040
vn 0.992975 -0.118322 -0.000040
vn 0.992975 -0.118322 -0.000040
vn -0.000021 -0.118300 0.992978
vn -0.000021 -0.118300 0.992978
vn -0.000021 -0.118300 0.992978
vn -0.000021 -0.118300 0.992978
vn 0.814677 -0.579915 -0.000022
vn 0.814677 -0.579915 -0.000022
vn 0.814677 -0.579915 -0.000022
vn 0.814677 -0.579915 -0.000022
vn -0.000012 -0.579938 0.814661
vn -0.000012 -0.579938 0.814661
vn -0.000012 -0.579938 0.814661
vn -0.000012 -0.579938 0.814661
vn -1.000000 0.000000 -0.000000
vn -1.000000 0.000000 -0.000000
vn -1.000000 0.000000 -0.000000
vn -1.000000 0.000000 -0.000000
vn 0.000000 0.000000 -1.000000
vn 0.000000 0.000000 -1.000000
vn 0.000000 0.000000 -1.000000
vn 0.000000 0.000000 -1.000000
vn 0.000000 1.000000 0.000000
vn 0.000000 1.000000 0.000000
vn 0.000000 1.000000 0.000000
vn 0.000000 1.000000 0.000000
vn 1.000000 -0.000000 0.000000
vn 1.000000 -0.000000 0.000000
vn 1.000000 -0.000000 0.000000
vn 1.000000 -0.000000 0.000000
vn -0.000000 -0.000000 1.000000
vn -0.000000 -0.000000 1.000000
vn -0.000000 -0.000000 1.000000
vn -0.000000 -0.000000 1.000000
vn -0.000000 -1.000000 -0.000000
vn -0.000000 -1.000000 -0.000000
vn -0.000000 -1.000000 -0.000000
vn -0.000000 -1.000000 -0.000000
s off
f 3/1/1 4/2/2 6/3/3 5/4/4
f 4/2/5 2/5/6 1/6/7 6/3/8
s 1
f 2/5/9 4/2/10 8/7/11 7/8/12
f 4/2/10 3/1/13 9/9/14 8/7/11
s off
f 7/8/15 8/7/16 12/10/17 11/11/18
f 8/7/19 9/9/20 13/12/21 12/10/22
s 2
f 5/4/23 6/3/24 15/13/25 14/14/26
f 6/3/24 1/6/27 16/15/28 15/13/25
s off
f 26/16/29 27/17/30 18/18/31 17/19/32
s 3
f 27/17/33 28/20/34 19/21/35 18/18/36
s 4
f 17/19/37 18/18/38 21/22/39 20/23/40
f 18/18/38 19/21/41 22/24/42 21/22/39
s off
f 20/23/43 21/22/44 24/25/45 23/26/46
f 21/22/47 22/24/48 25/27/49 24/25/50
f 14/14/51 15/13/52 27/17/53 26/16/54
s 3
f 15/13/55 16/15/56 28/20/34 27/17/33
s off
f 41/28/57 42/29/58 43/30/59 44/31/60
s 5
f 23/26/61 24/25/62 30/32/63 29/33/64
f 24/25/62 25/27/65 31/34/66 30/32/63
s off
f 29/33/67 30/32/68 33/35/69 32/36/70
f 30/32/71 31/34/72 34/37/73 33/35/74
s 6
f 32/36/75 33/35/76 36/38/77 35/39/78
f 33/35/76 34/37/79 37/40/80 36/38/77
s off
f 35/39/81 36/38/82 39/41/83 38/42/84
f 36/38/85 37/40/86 40/43/87 39/41/88
f 38/42/89 39/41/90 42/29/91 41/44/92
f 39/41/93 40/43/94 43/30/95 42/29/96
f 10/45/97 11/46/98 12/10/99 13/12/100
f 2/47/101 45/48/102 46/49/103 1/50/104
f 45/48/105 3/51/106 5/52/107 46/49/108
s 1
f 3/51/13 45/48/109 47/53/110 9/54/14
f 45/48/109 2/47/9 7/55/12 47/53/110
s off
f 9/54/111 47/53/112 10/56/113 13/57/114
f 47/53/115 7/55/116 11/58/117 10/56/118
s 2
f 1/50/27 46/49/119 48/59/120 16/60/28
f 46/49/119 5/52/23 14/61/26 48/59/120
s off
f 28/62/121 52/63/122 49/64/123 19/65/124
s 7
f 52/63/125 26/66/126 17/67/127 49/64/128
s 4
f 19/65/41 49/64/129 50/68/130 22/69/42
f 49/64/129 17/67/37 20/70/40 50/68/130
s off
f 22/69/131 50/68/132 51/71/133 25/72/134
f 50/68/135 20/70/136 23/73/137 51/71/138
f 16/60/139 48/59/140 52/63/141 28/62/142
s 7
f 48/59/143 14/61/144 26/66/126 52/63/125
s 5
f 25/72/65 51/71/145 53/74/146 31/75/66
f 51/71/145 23/73/61 29/76/64 53/74/146
s off
f 31/75/147 53/74/148 54/77/149 34/78/150
f 53/74/151 29/76/152 32/79/153 54/77/154
s 6
f 34/78/79 54/77/155 55/80/156 37/81/80
f 54/77/155 32/79/75 35/82/78 55/80/156
s off
f 37/81/157 55/80/158 56/83/159 40/84/160
f 55/80/161 35/82/162 38/85/163 56/83/164
f 40/84/165 56/83/166 44/86/167 43/87/168
f 56/83/169 38/85/170 41/88/171 44/86/172
f 60/89/173 61/90/174 58/91/175 57/92/176
f 61/90/177 62/93/178 59/94/179 58/95/180
f 60/89/181 63/96/182 62/93/183 61/90/184
f 62/97/185 63/98/186 64/99/187 59/100/188
f 63/98/189 60/101/190 57/102/191 64/103/192
f 64/104/193 57/105/194 58/106/195 59/107/196
