# This file uses centimeters as units for non-parametric coordinates.

v -3.039228 -2.031436 -0.132184
v -3.039228 -2.372268 -0.132184
v 2.840408 1.963513 -0.132188
v 2.840408 1.561762 -0.132188
v 2.750908 1.561762 -0.132188
v -3.039228 -1.589368 -0.167367
v -3.039228 -1.589368 0.167363
v -3.039228 -2.031436 0.205255
v -3.039228 -2.031436 0.132190
v -3.039228 -2.372268 0.132190
v -3.039228 -2.372268 0.192372
v -3.039228 -2.836631 -0.168694
v -3.039228 -2.836631 0.168698
v -3.039228 -1.660082 0.222672
v -3.039228 -2.031436 -0.205255
v -3.039228 -2.372268 -0.192376
v -3.039228 -1.660082 -0.222672
v 2.840408 2.405580 -0.167363
v 2.840408 1.963513 0.132186
v 2.840408 1.158318 -0.168694
v 2.840408 1.158318 0.168698
v 2.840408 2.405580 0.167363
v 2.840408 1.963513 0.205255
v 2.840408 1.561762 0.132186
v 2.840408 2.334867 0.222672
v 2.840408 1.963513 -0.205255
v 2.840408 2.334867 -0.222672
v 2.750908 1.561762 0.132186
v 2.750908 1.561762 0.192372
v 2.750908 1.561762 -0.192369
v 2.840408 1.561762 -0.192369
v 2.840408 1.561762 0.192372
v -1.590531 -0.610641 -0.167366
v -1.556806 -0.658400 -0.222672
v -1.416057 -0.933952 -0.205255
v -1.414404 -0.932826 -0.132185
v -1.261468 -1.173302 -0.132185
v -1.276765 -1.179973 -0.192374
v -1.079148 -1.509826 -0.168694
v -1.070662 -1.504049 0.168698
v -1.589040 -0.609627 0.167363
v -1.558148 -0.659313 0.222672
v -1.421136 -0.937408 0.205255
v -1.419242 -0.936119 0.132189
v -1.264726 -1.175519 0.132189
v -1.258797 -1.171483 0.192372
v -0.060815 0.430832 -0.167365
v -0.025098 0.384431 -0.222672
v 0.120739 0.112341 -0.205255
v 0.125755 0.115756 -0.132186
v 0.273888 -0.126600 -0.132186
v 0.273284 -0.124658 -0.192372
v 0.472883 -0.453163 -0.168694
v 0.468325 -0.456265 0.168698
v -0.058418 0.432464 0.167363
v -0.023201 0.385722 0.222672
v 0.118200 0.110614 0.205255
v 0.119114 0.111236 0.132188
v 0.269935 -0.129292 0.132188
v 0.271627 -0.128142 0.192372
vt 0.448405 0.291918
vt 0.611568 0.291542
vt 0.597337 0.315843
vt 0.448405 0.315842
vt 0.469763 0.319836
vt 0.454510 0.345472
vt 0.739292 0.345472
vt 0.739292 0.319836
vt 0.448405 0.319836
vt 0.448405 0.315842
vt 0.603923 0.315843
vt 0.603922 0.319836
vt 0.448405 0.345472
vt 0.588658 0.345472
vt 0.451651 0.355153
vt 0.451654 0.383420
vt 0.739292 0.383419
vt 0.739292 0.355153
vt 0.864945 0.428557
vt 0.870178 0.428557
vt 0.868120 0.388186
vt 0.838787 0.388186
vt 0.836729 0.428557
vt 0.841961 0.428557
vt 0.680503 0.292159
vt 0.665305 0.292159
vt 0.665305 0.311752
vt 0.680503 0.311752
vt 0.511048 0.395991
vt 0.504696 0.395991
vt 0.503181 0.428276
vt 0.534032 0.395991
vt 0.540385 0.395991
vt 0.541899 0.428276
vt 0.507990 0.434424
vt 0.537091 0.434424
vt 0.739292 0.315842
vt 0.469763 0.315842
vt 0.501795 0.254336
vt 0.492489 0.288156
vt 0.739292 0.287984
vt 0.739292 0.254337
vt 0.448405 0.229062
vt 0.448405 0.254337
vt 0.607861 0.254338
vt 0.607865 0.229062
vt 0.448405 0.355153
vt 0.585795 0.355153
vt 0.589534 0.291542
vt 0.448405 0.291519
vt 0.448405 0.288157
vt 0.589534 0.288157
vt 0.492489 0.291541
vt 0.739292 0.291527
vt 0.448405 0.254337
vt 0.607861 0.254338
vt 0.774293 0.287466
vt 0.774293 0.291310
vt 0.765587 0.291310
vt 0.765587 0.287466
vt 0.774293 0.291310
vt 0.774293 0.287466
vt 0.765587 0.287466
vt 0.765587 0.291310
vt 0.836508 0.287009
vt 0.836508 0.255378
vt 0.829080 0.287009
vt 0.836508 0.255378
vt 0.836508 0.287009
vt 0.829080 0.287009
vt 0.792770 0.423646
vt 0.797906 0.423646
vt 0.820466 0.423646
vt 0.825602 0.423646
vt 0.823581 0.389219
vt 0.794790 0.389219
vt 0.494460 0.291541
vt 0.485843 0.291541
vt 0.471620 0.315842
vt 0.739292 0.315842
vt 0.739292 0.291778
vt 0.489553 0.398337
vt 0.466993 0.398337
vt 0.460758 0.398337
vt 0.459272 0.430026
vt 0.463991 0.436060
vt 0.492554 0.436060
vt 0.497274 0.430026
vt 0.495788 0.398337
vt 0.722026 0.292119
vt 0.706591 0.292119
vt 0.706591 0.315575
vt 0.722026 0.315575
vt 0.739292 0.355153
vt 0.739292 0.345472
vt 0.885924 0.345472
vt 0.885924 0.355153
vt 0.739292 0.319836
vt 0.885924 0.319836
vt 0.739292 0.315842
vt 0.885924 0.315842
vt 0.739292 0.291778
vt 0.885924 0.291918
vt 0.885924 0.315842
vt 0.739292 0.315842
vt 0.885924 0.288157
vt 0.885924 0.291519
vt 0.739292 0.291527
vt 0.739292 0.288156
vt 0.885924 0.254337
vt 0.739292 0.254337
vt 0.739292 0.229061
vt 0.885924 0.254337
vt 0.885924 0.229062
vt 0.448405 0.345472
vt 0.448405 0.355153
vt 0.585795 0.355153
vt 0.588658 0.345472
vt 0.448405 0.319836
vt 0.603922 0.319836
vt 0.603923 0.315843
vt 0.448405 0.315842
vt 0.448405 0.291918
vt 0.448405 0.315842
vt 0.597337 0.315843
vt 0.611568 0.291542
vt 0.589534 0.288157
vt 0.448405 0.287884
vt 0.448405 0.291519
vt 0.589534 0.291542
vt 0.448405 0.383419
vt 0.585791 0.383418
vt 0.451651 0.355153
vt 0.454510 0.345472
vt 0.469763 0.319836
vt 0.469763 0.315842
vt 0.494460 0.291541
vt 0.471620 0.315842
vt 0.485843 0.291541
vt 0.492489 0.291541
vt 0.492489 0.288156
vt 0.501795 0.254336
vt 0.501792 0.229060
vt 0.885924 0.355153
vt 0.885924 0.345472
vt 0.885924 0.319836
vt 0.885924 0.315842
vt 0.885924 0.315842
vt 0.885924 0.291918
vt 0.885924 0.287884
vt 0.885924 0.291519
vt 0.885924 0.383419
vn -0.000001 0.000000 -1.000000
vn -0.000001 0.000000 -1.000000
vn -0.000001 0.000000 -1.000000
vn -0.000001 0.000000 -1.000000
vn 0.031874 -0.046828 0.998394
vn -0.193224 0.283877 0.939190
vn -0.193240 0.283866 0.939190
vn 0.031877 -0.046827 0.998394
vn 0.561450 -0.827511 0.000019
vn 0.561450 -0.827511 0.000019
vn 0.560121 -0.828411 0.000043
vn 0.560121 -0.828411 0.000043
vn -0.192678 0.284092 -0.939237
vn 0.031781 -0.046848 -0.998396
vn 0.031681 -0.046871 -0.998398
vn -0.192106 0.284339 -0.939280
vn -0.562683 0.826673 0.000000
vn -0.562683 0.826673 0.000000
vn -0.562731 0.826640 0.000000
vn -0.562731 0.826640 0.000000
vn -1.000000 0.000000 0.000000
vn -1.000000 0.000000 0.000000
vn -1.000000 0.000000 0.000000
vn -1.000000 0.000000 0.000000
vn -1.000000 0.000000 0.000000
vn -1.000000 0.000000 0.000000
vn -1.000000 -0.000000 0.000000
vn -1.000000 -0.000000 0.000000
vn -1.000000 -0.000001 0.000000
vn -1.000000 -0.000000 0.000000
vn -1.000000 0.000001 0.000000
vn -1.000000 0.000000 0.000000
vn -1.000000 0.000000 0.000000
vn -1.000000 0.000000 0.000000
vn 0.562730 -0.826640 0.000002
vn 0.562683 -0.826673 0.000001
vn 0.562683 -0.826673 0.000001
vn 0.562730 -0.826640 0.000002
vn 0.017374 -0.054801 0.998346
vn 0.017374 -0.054801 0.998346
vn 0.034814 -0.051106 0.998086
vn 0.034814 -0.051106 0.998086
vn 0.561672 -0.827360 0.000019
vn 0.561672 -0.827360 0.000019
vn 0.560566 -0.828110 0.000039
vn 0.560566 -0.828110 0.000039
vn -0.386722 0.568157 0.726391
vn -0.386755 0.568135 0.726391
vn -0.385653 0.568611 -0.726604
vn -0.384527 0.569123 -0.726800
vn -0.559554 0.828411 0.025197
vn -0.561067 0.827091 0.033530
vn -0.561067 0.827091 0.033530
vn -0.559554 0.828411 0.025197
vn -0.563254 0.826284 0.000047
vn -0.563219 0.826307 0.000025
vn -0.563219 0.826307 0.000025
vn -0.563254 0.826284 0.000047
vn 0.034474 -0.050942 -0.998106
vn 0.034561 -0.050916 -0.998105
vn 0.034561 -0.050916 -0.998105
vn 0.034474 -0.050942 -0.998106
vn 0.000000 1.000000 0.000000
vn 0.000000 1.000000 0.000000
vn 0.000000 1.000000 0.000000
vn 0.000000 1.000000 0.000000
vn 0.000000 1.000000 0.000000
vn 0.000000 1.000000 0.000000
vn 0.000000 1.000000 0.000000
vn 0.000000 1.000000 0.000000
vn 0.000000 -0.058579 -0.998283
vn 0.017322 -0.054742 -0.998350
vn 0.017322 -0.054742 -0.998350
vn 0.000000 -0.058579 0.998283
vn 1.000000 -0.000000 0.000000
vn 1.000000 -0.000000 0.000000
vn 1.000000 -0.000000 0.000000
vn 1.000000 -0.000000 0.000000
vn 1.000000 -0.000000 0.000000
vn 1.000000 -0.000000 0.000000
vn 0.000001 0.000000 1.000000
vn 0.000001 0.000000 1.000000
vn 0.000001 0.000000 1.000000
vn 0.000001 0.000000 1.000000
vn 0.000001 0.000000 1.000000
vn 1.000000 0.000000 0.000000
vn 1.000000 0.000000 0.000000
vn 1.000000 0.000000 0.000000
vn 1.000000 0.000000 0.000000
vn 1.000000 0.000000 0.000000
vn 1.000000 0.000000 0.000000
vn 1.000000 0.000000 0.000000
vn 1.000000 0.000000 0.000000
vn -0.386748 0.568125 -0.726402
vn -0.193236 0.283860 -0.939193
vn 0.031877 -0.046827 -0.998394
vn 0.562730 -0.826640 -0.000003
vn 0.562730 -0.826640 -0.000003
vn -0.000001 0.000000 -1.000000
vn -0.000001 0.000000 -1.000000
vn -0.562755 0.826115 0.029008
vn -0.562755 0.826115 0.029008
vn 0.034643 -0.050889 -0.998103
vn 0.034643 -0.050889 -0.998103
vn 0.562730 -0.826641 -0.000000
vn 0.562730 -0.826641 -0.000000
vn -0.192679 0.284093 0.939237
vn -0.385654 0.568612 0.726603
vn -0.384520 0.569111 0.726813
vn -0.192102 0.284332 0.939283
vn 0.031780 -0.046848 0.998396
vn 0.031680 -0.046870 0.998399
vn 0.560113 -0.828416 -0.000048
vn 0.561446 -0.827513 -0.000022
vn 0.561446 -0.827513 -0.000022
vn 0.560113 -0.828416 -0.000048
vn 0.000001 0.000000 1.000000
vn 0.000001 0.000000 1.000000
vn 0.000001 -0.000000 1.000000
vn 0.000001 -0.000000 1.000000
vn -0.559145 0.829070 -0.000253
vn -0.561219 0.827668 -0.000092
vn -0.561219 0.827668 -0.000092
vn -0.559145 0.829070 -0.000253
vn 0.034722 -0.051174 0.998086
vn 0.034722 -0.051174 0.998086
vn 0.034559 -0.051141 0.998093
vn 0.034559 -0.051141 0.998093
vn -0.561295 0.827616 -0.000004
vn -0.561295 0.827616 -0.000004
vn -0.559811 0.828621 -0.000009
vn -0.559811 0.828621 -0.000009
vn -0.386718 0.568152 -0.726397
vn -0.193221 0.283874 -0.939192
vn 0.031874 -0.046828 -0.998394
vn 0.562683 -0.826673 -0.000001
vn 0.562683 -0.826673 -0.000001
vn -0.000001 0.000000 -1.000000
vn -0.000001 0.000000 -1.000000
vn -0.000001 0.000000 -1.000000
vn -0.562878 0.826382 0.016151
vn -0.562878 0.826382 0.016151
vn 0.562683 -0.826673 0.000000
vn 0.562683 -0.826673 0.000000
s 1
f 37/1/1 2/2/2 1/3/3 36/4/4
s 2
f 23/5/5 25/6/6 56/7/7 57/8/8
s 3
f 35/9/9 36/10/10 1/11/11 15/12/12
s 4
f 34/13/13 35/9/14 15/12/15 17/14/16
s 5
f 22/15/17 18/16/18 47/17/19 55/18/20
s 6
f 2/19/21 16/20/22 12/21/23 13/22/24
f 13/22/24 11/23/25 10/24/26 2/19/21
f 2/25/21 10/26/26 9/27/27 1/28/28
f 9/29/27 8/30/29 14/31/30 1/32/28
f 15/33/31 1/32/28 17/34/32
f 17/34/32 1/32/28 14/31/30 7/35/33
f 7/35/33 6/36/34 17/34/32
s 7
f 58/37/35 19/38/36 23/5/37 57/8/38
s 8
f 21/39/39 29/40/40 60/41/41 54/42/42
s 9
f 39/43/43 40/44/44 13/45/45 12/46/46
s 2
f 25/6/6 22/15/47 55/18/48 56/7/7
s 4
f 33/47/49 34/13/13 17/14/16 6/48/50
s 10
f 2/49/51 37/50/52 38/51/53 16/52/54
s 11
f 60/41/55 29/40/56 28/53/57 59/54/58
s 12
f 16/52/59 38/51/60 39/55/61 12/56/62
s off
f 30/57/63 5/58/64 4/59/65 31/60/66
f 28/61/67 29/62/68 32/63/69 24/64/70
s 12
f 31/65/71 20/66/72 30/67/73
s 8
f 21/68/39 32/69/74 29/70/40
s 14
f 31/71/75 4/72/76 24/73/77 32/74/78 21/75/79 20/76/80
s 15
f 28/77/81 24/78/82 19/79/83 58/80/84 59/81/85
s 14
f 19/82/86 3/83/87 26/84/88 27/85/89 18/86/90 22/87/91 25/88/92 23/89/93
f 24/90/77 4/91/76 3/92/87 19/93/86
s 4
f 47/94/94 48/95/95 34/96/13 33/97/49
f 48/95/95 49/98/96 35/99/14 34/96/13
s 3
f 49/98/97 50/100/98 36/101/10 35/99/9
s 1
f 51/102/99 37/103/1 36/104/4 50/105/100
s 10
f 38/106/53 37/107/52 51/108/101 52/109/102
s 12
f 39/110/61 38/106/60 52/109/103 53/111/104
s 9
f 53/112/105 54/42/106 40/113/44 39/114/43
s 2
f 42/115/107 41/116/108 7/117/109 14/118/110
f 43/119/111 42/115/107 14/118/110 8/120/112
s 7
f 9/121/113 44/122/114 43/119/115 8/120/116
s 15
f 45/123/117 44/124/118 9/125/119 10/126/120
s 11
f 11/127/121 46/128/122 45/129/123 10/130/124
s 8
f 40/44/125 46/128/126 11/127/127 13/45/128
s 5
f 41/116/129 33/131/130 6/132/131 7/117/132
s 4
f 18/133/133 27/134/134 48/95/95 47/94/94
f 27/134/134 26/135/135 49/98/96 48/95/95
s 3
f 26/135/136 3/136/137 50/100/98 49/98/97
s 1
f 5/137/138 51/102/99 50/105/100 3/138/139 4/139/140
s 10
f 52/109/102 51/108/101 5/140/141 30/141/142
s 12
f 53/111/104 52/109/103 30/141/73 20/142/72
s 9
f 20/143/143 21/39/144 54/42/106 53/112/105
s 2
f 56/7/7 55/18/48 41/144/108 42/145/107
f 57/8/8 56/7/7 42/145/107 43/146/111
s 7
f 44/147/114 58/37/35 57/8/38 43/146/115
s 15
f 59/81/85 58/80/84 44/148/118 45/149/117
s 11
f 46/150/122 60/41/55 59/54/58 45/151/123
s 8
f 54/42/42 60/41/41 46/150/126 40/113/125
s 5
f 55/18/20 47/17/19 33/152/130 41/144/129
