# This file uses centimeters as units for non-parametric coordinates.

v 6.125267 -7.692435 -5.827041
v 6.105673 -7.687411 -6.157880
v 6.089980 -8.181422 -6.201766
v 1.994215 -3.718308 -4.189562
v 1.758715 -3.715478 -4.427508
v 1.518240 -4.048659 -4.239746
v 6.102776 -8.183154 -6.128954
v 1.572104 -4.049249 -4.190357
v 5.857525 -8.495700 -6.143358
v 1.416368 -4.306441 -4.020078
v 5.851196 -8.495023 -6.203231
v 1.370543 -4.305974 -4.059113
v 5.614120 -8.930255 -5.803349
v 1.453054 -4.659161 -3.595448
v 5.561854 -8.926467 -6.136765
v 1.185789 -4.656698 -3.801435
v 1.684763 -3.768349 -4.433034
v 6.096012 -7.773741 -6.212946
v 6.125027 -8.186954 -5.792153
v 1.820589 -4.051970 -3.961990
v 6.120286 -8.186132 -5.865087
v 1.766821 -4.051381 -4.011477
v 5.884998 -8.498674 -5.880341
v 1.617498 -4.308490 -3.848444
v 5.891174 -8.499352 -5.820455
v 1.663252 -4.308956 -3.809334
v 2.000483 -3.772087 -4.118851
v 6.126110 -7.780879 -5.767891
v 3.885538 -5.700099 -5.403718
v 3.754507 -5.696528 -5.711827
v 3.687353 -5.749088 -5.744321
v 3.458944 -6.028458 -5.626394
v 3.490839 -6.029223 -5.560636
v 3.281233 -6.285549 -5.459981
v 3.252970 -6.284929 -5.513138
v 2.983526 -6.634563 -5.341834
v 3.156469 -6.637951 -5.052047
v 3.433245 -6.288890 -5.173138
v 3.405104 -6.288271 -5.226355
v 3.605947 -6.031990 -5.322567
v 3.637682 -6.032754 -5.256733
v 3.864847 -5.753824 -5.335756
v 4.617590 -7.022766 -5.949979
v 4.391607 -7.278595 -5.891002
v 4.373934 -7.277933 -5.948554
v 4.075422 -7.626911 -5.831468
v 4.190405 -7.630569 -5.514177
v 4.486448 -7.282160 -5.580520
v 4.468920 -7.281498 -5.638111
v 4.685373 -7.025693 -5.694368
v 4.704016 -7.026502 -5.623701
v 4.943125 -6.748097 -5.657990
v 4.976580 -6.694444 -5.720754
v 4.906614 -6.690706 -6.048185
v 4.846640 -6.743132 -6.092881
v 4.598764 -7.021956 -6.020599
v 2.872362 -4.761884 -4.815630
v 2.879648 -4.708116 -4.886252
v 2.692839 -4.704852 -5.164085
v 2.620993 -4.757562 -5.183360
v 2.420088 -5.037433 -5.024668
v 2.463785 -5.038125 -4.966090
v 2.277933 -5.294911 -4.827938
v 2.240187 -5.294356 -4.874834
v 2.009180 -5.644581 -4.656181
v 2.233416 -5.647565 -4.404006
v 2.481165 -5.297899 -4.574813
v 2.443518 -5.297345 -4.621780
v 2.621664 -5.040624 -4.753969
v 2.665232 -5.041313 -4.695296
v 0.174505 0.225886 -0.210049
v -0.159838 0.226076 -0.226112
v -0.205250 -0.108523 0.072693
v -0.132183 -0.108522 0.072777
v -0.217262 0.172580 -0.180574
v 0.205256 -0.108518 0.073168
v 0.132189 -0.108519 0.073084
v 0.227713 0.172370 -0.162535
v 0.700174 -1.744019 -2.370600
v 0.394217 -1.742377 -2.506414
v 0.323774 -1.795578 -2.484749
v 0.241259 -2.076501 -2.244631
v 0.309378 -2.076822 -2.218191
v 0.228262 -2.334591 -2.003395
v 0.171396 -2.334352 -2.023130
v 0.095633 -2.685721 -1.716576
v 0.419413 -2.686865 -1.621666
v 0.534834 -2.335878 -1.896820
v 0.477991 -2.335639 -1.916603
v 0.555803 -2.077979 -2.122406
v 0.623896 -2.078299 -2.095900
v 0.732187 -1.797726 -2.307125
v 0.845957 -3.062281 -3.263046
v 0.725554 -3.319805 -3.066973
v 0.673296 -3.319445 -3.096846
v 0.540899 -3.670556 -2.809599
v 0.841658 -3.672397 -2.656651
v 1.007219 -3.321745 -2.905663
v 0.955004 -3.321385 -2.935604
v 1.070475 -3.063960 -3.123415
v 1.132498 -3.064423 -3.084779
v 1.279039 -2.784154 -3.272242
v 1.259527 -2.730396 -3.340528
v 0.983923 -2.728113 -3.530553
v 0.910463 -2.781151 -3.522279
v 0.783876 -3.061816 -3.301593
v 0.377909 -0.812375 -1.258211
v 0.334543 -0.758750 -1.314682
v 0.008831 -0.757815 -1.391865
v -0.056198 -0.811172 -1.357645
v -0.092009 -1.092243 -1.106575
v -0.020193 -1.092406 -1.093098
v -0.059402 -1.350322 -0.867165
v -0.118921 -1.350214 -0.876125
v -0.135656 -1.701700 -0.561024
v 0.200041 -1.702101 -0.527214
v 0.261526 -1.350903 -0.818775
v 0.202021 -1.350795 -0.827757
v 0.239634 -1.092995 -1.044268
v 0.311441 -1.093158 -1.030754
v -0.115122 -0.553781 0.079391
v -0.175154 -0.553779 0.079391
v -0.141062 -1.166795 0.079391
v 0.194910 -1.166782 0.079391
v 0.208582 -0.553792 0.079391
v 0.148561 -0.553789 0.079391
vt 0.885665 0.345472
vt 0.742672 0.345483
vt 0.742674 0.319832
vt 0.885669 0.319836
vt 0.742675 0.315846
vt 0.885670 0.315842
vt 0.742676 0.292912
vt 0.885673 0.292921
vt 0.742676 0.288166
vt 0.885673 0.288156
vt 0.742678 0.254336
vt 0.885677 0.254336
vt 0.742680 0.229064
vt 0.885680 0.229060
vt 0.885664 0.355153
vt 0.742672 0.355146
vt 0.885669 0.319836
vt 0.742674 0.319832
vt 0.742672 0.345483
vt 0.885665 0.345472
vt 0.885670 0.315842
vt 0.742675 0.315846
vt 0.885673 0.292921
vt 0.742676 0.292912
vt 0.885673 0.288156
vt 0.742676 0.288166
vt 0.885677 0.254336
vt 0.742678 0.254339
vt 0.742672 0.355134
vt 0.885664 0.355153
vt 0.885662 0.383420
vt 0.742671 0.383415
vt 0.469383 0.428557
vt 0.464151 0.428557
vt 0.466209 0.388186
vt 0.495542 0.388186
vt 0.497600 0.428557
vt 0.492368 0.428557
vt 0.653826 0.292159
vt 0.669024 0.292159
vt 0.669024 0.311752
vt 0.653826 0.311752
vt 0.492368 0.455583
vt 0.498720 0.455583
vt 0.500235 0.487869
vt 0.469383 0.455583
vt 0.463031 0.455583
vt 0.461516 0.487869
vt 0.495426 0.494016
vt 0.466325 0.494016
vt 0.594579 0.355139
vt 0.594579 0.383411
vt 0.448139 0.383415
vt 0.448138 0.355146
vt 0.448137 0.345483
vt 0.594579 0.345495
vt 0.594579 0.319828
vt 0.448135 0.319832
vt 0.594579 0.315851
vt 0.448135 0.315847
vt 0.594579 0.292904
vt 0.448133 0.292913
vt 0.594579 0.288175
vt 0.448133 0.288166
vt 0.594579 0.254336
vt 0.448131 0.254337
vt 0.594579 0.229068
vt 0.448129 0.229065
vt 0.594579 0.288175
vt 0.594579 0.254342
vt 0.448131 0.254340
vt 0.448133 0.288166
vt 0.594579 0.292904
vt 0.448133 0.292913
vt 0.594579 0.315851
vt 0.448135 0.315847
vt 0.594579 0.319828
vt 0.448135 0.319832
vt 0.448137 0.345483
vt 0.594579 0.345495
vt 0.448138 0.355134
vt 0.594579 0.355116
vt 0.742228 0.292913
vt 0.742230 0.315847
vt 0.594645 0.315843
vt 0.594642 0.292922
vt 0.742228 0.288166
vt 0.594641 0.288157
vt 0.742226 0.254337
vt 0.594637 0.254338
vt 0.742224 0.229065
vt 0.594634 0.229062
vt 0.885673 0.288166
vt 0.885671 0.254340
vt 0.742664 0.254338
vt 0.742669 0.288157
vt 0.885673 0.292913
vt 0.721299 0.292922
vt 0.885675 0.315847
vt 0.742672 0.315843
vt 0.885675 0.319832
vt 0.742673 0.319836
vt 0.742676 0.345472
vt 0.885677 0.345483
vt 0.742678 0.355153
vt 0.885678 0.355134
vt 0.742233 0.355146
vt 0.742234 0.383415
vt 0.594653 0.383418
vt 0.594651 0.355153
vt 0.594649 0.345472
vt 0.742232 0.345483
vt 0.742230 0.319832
vt 0.594645 0.319836
vt 0.885665 0.345472
vt 0.742672 0.345483
vt 0.742674 0.319832
vt 0.885669 0.319836
vt 0.742675 0.315846
vt 0.885670 0.315842
vt 0.742676 0.292912
vt 0.742676 0.288166
vt 0.742678 0.254336
vt 0.742680 0.229064
vt 0.885664 0.355153
vt 0.742672 0.355146
vt 0.885669 0.319836
vt 0.742674 0.319832
vt 0.742672 0.345483
vt 0.885665 0.345472
vt 0.885670 0.315842
vt 0.742675 0.315846
vt 0.742676 0.292912
vt 0.742676 0.288166
vt 0.742678 0.254339
vt 0.742672 0.355134
vt 0.885664 0.355153
vt 0.885662 0.383420
vt 0.742671 0.383415
vt 0.469383 0.455583
vt 0.463031 0.455583
vt 0.461517 0.487869
vt 0.492368 0.455583
vt 0.498720 0.455583
vt 0.500235 0.487869
vt 0.466325 0.494016
vt 0.495426 0.494016
vt 0.594579 0.355139
vt 0.594579 0.383411
vt 0.448139 0.383415
vt 0.448138 0.355146
vt 0.448137 0.345483
vt 0.594579 0.345495
vt 0.594579 0.319828
vt 0.448135 0.319832
vt 0.594579 0.315851
vt 0.448135 0.315847
vt 0.594579 0.292904
vt 0.448133 0.292913
vt 0.594579 0.288175
vt 0.448133 0.288166
vt 0.594579 0.254336
vt 0.448131 0.254337
vt 0.594579 0.229068
vt 0.448129 0.229065
vt 0.594579 0.288175
vt 0.594579 0.254342
vt 0.448131 0.254340
vt 0.448133 0.288166
vt 0.594579 0.292904
vt 0.448133 0.292913
vt 0.594579 0.315851
vt 0.448135 0.315847
vt 0.594579 0.319828
vt 0.448135 0.319832
vt 0.448137 0.345483
vt 0.594579 0.345495
vt 0.448138 0.355134
vt 0.594579 0.355116
vt 0.742228 0.292913
vt 0.742230 0.315847
vt 0.594645 0.315843
vt 0.594642 0.292922
vt 0.742228 0.288166
vt 0.594641 0.288157
vt 0.742226 0.254337
vt 0.594637 0.254338
vt 0.742224 0.229065
vt 0.594634 0.229062
vt 0.885673 0.288166
vt 0.885671 0.254340
vt 0.742664 0.254338
vt 0.742669 0.288157
vt 0.885673 0.292913
vt 0.742669 0.292922
vt 0.885675 0.315847
vt 0.742672 0.315843
vt 0.885675 0.319832
vt 0.742673 0.319836
vt 0.742676 0.345472
vt 0.885677 0.345483
vt 0.742678 0.355153
vt 0.885678 0.355134
vt 0.742233 0.355146
vt 0.742234 0.383415
vt 0.594653 0.383418
vt 0.594651 0.355153
vt 0.594649 0.345472
vt 0.742232 0.345483
vt 0.742230 0.319832
vt 0.594645 0.319836
vt 0.858450 0.292919
vt 0.858450 0.288158
vt 0.820434 0.254336
vt 0.820436 0.229062
vt 0.820434 0.254337
vt 0.858447 0.288158
vt 0.858447 0.292919
vt 0.466209 0.388186
vt 0.464151 0.428557
vt 0.469383 0.428557
vt 0.495542 0.388186
vt 0.492368 0.428557
vt 0.497600 0.428557
vt 0.669024 0.292159
vt 0.653826 0.292159
vt 0.653826 0.311752
vt 0.669024 0.311752
vn -0.535339 0.231582 -0.812270
vn -0.371808 0.231549 -0.898968
vn -0.588268 -0.035451 -0.807889
vn -0.730910 -0.035459 -0.681553
vn -0.435906 -0.769943 0.466018
vn -0.515357 -0.770489 0.375172
vn -0.515357 -0.770489 0.375172
vn -0.435906 -0.769943 0.466018
vn -0.737765 0.000077 -0.675058
vn -0.596353 0.000090 -0.802723
vn -0.596353 0.000090 -0.802723
vn -0.737765 0.000077 -0.675058
vn 0.418717 0.769540 -0.482166
vn 0.501482 0.770066 -0.394352
vn 0.501482 0.770066 -0.394352
vn 0.418717 0.769540 -0.482166
vn -0.786315 -0.038555 -0.616621
vn -0.655197 -0.038544 -0.754474
vn -0.655197 -0.038544 -0.754474
vn -0.786315 -0.038555 -0.616621
vn -0.400408 -0.761135 0.510242
vn -0.488784 -0.761639 0.425436
vn -0.488784 -0.761639 0.425436
vn -0.400408 -0.761135 0.510242
vn -0.272276 0.469067 -0.840144
vn -0.108635 0.469043 -0.876469
vn 0.687441 -0.035591 0.725368
vn 0.537186 -0.035606 0.842712
vn 0.696046 0.229730 0.680253
vn 0.812736 0.229558 0.535503
vn -0.450699 -0.752285 0.480560
vn -0.532745 -0.752825 0.386572
vn -0.532745 -0.752825 0.386572
vn -0.450699 -0.752285 0.480560
vn 0.737288 -0.000070 0.675578
vn 0.595680 -0.000084 0.803222
vn 0.595680 -0.000084 0.803222
vn 0.737288 -0.000070 0.675578
vn 0.432390 0.752557 -0.496686
vn 0.517758 0.753081 -0.405950
vn 0.517758 0.753081 -0.405950
vn 0.432390 0.752557 -0.496686
vn 0.743424 -0.038673 0.667701
vn 0.603336 -0.038686 0.796549
vn 0.603336 -0.038686 0.796549
vn 0.743424 -0.038673 0.667701
vn 0.769938 0.466817 0.435060
vn 0.838861 0.466475 0.280560
vn 0.465334 0.761433 -0.451313
vn 0.541589 0.761997 -0.355024
vn 0.541589 0.761997 -0.355024
vn 0.465334 0.761433 -0.451313
vn 0.814557 -0.571611 -0.098787
vn 0.829312 -0.543596 -0.129405
vn 0.829312 -0.543596 -0.129405
vn 0.824999 -0.554154 -0.110856
vn 0.820296 -0.564450 -0.092256
vn 0.806584 -0.585207 -0.083400
vn 0.943299 -0.320449 -0.086595
vn 0.984033 -0.160396 -0.077152
vn 0.995969 -0.001942 -0.089677
vn 0.996882 -0.006210 -0.078663
vn 0.997893 0.001215 -0.064864
vn 0.997861 -0.013191 -0.064024
vn 0.997767 -0.020393 -0.063599
vn 0.997765 -0.030307 -0.059552
vn 0.598430 0.762642 -0.245478
vn 0.598430 0.762642 -0.245478
vn 0.631939 0.763609 -0.132496
vn 0.631939 0.763609 -0.132496
vn -0.013711 0.221071 -0.975161
vn -0.194069 0.231552 -0.953269
vn 0.059599 0.469085 -0.881140
vn 0.221227 0.462368 -0.858647
vn -0.423515 -0.035444 -0.905195
vn -0.247176 -0.048627 -0.967750
vn -0.576413 -0.771118 0.270416
vn -0.576413 -0.771118 0.270416
vn -0.601876 -0.780978 0.166789
vn -0.601876 -0.780978 0.166789
vn -0.432605 0.000100 -0.901583
vn -0.432605 0.000100 -0.901583
vn -0.235877 0.012850 -0.971698
vn -0.235877 0.012850 -0.971698
vn 0.566391 0.770683 -0.291975
vn 0.566391 0.770683 -0.291975
vn 0.607954 0.773785 -0.177900
vn 0.607954 0.773785 -0.177900
vn -0.499676 -0.038536 -0.865355
vn -0.499676 -0.038536 -0.865355
vn -0.323950 -0.046918 -0.944910
vn -0.323950 -0.046918 -0.944910
vn -0.559800 -0.762236 0.324994
vn -0.559800 -0.762236 0.324994
vn -0.615989 -0.758203 0.213744
vn -0.615989 -0.758203 0.213744
vn 0.440734 -0.038700 0.896803
vn 0.440734 -0.038700 0.896803
vn 0.261731 -0.028478 0.964721
vn 0.261731 -0.028478 0.964721
vn 0.584662 0.753693 -0.300195
vn 0.584662 0.753693 -0.300195
vn 0.625616 0.758599 -0.182023
vn 0.625616 0.758599 -0.182023
vn 0.431762 -0.000093 0.901988
vn 0.431762 -0.000093 0.901988
vn 0.234341 -0.012956 0.972068
vn 0.234341 -0.012956 0.972068
vn -0.595735 -0.753449 0.278235
vn -0.595735 -0.753449 0.278235
vn -0.622437 -0.766814 0.156741
vn -0.622437 -0.766814 0.156741
vn 0.396436 0.243385 0.885213
vn 0.553310 0.229879 0.800627
vn 0.366702 -0.035619 0.929657
vn 0.184545 -0.026633 0.982463
vn 0.557614 0.481997 0.675829
vn 0.672355 0.467126 0.574223
vn -0.124490 0.025427 -0.991895
vn -0.124490 0.025427 -0.991895
vn 0.620720 0.775097 -0.118032
vn 0.620720 0.775097 -0.118032
vn -0.230303 -0.055033 -0.971562
vn -0.230303 -0.055033 -0.971562
vn -0.640091 -0.752313 0.155911
vn -0.640091 -0.752313 0.155911
vn 0.168207 -0.018163 0.985584
vn 0.168207 -0.018163 0.985584
vn 0.636821 0.761643 -0.119825
vn 0.636821 0.761643 -0.119825
vn 0.122321 -0.025645 0.992159
vn 0.122321 -0.025645 0.992159
vn -0.621346 -0.778076 0.092343
vn -0.621346 -0.778076 0.092343
vn 0.315588 0.256096 0.913684
vn 0.091631 -0.017569 0.995638
vn 0.497961 0.496017 0.711338
vn 0.641425 0.763301 -0.077106
vn 0.641425 0.763301 -0.077106
vn 0.074741 0.209824 -0.974878
vn 0.297466 0.454412 -0.839657
vn -0.157529 -0.061562 -0.985594
vn -0.601440 -0.790066 0.118601
vn -0.601440 -0.790066 0.118601
vn -0.921957 0.230958 -0.310891
vn -0.888319 0.231869 -0.396393
vn -0.983019 -0.035501 -0.180038
vn -0.995634 -0.035351 -0.086386
vn -0.060592 -0.767528 0.638146
vn -0.119633 -0.768975 0.627985
vn -0.119633 -0.768975 0.627985
vn -0.060592 -0.767528 0.638146
vn -0.996578 0.004085 -0.082563
vn -0.984799 0.002066 -0.173687
vn -0.984799 0.002066 -0.173687
vn -0.996578 0.004085 -0.082563
vn -0.731422 0.467993 -0.495990
vn -0.680835 0.469508 -0.562162
vn 0.988520 -0.035375 0.146893
vn 0.970186 -0.035542 0.239741
vn 0.973344 0.229034 0.012029
vn 0.970368 0.227974 -0.080082
vn -0.062658 -0.749817 0.658672
vn -0.123726 -0.751325 0.648230
vn -0.123726 -0.751325 0.648230
vn -0.062658 -0.749817 0.658672
vn 0.858061 0.465484 -0.216926
vn 0.834609 0.463692 -0.297350
vn 0.092360 0.758898 -0.644627
vn 0.151859 0.760390 -0.631463
vn 0.151859 0.760390 -0.631463
vn 0.092360 0.758898 -0.644627
vn -0.000896 0.642846 0.765995
vn -0.000896 0.642846 0.765995
vn -0.015486 0.652245 0.757850
vn -0.010611 0.657999 0.752944
vn -0.000860 0.669345 0.742951
vn -0.022070 0.666826 0.744887
vn -0.032671 0.665451 0.745726
vn -0.035270 0.669474 0.741998
vn 0.266867 0.760618 -0.591812
vn 0.266867 0.760618 -0.591812
vn 0.372618 0.760969 -0.531113
vn 0.372618 0.760969 -0.531113
vn -0.679026 0.231649 -0.696608
vn -0.798013 0.231746 -0.556300
vn -0.563348 0.469306 -0.679993
vn -0.425600 0.469157 -0.773794
vn -0.931568 -0.035485 -0.361832
vn -0.846615 -0.035471 -0.531022
vn -0.234425 -0.769175 0.594486
vn -0.234425 -0.769175 0.594486
vn -0.341109 -0.769500 0.539920
vn -0.341109 -0.769500 0.539920
vn -0.935469 0.000039 -0.353409
vn -0.935469 0.000039 -0.353409
vn -0.852065 0.000059 -0.523436
vn -0.852065 0.000059 -0.523436
vn 0.212600 0.768811 -0.603101
vn 0.212600 0.768811 -0.603101
vn 0.321241 0.769116 -0.552508
vn 0.321241 0.769116 -0.552508
vn -0.958834 -0.038583 -0.281334
vn -0.958834 -0.038583 -0.281334
vn -0.888643 -0.038568 -0.456975
vn -0.888643 -0.038568 -0.456975
vn -0.185190 -0.760463 0.622415
vn -0.185190 -0.760463 0.622415
vn -0.297979 -0.760739 0.576614
vn -0.297979 -0.760739 0.576614
vn 0.938040 -0.038640 0.344365
vn 0.938040 -0.038640 0.344365
vn 0.856245 -0.038660 0.515121
vn 0.856245 -0.038660 0.515121
vn 0.219594 0.751836 -0.621709
vn 0.219594 0.751836 -0.621709
vn 0.331783 0.752138 -0.569393
vn 0.331783 0.752138 -0.569393
vn 0.935337 -0.000037 0.353759
vn 0.935337 -0.000037 0.353759
vn 0.851777 -0.000054 0.523904
vn 0.851777 -0.000054 0.523904
vn -0.242433 -0.751524 0.613545
vn -0.242433 -0.751524 0.613545
vn -0.352729 -0.751848 0.557052
vn -0.352729 -0.751848 0.557052
vn 0.899511 0.229380 0.371839
vn 0.953596 0.229208 0.195241
vn 0.907615 -0.035559 0.418294
vn 0.812316 -0.035575 0.582132
vn 0.877020 0.466131 0.116441
vn 0.883395 0.465804 -0.051375
vn 0.102309 0.768359 -0.631789
vn 0.102309 0.768359 -0.631789
vn -0.994044 -0.031348 -0.104373
vn -0.994044 -0.031348 -0.104373
vn -0.079912 -0.759598 0.645465
vn -0.079912 -0.759598 0.645465
vn 0.984417 -0.045408 0.169884
vn 0.984417 -0.045408 0.169884
vn 0.105675 0.751372 -0.651363
vn 0.105675 0.751372 -0.651363
vn 0.984767 -0.001979 0.173868
vn 0.984767 -0.001979 0.173868
vn 0.048645 0.767150 -0.639621
vn 0.048645 0.767150 -0.639621
vn -0.999539 -0.024046 -0.018545
vn -0.999539 -0.024046 -0.018545
vn -0.033193 -0.758571 0.650744
vn -0.033193 -0.758571 0.650744
vn 0.996571 -0.003914 0.082650
vn 0.996571 -0.003914 0.082650
vn 0.050243 0.750113 -0.659398
vn 0.050243 0.750113 -0.659398
vn 0.995067 -0.052022 0.084467
vn 0.995067 -0.052022 0.084467
vn 0.000000 -0.000000 1.000000
vn 0.000000 -0.000000 1.000000
vn -0.000194 0.004829 0.999988
vn -0.000000 -0.000000 1.000000
vn -0.000291 0.007244 0.999974
vn -0.000000 -0.000000 1.000000
vn -0.000581 0.014487 0.999895
vn -0.000581 0.014487 0.999895
s 1
f 17/1/1 60/2/2 61/3/3 6/4/4
s 2
f 6/4/5 61/3/6 62/5/7 8/6/8
s 3
f 8/6/9 62/5/10 63/7/11 10/8/12
s 4
f 10/8/13 63/7/14 64/9/15 12/10/16
s 5
f 12/10/17 64/9/18 65/11/19 16/12/20
s 6
f 16/12/21 65/11/22 66/13/23 14/14/24
s 1
f 5/15/25 59/16/26 60/2/2 17/1/1
s 7
f 20/17/27 70/18/28 57/19/29 27/20/30
s 8
f 22/21/31 69/22/32 70/18/33 20/17/34
s 9
f 24/23/35 68/24/36 69/22/37 22/21/38
s 10
f 26/25/39 67/26/40 68/24/41 24/23/42
s 11
f 14/27/43 66/28/44 67/26/45 26/25/46
s 7
f 57/19/29 58/29/47 4/30/48 27/20/30
s 12
f 4/31/49 58/32/50 59/16/51 5/15/52
s 13
f 23/33/53 25/34/54 13/35/55 15/36/56
f 15/36/56 11/37/57 9/38/58 23/33/53
f 23/39/53 9/40/58 7/41/59 21/42/60
f 7/43/59 3/44/61 18/45/62 21/46/60
f 19/47/63 21/46/60 28/48/64
f 28/48/64 21/46/60 18/45/62 2/49/65
f 2/49/65 1/50/66 28/48/64
s 12
f 30/51/67 29/52/68 53/53/69 54/54/70
s 1
f 55/55/71 31/56/72 30/51/73 54/54/74
f 32/57/75 31/56/72 55/55/71 56/58/76
s 2
f 33/59/77 32/57/78 56/58/79 43/60/80
s 3
f 34/61/81 33/59/82 43/60/83 44/62/84
s 4
f 35/63/85 34/61/86 44/62/87 45/64/88
s 5
f 36/65/89 35/63/90 45/64/91 46/66/92
s 6
f 37/67/93 36/65/94 46/66/95 47/68/96
s 11
f 38/69/97 37/70/98 47/71/99 48/72/100
s 10
f 39/73/101 38/69/102 48/72/103 49/74/104
s 9
f 40/75/105 39/73/106 49/74/107 50/76/108
s 8
f 41/77/109 40/75/110 50/76/111 51/78/112
s 7
f 52/79/113 42/80/114 41/77/115 51/78/116
f 53/81/117 29/82/118 42/80/114 52/79/113
s 3
f 44/83/84 43/84/83 7/85/119 9/86/120
s 4
f 45/87/88 44/83/87 9/86/121 11/88/122
s 5
f 46/89/92 45/87/91 11/88/123 15/90/124
s 6
f 47/91/96 46/89/95 15/90/125 13/92/126
s 11
f 48/93/100 47/94/99 13/95/127 25/96/128
s 10
f 49/97/104 48/93/103 25/96/129 23/98/130
s 9
f 50/99/108 49/97/107 23/98/131 21/100/132
s 8
f 51/101/112 50/99/111 21/100/133 19/102/134
s 7
f 28/103/135 52/104/113 51/101/116 19/102/136
f 1/105/137 53/106/117 52/104/113 28/103/135
s 12
f 54/107/70 53/108/69 1/109/138 2/110/139
s 1
f 18/111/140 55/112/71 54/107/74 2/110/141
f 56/113/76 55/112/71 18/111/140 3/114/142
s 2
f 43/84/80 56/113/79 3/114/143 7/85/144
s 7
f 42/80/114 29/82/118 58/29/47 57/19/29
s 12
f 59/16/51 58/32/50 29/52/68 30/51/67
s 1
f 60/2/2 59/16/26 30/51/73 31/56/72
f 61/3/3 60/2/2 31/56/72 32/57/75
s 2
f 62/5/7 61/3/6 32/57/78 33/59/77
s 3
f 63/7/11 62/5/10 33/59/82 34/61/81
s 4
f 64/9/15 63/7/14 34/61/86 35/63/85
s 5
f 65/11/19 64/9/18 35/63/90 36/65/89
s 6
f 66/13/23 65/11/22 36/65/94 37/67/93
s 11
f 67/26/45 66/28/44 37/70/98 38/69/97
s 10
f 68/24/41 67/26/40 38/69/102 39/73/101
s 9
f 69/22/37 68/24/36 39/73/106 40/75/105
s 8
f 70/18/33 69/22/32 40/75/110 41/77/109
s 7
f 57/19/29 70/18/28 41/77/115 42/80/114
s 1
f 75/115/145 110/116/146 111/117/147 73/118/148
s 2
f 73/118/149 111/117/150 112/119/151 74/120/152
s 3
f 74/120/153 112/119/154 113/121/155 121/212/156
s 1
f 72/125/157 109/126/158 110/116/146 75/115/145
s 7
f 76/127/159 120/128/160 107/129/161 78/130/162
s 8
f 77/131/163 119/132/164 120/128/165 76/127/166
s 7
f 107/129/161 108/136/167 71/137/168 78/130/162
s 12
f 71/138/169 108/139/170 109/126/171 72/125/172
s 22
f 77/140/173 76/141/174 78/142/175 74/143/176
f 73/144/177 74/143/176 75/145/178
f 75/145/178 74/143/176 78/142/175 71/146/179
f 71/146/179 72/147/180 75/145/178
s 12
f 80/148/181 79/149/182 103/150/183 104/151/184
s 1
f 105/152/185 81/153/186 80/148/187 104/151/188
f 82/154/189 81/153/186 105/152/185 106/155/190
s 2
f 83/156/191 82/154/192 106/155/193 93/157/194
s 3
f 84/158/195 83/156/196 93/157/197 94/159/198
s 4
f 85/160/199 84/158/200 94/159/201 95/161/202
s 5
f 86/162/203 85/160/204 95/161/205 96/163/206
s 6
f 87/164/207 86/162/208 96/163/209 97/165/210
s 11
f 88/166/211 87/167/212 97/168/213 98/169/214
s 10
f 89/170/215 88/166/216 98/169/217 99/171/218
s 9
f 90/172/219 89/170/220 99/171/221 100/173/222
s 8
f 91/174/223 90/172/224 100/173/225 101/175/226
s 7
f 102/176/227 92/177/228 91/174/229 101/175/230
f 103/178/231 79/179/232 92/177/228 102/176/227
s 3
f 94/180/198 93/181/197 8/182/9 10/183/12
s 4
f 95/184/202 94/180/201 10/183/13 12/185/16
s 5
f 96/186/206 95/184/205 12/185/17 16/187/20
s 6
f 97/188/210 96/186/209 16/187/21 14/189/24
s 11
f 98/190/214 97/191/213 14/192/43 26/193/46
s 10
f 99/194/218 98/190/217 26/193/39 24/195/42
s 9
f 100/196/222 99/194/221 24/195/35 22/197/38
s 8
f 101/198/226 100/196/225 22/197/31 20/199/34
s 7
f 27/200/30 102/201/227 101/198/230 20/199/27
f 4/202/48 103/203/231 102/201/227 27/200/30
s 12
f 104/204/184 103/205/183 4/206/49 5/207/52
s 1
f 17/208/1 105/209/185 104/204/188 5/207/25
f 106/210/190 105/209/185 17/208/1 6/211/4
s 2
f 93/181/194 106/210/193 6/211/5 8/182/8
s 7
f 92/177/228 79/179/232 108/136/167 107/129/161
s 12
f 109/126/171 108/139/170 79/149/182 80/148/181
s 1
f 110/116/146 109/126/158 80/148/187 81/153/186
f 111/117/147 110/116/146 81/153/186 82/154/189
s 2
f 112/119/151 111/117/150 82/154/192 83/156/191
s 3
f 113/121/155 112/119/154 83/156/196 84/158/195
s 4
f 114/122/233 113/121/234 84/158/200 85/160/199
s 5
f 115/123/235 114/122/236 85/160/204 86/162/203
s 6
f 116/124/237 115/123/238 86/162/208 87/164/207
s 11
f 117/134/239 116/135/240 87/167/212 88/166/211
s 10
f 118/133/241 117/134/242 88/166/216 89/170/215
s 9
f 119/132/243 118/133/244 89/170/220 90/172/219
s 8
f 120/128/165 119/132/164 90/172/224 91/174/223
s 7
f 107/129/161 120/128/160 91/174/229 92/177/228
s 4
f 122/213/245 121/212/246 113/121/234 114/122/233
s 5
f 123/214/247 122/213/248 114/122/236 115/123/235
s 6
f 124/215/249 123/214/250 115/123/238 116/124/237
s 9
f 77/131/251 126/218/252 118/133/244 119/132/243
s 10
f 126/218/253 125/217/254 117/134/242 118/133/241
s 11
f 125/217/255 124/216/256 116/135/240 117/134/239
s 31
f 124/219/257 125/220/258 126/221/259 123/222/260
f 121/223/261 122/224/262 123/222/260 126/221/259
f 121/225/261 126/226/259 77/227/263 74/228/264
