# This file uses centimeters as units for non-parametric coordinates.

v 4.000000 1.334418 2.167527
v 4.000000 1.334418 1.832475
v 4.000000 0.891924 1.794549
v -2.166955 1.334418 -3.998278
v -1.831903 1.334418 -3.999214
v -1.793973 0.891924 -3.999321
v 4.000000 0.891924 1.867684
v -1.867116 0.891924 -3.999117
v 4.000000 0.550764 1.867684
v -1.867116 0.550764 -3.999117
v 4.000000 0.550764 1.807443
v -1.806874 0.550764 -3.999285
v 4.000000 0.085953 2.168859
v -2.168290 0.085953 -3.998274
v 4.000000 0.085953 1.831140
v -1.830567 0.085953 -3.999218
v -1.776544 1.263637 -3.999369
v 4.000000 1.263637 1.777112
v 4.000000 0.891924 2.205453
v -2.204885 0.891924 -3.998171
v 4.000000 0.891924 2.132314
v -2.131742 0.891924 -3.998375
v 4.000000 0.550764 2.132314
v -2.131742 0.550764 -3.998375
v 4.000000 0.550764 2.192559
v -2.191979 0.550764 -3.998207
v -2.222310 1.263637 -3.998123
v 4.000000 1.263637 2.222890
v -0.359452 1.334418 0.362495
v -0.122602 1.334418 0.125515
v -0.083467 1.263637 0.086357
v -0.095796 0.891924 0.098688
v -0.147496 0.891924 0.150419
v -0.147496 0.550764 0.150419
v -0.104913 0.550764 0.107809
v -0.121659 0.085953 0.124569
v -0.360394 0.085953 0.363441
v -0.377152 0.550764 0.380201
v -0.334561 0.550764 0.337593
v -0.334561 0.891924 0.337593
v -0.386266 0.891924 0.389322
v -0.398595 1.263637 0.401655
v 2.402114 1.334418 1.956919
v 2.488929 1.334418 1.633310
v 2.503272 1.263637 1.579840
v 2.498759 0.891924 1.596680
v 2.479808 0.891924 1.667320
v 2.479808 0.550764 1.667320
v 2.495414 0.550764 1.609133
v 2.489276 0.085953 1.632019
v 2.401774 0.085953 1.958206
v 2.395629 0.550764 1.981096
v 2.411235 0.550764 1.922911
v 2.411235 0.891924 1.922911
v 2.392287 0.891924 1.993551
v 2.387774 1.263637 2.010391
v -1.579839 1.263637 -2.504881
v -1.633313 1.334418 -2.490557
v -1.956956 1.334418 -2.403872
v -2.010434 1.263637 -2.389547
v -1.993588 0.891924 -2.394058
v -1.922944 0.891924 -2.412981
v -1.922944 0.550764 -2.412981
v -1.981137 0.550764 -2.397394
v -1.958241 0.085953 -2.403526
v -1.632024 0.085953 -2.490902
v -1.609132 0.550764 -2.497032
v -1.667325 0.550764 -2.481445
v -1.667325 0.891924 -2.481445
v -1.596673 0.891924 -2.500370
v -1.340966 1.334418 -0.916368
v -1.050794 1.334418 -1.083868
v -1.002843 1.263637 -1.111546
v -1.017945 0.891924 -1.102831
v -1.081285 0.891924 -1.066265
v -1.081285 0.550764 -1.066265
v -1.029111 0.550764 -1.096384
v -1.049630 0.085953 -1.084538
v -1.342118 0.085953 -0.915699
v -1.362649 0.550764 -0.903852
v -1.310472 0.550764 -0.933971
v -1.310472 0.891924 -0.933971
v -1.373815 0.891924 -0.897406
v -1.388913 1.263637 -0.888691
v 1.110782 1.263637 1.002651
v 1.083087 1.334418 1.050592
v 0.915507 1.334418 1.340719
v 0.887820 1.263637 1.388660
v 0.896537 0.891924 1.373564
v 0.933120 0.891924 1.310232
v 0.933120 0.550764 1.310232
v 0.902991 0.550764 1.362396
v 0.914840 0.085953 1.341875
v 1.083755 0.085953 1.049433
v 1.095611 0.550764 1.028915
v 1.065478 0.550764 1.081081
v 1.065478 0.891924 1.081081
v 1.102057 0.891924 1.017748
vt 0.884338 0.355153
vt 0.884336 0.383420
vt 0.884344 0.319836
vt 0.884344 0.315842
vt 0.884347 0.292921
vt 0.884348 0.288156
vt 0.884352 0.254336
vt 0.884355 0.229060
vt 0.449510 0.355153
vt 0.449514 0.383418
vt 0.449503 0.319836
vt 0.449502 0.315843
vt 0.449498 0.292922
vt 0.449497 0.288157
vt 0.449491 0.254338
vt 0.449487 0.229062
vt 0.884340 0.345472
vt 0.449508 0.345472
vt 0.884340 0.345472
vt 0.884344 0.319836
vt 0.884344 0.315842
vt 0.884347 0.292921
vt 0.884348 0.288156
vt 0.884352 0.254336
vt 0.449503 0.319836
vt 0.449508 0.345472
vt 0.449502 0.315843
vt 0.449498 0.292922
vt 0.449497 0.288157
vt 0.449491 0.254338
vt 0.884338 0.355153
vt 0.449510 0.355153
vt 0.466209 0.388186
vt 0.464151 0.428557
vt 0.469383 0.428557
vt 0.495542 0.388186
vt 0.492368 0.428557
vt 0.497600 0.428557
vt 0.469383 0.455583
vt 0.492368 0.455583
vt 0.463031 0.455583
vt 0.461517 0.487869
vt 0.498720 0.455583
vt 0.500235 0.487869
vt 0.466325 0.494016
vt 0.495426 0.494016
vt 0.469383 0.428557
vt 0.464151 0.428557
vt 0.466209 0.388186
vt 0.495542 0.388186
vt 0.497600 0.428557
vt 0.492368 0.428557
vt 0.492368 0.455583
vt 0.469383 0.455583
vt 0.498720 0.455583
vt 0.500235 0.487869
vt 0.463031 0.455583
vt 0.461516 0.487869
vt 0.495426 0.494016
vt 0.466325 0.494016
vt 0.669024 0.292159
vt 0.653826 0.292159
vt 0.653826 0.311752
vt 0.669024 0.311752
vt 0.653826 0.292159
vt 0.669024 0.292159
vt 0.669024 0.311752
vt 0.653826 0.311752
vt 0.593846 0.355153
vt 0.593846 0.383419
vt 0.593846 0.355153
vt 0.593846 0.345472
vt 0.593846 0.319836
vt 0.593846 0.315842
vt 0.593846 0.292921
vt 0.593846 0.288157
vt 0.593846 0.254337
vt 0.593846 0.229061
vt 0.593846 0.254337
vt 0.593846 0.288157
vt 0.593846 0.292921
vt 0.593846 0.315842
vt 0.593846 0.319836
vt 0.593846 0.345472
vt 0.593846 0.355153
vt 0.593846 0.383419
vt 0.593846 0.355153
vt 0.593846 0.345472
vt 0.593846 0.319836
vt 0.593846 0.315842
vt 0.593846 0.292921
vt 0.593846 0.288157
vt 0.593846 0.254338
vt 0.593846 0.229062
vt 0.593846 0.254338
vt 0.593846 0.288157
vt 0.593846 0.292921
vt 0.593846 0.315842
vt 0.593846 0.319836
vt 0.593846 0.345472
vt 0.742650 0.345472
vt 0.742650 0.355153
vt 0.742650 0.355153
vt 0.742650 0.383419
vt 0.742650 0.345472
vt 0.742650 0.319836
vt 0.742650 0.315842
vt 0.742650 0.292921
vt 0.742650 0.288156
vt 0.742650 0.229061
vt 0.742650 0.254336
vt 0.742650 0.254336
vt 0.742650 0.288156
vt 0.742650 0.292921
vt 0.742650 0.315842
vt 0.742650 0.319836
vt 0.742650 0.355153
vt 0.742650 0.383419
vt 0.593846 0.355153
vt 0.742650 0.345472
vt 0.742650 0.319836
vt 0.742650 0.315842
vt 0.742650 0.292921
vt 0.742650 0.288156
vt 0.742650 0.254337
vt 0.742650 0.229061
vt 0.742650 0.254337
vt 0.742650 0.288156
vt 0.742650 0.292921
vt 0.742650 0.315842
vt 0.742650 0.319836
vt 0.742650 0.345472
vt 0.742650 0.345472
vt 0.449677 0.355153
vt 0.449677 0.355153
vt 0.449679 0.383419
vt 0.449676 0.345472
vt 0.449674 0.319836
vt 0.449674 0.315842
vt 0.449671 0.292921
vt 0.449671 0.288157
vt 0.449666 0.229061
vt 0.449669 0.254337
vt 0.449669 0.254337
vt 0.449671 0.288157
vt 0.449671 0.292921
vt 0.449674 0.315842
vt 0.449674 0.319836
vt 0.742650 0.319836
vt 0.449676 0.345472
vt 0.742650 0.315842
vt 0.742650 0.292921
vt 0.742650 0.288157
vt 0.742650 0.254337
vt 0.742650 0.254337
vt 0.742650 0.229061
vt 0.742650 0.288157
vt 0.742650 0.292921
vt 0.742650 0.315842
vt 0.742650 0.319836
vt 0.742650 0.345472
vt 0.742650 0.383419
vt 0.742650 0.355153
vt 0.742650 0.355153
vt 0.593846 0.355153
vt 0.593846 0.383419
vt 0.742650 0.355153
vt 0.593846 0.345472
vt 0.593846 0.319836
vt 0.593846 0.315842
vt 0.593846 0.292921
vt 0.593846 0.288156
vt 0.593846 0.229061
vt 0.593846 0.254337
vt 0.593846 0.254337
vt 0.593846 0.288156
vt 0.593846 0.292921
vt 0.593846 0.315842
vt 0.593846 0.319836
vt 0.593846 0.345472
vn 0.865072 -0.046852 -0.499456
vn 0.964881 -0.046846 -0.258477
vn 0.920172 0.304170 -0.246503
vn 0.824992 0.304155 -0.476316
vn 0.000000 -1.000000 0.000000
vn 0.000000 -1.000000 0.000000
vn 0.000000 -1.000000 0.000000
vn 0.000000 -1.000000 0.000000
vn 0.965939 0.000000 -0.258772
vn 0.965939 0.000000 -0.258772
vn 0.866022 0.000000 -0.500005
vn 0.866022 0.000000 -0.500005
vn 0.000000 1.000000 -0.000000
vn 0.000000 1.000000 -0.000000
vn 0.000000 1.000000 -0.000000
vn 0.000000 1.000000 -0.000000
vn 0.964687 -0.050918 -0.258431
vn 0.964687 -0.050918 -0.258431
vn 0.864900 -0.050910 -0.499357
vn 0.864900 -0.050910 -0.499357
vn 0.000000 -1.000000 0.000000
vn 0.000000 -1.000000 0.000000
vn 0.000000 -1.000000 -0.000000
vn 0.000000 -1.000000 -0.000000
vn 0.760829 0.616114 -0.203819
vn 0.682142 0.616094 -0.393841
vn -0.964868 -0.046855 0.258523
vn -0.865072 -0.046856 0.499455
vn -0.824992 0.304158 0.476315
vn -0.920163 0.304164 0.246546
vn 0.000000 -1.000000 0.000000
vn 0.000000 -1.000000 0.000000
vn 0.000000 -1.000000 -0.000000
vn 0.000000 -1.000000 -0.000000
vn -0.866022 0.000000 0.500006
vn -0.866022 0.000000 0.500006
vn -0.965931 0.000000 0.258799
vn -0.965931 0.000000 0.258799
vn 0.000000 1.000000 -0.000000
vn 0.000000 1.000000 -0.000000
vn 0.000000 1.000000 0.000000
vn 0.000000 1.000000 0.000000
vn -0.964677 -0.050926 0.258468
vn -0.864899 -0.050928 0.499356
vn -0.864899 -0.050928 0.499356
vn -0.964677 -0.050926 0.258468
vn -0.682138 0.616101 0.393837
vn -0.760821 0.616113 0.203853
vn 0.000000 1.000000 0.000000
vn 0.000000 1.000000 0.000000
vn 0.000000 1.000000 0.000000
vn 0.000000 1.000000 0.000000
vn -0.002794 0.000002 -0.999996
vn -0.002794 0.000002 -0.999996
vn -0.002800 -0.000000 -0.999996
vn -0.002798 -0.000000 -0.999996
vn -0.002803 -0.000001 -0.999996
vn -0.002801 -0.000003 -0.999996
vn -0.002803 -0.000003 -0.999996
vn -0.002797 0.000000 -0.999996
vn -0.002801 -0.000005 -0.999996
vn -0.002798 -0.000001 -0.999996
vn -0.002789 0.000003 -0.999996
vn -0.002793 0.000001 -0.999996
vn -0.002795 -0.000000 -0.999996
vn -0.002795 -0.000003 -0.999996
vn 1.000000 0.000000 0.000000
vn 1.000000 0.000000 0.000000
vn 1.000000 0.000000 0.000000
vn 1.000000 0.000000 0.000000
vn 1.000000 0.000000 0.000000
vn 1.000000 0.000000 0.000000
vn 1.000000 0.000000 0.000000
vn 1.000000 0.000000 0.000000
vn 1.000000 0.000000 0.000000
vn 1.000000 0.000000 0.000000
vn 1.000000 0.000000 0.000000
vn 1.000000 0.000000 0.000000
vn 1.000000 0.000000 0.000000
vn 1.000000 0.000000 0.000000
vn 0.000000 1.000000 0.000000
vn 0.000000 1.000000 0.000000
vn 0.000000 1.000000 0.000000
vn 0.000000 1.000000 0.000000
vn 0.476394 0.304154 -0.824948
vn 0.393903 0.616097 -0.682103
vn 0.204013 0.616091 -0.760796
vn 0.246737 0.304152 -0.920115
vn 0.258724 -0.046854 -0.964814
vn 0.499537 -0.046855 -0.865024
vn 0.000000 -1.000000 -0.000001
vn 0.000000 -1.000000 -0.000001
vn 0.000000 -1.000000 0.000000
vn 0.000000 -1.000000 0.000000
vn 0.500086 0.000000 -0.865976
vn 0.500086 0.000000 -0.865976
vn 0.259008 0.000000 -0.965875
vn 0.259008 0.000000 -0.965875
vn 0.000000 1.000000 0.000000
vn 0.000000 1.000000 0.000000
vn 0.000000 1.000000 0.000000
vn 0.000000 1.000000 0.000000
vn 0.499438 -0.050912 -0.864853
vn 0.499438 -0.050912 -0.864853
vn 0.258673 -0.050913 -0.964622
vn 0.258673 -0.050913 -0.964622
vn 0.000000 -1.000000 0.000000
vn 0.000000 -1.000000 0.000000
vn 0.000000 -1.000000 0.000000
vn 0.000000 -1.000000 0.000000
vn -0.499438 -0.050919 0.864852
vn -0.499438 -0.050919 0.864852
vn -0.258673 -0.050922 0.964622
vn -0.258673 -0.050922 0.964622
vn 0.000000 1.000000 -0.000000
vn 0.000000 1.000000 -0.000000
vn 0.000000 1.000000 0.000000
vn 0.000000 1.000000 0.000000
vn -0.259008 0.000000 0.965875
vn -0.259008 0.000000 0.965875
vn -0.500087 0.000000 0.865975
vn -0.500087 0.000000 0.865975
vn 0.000000 -1.000000 0.000000
vn 0.000000 -1.000000 0.000000
vn 0.000000 -1.000000 0.000000
vn 0.000000 -1.000000 0.000000
vn -0.476393 0.304155 0.824948
vn -0.499537 -0.046851 0.865025
vn -0.258724 -0.046852 0.964814
vn -0.246738 0.304152 0.920115
vn -0.393903 0.616095 0.682105
vn -0.204016 0.616088 0.760798
vn 0.000000 1.000000 0.000000
vn 0.000000 1.000000 0.000000
vn 0.103263 0.612793 -0.783467
vn 0.124581 0.301780 -0.945203
vn 0.130532 -0.046455 -0.990355
vn 0.000000 -1.000000 0.000000
vn 0.000000 -1.000000 0.000000
vn 0.130672 0.000000 -0.991426
vn 0.130672 0.000000 -0.991426
vn 0.000000 1.000000 0.000000
vn 0.000000 1.000000 0.000000
vn 0.130507 -0.050479 -0.990162
vn 0.130507 -0.050479 -0.990162
vn 0.000000 -1.000000 0.000000
vn 0.000000 -1.000000 0.000000
vn -0.130507 -0.050488 0.990161
vn -0.130507 -0.050488 0.990161
vn 0.000000 1.000000 -0.000001
vn 0.000000 1.000000 -0.000001
vn -0.130672 0.000000 0.991426
vn -0.130672 0.000000 0.991426
vn 0.000000 -1.000000 0.000000
vn 0.000000 -1.000000 0.000000
vn -0.130533 -0.046455 0.990355
vn -0.124581 0.301783 0.945202
vn -0.103264 0.612798 0.783464
vn 0.945212 0.301822 -0.124413
vn 0.783438 0.612854 -0.103122
vn 0.000000 1.000000 0.000000
vn 0.000000 1.000000 0.000000
vn -0.945202 0.301818 0.124499
vn -0.783428 0.612856 0.103188
vn -0.990366 -0.046455 0.130450
vn 0.000000 -1.000000 -0.000000
vn 0.000000 -1.000000 -0.000000
vn -0.991439 0.000000 0.130573
vn -0.991439 0.000000 0.130573
vn 0.000000 1.000000 0.000000
vn 0.000000 1.000000 0.000000
vn -0.990173 -0.050489 0.130417
vn -0.990173 -0.050489 0.130417
vn 0.000000 -1.000000 0.000000
vn 0.000000 -1.000000 0.000000
vn 0.990183 -0.050489 -0.130339
vn 0.990183 -0.050489 -0.130339
vn 0.000000 1.000000 -0.000000
vn 0.000000 1.000000 -0.000000
vn 0.991446 0.000000 -0.130517
vn 0.991446 0.000000 -0.130517
vn 0.000000 -1.000000 0.000000
vn 0.000000 -1.000000 0.000000
vn 0.990379 -0.046445 -0.130356
vn 0.000000 1.000000 0.000000
vn 0.000000 1.000000 0.000000
vn 0.556927 0.616098 -0.557006
vn 0.673558 0.304154 -0.673655
vn 0.706279 -0.046858 -0.706381
vn 0.000000 -1.000000 -0.000001
vn 0.000000 -1.000000 -0.000001
vn 0.707056 0.000000 -0.707158
vn 0.707056 0.000000 -0.707158
vn 0.000000 1.000000 0.000000
vn 0.000000 1.000000 0.000000
vn 0.706139 -0.050909 -0.706241
vn 0.706139 -0.050909 -0.706241
vn 0.000000 -1.000000 -0.000000
vn 0.000000 -1.000000 -0.000000
vn -0.706138 -0.050922 0.706241
vn -0.706138 -0.050922 0.706241
vn 0.000000 1.000000 -0.000000
vn 0.000000 1.000000 -0.000000
vn -0.707056 0.000000 0.707158
vn -0.707056 0.000000 0.707158
vn 0.000000 -1.000000 0.000000
vn 0.000000 -1.000000 0.000000
vn -0.706279 -0.046855 0.706381
vn -0.673556 0.304161 0.673653
vn -0.556921 0.616108 0.557001
s 1
f 74/179/1 70/116/2 57/101/3 73/180/4
s 2
f 69/115/5 70/116/6 74/179/7 75/178/8
s 3
f 68/114/9 69/115/10 75/178/11 76/177/12
s 4
f 67/113/13 68/114/14 76/177/15 77/176/16
s 5
f 66/112/17 67/113/18 77/176/19 78/175/20
s 6
f 65/110/21 66/112/22 78/175/23 79/173/24
s 1
f 57/101/3 58/102/25 72/119/26 73/180/4
s 7
f 61/106/27 83/169/28 84/168/29 60/105/30
s 8
f 82/170/31 83/169/32 61/106/33 62/107/34
s 9
f 81/171/35 82/170/36 62/107/37 63/108/38
s 10
f 80/172/39 81/171/40 63/108/41 64/109/42
s 11
f 65/111/43 79/174/44 80/172/45 64/109/46
s 7
f 60/105/30 84/168/29 71/165/47 59/103/48
s 12
f 71/166/49 72/119/50 58/102/51 59/104/52
s 13
f 14/33/53 26/34/54 24/35/55 16/36/56
f 10/37/57 12/38/58 16/36/56 24/35/55
f 10/61/57 24/62/55 22/63/59 8/64/60
f 22/39/59 20/41/61 27/42/62 8/40/60
f 6/43/63 8/40/60 17/44/64
f 17/44/64 8/40/60 27/42/62 4/45/65
f 4/45/65 5/46/66 17/44/64
s 14
f 23/47/67 25/48/68 13/49/69 15/50/70
f 15/50/70 11/51/71 9/52/72 23/47/67
f 23/65/67 9/66/72 7/67/73 21/68/74
f 7/53/73 3/55/75 18/56/76 21/54/74
f 19/57/77 21/54/74 28/58/78
f 28/58/78 21/54/74 18/56/76 2/59/79
f 2/59/79 1/60/80 28/58/78
s 12
f 44/87/81 86/164/82 87/162/83 43/86/84
s 1
f 85/133/85 86/164/86 44/87/87 45/88/88
f 46/89/89 98/149/90 85/133/85 45/88/88
s 2
f 97/151/91 98/149/92 46/89/93 47/90/94
s 3
f 96/152/95 97/151/96 47/90/97 48/91/98
s 4
f 95/153/99 96/152/100 48/91/101 49/92/102
s 5
f 94/154/103 95/153/104 49/92/105 50/93/106
s 6
f 93/156/107 94/154/108 50/93/109 51/94/110
s 11
f 92/157/111 93/155/112 51/95/113 52/96/114
s 10
f 52/96/115 53/97/116 91/158/117 92/157/118
s 9
f 53/97/119 54/98/120 90/159/121 91/158/122
s 8
f 54/98/123 55/99/124 89/160/125 90/159/126
s 7
f 88/161/127 89/160/128 55/99/129 56/100/130
f 87/163/131 88/161/127 56/100/130 43/85/132
s 12
f 44/87/81 43/86/84 1/10/133 2/9/134
s 1
f 45/88/88 44/87/87 2/9/135 18/18/136
f 3/11/137 46/89/89 45/88/88 18/18/136
s 2
f 47/90/94 46/89/93 3/11/138 7/12/139
s 3
f 48/91/98 47/90/97 7/12/140 9/13/141
s 4
f 49/92/102 48/91/101 9/13/142 11/14/143
s 5
f 50/93/106 49/92/105 11/14/144 15/15/145
s 6
f 51/94/110 50/93/109 15/15/146 13/16/147
s 11
f 52/96/114 51/95/113 13/30/148 25/29/149
s 10
f 25/29/150 23/28/151 53/97/116 52/96/115
s 9
f 23/28/152 21/27/153 54/98/120 53/97/119
s 8
f 21/27/154 19/25/155 55/99/124 54/98/123
s 7
f 56/100/130 55/99/129 19/25/156 28/26/157
f 43/85/132 56/100/130 28/26/157 1/32/158
s 1
f 17/17/159 5/1/160 58/102/25 57/101/3
s 12
f 59/104/52 58/102/51 5/1/161 4/2/162
s 7
f 27/19/163 60/105/30 59/103/48 4/31/164
f 20/20/165 61/106/27 60/105/30 27/19/163
s 8
f 62/107/34 61/106/33 20/20/166 22/21/167
s 9
f 63/108/38 62/107/37 22/21/168 24/22/169
s 10
f 64/109/42 63/108/41 24/22/170 26/23/171
s 11
f 14/24/172 65/111/43 64/109/46 26/23/173
s 6
f 14/8/174 16/7/175 66/112/22 65/110/21
s 5
f 16/7/176 12/6/177 67/113/18 66/112/17
s 4
f 12/6/178 10/5/179 68/114/14 67/113/13
s 3
f 10/5/180 8/4/181 69/115/10 68/114/9
s 2
f 8/4/182 6/3/183 70/116/6 69/115/5
s 1
f 57/101/3 70/116/2 6/3/184 17/17/159
s 12
f 71/118/49 29/70/185 30/71/186 72/167/50
s 1
f 73/120/4 72/167/26 30/71/187 31/72/188
f 32/73/189 74/121/1 73/120/4 31/72/188
s 2
f 75/122/8 74/121/7 32/73/190 33/74/191
s 3
f 76/123/12 75/122/11 33/74/192 34/75/193
s 4
f 77/124/16 76/123/15 34/75/194 35/76/195
s 5
f 78/125/20 77/124/19 35/76/196 36/77/197
s 6
f 79/126/24 78/125/23 36/77/198 37/78/199
s 11
f 80/128/45 79/127/44 37/79/200 38/80/201
s 10
f 38/80/202 39/81/203 81/129/40 80/128/39
s 9
f 39/81/204 40/82/205 82/130/36 81/129/35
s 8
f 40/82/206 41/83/207 83/131/32 82/130/31
s 7
f 84/132/29 83/131/28 41/83/208 42/84/209
f 71/117/47 84/132/29 42/84/209 29/69/210
s 1
f 31/72/188 30/71/187 86/134/86 85/150/85
s 12
f 30/71/186 29/70/185 87/136/83 86/134/82
s 7
f 29/69/210 42/84/209 88/137/127 87/135/131
f 42/84/209 41/83/208 89/138/128 88/137/127
s 8
f 90/139/126 89/138/125 41/83/207 40/82/206
s 9
f 91/140/122 90/139/121 40/82/205 39/81/204
s 10
f 92/141/118 91/140/117 39/81/203 38/80/202
s 11
f 38/80/201 37/79/200 93/143/112 92/141/111
s 6
f 37/78/199 36/77/198 94/144/108 93/142/107
s 5
f 36/77/197 35/76/196 95/145/104 94/144/103
s 4
f 35/76/195 34/75/194 96/146/100 95/145/99
s 3
f 34/75/193 33/74/192 97/147/96 96/146/95
s 2
f 33/74/191 32/73/190 98/148/92 97/147/91
s 1
f 85/150/85 98/148/90 32/73/189 31/72/188
