# This file uses centimeters as units for non-parametric coordinates.

v 3.000000 -2.000000 -1.999996
v -2.998074 -2.001712 -2.000000
v 3.000000 2.000000 -2.000000
v -2.994225 -1.670091 -2.000004
v 3.000000 2.000000 2.000000
v -2.994221 -1.670091 2.000000
v 3.000000 -2.000000 2.000000
v -2.998074 -2.001712 2.000000
v 2.500320 2.000000 2.000000
v 2.003853 1.664312 2.000000
v 2.500320 1.664312 2.000000
v -2.497108 -1.338897 2.000000
v -1.994221 -1.005778 2.000000
v -1.497753 -0.670091 2.000000
v -0.994221 -0.335045 2.000000
v -0.497108 -0.003852 2.000000
v 0.005779 0.329267 2.000000
v 0.502247 0.664955 2.000000
v 1.003853 1.000000 2.000000
v 1.500961 1.331193 2.000000
v 2.003853 1.331193 2.000000
v 1.500961 1.000000 2.000000
v 1.002892 0.664955 2.000000
v 0.502247 0.329267 2.000000
v 0.005779 -0.003852 2.000000
v -0.497108 -0.335045 2.000000
v -0.996147 -0.670091 2.000000
v -1.497753 -1.005778 2.000000
v -1.994221 -1.338897 2.000000
v -2.497108 -1.670091 2.000000
v 2.500322 2.000000 -2.000004
v 2.003855 1.664312 -2.000004
v 1.500963 1.331193 -2.000004
v 1.003855 1.000000 -2.000004
v 0.502245 0.664955 -2.000004
v 0.005777 0.329267 -2.000004
v -0.497108 -0.003852 -2.000004
v -0.994225 -0.335045 -2.000004
v -1.497757 -0.670091 -2.000004
v -1.994225 -1.005778 -2.000004
v -2.497108 -1.338897 -2.000004
v -2.497108 -1.670091 -2.000004
v -1.994225 -1.338897 -2.000004
v -1.497757 -1.005778 -2.000004
v -0.996147 -0.670091 -2.000004
v -0.497108 -0.335045 -2.000004
v 0.005777 -0.003852 -2.000004
v 0.502245 0.329267 -2.000004
v 1.002893 0.664955 -2.000004
v 1.500963 1.000000 -2.000004
v 2.003855 1.331193 -2.000004
v 2.500322 1.664312 -2.000004
v -3.249905 -2.001712 -0.000000
v 2.248489 2.000000 1.000000
v 2.248489 1.664312 1.000000
v 1.752022 1.664312 1.000000
v 1.752022 1.331193 1.000000
v 1.249130 1.331193 1.000000
v 1.249130 1.000000 1.000000
v 0.752022 1.000000 1.000000
v 0.751060 0.664955 1.000000
v 0.250416 0.664955 1.000000
v 0.250416 0.329267 1.000000
v -0.246052 0.329267 1.000000
v -0.246052 -0.003852 1.000000
v -0.748940 -0.003852 1.000000
v -0.748940 -0.335045 1.000000
v -1.246056 -0.335045 1.000000
v -1.247978 -0.670091 1.000000
v -1.749588 -0.670091 1.000000
v -1.749588 -1.005778 1.000000
v -2.246056 -1.005778 1.000000
v -2.246056 -1.338897 1.000000
v -2.748940 -1.338897 1.000000
v -2.748940 -1.670091 1.000000
v -3.246056 -1.670091 1.000000
v -3.249905 -2.001712 1.000000
v -3.249905 -2.001712 -1.000000
v -3.246056 -1.670091 -1.000004
v -2.748940 -1.670091 -1.000004
v -2.748940 -1.338897 -1.000004
v -2.246056 -1.338897 -1.000004
v -2.246056 -1.005778 -1.000004
v -1.749588 -1.005778 -1.000004
v -1.749588 -0.670091 -1.000004
v -1.247978 -0.670091 -1.000004
v -1.246056 -0.335045 -1.000004
v -0.748940 -0.335045 -1.000004
v -0.748940 -0.003852 -1.000004
v -0.246052 -0.003852 -1.000004
v -0.246052 0.329267 -1.000004
v 0.250416 0.329267 -1.000004
v 0.250416 0.664955 -1.000004
v 0.751060 0.664955 -1.000004
v 0.752022 1.000000 -1.000004
v 1.249130 1.000000 -1.000004
v 1.249130 1.331193 -1.000004
v 1.752022 1.331193 -1.000004
v 1.752022 1.664312 -1.000004
v 2.248489 1.664312 -1.000004
v 2.248489 2.000000 -1.000004
vt 0.450634 0.554986
vt 0.884552 0.554876
vt 0.884272 0.578720
vt 0.450617 0.842585
vt 0.884677 0.842582
vt 0.451022 0.578716
vt 0.450742 0.554872
vt 0.884661 0.554983
vt 0.812326 0.554977
vt 0.522964 0.554978
vt 0.522964 0.842590
vt 0.812326 0.842591
vt 0.848528 0.842583
vt 0.812611 0.818448
vt 0.848527 0.818447
vt 0.486986 0.602527
vt 0.523368 0.626477
vt 0.559285 0.650612
vt 0.595713 0.674701
vt 0.631677 0.698513
vt 0.668059 0.722463
vt 0.703976 0.746598
vt 0.740265 0.770686
vt 0.776229 0.794498
vt 0.812610 0.794497
vt 0.776228 0.770685
vt 0.740194 0.746596
vt 0.703975 0.722462
vt 0.668058 0.698511
vt 0.631676 0.674700
vt 0.595573 0.650611
vt 0.559284 0.626476
vt 0.523366 0.602526
vt 0.486985 0.578714
vt 0.486765 0.842586
vt 0.522683 0.818452
vt 0.559065 0.794501
vt 0.595028 0.770690
vt 0.631317 0.746601
vt 0.667235 0.722466
vt 0.703616 0.698516
vt 0.739581 0.674705
vt 0.776009 0.650616
vt 0.811926 0.626481
vt 0.848308 0.602531
vt 0.848309 0.578719
vt 0.811928 0.602530
vt 0.776010 0.626480
vt 0.739721 0.650615
vt 0.703618 0.674704
vt 0.667236 0.698515
vt 0.631319 0.722465
vt 0.595099 0.746600
vt 0.559066 0.770689
vt 0.522684 0.794500
vt 0.486767 0.818450
vt 0.081056 0.311913
vt 0.371019 0.311904
vt 0.371019 0.335783
vt 0.081055 0.335782
vt 0.371017 0.515082
vt 0.371019 0.550865
vt 0.081056 0.550837
vt 0.081055 0.515031
vt 0.371020 0.455266
vt 0.371019 0.491125
vt 0.081055 0.491115
vt 0.081055 0.455264
vt 0.081055 0.431377
vt 0.081055 0.395524
vt 0.371020 0.395525
vt 0.371020 0.431375
vt 0.081055 0.371636
vt 0.371020 0.371634
vt 0.081056 0.311913
vt 0.371019 0.311904
vt 0.371019 0.335783
vt 0.081055 0.335782
vt 0.371017 0.515082
vt 0.371019 0.550865
vt 0.081056 0.550837
vt 0.081055 0.515030
vt 0.371020 0.455266
vt 0.371019 0.491125
vt 0.081055 0.491115
vt 0.081055 0.455264
vt 0.081055 0.431377
vt 0.081055 0.395524
vt 0.371020 0.395525
vt 0.371020 0.431375
vt 0.081055 0.371636
vt 0.371020 0.371634
vt 0.081056 0.311913
vt 0.371019 0.311904
vt 0.371019 0.335783
vt 0.081055 0.335782
vt 0.371017 0.515082
vt 0.371019 0.550865
vt 0.081056 0.550837
vt 0.081055 0.515030
vt 0.371020 0.455266
vt 0.371019 0.491125
vt 0.081055 0.491115
vt 0.081055 0.455264
vt 0.081055 0.431377
vt 0.081055 0.395524
vt 0.371020 0.395525
vt 0.371020 0.431375
vt 0.081055 0.371636
vt 0.371020 0.371634
vt 0.040750 0.994826
vt 0.184241 0.994826
vt 0.184241 0.779589
vt 0.040750 0.779589
vt 0.226038 0.311909
vt 0.112495 0.779589
vt 0.298527 0.515069
vt 0.298528 0.491123
vt 0.298529 0.455266
vt 0.298529 0.431376
vt 0.298529 0.395525
vt 0.298528 0.371634
vt 0.298528 0.335783
vt 0.298529 0.311906
vt 0.298528 0.550858
vt 0.298527 0.515069
vt 0.298528 0.491123
vt 0.298529 0.455266
vt 0.298529 0.431376
vt 0.298529 0.395525
vt 0.298528 0.371634
vt 0.298528 0.335783
vt 0.298529 0.311906
vt 0.298528 0.550858
vt 0.298527 0.515069
vt 0.298528 0.491123
vt 0.298529 0.455266
vt 0.298529 0.431376
vt 0.298529 0.395525
vt 0.298528 0.371634
vt 0.298528 0.335783
vt 0.298529 0.311907
vt 0.148368 0.779589
vt 0.153547 0.311911
vt 0.076622 0.779589
vt 0.153546 0.335782
vt 0.153546 0.371635
vt 0.153546 0.395524
vt 0.153546 0.431377
vt 0.153546 0.455265
vt 0.153546 0.491117
vt 0.153545 0.515043
vt 0.153547 0.311910
vt 0.153547 0.550844
vt 0.153546 0.335783
vt 0.153546 0.371635
vt 0.153546 0.395524
vt 0.153546 0.431377
vt 0.153546 0.455265
vt 0.153546 0.491117
vt 0.153545 0.515043
vt 0.153547 0.311910
vt 0.153547 0.550844
vt 0.153546 0.335783
vt 0.153546 0.371635
vt 0.153546 0.395524
vt 0.153546 0.431377
vt 0.153546 0.455265
vt 0.153546 0.491117
vt 0.153545 0.515043
vn 0.000002 -0.000003 -1.000000
vn 0.000001 -0.000012 -1.000000
vn 0.000001 -0.000012 -1.000000
vn 0.000001 -0.000007 -1.000000
vn 0.000001 -0.000002 -1.000000
vn 0.000001 -0.000002 -1.000000
vn 0.000001 -0.000002 -1.000000
vn 0.000001 -0.000002 -1.000000
vn 0.000001 -0.000002 -1.000000
vn 0.000001 -0.000002 -1.000000
vn 0.000001 -0.000002 -1.000000
vn 0.000001 -0.000002 -1.000000
vn 0.000001 -0.000002 -1.000000
vn 0.000001 -0.000002 -1.000000
vn 0.000001 -0.000002 -1.000000
vn 0.000001 -0.000002 -1.000000
vn 0.000001 -0.000002 -1.000000
vn 0.000001 -0.000002 -1.000000
vn 0.000001 -0.000002 -1.000000
vn 0.000001 -0.000002 -1.000000
vn 0.000001 -0.000002 -1.000000
vn 0.000005 -0.000001 -1.000000
vn 0.000008 -0.000001 -1.000000
vn 0.000008 -0.000001 -1.000000
vn 0.000001 -0.000002 -1.000000
vn 0.000001 -0.000002 -1.000000
vn -0.000000 -0.000000 1.000000
vn -0.000000 -0.000000 1.000000
vn -0.000000 -0.000000 1.000000
vn -0.000000 -0.000000 1.000000
vn -0.000000 -0.000000 1.000000
vn -0.000000 -0.000000 1.000000
vn -0.000000 -0.000000 1.000000
vn -0.000000 -0.000000 1.000000
vn -0.000000 -0.000000 1.000000
vn -0.000000 -0.000000 1.000000
vn -0.000000 -0.000000 1.000000
vn -0.000000 -0.000000 1.000000
vn -0.000000 -0.000000 1.000000
vn -0.000000 -0.000000 1.000000
vn -0.000000 -0.000000 1.000000
vn -0.000000 -0.000000 1.000000
vn -0.000000 -0.000000 1.000000
vn -0.000000 -0.000000 1.000000
vn -0.000000 -0.000000 1.000000
vn -0.000000 -0.000000 1.000000
vn -0.000000 -0.000000 1.000000
vn -0.000000 -0.000000 1.000000
vn -0.000000 -0.000000 1.000000
vn -0.000000 -0.000000 1.000000
vn -0.000000 -0.000000 1.000000
vn -0.000000 -0.000000 1.000000
vn 1.000000 -0.000000 0.000000
vn 1.000000 -0.000000 0.000000
vn 1.000000 -0.000000 0.000000
vn 1.000000 -0.000000 0.000000
vn -0.698057 0.710793 0.086545
vn -0.992398 0.002847 0.123038
vn -0.969720 0.002782 0.244205
vn -0.684743 0.708090 0.172440
vn 0.000000 1.000000 0.000000
vn -0.699053 0.709798 0.086669
vn -0.685698 0.707107 0.172680
vn -0.685698 0.707107 0.172680
vn 0.000000 1.000000 0.000000
vn 0.000000 1.000000 0.000000
vn -0.699053 0.709798 0.086669
vn 0.000000 1.000000 0.000000
vn -0.699053 0.709798 0.086669
vn -0.685698 0.707107 0.172680
vn 0.000000 1.000000 0.000000
vn 0.000000 1.000000 0.000000
vn 0.000000 1.000000 0.000000
vn -0.992402 0.000000 0.123038
vn -0.969723 0.000000 0.244206
vn -0.992402 0.000000 0.123038
vn -0.969723 0.000000 0.244206
vn -0.992402 0.000000 0.123038
vn -0.969723 0.000000 0.244206
vn -0.697059 0.711787 0.086422
vn -0.992386 0.005697 0.123037
vn -0.969708 0.005570 0.244204
vn -0.683785 0.709073 0.172200
vn -0.685698 0.707107 0.172680
vn 0.000000 1.000000 0.000000
vn 0.000000 1.000000 0.000000
vn -0.699053 0.709798 0.086669
vn -0.685698 0.707107 0.172680
vn 0.000000 1.000000 0.000000
vn 0.000000 1.000000 0.000000
vn -0.699053 0.709798 0.086669
vn 0.000000 1.000000 0.000000
vn -0.699053 0.709798 0.086669
vn -0.685698 0.707107 0.172680
vn 0.000000 1.000000 0.000000
vn 0.000000 1.000000 -0.000000
vn 0.000000 1.000000 -0.000000
vn -0.992402 0.000000 0.123038
vn -0.969723 0.000000 0.244206
vn -0.992402 0.000000 0.123038
vn -0.969723 0.000000 0.244206
vn -0.992402 0.000000 0.123038
vn -0.969723 0.000000 0.244206
vn -0.823067 0.563897 0.067683
vn -0.992336 0.011521 0.123031
vn -0.969661 0.011260 0.244193
vn -0.681826 0.711077 0.171706
vn -0.685697 0.707107 0.172682
vn 0.000000 1.000000 -0.000000
vn 0.000000 1.000000 -0.000000
vn -0.699053 0.709798 0.086670
vn -0.685697 0.707107 0.172682
vn 0.000000 1.000000 0.000000
vn 0.000000 1.000000 0.000000
vn -0.699053 0.709798 0.086670
vn 0.000000 1.000000 0.000000
vn -0.699053 0.709798 0.086669
vn -0.685698 0.707107 0.172680
vn 0.000000 1.000000 0.000000
vn 0.000000 1.000000 0.000000
vn 0.000000 1.000000 0.000000
vn -0.992402 0.000000 0.123040
vn -0.969722 0.000000 0.244210
vn -0.992402 0.000000 0.123040
vn -0.969722 0.000000 0.244210
vn -0.992402 0.000000 0.123038
vn -0.969723 0.000000 0.244206
vn 0.000276 -1.000000 0.000014
vn 0.000276 -1.000000 0.000014
vn 0.000278 -1.000000 -0.000019
vn 0.000275 -1.000000 0.000007
vn 0.000280 -1.000000 -0.000036
vn 0.000274 -1.000000 -0.000000
vn 0.000285 -1.000000 -0.000072
vn -0.699053 0.709798 -0.086669
vn -0.685698 0.707107 -0.172681
vn -0.969723 0.000000 -0.244208
vn -0.992402 0.000000 -0.123039
vn -0.685698 0.707107 -0.172681
vn -0.699053 0.709798 -0.086669
vn 0.000000 1.000000 0.000000
vn 0.000000 1.000000 0.000000
vn -0.969723 0.000000 -0.244208
vn -0.992402 0.000000 -0.123039
vn 0.000000 1.000000 0.000000
vn 0.000000 1.000000 0.000000
vn -0.685698 0.707107 -0.172681
vn -0.699053 0.709798 -0.086669
vn -0.969723 0.000000 -0.244208
vn -0.992402 0.000000 -0.123039
vn 0.000000 1.000000 0.000000
vn 0.000000 1.000000 0.000000
vn -0.684743 0.708090 -0.172441
vn -0.698057 0.710793 -0.086546
vn -0.969719 0.002782 -0.244207
vn -0.992398 0.002847 -0.123038
vn -0.685698 0.707107 -0.172679
vn -0.699053 0.709798 -0.086668
vn 0.000000 1.000000 0.000000
vn 0.000000 1.000000 0.000000
vn -0.969724 0.000000 -0.244205
vn -0.992402 0.000000 -0.123037
vn -0.685698 0.707107 -0.172679
vn -0.699053 0.709798 -0.086668
vn 0.000000 1.000000 0.000000
vn 0.000000 1.000000 0.000000
vn -0.969724 0.000000 -0.244205
vn -0.992402 0.000000 -0.123037
vn 0.000000 1.000000 0.000000
vn 0.000000 1.000000 0.000000
vn -0.685698 0.707107 -0.172680
vn -0.699053 0.709798 -0.086669
vn -0.969723 0.000000 -0.244206
vn -0.992402 0.000000 -0.123038
vn 0.000000 1.000000 0.000000
vn 0.000000 1.000000 0.000000
vn -0.683787 0.709071 -0.172199
vn -0.697060 0.711786 -0.086422
vn -0.969708 0.005565 -0.244203
vn -0.992386 0.005695 -0.123036
vn -0.685698 0.707107 -0.172680
vn -0.699053 0.709798 -0.086669
vn 0.000000 1.000000 0.000000
vn 0.000000 1.000000 0.000000
vn -0.969723 0.000000 -0.244206
vn -0.992402 0.000000 -0.123038
vn -0.685698 0.707107 -0.172680
vn -0.699053 0.709798 -0.086669
vn 0.000000 1.000000 0.000000
vn 0.000000 1.000000 0.000000
vn -0.969723 0.000000 -0.244206
vn -0.992402 0.000000 -0.123038
vn 0.000000 1.000000 0.000000
vn 0.000000 1.000000 0.000000
vn -0.685698 0.707107 -0.172680
vn -0.699053 0.709798 -0.086669
vn -0.969723 0.000000 -0.244206
vn -0.992402 0.000000 -0.123038
vn 0.000000 1.000000 0.000000
vn 0.000000 1.000000 0.000000
vn -0.681829 0.711074 -0.171706
vn -0.695017 0.713812 -0.086168
vn -0.969662 0.011252 -0.244191
vn -0.992336 0.011516 -0.123030
vn -0.999933 0.011606 -0.000000
vn 0.000000 1.000000 0.000000
s 1
f 1/1/1 2/2/2 4/3/3 42/46/4
f 42/46/4 41/45/5 43/47/6 1/1/1
f 43/47/6 40/44/7 44/48/8 1/1/1
f 44/48/8 39/43/9 45/49/10 1/1/1
f 46/50/11 37/41/12 47/51/13 1/1/1
f 47/51/13 36/40/14 48/52/15 1/1/1
f 48/52/15 35/39/16 49/53/17 1/1/1
f 50/54/18 33/37/19 51/55/20 1/1/1
f 51/55/20 32/36/21 52/56/22 1/1/1
f 52/56/22 31/35/23 3/4/24 1/1/1
f 45/49/10 38/42/25 46/50/11 1/1/1
f 49/53/17 34/38/26 50/54/18 1/1/1
s 4
f 7/8/27 5/5/28 9/13/29 11/15/30
f 11/15/30 10/14/31 21/25/32 7/8/27
f 21/25/32 20/24/33 22/26/34 7/8/27
f 23/27/35 18/22/36 24/28/37 7/8/27
f 24/28/37 17/21/38 25/29/39 7/8/27
f 25/29/39 16/20/40 26/30/41 7/8/27
f 27/31/42 14/18/43 28/32/44 7/8/27
f 28/32/44 13/17/45 29/33/46 7/8/27
f 29/33/46 12/16/47 30/34/48 7/8/27
f 6/6/49 8/7/50 7/8/27 30/34/48
f 22/26/34 19/23/51 23/27/35 7/8/27
f 26/30/41 15/19/52 27/31/42 7/8/27
s off
f 5/12/53 7/9/54 1/10/55 3/11/56
s 7
f 60/123/57 61/124/58 23/58/59 19/59/60
s 8
f 5/62/61 54/117/62 9/61/63
s 9
f 10/65/64 11/66/65 55/118/66 56/119/67
s 10
f 57/120/68 58/121/69 20/71/70 21/72/71
s 7
f 59/122/72 60/123/57 19/59/60 22/74/73
s 8
f 9/61/63 54/117/62 55/118/74 11/66/75
s 9
f 57/120/76 21/72/77 10/65/64 56/119/67
s 10
f 20/71/70 58/121/69 59/122/78 22/74/79
s 11
f 68/132/80 69/133/81 27/76/82 15/77/83
s 12
f 18/79/84 23/80/85 61/125/86 62/126/87
s 13
f 17/83/88 24/84/89 63/127/90 64/128/91
s 14
f 65/129/92 66/130/93 16/89/94 25/90/95
s 11
f 67/131/96 68/132/80 15/77/83 26/92/97
s 12
f 18/79/84 62/126/87 63/127/98 24/84/99
s 13
f 65/129/100 25/90/101 17/83/88 64/128/91
s 14
f 16/89/94 66/130/93 67/131/102 26/92/103
s 15
f 76/141/104 77/142/105 8/94/106 6/95/107
s 16
f 14/97/108 27/98/109 69/134/110 70/135/111
s 17
f 13/101/112 28/102/113 71/136/114 72/137/115
s 18
f 73/138/116 74/139/117 12/107/118 29/108/119
s 15
f 75/140/120 76/141/104 6/95/107 30/110/121
s 16
f 14/97/108 70/135/111 71/136/122 28/102/123
s 17
f 73/138/124 29/108/125 13/101/112 72/137/115
s 18
f 12/107/118 74/139/117 75/140/126 30/110/127
s 19
f 2/114/128 1/111/129 7/112/130 78/145/131
f 78/145/131 7/112/130 77/143/132 53/116/133
f 7/112/130 8/113/134 77/143/132
s 8
f 101/170/135 31/64/136 52/67/137 100/169/138
s 9
f 32/68/139 99/168/140 100/169/141 52/67/142
f 51/69/143 98/167/144 99/168/140 32/68/139
s 10
f 98/167/145 51/69/146 33/70/147 97/166/148
f 97/166/148 33/70/147 50/73/149 96/165/150
s 7
f 96/165/151 50/73/152 34/60/153 95/164/154
f 34/60/153 49/57/155 94/162/156 95/164/154
s 12
f 35/82/157 93/161/158 94/163/159 49/81/160
f 93/161/158 35/82/157 48/85/161 92/160/162
s 13
f 36/86/163 91/159/164 92/160/165 48/85/166
f 47/87/167 90/158/168 91/159/164 36/86/163
s 14
f 90/158/169 47/87/170 37/88/171 89/157/172
f 89/157/172 37/88/171 46/91/173 88/156/174
s 11
f 88/156/175 46/91/176 38/78/177 87/155/178
f 45/75/179 86/153/180 87/155/178 38/78/177
s 16
f 39/100/181 85/152/182 86/154/183 45/99/184
f 85/152/182 39/100/181 44/103/185 84/151/186
s 17
f 40/104/187 83/150/188 84/151/189 44/103/190
f 43/105/191 82/149/192 83/150/188 40/104/187
s 18
f 82/149/193 43/105/194 41/106/195 81/148/196
f 81/148/196 41/106/195 42/109/197 80/147/198
s 15
f 80/147/199 42/109/200 4/96/201 79/146/202
f 2/93/203 78/144/204 79/146/202 4/96/201
s 8
f 101/170/135 100/169/138 55/118/74 54/117/62
s 9
f 100/169/141 99/168/140 56/119/67 55/118/66
f 98/167/144 57/120/76 56/119/67 99/168/140
s 10
f 97/166/148 58/121/69 57/120/68 98/167/145
f 96/165/150 59/122/78 58/121/69 97/166/148
s 7
f 95/164/154 60/123/57 59/122/72 96/165/151
f 94/162/156 61/124/58 60/123/57 95/164/154
s 12
f 94/163/159 93/161/158 62/126/87 61/125/86
f 93/161/158 92/160/162 63/127/98 62/126/87
s 13
f 92/160/165 91/159/164 64/128/91 63/127/90
f 90/158/168 65/129/100 64/128/91 91/159/164
s 14
f 89/157/172 66/130/93 65/129/92 90/158/169
f 88/156/174 67/131/102 66/130/93 89/157/172
s 11
f 87/155/178 68/132/80 67/131/96 88/156/175
f 86/153/180 69/133/81 68/132/80 87/155/178
s 16
f 86/154/183 85/152/182 70/135/111 69/134/110
f 85/152/182 84/151/186 71/136/122 70/135/111
s 17
f 84/151/189 83/150/188 72/137/115 71/136/114
f 82/149/192 73/138/124 72/137/115 83/150/188
s 18
f 81/148/196 74/139/117 73/138/116 82/149/193
f 80/147/198 75/140/126 74/139/117 81/148/196
s 15
f 79/146/202 76/141/104 75/140/120 80/147/199
f 77/142/105 76/141/104 53/115/205
f 53/115/205 76/141/104 79/146/202 78/144/204
s 8
f 3/63/206 101/170/135 54/117/62 5/62/61
f 101/170/135 3/63/206 31/64/136
