# This file uses centimeters as units for non-parametric coordinates.

v 3.000000 -2.000000 -3.000000
v -2.998074 -2.001712 -3.000004
v 3.000000 2.000000 -3.000004
v -2.994225 -1.670091 -3.000008
v 3.000000 2.000000 3.000000
v -2.994221 -1.670091 3.000000
v 3.000000 -2.000000 3.000000
v -2.998074 -2.001712 3.000000
v 2.500320 2.000000 3.000000
v 2.003853 1.664312 3.000000
v 2.500320 1.664312 3.000000
v -2.497108 -1.338897 3.000000
v -1.994221 -1.005778 3.000000
v -1.497753 -0.670091 3.000000
v -0.994221 -0.335045 3.000000
v -0.497108 -0.003852 3.000000
v 0.005779 0.329267 3.000000
v 0.502247 0.664955 3.000000
v 1.003853 1.000000 3.000000
v 1.500961 1.331193 3.000000
v 2.003853 1.331193 3.000000
v 1.500961 1.000000 3.000000
v 1.002892 0.664955 3.000000
v 0.502247 0.329267 3.000000
v 0.005779 -0.003852 3.000000
v -0.497108 -0.335045 3.000000
v -0.996147 -0.670091 3.000000
v -1.497753 -1.005778 3.000000
v -1.994221 -1.338897 3.000000
v -2.497108 -1.670091 3.000000
v 2.500322 2.000000 -3.000008
v 2.003855 1.664312 -3.000008
v 1.500963 1.331193 -3.000008
v 1.003855 1.000000 -3.000008
v 0.502245 0.664955 -3.000008
v 0.005777 0.329267 -3.000008
v -0.497108 -0.003852 -3.000008
v -0.994225 -0.335045 -3.000008
v -1.497757 -0.670091 -3.000008
v -1.994225 -1.005778 -3.000008
v -2.497108 -1.338897 -3.000008
v -2.497108 -1.670091 -3.000008
v -1.994225 -1.338897 -3.000008
v -1.497757 -1.005778 -3.000008
v -0.996147 -0.670091 -3.000008
v -0.497108 -0.335045 -3.000008
v 0.005777 -0.003852 -3.000008
v 0.502245 0.329267 -3.000008
v 1.002893 0.664955 -3.000008
v 1.500963 1.000000 -3.000008
v 2.003855 1.331193 -3.000008
v 2.500322 1.664312 -3.000008
vt 0.450623 0.554976
vt 0.884667 0.554976
vt 0.884248 0.578699
vt 0.450623 0.842592
vt 0.884667 0.842592
vt 0.451041 0.578699
vt 0.450623 0.554976
vt 0.884667 0.554976
vt 0.884667 0.554976
vt 0.450623 0.554976
vt 0.450623 0.842592
vt 0.884667 0.842592
vt 0.848519 0.842591
vt 0.812605 0.818454
vt 0.848519 0.818454
vt 0.487003 0.602512
vt 0.523382 0.626465
vt 0.559297 0.650602
vt 0.595723 0.674693
vt 0.631684 0.698507
vt 0.668063 0.722459
vt 0.703978 0.746596
vt 0.740264 0.770687
vt 0.776225 0.794501
vt 0.812605 0.794501
vt 0.776225 0.770687
vt 0.740195 0.746596
vt 0.703978 0.722459
vt 0.668063 0.698507
vt 0.631684 0.674693
vt 0.595583 0.650602
vt 0.559297 0.626465
vt 0.523382 0.602512
vt 0.487003 0.578698
vt 0.486770 0.842591
vt 0.522684 0.818453
vt 0.559064 0.794501
vt 0.595025 0.770687
vt 0.631311 0.746596
vt 0.667226 0.722459
vt 0.703605 0.698507
vt 0.739567 0.674693
vt 0.775993 0.650602
vt 0.811907 0.626465
vt 0.848287 0.602512
vt 0.848287 0.578699
vt 0.811907 0.602513
vt 0.775993 0.626465
vt 0.739706 0.650602
vt 0.703606 0.674693
vt 0.667226 0.698507
vt 0.631311 0.722459
vt 0.595095 0.746596
vt 0.559064 0.770687
vt 0.522685 0.794501
vt 0.486770 0.818453
vt 0.008564 0.311900
vt 0.443511 0.311890
vt 0.443511 0.335787
vt 0.008564 0.335785
vt 0.443508 0.515120
vt 0.443511 0.550856
vt 0.008564 0.550849
vt 0.008564 0.515009
vt 0.443511 0.455269
vt 0.443511 0.491113
vt 0.008564 0.491115
vt 0.008564 0.455267
vt 0.008564 0.431375
vt 0.008564 0.395526
vt 0.443511 0.395528
vt 0.443511 0.431372
vt 0.008564 0.371633
vt 0.443511 0.371631
vt 0.008564 0.311900
vt 0.443511 0.311890
vt 0.443511 0.335787
vt 0.008564 0.335785
vt 0.443508 0.515120
vt 0.443511 0.550856
vt 0.008564 0.550849
vt 0.008564 0.515009
vt 0.443511 0.455269
vt 0.443511 0.491113
vt 0.008564 0.491115
vt 0.008564 0.455267
vt 0.008564 0.431375
vt 0.008564 0.395526
vt 0.443511 0.395528
vt 0.443511 0.431372
vt 0.008564 0.371633
vt 0.443511 0.371631
vt 0.008564 0.311900
vt 0.443511 0.311890
vt 0.443511 0.335787
vt 0.008564 0.335785
vt 0.443508 0.515120
vt 0.443511 0.550856
vt 0.008564 0.550849
vt 0.008564 0.515009
vt 0.443511 0.455269
vt 0.443511 0.491113
vt 0.008564 0.491115
vt 0.008564 0.455267
vt 0.008564 0.431375
vt 0.008564 0.395526
vt 0.443511 0.395528
vt 0.443511 0.431372
vt 0.008564 0.371633
vt 0.443511 0.371631
vt 0.004876 0.994826
vt 0.220114 0.994826
vt 0.220114 0.779589
vt 0.004876 0.779589
vn -0.000000 -0.000012 -1.000000
vn 0.000001 -0.000006 -1.000000
vn 0.000001 -0.000012 -1.000000
vn 0.000003 -0.000003 -1.000000
vn 0.000000 0.000000 -1.000000
vn 0.000001 -0.000001 -1.000000
vn 0.000000 0.000000 -1.000000
vn 0.000000 -0.000001 -1.000000
vn 0.000000 0.000000 -1.000000
vn 0.000000 -0.000001 -1.000000
vn 0.000000 0.000000 -1.000000
vn 0.000001 -0.000001 -1.000000
vn 0.000001 -0.000001 -1.000000
vn 0.000000 0.000000 -1.000000
vn 0.000002 -0.000001 -1.000000
vn 0.000000 0.000000 -1.000000
vn -0.000000 -0.000001 -1.000000
vn 0.000000 0.000000 -1.000000
vn 0.000000 -0.000001 -1.000000
vn -0.000002 -0.000001 -1.000000
vn 0.000000 0.000000 -1.000000
vn 0.000006 -0.000001 -1.000000
vn 0.000000 0.000000 -1.000000
vn 0.000011 -0.000000 -1.000000
vn 0.000000 0.000000 -1.000000
vn 0.000000 0.000000 -1.000000
vn -0.000000 -0.000000 1.000000
vn -0.000000 -0.000000 1.000000
vn -0.000000 -0.000000 1.000000
vn -0.000000 -0.000000 1.000000
vn -0.000000 -0.000000 1.000000
vn -0.000000 -0.000000 1.000000
vn -0.000000 -0.000000 1.000000
vn -0.000000 -0.000000 1.000000
vn -0.000000 -0.000000 1.000000
vn -0.000000 -0.000000 1.000000
vn -0.000000 -0.000000 1.000000
vn -0.000000 -0.000000 1.000000
vn -0.000001 -0.000000 1.000000
vn -0.000000 -0.000000 1.000000
vn -0.000000 -0.000000 1.000000
vn -0.000000 -0.000000 1.000000
vn -0.000000 -0.000000 1.000000
vn 0.000000 -0.000000 1.000000
vn -0.000000 -0.000000 1.000000
vn -0.000000 -0.000000 1.000000
vn -0.000000 -0.000000 1.000000
vn -0.000000 -0.000000 1.000000
vn -0.000000 -0.000000 1.000000
vn -0.000000 -0.000000 1.000000
vn -0.000000 -0.000000 1.000000
vn -0.000000 -0.000000 1.000000
vn 1.000000 -0.000000 0.000000
vn 1.000000 -0.000000 0.000000
vn 1.000000 -0.000000 0.000000
vn 1.000000 -0.000000 0.000000
vn -0.706092 0.708120 -0.000000
vn -0.706092 0.708120 -0.000000
vn -0.999996 0.002869 -0.000000
vn -0.999996 0.002869 -0.000000
vn 0.000000 1.000000 0.000000
vn -0.707107 0.707107 -0.000000
vn -0.707107 0.707107 -0.000000
vn 0.000000 1.000000 0.000000
vn 0.000000 1.000000 -0.000000
vn -0.707107 0.707107 -0.000000
vn -0.707107 0.707107 -0.000000
vn 0.000000 1.000000 -0.000000
vn -0.707107 0.707107 -0.000000
vn 0.000000 1.000000 0.000000
vn 0.000000 1.000000 0.000000
vn -0.707107 0.707107 -0.000000
vn 0.000000 1.000000 0.000000
vn 0.000000 1.000000 0.000000
vn -1.000000 0.000000 -0.000000
vn -1.000000 0.000000 -0.000000
vn -1.000000 0.000000 -0.000000
vn -1.000000 0.000000 -0.000000
vn -1.000000 0.000000 -0.000000
vn -1.000000 0.000000 -0.000000
vn -0.705075 0.709133 0.000000
vn -0.705075 0.709133 0.000000
vn -0.999984 0.005738 0.000000
vn -0.999984 0.005738 0.000000
vn 0.000000 1.000000 0.000000
vn -0.707107 0.707107 0.000000
vn -0.707107 0.707107 0.000000
vn 0.000000 1.000000 0.000000
vn 0.000000 1.000000 -0.000000
vn -0.707107 0.707107 0.000000
vn -0.707107 0.707107 0.000000
vn 0.000000 1.000000 -0.000000
vn -0.707107 0.707107 -0.000000
vn 0.000000 1.000000 0.000000
vn 0.000000 1.000000 0.000000
vn -0.707107 0.707107 -0.000000
vn 0.000000 1.000000 -0.000000
vn 0.000000 1.000000 -0.000000
vn -1.000000 0.000000 0.000000
vn -1.000000 0.000000 0.000000
vn -1.000000 0.000000 0.000000
vn -1.000000 0.000000 0.000000
vn -1.000000 0.000000 -0.000000
vn -1.000000 0.000000 -0.000000
vn -0.702990 0.711200 0.000000
vn -0.702990 0.711200 0.000000
vn -0.999933 0.011610 0.000000
vn -0.999933 0.011610 0.000000
vn 0.000000 1.000000 -0.000000
vn -0.707107 0.707107 0.000000
vn -0.707107 0.707107 0.000000
vn 0.000000 1.000000 -0.000000
vn 0.000000 1.000000 -0.000000
vn -0.707107 0.707107 0.000000
vn -0.707107 0.707107 0.000000
vn 0.000000 1.000000 -0.000000
vn -0.707107 0.707107 -0.000000
vn 0.000000 1.000000 -0.000000
vn 0.000000 1.000000 -0.000000
vn -0.707107 0.707107 -0.000000
vn 0.000000 1.000000 0.000000
vn 0.000000 1.000000 0.000000
vn -1.000000 0.000000 0.000001
vn -1.000000 0.000000 0.000001
vn -1.000000 0.000000 0.000001
vn -1.000000 0.000000 0.000001
vn -1.000000 0.000000 -0.000000
vn -1.000000 0.000000 -0.000000
vn 0.000285 -1.000000 -0.000000
vn 0.000285 -1.000000 -0.000000
vn 0.000285 -1.000000 -0.000000
vn 0.000285 -1.000000 -0.000000
s 1
f 4/3/1 42/46/2 2/2/3
f 1/1/4 2/2/3 42/46/2
f 41/45/5 43/47/6 42/46/2
f 42/46/2 43/47/6 1/1/4
f 40/44/7 44/48/8 43/47/6
f 43/47/6 44/48/8 1/1/4
f 39/43/9 45/49/10 44/48/8
f 44/48/8 45/49/10 1/1/4
f 37/41/11 47/51/12 46/50/13
f 46/50/13 47/51/12 1/1/4
f 36/40/14 48/52/15 47/51/12
f 47/51/12 48/52/15 1/1/4
f 35/39/16 49/53/17 48/52/15
f 48/52/15 49/53/17 1/1/4
f 33/37/18 51/55/19 50/54/20
f 50/54/20 51/55/19 1/1/4
f 32/36/21 52/56/22 51/55/19
f 51/55/19 52/56/22 1/1/4
f 31/35/23 3/4/24 52/56/22
f 52/56/22 3/4/24 1/1/4
f 38/42/25 46/50/13 45/49/10
f 45/49/10 46/50/13 1/1/4
f 34/38/26 50/54/20 49/53/17
f 49/53/17 50/54/20 1/1/4
s 4
f 9/13/27 11/15/28 5/5/29
f 7/8/30 5/5/29 11/15/28
f 10/14/31 21/25/32 11/15/28
f 11/15/28 21/25/32 7/8/30
f 20/24/33 22/26/34 21/25/32
f 21/25/32 22/26/34 7/8/30
f 18/22/35 24/28/36 23/27/37
f 23/27/37 24/28/36 7/8/30
f 17/21/38 25/29/39 24/28/36
f 24/28/36 25/29/39 7/8/30
f 16/20/40 26/30/41 25/29/39
f 25/29/39 26/30/41 7/8/30
f 14/18/42 28/32/43 27/31/44
f 27/31/44 28/32/43 7/8/30
f 13/17/45 29/33/46 28/32/43
f 28/32/43 29/33/46 7/8/30
f 12/16/47 30/34/48 29/33/46
f 29/33/46 30/34/48 7/8/30
f 6/6/49 8/7/50 30/34/48
f 8/7/50 7/8/30 30/34/48
f 19/23/51 23/27/37 22/26/34
f 22/26/34 23/27/37 7/8/30
f 15/19/52 27/31/44 26/30/41
f 26/30/41 27/31/44 7/8/30
s off
f 3/11/53 5/12/54 7/9/55 1/10/56
s 7
f 19/59/57 34/60/58 49/57/59 23/58/60
s 8
f 3/63/61 31/64/62 9/61/63 5/62/64
s 9
f 52/67/65 32/68/66 10/65/67 11/66/68
s 10
f 20/71/69 21/72/70 51/69/71 33/70/72
s 7
f 19/59/57 22/74/73 50/73/74 34/60/58
s 8
f 11/66/75 9/61/63 31/64/62 52/67/76
s 9
f 32/68/66 51/69/77 21/72/78 10/65/67
s 10
f 22/74/79 20/71/69 33/70/72 50/73/80
s 11
f 15/77/81 38/78/82 45/75/83 27/76/84
s 12
f 49/81/85 35/82/86 18/79/87 23/80/88
s 13
f 48/85/89 36/86/90 17/83/91 24/84/92
s 14
f 16/89/93 25/90/94 47/87/95 37/88/96
s 11
f 15/77/81 26/92/97 46/91/98 38/78/82
s 12
f 24/84/99 18/79/87 35/82/86 48/85/100
s 13
f 36/86/90 47/87/101 25/90/102 17/83/91
s 14
f 26/92/103 16/89/93 37/88/96 46/91/104
s 15
f 6/95/105 4/96/106 2/93/107 8/94/108
s 16
f 45/99/109 39/100/110 14/97/111 27/98/112
s 17
f 44/103/113 40/104/114 13/101/115 28/102/116
s 18
f 12/107/117 29/108/118 43/105/119 41/106/120
s 15
f 6/95/105 30/110/121 42/109/122 4/96/106
s 16
f 28/102/123 14/97/111 39/100/110 44/103/124
s 17
f 40/104/114 43/105/125 29/108/126 13/101/115
s 18
f 30/110/127 12/107/117 41/106/120 42/109/128
s off
f 8/113/129 2/114/130 1/111/131 7/112/132
