# This file uses centimeters as units for non-parametric coordinates.

v 3.000000 -4.000000 -0.000149
v 3.000000 -0.000000 -0.000149
v -3.000000 0.000000 -0.000149
v -3.000000 -4.000000 -0.000149
v -3.000000 -4.000000 -1.000000
v -3.000000 0.000000 -1.000000
v 3.000000 -4.000000 -1.000000
v 3.000000 -0.000000 -1.000000
v 3.000000 4.000000 -0.000149
v -3.000000 4.000000 -0.000149
v -3.000000 4.000000 -1.000000
v 3.000000 4.000000 -1.000000
v -1.860329 -4.000000 -0.998808
v -1.849358 0.001251 -1.000000
v -1.174026 0.982620 -1.000000
v 0.000000 1.500795 -1.000000
v 1.860329 -4.000000 -0.998808
v 1.849358 0.001251 -1.000000
v 1.174026 0.982620 -1.000000
v -1.849358 0.001251 -0.000595
v 0.000000 1.500795 -0.000595
v -1.174026 0.982620 -0.000595
v -1.860329 -4.000000 0.000595
v 1.849358 0.001251 -0.000595
v 1.174026 0.982620 -0.000595
v 1.860329 -4.000000 0.000595
vt 0.885194 0.554213
vt 0.885194 0.841947
vt 0.449343 0.554213
vt 0.449343 0.841947
vt 0.443331 0.994899
vt 0.007936 0.994899
vt 0.007935 0.923777
vt 0.443331 0.923777
vt 0.885194 0.554213
vt 0.885194 0.841947
vt 0.449343 0.841947
vt 0.449343 0.554213
vt 0.802406 0.554214
vt 0.801609 0.842037
vt 0.801609 0.554304
vt 0.752552 0.624897
vt 0.667269 0.662171
vt 0.532131 0.554215
vt 0.532928 0.842036
vt 0.532929 0.554305
vt 0.581985 0.624897
vt 0.816466 0.625297
vt 0.816466 0.697350
vt 0.757424 0.697349
vt 0.757424 0.625300
vt 0.816466 0.769604
vt 0.757424 0.769601
vt 0.786030 0.555106
vt 0.853878 0.555105
vt 0.853965 0.842575
vt 0.786117 0.842574
vt 0.816466 0.625297
vt 0.757424 0.625300
vt 0.757424 0.697349
vt 0.816466 0.697350
vt 0.757424 0.769601
vt 0.816466 0.769604
vt 0.786030 0.555106
vt 0.786117 0.842574
vt 0.853965 0.842575
vt 0.853878 0.555105
vt 0.802502 0.554236
vt 0.801705 0.842057
vt 0.885284 0.841967
vt 0.885284 0.554236
vt 0.449353 0.841926
vt 0.532993 0.554301
vt 0.449443 0.554215
vt 0.449253 0.554255
vt 0.449253 0.841986
vt 0.532832 0.842076
vt 0.532035 0.554255
vt 0.885181 0.841931
vt 0.667269 0.662132
vt 0.752534 0.624875
vt 0.582003 0.624874
vt 0.801543 0.554303
vt 0.885094 0.554215
vt 0.819362 0.841946
vt 0.819362 0.554215
vt 0.885009 0.554214
vt 0.885009 0.841947
vt 0.515947 0.554214
vt 0.515947 0.841946
vt 0.450019 0.841947
vt 0.450019 0.554213
vt 0.819362 0.841946
vt 0.819362 0.554215
vt 0.885009 0.554214
vt 0.885009 0.841947
vt 0.515947 0.554214
vt 0.515947 0.841946
vt 0.450019 0.841947
vt 0.450019 0.554213
vn -0.000521 -0.000150 -1.000000
vn -0.000174 -0.000050 -1.000000
vn -0.000260 -0.000075 -1.000000
vn -0.000521 -0.000150 -1.000000
vn 0.000000 1.000000 0.000000
vn 0.000000 1.000000 0.000000
vn 0.000000 1.000000 0.000000
vn 0.000000 1.000000 0.000000
vn 0.000000 0.000000 -1.000000
vn 0.000174 -0.000050 -1.000000
vn 0.000260 -0.000075 -1.000000
vn 0.000521 -0.000150 -1.000000
vn 0.000521 -0.000150 -1.000000
vn 0.000000 0.000000 -1.000000
vn 0.000000 0.000000 -1.000000
vn 0.000000 0.000000 -1.000000
vn 0.000000 0.000000 -1.000000
vn 0.954524 -0.298133 0.000000
vn 0.637969 -0.770062 0.000000
vn 0.637969 -0.770062 0.000000
vn 0.954524 -0.298133 0.000000
vn -0.000000 -1.000000 -0.000000
vn -0.000000 -1.000000 -0.000000
vn 0.999996 -0.002742 0.000000
vn 0.999996 -0.002742 0.000000
vn -0.954524 -0.298133 -0.000000
vn -0.954524 -0.298133 -0.000000
vn -0.637969 -0.770062 -0.000000
vn -0.637969 -0.770062 -0.000000
vn -0.999996 -0.002742 -0.000000
vn -0.999996 -0.002742 -0.000000
vn 0.000130 0.000149 1.000000
vn 0.000130 0.000149 1.000000
vn -0.000129 0.000074 1.000000
vn -0.000124 0.000023 1.000000
vn 0.000138 -0.000094 1.000000
vn 0.000129 0.000074 1.000000
vn 0.000124 0.000023 1.000000
vn -0.000130 0.000149 1.000000
vn -0.000130 0.000149 1.000000
vn -0.000000 -0.000137 1.000000
vn -0.000138 -0.000094 1.000000
vn -0.000083 -0.000098 1.000000
vn 0.000083 -0.000098 1.000000
vn -1.000000 0.000000 -0.000000
vn -1.000000 0.000000 -0.000000
vn -1.000000 0.000000 -0.000000
vn -1.000000 0.000000 -0.000000
vn 1.000000 -0.000000 0.000000
vn 1.000000 -0.000000 0.000000
vn 1.000000 -0.000000 0.000000
vn 1.000000 -0.000000 0.000000
vn -1.000000 0.000000 -0.000000
vn -1.000000 0.000000 -0.000000
vn 1.000000 -0.000000 0.000000
vn 1.000000 -0.000000 0.000000
s 1
f 17/18/1 18/19/2 8/4/3 7/3/4
s off
f 10/5/5 9/6/6 12/7/7 11/8/8
s 1
f 11/10/9 14/15/10 6/9/11
f 5/1/12 6/2/11 14/14/10 13/13/13
f 11/10/9 12/11/14 16/17/15
f 16/17/15 12/11/14 19/21/16
f 11/10/9 16/17/15 15/16/17
f 19/21/16 12/11/14 18/20/2
f 11/10/9 15/16/17 14/15/10
f 18/20/2 12/11/14 8/12/3
s 4
f 14/22/18 15/23/19 22/24/20 20/25/21
f 15/23/19 16/26/22 21/27/23 22/24/20
f 23/28/24 13/29/25 14/30/18 20/31/21
f 18/32/26 24/33/27 25/34/28 19/35/29
f 19/35/29 25/34/28 21/36/23 16/37/22
f 26/38/30 24/39/27 18/40/26 17/41/31
s 6
f 26/42/32 1/45/33 2/44/34 24/43/35
f 10/46/36 3/48/37 20/47/38
f 4/49/39 23/52/40 20/51/38 3/50/37
f 10/46/36 21/54/41 9/53/42
f 21/54/41 25/55/43 9/53/42
f 10/46/36 22/56/44 21/54/41
f 25/55/43 24/57/35 9/53/42
f 10/46/36 20/47/38 22/56/44
f 24/57/35 2/58/34 9/53/42
s 9
f 11/59/45 6/60/46 3/61/47 10/62/48
s 10
f 8/63/49 12/64/50 9/65/51 2/66/52
s 9
f 6/67/46 5/68/53 4/69/54 3/70/47
s 10
f 7/71/55 8/72/49 2/73/52 1/74/56
