# This file uses centimeters as units for non-parametric coordinates.

v 1.000000 0.325632 -1.150673
v 1.000000 0.325632 0.150673
v 1.000000 0.324051 -0.264458
v 1.000000 0.324051 -0.735542
v 1.000000 0.238789 -0.345600
v 1.000000 0.238789 -0.654400
v 1.000000 -0.116435 0.188564
v 1.000000 -0.116435 0.115498
v 1.000000 -0.457266 0.115498
v 1.000000 -0.457266 0.175682
v 1.000000 -0.921629 0.152008
v 1.000000 0.254919 0.205982
v 1.000000 -0.116435 -1.188564
v 1.000000 -0.116435 -1.115498
v 1.000000 -0.457266 -1.115498
v 1.000000 -0.457266 -1.175682
v 1.000000 -0.921629 -1.152008
v 1.000000 0.254919 -1.205982
v -2.000000 -0.921629 0.152008
v -2.000000 -0.457266 0.175682
v -2.000000 -0.457266 0.115499
v -2.000000 -0.116435 0.115499
v -2.000000 -0.116435 0.188564
v -2.000000 0.254919 0.205982
v -2.000000 0.325632 0.150673
v -2.000000 0.324051 -0.264458
v -2.000000 0.238789 -0.345604
v -2.000000 0.238789 -0.654400
v -2.000000 0.324051 -0.735541
v -2.000000 0.325632 -1.150672
v -2.000000 0.254919 -1.205981
v -2.000000 -0.116435 -1.188563
v -2.000000 -0.116435 -1.115498
v -2.000000 -0.457266 -1.115498
v -2.000000 -0.457266 -1.175681
v -2.000000 -0.921629 -1.152007
vt 0.885506 0.924016
vt 0.885506 0.994477
vt 0.885506 0.944310
vt 0.885506 0.973762
vt 0.885505 0.951876
vt 0.885505 0.966196
vt 0.886342 0.319836
vt 0.886338 0.345472
vt 0.886343 0.315842
vt 0.841008 0.292921
vt 0.886346 0.288156
vt 0.886350 0.254336
vt 0.886337 0.355153
vt 0.886338 0.345472
vt 0.886342 0.319836
vt 0.841005 0.315842
vt 0.886346 0.292921
vt 0.886346 0.288156
vt 0.886350 0.254336
vt 0.886337 0.355153
vt 0.594770 0.254336
vt 0.594771 0.288179
vt 0.594772 0.292901
vt 0.645442 0.315853
vt 0.594773 0.319826
vt 0.594774 0.345500
vt 0.594618 0.924021
vt 0.594774 0.355108
vt 0.594618 0.944319
vt 0.594618 0.951866
vt 0.594618 0.966205
vt 0.594618 0.973753
vt 0.594774 0.355108
vt 0.594618 0.994472
vt 0.594774 0.345500
vt 0.594773 0.319826
vt 0.594773 0.315853
vt 0.645441 0.292901
vt 0.594771 0.288179
vt 0.594770 0.254336
vt 0.469165 0.250989
vt 0.467245 0.288643
vt 0.472126 0.288643
vt 0.472126 0.316280
vt 0.466201 0.316280
vt 0.464788 0.346392
vt 0.469273 0.352126
vt 0.502935 0.351997
vt 0.509514 0.345084
vt 0.534554 0.345084
vt 0.541133 0.351997
vt 0.574795 0.352126
vt 0.579280 0.346392
vt 0.577867 0.316280
vt 0.571942 0.316280
vt 0.571942 0.288643
vt 0.576823 0.288643
vt 0.574903 0.250989
vt 0.574903 0.250989
vt 0.576823 0.288643
vt 0.571943 0.288643
vt 0.571943 0.316280
vt 0.577867 0.316280
vt 0.579280 0.346392
vt 0.574795 0.352126
vt 0.541133 0.351998
vt 0.534554 0.345084
vt 0.509514 0.345084
vt 0.502935 0.351998
vt 0.469273 0.352126
vt 0.464788 0.346392
vt 0.466201 0.316280
vt 0.472125 0.316280
vt 0.472125 0.288643
vt 0.467245 0.288643
vt 0.469165 0.250989
vt 0.688757 0.254994
vt 0.688757 0.283519
vt 0.618391 0.283519
vt 0.618391 0.254994
vt 0.594772 0.292901
vt 0.841008 0.292921
vt 0.645442 0.315853
vt 0.886343 0.315842
vt 0.594773 0.315853
vt 0.841005 0.315842
vt 0.645441 0.292901
vt 0.886346 0.292921
vn -0.000000 -1.000000 -0.000000
vn -0.000000 -1.000000 -0.000000
vn -0.000000 -1.000000 -0.000000
vn -0.000000 -1.000000 -0.000000
vn -0.000000 -0.050916 0.998703
vn -0.000000 -0.050916 0.998703
vn -0.000000 -0.050916 0.998703
vn -0.000000 -0.050916 0.998703
vn 0.000000 1.000000 0.000000
vn 0.000000 1.000000 0.000000
vn 0.000000 1.000000 0.000000
vn 0.000000 1.000000 0.000000
vn 0.000000 -0.000000 1.000000
vn 0.000000 -0.000000 1.000000
vn 0.000000 -0.000000 1.000000
vn 0.000000 -0.000000 1.000000
vn -0.000000 -1.000000 -0.000000
vn -0.000000 -1.000000 -0.000000
vn -0.000000 -1.000000 -0.000000
vn -0.000000 -1.000000 -0.000000
vn 0.000000 0.303583 0.952805
vn -0.000000 -0.046852 0.998902
vn -0.000000 -0.046852 0.998902
vn 0.000000 0.303583 0.952805
vn 0.000000 0.616092 0.787674
vn 0.000000 0.616092 0.787674
vn 0.000000 0.999993 -0.003809
vn 0.000000 0.999993 -0.003809
vn 0.000000 0.999993 -0.003809
vn 0.000000 0.999993 -0.003809
vn 0.000000 0.689397 -0.724383
vn 0.000000 0.689397 -0.724383
vn 0.000000 0.689397 -0.724383
vn 0.000000 0.689397 -0.724383
vn 0.000000 1.000000 0.000000
vn 0.000000 1.000000 0.000000
vn 0.000000 1.000000 0.000000
vn 0.000000 1.000000 0.000000
vn 0.000000 0.689387 0.724393
vn 0.000000 0.689387 0.724393
vn 0.000000 0.689387 0.724393
vn 0.000000 0.689387 0.724393
vn 0.000000 0.999993 0.003809
vn 0.000000 0.999993 0.003809
vn 0.000000 0.999993 0.003809
vn 0.000000 0.999993 0.003809
vn -0.000000 0.303583 -0.952805
vn -0.000000 0.303583 -0.952805
vn -0.000000 0.616092 -0.787674
vn -0.000000 0.616092 -0.787674
vn -0.000000 -0.046852 -0.998902
vn -0.000000 -0.046852 -0.998902
vn -0.000000 -1.000000 -0.000000
vn -0.000000 -1.000000 -0.000000
vn -0.000000 -1.000000 -0.000000
vn -0.000000 -1.000000 -0.000000
vn 0.000000 0.000000 -1.000000
vn 0.000000 0.000000 -1.000000
vn 0.000000 0.000000 -1.000000
vn 0.000000 0.000000 -1.000000
vn 0.000000 1.000000 0.000000
vn 0.000000 1.000000 0.000000
vn 0.000000 1.000000 0.000000
vn 0.000000 1.000000 0.000000
vn -0.000000 -0.050916 -0.998703
vn -0.000000 -0.050916 -0.998703
vn -0.000000 -0.050916 -0.998703
vn -0.000000 -0.050916 -0.998703
vn 1.000000 -0.000000 0.000000
vn 1.000000 -0.000000 0.000000
vn 1.000000 -0.000000 0.000000
vn 1.000000 -0.000000 0.000000
vn 1.000000 -0.000000 0.000000
vn 1.000000 -0.000000 0.000000
vn 1.000000 -0.000000 0.000000
vn 1.000000 -0.000000 0.000000
vn 1.000000 -0.000000 0.000000
vn 1.000000 -0.000000 0.000000
vn 1.000000 -0.000000 0.000000
vn 1.000000 -0.000000 0.000000
vn 1.000000 -0.000000 0.000000
vn 1.000000 -0.000000 0.000000
vn 1.000000 -0.000000 0.000000
vn 1.000000 -0.000000 0.000000
vn 1.000000 -0.000000 0.000000
vn 1.000000 -0.000000 0.000000
vn -1.000000 0.000000 -0.000000
vn -1.000000 0.000000 -0.000000
vn -1.000000 0.000000 -0.000000
vn -1.000000 0.000000 -0.000000
vn -1.000000 0.000000 -0.000000
vn -1.000000 0.000000 -0.000000
vn -1.000000 0.000000 -0.000000
vn -1.000000 0.000000 -0.000000
vn -1.000000 0.000000 -0.000000
vn -1.000000 0.000000 -0.000000
vn -1.000000 0.000000 -0.000000
vn -1.000000 0.000000 -0.000000
vn -1.000000 0.000000 -0.000000
vn -1.000000 0.000000 -0.000000
vn -1.000000 0.000000 -0.000000
vn -1.000000 0.000000 -0.000000
vn -1.000000 0.000000 -0.000000
vn -1.000000 0.000000 -0.000000
s off
f 17/77/1 11/78/2 19/79/3 36/80/4
f 11/12/5 10/11/6 20/22/7 19/21/8
f 10/11/9 9/88/10 21/23/11 20/22/12
f 9/10/13 8/86/14 22/24/15 21/87/16
f 8/9/17 7/7/18 23/25/19 22/85/20
s 1
f 24/26/21 23/25/22 7/7/23 12/8/24
f 12/8/24 2/13/25 25/28/26 24/26/21
s off
f 2/1/27 3/3/28 26/29/29 25/27/30
f 27/30/31 26/29/32 3/3/33 5/5/34
f 28/31/35 27/30/36 5/5/37 6/6/38
f 29/32/39 28/31/40 6/6/41 4/4/42
f 30/34/43 29/32/44 4/4/45 1/2/46
s 2
f 18/14/47 31/35/48 30/33/49 1/20/50
f 13/15/51 32/36/52 31/35/48 18/14/47
s off
f 33/37/53 32/36/54 13/15/55 14/84/56
f 34/38/57 33/83/58 14/16/59 15/82/60
f 35/39/61 34/81/62 15/17/63 16/18/64
f 36/40/65 35/39/66 16/18/67 17/19/68
f 17/41/69 16/42/70 15/43/71 14/44/72 13/45/73 18/46/74 1/47/75 4/48/76 6/49/77 5/50/78 3/51/79 2/52/80 12/53/81 7/54/82 8/55/83 9/56/84 10/57/85 11/58/86
f 19/59/87 20/60/88 21/61/89 22/62/90 23/63/91 24/64/92 25/65/93 26/66/94 27/67/95 28/68/96 29/69/97 30/70/98 31/71/99 32/72/100 33/73/101 34/74/102 35/75/103 36/76/104
