# This file uses centimeters as units for non-parametric coordinates.

v -1.000000 1.000000 -1.000000
v -1.267937 -1.000000 -1.267933
v -1.169670 0.961556 -1.169670
v -1.267937 0.821296 -1.267933
v -1.000000 -1.000000 -0.999998
v -1.000000 1.000000 5.000000
v -1.267933 -1.000000 5.000004
v -1.169670 0.961555 5.000004
v -1.267937 0.821297 5.000004
v -1.000000 -1.000000 5.000004
v -1.169670 0.961555 0.498299
v -1.000000 1.000000 0.498297
v -1.000000 -1.000000 0.498299
v -1.267933 -1.000000 0.498299
v -1.267933 0.821296 0.498299
v -1.169670 0.961556 3.519791
v -1.000000 1.000000 3.519791
v -1.000000 -1.000000 3.519791
v -1.267933 -1.000000 3.519791
v -1.267937 0.821297 3.519791
v 5.000000 1.000000 -1.000000
v 4.999996 -1.000000 -1.267933
v 4.999996 0.961557 -1.169668
v 4.999996 0.821295 -1.267933
v 4.999996 -1.000000 -1.000000
v 3.501701 0.961557 -1.169670
v 3.501705 1.000000 -1.000000
v 3.501701 -1.000000 -1.000000
v 3.501701 -1.000000 -1.267933
v 3.501701 0.821295 -1.267931
v 0.480209 0.961557 -1.169670
v 0.480209 1.000000 -1.000000
v 0.480209 -1.000000 -1.000000
v 0.480209 -1.000000 -1.267933
v 0.480209 0.821295 -1.267933
vt 0.459334 0.554567
vt 0.454939 0.537376
vt 0.451642 0.523101
vt 0.451642 0.386499
vt 0.452584 0.386704
vt 0.452584 0.406010
vt 0.464955 0.386404
vt 0.464955 0.535677
vt 0.480306 0.533577
vt 0.489197 0.523297
vt 0.489197 0.386404
vt 0.883724 0.537376
vt 0.883724 0.554567
vt 0.882699 0.386704
vt 0.882699 0.406010
vt 0.883724 0.386498
vt 0.883724 0.523101
vt 0.563172 0.523119
vt 0.562784 0.386504
vt 0.555453 0.386714
vt 0.776586 0.537385
vt 0.562473 0.537391
vt 0.560128 0.554548
vt 0.776544 0.554554
vt 0.776089 0.386712
vt 0.567688 0.405986
vt 0.776046 0.405996
vt 0.776586 0.386500
vt 0.776586 0.523111
vt 0.464972 0.386155
vt 0.489181 0.386677
vt 0.489182 0.523115
vt 0.480303 0.533431
vt 0.464973 0.535981
vt 0.464972 0.386153
vt 0.464973 0.535979
vt 0.480303 0.533429
vt 0.489181 0.523113
vt 0.489181 0.386675
vt 0.581384 0.537391
vt 0.581334 0.554546
vt 0.449444 0.554567
vt 0.449444 0.537376
vt 0.449444 0.523101
vt 0.581386 0.523118
vt 0.581386 0.386503
vt 0.449444 0.386499
vt 0.450386 0.386704
vt 0.581890 0.386716
vt 0.581841 0.405987
vt 0.450386 0.406010
vt 0.464955 0.386404
vt 0.489197 0.386404
vt 0.489197 0.523297
vt 0.480306 0.533577
vt 0.464955 0.535677
vt 0.880566 0.537376
vt 0.872149 0.554567
vt 0.745546 0.554551
vt 0.745546 0.537388
vt 0.745546 0.386713
vt 0.879541 0.386704
vt 0.745546 0.405992
vt 0.879541 0.406010
vt 0.880566 0.386498
vt 0.880566 0.523101
vt 0.745546 0.523114
vt 0.745546 0.386502
vt 0.464972 0.386155
vt 0.489181 0.386677
vt 0.489182 0.523115
vt 0.480303 0.533431
vt 0.464973 0.535981
vt 0.464972 0.386153
vt 0.464973 0.535979
vt 0.480303 0.533429
vt 0.489181 0.523113
vt 0.489181 0.386675
vn -0.557397 0.830246 0.000001
vn -0.220983 0.975278 0.000000
vn -0.220983 0.975278 0.000000
vn -0.557397 0.830246 0.000001
vn -0.953678 0.300829 0.000002
vn -0.953678 0.300829 0.000002
vn -1.000000 0.000000 0.000002
vn -1.000000 0.000000 0.000002
vn 0.000000 -1.000000 0.000000
vn 0.000000 -1.000000 0.000000
vn 0.000000 -1.000000 0.000000
vn 0.000000 -1.000000 0.000000
vn 1.000000 0.000000 0.000000
vn 1.000000 0.000000 0.000000
vn 1.000000 0.000000 0.000000
vn 1.000000 0.000000 0.000000
vn 0.000009 0.000001 1.000000
vn 0.000009 0.000001 1.000000
vn 0.000009 0.000001 1.000000
vn 0.000009 0.000001 1.000000
vn 0.000009 0.000001 1.000000
vn -0.557392 0.830249 0.000000
vn -0.220983 0.975278 0.000000
vn -0.220983 0.975278 0.000000
vn -0.557392 0.830249 0.000000
vn 1.000000 0.000000 0.000000
vn 1.000000 0.000000 0.000000
vn 1.000000 0.000000 0.000000
vn 1.000000 0.000000 0.000000
vn 0.000000 -1.000000 0.000000
vn 0.000000 -1.000000 0.000000
vn 0.000000 -1.000000 0.000000
vn 0.000000 -1.000000 0.000000
vn -1.000000 -0.000002 0.000000
vn -0.953677 0.300834 0.000000
vn -0.953677 0.300834 0.000000
vn -1.000000 -0.000002 0.000000
vn 0.000000 0.000000 -1.000000
vn 0.000000 0.000000 -1.000000
vn 0.000000 0.000000 -1.000000
vn 0.000000 0.000000 -1.000000
vn 0.000000 0.000000 -1.000000
vn 0.000004 0.000000 1.000000
vn 0.000004 0.000000 1.000000
vn 0.000004 0.000000 1.000000
vn 0.000004 0.000000 1.000000
vn 0.000004 0.000000 1.000000
vn 0.000000 0.830243 -0.557402
vn 0.000000 0.975279 -0.220977
vn 0.000000 0.975279 -0.220977
vn 0.000000 0.830243 -0.557402
vn -0.000000 0.300821 -0.953681
vn -0.000000 0.300821 -0.953681
vn -0.000001 0.000001 -1.000000
vn -0.000001 0.000001 -1.000000
vn 0.000000 -1.000000 0.000000
vn 0.000000 -1.000000 0.000000
vn 0.000000 -1.000000 0.000000
vn 0.000000 -1.000000 0.000000
vn 0.000000 0.000000 1.000000
vn 0.000000 0.000000 1.000000
vn 0.000000 0.000000 1.000000
vn 0.000000 0.000000 1.000000
vn 1.000000 -0.000001 -0.000007
vn 1.000000 -0.000001 -0.000007
vn 1.000000 -0.000001 -0.000007
vn 1.000000 -0.000001 -0.000007
vn 1.000000 -0.000001 -0.000007
vn -0.000000 0.830244 -0.557401
vn -0.000000 0.975279 -0.220978
vn -0.000000 0.975279 -0.220978
vn -0.000000 0.830244 -0.557401
vn 0.000001 0.000000 1.000000
vn 0.000001 0.000000 1.000000
vn 0.000001 0.000000 1.000000
vn 0.000001 0.000000 1.000000
vn 0.000000 -1.000000 0.000000
vn 0.000000 -1.000000 0.000000
vn 0.000000 -1.000000 0.000000
vn 0.000000 -1.000000 0.000000
vn 0.000000 0.000000 -1.000000
vn -0.000000 0.300823 -0.953680
vn -0.000000 0.300823 -0.953680
vn 0.000000 0.000000 -1.000000
vn 1.000000 0.000000 0.000000
vn 1.000000 0.000000 0.000000
vn 1.000000 0.000000 0.000000
vn 1.000000 0.000000 0.000000
vn 1.000000 0.000000 0.000000
vn -1.000000 0.000001 0.000007
vn -1.000000 0.000001 0.000007
vn -1.000000 0.000001 0.000007
vn -1.000000 0.000001 0.000007
vn -1.000000 0.000001 0.000007
s 1
f 11/22/1 12/23/2 1/1/3 3/2/4
f 4/3/5 15/18/6 11/22/1 3/2/4
f 14/19/7 15/18/6 4/3/5 2/4/8
s off
f 5/5/9 13/20/10 14/26/11 2/6/12
f 1/1/13 12/23/14 13/20/15 5/5/16
f 10/7/17 6/8/18 8/9/19 9/10/20 7/11/21
s 2
f 8/12/22 6/13/23 17/24/24 16/21/25
s off
f 18/25/26 17/24/27 6/13/28 10/14/29
f 19/27/30 18/25/31 10/14/32 7/15/33
s 2
f 7/16/34 9/17/35 20/29/36 19/28/37
f 16/21/25 20/29/36 9/17/35 8/12/22
s off
f 18/30/38 19/31/39 20/32/40 16/33/41 17/34/42
f 13/35/43 12/36/44 11/37/45 15/38/46 14/39/47
s 3
f 26/40/48 27/41/49 21/42/50 23/43/51
f 24/44/52 30/45/53 26/40/48 23/43/51
f 29/46/54 30/45/53 24/44/52 22/47/55
s off
f 25/48/56 28/49/57 29/50/58 22/51/59
f 21/42/60 27/41/61 28/49/62 25/48/63
f 25/52/64 22/53/65 24/54/66 23/55/67 21/56/68
s 4
f 3/57/69 1/58/70 32/59/71 31/60/72
s off
f 33/61/73 32/59/74 1/58/75 5/62/76
f 34/63/77 33/61/78 5/62/79 2/64/80
s 4
f 2/65/81 4/66/82 35/67/83 34/68/84
f 31/60/72 35/67/83 4/66/82 3/57/69
s off
f 33/69/85 34/70/86 35/71/87 31/72/88 32/73/89
f 28/74/90 27/75/91 26/76/92 30/77/93 29/78/94
