# This file uses centimeters as units for non-parametric coordinates.

v 3.000000 -4.000000 -0.000149
v 3.000000 -0.000000 -0.000149
v -3.000000 0.000000 -0.000149
v -3.000000 -4.000000 -0.000149
v -3.000000 -4.000000 -1.000000
v -3.000000 0.000000 -1.000000
v 3.000000 -4.000000 -1.000000
v 3.000000 -0.000000 -1.000000
v 3.000000 4.000000 -0.000149
v -3.000000 4.000000 -0.000149
v -3.000000 4.000000 -1.000000
v 3.000000 4.000000 -1.000000
v -1.450478 -4.000000 -0.998808
v -1.450478 0.001251 -1.000000
v -1.021660 0.864729 -1.000000
v 0.000000 1.500795 -1.000000
v 1.450478 -4.000000 -0.998808
v 1.450478 0.001251 -1.000000
v 1.021660 0.864729 -1.000000
v -1.450478 0.001251 -0.000595
v 0.000000 1.500795 -0.000595
v -1.021660 0.864729 -0.000595
v -1.450478 -4.000000 0.000595
v 1.450478 0.001251 -0.000595
v 1.021660 0.864729 -0.000595
v 1.450478 -4.000000 0.000595
vt 0.885194 0.554213
vt 0.885194 0.841947
vt 0.449343 0.554213
vt 0.449343 0.841947
vt 0.443712 0.994833
vt 0.007462 0.994833
vt 0.007462 0.923711
vt 0.443713 0.923711
vt 0.885194 0.554213
vt 0.885194 0.841947
vt 0.449343 0.841947
vt 0.449343 0.554213
vt 0.772640 0.554214
vt 0.772639 0.842036
vt 0.772635 0.554304
vt 0.741484 0.616417
vt 0.667269 0.662171
vt 0.561898 0.554215
vt 0.561898 0.842036
vt 0.561902 0.554305
vt 0.593053 0.616417
vt 0.816466 0.642183
vt 0.816466 0.698465
vt 0.757424 0.698465
vt 0.757424 0.642187
vt 0.816466 0.769604
vt 0.757424 0.769601
vt 0.786030 0.558093
vt 0.853877 0.558092
vt 0.853965 0.842653
vt 0.786117 0.842652
vt 0.816466 0.642183
vt 0.757424 0.642187
vt 0.757424 0.698465
vt 0.816466 0.698465
vt 0.757424 0.769601
vt 0.816466 0.769604
vt 0.786030 0.558093
vt 0.786117 0.842652
vt 0.853965 0.842653
vt 0.853877 0.558092
vt 0.772701 0.554227
vt 0.772701 0.842047
vt 0.885251 0.841957
vt 0.885252 0.554227
vt 0.449347 0.841932
vt 0.561958 0.554303
vt 0.449417 0.554215
vt 0.449285 0.554237
vt 0.449286 0.841968
vt 0.561836 0.842058
vt 0.561835 0.554237
vt 0.885188 0.841935
vt 0.667269 0.662131
vt 0.741464 0.616398
vt 0.593073 0.616398
vt 0.772579 0.554304
vt 0.885120 0.554215
vt 0.819362 0.841946
vt 0.819362 0.554215
vt 0.885009 0.554214
vt 0.885009 0.841947
vt 0.515947 0.554214
vt 0.515947 0.841946
vt 0.450019 0.841947
vt 0.450019 0.554213
vt 0.819362 0.841946
vt 0.819362 0.554215
vt 0.885009 0.554214
vt 0.885009 0.841947
vt 0.515947 0.554214
vt 0.515947 0.841946
vt 0.450019 0.841947
vt 0.450019 0.554213
vn -0.000385 -0.000149 -1.000000
vn -0.000128 -0.000050 -1.000000
vn -0.000192 -0.000074 -1.000000
vn -0.000385 -0.000149 -1.000000
vn 0.000000 0.000000 -1.000000
vn 0.000128 -0.000050 -1.000000
vn 0.000192 -0.000074 -1.000000
vn 0.000385 -0.000149 -1.000000
vn 0.000385 -0.000149 -1.000000
vn 0.000000 0.000000 -1.000000
vn 0.000000 0.000000 -1.000000
vn 0.000000 0.000000 -1.000000
vn 0.000000 0.000000 -1.000000
vn 0.973559 -0.228434 0.000000
vn 0.740194 -0.672394 0.000000
vn 0.740194 -0.672394 0.000000
vn 0.973559 -0.228434 0.000000
vn -0.000000 -1.000000 -0.000000
vn -0.000000 -1.000000 -0.000000
vn 1.000000 -0.000000 0.000000
vn 1.000000 -0.000000 0.000000
vn -0.973559 -0.228434 -0.000000
vn -0.973559 -0.228434 -0.000000
vn -0.740194 -0.672394 -0.000000
vn -0.740194 -0.672394 -0.000000
vn -1.000000 0.000000 -0.000000
vn -1.000000 0.000000 -0.000000
vn 0.000096 0.000149 1.000000
vn 0.000096 0.000149 1.000000
vn -0.000096 0.000074 1.000000
vn -0.000106 0.000029 1.000000
vn 0.000119 -0.000086 1.000000
vn 0.000096 0.000074 1.000000
vn 0.000106 0.000029 1.000000
vn -0.000096 0.000149 1.000000
vn -0.000096 0.000149 1.000000
vn -0.000000 -0.000128 1.000000
vn -0.000119 -0.000086 1.000000
vn -0.000095 -0.000082 1.000000
vn 0.000095 -0.000082 1.000000
vn -1.000000 0.000000 -0.000000
vn -1.000000 0.000000 -0.000000
vn -1.000000 0.000000 -0.000000
vn -1.000000 0.000000 -0.000000
vn 1.000000 -0.000000 0.000000
vn 1.000000 -0.000000 0.000000
vn 1.000000 -0.000000 0.000000
vn 1.000000 -0.000000 0.000000
vn -1.000000 0.000000 -0.000000
vn -1.000000 0.000000 -0.000000
vn 1.000000 -0.000000 0.000000
vn 1.000000 -0.000000 0.000000
vn 0.000000 1.000000 0.000000
vn 0.000000 1.000000 0.000000
vn 0.000000 1.000000 0.000000
vn 0.000000 1.000000 0.000000
s 1
f 17/18/1 18/19/2 8/4/3 7/3/4
f 11/10/5 14/15/6 6/9/7
f 5/1/8 6/2/7 14/14/6 13/13/9
f 11/10/5 12/11/10 16/17/11
f 16/17/11 12/11/10 19/21/12
f 11/10/5 16/17/11 15/16/13
f 19/21/12 12/11/10 18/20/2
f 11/10/5 15/16/13 14/15/6
f 18/20/2 12/11/10 8/12/3
s 4
f 14/22/14 15/23/15 22/24/16 20/25/17
f 15/23/15 16/26/18 21/27/19 22/24/16
f 23/28/20 13/29/21 14/30/14 20/31/17
f 18/32/22 24/33/23 25/34/24 19/35/25
f 19/35/25 25/34/24 21/36/19 16/37/18
f 26/38/26 24/39/23 18/40/22 17/41/27
s 6
f 26/42/28 1/45/29 2/44/30 24/43/31
f 10/46/32 3/48/33 20/47/34
f 4/49/35 23/52/36 20/51/34 3/50/33
f 10/46/32 21/54/37 9/53/38
f 21/54/37 25/55/39 9/53/38
f 10/46/32 22/56/40 21/54/37
f 25/55/39 24/57/31 9/53/38
f 10/46/32 20/47/34 22/56/40
f 24/57/31 2/58/30 9/53/38
s 9
f 11/59/41 6/60/42 3/61/43 10/62/44
s 10
f 8/63/45 12/64/46 9/65/47 2/66/48
s 9
f 6/67/42 5/68/49 4/69/50 3/70/43
s 10
f 7/71/51 8/72/45 2/73/48 1/74/52
s off
f 11/8/53 10/5/54 9/6/55 12/7/56
