# This file uses centimeters as units for non-parametric coordinates.

v 1.150673 0.325632 1.150674
v 1.188564 -0.116435 1.188565
v 1.115498 -0.116435 1.115499
v 1.115498 -0.457266 1.115499
v 1.175682 -0.457266 1.175683
v 0.814613 -0.921629 0.814614
v 1.152008 -0.921629 1.152009
v 1.205982 0.254919 1.205983
v 1.152008 -0.921629 -3.000000
v 1.175682 -0.457266 -3.000000
v 1.115498 -0.457266 -3.000000
v 1.115498 -0.116435 -3.000000
v 1.188564 -0.116435 -3.000000
v 1.205982 0.254919 -3.000000
v 1.150673 0.325632 -3.000000
v 0.735542 0.324051 -3.000000
v 0.654398 0.238789 -3.000000
v 0.345600 0.238789 -3.000000
v 0.264458 0.324051 -3.000000
v -0.150673 0.325632 -3.000000
v -0.205982 0.254919 -3.000000
v -0.188564 -0.116435 -3.000000
v -0.115498 -0.116435 -3.000000
v -0.115498 -0.457266 -3.000000
v -0.175682 -0.457266 -3.000000
v -0.152008 -0.921629 -3.000000
v 0.185387 -0.921629 -3.000000
v 0.814613 -0.921629 -3.000000
v -0.150673 0.325632 -0.150673
v -0.205982 0.254919 -0.205986
v -0.188564 -0.116435 -0.188568
v -0.115498 -0.116435 -0.115500
v -0.115498 -0.457266 -0.115500
v -0.175682 -0.457266 -0.175682
v -0.152008 -0.921629 -0.152008
v 0.185387 -0.921629 0.185387
v 0.264458 0.324051 0.264458
v 0.345600 0.238789 0.345601
v 0.654398 0.238789 0.654397
v 0.735546 0.324051 0.735542
v -3.000000 -0.921629 -0.152008
v -3.000000 -0.457266 -0.175682
v -3.000000 -0.457266 -0.115501
v -3.000000 -0.116435 -0.115501
v -3.000000 -0.116435 -0.188568
v -3.000000 0.254919 -0.205986
v -3.000000 0.325632 -0.150672
v -3.000000 0.324051 0.264458
v -3.000000 0.238789 0.345601
v -3.000000 0.238789 0.654397
v -3.000000 0.324051 0.735543
v -3.000000 0.325632 1.150674
v -3.000000 0.254919 1.205983
v -3.000000 -0.116435 1.188565
v -3.000000 -0.116435 1.115495
v -3.000000 -0.457266 1.115495
v -3.000000 -0.457266 1.175683
v -3.000000 -0.921629 1.152009
v -3.000000 -0.921629 0.814614
v -3.000000 -0.921629 0.185387
v 0.814613 -0.921629 -0.971722
v 1.152008 -0.921629 -0.969234
v 1.175682 -0.457266 -0.969059
v 1.115498 -0.457266 -0.969505
v 1.115498 -0.116435 -0.969505
v 1.188564 -0.116435 -0.968964
v 1.205982 0.254919 -0.968834
v 1.150673 0.325632 -0.969246
v 0.735542 0.324051 -0.972305
v 0.654398 0.238789 -0.972904
v 0.345600 0.238789 -0.975182
v 0.264458 0.324051 -0.975780
v -0.150673 0.325632 -0.978840
v -0.205982 0.254919 -0.979248
v -0.188564 -0.116435 -0.979118
v -0.115498 -0.116435 -0.978580
v -0.115498 -0.457266 -0.978580
v -0.175682 -0.457266 -0.979023
v -0.152008 -0.921629 -0.978851
v 0.185387 -0.921629 -0.976364
v -1.000000 -0.921629 0.814614
v -1.000000 0.254919 -0.205985
v -1.000000 0.254919 1.205983
v -1.000000 -0.921629 0.185388
v -1.000000 -0.921629 -0.152008
v -1.000000 -0.457267 -0.175681
v -1.000000 -0.457266 -0.115500
v -1.000000 -0.116434 -0.115500
v -1.000000 -0.116434 -0.188567
v -1.000000 0.325632 -0.150672
v -1.000000 0.324051 0.264458
v -1.000000 0.238789 0.345601
v -1.000000 0.238789 0.654397
v -1.000000 0.324051 0.735543
v -1.000000 0.325632 1.150674
v -1.000000 -0.116434 1.188565
v -1.000000 -0.116435 1.115495
v -1.000000 -0.457266 1.115495
v -1.000000 -0.457266 1.175683
v -1.000000 -0.921629 1.152009
vt 0.449819 0.924016
vt 0.448988 0.319836
vt 0.448992 0.345472
vt 0.451437 0.315843
vt 0.451434 0.292922
vt 0.448984 0.288157
vt 0.448980 0.254338
vt 0.463679 0.229076
vt 0.448993 0.355153
vt 0.742771 0.254339
vt 0.742771 0.288207
vt 0.742771 0.292882
vt 0.742771 0.315856
vt 0.742771 0.319824
vt 0.742880 0.924016
vt 0.742880 0.966223
vt 0.742880 0.973750
vt 0.742771 0.355056
vt 0.742771 0.345554
vt 0.742771 0.229052
vt 0.742771 0.229076
vt 0.742771 0.345525
vt 0.742771 0.355063
vt 0.742880 0.944331
vt 0.742880 0.951845
vt 0.742880 0.994489
vt 0.742771 0.319792
vt 0.742771 0.315881
vt 0.742771 0.292860
vt 0.742771 0.288189
vt 0.742771 0.254290
vt 0.531460 0.355044
vt 0.531735 0.994461
vt 0.535488 0.345533
vt 0.534217 0.319819
vt 0.528890 0.315867
vt 0.528889 0.292875
vt 0.533274 0.288212
vt 0.531546 0.254342
vt 0.506964 0.229104
vt 0.501696 0.973743
vt 0.495923 0.966214
vt 0.474148 0.951860
vt 0.471577 0.944340
vt 0.595653 0.319836
vt 0.595657 0.345472
vt 0.885791 0.345525
vt 0.885791 0.319824
vt 0.597370 0.315843
vt 0.885791 0.315856
vt 0.597367 0.292922
vt 0.885791 0.292882
vt 0.595649 0.288157
vt 0.885791 0.288207
vt 0.595645 0.254338
vt 0.885791 0.254339
vt 0.885791 0.229076
vt 0.612490 0.229076
vt 0.597484 0.355153
vt 0.885791 0.355063
vt 0.657667 0.229097
vt 0.885791 0.229053
vt 0.885791 0.254283
vt 0.682253 0.254347
vt 0.885791 0.288171
vt 0.683981 0.288227
vt 0.885791 0.292850
vt 0.679593 0.292875
vt 0.885791 0.315879
vt 0.679595 0.315867
vt 0.885791 0.319775
vt 0.684922 0.319821
vt 0.686195 0.345551
vt 0.885791 0.345533
vt 0.885791 0.355031
vt 0.682165 0.355044
vt 0.885791 0.944322
vt 0.652756 0.944329
vt 0.682806 0.924032
vt 0.885791 0.924003
vt 0.885791 0.951847
vt 0.646919 0.951858
vt 0.885791 0.966219
vt 0.624783 0.966214
vt 0.885791 0.973737
vt 0.620212 0.973746
vt 0.598089 0.994477
vt 0.885791 0.994467
vt 0.837227 0.253544
vt 0.788812 0.253544
vt 0.762852 0.253544
vt 0.761030 0.289907
vt 0.765661 0.289907
vt 0.765661 0.316596
vt 0.760039 0.316596
vt 0.758699 0.345675
vt 0.762954 0.351212
vt 0.794896 0.351089
vt 0.801140 0.344412
vt 0.824900 0.344412
vt 0.831143 0.351089
vt 0.863085 0.351212
vt 0.867341 0.345675
vt 0.866001 0.316596
vt 0.860379 0.316596
vt 0.860379 0.289907
vt 0.865010 0.289907
vt 0.863188 0.253544
vt 0.788793 0.253547
vt 0.837207 0.253547
vt 0.863167 0.253547
vt 0.864989 0.289902
vt 0.860356 0.289917
vt 0.860358 0.316601
vt 0.865981 0.316601
vt 0.867321 0.345674
vt 0.863065 0.351210
vt 0.831124 0.351087
vt 0.824880 0.344411
vt 0.801120 0.344411
vt 0.794877 0.351087
vt 0.762935 0.351210
vt 0.758679 0.345674
vt 0.760020 0.316601
vt 0.765643 0.316584
vt 0.765642 0.289902
vt 0.761012 0.289902
vt 0.762833 0.253547
vt 0.765643 0.289917
vt 0.860358 0.289902
vt 0.765642 0.316601
vt 0.860356 0.316584
vt 0.594233 0.229086
vt 0.594233 0.254337
vt 0.594233 0.288208
vt 0.594233 0.292878
vt 0.594233 0.315861
vt 0.594233 0.319819
vt 0.594233 0.345531
vt 0.594233 0.924021
vt 0.594233 0.355056
vt 0.594233 0.944346
vt 0.594233 0.951842
vt 0.594233 0.966229
vt 0.594233 0.973735
vt 0.594233 0.354995
vt 0.594233 0.994466
vt 0.594233 0.345573
vt 0.594233 0.319795
vt 0.594233 0.315886
vt 0.594233 0.292846
vt 0.594233 0.288232
vt 0.594233 0.254324
vt 0.594233 0.229095
vt 0.742921 0.229082
vt 0.742921 0.345565
vt 0.742921 0.345518
vt 0.742921 0.229087
vt 0.742921 0.254326
vt 0.742921 0.288225
vt 0.742921 0.292854
vt 0.742921 0.315880
vt 0.742921 0.319799
vt 0.742921 0.924025
vt 0.742921 0.355011
vt 0.742921 0.944333
vt 0.742921 0.951847
vt 0.742921 0.966223
vt 0.742921 0.973736
vt 0.742921 0.355077
vt 0.742921 0.994469
vt 0.742921 0.319824
vt 0.742921 0.315856
vt 0.742921 0.292888
vt 0.742921 0.288198
vt 0.742921 0.254338
vn 0.001904 0.999996 0.001904
vn 0.001904 0.999996 0.001904
vn 0.003809 0.999993 0.000000
vn 0.003809 0.999993 0.000000
vn -0.003809 0.999993 0.000000
vn -0.003809 0.999993 0.000000
vn -0.001904 0.999996 -0.001904
vn -0.001904 0.999996 -0.001904
vn 0.724391 0.689389 0.000000
vn 0.551501 0.787280 0.275749
vn 0.724391 0.689389 0.000000
vn 0.724391 0.689389 0.000000
vn 0.421720 0.802687 0.421718
vn -0.724383 0.689397 -0.000000
vn -0.551486 0.787292 -0.275743
vn -0.724378 0.689403 0.000001
vn -0.724383 0.689397 -0.000000
vn -0.421703 0.802702 -0.421707
vn 0.000000 1.000000 0.000000
vn 0.000000 1.000000 0.000000
vn 0.000000 1.000000 0.000000
vn 0.000000 1.000000 0.000000
vn 0.999813 0.019317 -0.000000
vn 0.965953 0.258718 -0.000000
vn 0.581773 0.630576 0.513725
vn 0.463888 0.304794 0.831810
vn 0.998902 -0.046852 0.000000
vn 0.998902 -0.046852 0.000000
vn -0.000000 -1.000000 -0.000000
vn -0.000000 -1.000000 -0.000000
vn -0.000000 -1.000000 -0.000000
vn -0.000000 -1.000000 -0.000000
vn -0.000000 -1.000000 -0.000000
vn 1.000000 -0.000000 0.000000
vn 1.000000 -0.000000 0.000000
vn 1.000000 -0.000000 0.000000
vn 1.000000 -0.000000 0.000000
vn 0.000000 1.000000 0.000000
vn 0.000000 1.000000 0.000000
vn 0.000000 1.000000 0.000000
vn 0.000000 1.000000 0.000000
vn 0.000000 1.000000 0.000000
vn 0.998703 -0.050915 0.000000
vn 0.998703 -0.050916 0.000000
vn 0.998703 -0.050916 0.000000
vn 0.998703 -0.050916 0.000000
vn 0.998703 -0.050916 0.000000
vn -0.000000 -1.000000 -0.000000
vn -0.000000 -1.000000 -0.000000
vn -0.000000 -1.000000 -0.000000
vn -0.000000 -1.000000 -0.000000
vn 0.787674 0.616092 0.000000
vn 0.787674 0.616092 0.000000
vn -0.952805 0.303583 -0.000000
vn -0.822435 0.393072 -0.411212
vn -0.787674 0.616092 -0.000000
vn -0.952805 0.303583 -0.000000
vn -0.474196 0.741814 -0.474183
vn -0.998902 -0.046852 -0.000000
vn -0.998902 -0.046852 -0.000000
vn -0.000000 -1.000000 -0.000000
vn -0.000000 -1.000000 -0.000000
vn -0.000000 -1.000000 -0.000000
vn -0.000000 -1.000000 -0.000000
vn -0.000000 -1.000000 -0.000000
vn -1.000000 0.000000 -0.000000
vn -1.000000 0.000000 -0.000000
vn -1.000000 0.000000 -0.000000
vn -1.000000 0.000000 -0.000000
vn 0.000000 1.000000 0.000000
vn 0.000000 1.000000 0.000000
vn 0.000000 1.000000 0.000000
vn 0.000000 1.000000 0.000000
vn 0.000000 1.000000 0.000000
vn -0.998703 -0.050916 -0.000000
vn -0.998703 -0.050916 -0.000000
vn -0.998703 -0.050916 -0.000000
vn -0.998703 -0.050916 -0.000000
vn -0.998703 -0.050916 -0.000000
vn -0.000000 -1.000000 -0.000000
vn -0.000000 -1.000000 -0.000000
vn -0.000000 -1.000000 -0.000000
vn -0.000000 -1.000000 -0.000000
vn 0.000000 -0.046852 0.998902
vn 0.000000 0.373268 0.927724
vn 0.000000 -0.046852 0.998902
vn -0.000000 -1.000000 0.000006
vn -0.000000 -1.000000 0.000006
vn -0.000000 -1.000000 0.000006
vn -0.000000 -1.000000 0.000006
vn -0.000002 -0.000000 1.000000
vn -0.000001 -0.000000 1.000000
vn -0.000001 -0.000000 1.000000
vn -0.000002 -0.000000 1.000000
vn 0.000000 1.000000 -0.000000
vn 0.000000 1.000000 -0.000000
vn 0.000000 1.000000 -0.000000
vn 0.000000 1.000000 -0.000000
vn -0.000000 -0.050916 0.998703
vn -0.000000 -0.050916 0.998703
vn -0.000000 -0.050916 0.998703
vn -0.000000 -0.050916 0.998703
vn -0.000000 -0.050916 0.998703
vn -0.000000 -1.000000 -0.000000
vn -0.000000 -1.000000 -0.000000
vn -0.000000 -1.000000 -0.000000
vn -0.000000 -1.000000 -0.000000
vn 0.000000 0.616092 0.787674
vn 0.000000 0.616092 0.787674
vn -0.000000 -1.000000 -0.000000
vn -0.000000 -1.000000 -0.000000
vn -0.000001 -0.050915 -0.998703
vn -0.000001 -0.050915 -0.998703
vn -0.000000 -0.050915 -0.998703
vn -0.000000 -0.050915 -0.998703
vn 0.000000 1.000000 -0.000008
vn 0.000000 1.000000 -0.000008
vn 0.000000 1.000000 -0.000008
vn 0.000000 1.000000 -0.000008
vn 0.000000 0.000000 -1.000000
vn 0.000000 0.000000 -1.000000
vn 0.000000 0.000000 -1.000000
vn 0.000000 0.000000 -1.000000
vn -0.000001 -1.000000 0.000000
vn -0.000001 -1.000000 0.000000
vn -0.000000 -1.000000 0.000000
vn -0.000000 -1.000000 0.000000
vn -0.000001 -0.046852 -0.998902
vn -0.000000 -0.046852 -0.998902
vn -0.000000 0.303599 -0.952800
vn -0.000000 0.616118 -0.787654
vn 0.000000 0.999993 0.003809
vn 0.000000 0.999993 0.003809
vn 0.000000 0.689392 0.724388
vn 0.000000 0.689392 0.724388
vn 0.000000 1.000000 0.000000
vn 0.000000 1.000000 0.000000
vn -0.000000 0.689405 -0.724376
vn -0.000000 0.689405 -0.724376
vn -0.000000 0.999993 -0.003809
vn -0.000000 0.999993 -0.003809
vn 0.000000 0.000000 -1.000000
vn 0.000000 0.000000 -1.000000
vn 0.000000 0.000000 -1.000000
vn 0.000000 0.000000 -1.000000
vn 0.000000 0.000000 -1.000000
vn 0.000000 0.000000 -1.000000
vn 0.000000 0.000000 -1.000000
vn 0.000000 0.000000 -1.000000
vn 0.000000 0.000000 -1.000000
vn 0.000000 0.000000 -1.000000
vn 0.000000 0.000000 -1.000000
vn 0.000000 0.000000 -1.000000
vn 0.000000 0.000000 -1.000000
vn 0.000000 0.000000 -1.000000
vn 0.000000 0.000000 -1.000000
vn 0.000000 0.000000 -1.000000
vn 0.000000 0.000000 -1.000000
vn 0.000000 0.000000 -1.000000
vn 0.000000 0.000000 -1.000000
vn 0.000000 0.000000 -1.000000
vn -1.000000 0.000000 -0.000000
vn -1.000000 0.000000 -0.000000
vn -1.000000 0.000000 -0.000000
vn -1.000000 0.000000 -0.000000
vn -1.000000 0.000000 -0.000000
vn -1.000000 0.000000 -0.000000
vn -1.000000 0.000000 -0.000000
vn -1.000000 0.000000 -0.000000
vn -1.000000 0.000000 -0.000000
vn -1.000000 0.000000 -0.000000
vn -1.000000 0.000000 -0.000000
vn -1.000000 0.000000 -0.000000
vn -1.000000 0.000000 -0.000000
vn -1.000000 0.000000 -0.000000
vn -1.000000 0.000000 -0.000000
vn -1.000000 0.000000 -0.000000
vn -1.000000 0.000000 -0.000000
vn -1.000000 0.000000 -0.000000
vn -1.000000 0.000000 -0.000000
vn -1.000000 0.000000 -0.000000
vn -0.000000 -1.000000 -0.000000
vn -0.000000 -1.000000 -0.000000
vn 0.998703 -0.050915 0.000000
vn 0.000000 1.000000 0.000000
vn 1.000000 -0.000000 0.000000
vn 1.000000 -0.000000 0.000000
vn -0.000000 -1.000000 -0.000000
vn 0.952805 0.303583 0.000000
vn -0.003809 0.999993 0.000000
vn -0.003809 0.999993 0.000000
vn -0.724383 0.689398 -0.000000
vn 0.000000 1.000000 0.000000
vn 0.000000 1.000000 0.000000
vn 0.724392 0.689389 0.000000
vn 0.003809 0.999993 0.000000
vn 0.003809 0.999993 0.000000
vn -0.787674 0.616092 -0.000000
vn -0.998902 -0.046852 -0.000000
vn -0.000000 -1.000000 -0.000000
vn -1.000000 0.000000 -0.000000
vn -1.000000 0.000000 -0.000000
vn 0.000000 1.000000 0.000000
vn -0.998703 -0.050916 -0.000000
vn -0.000000 -1.000000 -0.000000
vn -0.000000 -1.000000 -0.000000
vn 0.000000 0.303583 0.952805
vn -0.000000 -0.046852 0.998902
vn -0.000000 -1.000000 0.000007
vn -0.000000 -1.000000 0.000007
vn -0.000000 -0.000000 1.000000
vn -0.000000 -0.000000 1.000000
vn 0.000000 1.000000 0.000000
vn 0.000000 1.000000 0.000000
vn -0.000000 -0.050916 0.998703
vn -0.000000 -1.000000 -0.000000
vn -0.000000 -1.000000 -0.000000
vn -0.000000 -0.050915 -0.998703
vn -0.000000 -0.050915 -0.998703
vn 0.000000 1.000000 -0.000008
vn 0.000000 1.000000 -0.000008
vn 0.000000 0.000000 -1.000000
vn 0.000000 0.000000 -1.000000
vn 0.000000 -1.000000 -0.000000
vn 0.000000 -1.000000 -0.000000
vn 0.000000 -0.046852 -0.998902
vn 0.000000 0.303599 -0.952800
vn 0.000000 0.616118 -0.787654
vn 0.000000 0.999993 0.003809
vn 0.000000 0.999993 0.003809
vn 0.000000 0.689391 0.724389
vn 0.000000 0.689391 0.724389
vn 0.000000 1.000000 0.000000
vn 0.000000 1.000000 0.000000
vn 0.000000 0.689406 -0.724375
vn 0.000000 0.689406 -0.724375
vn 0.000000 0.999993 -0.003809
vn 0.000000 0.999993 -0.003809
s 1
f 29/33/1 37/41/2 72/145/3 73/147/4
s 2
f 68/140/5 69/142/6 40/44/7 1/1/8
s 3
f 72/145/9 37/41/10 71/144/11 19/17/12
f 71/144/11 37/41/10 38/42/13
s 4
f 70/143/14 39/43/15 69/142/16 17/25/17
f 69/142/16 39/43/15 40/44/18
s 5
f 70/143/19 71/144/20 38/42/21 39/43/22
s 6
f 2/2/23 67/139/24 1/9/25 8/3/26
f 67/139/24 2/2/23 66/138/27 13/14/28
s 7
f 2/2/29 3/4/30 66/138/31
f 66/138/31 3/4/30 65/137/32 12/13/33
s 8
f 4/5/34 64/136/35 65/137/36 3/4/37
s 9
f 5/6/38 63/135/39 4/5/40
f 64/136/41 4/5/40 63/135/39 11/12/42
s 10
f 5/6/43 7/7/44 63/135/45
f 63/135/45 7/7/44 62/134/46 9/10/47
s 11
f 62/134/48 7/7/49 6/8/50 61/133/51
s 6
f 68/141/52 1/9/25 67/139/24 15/23/53
s 12
f 74/148/54 30/34/55 73/146/56 21/19/57
f 73/146/56 30/34/55 29/32/58
f 31/35/59 30/34/55 75/149/60
f 75/149/60 30/34/55 74/148/54 21/19/57
s 13
f 32/36/61 31/35/62 76/150/63
f 76/150/63 31/35/62 75/149/64 22/27/65
s 14
f 32/36/66 76/150/67 77/151/68 33/37/69
s 15
f 33/37/70 77/151/71 34/38/72
f 78/152/73 34/38/72 77/151/71 25/30/74
s 16
f 35/39/75 34/38/76 79/153/77
f 79/153/77 34/38/76 78/152/78 25/30/79
s 17
f 80/154/80 36/40/81 35/39/82 79/153/83
s 6
f 2/45/84 8/46/26 83/157/85 96/172/86
s 18
f 3/49/87 2/45/88 96/172/89 97/173/90
s 19
f 3/49/91 97/173/92 98/174/93 4/51/94
s 20
f 99/175/95 5/53/96 4/51/97 98/174/98
s 21
f 5/53/99 99/175/100 7/55/101
f 100/176/102 7/55/101 99/175/100 58/56/103
s 11
f 81/155/104 100/176/105 58/56/106 59/57/107
s 6
f 8/46/26 1/59/25 83/157/85
f 83/157/85 1/59/25 95/170/108 52/60/109
s 17
f 35/64/82 36/61/81 84/158/110 85/159/111
s 22
f 34/66/112 35/64/113 85/159/114 86/160/115
s 23
f 87/161/116 33/68/117 34/66/118 86/160/119
s 24
f 33/68/120 87/161/121 88/162/122 32/70/123
s 25
f 31/72/124 32/70/125 88/162/126 89/163/127
s 12
f 30/73/55 31/72/128 89/163/129 82/156/130
f 90/165/131 29/76/58 30/73/55 82/156/130
s 1
f 91/166/132 37/78/2 29/79/1 90/164/133
s 3
f 92/167/134 38/82/13 37/78/10 91/166/135
s 5
f 93/168/136 39/84/22 38/82/21 92/167/137
s 4
f 94/169/138 40/86/18 39/84/15 93/168/139
s 2
f 95/171/140 1/87/8 40/86/7 94/169/141
s 27
f 26/91/142 25/92/143 24/93/144 27/90/145
f 10/107/146 9/108/147 11/106/148
f 11/106/148 9/108/147 28/89/149 27/90/145
f 23/94/150 22/95/151 21/96/152 12/105/153
f 13/104/154 12/105/153 14/103/155
f 27/90/145 24/93/144 11/106/148
f 23/94/150 12/105/153 11/106/148 24/93/144
f 12/105/153 21/96/152 18/99/156
f 19/98/157 18/99/156 21/96/152 20/97/158
f 15/102/159 14/103/155 16/101/160
f 17/100/161 16/101/160 14/103/155 12/105/153
f 18/99/156 17/100/161 12/105/153
s 31
f 55/114/162 54/115/163 53/116/164 52/117/165
f 46/123/166 45/124/167 44/131/168 55/114/162
f 48/121/169 47/122/170 46/123/166 49/120/171
f 49/120/171 46/123/166 55/114/162
f 50/119/172 55/114/162 52/117/165 51/118/173
f 55/114/162 50/119/172 49/120/171
f 56/113/174 55/132/162 44/125/168 43/129/175
f 58/111/176 57/112/177 56/130/174 59/110/178
f 56/130/174 43/126/175 59/110/178
f 60/109/179 59/110/178 43/126/175 41/128/180
f 42/127/181 41/128/180 43/126/175
s 11
f 9/10/182 62/134/48 61/133/51 28/21/183
s 10
f 10/11/184 63/135/45 9/10/47
s 9
f 11/12/42 63/135/39 10/11/185
s 8
f 64/136/35 11/12/186 12/13/187 65/137/36
s 7
f 13/14/188 66/138/31 12/13/33
s 6
f 14/22/189 67/139/24 13/14/28
f 15/23/53 67/139/24 14/22/189
s 2
f 15/15/190 16/24/191 69/142/6 68/140/5
s 4
f 16/24/192 17/25/17 69/142/16
s 5
f 17/25/193 18/16/194 71/144/20 70/143/19
s 3
f 18/16/195 19/17/12 71/144/11
s 1
f 73/147/4 72/145/3 19/17/196 20/26/197
s 12
f 20/18/198 21/19/57 73/146/56
f 22/27/199 75/149/60 21/19/57
s 13
f 23/28/200 76/150/63 22/27/65
s 14
f 76/150/67 23/28/201 24/29/202 77/151/68
s 15
f 25/30/74 77/151/71 24/29/203
s 16
f 26/31/204 79/153/77 25/30/79
s 17
f 27/20/205 80/154/80 79/153/83 26/31/206
s 6
f 83/157/85 53/47/207 54/48/208 96/172/86
s 18
f 96/172/89 54/48/209 55/50/210 97/173/90
s 19
f 97/173/92 55/50/211 56/52/212 98/174/93
s 20
f 98/174/98 56/52/213 57/54/214 99/175/95
s 21
f 58/56/103 99/175/100 57/54/215
s 11
f 100/176/105 81/155/104 6/58/50 7/55/49
s 6
f 53/47/207 83/157/85 52/60/109
s 17
f 84/158/110 60/62/216 41/63/217 85/159/111
s 22
f 85/159/114 41/63/218 42/65/219 86/160/115
s 23
f 86/160/119 42/65/220 43/67/221 87/161/116
s 24
f 87/161/121 43/67/222 44/69/223 88/162/122
s 25
f 88/162/126 44/69/224 45/71/225 89/163/127
s 12
f 89/163/129 45/71/226 46/74/227 82/156/130
f 82/156/130 46/74/227 47/75/228 90/165/131
s 1
f 90/164/133 47/80/229 48/77/230 91/166/132
s 3
f 91/166/135 48/77/231 49/81/232 92/167/134
s 5
f 92/167/137 49/81/233 50/83/234 93/168/136
s 4
f 93/168/139 50/83/235 51/85/236 94/169/138
s 2
f 94/169/141 51/85/237 52/88/238 95/171/140
