# This file uses centimeters as units for non-parametric coordinates.

v 0.925041 -0.044113 1.115498
v 0.949589 -0.384060 1.115498
v 0.949589 -0.384060 1.175682
v 0.983032 -0.847217 1.152008
v 0.925041 -0.044113 -0.115498
v 0.949589 -0.384060 -0.115498
v 0.949589 -0.384060 -0.175682
v 0.983032 -0.847217 -0.152008
v -0.595856 -0.961224 1.152008
v -0.629295 -0.498066 1.175682
v -0.629295 -0.498066 1.115498
v -0.336433 -0.135200 1.115498
v -0.310822 -0.475070 1.115498
v -0.334721 -0.135077 -0.115498
v -0.309818 -0.474998 -0.115498
v -0.407349 -0.482040 -0.175682
v -0.254356 -0.943522 -0.152008
v -0.275837 -0.715631 -0.163675
v -0.418411 -0.482839 -0.115498
v -0.629292 -0.498066 0.226609
v -0.595856 -0.961223 0.337615
v -0.611366 -0.746367 0.306011
v -0.454754 -0.951035 0.110103
v -0.348606 -0.139591 -0.188210
v -0.743935 -0.172202 -0.203482
v -0.322662 -0.470072 -0.187769
v -0.718037 -0.502684 -0.202169
v -0.363018 -0.139995 0.488497
v -0.798775 -0.173995 0.471153
v -0.337070 -0.470476 0.488937
v -0.772873 -0.504478 0.472466
v -0.398621 -0.141142 0.486969
v -0.893711 -0.176676 0.514519
v -0.372692 -0.471624 0.486219
v -0.867779 -0.507157 0.513771
v -0.360641 -0.139791 1.164057
v -0.855728 -0.175323 1.191610
v -0.334705 -0.470272 1.163311
v -0.829796 -0.505805 1.190861
v 0.893204 0.396805 -0.150673
v 0.893204 0.396805 1.150673
v 0.893318 0.395228 0.735542
v 0.893318 0.395228 0.264458
v 0.899460 0.310187 0.654400
v 0.899460 0.310187 0.345600
v 0.925041 -0.044113 1.188564
v 0.898296 0.326276 1.205982
v 0.925041 -0.044113 -0.188564
v 0.898296 0.326276 -0.205982
v -0.638428 -0.157686 1.115498
v -0.575565 -0.155920 1.188564
v -0.602306 0.214470 1.205982
v -0.607399 0.285000 1.150673
v -0.670151 0.281656 0.735542
v -0.664009 0.196615 0.654396
v -0.504429 0.292783 -0.150673
v -0.555977 0.288739 0.264458
v -0.573090 0.202018 0.345600
v -0.736408 -0.160440 0.709743
v -0.335945 -0.135165 0.763071
v -0.492893 0.220516 -0.205982
v -0.566090 -0.153141 -0.188564
v -0.656559 -0.152968 -0.115498
vt 0.839881 0.292921
vt 0.886346 0.288156
vt 0.886350 0.254336
vt 0.839878 0.315842
vt 0.886346 0.292921
vt 0.886346 0.288156
vt 0.886350 0.254336
vt 0.469165 0.250989
vt 0.467245 0.289518
vt 0.472126 0.291420
vt 0.472126 0.315543
vt 0.571942 0.315543
vt 0.571942 0.291420
vt 0.576823 0.289518
vt 0.574903 0.250989
vt 0.574903 0.250989
vt 0.576823 0.289518
vt 0.688757 0.254994
vt 0.688757 0.283519
vt 0.839881 0.292921
vt 0.839878 0.315842
vt 0.886346 0.292921
vt 0.571943 0.289518
vt 0.742855 0.292911
vt 0.742854 0.288167
vt 0.742856 0.254336
vt 0.654128 0.283519
vt 0.744357 0.315846
vt 0.744520 0.292913
vt 0.771739 0.292913
vt 0.744616 0.315846
vt 0.771922 0.292913
vt 0.744672 0.292913
vt 0.472125 0.291421
vt 0.571943 0.291421
vt 0.571943 0.315543
vt 0.472125 0.315543
vt 0.000000 0.000000
vt 0.000000 0.000000
vt 0.000000 0.000000
vt 0.763025 0.288166
vt 0.661607 0.254994
vt 0.773849 0.253842
vt 0.773393 0.270504
vt 0.762042 0.292912
vt 0.000000 0.000000
vt 0.499869 0.289511
vt 0.000000 0.000000
vt 0.508872 0.251001
vt 0.654129 0.265704
vt 0.506306 0.268864
vt 0.657223 0.260727
vt 0.323458 0.274072
vt 0.295651 0.249548
vt 0.323642 0.250895
vt 0.259367 0.276862
vt 0.271757 0.248750
vt 0.319168 0.303477
vt 0.275676 0.304810
vt 0.270553 0.304920
vt 0.874862 0.294147
vt 0.874861 0.313607
vt 0.842543 0.313910
vt 0.842548 0.294426
vt 0.541162 0.383670
vt 0.540660 0.362092
vt 0.567197 0.362092
vt 0.567707 0.383670
vt 0.592591 0.294473
vt 0.592591 0.314008
vt 0.551917 0.314008
vt 0.551917 0.294473
vt 0.592591 0.314008
vt 0.592591 0.294473
vt 0.551917 0.294473
vt 0.551917 0.314008
vt 0.577000 0.281316
vt 0.559657 0.280913
vt 0.559657 0.259577
vt 0.577000 0.259988
vt 0.874862 0.294147
vt 0.842548 0.294426
vt 0.842543 0.313910
vt 0.874861 0.313607
vt 0.884501 0.294427
vt 0.884503 0.313910
vt 0.842543 0.313910
vt 0.842548 0.294426
vt 0.541162 0.383670
vt 0.541162 0.355663
vt 0.567707 0.355663
vt 0.567707 0.383670
vt 0.592562 0.294227
vt 0.592562 0.314008
vt 0.551917 0.314008
vt 0.551917 0.294227
vt 0.592562 0.314008
vt 0.592562 0.294227
vt 0.551917 0.294227
vt 0.551917 0.314008
vt 0.582167 0.280913
vt 0.559657 0.280913
vt 0.559657 0.259577
vt 0.582167 0.259577
vt 0.884501 0.294427
vt 0.842548 0.294426
vt 0.842543 0.313910
vt 0.884503 0.313910
vt 0.886343 0.315842
vt 0.886342 0.319836
vt 0.749930 0.319592
vt 0.744189 0.315867
vt 0.771544 0.315846
vt 0.749945 0.345279
vt 0.886338 0.345472
vt 0.886337 0.355153
vt 0.749947 0.354766
vt 0.885506 0.924016
vt 0.885506 0.944310
vt 0.743747 0.944353
vt 0.749432 0.924039
vt 0.743747 0.951891
vt 0.885505 0.951876
vt 0.751983 0.966136
vt 0.885505 0.966196
vt 0.754093 0.973685
vt 0.885506 0.973762
vt 0.758771 0.994463
vt 0.885506 0.994477
vt 0.759308 0.354812
vt 0.886337 0.355153
vt 0.886338 0.345472
vt 0.759878 0.345149
vt 0.886342 0.319836
vt 0.750820 0.319739
vt 0.571942 0.315543
vt 0.472126 0.315543
vt 0.466201 0.316280
vt 0.464788 0.346392
vt 0.469273 0.352126
vt 0.502935 0.351997
vt 0.509514 0.345084
vt 0.534554 0.345084
vt 0.541133 0.351997
vt 0.574795 0.352126
vt 0.579280 0.346392
vt 0.577867 0.316280
vt 0.338101 0.273475
vt 0.366937 0.273753
vt 0.372172 0.273569
vt 0.373469 0.300119
vt 0.369513 0.305167
vt 0.339747 0.305205
vt 0.333916 0.299098
vt 0.000000 0.000000
vt 0.000000 0.000000
vt 0.000000 0.000000
vt 0.000000 0.000000
vt 0.771855 0.315846
vt 0.742645 0.315846
vt 0.886343 0.315842
vt 0.000000 0.000000
vt 0.000000 0.000000
vt 0.278711 0.273919
vt 0.311497 0.299536
vt 0.305620 0.305767
vt 0.275694 0.306056
vt 0.271699 0.300874
vt 0.273199 0.273986
vn 0.003667 -0.050783 0.998703
vn 0.003667 -0.050783 0.998703
vn 0.003667 -0.050783 0.998703
vn 0.003667 -0.050783 0.998703
vn -0.072019 0.997403 -0.000000
vn -0.072020 0.997403 -0.000001
vn -0.072020 0.997403 -0.000001
vn -0.072019 0.997403 -0.000000
vn -0.072019 0.997403 0.000000
vn -0.000000 -0.000000 1.000000
vn -0.000000 -0.000000 1.000000
vn -0.000000 -0.000000 1.000000
vn -0.000000 -0.000000 1.000000
vn -0.072015 0.997404 -0.000001
vn -0.072017 0.997403 0.000002
vn -0.072017 0.997403 0.000002
vn -0.072020 0.997403 0.000005
vn -0.072020 0.997403 0.000005
vn -0.997404 -0.072006 -0.000004
vn -0.997404 -0.072008 -0.000003
vn -0.997404 -0.072009 -0.000002
vn -0.997404 -0.072012 -0.000000
vn -0.997404 -0.072011 -0.000001
vn -0.997404 -0.072009 -0.000002
vn 0.997403 0.072020 0.000000
vn 0.997403 0.072020 0.000000
vn 0.997403 0.072020 0.000000
vn 0.997403 0.072020 0.000000
vn 0.997403 0.072020 0.000000
vn 0.997403 0.072020 0.000000
vn 0.997403 0.072023 0.000000
vn 0.997403 0.072023 0.000000
vn 0.997403 0.072023 0.000000
vn 0.997403 0.072023 0.000000
vn 0.000000 0.000000 -1.000000
vn 0.000000 0.000000 -1.000000
vn 0.000000 0.000000 -1.000000
vn 0.000000 0.000000 -1.000000
vn -0.997250 -0.074104 -0.001106
vn -0.997250 -0.074104 -0.001106
vn -0.997250 -0.074104 -0.001106
vn -0.997250 -0.074104 -0.001106
vn -0.072015 0.997404 -0.000000
vn -0.072017 0.997403 -0.000000
vn -0.072017 0.997403 -0.000000
vn -0.072020 0.997403 -0.000000
vn -0.072020 0.997403 -0.000000
vn 0.003562 -0.049332 -0.998776
vn 0.003756 -0.050047 -0.998740
vn 0.003756 -0.050047 -0.998740
vn 0.003950 -0.050761 -0.998703
vn 0.003950 -0.050761 -0.998703
vn 0.072841 -0.997333 0.004536
vn 0.072841 -0.997333 0.004536
vn 0.072430 -0.997371 0.002268
vn 0.072430 -0.997371 0.002268
vn 0.072019 -0.997403 -0.000000
vn 0.072019 -0.997403 -0.000000
vn -0.840102 -0.165951 -0.516420
vn -0.805601 -0.180413 -0.564321
vn -0.838918 -0.138002 -0.526472
vn -0.827423 -0.364509 -0.427205
vn -0.727693 -0.207323 -0.653819
vn -0.835276 -0.307142 -0.456045
vn -0.855989 -0.490343 -0.163849
vn -0.840543 -0.193754 -0.505912
vn 0.037477 0.000289 -0.999297
vn 0.037477 0.000289 -0.999297
vn 0.037477 0.000289 -0.999297
vn 0.037477 0.000289 -0.999297
vn -0.079798 0.996808 -0.002468
vn -0.079798 0.996808 -0.002468
vn -0.079798 0.996808 -0.002468
vn -0.079798 0.996808 -0.002468
vn 0.996705 0.078278 0.021271
vn 0.996705 0.078278 0.021271
vn 0.996705 0.078278 0.021271
vn 0.996705 0.078278 0.021271
vn -0.993644 -0.078194 -0.080977
vn -0.993644 -0.078194 -0.080977
vn -0.993644 -0.078194 -0.080977
vn -0.993644 -0.078194 -0.080977
vn 0.079797 -0.996808 0.002468
vn 0.079797 -0.996808 0.002468
vn 0.079797 -0.996808 0.002468
vn 0.079797 -0.996808 0.002468
vn -0.038739 -0.000389 0.999249
vn -0.038739 -0.000389 0.999249
vn -0.038739 -0.000389 0.999249
vn -0.038739 -0.000389 0.999249
vn -0.055413 -0.002086 -0.998461
vn -0.055413 -0.002086 -0.998461
vn -0.055413 -0.002086 -0.998461
vn -0.055413 -0.002086 -0.998461
vn -0.071476 0.997440 0.002018
vn -0.071476 0.997440 0.002018
vn -0.071476 0.997440 0.002018
vn -0.071476 0.997440 0.002018
vn 0.995362 0.078231 -0.055993
vn 0.995362 0.078231 -0.055993
vn 0.995362 0.078231 -0.055993
vn 0.995362 0.078231 -0.055993
vn -0.995362 -0.078231 0.055993
vn -0.995362 -0.078231 0.055993
vn -0.995362 -0.078231 0.055993
vn -0.995362 -0.078231 0.055993
vn 0.071475 -0.997440 -0.002018
vn 0.071475 -0.997440 -0.002018
vn 0.071475 -0.997440 -0.002018
vn 0.071475 -0.997440 -0.002018
vn 0.055415 0.002090 0.998461
vn 0.055415 0.002090 0.998461
vn 0.055415 0.002090 0.998461
vn 0.055415 0.002090 0.998461
vn 0.074195 -0.996452 -0.039740
vn 0.073722 -0.996808 -0.030630
vn 0.073722 -0.996808 -0.030630
vn 0.073242 -0.997082 -0.021518
vn 0.073242 -0.997082 -0.021518
vn -0.022557 0.302744 0.952805
vn 0.003481 -0.046723 0.998902
vn 0.003481 -0.046723 0.998902
vn -0.022557 0.302744 0.952805
vn -0.045776 0.614390 0.787674
vn -0.045776 0.614390 0.787674
vn -0.073357 0.997306 -0.000377
vn -0.073357 0.997306 -0.000377
vn -0.073357 0.997306 -0.000377
vn -0.073357 0.997306 -0.000377
vn -0.049946 0.687585 -0.724384
vn -0.049946 0.687585 -0.724384
vn -0.049946 0.687585 -0.724384
vn -0.049946 0.687585 -0.724384
vn -0.072843 0.997341 -0.001998
vn -0.072843 0.997341 -0.001998
vn -0.072843 0.997341 -0.001998
vn -0.072843 0.997341 -0.001998
vn -0.050516 0.687596 0.724334
vn -0.050516 0.687596 0.724334
vn -0.050516 0.687596 0.724334
vn -0.050516 0.687596 0.724334
vn -0.073742 0.997275 0.002184
vn -0.073742 0.997275 0.002184
vn -0.073742 0.997275 0.002184
vn -0.073742 0.997275 0.002184
vn -0.022511 0.299021 -0.953981
vn -0.045767 0.608424 -0.792291
vn -0.045767 0.608424 -0.792291
vn -0.022511 0.299021 -0.953981
vn 0.003501 -0.046986 -0.998889
vn 0.003501 -0.046986 -0.998889
vn 0.997403 0.072017 -0.000000
vn 0.997403 0.072020 -0.000001
vn 0.997403 0.072020 -0.000001
vn 0.997403 0.072020 -0.000002
vn 0.997404 0.072015 0.000002
vn 0.997403 0.072020 0.000000
vn 0.997403 0.072020 0.000000
vn 0.997403 0.072021 0.000002
vn 0.997403 0.072019 0.000002
vn 0.997403 0.072021 -0.000003
vn 0.997403 0.072018 -0.000002
vn 0.997402 0.072031 0.000001
vn -0.754291 -0.085072 0.651006
vn -0.908288 -0.014529 0.418093
vn -0.942142 0.037890 0.333067
vn -0.966849 0.253140 -0.033513
vn -0.986229 0.161937 0.033599
vn -0.983080 0.097287 0.155207
vn -0.986952 0.057218 0.150505
vn 0.068226 -0.997656 -0.005195
vn 0.068226 -0.997656 -0.005195
vn 0.068226 -0.997656 -0.005195
vn 0.068226 -0.997656 -0.005195
vn 0.055364 -0.995946 0.070903
vn 0.063969 -0.997161 0.039714
vn 0.063969 -0.997161 0.039714
vn 0.072506 -0.997332 0.008483
vn 0.072506 -0.997332 0.008483
vn 0.059771 -0.998211 -0.001585
vn 0.059771 -0.998211 -0.001585
vn 0.059771 -0.998211 -0.001585
vn 0.059771 -0.998211 -0.001585
vn -0.625859 0.086469 -0.775128
vn -0.894748 0.249098 -0.370644
vn -0.902586 0.188440 -0.387077
vn -0.962524 0.223567 -0.153513
vn -0.990799 0.012865 -0.134727
vn -0.990799 0.012865 -0.134727
s off
f 9/26/1 4/3/2 3/2/3 10/25/4
s 1
f 10/25/5 3/2/6 2/22/7 13/30/8
f 11/24/9 10/25/5 13/30/8
s off
f 13/29/10 2/1/11 1/21/12 12/28/13
s 2
f 19/45/14 15/32/15 16/41/16
f 7/6/17 16/41/16 15/32/15 6/5/18
s 3
f 20/47/19 22/51/20 11/23/21
f 10/17/22 11/23/21 9/16/23
f 9/16/23 11/23/21 22/51/20 21/49/24
s 4
f 8/8/25 7/9/26 6/10/27 4/15/28
f 2/13/29 3/14/30 4/15/28 6/10/27
s off
f 1/12/31 2/13/32 6/10/33 5/11/34
f 6/20/35 15/33/36 14/31/37 5/4/38
f 14/37/39 15/34/40 13/35/41 12/36/42
s 5
f 15/39/43 19/46/44 13/40/45
f 13/40/45 19/46/44 20/48/46 11/38/47
s 6
f 16/41/48 7/6/49 18/44/50
f 18/44/50 7/6/49 8/7/51 17/43/52
s 7
f 17/42/53 8/18/54 4/19/55 23/52/56
f 21/50/57 23/52/56 4/19/55 9/27/58
s 8
f 22/53/59 23/54/60 21/55/61
f 18/56/62 17/57/63 23/54/60 19/59/64
f 16/60/65 18/56/62 19/59/64
f 20/58/66 19/59/64 23/54/60 22/53/59
s off
f 26/64/67 27/61/68 25/62/69 24/63/70
f 28/68/71 24/65/72 25/66/73 29/67/74
f 30/72/75 26/69/76 24/70/77 28/71/78
f 29/76/79 25/73/80 27/74/81 31/75/82
f 27/77/83 26/78/84 30/79/85 31/80/86
f 31/81/87 30/82/88 28/83/89 29/84/90
f 35/85/91 33/86/92 32/87/93 34/88/94
f 32/89/95 33/90/96 37/91/97 36/92/98
f 38/96/99 34/93/100 32/94/101 36/95/102
f 37/100/103 33/97/104 35/98/105 39/99/106
f 39/104/107 35/101/108 34/102/109 38/103/110
f 39/105/111 38/106/112 36/107/113 37/108/114
s 9
f 50/112/115 12/113/116 51/111/117
f 46/110/118 51/111/117 12/113/116 1/109/119
s 10
f 52/114/120 51/111/121 46/110/122 47/115/123
f 52/114/120 47/115/123 41/116/124 53/117/125
s off
f 53/121/126 41/118/127 42/119/128 54/120/129
f 44/123/130 55/122/131 54/120/132 42/119/133
f 58/124/134 55/122/135 44/123/136 45/125/137
f 57/126/138 58/124/139 45/125/140 43/127/141
f 56/128/142 57/126/143 43/127/144 40/129/145
s 11
f 61/133/146 56/130/147 40/131/148 49/132/149
f 61/133/146 49/132/149 48/134/150 62/135/151
s 12
f 5/137/152 48/138/153 49/139/154 40/140/155
f 47/146/156 46/147/157 1/136/158 5/137/152
f 41/145/159 47/146/156 5/137/152 44/143/160
f 5/137/152 40/140/155 43/141/161 45/142/162
f 42/144/163 41/145/159 44/143/160
f 5/137/152 45/142/162 44/143/160
s 14
f 51/150/164 52/151/165 50/149/166
f 55/154/167 59/148/168 50/149/166 54/153/169
f 53/152/170 54/153/169 50/149/166 52/151/165
s off
f 60/155/171 12/156/172 50/157/173 59/158/174
s 16
f 63/160/175 62/135/176 14/159/177
f 14/159/177 62/135/176 48/134/178 5/161/179
s off
f 14/162/180 60/155/181 59/158/182 63/163/183
s 14
f 62/169/184 63/164/185 61/168/186
f 59/148/168 55/154/167 63/164/185
f 63/164/185 55/154/167 58/165/187 61/168/186
f 61/168/186 58/165/187 57/166/188 56/167/189
