# This file uses centimeters as units for non-parametric coordinates.

v 1.150673 0.325632 1.150673
v 1.188564 -0.116435 1.188564
v 1.115498 -0.116435 1.115498
v 1.115498 -0.457266 1.115498
v 1.175682 -0.457266 1.175682
v 0.814613 -0.921629 0.814613
v 1.152008 -0.921629 1.152008
v 1.205982 0.254919 1.205982
v 1.152008 -0.921629 -2.000000
v 1.175682 -0.457266 -2.000000
v 1.115498 -0.457266 -2.000000
v 1.115498 -0.116435 -2.000000
v 1.188564 -0.116435 -2.000000
v 1.205982 0.254919 -2.000000
v 1.150673 0.325632 -2.000000
v 0.735542 0.324051 -2.000000
v 0.654398 0.238789 -2.000000
v 0.345600 0.238789 -2.000000
v 0.264458 0.324051 -2.000000
v -0.150673 0.325632 -2.000000
v -0.205982 0.254919 -2.000000
v -0.188564 -0.116435 -2.000000
v -0.115498 -0.116435 -2.000000
v -0.115498 -0.457266 -2.000000
v -0.175682 -0.457266 -2.000000
v -0.152008 -0.921629 -2.000000
v 0.185387 -0.921629 -2.000000
v 0.814613 -0.921629 -2.000000
v -0.150673 0.325632 -0.150672
v -0.205982 0.254919 -0.205985
v -0.188564 -0.116435 -0.188567
v -0.115498 -0.116435 -0.115501
v -0.115498 -0.457266 -0.115501
v -0.175682 -0.457266 -0.175681
v -0.152008 -0.921629 -0.152007
v 0.185387 -0.921629 0.185388
v 0.264458 0.324051 0.264459
v 0.345600 0.238789 0.345600
v 0.654398 0.238789 0.654396
v 0.735546 0.324051 0.735543
v -2.000000 -0.921629 -0.152007
v -2.000000 -0.457266 -0.175682
v -2.000000 -0.457266 -0.115501
v -2.000000 -0.116435 -0.115501
v -2.000000 -0.116435 -0.188568
v -2.000000 0.254919 -0.205986
v -2.000000 0.325632 -0.150673
v -2.000000 0.324051 0.264458
v -2.000000 0.238789 0.345600
v -2.000000 0.238789 0.654396
v -2.000000 0.324051 0.735542
v -2.000000 0.325632 1.150673
v -2.000000 0.254919 1.205982
v -2.000000 -0.116435 1.188564
v -2.000000 -0.116435 1.115494
v -2.000000 -0.457266 1.115494
v -2.000000 -0.457266 1.175682
v -2.000000 -0.921629 1.152009
v -2.000000 -0.921629 0.814613
v -2.000000 -0.921629 0.185387
v -0.261421 -0.921629 0.814613
v -0.261421 0.254919 1.205982
v -0.261421 -0.921630 0.185387
v -0.261421 0.325632 1.150673
v -0.261421 -0.116435 1.188564
v -0.261421 -0.116434 1.115495
v -0.261421 -0.457266 1.115495
v -0.261421 -0.457267 1.175682
v -0.261421 -0.921629 1.152009
v -0.261421 0.324051 0.264458
v -0.261421 0.238789 0.345600
v -0.261421 0.238789 0.654396
v -0.261421 0.324051 0.735543
v 1.205982 0.254919 -0.280176
v 0.814613 -0.921629 -0.280176
v 1.152008 -0.921629 -0.280176
v 1.175682 -0.457267 -0.280176
v 1.115498 -0.457267 -0.280176
v 1.115498 -0.116435 -0.280176
v 1.188564 -0.116435 -0.280176
v 1.150673 0.325632 -0.280176
v 0.185387 -0.921629 -0.280176
v 0.264458 0.324051 -0.280176
v 0.345600 0.238789 -0.280176
v 0.654398 0.238789 -0.280176
v 0.735544 0.324051 -0.280176
vt 0.496417 0.924016
vt 0.495586 0.319836
vt 0.495590 0.345472
vt 0.499020 0.315843
vt 0.499016 0.292922
vt 0.495582 0.288157
vt 0.495578 0.254338
vt 0.510277 0.229076
vt 0.495592 0.355153
vt 0.742729 0.254338
vt 0.742729 0.288204
vt 0.742729 0.292883
vt 0.742729 0.315858
vt 0.742729 0.319822
vt 0.742729 0.924018
vt 0.742729 0.966223
vt 0.742729 0.973745
vt 0.742729 0.355041
vt 0.742729 0.345553
vt 0.742729 0.229070
vt 0.742729 0.229079
vt 0.742729 0.345524
vt 0.742729 0.355065
vt 0.742729 0.944334
vt 0.742729 0.951847
vt 0.742729 0.994477
vt 0.742729 0.319799
vt 0.742729 0.315878
vt 0.742729 0.292860
vt 0.742729 0.288203
vt 0.742729 0.254309
vt 0.583045 0.355015
vt 0.583143 0.994457
vt 0.587493 0.345552
vt 0.586276 0.319819
vt 0.596051 0.315867
vt 0.596353 0.292875
vt 0.593979 0.286782
vt 0.593979 0.254340
vt 0.553563 0.229104
vt 0.548294 0.973743
vt 0.542521 0.966214
vt 0.520746 0.951860
vt 0.518175 0.944340
vt 0.642754 0.319836
vt 0.642758 0.345472
vt 0.886280 0.345525
vt 0.886280 0.319822
vt 0.646989 0.315843
vt 0.886280 0.315858
vt 0.646985 0.292922
vt 0.886280 0.292883
vt 0.642750 0.288157
vt 0.886280 0.288204
vt 0.642745 0.254338
vt 0.886280 0.254338
vt 0.886280 0.229079
vt 0.661437 0.229076
vt 0.642760 0.355153
vt 0.886280 0.355065
vt 0.709786 0.229221
vt 0.886280 0.229069
vt 0.886280 0.254307
vt 0.743376 0.254416
vt 0.886280 0.288197
vt 0.743376 0.288691
vt 0.886280 0.292855
vt 0.742126 0.292875
vt 0.886280 0.315877
vt 0.886280 0.319790
vt 0.738950 0.345286
vt 0.886280 0.345546
vt 0.886280 0.355025
vt 0.733783 0.353852
vt 0.886280 0.944328
vt 0.704112 0.942839
vt 0.733752 0.923929
vt 0.886280 0.924015
vt 0.886280 0.951848
vt 0.697635 0.951858
vt 0.886280 0.966220
vt 0.673073 0.966214
vt 0.886280 0.973738
vt 0.668001 0.973746
vt 0.643454 0.994477
vt 0.886280 0.994468
vt 0.743270 0.229087
vt 0.743270 0.345532
vt 0.743270 0.229104
vt 0.742126 0.315894
vt 0.737642 0.319747
vt 0.743270 0.355056
vt 0.743270 0.994467
vt 0.743270 0.319817
vt 0.743270 0.315863
vt 0.743270 0.292878
vt 0.743270 0.288207
vt 0.743270 0.254336
vt 0.743270 0.942851
vt 0.743270 0.951843
vt 0.743270 0.966228
vt 0.743270 0.973733
vt 0.594857 0.345528
vt 0.594857 0.229086
vt 0.594856 0.254336
vt 0.594857 0.288204
vt 0.594857 0.292880
vt 0.594857 0.315862
vt 0.594857 0.319818
vt 0.594857 0.924022
vt 0.594857 0.355062
vt 0.594857 0.229105
vt 0.594856 0.973734
vt 0.594857 0.966228
vt 0.594857 0.951845
vt 0.594857 0.944346
vt 0.837227 0.253544
vt 0.788812 0.253544
vt 0.762852 0.253544
vt 0.761030 0.289907
vt 0.765661 0.289907
vt 0.765661 0.316596
vt 0.760039 0.316596
vt 0.758699 0.345675
vt 0.762954 0.351213
vt 0.794896 0.351089
vt 0.801140 0.344412
vt 0.824900 0.344412
vt 0.831143 0.351089
vt 0.863085 0.351213
vt 0.867341 0.345675
vt 0.866001 0.316596
vt 0.860379 0.316596
vt 0.860379 0.289907
vt 0.865010 0.289907
vt 0.863188 0.253544
vt 0.765642 0.316593
vt 0.860357 0.316593
vt 0.865980 0.316601
vt 0.867321 0.345674
vt 0.863065 0.351210
vt 0.831124 0.351087
vt 0.824880 0.344411
vt 0.801120 0.344411
vt 0.794877 0.351087
vt 0.762935 0.351210
vt 0.758679 0.345674
vt 0.760020 0.316601
vt 0.765643 0.289910
vt 0.860357 0.289910
vt 0.788793 0.253547
vt 0.837207 0.253547
vt 0.863167 0.253547
vt 0.864989 0.289902
vt 0.761012 0.289902
vt 0.762833 0.253547
vn 0.001904 0.999996 0.001904
vn 0.003809 0.999993 0.000000
vn 0.001904 0.999996 0.001904
vn 0.003809 0.999993 0.000000
vn -0.003809 0.999993 0.000000
vn -0.003809 0.999993 0.000000
vn -0.003809 0.999993 0.000000
vn -0.003809 0.999993 0.000000
vn 0.724392 0.689389 0.000000
vn 0.724392 0.689389 0.000000
vn 0.724392 0.689389 0.000000
vn 0.724392 0.689389 0.000000
vn -0.724379 0.689402 0.000000
vn -0.724379 0.689402 0.000000
vn -0.724375 0.689406 0.000001
vn -0.724375 0.689406 0.000001
vn 0.000000 1.000000 0.000000
vn 0.000000 1.000000 0.000000
vn 0.000000 1.000000 0.000000
vn 0.000000 1.000000 0.000000
vn 0.927724 0.373268 0.000000
vn 0.952805 0.303583 0.000000
vn 0.998902 -0.046852 0.000000
vn 0.998902 -0.046852 0.000000
vn 0.000003 -1.000000 0.000000
vn 0.000003 -1.000000 0.000000
vn 0.000003 -1.000000 0.000000
vn 0.000003 -1.000000 0.000000
vn 1.000000 -0.000000 0.000000
vn 1.000000 -0.000000 0.000000
vn 1.000000 -0.000000 0.000000
vn 1.000000 -0.000000 0.000000
vn 0.000000 1.000000 -0.000000
vn 0.000000 1.000000 -0.000000
vn 0.000000 1.000000 -0.000000
vn 0.000000 1.000000 -0.000000
vn 0.998703 -0.050916 0.000000
vn 0.998703 -0.050916 0.000000
vn 0.998703 -0.050916 0.000000
vn 0.998703 -0.050916 0.000000
vn 0.000001 -1.000000 -0.000000
vn 0.000000 -1.000000 -0.000000
vn 0.000000 -1.000000 -0.000000
vn 0.000001 -1.000000 -0.000000
vn 0.787675 0.616091 0.000000
vn 0.787675 0.616091 0.000000
vn 0.787674 0.616092 0.000000
vn -0.787674 0.616092 -0.000000
vn -0.982865 0.184326 -0.000000
vn -0.952805 0.303583 -0.000000
vn -0.787674 0.616092 -0.000000
vn -0.998902 -0.046852 -0.000000
vn -0.998902 -0.046852 -0.000000
vn 0.000000 1.000000 0.000000
vn 0.000000 1.000000 0.000000
vn 0.000000 1.000000 0.000000
vn -0.000000 -1.000000 -0.000000
vn -0.000000 -1.000000 -0.000000
vn -0.000000 -1.000000 -0.000000
vn 0.000000 -1.000000 -0.000001
vn -0.000000 -0.046852 0.998902
vn -0.000000 -0.046852 0.998902
vn -0.000000 -0.046852 0.998902
vn -0.000000 -0.046852 0.998902
vn -0.000000 -1.000000 -0.000006
vn -0.000000 -1.000000 -0.000006
vn -0.000000 -1.000000 -0.000007
vn -0.000000 -1.000000 -0.000007
vn -0.000001 -0.000000 1.000000
vn -0.000002 -0.000000 1.000000
vn -0.000002 -0.000000 1.000000
vn -0.000001 -0.000000 1.000000
vn -0.000000 1.000000 0.000004
vn -0.000000 1.000000 0.000004
vn -0.000000 1.000000 0.000004
vn -0.000000 1.000000 0.000004
vn 0.000000 -0.050915 0.998703
vn 0.000000 -0.050915 0.998703
vn 0.000000 -0.050914 0.998703
vn 0.000000 -0.050914 0.998703
vn 0.000000 -1.000000 -0.000001
vn 0.000000 -1.000000 -0.000001
vn -0.000000 -1.000000 -0.000001
vn -0.000000 -1.000000 -0.000001
vn 0.000000 0.616092 0.787674
vn 0.000000 0.616092 0.787674
vn 0.000000 0.616092 0.787674
vn 0.000000 0.616092 0.787674
vn 0.000001 -1.000000 -0.000001
vn 0.000000 -1.000000 -0.000001
vn -0.000000 -1.000000 -0.000001
vn 0.000000 -0.050917 -0.998703
vn 0.000000 -0.050917 -0.998703
vn 0.000000 -0.050917 -0.998703
vn 0.000000 -0.050917 -0.998703
vn 0.000000 1.000000 -0.000000
vn 0.000000 1.000000 -0.000000
vn 0.000000 1.000000 -0.000000
vn 0.000000 1.000000 -0.000000
vn 0.000000 0.000000 -1.000000
vn 0.000000 0.000000 -1.000000
vn 0.000000 0.000000 -1.000000
vn 0.000000 0.000000 -1.000000
vn -0.000000 -1.000000 0.000000
vn -0.000000 -1.000000 0.000000
vn -0.000000 -1.000000 0.000000
vn -0.000000 -1.000000 0.000000
vn 0.000000 0.303599 -0.952800
vn 0.000000 0.303599 -0.952800
vn 0.000000 0.616118 -0.787654
vn 0.000000 0.616118 -0.787654
vn -0.000000 0.999993 0.003809
vn -0.000000 0.999993 0.003809
vn -0.000000 0.999993 0.003809
vn 0.000000 0.689389 0.724392
vn 0.000000 0.689389 0.724392
vn -0.000000 0.689388 0.724393
vn -0.000000 0.689388 0.724393
vn 0.000000 1.000000 0.000000
vn 0.000000 1.000000 0.000000
vn 0.000000 1.000000 0.000000
vn 0.000000 1.000000 0.000000
vn 0.000000 1.000000 0.000000
vn 0.000000 0.689406 -0.724375
vn 0.000000 0.689408 -0.724373
vn 0.000000 0.689407 -0.724374
vn 0.000000 0.689408 -0.724373
vn -0.275741 0.787296 -0.551482
vn 0.000000 0.999993 -0.003809
vn -0.001904 0.999996 -0.001904
vn -0.001904 0.999996 -0.001904
vn 0.000000 0.999993 -0.003809
vn -0.000000 -0.046852 0.998902
vn -0.000000 -0.046852 0.998902
vn -0.000000 -1.000000 -0.000007
vn -0.000000 -1.000000 -0.000007
vn -0.000001 -0.000000 1.000000
vn -0.000001 -0.000000 1.000000
vn 0.000000 1.000000 0.000004
vn 0.000000 1.000000 0.000004
vn 0.000000 -0.050914 0.998703
vn 0.000000 -0.050914 0.998703
vn 0.000000 0.616092 0.787674
vn 0.000000 0.616092 0.787674
vn -0.000000 -1.000000 -0.000000
vn 0.000000 -0.046853 -0.998902
vn 0.000000 -0.046853 -0.998902
vn 0.421720 0.802685 0.421722
vn 0.421720 0.802685 0.421722
vn 0.000000 1.000000 0.000000
vn -0.421704 0.802702 -0.421704
vn 0.000000 0.999993 -0.003809
vn 0.000000 0.999993 -0.003809
vn 0.003809 0.999993 0.000000
vn 0.952805 0.303583 0.000000
vn 0.998902 -0.046852 0.000000
vn 0.000003 -1.000000 -0.000000
vn 0.000003 -1.000000 -0.000000
vn 1.000000 -0.000000 0.000000
vn 1.000000 -0.000000 0.000000
vn 0.000000 1.000000 0.000000
vn 0.000000 1.000000 0.000000
vn 0.998703 -0.050916 0.000000
vn 0.998703 -0.050916 0.000000
vn 0.000001 -1.000000 0.000000
vn 0.000001 -1.000000 0.000000
vn -0.000000 -1.000000 -0.000000
vn -0.000000 -1.000000 -0.000000
vn -0.000000 -1.000000 -0.000000
vn -0.000000 -1.000000 -0.000000
vn -1.000000 0.000000 -0.000000
vn -1.000000 0.000000 -0.000000
vn -1.000000 0.000000 -0.000000
vn -1.000000 0.000000 -0.000000
vn 0.000000 1.000000 0.000000
vn -0.998703 -0.050916 -0.000000
vn -0.998703 -0.050916 -0.000000
vn -0.998703 -0.050916 -0.000000
vn -0.998703 -0.050916 -0.000000
vn 0.000000 0.000000 -1.000000
vn 0.000000 0.000000 -1.000000
vn 0.000000 0.000000 -1.000000
vn 0.000000 0.000000 -1.000000
vn 0.000000 0.000000 -1.000000
vn 0.000000 0.000000 -1.000000
vn 0.000000 0.000000 -1.000000
vn 0.000000 0.000000 -1.000000
vn 0.000000 0.000000 -1.000000
vn 0.000000 0.000000 -1.000000
vn 0.000000 0.000000 -1.000000
vn 0.000000 0.000000 -1.000000
vn 0.000000 0.000000 -1.000000
vn 0.000000 0.000000 -1.000000
vn 0.000000 0.000000 -1.000000
vn 0.000000 0.000000 -1.000000
vn 0.000000 0.000000 -1.000000
vn 0.000000 0.000000 -1.000000
vn 0.000000 0.000000 -1.000000
vn 0.000000 0.000000 -1.000000
vn -1.000000 0.000000 -0.000000
vn -1.000000 0.000000 -0.000000
vn -1.000000 0.000000 -0.000000
vn -1.000000 0.000000 -0.000000
vn -1.000000 0.000000 -0.000000
vn -1.000000 0.000000 -0.000000
vn -1.000000 0.000000 -0.000000
vn -1.000000 0.000000 -0.000000
vn -1.000000 0.000000 -0.000000
vn -1.000000 0.000000 -0.000000
vn -1.000000 0.000000 -0.000000
vn -1.000000 0.000000 -0.000000
vn -1.000000 0.000000 -0.000000
vn -1.000000 0.000000 -0.000000
vn -1.000000 0.000000 -0.000000
vn -1.000000 0.000000 -0.000000
vn -1.000000 0.000000 -0.000000
vn -1.000000 0.000000 -0.000000
vn -1.000000 0.000000 -0.000000
vn -1.000000 0.000000 -0.000000
vn -1.000000 0.000000 -0.000000
vn -1.000000 0.000000 -0.000000
vn -1.000000 0.000000 -0.000000
vn -1.000000 0.000000 -0.000000
s 1
f 37/41/1 83/113/2 29/33/3
f 29/33/3 83/113/2 20/26/4
s 2
f 15/15/5 16/24/6 86/116/7 81/110/8
s 3
f 18/16/9 19/17/10 83/113/11 84/114/12
s 4
f 16/24/13 17/25/14 85/115/15 86/116/16
s 5
f 17/25/17 18/16/18 84/114/19 85/115/20
s 6
f 74/103/21 8/3/22 2/2/23 80/109/24
s 7
f 80/109/25 2/2/26 3/4/27 79/108/28
s 8
f 79/108/29 3/4/30 4/5/31 78/107/32
s 9
f 4/5/33 5/6/34 77/106/35 78/107/36
s 10
f 77/106/37 5/6/38 7/7/39 76/105/40
s 11
f 76/105/41 7/7/42 6/8/43 75/104/44
s 6
f 8/3/22 74/103/21 1/9/45
f 81/111/46 1/9/45 74/103/21 15/23/47
s 12
f 20/18/48 21/19/49 30/34/50 29/32/51
f 22/27/52 31/35/53 21/19/49
f 30/34/50 21/19/49 31/35/53
s 13
f 34/38/54 33/37/55 25/30/56
s 14
f 27/20/57 82/112/58 26/31/59
f 35/39/60 26/31/59 82/112/58
s 15
f 2/45/61 8/46/62 62/88/63 65/94/64
s 16
f 3/49/65 2/45/66 65/94/67 66/95/68
s 17
f 67/96/69 4/51/70 3/49/71 66/95/72
s 18
f 68/97/73 5/53/74 4/51/75 67/96/76
s 19
f 7/55/77 5/53/78 68/97/79 69/98/80
s 11
f 58/56/81 59/57/82 61/87/83 69/98/84
s 20
f 62/88/85 8/46/86 1/59/87 64/92/88
s 14
f 36/61/89 63/89/90 35/64/60
f 35/64/60 63/89/90 41/63/91
s off
f 35/64/92 41/63/93 42/65/94 34/66/95
f 34/66/96 42/65/97 43/67/98 33/68/99
f 33/68/100 43/67/101 44/69/102 32/90/103
f 32/90/104 44/69/105 45/70/106 31/91/107
s 22
f 30/71/108 46/72/109 47/73/110 29/74/111
s 1
f 47/78/112 48/75/113 70/99/114 29/77/3
s 3
f 48/75/115 49/79/116 71/100/117 70/99/118
s 5
f 50/81/119 72/101/120 49/79/121
f 71/100/122 72/101/120 38/80/123
s 4
f 51/83/124 73/102/125 50/81/126
f 72/101/127 73/102/125 39/82/128
s 2
f 64/93/129 1/85/130 40/84/131 73/102/132
s 15
f 54/48/133 65/94/64 62/88/63 53/47/134
s 16
f 55/50/135 66/95/68 65/94/67 54/48/136
s 17
f 56/52/137 67/96/69 66/95/72 55/50/138
s 18
f 57/54/139 68/97/73 67/96/76 56/52/140
s 19
f 58/56/141 69/98/80 68/97/79 57/54/142
s 11
f 69/98/84 61/87/83 6/58/43 7/55/42
s 20
f 53/47/143 62/88/85 64/92/88 52/60/144
s 14
f 41/63/91 63/89/90 60/62/145
s 22
f 46/72/109 30/71/108 31/91/146 45/70/147
s 1
f 29/77/3 70/99/114 37/76/1
s 3
f 37/76/148 70/99/118 71/100/117 38/80/149
s 5
f 38/80/123 72/101/120 39/82/150
s 4
f 39/82/128 73/102/125 40/84/151
s 2
f 52/86/152 64/93/129 73/102/132 51/83/153
s 1
f 20/26/4 83/113/2 19/17/154
s 2
f 81/110/8 86/116/7 40/44/131 1/1/130
s 3
f 84/114/12 83/113/11 37/41/148 38/42/149
s 4
f 86/116/16 85/115/15 39/43/128 40/44/151
s 5
f 85/115/20 84/114/19 38/42/123 39/43/150
s 6
f 14/22/155 74/103/21 80/109/24 13/14/156
s 7
f 13/14/157 80/109/25 79/108/28 12/13/158
s 8
f 12/13/159 79/108/29 78/107/32 11/12/160
s 9
f 11/12/161 78/107/36 77/106/35 10/11/162
s 10
f 10/11/163 77/106/37 76/105/40 9/10/164
s 11
f 9/10/165 76/105/41 75/104/44 28/21/166
s 6
f 15/23/47 74/103/21 14/22/155
s off
f 23/28/167 32/36/168 31/35/169 22/27/170
f 24/29/171 33/37/172 32/36/173 23/28/174
s 13
f 25/30/56 33/37/55 24/29/175
s off
f 26/31/176 35/39/177 34/38/178 25/30/179
s 14
f 35/39/60 82/112/58 36/40/89
s 26
f 26/119/180 25/120/181 24/121/182 27/118/183
f 10/135/184 9/136/185 11/134/186
f 11/134/186 9/136/185 28/117/187 27/118/183
f 23/122/188 22/123/189 21/124/190 12/133/191
f 13/132/192 12/133/191 14/131/193
f 27/118/183 24/121/182 11/134/186
f 11/134/186 24/121/182 23/122/188 12/133/191
f 12/133/191 21/124/190 20/125/194 18/127/195
f 15/130/196 14/131/193 16/129/197
f 16/129/197 14/131/193 12/133/191 17/128/198
f 19/126/199 18/127/195 20/125/194
f 18/127/195 17/128/198 12/133/191
s 30
f 55/138/200 54/139/201 53/140/202 52/141/203
f 46/147/204 45/148/205 44/137/206 55/138/200
f 47/146/207 46/147/204 55/138/200 49/144/208
f 55/138/200 52/141/203 51/142/209 50/143/210
f 48/145/211 47/146/207 49/144/208
f 55/138/200 50/143/210 49/144/208
s off
f 44/137/212 43/149/213 56/150/214 55/138/215
s 32
f 58/153/216 57/154/217 56/150/218 59/152/219
f 56/150/218 43/149/220 59/152/219
f 60/151/221 59/152/219 43/149/220 41/156/222
f 42/155/223 41/156/222 43/149/220
s 4
f 72/101/127 50/81/126 73/102/125
s 5
f 71/100/122 49/79/121 72/101/120
