# This file uses centimeters as units for non-parametric coordinates.

v -1.242640 2.000000 1.242641
v 3.000000 2.000000 2.999999
v 3.000004 0.000000 3.267934
v -1.446642 0.000000 1.416336
v -1.371822 1.961555 1.352634
v 3.000004 1.961555 3.169668
v -1.446642 1.821293 1.416336
v 3.000004 1.821293 3.267934
v 3.000004 0.000000 2.999999
v -1.242638 0.000000 1.242643
v 0.000000 2.000000 2.196153
v -0.078320 1.961555 2.346663
v -0.123684 1.821293 2.433832
v -0.123684 0.000000 2.433832
v 0.000004 0.000000 2.196154
v 1.373722 0.000000 3.053250
v 1.447086 0.000000 2.795555
v 1.447086 2.000000 2.795555
v 1.400627 1.961555 2.958740
v 1.373722 1.821293 3.053250
v -2.999999 2.000000 -3.000000
v -3.267934 0.000000 -2.999996
v -3.169668 1.961556 -2.999996
v -3.267934 1.821293 -2.999996
v -2.999999 0.000000 -2.999996
v -2.795553 2.000000 -1.447086
v -2.962069 1.961555 -1.414524
v -3.058509 1.821293 -1.395668
v -3.058509 0.000000 -1.395668
v -2.795552 0.000000 -1.447083
v -2.435642 0.000000 0.120136
v -2.196152 0.000000 0.000000
v -2.196152 2.000000 0.000000
v -2.347809 1.961555 0.076077
v -2.435642 1.821293 0.120136
vt 0.883724 0.537376
vt 0.883724 0.554567
vt 0.883724 0.386498
vt 0.449444 0.554567
vt 0.449444 0.537376
vt 0.449444 0.386499
vt 0.449444 0.523101
vt 0.883724 0.523101
vt 0.882699 0.406010
vt 0.882699 0.386704
vt 0.450386 0.406010
vt 0.450386 0.386704
vt 0.464955 0.386404
vt 0.464955 0.535677
vt 0.480306 0.533577
vt 0.489197 0.523297
vt 0.489197 0.386404
vt 0.594892 0.554561
vt 0.594811 0.537381
vt 0.594810 0.523106
vt 0.595094 0.406003
vt 0.594811 0.386499
vt 0.595012 0.386708
vt 0.744064 0.406000
vt 0.744457 0.386500
vt 0.744028 0.386710
vt 0.744492 0.554557
vt 0.744457 0.537383
vt 0.744457 0.523108
vt 0.883724 0.537376
vt 0.883724 0.554567
vt 0.744298 0.554556
vt 0.744263 0.537384
vt 0.744263 0.523109
vt 0.883724 0.523101
vt 0.883724 0.386498
vt 0.744263 0.386500
vt 0.743834 0.386711
vt 0.882699 0.386704
vt 0.882699 0.406010
vt 0.743869 0.405998
vt 0.464955 0.386404
vt 0.489197 0.386404
vt 0.489197 0.523297
vt 0.480306 0.533577
vt 0.464955 0.535677
vt 0.594822 0.537383
vt 0.594903 0.554557
vt 0.449444 0.554567
vt 0.449444 0.537376
vt 0.449444 0.523101
vt 0.594822 0.523108
vt 0.594822 0.386500
vt 0.449444 0.386499
vt 0.450386 0.386704
vt 0.595023 0.386710
vt 0.595104 0.406000
vt 0.450386 0.406010
vn -0.073254 0.828390 0.555341
vn -0.029136 0.974812 0.221115
vn -0.057070 0.975331 0.213244
vn -0.143868 0.831027 0.537305
vn -0.246685 0.301492 0.921004
vn -0.000655 0.301494 0.953468
vn -0.000723 0.000000 1.000000
vn -0.000655 0.301494 0.953468
vn -0.258760 0.000000 0.965942
vn 0.000000 -1.000000 0.000000
vn 0.000000 -1.000000 0.000000
vn 0.000000 -1.000000 0.000000
vn 0.000000 -1.000000 0.000000
vn 0.258819 0.000000 -0.965926
vn 0.258819 0.000000 -0.965926
vn 0.130525 0.000000 -0.991445
vn 0.130525 0.000000 -0.991445
vn 1.000000 0.000001 -0.000007
vn 1.000000 0.000001 -0.000007
vn 1.000000 0.000001 -0.000007
vn 1.000000 0.000001 -0.000007
vn 1.000000 0.000001 -0.000007
vn -0.279058 0.830182 0.482622
vn -0.111040 0.975113 0.191899
vn -0.157104 0.975008 0.157089
vn -0.395071 0.829772 0.394204
vn -0.675665 0.300021 0.673398
vn -0.477246 0.300501 0.825794
vn -0.500280 0.000000 0.865864
vn -0.708466 0.000000 0.705745
vn 0.000000 -1.000000 0.000000
vn 0.000000 -1.000000 0.000000
vn 0.000000 -1.000000 0.000000
vn 0.000000 -1.000000 0.000000
vn 0.707107 0.000000 -0.707107
vn 0.500000 0.000000 -0.866026
vn 0.500000 0.000000 -0.866026
vn 0.707107 0.000000 -0.707107
vn -0.191821 0.975191 0.110490
vn -0.482977 0.830486 0.277536
vn -0.827123 0.300861 0.474711
vn -0.867409 0.000000 0.497596
vn 0.000000 -1.000000 0.000000
vn 0.000000 -1.000000 0.000000
vn 0.866026 0.000000 -0.500000
vn 0.866026 0.000000 -0.500000
vn -0.000007 -0.000001 -1.000000
vn -0.000007 -0.000001 -1.000000
vn -0.000007 -0.000001 -1.000000
vn -0.000007 -0.000001 -1.000000
vn -0.000007 -0.000001 -1.000000
vn -0.537677 0.830873 0.143365
vn -0.213405 0.975293 0.057121
vn -0.220198 0.975027 0.028910
vn -0.554163 0.829244 0.072515
vn -0.953468 0.301494 -0.000654
vn -0.921464 0.301312 0.245184
vn -0.966431 0.000000 0.256928
vn -0.953468 0.301494 -0.000654
vn -1.000000 0.000000 -0.000723
vn 0.000000 -1.000000 0.000000
vn 0.000000 -1.000000 0.000000
vn 0.000000 -1.000000 0.000000
vn 0.000000 -1.000000 0.000000
vn 0.991445 0.000000 -0.130527
vn 0.965926 -0.000000 -0.258819
vn 0.965926 -0.000000 -0.258819
vn 0.991445 0.000000 -0.130527
s 1
f 6/1/1 2/2/2 18/27/3 19/28/4
f 20/29/5 8/8/6 6/1/1 19/28/4
f 3/3/7 8/8/8 20/29/5 16/25/9
s 3
f 17/26/10 9/10/11 3/9/12 16/24/13
s 4
f 17/26/14 18/27/15 2/2/16 9/10/17
s off
f 9/13/18 2/14/19 6/15/20 8/16/21 3/17/22
s 1
f 12/19/23 11/18/24 1/4/25 5/5/26
f 7/7/27 13/20/28 12/19/23 5/5/26
f 14/22/29 13/20/28 7/7/27 4/6/30
s 3
f 10/12/31 15/23/32 14/21/33 4/11/34
s 4
f 1/4/35 11/18/36 15/23/37 10/12/38
s 3
f 15/23/32 17/26/10 16/24/13 14/21/33
s 4
f 15/23/37 11/18/36 18/27/15 17/26/14
s 1
f 19/28/4 18/27/3 11/18/24 12/19/23
f 13/20/28 20/29/5 19/28/4 12/19/23
f 16/25/9 20/29/5 13/20/28 14/22/29
f 5/30/26 1/31/25 33/32/39 34/33/40
f 35/34/41 7/35/27 5/30/26 34/33/40
f 4/36/30 7/35/27 35/34/41 31/37/42
s 3
f 32/38/43 10/39/31 4/40/34 31/41/44
s 4
f 32/38/45 33/32/46 1/31/35 10/39/38
s off
f 25/42/47 22/43/48 24/44/49 23/45/50 21/46/51
s 1
f 27/47/52 26/48/53 21/49/54 23/50/55
f 24/51/56 28/52/57 27/47/52 23/50/55
f 29/53/58 28/52/57 24/51/59 22/54/60
s 3
f 25/55/61 30/56/62 29/57/63 22/58/64
s 4
f 21/49/65 26/48/66 30/56/67 25/55/68
s 3
f 30/56/62 32/38/43 31/41/44 29/57/63
s 4
f 30/56/67 26/48/66 33/32/46 32/38/45
s 1
f 34/33/40 33/32/39 26/48/53 27/47/52
f 28/52/57 35/34/41 34/33/40 27/47/52
f 31/37/42 35/34/41 28/52/57 29/53/58
