# This file uses centimeters as units for non-parametric coordinates.

v -0.155252 -0.023395 -0.268906
v -0.268906 -0.023395 -0.155252
v -0.310506 -0.023395 -0.000000
v 0.310504 -0.023395 0.000000
v 0.268906 -0.023395 -0.155252
v 0.155252 -0.023395 -0.268906
v -0.000000 -0.023395 -0.310505
v -0.155252 0.923329 -0.268906
v -0.268906 0.923329 -0.155252
v -0.310506 0.923329 0.000000
v 0.310504 0.923329 0.000000
v 0.268906 0.923329 -0.155252
v 0.155252 0.923329 -0.268906
v 0.000000 0.923329 -0.310505
v -0.180371 0.669057 -0.312412
v -0.312411 0.669057 -0.180370
v -0.360742 0.669057 0.000000
v 0.360742 0.669057 0.000000
v 0.312411 0.669057 -0.180370
v 0.180371 0.669057 -0.312412
v 0.000000 0.669057 -0.360743
v -0.180371 0.230876 -0.312412
v -0.312411 0.230876 -0.180370
v -0.360742 0.230876 0.000000
v 0.360742 0.230876 0.000000
v 0.312411 0.230876 -0.180370
v 0.180371 0.230876 -0.312412
v 0.000000 0.230876 -0.360743
v -0.155253 -0.023395 0.268906
v -0.268907 -0.023395 0.155252
v 0.268905 -0.023395 0.155252
v 0.155252 -0.023395 0.268906
v -0.000000 -0.023395 0.310505
v -0.155253 0.923329 0.268906
v -0.268907 0.923329 0.155252
v 0.268905 0.923329 0.155252
v 0.155252 0.923329 0.268906
v 0.000000 0.923329 0.310505
v -0.180372 0.669057 0.312412
v -0.312412 0.669057 0.180370
v 0.312410 0.669057 0.180370
v 0.180370 0.669057 0.312412
v 0.000000 0.669057 0.360743
v -0.180372 0.230876 0.312412
v -0.312412 0.230876 0.180370
v 0.312410 0.230876 0.180370
v 0.180370 0.230876 0.312412
v 0.000000 0.230876 0.360743
vt 0.484101 0.741146
vt 0.495246 0.729806
vt 0.468782 0.745394
vt 0.468249 0.683969
vt 0.483640 0.687952
vt 0.494979 0.699095
vt 0.409578 0.371449
vt 0.409585 0.407475
vt 0.359626 0.407613
vt 0.359626 0.371422
vt 0.409747 0.446370
vt 0.359626 0.445288
vt 0.409747 0.224188
vt 0.409585 0.262779
vt 0.359626 0.262657
vt 0.359626 0.225262
vt 0.409578 0.298739
vt 0.359626 0.298747
vt 0.409578 0.334905
vt 0.359626 0.334932
vt 0.493884 0.371449
vt 0.493877 0.407475
vt 0.499226 0.714416
vt 0.647939 0.178904
vt 0.624621 0.202221
vt 0.592769 0.083347
vt 0.592769 0.210756
vt 0.624621 0.091882
vt 0.647939 0.115199
vt 0.656473 0.147052
vt 0.493721 0.446370
vt 0.493721 0.224188
vt 0.493877 0.262779
vt 0.493884 0.298739
vt 0.493884 0.334905
vt 0.543787 0.371422
vt 0.543787 0.407614
vt 0.543787 0.445288
vt 0.543787 0.225262
vt 0.543787 0.262657
vt 0.543787 0.298747
vt 0.543787 0.334932
vt 0.409578 0.371449
vt 0.359626 0.371422
vt 0.359626 0.407613
vt 0.409585 0.407475
vt 0.359626 0.445288
vt 0.409747 0.446370
vt 0.409747 0.224188
vt 0.359626 0.225262
vt 0.359626 0.262657
vt 0.409585 0.262779
vt 0.359626 0.298747
vt 0.409578 0.298739
vt 0.359626 0.334932
vt 0.409578 0.334905
vt 0.484101 0.741146
vt 0.468782 0.745394
vt 0.495246 0.729806
vt 0.483640 0.687952
vt 0.468249 0.683969
vt 0.494979 0.699095
vt 0.499226 0.714416
vt 0.647939 0.178904
vt 0.592769 0.083347
vt 0.624621 0.202221
vt 0.592769 0.210756
vt 0.624621 0.091882
vt 0.647939 0.115199
vt 0.656473 0.147052
vt 0.493877 0.407475
vt 0.493884 0.371449
vt 0.493721 0.446370
vt 0.493876 0.262779
vt 0.493721 0.224188
vt 0.493884 0.298739
vt 0.493884 0.334905
vt 0.543787 0.371422
vt 0.543787 0.407614
vt 0.543787 0.445288
vt 0.543787 0.225262
vt 0.543787 0.262657
vt 0.543787 0.298747
vt 0.543787 0.334932
vn -0.497623 0.097437 -0.861903
vn -0.861906 0.097435 -0.497619
vn -0.849603 0.193823 -0.490517
vn -0.490519 0.193826 -0.849601
vn -0.995242 0.097435 -0.000003
vn -0.981037 0.193821 -0.000003
vn 0.995242 0.097437 0.000003
vn 0.861906 0.097436 -0.497618
vn 0.849604 0.193825 -0.490515
vn 0.981036 0.193825 0.000003
vn 0.497623 0.097437 -0.861903
vn 0.490519 0.193826 -0.849601
vn 0.000000 0.097438 -0.995242
vn 0.000000 0.193827 -0.981036
vn -0.000000 -1.000000 -0.000000
vn -0.000000 -1.000000 -0.000000
vn -0.000000 -1.000000 -0.000000
vn -0.000000 -1.000000 0.000000
vn -0.000000 -1.000000 0.000000
vn -0.000000 -1.000000 0.000000
vn -0.000000 -1.000000 -0.000000
vn 0.000000 1.000000 0.000000
vn 0.000000 1.000000 0.000000
vn 0.000000 1.000000 0.000000
vn 0.000000 1.000000 0.000000
vn 0.000000 1.000000 0.000000
vn 0.000000 1.000000 0.000000
vn 0.000000 1.000000 0.000000
vn -0.497623 -0.097437 -0.861903
vn -0.861906 -0.097435 -0.497619
vn -0.995242 -0.097435 -0.000003
vn 0.995242 -0.097437 0.000003
vn 0.861906 -0.097436 -0.497618
vn 0.497623 -0.097437 -0.861903
vn 0.000000 -0.097438 -0.995242
vn -0.490519 -0.193826 -0.849602
vn -0.849603 -0.193823 -0.490517
vn -0.981037 -0.193821 -0.000003
vn 0.981036 -0.193825 0.000003
vn 0.849604 -0.193825 -0.490515
vn 0.490519 -0.193826 -0.849602
vn 0.000000 -0.193827 -0.981036
vn -0.497622 0.097437 0.861904
vn -0.490519 0.193826 0.849602
vn -0.849604 0.193823 0.490515
vn -0.861907 0.097436 0.497617
vn 0.849603 0.193825 0.490517
vn 0.861905 0.097436 0.497620
vn 0.490520 0.193826 0.849601
vn 0.497624 0.097437 0.861903
vn 0.000001 0.193827 0.981036
vn 0.000001 0.097438 0.995242
vn -0.000000 -1.000000 -0.000000
vn -0.000000 -1.000000 -0.000000
vn -0.000000 -1.000000 -0.000000
vn -0.000000 -1.000000 -0.000000
vn -0.000000 -1.000000 -0.000000
vn 0.000000 1.000000 0.000000
vn 0.000000 1.000000 0.000000
vn 0.000000 1.000000 0.000000
vn 0.000000 1.000000 0.000000
vn 0.000000 1.000000 0.000000
vn -0.861907 -0.097435 0.497617
vn -0.497622 -0.097437 0.861904
vn 0.861905 -0.097436 0.497620
vn 0.497624 -0.097437 0.861903
vn 0.000001 -0.097438 0.995242
vn -0.490518 -0.193826 0.849602
vn -0.849604 -0.193823 0.490515
vn 0.849603 -0.193825 0.490517
vn 0.490520 -0.193826 0.849601
vn 0.000001 -0.193827 0.981036
s 1
f 15/7/1 16/8/2 9/9/3 8/10/4
f 16/8/2 17/11/5 10/12/6 9/9/3
f 18/13/7 19/14/8 12/15/9 11/16/10
f 19/14/8 20/17/11 13/18/12 12/15/9
f 20/17/11 21/19/13 14/20/14 13/18/12
f 21/19/13 15/7/1 8/10/4 14/20/14
s 3
f 3/3/15 2/1/16 1/2/17
f 6/6/18 5/5/19 4/4/20
f 6/6/18 3/3/15 1/2/17
f 1/2/17 7/23/21 6/6/18
f 6/6/18 4/4/20 3/3/15
s 5
f 8/24/22 13/29/23 14/30/24
f 8/24/22 9/25/25 10/27/26
f 12/28/27 13/29/23 11/26/28
f 11/26/28 13/29/23 10/27/26
f 8/24/22 10/27/26 13/29/23
s 1
f 16/8/2 15/7/1 22/21/29 23/22/30
f 17/11/5 16/8/2 23/22/30 24/31/31
f 19/14/8 18/13/7 25/32/32 26/33/33
f 20/17/11 19/14/8 26/33/33 27/34/34
f 21/19/13 20/17/11 27/34/34 28/35/35
f 15/7/1 21/19/13 28/35/35 22/21/29
f 1/36/36 2/37/37 23/22/30 22/21/29
f 2/37/37 3/38/38 24/31/31 23/22/30
f 4/39/39 5/40/40 26/33/33 25/32/32
f 5/40/40 6/41/41 27/34/34 26/33/33
f 6/41/41 7/42/42 28/35/35 27/34/34
f 7/42/42 1/36/36 22/21/29 28/35/35
f 39/43/43 34/44/44 35/45/45 40/46/46
f 40/46/46 35/45/45 10/47/6 17/48/5
f 18/49/7 11/50/10 36/51/47 41/52/48
f 41/52/48 36/51/47 37/53/49 42/54/50
f 42/54/50 37/53/49 38/55/51 43/56/52
f 43/56/52 38/55/51 34/44/44 39/43/43
s 3
f 30/57/53 3/58/15 29/59/54
f 4/61/20 32/62/55 3/58/15
f 31/60/56 32/62/55 4/61/20
f 32/62/55 29/59/54 3/58/15
f 33/63/57 29/59/54 32/62/55
s 5
f 35/66/58 34/64/59 10/67/26
f 10/67/26 34/64/59 11/65/28
f 36/68/60 11/65/28 37/69/61
f 38/70/62 37/69/61 34/64/59
f 34/64/59 37/69/61 11/65/28
s 1
f 40/46/46 45/71/63 44/72/64 39/43/43
f 17/48/5 24/73/31 45/71/63 40/46/46
f 41/52/48 46/74/65 25/75/32 18/49/7
f 42/54/50 47/76/66 46/74/65 41/52/48
f 43/56/52 48/77/67 47/76/66 42/54/50
f 39/43/43 44/72/64 48/77/67 43/56/52
f 29/78/68 44/72/64 45/71/63 30/79/69
f 30/79/69 45/71/63 24/73/31 3/80/38
f 4/81/39 25/75/32 46/74/65 31/82/70
f 31/82/70 46/74/65 47/76/66 32/83/71
f 32/83/71 47/76/66 48/77/67 33/84/72
f 33/84/72 48/77/67 44/72/64 29/78/68
