# This file uses centimeters as units for non-parametric coordinates.

v 1.047818 0.370787 0.276274
v 1.037786 0.370787 -0.276275
v 1.037786 0.479062 -0.276275
v 1.047818 0.479062 0.276274
v -1.047818 0.479062 0.276274
v -1.060091 0.479062 -0.276275
v -1.060091 0.362328 -0.276275
v -1.047818 0.362328 0.276274
v -0.809112 -0.011428 0.082892
v -0.950702 -0.011428 0.082892
v -0.921542 0.370787 0.080824
v -0.806975 0.370787 0.080824
v -0.950702 -0.011428 0.224484
v -0.809112 -0.011428 0.224484
v -0.806975 0.370787 0.195389
v -0.921542 0.370787 0.195389
v -0.808284 -0.011428 -0.155735
v -0.808284 -0.011428 -0.297325
v -0.806216 0.370787 -0.268165
v -0.806216 0.370787 -0.153598
v -0.949874 -0.011428 -0.297327
v -0.949878 -0.011428 -0.155735
v -0.920783 0.370787 -0.153598
v -0.920779 0.370787 -0.268167
v 0.809114 -0.011428 -0.082892
v 0.950704 -0.011428 -0.082892
v 0.921544 0.370787 -0.080824
v 0.806977 0.370787 -0.080824
v 0.950704 -0.011428 -0.224483
v 0.809114 -0.011428 -0.224483
v 0.806977 0.370787 -0.195388
v 0.921544 0.370787 -0.195388
v 0.808284 -0.011428 0.155735
v 0.808284 -0.011428 0.297325
v 0.806216 0.370787 0.268165
v 0.806216 0.370787 0.153598
v 0.949876 -0.011428 0.297327
v 0.949880 -0.011428 0.155735
v 0.920785 0.370787 0.153598
v 0.920781 0.370787 0.268167
v 0.000000 0.347993 -0.260884
v 0.201102 0.347993 0.266283
v 0.201102 0.460497 0.266283
v 0.000000 0.460497 -0.260884
v 0.000000 0.460497 -0.109654
v 0.000000 0.347993 -0.125867
v -1.050592 0.479062 -0.090521
v -1.050592 0.362328 -0.088540
v -1.068482 0.479062 -0.124667
v -1.068482 0.362328 -0.116228
v 0.141026 0.460497 0.065139
v -1.059233 0.479062 0.084604
v -1.059222 0.362328 0.087054
v 0.128352 0.347993 0.074452
v 1.037786 0.479062 -0.130071
v 1.037786 0.370787 -0.126913
v 1.020125 0.479062 -0.103264
v 1.020125 0.370787 -0.104504
v 1.025354 0.479062 0.054687
v 1.025354 0.370787 0.053361
v 1.047818 0.479062 0.077928
v 1.047818 0.370787 0.076386
vt 0.552308 0.349933
vt 0.552308 0.240508
vt 0.573753 0.240508
vt 0.573751 0.349933
vt 0.973467 0.349940
vt 0.973467 0.240508
vt 0.994910 0.240508
vt 0.994910 0.349940
vt 0.875383 0.212743
vt 0.854857 0.212743
vt 0.854857 0.134898
vt 0.875383 0.134898
vt 0.973467 0.219063
vt 0.573754 0.219064
vt 0.973467 0.371383
vt 0.573751 0.371383
vt 0.704854 0.457820
vt 0.704854 0.430985
vt 0.569384 0.430985
vt 0.569384 0.457820
vt 0.704854 0.457820
vt 0.704854 0.483320
vt 0.569384 0.483320
vt 0.569384 0.457820
vt 0.704854 0.457820
vt 0.704854 0.430985
vt 0.569384 0.430985
vt 0.569384 0.457820
vt 0.704854 0.457820
vt 0.704854 0.483320
vt 0.569384 0.483320
vt 0.569384 0.457820
vt 0.704854 0.457820
vt 0.704854 0.430985
vt 0.569384 0.430985
vt 0.569384 0.457820
vt 0.704854 0.457820
vt 0.704854 0.483320
vt 0.569384 0.483320
vt 0.569384 0.457820
vt 0.704854 0.457820
vt 0.704854 0.430985
vt 0.569384 0.430985
vt 0.569384 0.457820
vt 0.704854 0.457820
vt 0.704854 0.483320
vt 0.569384 0.483320
vt 0.569384 0.457820
vt 0.854857 0.173820
vt 0.773610 0.219063
vt 0.875110 0.166359
vt 0.735260 0.371191
vt 0.735252 0.348542
vt 0.773610 0.240508
vt 0.773610 0.273506
vt 0.860108 0.173820
vt 0.974078 0.277242
vt 0.996002 0.277761
vt 0.861839 0.212861
vt 0.974109 0.270455
vt 0.996028 0.272195
vt 0.860797 0.212874
vt 0.745765 0.310112
vt 0.973786 0.311952
vt 0.995477 0.312503
vt 0.868358 0.212804
vt 0.868254 0.168898
vt 0.573753 0.269462
vt 0.552308 0.270087
vt 0.860405 0.134898
vt 0.573752 0.274771
vt 0.552308 0.274525
vt 0.861238 0.134898
vt 0.574801 0.304641
vt 0.552354 0.304191
vt 0.866805 0.135085
vt 0.573752 0.312230
vt 0.552308 0.311726
vt 0.868216 0.134898
vn 0.951949 0.002712 0.306245
vn 0.951949 0.002712 0.306245
vn 1.000000 -0.000000 0.000000
vn 1.000000 -0.000000 0.000000
vn -0.998210 0.000582 0.059801
vn -0.998210 0.000582 0.059801
vn -0.999986 -0.000199 0.005315
vn -0.999986 -0.000199 0.005315
vn 0.007048 -0.999975 -0.001103
vn -0.011742 -0.999928 0.002593
vn -0.012230 -0.999920 0.003322
vn 0.009997 -0.999931 -0.006250
vn -0.000156 0.000000 -1.000000
vn -0.000156 0.000000 -1.000000
vn 0.014517 -0.000000 -0.999895
vn 0.014517 -0.000000 -0.999895
vn -0.001900 0.000000 0.999998
vn -0.001900 0.000000 0.999998
vn 0.008000 -0.000000 0.999968
vn 0.008000 -0.000000 0.999968
vn -0.005985 0.999972 0.004571
vn 0.015756 0.999866 -0.004476
vn 0.015125 0.999882 -0.002752
vn -0.003043 0.999995 0.000219
vn -0.000000 -0.005409 -0.999985
vn -0.000000 -0.005409 -0.999985
vn -0.000000 -0.005409 -0.999985
vn -0.000000 -0.005409 -0.999985
vn 0.000000 0.075902 0.997115
vn 0.000000 0.075902 0.997115
vn 0.000000 0.075902 0.997115
vn 0.000000 0.075902 0.997115
vn 0.999984 -0.005589 0.000000
vn 0.999984 -0.005589 0.000000
vn 0.999984 -0.005589 0.000000
vn 0.999984 -0.005589 0.000000
vn -0.997103 0.076070 -0.000000
vn -0.997103 0.076070 -0.000000
vn -0.997103 0.076070 -0.000000
vn -0.997103 0.076070 -0.000000
vn 0.999985 -0.005409 0.000000
vn 0.999985 -0.005409 0.000000
vn 0.999985 -0.005409 0.000000
vn 0.999985 -0.005409 0.000000
vn -0.997115 0.075903 -0.000030
vn -0.997115 0.075903 -0.000030
vn -0.997115 0.075903 -0.000030
vn -0.997115 0.075903 -0.000030
vn -0.000000 -0.005589 0.999984
vn -0.000000 -0.005589 0.999984
vn -0.000000 -0.005589 0.999984
vn -0.000000 -0.005589 0.999984
vn 0.000015 0.076069 -0.997103
vn 0.000015 0.076069 -0.997103
vn 0.000015 0.076069 -0.997103
vn 0.000015 0.076069 -0.997103
vn -0.000000 -0.005409 0.999985
vn -0.000000 -0.005409 0.999985
vn -0.000000 -0.005409 0.999985
vn -0.000000 -0.005409 0.999985
vn 0.000000 0.075902 -0.997115
vn 0.000000 0.075902 -0.997115
vn 0.000000 0.075902 -0.997115
vn 0.000000 0.075902 -0.997115
vn -0.999984 -0.005589 -0.000000
vn -0.999984 -0.005589 -0.000000
vn -0.999984 -0.005589 -0.000000
vn -0.999984 -0.005589 -0.000000
vn 0.997103 0.076070 0.000000
vn 0.997103 0.076070 0.000000
vn 0.997103 0.076070 0.000000
vn 0.997103 0.076070 0.000000
vn -0.999985 -0.005409 -0.000000
vn -0.999985 -0.005409 -0.000000
vn -0.999985 -0.005409 -0.000000
vn -0.999985 -0.005409 -0.000000
vn 0.997115 0.075903 0.000030
vn 0.997115 0.075903 0.000030
vn 0.997115 0.075903 0.000030
vn 0.997115 0.075903 0.000030
vn -0.000000 -0.005589 -0.999984
vn -0.000000 -0.005589 -0.999984
vn -0.000000 -0.005589 -0.999984
vn -0.000000 -0.005589 -0.999984
vn -0.000015 0.076069 0.997103
vn -0.000015 0.076069 0.997103
vn -0.000015 0.076069 0.997103
vn -0.000015 0.076069 0.997103
vn 0.021967 -0.999721 0.008660
vn 0.004698 -0.999983 0.003457
vn 0.004247 -0.999991 -0.000192
vn 0.021959 -0.999759 -0.000000
vn -0.011800 0.000000 0.999930
vn -0.011800 0.000000 0.999930
vn -0.017885 0.999840 0.000000
vn -0.000226 1.000000 0.000241
vn -0.000693 0.999995 -0.003045
vn -0.018002 0.999820 -0.005969
vn -0.014829 0.000000 -0.999890
vn -0.014829 0.000000 -0.999890
vn 0.017467 0.999838 -0.004343
vn 0.016943 0.999827 -0.007684
vn -0.971832 0.011141 0.235410
vn -0.971832 0.011141 0.235410
vn -0.972375 0.010645 0.233181
vn -0.972375 0.010645 0.233181
vn -0.013027 -0.999895 0.006334
vn -0.013401 -0.999902 0.004118
vn 0.017433 0.999848 0.000483
vn -0.998552 -0.001944 -0.053769
vn -0.998552 -0.001944 -0.053769
vn -0.013466 -0.999909 -0.000383
vn -0.018797 0.999822 -0.001689
vn 0.956886 0.002934 0.290449
vn 0.956886 0.002934 0.290449
vn 0.022875 -0.999729 0.004228
vn -0.020110 0.999695 0.014307
vn 0.920305 0.005156 -0.391169
vn 0.920305 0.005156 -0.391169
vn 0.024300 -0.999568 -0.016544
vn -0.020979 0.999712 0.011622
vn 0.926653 0.004979 -0.375884
vn 0.926653 0.004979 -0.375884
vn 0.025332 -0.999574 -0.014511
vn -0.021210 0.999770 0.003190
vn 1.000000 0.000001 0.000000
vn 1.000000 0.000001 0.000000
vn 0.025835 -0.999655 -0.004798
s 1
f 55/68/1 56/69/2 2/2/3 3/3/4
s 2
f 8/8/5 5/5/6 52/64/7 53/65/8
s 3
f 42/51/9 8/9/10 53/66/11 54/67/12
s 4
f 44/54/13 41/50/14 7/13/15 6/6/16
s 5
f 42/52/17 43/53/18 5/5/19 8/15/20
s 6
f 51/63/21 52/64/22 5/5/23 43/53/24
s off
f 9/17/25 10/18/26 11/19/27 12/20/28
f 16/24/29 13/21/30 14/22/31 15/23/32
f 15/23/33 14/22/34 9/17/35 12/20/36
f 10/18/37 13/21/38 16/24/39 11/19/40
f 17/25/41 18/26/42 19/27/43 20/28/44
f 24/32/45 21/29/46 22/30/47 23/31/48
f 23/31/49 22/30/50 17/25/51 20/28/52
f 18/26/53 21/29/54 24/32/55 19/27/56
f 25/33/57 26/34/58 27/35/59 28/36/60
f 32/40/61 29/37/62 30/38/63 31/39/64
f 31/39/65 30/38/66 25/33/67 28/36/68
f 26/34/69 29/37/70 32/40/71 27/35/72
f 33/41/73 34/42/74 35/43/75 36/44/76
f 40/48/77 37/45/78 38/46/79 39/47/80
f 39/47/81 38/46/82 33/41/83 36/44/84
f 34/42/85 37/45/86 40/48/87 35/43/88
s 3
f 56/70/89 46/56/90 41/49/91 2/11/92
s 5
f 1/16/93 4/4/94 43/53/18 42/52/17
s 6
f 3/3/95 44/54/96 45/55/97 55/68/98
s 4
f 2/14/99 41/50/14 44/54/13 3/3/100
s 6
f 49/60/101 47/57/102 45/55/97
s 2
f 48/58/103 47/57/104 49/60/105 50/61/106
s 3
f 46/56/90 48/59/107 50/62/108
s 6
f 44/54/96 6/6/109 49/60/101 45/55/97
s 2
f 50/61/106 49/60/105 6/6/110 7/7/111
s 3
f 46/56/90 50/62/108 7/10/112 41/49/91
s 6
f 45/55/97 47/57/102 52/64/22 51/63/21
s 2
f 53/65/8 52/64/7 47/57/104 48/58/103
s 3
f 54/67/12 53/66/11 48/59/107 46/56/90
s 6
f 57/71/113 55/68/98 45/55/97
s 1
f 56/69/2 55/68/1 57/71/114 58/72/115
s 3
f 46/56/90 56/70/89 58/73/116
s 6
f 57/71/113 45/55/97 51/63/21 59/74/117
s 1
f 59/74/118 60/75/119 58/72/115 57/71/114
s 3
f 60/76/120 54/67/12 46/56/90 58/73/116
s 6
f 59/74/117 51/63/21 61/77/121
s 1
f 60/75/119 59/74/118 61/77/122 62/78/123
s 3
f 54/67/12 60/76/120 62/79/124
s 6
f 61/77/121 51/63/21 43/53/24 4/4/125
s 1
f 4/4/126 1/1/127 62/78/123 61/77/122
s 3
f 1/12/128 42/51/9 54/67/12 62/79/124
