# This file uses centimeters as units for non-parametric coordinates.

v 0.000000 0.255616 0.000000
v -0.063993 0.291728 0.000902
v -0.044611 0.295901 0.045889
v 0.000902 0.265306 0.063993
v 0.045889 0.262304 0.044611
v 0.063993 0.229349 -0.000902
v 0.044611 0.237542 -0.045887
v -0.000902 0.255862 -0.063993
v -0.045889 0.255985 -0.044611
v 0.044716 0.042212 -0.045998
v -0.000906 0.042212 -0.064144
v -0.045998 0.042212 -0.044716
v -0.064144 0.042212 0.000906
v 0.064144 0.042212 -0.000906
v -0.096334 0.027075 0.001360
v 0.096334 0.027075 -0.001360
v 0.067156 0.027075 -0.069078
v -0.001360 0.027075 -0.096334
v -0.069078 0.027075 -0.067156
v -0.096334 -0.001174 0.001360
v 0.096334 -0.001174 -0.001360
v 0.067156 -0.001174 -0.069078
v -0.001360 -0.001174 -0.096334
v -0.069078 -0.001174 -0.067156
v -0.044716 0.042212 0.045998
v 0.000906 0.042212 0.064144
v 0.045998 0.042212 0.044716
v -0.067156 0.027075 0.069078
v 0.001360 0.027075 0.096334
v 0.069078 0.027075 0.067156
v -0.067156 -0.001174 0.069078
v 0.001360 -0.001174 0.096334
v 0.069078 -0.001174 0.067156
vt 0.411074 0.190032
vt 0.449042 0.166907
vt 0.414362 0.210090
vt 0.400540 0.203861
vt 0.394030 0.192842
vt 0.397171 0.177716
vt 0.415620 0.166907
vt 0.426763 0.166907
vt 0.437906 0.166907
vt 0.404425 0.110148
vt 0.415594 0.110138
vt 0.426763 0.110135
vt 0.437931 0.110138
vt 0.449100 0.110147
vt 0.404425 0.166907
vt 0.408969 0.172292
vt 0.421921 0.176663
vt 0.425504 0.203545
vt 0.428181 0.187833
vt 0.415938 0.093896
vt 0.405223 0.093896
vt 0.405223 0.087771
vt 0.415938 0.087771
vt 0.428161 0.093896
vt 0.428161 0.087771
vt 0.439763 0.093896
vt 0.439763 0.087771
vt 0.449829 0.093896
vt 0.449829 0.087771
vt 0.428161 0.101649
vt 0.415938 0.101649
vt 0.439763 0.101649
vt 0.449829 0.101649
vt 0.405223 0.101649
vt 0.415620 0.166907
vt 0.404425 0.166907
vt 0.404425 0.110148
vt 0.415594 0.110138
vt 0.426763 0.166907
vt 0.426763 0.110135
vt 0.437906 0.166907
vt 0.437931 0.110138
vt 0.449042 0.166907
vt 0.449100 0.110147
vt 0.415938 0.093896
vt 0.405223 0.093896
vt 0.405223 0.087771
vt 0.415938 0.087771
vt 0.428161 0.093896
vt 0.428161 0.087771
vt 0.439763 0.093896
vt 0.439763 0.087771
vt 0.449829 0.093896
vt 0.449829 0.087771
vt 0.428161 0.101649
vt 0.415938 0.101649
vt 0.439763 0.101649
vt 0.449829 0.101649
vt 0.405223 0.101649
vn 0.336427 0.922388 -0.189782
vn -0.470916 0.810764 -0.347707
vn -0.122141 0.866178 0.484580
vn 0.250619 0.727770 0.638389
vn 0.650804 0.711551 0.264856
vn 0.815675 0.557464 -0.154621
vn 0.667666 0.606192 -0.432149
vn 0.130880 0.716323 -0.685384
vn -0.335469 0.677143 -0.654934
vn 0.999899 0.000766 -0.014205
vn 0.697126 0.000767 -0.716949
vn -0.014043 0.000724 -0.999901
vn -0.716942 0.000679 -0.697133
vn -0.999902 0.000626 0.013995
vn 0.697057 -0.000000 -0.717016
vn 0.999900 -0.000000 -0.014113
vn 0.999900 -0.000000 -0.014113
vn 0.697057 -0.000000 -0.717016
vn -0.014113 0.000000 -0.999900
vn -0.014113 0.000000 -0.999900
vn -0.717016 0.000000 -0.697057
vn -0.717016 0.000000 -0.697057
vn -0.999900 0.000000 0.014113
vn -0.999900 0.000000 0.014113
vn -0.006007 0.904952 -0.425471
vn 0.296608 0.904950 -0.305105
vn 0.296608 0.904950 -0.305105
vn -0.006007 0.904952 -0.425471
vn -0.305105 0.904950 -0.296608
vn -0.305105 0.904950 -0.296608
vn -0.425471 0.904952 0.006007
vn -0.425471 0.904952 0.006007
vn 0.425471 0.904952 -0.006007
vn 0.425471 0.904952 -0.006007
vn -0.696997 0.000616 0.717074
vn 0.014217 0.000657 0.999899
vn 0.717105 0.000711 0.696965
vn -0.697057 0.000000 0.717016
vn -0.697057 0.000000 0.717016
vn 0.014113 -0.000000 0.999900
vn 0.014113 -0.000000 0.999900
vn 0.717016 -0.000000 0.697057
vn 0.717016 -0.000000 0.697057
vn 0.006007 0.904952 0.425471
vn -0.296608 0.904950 0.305105
vn -0.296608 0.904950 0.305105
vn 0.006007 0.904952 0.425471
vn 0.305105 0.904950 0.296608
vn 0.305105 0.904950 0.296608
s 1
f 1/1/1 2/18/2 3/3/3
f 1/1/1 3/3/3 4/4/4
f 1/1/1 4/4/4 5/5/5
f 1/1/1 5/5/5 6/6/6
f 1/1/1 6/6/6 7/16/7
f 1/1/1 7/16/7 8/17/8
f 1/1/1 8/17/8 9/19/9
f 1/1/1 9/19/9 2/18/2
f 7/7/7 6/15/6 14/10/10 10/11/11
f 8/8/8 7/7/7 10/11/11 11/12/12
f 9/9/9 8/8/8 11/12/12 12/13/13
f 2/2/2 9/9/9 12/13/13 13/14/14
s 2
f 17/20/15 16/21/16 21/22/17 22/23/18
f 18/24/19 17/20/15 22/23/18 23/25/20
f 19/26/21 18/24/19 23/25/20 24/27/22
f 15/28/23 19/26/21 24/27/22 20/29/24
s 3
f 11/30/25 10/31/26 17/20/27 18/24/28
f 12/32/29 11/30/25 18/24/28 19/26/30
f 13/33/31 12/32/29 19/26/30 15/28/32
f 10/31/26 14/34/33 16/21/34 17/20/27
s 1
f 3/35/3 2/36/2 13/37/14 25/38/35
f 4/39/4 3/35/3 25/38/35 26/40/36
f 5/41/5 4/39/4 26/40/36 27/42/37
f 6/43/6 5/41/5 27/42/37 14/44/10
s 2
f 28/45/38 15/46/23 20/47/24 31/48/39
f 29/49/40 28/45/38 31/48/39 32/50/41
f 30/51/42 29/49/40 32/50/41 33/52/43
f 16/53/16 30/51/42 33/52/43 21/54/17
s 3
f 26/55/44 25/56/45 28/45/46 29/49/47
f 27/57/48 26/55/44 29/49/47 30/51/49
f 14/58/33 27/57/48 30/51/49 16/53/34
f 25/56/45 13/59/31 15/46/32 28/45/46
