# This file uses centimeters as units for non-parametric coordinates.

v 0.000000 0.149612 0.000000
v -0.063993 0.178567 0.000902
v -0.044611 0.173888 0.045889
v 0.000902 0.198972 0.063993
v 0.045889 0.192342 0.044611
v 0.063993 0.162320 -0.000902
v 0.044611 0.155097 -0.045887
v -0.000902 0.148389 -0.063993
v -0.045889 0.162699 -0.044611
v -0.096334 0.026808 0.001360
v 0.096334 0.026808 -0.001360
v 0.067156 0.026808 -0.069078
v -0.001360 0.026808 -0.096334
v -0.069078 0.026808 -0.067156
v -0.096334 -0.001441 0.001360
v 0.096334 -0.001441 -0.001360
v 0.067156 -0.001441 -0.069078
v -0.001360 -0.001441 -0.096334
v -0.069078 -0.001441 -0.067156
v 0.044716 0.041945 -0.045998
v -0.000906 0.041945 -0.064144
v -0.045998 0.041945 -0.044716
v -0.064144 0.041945 0.000906
v 0.064144 0.041945 -0.000906
v -0.067156 0.026808 0.069078
v 0.001360 0.026808 0.096334
v 0.069078 0.026808 0.067156
v -0.067156 -0.001441 0.069078
v 0.001360 -0.001441 0.096334
v 0.069078 -0.001441 0.067156
v -0.044716 0.041945 0.045998
v 0.000906 0.041945 0.064144
v 0.045998 0.041945 0.044716
vt 0.370737 0.192112
vt 0.391791 0.169649
vt 0.365992 0.209912
vt 0.353996 0.203576
vt 0.351554 0.190270
vt 0.360103 0.178328
vt 0.360642 0.169649
vt 0.371027 0.169649
vt 0.381411 0.169649
vt 0.350208 0.140682
vt 0.360618 0.140667
vt 0.371028 0.140662
vt 0.381437 0.140667
vt 0.391848 0.140682
vt 0.415938 0.093896
vt 0.405223 0.093896
vt 0.405223 0.087771
vt 0.415938 0.087771
vt 0.428161 0.093896
vt 0.428161 0.087771
vt 0.439763 0.093896
vt 0.439763 0.087771
vt 0.449829 0.093896
vt 0.449829 0.087771
vt 0.428161 0.101649
vt 0.415938 0.101649
vt 0.439763 0.101649
vt 0.449829 0.101649
vt 0.405223 0.101649
vt 0.350260 0.169649
vt 0.373424 0.175172
vt 0.384951 0.182565
vt 0.379674 0.208070
vt 0.387713 0.196446
vt 0.360642 0.169649
vt 0.350260 0.169649
vt 0.350208 0.140682
vt 0.360618 0.140667
vt 0.371027 0.169649
vt 0.371028 0.140662
vt 0.381411 0.169649
vt 0.381437 0.140667
vt 0.391791 0.169649
vt 0.391848 0.140682
vt 0.415938 0.093896
vt 0.405223 0.093896
vt 0.405223 0.087771
vt 0.415938 0.087771
vt 0.428161 0.093896
vt 0.428161 0.087771
vt 0.439763 0.093896
vt 0.439763 0.087771
vt 0.449829 0.093896
vt 0.449829 0.087771
vt 0.428161 0.101649
vt 0.415938 0.101649
vt 0.439763 0.101649
vt 0.449829 0.101649
vt 0.405223 0.101649
vn 0.037030 0.956804 -0.288365
vn -0.492493 0.864583 -0.099738
vn -0.509184 0.804033 0.307023
vn -0.179854 0.909146 0.375641
vn 0.540341 0.839877 0.051364
vn 0.616167 0.734292 -0.284876
vn 0.365790 0.756018 -0.542803
vn 0.047548 0.717458 -0.694977
vn -0.255329 0.759684 -0.598070
vn 0.999897 0.001205 -0.014322
vn 0.696994 0.001339 -0.717075
vn -0.014062 0.001356 -0.999900
vn -0.716894 0.001251 -0.697181
vn -0.999901 0.001148 0.014054
vn 0.697057 -0.000000 -0.717016
vn 0.999900 -0.000000 -0.014113
vn 0.999900 -0.000000 -0.014113
vn 0.697057 -0.000000 -0.717016
vn -0.014113 0.000000 -0.999900
vn -0.014113 0.000000 -0.999900
vn -0.717016 0.000000 -0.697057
vn -0.717016 0.000000 -0.697057
vn -0.999900 0.000000 0.014113
vn -0.999900 0.000000 0.014113
vn -0.006007 0.904952 -0.425471
vn 0.296608 0.904950 -0.305105
vn 0.296608 0.904950 -0.305105
vn -0.006007 0.904952 -0.425471
vn -0.305105 0.904950 -0.296609
vn -0.305105 0.904950 -0.296609
vn -0.425471 0.904952 0.006007
vn -0.425471 0.904952 0.006007
vn 0.425471 0.904952 -0.006007
vn 0.425471 0.904952 -0.006007
vn -0.697124 0.001084 0.716949
vn 0.014024 0.001013 0.999901
vn 0.717149 0.001048 0.696919
vn -0.697057 0.000000 0.717016
vn -0.697057 0.000000 0.717016
vn 0.014113 -0.000000 0.999900
vn 0.014113 -0.000000 0.999900
vn 0.717016 -0.000000 0.697057
vn 0.717016 -0.000000 0.697057
vn 0.006007 0.904952 0.425471
vn -0.296608 0.904950 0.305105
vn -0.296608 0.904950 0.305105
vn 0.006007 0.904952 0.425471
vn 0.305105 0.904950 0.296609
vn 0.305105 0.904950 0.296609
s 1
f 1/1/1 2/33/2 3/3/3
f 1/1/1 3/3/3 4/4/4
f 1/1/1 4/4/4 5/5/5
f 1/1/1 5/5/5 6/6/6
f 1/1/1 6/6/6 7/31/7
f 1/1/1 7/31/7 8/32/8
f 1/1/1 8/32/8 9/34/9
f 1/1/1 9/34/9 2/33/2
f 7/7/7 6/30/6 24/10/10 20/11/11
f 8/8/8 7/7/7 20/11/11 21/12/12
f 9/9/9 8/8/8 21/12/12 22/13/13
f 2/2/2 9/9/9 22/13/13 23/14/14
s 2
f 12/15/15 11/16/16 16/17/17 17/18/18
f 13/19/19 12/15/15 17/18/18 18/20/20
f 14/21/21 13/19/19 18/20/20 19/22/22
f 10/23/23 14/21/21 19/22/22 15/24/24
s 3
f 21/25/25 20/26/26 12/15/27 13/19/28
f 22/27/29 21/25/25 13/19/28 14/21/30
f 23/28/31 22/27/29 14/21/30 10/23/32
f 20/26/26 24/29/33 11/16/34 12/15/27
s 1
f 3/35/3 2/36/2 23/37/14 31/38/35
f 4/39/4 3/35/3 31/38/35 32/40/36
f 5/41/5 4/39/4 32/40/36 33/42/37
f 6/43/6 5/41/5 33/42/37 24/44/10
s 2
f 25/45/38 10/46/23 15/47/24 28/48/39
f 26/49/40 25/45/38 28/48/39 29/50/41
f 27/51/42 26/49/40 29/50/41 30/52/43
f 11/53/16 27/51/42 30/52/43 16/54/17
s 3
f 32/55/44 31/56/45 25/45/46 26/49/47
f 33/57/48 32/55/44 26/49/47 27/51/49
f 24/58/33 33/57/48 27/51/49 11/53/34
f 31/56/45 23/59/31 10/46/32 25/45/46
