# This file uses centimeters as units for non-parametric coordinates.

v -0.046494 0.228188 0.000656
v 0.046494 0.228188 -0.000656
v 0.032412 0.228188 -0.033340
v -0.000656 0.228188 -0.046494
v -0.033340 0.228188 -0.032412
v -0.046494 0.458367 0.000656
v -0.032412 0.475457 0.033340
v 0.000656 0.479444 0.046494
v 0.033340 0.477848 0.032412
v 0.046494 0.456307 -0.000656
v 0.032412 0.446045 -0.033340
v -0.000656 0.446045 -0.046494
v -0.033340 0.460428 -0.032412
v 0.000000 0.467979 0.000000
v -0.069399 0.210723 0.000978
v 0.069399 0.210723 -0.000978
v 0.048378 0.210723 -0.049765
v -0.000978 0.210723 -0.069399
v -0.049765 0.210723 -0.048378
v -0.096334 0.027147 0.001360
v 0.096334 0.027147 -0.001360
v 0.067158 0.027147 -0.069080
v -0.001360 0.027147 -0.096334
v -0.069078 0.027147 -0.067156
v -0.096334 -0.001102 0.001360
v 0.096334 -0.001102 -0.001360
v 0.067158 -0.001102 -0.069080
v -0.001360 -0.001102 -0.096334
v -0.069078 -0.001102 -0.067156
v 0.044134 0.048140 -0.045399
v -0.000893 0.048140 -0.063309
v -0.045399 0.048140 -0.044134
v -0.063309 0.048140 0.000893
v 0.063309 0.048140 -0.000893
v -0.000710 0.162192 -0.050316
v -0.036081 0.162192 -0.035076
v -0.050316 0.162192 0.000710
v 0.050316 0.162192 -0.000710
v 0.035076 0.162192 -0.036081
v -0.032412 0.228188 0.033340
v 0.000656 0.228188 0.046495
v 0.033340 0.228188 0.032412
v -0.048378 0.210723 0.049765
v 0.000978 0.210723 0.069399
v 0.049765 0.210723 0.048378
v -0.067158 0.027147 0.069080
v 0.001360 0.027147 0.096334
v 0.069078 0.027147 0.067156
v -0.067158 -0.001102 0.069080
v 0.001360 -0.001102 0.096334
v 0.069078 -0.001102 0.067156
v -0.044136 0.048141 0.045399
v 0.000893 0.048141 0.063309
v 0.045399 0.048141 0.044134
v 0.000710 0.162192 0.050318
v 0.036081 0.162192 0.035076
v -0.035076 0.162192 0.036081
vt 0.531415 0.165675
vt 0.517213 0.165675
vt 0.517213 0.156604
vt 0.531415 0.156604
vt 0.544864 0.165675
vt 0.544864 0.156604
vt 0.557916 0.165675
vt 0.557916 0.156604
vt 0.570848 0.165675
vt 0.570848 0.156605
vt 0.517213 0.143193
vt 0.531415 0.143193
vt 0.544864 0.143193
vt 0.557916 0.143193
vt 0.570848 0.143193
vt 0.531415 0.100323
vt 0.517213 0.100322
vt 0.517213 0.094490
vt 0.531415 0.094490
vt 0.544864 0.100322
vt 0.544864 0.094490
vt 0.557916 0.100322
vt 0.557916 0.094490
vt 0.570848 0.100322
vt 0.570848 0.094490
vt 0.544864 0.109090
vt 0.531415 0.109090
vt 0.557916 0.109090
vt 0.570848 0.109090
vt 0.517213 0.109090
vt 0.348956 0.131221
vt 0.359843 0.131221
vt 0.370731 0.131221
vt 0.428569 0.195756
vt 0.381620 0.131221
vt 0.395636 0.200015
vt 0.406012 0.208514
vt 0.411321 0.191163
vt 0.419419 0.207065
vt 0.392508 0.131221
vt 0.392508 0.060167
vt 0.426908 0.182460
vt 0.381620 0.060167
vt 0.416530 0.172388
vt 0.370731 0.060167
vt 0.394464 0.184387
vt 0.403157 0.173471
vt 0.359843 0.060167
vt 0.348956 0.060167
vt 0.348956 0.060167
vt 0.359843 0.060167
vt 0.359843 0.131221
vt 0.348956 0.131221
vt 0.370731 0.060167
vt 0.370731 0.131221
vt 0.381620 0.060167
vt 0.381620 0.131221
vt 0.392508 0.060167
vt 0.392508 0.131221
vt 0.531415 0.165675
vt 0.517213 0.165675
vt 0.517213 0.156604
vt 0.531415 0.156604
vt 0.544864 0.165675
vt 0.544864 0.156604
vt 0.557916 0.165675
vt 0.557916 0.156604
vt 0.570848 0.165675
vt 0.570848 0.156605
vt 0.517213 0.143193
vt 0.531415 0.143193
vt 0.544864 0.143193
vt 0.557916 0.143193
vt 0.570848 0.143193
vt 0.531415 0.100323
vt 0.517213 0.100322
vt 0.517213 0.094490
vt 0.531415 0.094490
vt 0.544864 0.100322
vt 0.544864 0.094490
vt 0.557916 0.100322
vt 0.557916 0.094490
vt 0.570848 0.100322
vt 0.570848 0.094490
vt 0.544864 0.109090
vt 0.531415 0.109090
vt 0.557916 0.109090
vt 0.570848 0.109090
vt 0.517213 0.109090
vn 0.999900 -0.000000 -0.014118
vn 0.697053 -0.000000 -0.717019
vn 0.516655 0.551639 -0.654799
vn 0.757412 0.583933 -0.292145
vn -0.014118 0.000000 -0.999900
vn 0.107963 0.547368 -0.829899
vn -0.717019 0.000000 -0.697053
vn -0.460991 0.650662 -0.603428
vn -0.999900 0.000000 0.014118
vn -0.759767 0.637170 -0.129493
vn -0.600908 0.749055 0.278973
vn 0.042686 0.942702 -0.330895
vn -0.021542 0.816682 0.576687
vn 0.611195 0.754872 0.237926
vn 0.422634 0.795227 -0.434735
vn 0.606246 0.795231 -0.008561
vn 0.606246 0.795231 -0.008561
vn 0.422634 0.795227 -0.434735
vn -0.008560 0.795231 -0.606246
vn -0.008560 0.795231 -0.606246
vn -0.434734 0.795228 -0.422634
vn -0.434734 0.795228 -0.422634
vn -0.606246 0.795231 0.008559
vn -0.606246 0.795231 0.008559
vn 0.648705 -0.365953 -0.667278
vn 0.930539 -0.365957 -0.013134
vn 0.930539 -0.365957 -0.013134
vn 0.648705 -0.365953 -0.667278
vn -0.013134 -0.365957 -0.930539
vn -0.013134 -0.365957 -0.930539
vn -0.667278 -0.365953 -0.648705
vn -0.667278 -0.365953 -0.648705
vn -0.930539 -0.365957 0.013134
vn -0.930539 -0.365957 0.013134
vn 0.605808 0.494645 -0.623156
vn 0.869011 0.494641 -0.012250
vn 0.999901 -0.000000 -0.014096
vn 0.697057 -0.000000 -0.717016
vn -0.012279 0.494641 -0.869011
vn -0.014130 0.000000 -0.999900
vn -0.623161 0.494632 -0.605814
vn -0.717016 0.000000 -0.697057
vn -0.869013 0.494638 0.012249
vn -0.999901 0.000000 0.014096
vn -0.007577 0.843946 -0.536375
vn 0.373914 0.843951 -0.384623
vn -0.384636 0.843939 -0.373928
vn -0.536382 0.843942 0.007558
vn 0.536375 0.843946 -0.007560
vn -0.712406 0.113202 -0.692577
vn -0.014021 0.113202 -0.993473
vn -0.014021 0.113202 -0.993473
vn -0.712406 0.113202 -0.692577
vn -0.993473 0.113205 0.014010
vn -0.993473 0.113205 0.014010
vn 0.692577 0.113202 -0.712406
vn 0.993473 0.113202 -0.014021
vn 0.993473 0.113202 -0.014021
vn 0.692577 0.113202 -0.712406
vn -0.697062 0.000002 0.717011
vn 0.014118 0.000004 0.999900
vn 0.717028 0.000002 0.697044
vn -0.422643 0.795220 0.434739
vn -0.422643 0.795220 0.434739
vn 0.008560 0.795221 0.606259
vn 0.008560 0.795221 0.606259
vn 0.434743 0.795221 0.422638
vn 0.434743 0.795221 0.422638
vn -0.648713 -0.365944 0.667275
vn -0.648713 -0.365944 0.667275
vn 0.013134 -0.365944 0.930544
vn 0.013134 -0.365944 0.930544
vn 0.667286 -0.365944 0.648702
vn 0.667286 -0.365944 0.648702
vn -0.605811 0.494641 0.623156
vn -0.697057 0.000000 0.717016
vn 0.012279 0.494640 0.869012
vn 0.014130 -0.000000 0.999900
vn 0.623161 0.494632 0.605813
vn 0.717016 -0.000000 0.697057
vn 0.007578 0.843944 0.536378
vn -0.373921 0.843947 0.384624
vn 0.384636 0.843939 0.373927
vn 0.712413 0.113198 0.692571
vn 0.014025 0.113196 0.993474
vn 0.014025 0.113196 0.993474
vn 0.712413 0.113198 0.692571
vn -0.692589 0.113204 0.712394
vn -0.692589 0.113204 0.712394
s 1
f 2/49/1 3/48/2 11/32/3 10/31/4
f 3/48/2 4/45/5 12/33/6 11/32/3
f 4/45/5 5/43/7 13/35/8 12/33/6
f 5/43/7 1/41/9 6/40/10 13/35/8
f 6/34/10 7/39/11 14/38/12
f 7/39/11 8/37/13 14/38/12
f 8/37/13 9/36/14 14/38/12
f 9/36/14 10/46/4 14/38/12
f 10/46/4 11/47/3 14/38/12
f 11/47/3 12/44/6 14/38/12
f 12/44/6 13/42/8 14/38/12
f 13/42/8 6/34/10 14/38/12
s 2
f 3/1/15 2/2/16 16/3/17 17/4/18
f 4/5/19 3/1/15 17/4/18 18/6/20
f 5/7/21 4/5/19 18/6/20 19/8/22
f 1/9/23 5/7/21 19/8/22 15/10/24
s 3
f 17/4/25 16/3/26 38/11/27 39/12/28
f 18/6/29 17/4/25 39/12/28 35/13/30
f 19/8/31 18/6/29 35/13/30 36/14/32
f 15/10/33 19/8/31 36/14/32 37/15/34
s 4
f 22/16/35 21/17/36 26/18/37 27/19/38
f 23/20/39 22/16/35 27/19/38 28/21/40
f 24/22/41 23/20/39 28/21/40 29/23/42
f 20/24/43 24/22/41 29/23/42 25/25/44
f 31/26/45 30/27/46 22/16/35 23/20/39
f 32/28/47 31/26/45 23/20/39 24/22/41
f 33/29/48 32/28/47 24/22/41 20/24/43
f 30/27/46 34/30/49 21/17/36 22/16/35
s 5
f 36/14/50 35/13/51 31/26/52 32/28/53
f 37/15/54 36/14/50 32/28/53 33/29/55
f 39/12/56 38/11/57 34/30/58 30/27/59
f 35/13/51 39/12/56 30/27/59 31/26/52
s 1
f 1/50/9 40/51/60 7/52/11 6/53/10
f 40/51/60 41/54/61 8/55/13 7/52/11
f 41/54/61 42/56/62 9/57/14 8/55/13
f 42/56/62 2/58/1 10/59/4 9/57/14
s 2
f 40/60/63 1/61/23 15/62/24 43/63/64
f 41/64/65 40/60/63 43/63/64 44/65/66
f 42/66/67 41/64/65 44/65/66 45/67/68
f 2/68/16 42/66/67 45/67/68 16/69/17
s 3
f 43/63/69 15/62/33 37/70/34 57/71/70
f 44/65/71 43/63/69 57/71/70 55/72/72
f 45/67/73 44/65/71 55/72/72 56/73/74
f 16/69/26 45/67/73 56/73/74 38/74/27
s 4
f 46/75/75 20/76/43 25/77/44 49/78/76
f 47/79/77 46/75/75 49/78/76 50/80/78
f 48/81/79 47/79/77 50/80/78 51/82/80
f 21/83/36 48/81/79 51/82/80 26/84/37
f 53/85/81 52/86/82 46/75/75 47/79/77
f 54/87/83 53/85/81 47/79/77 48/81/79
f 34/88/49 54/87/83 48/81/79 21/83/36
f 52/86/82 33/89/48 20/76/43 46/75/75
s 5
f 56/73/84 55/72/85 53/85/86 54/87/87
f 38/74/57 56/73/84 54/87/87 34/88/58
f 57/71/88 37/70/54 33/89/55 52/86/89
f 55/72/85 57/71/88 52/86/89 53/85/86
