# This file uses centimeters as units for non-parametric coordinates.

v 0.264851 0.385688 0.279064
v 0.274582 0.385688 -0.270100
v 0.274582 0.474601 -0.270100
v 0.264851 0.474601 0.279064
v -0.264853 0.385688 0.279064
v -0.274582 0.370787 -0.272617
v -0.111181 0.375141 -0.279064
v -0.097691 0.385688 0.271790
v -0.274582 0.474601 -0.272617
v -0.111980 0.474601 -0.279064
v 0.084229 0.474601 0.271791
v 0.087738 0.385688 0.271790
v -0.264853 0.474601 0.279064
v -0.092606 0.474601 0.271791
v -0.086317 0.474601 -0.272057
v -0.089338 0.375879 -0.272057
v 0.089020 0.474601 -0.264683
v 0.086460 0.380617 -0.264687
v -0.118898 0.000000 -0.115246
v -0.118898 0.000000 -0.256836
v -0.116831 0.379560 -0.227676
v -0.116831 0.379560 -0.113110
v -0.260490 0.000000 -0.256836
v -0.260492 0.000000 -0.115246
v -0.231398 0.379560 -0.113110
v -0.231396 0.379560 -0.227676
v 0.119728 -0.000000 -0.114416
v 0.261318 -0.000000 -0.114418
v 0.232159 0.387079 -0.112350
v 0.117592 0.387079 -0.112349
v 0.261318 -0.000000 -0.256008
v 0.119728 -0.000000 -0.256008
v 0.117592 0.387079 -0.226913
v 0.232159 0.387079 -0.226913
v 0.118898 -0.000000 0.124210
v 0.118898 -0.000000 0.265800
v 0.116831 0.387079 0.236641
v 0.116831 0.387079 0.122074
v 0.260490 -0.000000 0.265802
v 0.260494 -0.000000 0.124210
v 0.231400 0.387079 0.122074
v 0.231396 0.387079 0.236643
v -0.119728 0.000000 0.123381
v -0.261318 0.000000 0.123383
v -0.232159 0.379560 0.121315
v -0.117592 0.379560 0.121313
v -0.261320 0.000000 0.264973
v -0.119728 0.000000 0.264975
v -0.117592 0.379560 0.235880
v -0.232161 0.379560 0.235878
vt 0.721213 0.089846
vt 0.824572 0.089848
vt 0.824571 0.109386
vt 0.721212 0.109385
vt 0.694400 0.212332
vt 0.694400 0.179522
vt 0.684813 0.179522
vt 0.684046 0.212332
vt 0.844109 0.182545
vt 0.844108 0.212747
vt 0.824569 0.212747
vt 0.824570 0.182733
vt 0.721212 0.144629
vt 0.701673 0.143944
vt 0.701673 0.109385
vt 0.721211 0.212744
vt 0.721211 0.179134
vt 0.721213 0.089846
vt 0.721212 0.109385
vt 0.824571 0.109386
vt 0.824572 0.089848
vt 0.824479 0.176861
vt 0.844109 0.177430
vt 0.683189 0.179522
vt 0.824524 0.144079
vt 0.844110 0.144560
vt 0.672755 0.179522
vt 0.661590 0.179522
vt 0.661590 0.212332
vt 0.672560 0.212332
vt 0.844110 0.109387
vt 0.701672 0.180126
vt 0.701672 0.212744
vt 0.704854 0.457820
vt 0.704854 0.430985
vt 0.569384 0.430985
vt 0.569384 0.457820
vt 0.704854 0.457820
vt 0.704854 0.483320
vt 0.569384 0.483320
vt 0.569384 0.457820
vt 0.704854 0.457820
vt 0.704854 0.430985
vt 0.569384 0.430985
vt 0.569384 0.457820
vt 0.704854 0.457820
vt 0.704854 0.483320
vt 0.569384 0.483320
vt 0.569384 0.457820
vt 0.704854 0.457820
vt 0.704854 0.430985
vt 0.569384 0.430985
vt 0.569384 0.457820
vt 0.704854 0.457820
vt 0.704854 0.483320
vt 0.569384 0.483320
vt 0.569384 0.457820
vt 0.704854 0.457820
vt 0.704854 0.430985
vt 0.569384 0.430985
vt 0.569384 0.457820
vt 0.704854 0.457820
vt 0.704854 0.483320
vt 0.569384 0.483320
vt 0.569384 0.457820
vn 0.999843 -0.000000 0.017717
vn 0.999843 -0.000000 0.017717
vn 0.999843 -0.000000 0.017717
vn 0.999843 -0.000000 0.017717
vn 0.020965 -0.999568 0.020615
vn 0.014111 -0.999641 0.022775
vn 0.014111 -0.999641 0.022775
vn 0.020965 -0.999568 0.020615
vn 0.123383 -0.001687 -0.992358
vn -0.039518 -0.000155 -0.999219
vn -0.039518 -0.000155 -0.999219
vn 0.123383 -0.001687 -0.992358
vn -0.040632 -0.000813 0.999174
vn -0.020320 -0.000417 0.999793
vn -0.020320 -0.000417 0.999793
vn -0.040632 -0.000813 0.999174
vn -0.000000 1.000000 0.000000
vn -0.000000 1.000000 0.000000
vn 0.000000 1.000000 0.000000
vn -0.000000 1.000000 0.000000
vn -0.999845 0.000000 0.017633
vn -0.999845 0.000000 0.017633
vn -0.999845 0.000000 0.017633
vn -0.999845 0.000000 0.017633
vn 0.000000 1.000000 0.000000
vn 0.163713 -0.002201 -0.986506
vn 0.163713 -0.002201 -0.986506
vn 0.027817 -0.999443 0.018454
vn 0.000000 1.000000 0.000000
vn 0.000000 1.000000 0.000000
vn 0.006501 -0.000385 -0.999979
vn 0.006501 -0.000385 -0.999979
vn 0.013345 -0.999868 0.009317
vn 0.013858 -0.999893 0.004778
vn 0.013858 -0.999893 0.004778
vn 0.013345 -0.999868 0.009317
vn 0.012833 -0.999822 0.013855
vn 0.012833 -0.999822 0.013855
vn 0.000000 1.000000 0.000000
vn 0.000000 1.000000 0.000000
vn -0.028975 0.000426 -0.999580
vn -0.028975 0.000426 -0.999580
vn 0.021097 -0.001228 0.999777
vn 0.028560 -0.000819 0.999592
vn 0.042831 -0.001217 0.999082
vn 0.043477 -0.000000 0.999054
vn 0.999985 -0.005447 0.000000
vn 0.999985 -0.005447 0.000000
vn 0.999985 -0.005447 0.000000
vn 0.999985 -0.005447 0.000000
vn -0.997075 0.076430 -0.000015
vn -0.997075 0.076430 -0.000015
vn -0.997075 0.076430 -0.000015
vn -0.997075 0.076430 -0.000015
vn -0.000000 -0.005628 0.999984
vn -0.000000 -0.005628 0.999984
vn -0.000000 -0.005628 0.999984
vn -0.000000 -0.005628 0.999984
vn 0.000000 0.076599 -0.997062
vn 0.000000 0.076599 -0.997062
vn 0.000000 0.076599 -0.997062
vn 0.000000 0.076599 -0.997062
vn 0.000015 -0.005341 0.999986
vn 0.000015 -0.005341 0.999986
vn 0.000015 -0.005341 0.999986
vn 0.000015 -0.005341 0.999986
vn 0.000000 0.074953 -0.997187
vn 0.000000 0.074953 -0.997187
vn 0.000000 0.074953 -0.997187
vn 0.000000 0.074953 -0.997187
vn -0.999985 -0.005519 -0.000000
vn -0.999985 -0.005519 -0.000000
vn -0.999985 -0.005519 -0.000000
vn -0.999985 -0.005519 -0.000000
vn 0.997175 0.075119 0.000000
vn 0.997175 0.075119 0.000000
vn 0.997175 0.075119 0.000000
vn 0.997175 0.075119 0.000000
vn -0.999986 -0.005341 -0.000000
vn -0.999986 -0.005341 -0.000000
vn -0.999986 -0.005341 -0.000000
vn -0.999986 -0.005341 -0.000000
vn 0.997187 0.074955 0.000030
vn 0.997187 0.074955 0.000030
vn 0.997187 0.074955 0.000030
vn 0.997187 0.074955 0.000030
vn -0.000000 -0.005519 -0.999985
vn -0.000000 -0.005519 -0.999985
vn -0.000000 -0.005519 -0.999985
vn -0.000000 -0.005519 -0.999985
vn -0.000015 0.075119 0.997175
vn -0.000015 0.075119 0.997175
vn -0.000015 0.075119 0.997175
vn -0.000015 0.075119 0.997175
vn -0.000015 -0.005447 -0.999985
vn -0.000015 -0.005447 -0.999985
vn -0.000015 -0.005447 -0.999985
vn -0.000015 -0.005447 -0.999985
vn -0.000015 0.076430 0.997075
vn -0.000015 0.076430 0.997075
vn -0.000015 0.076430 0.997075
vn -0.000015 0.076430 0.997075
vn 0.999984 -0.005628 0.000000
vn 0.999984 -0.005628 0.000000
vn 0.999984 -0.005628 0.000000
vn 0.999984 -0.005628 0.000000
vn -0.997062 0.076598 -0.000015
vn -0.997062 0.076598 -0.000015
vn -0.997062 0.076598 -0.000015
vn -0.997062 0.076598 -0.000015
s off
f 4/4/1 1/1/2 2/2/3 3/3/4
s 1
f 8/8/5 5/5/6 6/6/7 7/7/8
s 2
f 7/9/9 6/10/10 9/11/11 10/12/12
s 3
f 4/4/13 11/13/14 12/14/15 1/15/16
s 4
f 9/11/17 13/16/18 14/17/19 10/12/20
s off
f 5/18/21 13/19/22 9/20/23 6/21/24
s 4
f 14/17/19 15/22/25 10/12/20
s 2
f 15/22/26 16/23/27 7/9/9 10/12/12
s 1
f 8/8/5 7/7/8 16/24/28
s 4
f 17/25/29 15/22/25 14/17/19 11/13/30
s 2
f 18/26/31 16/23/27 15/22/26 17/25/32
s 5
f 18/27/33 2/28/34 1/29/35 12/30/36
f 8/8/37 16/24/38 18/27/33 12/30/36
s 4
f 17/25/29 11/13/30 4/4/39 3/3/40
s 2
f 2/31/41 18/26/31 17/25/32 3/3/42
s 3
f 14/17/43 8/32/44 12/14/15 11/13/14
f 14/17/43 13/16/45 8/32/44
f 5/33/46 8/32/44 13/16/45
s off
f 19/34/47 20/35/48 21/36/49 22/37/50
f 26/41/51 23/38/52 24/39/53 25/40/54
f 25/40/55 24/39/56 19/34/57 22/37/58
f 20/35/59 23/38/60 26/41/61 21/36/62
f 27/42/63 28/43/64 29/44/65 30/45/66
f 34/49/67 31/46/68 32/47/69 33/48/70
f 33/48/71 32/47/72 27/42/73 30/45/74
f 28/43/75 31/46/76 34/49/77 29/44/78
f 35/50/79 36/51/80 37/52/81 38/53/82
f 42/57/83 39/54/84 40/55/85 41/56/86
f 41/56/87 40/55/88 35/50/89 38/53/90
f 36/51/91 39/54/92 42/57/93 37/52/94
f 43/58/95 44/59/96 45/60/97 46/61/98
f 50/65/99 47/62/100 48/63/101 49/64/102
f 49/64/103 48/63/104 43/58/105 46/61/106
f 44/59/107 47/62/108 50/65/109 45/60/110
