# This file uses centimeters as units for non-parametric coordinates.

v 0.078636 -0.001058 0.108231
v 0.127235 -0.001058 0.041341
v -0.127235 -0.001058 -0.041342
v -0.127235 -0.001058 0.041340
v -0.078636 -0.001058 0.108231
v -0.000000 -0.001058 0.133782
v 0.084473 0.525049 0.116268
v 0.136681 0.525049 0.044408
v -0.136681 0.525049 -0.044410
v -0.136681 0.525049 0.044407
v -0.084473 0.525049 0.116268
v 0.000000 0.525049 0.143715
v -0.000000 -0.001058 0.000000
v 0.133522 0.261624 0.183777
v 0.216042 0.261624 0.070195
v -0.216042 0.261624 -0.070197
v -0.216042 0.261624 0.070194
v -0.133522 0.261624 0.183777
v 0.000000 0.261624 0.227162
v 0.100189 0.357927 0.137898
v 0.000000 0.357927 0.170449
v -0.100189 0.357927 0.137898
v -0.162109 0.357927 0.052670
v -0.162109 0.357927 -0.052672
v 0.162109 0.357927 0.052671
v -0.126747 0.130790 0.174450
v -0.205078 0.130790 0.066631
v -0.205078 0.130790 -0.066634
v 0.205078 0.130790 0.066633
v 0.126747 0.130790 0.174450
v 0.000000 0.130790 0.215630
v 0.093708 0.591954 0.128979
v 0.151623 0.591954 0.049264
v 0.000000 0.033350 0.000000
v -0.151623 0.591954 -0.049265
v -0.151623 0.591954 0.049263
v -0.093708 0.591954 0.128979
v 0.000000 0.591954 0.159428
v 0.124870 0.591954 0.040571
v 0.077171 0.591954 0.106220
v 0.000000 0.591954 0.131294
v -0.077171 0.591954 0.106220
v -0.124870 0.591954 0.040570
v -0.124870 0.591954 -0.040572
v -0.078636 -0.001058 -0.108232
v 0.127235 -0.001058 -0.041342
v 0.078636 -0.001058 -0.108232
v -0.000000 -0.001058 -0.133783
v -0.084473 0.525049 -0.116267
v 0.136681 0.525049 -0.044409
v 0.084473 0.525049 -0.116267
v 0.000000 0.525049 -0.143716
v -0.133522 0.261624 -0.183778
v 0.216042 0.261624 -0.070196
v 0.133522 0.261624 -0.183778
v 0.000000 0.261624 -0.227162
v -0.100189 0.357927 -0.137897
v 0.000000 0.357927 -0.170451
v 0.100189 0.357927 -0.137897
v 0.162109 0.357927 -0.052672
v 0.126747 0.130790 -0.174449
v 0.205078 0.130790 -0.066633
v -0.126747 0.130790 -0.174449
v 0.000000 0.130790 -0.215630
v -0.093708 0.591954 -0.128978
v 0.151623 0.591954 -0.049264
v 0.093708 0.591954 -0.128978
v 0.000000 0.591954 -0.159427
v -0.077171 0.591954 -0.106219
v 0.000000 0.591954 -0.131295
v 0.077171 0.591954 -0.106219
v 0.124870 0.591954 -0.040571
vt 0.508696 0.549688
vt 0.549368 0.549688
vt 0.549368 0.580171
vt 0.508696 0.580171
vt 0.355322 0.549688
vt 0.393644 0.549688
vt 0.393644 0.580171
vt 0.355322 0.580171
vt 0.433233 0.549688
vt 0.433544 0.580171
vt 0.469958 0.549688
vt 0.469718 0.580171
vt 0.465127 0.538904
vt 0.508696 0.661666
vt 0.452052 0.503053
vt 0.420400 0.481734
vt 0.549368 0.661666
vt 0.413914 0.504409
vt 0.421995 0.526567
vt 0.549368 0.673210
vt 0.508696 0.673210
vt 0.355322 0.661666
vt 0.482972 0.568741
vt 0.393644 0.661666
vt 0.393644 0.673210
vt 0.448144 0.568752
vt 0.443680 0.568620
vt 0.355322 0.673210
vt 0.459125 0.568830
vt 0.433965 0.661666
vt 0.472428 0.568826
vt 0.434203 0.673210
vt 0.469885 0.661666
vt 0.469737 0.673210
vt 0.549368 0.512032
vt 0.508696 0.512032
vt 0.508696 0.461772
vt 0.549368 0.461772
vt 0.393644 0.512032
vt 0.355322 0.512032
vt 0.355322 0.461772
vt 0.393644 0.461772
vt 0.432585 0.512032
vt 0.465204 0.477003
vt 0.434770 0.461772
vt 0.470239 0.512032
vt 0.468656 0.461772
vt 0.508696 0.635506
vt 0.469957 0.635506
vt 0.486730 0.568608
vt 0.433566 0.635506
vt 0.441557 0.539743
vt 0.393644 0.635506
vt 0.355322 0.635506
vt 0.438976 0.467201
vt 0.549368 0.635506
vt 0.508696 0.549688
vt 0.549368 0.549688
vt 0.549368 0.580171
vt 0.508696 0.580171
vt 0.355322 0.549688
vt 0.393644 0.549688
vt 0.393644 0.580171
vt 0.355322 0.580171
vt 0.433233 0.549688
vt 0.433544 0.580171
vt 0.469958 0.549688
vt 0.469718 0.580171
vt 0.465127 0.538904
vt 0.441557 0.539743
vt 0.452052 0.503053
vt 0.420400 0.481734
vt 0.438976 0.467201
vt 0.413914 0.504409
vt 0.421995 0.526567
vt 0.508696 0.661666
vt 0.549368 0.661666
vt 0.549368 0.673210
vt 0.508696 0.673210
vt 0.355322 0.661666
vt 0.393644 0.661666
vt 0.393644 0.673210
vt 0.355322 0.673210
vt 0.433965 0.661666
vt 0.434203 0.673210
vt 0.469885 0.661666
vt 0.469737 0.673210
vt 0.549368 0.512032
vt 0.508696 0.512032
vt 0.508696 0.461772
vt 0.549368 0.461772
vt 0.393644 0.512032
vt 0.355322 0.512032
vt 0.355322 0.461772
vt 0.393644 0.461772
vt 0.432585 0.512032
vt 0.434770 0.461772
vt 0.470239 0.512032
vt 0.468656 0.461772
vt 0.508696 0.635506
vt 0.469957 0.635506
vt 0.433566 0.635506
vt 0.393644 0.635506
vt 0.355322 0.635506
vt 0.549368 0.635506
vt 0.482972 0.568741
vt 0.486730 0.568608
vt 0.465204 0.477003
vt 0.472428 0.568826
vt 0.459125 0.568830
vt 0.448144 0.568752
vt 0.443680 0.568620
vn 0.573092 0.222218 0.788787
vn 0.927280 0.222214 0.301284
vn 0.894542 0.339585 0.290649
vn 0.552855 0.339589 0.760940
vn -0.927279 0.222213 -0.301287
vn -0.927281 0.222213 0.301282
vn -0.894543 0.339584 0.290646
vn -0.894540 0.339586 -0.290653
vn -0.573094 0.222218 0.788786
vn -0.552858 0.339590 0.760938
vn 0.000000 0.222217 0.974997
vn 0.000000 0.339589 0.940574
vn -0.000002 -1.000000 -0.000001
vn -0.000001 -1.000000 -0.000004
vn -0.000000 -1.000000 -0.000000
vn 0.000003 -1.000000 -0.000003
vn 0.000002 -1.000000 0.000001
vn 0.000002 -1.000000 -0.000003
vn -0.000000 -1.000000 -0.000004
vn 0.449516 0.644326 0.618692
vn 0.727322 0.644327 0.236316
vn 0.000000 1.000000 0.000000
vn 0.000000 1.000000 0.000000
vn -0.727320 0.644328 -0.236321
vn -0.727324 0.644326 0.236314
vn 0.000000 1.000000 0.000000
vn 0.000000 1.000000 -0.000000
vn -0.449517 0.644326 0.618691
vn 0.000000 1.000000 0.000001
vn 0.000000 0.644325 0.764752
vn 0.000000 1.000000 0.000000
vn 0.901792 -0.317679 0.293004
vn 0.557337 -0.317686 0.767106
vn 0.499383 -0.527423 0.687344
vn 0.808024 -0.527419 0.262539
vn -0.901793 -0.317678 0.293001
vn -0.901791 -0.317679 -0.293007
vn -0.808024 -0.527418 -0.262542
vn -0.808025 -0.527418 0.262536
vn -0.557339 -0.317686 0.767104
vn -0.499385 -0.527423 0.687342
vn -0.000000 -0.317688 0.948195
vn -0.000000 -0.527421 0.849604
vn 0.587405 -0.036134 0.808486
vn 0.000000 -0.036139 0.999347
vn -0.587407 -0.036134 0.808485
vn -0.950439 -0.036127 0.308807
vn -0.950435 -0.036126 -0.308817
vn 0.950437 -0.036127 0.308810
vn -0.572184 0.228805 -0.787562
vn -0.925824 0.228808 -0.300827
vn 0.000000 1.000000 0.000009
vn 0.000000 0.228805 -0.973472
vn 0.572187 0.228805 -0.787559
vn 0.925826 0.228807 -0.300823
vn 0.925821 0.228808 0.300836
vn -0.573092 0.222214 -0.788788
vn -0.552857 0.339590 -0.760939
vn 0.927280 0.222213 -0.301286
vn 0.894541 0.339586 -0.290652
vn 0.573093 0.222214 -0.788787
vn 0.552859 0.339590 -0.760938
vn 0.000000 0.222213 -0.974998
vn 0.000000 0.339591 -0.940573
vn 0.000001 -1.000000 0.000004
vn -0.000003 -1.000000 0.000003
vn -0.000002 -1.000000 0.000003
vn -0.000000 -1.000000 0.000004
vn -0.449514 0.644326 -0.618693
vn 0.000000 1.000000 -0.000000
vn 0.727320 0.644328 -0.236320
vn 0.000000 1.000000 -0.000000
vn 0.449515 0.644327 -0.618692
vn 0.000000 1.000000 -0.000001
vn -0.000000 0.644330 -0.764748
vn 0.000000 1.000000 -0.000000
vn -0.557336 -0.317685 -0.767107
vn -0.499385 -0.527416 -0.687348
vn 0.901792 -0.317679 -0.293005
vn 0.808025 -0.527417 -0.262540
vn 0.557338 -0.317685 -0.767106
vn 0.499386 -0.527416 -0.687347
vn -0.000000 -0.317687 -0.948196
vn -0.000000 -0.527413 -0.849609
vn -0.587405 -0.036130 -0.808486
vn -0.000000 -0.036132 -0.999347
vn 0.587407 -0.036129 -0.808485
vn 0.950436 -0.036126 -0.308815
vn 0.572186 0.228804 0.787561
vn 0.000000 0.228807 0.973472
vn -0.572189 0.228804 0.787559
vn -0.925822 0.228808 0.300833
s 1
f 14/1/1 15/2/2 25/3/3 20/4/4
f 16/5/5 17/6/6 23/7/7 24/8/8
f 17/6/6 18/9/9 22/10/10 23/7/7
f 18/9/9 19/11/11 21/12/12 22/10/10
f 19/11/11 14/1/1 20/4/4 21/12/12
s 3
f 2/13/13 1/52/14 13/15/15
f 4/16/16 3/55/17 13/15/15
f 5/18/18 4/16/16 13/15/15
f 6/19/19 5/18/18 13/15/15
f 1/52/14 6/19/19 13/15/15
s 1
f 32/14/20 33/17/21 39/20/22 40/21/23
f 35/22/24 36/24/25 43/25/26 44/28/27
f 36/24/25 37/30/28 42/32/29 43/25/26
f 37/30/28 38/33/30 41/34/31 42/32/29
f 38/33/30 32/14/20 40/21/23 41/34/31
f 29/35/32 30/36/33 1/37/34 2/38/35
f 27/39/36 28/40/37 3/41/38 4/42/39
f 26/43/40 27/39/36 4/42/39 5/45/41
f 31/46/42 26/43/40 5/45/41 6/47/43
f 1/37/34 30/36/33 31/46/42 6/47/43
f 21/12/12 20/4/4 7/48/44 12/49/45
f 22/10/10 21/12/12 12/49/45 11/51/46
f 23/7/7 22/10/10 11/51/46 10/53/47
f 24/8/8 23/7/7 10/53/47 9/54/48
f 20/4/4 25/3/3 8/56/49 7/48/44
f 27/39/36 26/43/40 18/9/9 17/6/6
f 28/40/37 27/39/36 17/6/6 16/5/5
f 30/36/33 29/35/32 15/2/2 14/1/1
f 31/46/42 30/36/33 14/1/1 19/11/11
f 26/43/40 31/46/42 19/11/11 18/9/9
f 7/48/44 8/56/49 33/17/21 32/14/20
f 9/54/48 10/53/47 36/24/25 35/22/24
f 10/53/47 11/51/46 37/30/28 36/24/25
f 11/51/46 12/49/45 38/33/30 37/30/28
f 38/33/30 12/49/45 7/48/44 32/14/20
s 7
f 40/23/50 39/50/51 34/44/52
f 41/31/53 40/23/50 34/44/52
f 42/29/54 41/31/53 34/44/52
f 43/26/55 42/29/54 34/44/52
f 44/27/56 43/26/55 34/44/52
s 1
f 53/57/57 16/58/5 24/59/8 57/60/58
f 15/61/2 54/62/59 60/63/60 25/64/3
f 54/62/59 55/65/61 59/66/62 60/63/60
f 55/65/61 56/67/63 58/68/64 59/66/62
f 56/67/63 53/57/57 57/60/58 58/68/64
s 3
f 3/69/17 45/70/65 13/71/15
f 46/72/66 2/73/13 13/71/15
f 47/74/67 46/72/66 13/71/15
f 48/75/68 47/74/67 13/71/15
f 45/70/65 48/75/68 13/71/15
s 1
f 65/76/69 35/77/24 44/78/27 69/79/70
f 33/80/21 66/81/71 72/82/72 39/83/22
f 66/81/71 67/84/73 71/85/74 72/82/72
f 67/84/73 68/86/75 70/87/76 71/85/74
f 68/86/75 65/76/69 69/79/70 70/87/76
f 28/88/37 63/89/77 45/90/78 3/91/38
f 62/92/79 29/93/32 2/94/35 46/95/80
f 61/96/81 62/92/79 46/95/80 47/97/82
f 64/98/83 61/96/81 47/97/82 48/99/84
f 45/90/78 63/89/77 64/98/83 48/99/84
f 58/68/64 57/60/58 49/100/85 52/101/86
f 59/66/62 58/68/64 52/101/86 51/102/87
f 60/63/60 59/66/62 51/102/87 50/103/88
f 25/64/3 60/63/60 50/103/88 8/104/49
f 57/60/58 24/59/8 9/105/48 49/100/85
f 62/92/79 61/96/81 55/65/61 54/62/59
f 29/93/32 62/92/79 54/62/59 15/61/2
f 63/89/77 28/88/37 16/58/5 53/57/57
f 64/98/83 63/89/77 53/57/57 56/67/63
f 61/96/81 64/98/83 56/67/63 55/65/61
f 49/100/85 9/105/48 35/77/24 65/76/69
f 8/104/49 50/103/88 66/81/71 33/80/21
f 50/103/88 51/102/87 67/84/73 66/81/71
f 51/102/87 52/101/86 68/86/75 67/84/73
f 68/86/75 52/101/86 49/100/85 65/76/69
s 7
f 69/106/89 44/107/56 34/108/52
f 70/109/90 69/106/89 34/108/52
f 71/110/91 70/109/90 34/108/52
f 72/111/92 71/110/91 34/108/52
f 39/112/51 72/111/92 34/108/52
