# This file uses centimeters as units for non-parametric coordinates.

v -0.315268 1.000000 0.070555
v -0.246096 1.000000 0.070555
v -0.246092 -1.000000 0.070557
v -0.315264 1.000000 0.000002
v -0.246092 0.999999 0.000002
v -0.246094 -1.000000 0.000002
v -0.315268 -1.000000 -0.000000
v -0.315266 -1.000000 0.070555
v 0.246094 1.000000 0.070555
v 0.315266 1.000000 0.070555
v 0.315269 -1.000000 0.070557
v 0.246098 1.000000 0.000002
v 0.315269 0.999999 0.000002
v 0.315268 -1.000000 0.000002
v 0.246094 -1.000000 -0.000000
v 0.246096 -1.000000 0.070555
v 0.249908 -0.778837 0.058636
v 0.249908 -0.827229 0.058636
v -0.250000 -0.827234 0.058643
v -0.250000 -0.778841 0.058643
v 0.249903 -0.778839 0.011913
v 0.249903 -0.827232 0.011917
v -0.249994 -0.827231 0.011917
v -0.249994 -0.778837 0.011913
v 0.249908 -0.377320 0.058636
v 0.249908 -0.425712 0.058636
v -0.250000 -0.425717 0.058643
v -0.250000 -0.377324 0.058643
v 0.249903 -0.377322 0.011913
v 0.249903 -0.425715 0.011917
v -0.249994 -0.425713 0.011917
v -0.249994 -0.377320 0.011913
v 0.249908 0.024198 0.058636
v 0.249908 -0.024194 0.058636
v -0.250000 -0.024199 0.058643
v -0.250000 0.024194 0.058643
v 0.249903 0.024196 0.011913
v 0.249903 -0.024197 0.011917
v -0.249994 -0.024196 0.011917
v -0.249994 0.024198 0.011913
v 0.249908 0.425715 0.058636
v 0.249908 0.377323 0.058636
v -0.250000 0.377318 0.058643
v -0.250000 0.425711 0.058643
v 0.249903 0.425713 0.011913
v 0.249903 0.377320 0.011917
v -0.249994 0.377321 0.011917
v -0.249994 0.425715 0.011913
v 0.249908 0.827232 0.058636
v 0.249908 0.778841 0.058636
v -0.250000 0.778836 0.058643
v -0.250000 0.827229 0.058643
v 0.249903 0.827231 0.011913
v 0.249903 0.778838 0.011917
v -0.249994 0.778839 0.011917
v -0.249994 0.827232 0.011913
vt 0.558717 0.396660
vt 0.558717 0.384691
vt 0.571327 0.384691
vt 0.571327 0.396660
vt 0.571326 0.375116
vt 0.981382 0.375115
vt 0.981382 0.384691
vt 0.981382 0.396660
vt 0.571326 0.396659
vt 0.981382 0.396660
vt 0.981382 0.384691
vt 0.571327 0.384691
vt 0.981382 0.375115
vt 0.571327 0.375115
vt 0.571326 0.375116
vt 0.981382 0.375115
vt 0.981382 0.384691
vt 0.571327 0.384691
vt 0.981382 0.396660
vt 0.571327 0.396660
vt 0.558717 0.396660
vt 0.558717 0.384691
vt 0.571326 0.396659
vt 0.981382 0.396660
vt 0.981382 0.384691
vt 0.571327 0.384691
vt 0.981382 0.375115
vt 0.571327 0.375115
vt 0.569172 0.424944
vt 0.705957 0.424944
vt 0.705957 0.414528
vt 0.569172 0.414528
vt 0.705957 0.404071
vt 0.569172 0.404071
vt 0.569172 0.414528
vt 0.705957 0.414528
vt 0.569172 0.424944
vt 0.705957 0.424944
vt 0.705957 0.414528
vt 0.569172 0.414528
vt 0.705957 0.404071
vt 0.569172 0.404071
vt 0.569172 0.414528
vt 0.705957 0.414528
vt 0.569172 0.424944
vt 0.705957 0.424944
vt 0.705957 0.414528
vt 0.569172 0.414528
vt 0.705957 0.404071
vt 0.569172 0.404071
vt 0.569172 0.414528
vt 0.705957 0.414528
vt 0.569172 0.424944
vt 0.705957 0.424944
vt 0.705957 0.414528
vt 0.569172 0.414528
vt 0.705957 0.404071
vt 0.569172 0.404071
vt 0.569172 0.414528
vt 0.705957 0.414528
vt 0.569172 0.424944
vt 0.705957 0.424944
vt 0.705957 0.414528
vt 0.569172 0.414528
vt 0.705957 0.404071
vt 0.569172 0.404071
vt 0.569172 0.414528
vt 0.705957 0.414528
vn 1.000000 0.000000 0.000014
vn 1.000000 0.000000 0.000014
vn 1.000000 0.000000 0.000014
vn 1.000000 0.000000 0.000014
vn 0.000014 0.000000 -1.000000
vn 0.000014 0.000000 -1.000000
vn 0.000014 0.000000 -1.000000
vn 0.000014 0.000000 -1.000000
vn 0.000007 1.000000 -0.000006
vn 0.000007 1.000000 -0.000006
vn 0.000007 1.000000 -0.000006
vn 0.000007 1.000000 -0.000006
vn -1.000000 0.000000 -0.000014
vn -1.000000 0.000000 -0.000014
vn -1.000000 0.000000 -0.000014
vn -1.000000 0.000000 -0.000014
vn -0.000014 0.000000 1.000000
vn -0.000014 0.000000 1.000000
vn -0.000014 0.000000 1.000000
vn -0.000014 0.000000 1.000000
vn 1.000000 0.000000 0.000014
vn 1.000000 0.000000 0.000014
vn 1.000000 0.000000 0.000014
vn 1.000000 0.000000 0.000014
vn 0.000014 0.000000 -1.000000
vn 0.000014 0.000000 -1.000000
vn 0.000014 0.000000 -1.000000
vn 0.000014 0.000000 -1.000000
vn 0.000007 1.000000 -0.000006
vn 0.000007 1.000000 -0.000006
vn 0.000007 1.000000 -0.000006
vn 0.000007 1.000000 -0.000006
vn -1.000000 0.000000 -0.000014
vn -1.000000 0.000000 -0.000014
vn -1.000000 0.000000 -0.000014
vn -1.000000 0.000000 -0.000014
vn -0.000014 0.000000 1.000000
vn -0.000014 0.000000 1.000000
vn -0.000014 0.000000 1.000000
vn -0.000014 0.000000 1.000000
vn 0.000015 -0.000000 1.000000
vn 0.000015 -0.000000 1.000000
vn 0.000015 -0.000000 1.000000
vn 0.000015 -0.000000 1.000000
vn 0.000003 -1.000000 0.000001
vn 0.000003 -1.000000 0.000001
vn 0.000003 -1.000000 0.000001
vn 0.000003 -1.000000 0.000001
vn -0.000002 1.000000 0.000016
vn -0.000002 1.000000 0.000016
vn -0.000002 1.000000 0.000016
vn -0.000002 1.000000 0.000016
vn -0.000000 -0.000079 -1.000000
vn -0.000000 -0.000079 -1.000000
vn -0.000000 -0.000079 -1.000000
vn -0.000000 -0.000079 -1.000000
vn 0.000015 -0.000000 1.000000
vn 0.000015 -0.000000 1.000000
vn 0.000015 -0.000000 1.000000
vn 0.000015 -0.000000 1.000000
vn 0.000003 -1.000000 0.000001
vn 0.000003 -1.000000 0.000001
vn 0.000003 -1.000000 0.000001
vn 0.000003 -1.000000 0.000001
vn -0.000002 1.000000 0.000017
vn -0.000002 1.000000 0.000017
vn -0.000002 1.000000 0.000017
vn -0.000002 1.000000 0.000017
vn -0.000000 -0.000079 -1.000000
vn -0.000000 -0.000079 -1.000000
vn -0.000000 -0.000079 -1.000000
vn -0.000000 -0.000079 -1.000000
vn 0.000015 -0.000000 1.000000
vn 0.000015 -0.000000 1.000000
vn 0.000015 -0.000000 1.000000
vn 0.000015 -0.000000 1.000000
vn 0.000003 -1.000000 0.000002
vn 0.000003 -1.000000 0.000002
vn 0.000003 -1.000000 0.000002
vn 0.000003 -1.000000 0.000002
vn -0.000002 1.000000 0.000018
vn -0.000002 1.000000 0.000018
vn -0.000002 1.000000 0.000018
vn -0.000002 1.000000 0.000018
vn -0.000000 -0.000079 -1.000000
vn -0.000000 -0.000079 -1.000000
vn -0.000000 -0.000079 -1.000000
vn -0.000000 -0.000079 -1.000000
vn 0.000015 -0.000000 1.000000
vn 0.000015 -0.000000 1.000000
vn 0.000015 -0.000000 1.000000
vn 0.000015 -0.000000 1.000000
vn 0.000003 -1.000000 0.000001
vn 0.000003 -1.000000 0.000001
vn 0.000003 -1.000000 0.000001
vn 0.000003 -1.000000 0.000001
vn -0.000002 1.000000 0.000016
vn -0.000002 1.000000 0.000016
vn -0.000002 1.000000 0.000016
vn -0.000002 1.000000 0.000016
vn -0.000000 -0.000079 -1.000000
vn -0.000000 -0.000079 -1.000000
vn -0.000000 -0.000079 -1.000000
vn -0.000000 -0.000079 -1.000000
vn 0.000015 -0.000000 1.000000
vn 0.000015 -0.000000 1.000000
vn 0.000015 -0.000000 1.000000
vn 0.000015 -0.000000 1.000000
vn 0.000003 -1.000000 0.000001
vn 0.000003 -1.000000 0.000001
vn 0.000003 -1.000000 0.000001
vn 0.000003 -1.000000 0.000001
vn -0.000002 1.000000 0.000016
vn -0.000002 1.000000 0.000016
vn -0.000002 1.000000 0.000016
vn -0.000002 1.000000 0.000016
vn -0.000000 -0.000079 -1.000000
vn -0.000000 -0.000079 -1.000000
vn -0.000000 -0.000079 -1.000000
vn -0.000000 -0.000079 -1.000000
s off
f 2/5/1 3/6/2 6/7/3 5/3/4
f 7/8/5 4/4/6 5/3/7 6/7/8
f 4/4/9 1/1/10 2/2/11 5/3/12
f 4/9/13 7/10/14 8/11/15 1/12/16
f 3/13/17 2/14/18 1/12/19 8/11/20
f 10/15/21 11/16/22 14/17/23 13/18/24
f 15/19/25 12/20/26 13/18/27 14/17/28
f 12/20/29 9/21/30 10/22/31 13/18/32
f 12/23/33 15/24/34 16/25/35 9/26/36
f 11/27/37 10/28/38 9/26/39 16/25/40
f 17/29/41 20/30/42 19/31/43 18/32/44
f 18/32/45 19/31/46 23/33/47 22/34/48
f 20/30/49 17/29/50 21/35/51 24/36/52
f 24/36/53 21/35/54 22/34/55 23/33/56
f 25/37/57 28/38/58 27/39/59 26/40/60
f 26/40/61 27/39/62 31/41/63 30/42/64
f 28/38/65 25/37/66 29/43/67 32/44/68
f 32/44/69 29/43/70 30/42/71 31/41/72
f 33/45/73 36/46/74 35/47/75 34/48/76
f 34/48/77 35/47/78 39/49/79 38/50/80
f 36/46/81 33/45/82 37/51/83 40/52/84
f 40/52/85 37/51/86 38/50/87 39/49/88
f 41/53/89 44/54/90 43/55/91 42/56/92
f 42/56/93 43/55/94 47/57/95 46/58/96
f 44/54/97 41/53/98 45/59/99 48/60/100
f 48/60/101 45/59/102 46/58/103 47/57/104
f 49/61/105 52/62/106 51/63/107 50/64/108
f 50/64/109 51/63/110 55/65/111 54/66/112
f 52/62/113 49/61/114 53/67/115 56/68/116
f 56/68/117 53/67/118 54/66/119 55/65/120
