# This file uses centimeters as units for non-parametric coordinates.

v -0.061831 -0.002929 -0.061832
v -0.087442 -0.002929 -0.000000
v 0.087444 -0.002929 0.000000
v 0.061832 -0.002929 -0.061832
v 0.000002 -0.002929 -0.087443
v -0.020214 0.113898 -0.020214
v -0.028587 0.113898 0.000000
v 0.028587 0.113898 0.000000
v 0.020214 0.113898 -0.020214
v 0.000000 0.113898 -0.028587
v -0.068241 0.029947 -0.068243
v -0.096510 0.029947 -0.000000
v 0.096510 0.029947 0.000000
v 0.068241 0.029947 -0.068243
v 0.000002 0.029947 -0.096509
v -0.020214 0.225630 -0.020214
v -0.028587 0.225630 0.000000
v 0.028587 0.225630 0.000000
v 0.020214 0.225630 -0.020214
v 0.000000 0.225630 -0.028587
v -0.061831 -0.002929 0.061833
v 0.061832 -0.002929 0.061833
v 0.000002 -0.002929 0.087444
v -0.020214 0.113898 0.020215
v 0.020214 0.113898 0.020215
v 0.000000 0.113898 0.028588
v -0.068241 0.029947 0.068244
v 0.068241 0.029947 0.068244
v 0.000002 0.029947 0.096510
v -0.020214 0.225630 0.020215
v 0.020214 0.225630 0.020215
v 0.000000 0.225630 0.028588
v -0.051871 0.073935 -0.051872
v 0.000001 0.073935 -0.073358
v 0.051871 0.073935 -0.051872
v 0.073358 0.073935 -0.000000
v 0.051871 0.073935 0.051873
v 0.000001 0.073935 0.073359
v -0.051871 0.073935 0.051873
v -0.073358 0.073935 -0.000000
vt 0.770484 0.751207
vt 0.975619 0.415503
vt 0.796607 0.754994
vt 0.947006 0.443409
vt 0.770484 0.805949
vt 0.920877 0.415503
vt 0.932056 0.443409
vt 0.924665 0.443409
vt 0.939530 0.415503
vt 0.939531 0.443409
vt 0.958183 0.405893
vt 0.990715 0.477546
vt 0.903441 0.405893
vt 0.920877 0.405893
vt 0.939530 0.405893
vt 0.954396 0.481537
vt 0.904728 0.452644
vt 0.932056 0.481537
vt 0.915625 0.478783
vt 0.939531 0.481537
vt 0.915555 0.448130
vt 0.924665 0.481537
vt 0.900264 0.463492
vt 0.947006 0.481537
vt 0.904778 0.474319
vt 0.975619 0.405893
vt 0.990715 0.426143
vt 0.965013 0.451844
vt 0.972541 0.470018
vt 0.972541 0.433671
vt 0.958183 0.415503
vt 0.947006 0.443409
vt 0.796607 0.754994
vt 0.975619 0.415503
vt 0.770484 0.805949
vt 0.924665 0.443409
vt 0.932056 0.443409
vt 0.770484 0.788513
vt 0.939531 0.443409
vt 0.770484 0.769860
vt 0.958183 0.405893
vt 0.975619 0.405893
vt 0.903441 0.405893
vt 0.920877 0.405893
vt 0.939530 0.405893
vt 0.947006 0.481537
vt 0.954396 0.481537
vt 0.924665 0.481537
vt 0.932056 0.481537
vt 0.939531 0.481537
vt 0.900264 0.463492
vt 0.904778 0.474319
vt 0.915625 0.478783
vt 0.990715 0.426143
vt 0.972541 0.433671
vt 0.965013 0.451844
vt 0.972541 0.470018
vt 0.990715 0.477546
vt 0.915555 0.448130
vt 0.904728 0.452644
vt 0.939530 0.415503
vt 0.770484 0.751207
vt 0.920877 0.415503
vt 0.903441 0.415503
vt 0.903441 0.415503
vt 0.770484 0.733771
vt 0.770484 0.733771
vt 0.796607 0.769859
vt 0.796607 0.762384
vt 0.796607 0.777335
vt 0.796607 0.784725
vt 0.796607 0.784725
vt 0.954396 0.443409
vt 0.954396 0.443409
vt 0.770484 0.769860
vt 0.958183 0.415503
vt 0.770484 0.788513
vt 0.796607 0.769859
vt 0.796607 0.762384
vt 0.796607 0.777335
vt 0.783864 0.756775
vt 0.783873 0.769860
vt 0.783864 0.782944
vt 0.783234 0.795982
vt 0.783234 0.795982
vt 0.783864 0.782944
vt 0.783873 0.769860
vt 0.783864 0.756775
vt 0.783234 0.743737
vt 0.783234 0.743738
vn -0.556140 0.617576 -0.556155
vn -0.625724 0.465739 -0.625745
vn -0.884920 0.465744 -0.000003
vn -0.786508 0.617580 -0.000003
vn 0.786508 0.617580 -0.000003
vn 0.884920 0.465744 -0.000003
vn 0.625730 0.465741 -0.625738
vn 0.556144 0.617577 -0.556150
vn 0.000008 0.465741 -0.884921
vn 0.000005 0.617577 -0.786510
vn -0.681652 -0.265847 -0.681671
vn -0.681652 -0.265847 -0.681671
vn -0.964012 -0.265860 -0.000002
vn -0.964012 -0.265860 -0.000002
vn 0.964026 -0.265809 -0.000002
vn 0.964026 -0.265809 -0.000002
vn 0.681665 -0.265815 -0.681671
vn 0.681665 -0.265815 -0.681671
vn 0.000008 -0.265828 -0.964021
vn 0.000008 -0.265828 -0.964021
vn -0.707107 0.000000 -0.707107
vn -0.707107 0.000000 -0.707107
vn -1.000000 0.000000 -0.000008
vn -1.000000 0.000000 -0.000008
vn 1.000000 -0.000000 -0.000008
vn 1.000000 -0.000000 -0.000008
vn 0.707107 -0.000000 -0.707107
vn 0.707107 -0.000000 -0.707107
vn 0.000000 0.000000 -1.000000
vn 0.000000 0.000000 -1.000000
vn 0.000000 1.000000 0.000001
vn 0.000000 1.000000 0.000000
vn 0.000000 1.000000 0.000000
vn 0.000000 1.000000 0.000001
vn 0.000000 1.000000 0.000000
vn -0.000000 -1.000000 -0.000000
vn -0.000000 -1.000000 -0.000000
vn -0.000000 -1.000000 -0.000000
vn -0.000000 -1.000000 -0.000000
vn -0.000000 -1.000000 -0.000000
vn -0.625725 0.465740 0.625743
vn -0.556142 0.617576 0.556153
vn 0.625731 0.465741 0.625736
vn 0.556146 0.617577 0.556148
vn 0.000008 0.465741 0.884921
vn 0.000005 0.617577 0.786510
vn -0.681654 -0.265847 0.681669
vn -0.681654 -0.265847 0.681669
vn 0.681667 -0.265815 0.681669
vn 0.681667 -0.265815 0.681669
vn 0.000008 -0.265828 0.964021
vn 0.000008 -0.265828 0.964021
vn -0.707113 0.000000 0.707101
vn -0.707113 0.000000 0.707101
vn 0.707113 -0.000000 0.707101
vn 0.707113 -0.000000 0.707101
vn -0.000000 -0.000000 1.000000
vn -0.000000 -0.000000 1.000000
vn -0.000000 -1.000000 -0.000000
vn -0.000000 -1.000000 -0.000000
vn -0.000000 -1.000000 -0.000000
vn 0.000000 1.000000 -0.000001
vn 0.000000 1.000000 -0.000001
vn 0.000000 1.000000 0.000000
vn 0.000003 0.746031 -0.665912
vn -0.470867 0.746028 -0.470878
vn 0.470870 0.746029 -0.470874
vn 0.665911 0.746031 -0.000003
vn 0.470872 0.746030 0.470871
vn 0.000003 0.746031 0.665912
vn -0.470869 0.746029 0.470875
vn -0.665911 0.746031 -0.000003
s 1
f 33/81/1 11/1/2 12/66/3 40/89/4
f 36/85/5 13/5/6 14/77/7 35/83/8
f 35/83/8 14/77/7 15/75/9 34/82/10
f 34/82/10 15/75/9 11/1/2 33/81/1
s 3
f 11/76/11 1/11/12 2/26/13 12/2/14
f 13/64/15 3/13/16 4/14/17 14/6/18
f 14/6/18 4/14/17 5/15/19 15/9/20
f 15/9/20 5/15/19 1/11/12 11/76/11
s 5
f 16/24/21 6/4/22 7/73/23 17/16/24
f 18/22/25 8/8/26 9/7/27 19/18/28
f 19/18/28 9/7/27 10/10/29 20/20/30
f 20/20/30 10/10/29 6/4/22 16/24/21
s 7
f 16/17/31 17/21/32 18/19/33 19/25/34
f 19/25/34 20/23/35 16/17/31
s 8
f 4/30/36 3/27/37 2/12/38 1/29/39
f 1/29/39 5/28/40 4/30/36
s 1
f 12/67/3 27/62/41 39/88/42 40/90/4
f 28/38/43 13/35/6 36/84/5 37/86/44
f 29/40/45 28/38/43 37/86/44 38/87/46
f 27/62/41 29/40/45 38/87/46 39/88/42
s 3
f 2/42/13 21/41/47 27/31/48 12/34/14
f 22/44/49 3/43/16 13/65/15 28/63/50
f 23/45/51 22/44/49 28/63/50 29/61/52
f 21/41/47 23/45/51 29/61/52 27/31/48
s 5
f 7/74/23 24/32/53 30/46/54 17/47/24
f 25/37/55 8/36/26 18/48/25 31/49/56
f 26/39/57 25/37/55 31/49/56 32/50/58
f 24/32/53 26/39/57 32/50/58 30/46/54
s 8
f 2/58/38 3/54/37 22/55/59 23/56/60
f 23/56/60 21/57/61 2/58/38
s 7
f 31/52/62 18/53/33 17/59/32 30/60/63
f 30/60/63 32/51/64 31/52/62
s 1
f 10/78/65 34/82/10 33/81/1 6/79/66
f 9/80/67 35/83/8 34/82/10 10/78/65
f 8/71/68 36/85/5 35/83/8 9/80/67
f 25/70/69 37/86/44 36/84/5 8/72/68
f 26/68/70 38/87/46 37/86/44 25/70/69
f 24/69/71 39/88/42 38/87/46 26/68/70
f 7/33/72 40/90/4 39/88/42 24/69/71
f 6/79/66 33/81/1 40/89/4 7/3/72
