# This file uses centimeters as units for non-parametric coordinates.

v 1.047817 0.599904 -0.552550
v -1.047817 0.599904 -0.552550
v -1.047817 0.708178 -0.552550
v 1.047817 0.708178 -0.552550
v 1.047817 0.708178 -0.000001
v 1.047817 0.708178 0.552547
v 1.047817 0.599904 0.552547
v 1.047817 0.599904 -0.000001
v -1.047817 0.599904 -0.000001
v -1.047817 0.599904 0.552547
v -1.047817 0.708178 0.552547
v -1.047817 0.708178 -0.000001
v 0.935152 0.000000 -0.340186
v 0.935152 0.000000 -0.483937
v 0.913374 0.599904 -0.437518
v 0.913374 0.599904 -0.307555
v 0.802090 0.000000 -0.483937
v 0.802090 0.000000 -0.340186
v 0.783411 0.599904 -0.307555
v 0.783411 0.599904 -0.437518
v -0.906523 0.000000 0.316865
v -0.906523 0.000000 0.460616
v -0.884745 0.599904 0.414197
v -0.884745 0.599904 0.284234
v -0.773460 0.000000 0.460616
v -0.773460 0.000000 0.316865
v -0.754782 0.599904 0.284234
v -0.754782 0.599904 0.414197
v 0.935152 0.000000 0.316865
v 0.913374 0.599904 0.284234
v 0.913374 0.599904 0.414197
v 0.935152 0.000000 0.460616
v 0.802090 0.000000 0.460616
v 0.783411 0.599904 0.414197
v 0.783411 0.599904 0.284234
v 0.802090 0.000000 0.316865
v -0.906523 0.000000 -0.340186
v -0.884745 0.599904 -0.307555
v -0.884745 0.599904 -0.437518
v -0.906523 0.000000 -0.483937
v -0.773460 0.000000 -0.483937
v -0.754782 0.599904 -0.437518
v -0.754782 0.599904 -0.307555
v -0.773460 0.000000 -0.340186
vt 0.574197 0.219064
vt 0.973466 0.219064
vt 0.973466 0.240508
vt 0.574196 0.240509
vt 0.574197 0.240509
vt 0.574197 0.349345
vt 0.552308 0.349345
vt 0.552308 0.240509
vt 0.994909 0.240508
vt 0.994909 0.349345
vt 0.973467 0.349346
vt 0.973467 0.240508
vt 1.302413 1.436615
vt 1.302413 1.486514
vt 1.277464 1.486514
vt 1.277464 1.436615
vt 0.973467 0.371384
vt 0.573967 0.371384
vt 0.574196 0.349216
vt 0.552308 0.349216
vt 0.552308 0.240508
vt 0.973466 0.349216
vt 0.994910 0.240509
vt 0.994910 0.349216
vt 1.197845 1.414289
vt 1.197845 1.359146
vt 1.406982 1.359146
vt 1.406982 1.414289
vt 0.704854 0.430985
vt 0.704854 0.457820
vt 0.569384 0.457820
vt 0.569384 0.430985
vt 0.704854 0.483320
vt 0.704854 0.457820
vt 0.569384 0.457820
vt 0.569384 0.483320
vt 0.704854 0.430985
vt 0.704854 0.457820
vt 0.569384 0.457820
vt 0.569384 0.430985
vt 0.704854 0.483320
vt 0.704854 0.457820
vt 0.569384 0.457820
vt 0.569384 0.483320
vt 0.704854 0.430985
vt 0.569384 0.430985
vt 0.569384 0.457820
vt 0.704854 0.457820
vt 0.704854 0.483320
vt 0.569384 0.483320
vt 0.569384 0.457820
vt 0.704854 0.457820
vt 0.704854 0.430985
vt 0.569384 0.430985
vt 0.569384 0.457820
vt 0.704854 0.457820
vt 0.704854 0.483320
vt 0.569384 0.483320
vt 0.569384 0.457820
vt 0.704854 0.457820
vn 0.000000 0.000000 -1.000000
vn 0.000000 0.000000 -1.000000
vn 0.000000 0.000000 -1.000000
vn 0.000000 0.000000 -1.000000
vn 1.000000 -0.000000 0.000000
vn 1.000000 -0.000000 0.000000
vn 1.000000 -0.000000 0.000000
vn 1.000000 -0.000000 0.000000
vn -1.000000 0.000000 -0.000000
vn -1.000000 0.000000 -0.000000
vn -1.000000 0.000000 -0.000000
vn -1.000000 0.000000 -0.000000
vn -0.000000 -1.000000 0.000000
vn -0.000000 -1.000000 0.000000
vn -0.000000 -1.000000 0.000000
vn -0.000000 -1.000000 0.000000
vn -0.000000 -0.000000 1.000000
vn -0.000000 -0.000000 1.000000
vn -0.000000 -0.000000 1.000000
vn -0.000000 -0.000000 1.000000
vn 0.000000 1.000000 0.000000
vn 0.000000 1.000000 0.000000
vn 0.000000 1.000000 0.000000
vn 0.000000 1.000000 0.000000
vn 1.000000 -0.000000 0.000000
vn 1.000000 -0.000000 0.000000
vn 0.000000 1.000000 0.000000
vn 0.000000 1.000000 0.000000
vn -1.000000 0.000000 -0.000000
vn -1.000000 0.000000 -0.000000
vn -0.000000 -1.000000 -0.000000
vn -0.000000 -1.000000 -0.000000
vn 0.999342 0.036279 0.000000
vn 0.999342 0.036279 0.000000
vn 0.999342 0.036279 0.000000
vn 0.999342 0.036279 0.000000
vn -0.999516 -0.031121 -0.000000
vn -0.999516 -0.031121 -0.000000
vn -0.999516 -0.031121 -0.000000
vn -0.999516 -0.031121 -0.000000
vn -0.000000 -0.054313 0.998524
vn -0.000000 -0.054313 0.998524
vn -0.000000 -0.054313 0.998524
vn -0.000000 -0.054313 0.998524
vn 0.000000 0.077147 -0.997020
vn 0.000000 0.077147 -0.997020
vn 0.000000 0.077147 -0.997020
vn 0.000000 0.077147 -0.997020
vn -0.999342 0.036279 -0.000000
vn -0.999342 0.036279 -0.000000
vn -0.999342 0.036279 -0.000000
vn -0.999342 0.036279 -0.000000
vn 0.999516 -0.031121 0.000000
vn 0.999516 -0.031121 0.000000
vn 0.999516 -0.031121 0.000000
vn 0.999516 -0.031121 0.000000
vn -0.000000 -0.054313 -0.998524
vn -0.000000 -0.054313 -0.998524
vn -0.000000 -0.054313 -0.998524
vn -0.000000 -0.054313 -0.998524
vn 0.000000 0.077147 0.997020
vn 0.000000 0.077147 0.997020
vn 0.000000 0.077147 0.997020
vn 0.000000 0.077147 0.997020
vn 0.999342 0.036279 0.000000
vn 0.999342 0.036279 0.000000
vn 0.999342 0.036279 0.000000
vn 0.999342 0.036279 0.000000
vn -0.999516 -0.031121 -0.000000
vn -0.999516 -0.031121 -0.000000
vn -0.999516 -0.031121 -0.000000
vn -0.999516 -0.031121 -0.000000
vn -0.000000 -0.054313 -0.998524
vn -0.000000 -0.054313 -0.998524
vn -0.000000 -0.054313 -0.998524
vn -0.000000 -0.054313 -0.998524
vn 0.000000 0.077147 0.997020
vn 0.000000 0.077147 0.997020
vn 0.000000 0.077147 0.997020
vn 0.000000 0.077147 0.997020
vn -0.999342 0.036279 -0.000000
vn -0.999342 0.036279 -0.000000
vn -0.999342 0.036279 -0.000000
vn -0.999342 0.036279 -0.000000
vn 0.999516 -0.031121 0.000000
vn 0.999516 -0.031121 0.000000
vn 0.999516 -0.031121 0.000000
vn 0.999516 -0.031121 0.000000
vn -0.000000 -0.054313 0.998524
vn -0.000000 -0.054313 0.998524
vn -0.000000 -0.054313 0.998524
vn -0.000000 -0.054313 0.998524
vn 0.000000 0.077147 -0.997020
vn 0.000000 0.077147 -0.997020
vn 0.000000 0.077147 -0.997020
vn 0.000000 0.077147 -0.997020
s off
f 1/1/1 2/2/2 3/3/3 4/4/4
s 1
f 5/5/5 6/6/6 7/7/7 8/8/8
s 2
f 9/9/9 10/10/10 11/11/11 12/12/12
s 3
f 9/13/13 8/14/14 7/15/15 10/16/16
s off
f 10/17/17 7/18/18 6/6/19 11/11/20
s 4
f 5/5/21 12/12/22 11/11/23 6/6/24
s 1
f 4/4/25 5/19/5 8/20/8 1/21/26
s 4
f 12/22/22 5/19/21 4/4/27 3/3/28
s 2
f 2/23/29 9/24/9 12/22/12 3/3/30
s 3
f 1/25/31 8/26/14 9/27/13 2/28/32
s off
f 13/29/33 14/30/34 15/31/35 16/32/36
f 17/33/37 18/34/38 19/35/39 20/36/40
f 18/34/41 13/29/42 16/32/43 19/35/44
f 14/30/45 17/33/46 20/36/47 15/31/48
f 21/37/49 22/38/50 23/39/51 24/40/52
f 25/41/53 26/42/54 27/43/55 28/44/56
f 26/42/57 21/37/58 24/40/59 27/43/60
f 22/38/61 25/41/62 28/44/63 23/39/64
f 29/45/65 30/46/66 31/47/67 32/48/68
f 33/49/69 34/50/70 35/51/71 36/52/72
f 36/52/73 35/51/74 30/46/75 29/45/76
f 32/48/77 31/47/78 34/50/79 33/49/80
f 37/53/81 38/54/82 39/55/83 40/56/84
f 41/57/85 42/58/86 43/59/87 44/60/88
f 44/60/89 43/59/90 38/54/91 37/53/92
f 40/56/93 39/55/94 42/58/95 41/57/96
