# This file uses centimeters as units for non-parametric coordinates.

v -0.444330 0.122330 -0.047088
v -0.444332 0.122326 -0.628958
v 0.444330 0.122326 -0.628958
v 0.444332 0.122330 -0.047088
v -0.444332 0.311886 -0.338024
v 0.444330 0.311886 -0.338024
v -0.444332 0.261434 -0.509521
v 0.444330 0.261434 -0.509521
v -0.444331 0.261435 -0.166522
v 0.444331 0.261435 -0.166522
v -0.342066 0.141478 -0.660395
v -0.342062 0.141482 -0.015651
v -0.342063 0.295619 -0.147991
v -0.342064 0.351520 -0.338023
v -0.342065 0.295616 -0.528053
v 0.342065 0.141482 -0.015651
v 0.342062 0.141478 -0.660395
v 0.342062 0.295616 -0.528053
v 0.342064 0.351520 -0.338023
v 0.342064 0.295619 -0.147991
v -0.444330 0.001018 -0.047087
v -0.444332 0.001015 -0.628958
v -0.342066 0.001015 -0.660395
v 0.342062 0.001015 -0.660395
v 0.444330 0.001015 -0.628958
v 0.444332 0.001018 -0.047087
v 0.342065 0.001018 -0.015651
v -0.342062 0.001018 -0.015651
v -0.377430 0.001017 -0.092888
v -0.377432 0.001015 -0.583157
v 0.377430 0.001015 -0.583157
v 0.377432 0.001017 -0.092888
v 0.328481 0.160996 -0.162846
v -0.328479 0.160996 -0.162846
v -0.328481 0.160994 -0.515995
v 0.328479 0.160994 -0.515995
v -0.298193 0.230807 -0.339827
v 0.298193 0.230807 -0.339827
vt 0.732455 0.658656
vt 0.732455 0.618567
vt 0.755553 0.618567
vt 0.755553 0.658656
vt 0.955415 0.993583
vt 0.986016 0.967309
vt 0.732455 0.697330
vt 0.755553 0.697330
vt 0.997115 0.929580
vt 0.986016 0.891852
vt 0.755553 0.736481
vt 0.732455 0.736481
vt 0.955415 0.865579
vt 0.755553 0.775563
vt 0.732455 0.775563
vt 0.928728 0.865579
vt 0.928728 0.993583
vt 0.572953 0.736481
vt 0.596051 0.736481
vt 0.955415 0.865579
vt 0.986016 0.891852
vt 0.596051 0.775563
vt 0.572953 0.775563
vt 0.997115 0.929580
vt 0.572953 0.697330
vt 0.596051 0.697330
vt 0.572953 0.658656
vt 0.596051 0.658656
vt 0.572953 0.618567
vt 0.596051 0.618567
vt 0.732455 0.590902
vt 0.755553 0.590902
vt 0.596051 0.590902
vt 0.572953 0.590902
vt 0.596051 0.803308
vt 0.572953 0.803308
vt 0.732455 0.803308
vt 0.755553 0.803308
vt 0.986016 0.967309
vt 0.955415 0.993583
vt 0.928728 0.993583
vt 0.928728 0.865579
vt 0.842354 0.760929
vt 0.944761 0.759847
vt 0.936381 0.790581
vt 0.850673 0.790580
vt 0.961620 0.726772
vt 0.981760 0.732964
vt 0.967828 0.744253
vt 0.981761 0.847559
vt 0.967828 0.837781
vt 0.961620 0.853750
vt 0.826886 0.853750
vt 0.820678 0.837781
vt 0.806746 0.847559
vt 0.806746 0.732964
vt 0.820678 0.744253
vt 0.826886 0.726772
vt 0.944745 0.821169
vt 0.842387 0.820086
vn -0.180627 0.825869 -0.534149
vn -0.169464 0.341124 -0.924617
vn -0.332975 0.325179 -0.885091
vn -0.354447 0.784959 -0.508141
vn -0.184294 0.982871 -0.000007
vn -0.361363 0.932425 -0.000006
vn -0.354449 0.784959 0.508140
vn -0.180628 0.825870 0.534146
vn -0.332971 0.325179 0.885093
vn -0.169462 0.341124 0.924617
vn 0.354452 0.784959 0.508137
vn 0.180630 0.825871 0.534145
vn 0.169464 0.341125 0.924617
vn 0.332974 0.325180 0.885091
vn 0.361366 0.932424 -0.000009
vn 0.184296 0.982871 -0.000008
vn 0.354446 0.784958 -0.508143
vn 0.180627 0.825868 -0.534150
vn 0.332970 0.325179 -0.885093
vn 0.169462 0.341124 -0.924618
vn -1.000000 -0.000002 0.000003
vn -1.000000 -0.000002 0.000003
vn -1.000000 -0.000002 0.000003
vn -1.000000 -0.000002 0.000003
vn -1.000000 -0.000002 0.000003
vn -1.000000 -0.000002 0.000003
vn -1.000000 -0.000002 0.000003
vn -0.148564 -0.000004 -0.988903
vn -0.293831 -0.000005 -0.955857
vn 0.148562 -0.000004 -0.988903
vn 0.293826 -0.000005 -0.955859
vn 1.000000 0.000002 -0.000003
vn 1.000000 0.000002 -0.000003
vn 1.000000 0.000002 -0.000003
vn 1.000000 0.000002 -0.000003
vn 1.000000 0.000002 -0.000003
vn 1.000000 0.000002 -0.000003
vn 1.000000 0.000002 -0.000003
vn 0.148564 0.000003 0.988903
vn 0.293831 0.000003 0.955857
vn -0.148563 0.000003 0.988903
vn -0.293829 0.000003 0.955858
vn -0.000000 -0.618589 -0.785715
vn -0.000000 -0.719900 -0.694077
vn -0.000000 -1.000000 0.000791
vn -0.000000 -1.000000 0.000791
vn -0.000000 -1.000000 0.000009
vn -0.000000 -1.000000 0.000007
vn -0.000000 -1.000000 0.000008
vn 0.000000 -1.000000 0.000007
vn 0.000000 -1.000000 0.000008
vn 0.000000 -1.000000 0.000009
vn -0.000000 -1.000000 0.000009
vn -0.000000 -1.000000 0.000008
vn -0.000000 -1.000000 0.000007
vn 0.000000 -1.000000 0.000007
vn 0.000000 -1.000000 0.000008
vn 0.000000 -1.000000 0.000009
vn 0.000000 -0.400662 -0.916226
vn 0.950828 -0.309720 -0.000003
vn 0.950828 -0.309720 -0.000003
vn 0.950828 -0.309720 -0.000003
vn 0.950828 -0.309720 -0.000003
vn 0.950828 -0.309720 -0.000003
vn 0.000000 -0.387090 0.922042
vn 0.000000 -0.610143 0.792291
vn 0.000000 -0.714203 0.699939
vn 0.000000 -0.387090 0.922042
vn -0.950828 -0.309720 0.000006
vn -0.950828 -0.309720 0.000006
vn -0.950828 -0.309720 0.000006
vn -0.950828 -0.309720 0.000006
vn -0.950828 -0.309720 0.000006
vn 0.000000 -0.400662 -0.916226
s 1
f 15/1/1 11/2/2 2/3/3 7/4/4
f 14/7/5 5/8/6 9/11/7 13/12/8
f 15/1/1 7/4/4 5/8/6 14/7/5
f 13/12/8 9/11/7 1/14/9 12/15/10
f 10/18/11 20/19/12 16/22/13 4/23/14
f 6/25/15 19/26/16 20/19/12 10/18/11
f 8/27/17 18/28/18 19/26/16 6/25/15
f 3/29/19 17/30/20 18/28/18 8/27/17
f 20/19/12 13/12/8 12/15/10 16/22/13
f 19/26/16 14/7/5 13/12/8 20/19/12
f 18/28/18 15/1/1 14/7/5 19/26/16
f 11/2/2 15/1/1 18/28/18 17/30/20
s off
f 1/5/21 9/6/22 5/9/23 7/10/24 2/13/25 22/16/26 21/17/27
s 1
f 2/3/3 11/2/2 23/31/28 22/32/29
f 23/31/28 11/2/2 17/30/20 24/33/30
f 17/30/20 3/29/19 25/34/31 24/33/30
s off
f 3/20/32 8/21/33 6/24/34 10/39/35 4/40/36 26/41/37 25/42/38
s 1
f 4/23/14 16/22/13 27/35/39 26/36/40
f 16/22/13 12/15/10 28/37/41 27/35/39
f 12/15/10 1/14/9 21/38/42 28/37/41
s 3
f 33/43/43 34/44/44 37/45/45 38/46/46
s 4
f 28/47/47 21/48/48 29/49/49
f 21/48/48 22/50/50 30/51/51 29/49/49
f 22/50/50 23/52/52 30/51/51
f 30/51/51 23/52/52 24/53/53 31/54/54
f 24/53/53 25/55/55 31/54/54
f 25/55/55 26/56/56 32/57/57 31/54/54
f 26/56/56 27/58/58 32/57/57
f 32/57/57 27/58/58 28/47/47 29/49/49
s 3
f 29/49/59 34/44/44 33/43/43
s off
f 29/49/60 30/51/61 35/59/62 37/45/63 34/44/64
s 3
f 30/51/65 36/60/66 35/59/67
f 36/60/66 30/51/65 31/54/68
s off
f 31/54/69 32/57/70 33/43/71 38/46/72 36/60/73
s 3
f 33/43/43 32/57/74 29/49/59
f 38/46/46 37/45/45 35/59/67 36/60/66
