# This file uses centimeters as units for non-parametric coordinates.

v -0.109715 0.330397 -0.393169
v 0.109708 0.330397 -0.393169
v -0.109715 0.516975 -0.393169
v 0.109708 0.516975 -0.393169
v -0.122671 0.321396 -0.312202
v 0.122664 0.321396 -0.312202
v 0.122664 0.530008 -0.312202
v -0.122671 0.530008 -0.312202
v -0.061870 0.285938 -0.393169
v -0.069176 0.273913 -0.312202
v 0.061863 0.285938 -0.393169
v 0.069168 0.273913 -0.312202
v -0.444330 -0.002129 0.298691
v -0.444332 -0.002129 -0.283180
v 0.444330 -0.002129 -0.283180
v 0.444332 -0.002129 0.298691
v -0.342066 -0.002129 -0.314617
v -0.342062 -0.002129 0.330128
v 0.342065 -0.002129 0.330128
v 0.342062 -0.002129 -0.314617
v -0.444330 0.440425 0.298691
v -0.444332 0.440425 -0.283180
v -0.342066 0.440425 -0.314617
v 0.342062 0.440425 -0.314617
v 0.444330 0.440425 -0.283180
v 0.444332 0.440425 0.298691
v 0.342065 0.440425 0.330128
v -0.342062 0.440425 0.330128
v 0.378385 0.440425 0.255510
v -0.378383 0.440425 0.255510
v 0.378383 0.440425 -0.240000
v -0.378385 0.440425 -0.240000
v 0.378385 0.056993 0.255510
v -0.378383 0.056993 0.255510
v 0.378383 0.056993 -0.240000
v -0.378385 0.056993 -0.240000
v -0.339799 0.484896 0.361456
v -0.339799 0.441885 0.393167
v -0.339799 0.398434 0.362061
v -0.339799 0.414593 0.311123
v -0.339799 0.468029 0.310751
v -0.122690 0.484896 0.361456
v -0.122690 0.441885 0.393167
v -0.122690 0.398434 0.362061
v -0.122690 0.414593 0.311123
v -0.122690 0.468029 0.310751
v 0.121628 0.484896 0.361456
v 0.121628 0.441885 0.393167
v 0.121628 0.398434 0.362061
v 0.121628 0.414593 0.311123
v 0.121628 0.468029 0.310751
v 0.338737 0.484896 0.361456
v 0.338737 0.441885 0.393167
v 0.338737 0.398434 0.362061
v 0.338737 0.414593 0.311123
v 0.338737 0.468029 0.310751
v 0.378380 0.318390 0.255508
v -0.378380 0.317222 0.255508
v 0.378372 0.329242 -0.239998
v -0.378387 0.276662 -0.239998
v -0.001923 0.390514 0.255508
v -0.001930 0.370784 -0.239998
v 0.378380 0.395432 0.008026
v 0.014992 0.509229 -0.002407
v -0.378380 0.405369 0.007717
v 0.190506 0.316563 0.255508
v 0.170753 0.442328 0.004749
v 0.190506 0.297193 -0.239998
v -0.167969 0.378831 -0.239998
v -0.190514 0.496883 0.000374
v -0.167953 0.377943 0.255508
v -0.378380 0.389646 0.125908
v -0.167961 0.451161 0.162304
v -0.011230 0.477266 0.149036
v 0.158775 0.426825 0.123653
v 0.378380 0.339504 0.144764
v -0.378380 0.331721 -0.114414
v -0.167976 0.455614 -0.122402
v -0.003517 0.475783 -0.139996
v 0.230087 0.365891 -0.118172
v 0.378380 0.381640 -0.133270
vt 0.855189 0.933420
vt 0.865924 0.923443
vt 0.893691 0.923443
vt 0.904428 0.933420
vt 0.904428 0.975290
vt 0.855189 0.975290
vt 0.901771 0.908823
vt 0.918757 0.923899
vt 0.840859 0.990138
vt 0.840859 0.923899
vt 0.918757 0.990138
vt 0.739783 0.850704
vt 0.739783 0.868838
vt 0.744433 0.872966
vt 0.756458 0.872966
vt 0.761108 0.868838
vt 0.761108 0.850704
vt 0.857846 0.908823
vt 0.572133 0.578143
vt 0.688600 0.578143
vt 0.688600 0.489794
vt 0.572133 0.489794
vt 0.866282 0.578317
vt 0.845826 0.578317
vt 0.845826 0.489794
vt 0.866282 0.489794
vt 0.688600 0.578317
vt 0.572133 0.578317
vt 0.572133 0.489794
vt 0.688600 0.489794
vt 0.708981 0.578472
vt 0.688600 0.578472
vt 0.688600 0.489425
vt 0.708981 0.489425
vt 0.589522 0.910402
vt 0.572301 0.910402
vt 0.572301 0.812820
vt 0.589522 0.812820
vt 0.708981 0.578317
vt 0.708981 0.489794
vt 0.721895 0.910402
vt 0.705027 0.910402
vt 0.705027 0.812820
vt 0.721895 0.812820
vt 0.866282 0.578472
vt 0.845826 0.578472
vt 0.845826 0.489425
vt 0.866282 0.489425
vt 0.721895 0.910402
vt 0.572301 0.910402
vt 0.572301 0.812820
vt 0.721895 0.812820
vt 0.961416 0.853455
vt 0.825570 0.853455
vt 0.819902 0.838760
vt 0.968198 0.838760
vt 0.806914 0.847265
vt 0.806915 0.734156
vt 0.819903 0.742660
vt 0.827055 0.727223
vt 0.961417 0.727223
vt 0.968198 0.742660
vt 0.980816 0.736013
vt 0.980816 0.847264
vt 0.721895 0.985912
vt 0.572301 0.985912
vt 0.721895 0.985912
vt 0.819481 0.985912
vt 0.819481 0.910402
vt 0.721895 0.910402
vt 0.722186 0.985825
vt 0.572301 0.985825
vt 0.572301 0.910402
vt 0.721895 0.910402
vt 0.819481 0.985912
vt 0.721895 0.985912
vt 0.721895 0.910402
vt 0.819481 0.910402
vt 0.738295 0.854076
vt 0.738296 0.867737
vt 0.792405 0.867738
vt 0.792404 0.854075
vt 0.738295 0.881399
vt 0.792405 0.881399
vt 0.738296 0.895061
vt 0.792405 0.895061
vt 0.738297 0.826753
vt 0.738296 0.840416
vt 0.792404 0.840415
vt 0.792405 0.826754
vt 0.786437 0.871986
vt 0.786536 0.861391
vt 0.776491 0.858023
vt 0.776332 0.875166
vt 0.770182 0.866537
vt 0.776332 0.875166
vt 0.770182 0.866537
vt 0.786437 0.871986
vt 0.776491 0.858023
vt 0.786536 0.861391
vt 0.738295 0.854076
vt 0.738296 0.867737
vt 0.792405 0.867738
vt 0.792404 0.854075
vt 0.738295 0.881399
vt 0.792405 0.881399
vt 0.738296 0.895061
vt 0.792405 0.895061
vt 0.738297 0.826753
vt 0.738296 0.840416
vt 0.792404 0.840415
vt 0.792405 0.826754
vt 0.786437 0.871986
vt 0.786536 0.861391
vt 0.776491 0.858023
vt 0.776332 0.875166
vt 0.770182 0.866537
vt 0.776332 0.875166
vt 0.770182 0.866537
vt 0.786437 0.871986
vt 0.776491 0.858023
vt 0.786536 0.861391
vt 0.818855 0.690731
vt 0.855997 0.687587
vt 0.862210 0.651699
vt 0.813510 0.652358
vt 0.899121 0.653395
vt 0.896283 0.681572
vt 0.903803 0.595396
vt 0.858200 0.595396
vt 0.857825 0.619094
vt 0.913184 0.624265
vt 0.818853 0.595396
vt 0.818853 0.623263
vt 0.948325 0.654171
vt 0.948325 0.686574
vt 0.948322 0.595396
vt 0.948325 0.620688
vt 0.768988 0.595396
vt 0.768991 0.625156
vt 0.768991 0.682106
vt 0.768991 0.654098
vt 0.768991 0.712818
vt 0.818858 0.712818
vt 0.858203 0.712818
vt 0.903803 0.712818
vt 0.948325 0.712818
vn -0.610374 0.610283 -0.504974
vn 0.595443 0.297677 -0.746214
vn -0.438104 -0.276238 -0.855428
vn 0.622665 -0.392612 -0.676863
vn 0.180627 -0.726879 -0.662586
vn -0.296934 -0.757235 -0.581743
vn -0.354023 -0.919045 -0.173273
vn -0.947130 -0.264919 -0.181006
vn 0.947129 -0.264921 -0.181007
vn 0.437226 0.874322 -0.210700
vn -0.689620 0.689517 -0.221340
vn 0.000000 0.000000 1.000000
vn 0.000000 0.000000 1.000000
vn 0.000000 0.000000 1.000000
vn 0.000000 0.000000 1.000000
vn 0.000000 0.000000 1.000000
vn 0.000000 0.000000 1.000000
vn 0.000000 0.000000 1.000000
vn 0.000000 0.000000 1.000000
vn 0.000000 0.000000 1.000000
vn 0.000000 0.000000 1.000000
vn 0.000000 0.000000 1.000000
vn 0.000000 0.000000 1.000000
vn 0.468279 -0.865628 -0.177207
vn -1.000000 0.000000 0.000003
vn -1.000000 0.000000 0.000003
vn -1.000000 0.000000 0.000003
vn -1.000000 0.000000 0.000003
vn -0.293833 0.000000 -0.955857
vn -0.293833 0.000000 -0.955857
vn -0.293833 0.000000 -0.955857
vn -0.293833 0.000000 -0.955857
vn 1.000000 0.000000 -0.000003
vn 1.000000 0.000000 -0.000003
vn 1.000000 0.000000 -0.000003
vn 1.000000 0.000000 -0.000003
vn -0.293828 0.000000 0.955858
vn -0.293828 0.000000 0.955858
vn -0.293828 0.000000 0.955858
vn -0.293828 0.000000 0.955858
vn 0.000000 -1.000000 0.000000
vn 0.000000 -1.000000 0.000000
vn 0.000000 -1.000000 0.000000
vn 0.000000 -1.000000 0.000000
vn 0.293828 0.000000 -0.955858
vn 0.293828 0.000000 -0.955858
vn 0.293828 0.000000 -0.955858
vn 0.293828 0.000000 -0.955858
vn 0.000000 -1.000000 0.000000
vn 0.000000 -1.000000 0.000000
vn 0.000000 -1.000000 0.000000
vn 0.000000 -1.000000 0.000000
vn 0.293830 0.000000 0.955858
vn 0.293830 0.000000 0.955858
vn 0.293830 0.000000 0.955858
vn 0.293830 0.000000 0.955858
vn 0.000000 0.000000 -1.000000
vn 0.000000 0.000000 -1.000000
vn 0.000000 0.000000 -1.000000
vn 0.000000 0.000000 -1.000000
vn 0.000000 -1.000000 0.000000
vn 0.000000 -1.000000 0.000000
vn 0.000000 -1.000000 0.000000
vn 0.000000 -1.000000 0.000000
vn 0.000000 0.000000 1.000000
vn 0.000000 0.000000 1.000000
vn 0.000000 0.000000 1.000000
vn 0.000000 0.000000 1.000000
vn 0.000000 1.000000 0.000000
vn 0.000000 1.000000 0.000000
vn 0.000000 1.000000 0.000000
vn 0.000000 1.000000 0.000000
vn 0.000000 1.000000 0.000000
vn 0.000000 1.000000 0.000000
vn 0.000000 1.000000 0.000000
vn 0.000000 1.000000 0.000000
vn 0.000000 1.000000 0.000000
vn 0.000000 1.000000 0.000000
vn 0.000000 1.000000 0.000000
vn 0.000000 1.000000 0.000000
vn 0.000000 1.000000 0.000000
vn 0.000000 1.000000 0.000000
vn 0.000000 1.000000 0.000000
vn 0.000000 1.000000 0.000000
vn 0.000000 1.000000 0.000001
vn 0.000000 1.000000 0.000000
vn 0.000000 1.000000 0.000001
vn 0.000000 1.000000 0.000000
vn 0.000000 1.000000 0.000000
vn 0.000000 1.000000 0.000000
vn 0.000000 1.000000 0.000000
vn 0.000000 1.000000 0.000000
vn 0.000000 1.000000 0.000000
vn 0.000000 1.000000 0.000000
vn 0.000000 1.000000 0.000000
vn 0.000000 1.000000 0.000000
vn 0.000000 1.000000 0.000000
vn 0.000000 1.000000 0.000000
vn 0.000000 1.000000 0.000000
vn 0.000000 1.000000 0.000000
vn 0.000000 0.000000 -1.000000
vn 0.000000 0.000000 -1.000000
vn 0.000000 0.000000 -1.000000
vn 0.000000 0.000000 -1.000000
vn -1.000000 0.000000 0.000004
vn -1.000000 0.000000 0.000004
vn -1.000000 0.000000 0.000004
vn -1.000000 0.000000 0.000004
vn 0.000000 0.000000 1.000000
vn 0.000000 0.000000 1.000000
vn 0.000000 0.000000 1.000000
vn 0.000000 0.000000 1.000000
vn 1.000000 0.000000 -0.000004
vn 1.000000 0.000000 -0.000004
vn 1.000000 0.000000 -0.000004
vn 1.000000 0.000000 -0.000004
vn 0.000000 0.953191 0.302368
vn 0.000000 0.006987 0.999976
vn 0.000000 0.006987 0.999976
vn 0.000000 0.953191 0.302368
vn 0.000000 0.006987 0.999976
vn 0.000000 -0.948875 0.315651
vn 0.000000 -0.948875 0.315651
vn 0.000000 0.006987 0.999976
vn 0.000000 -0.948875 0.315651
vn 0.000000 -0.593411 -0.804900
vn 0.000000 -0.593411 -0.804900
vn 0.000000 -0.948875 0.315651
vn 0.000000 -0.593411 -0.804900
vn 0.000000 0.582133 -0.813094
vn 0.000000 0.582133 -0.813094
vn 0.000000 -0.593411 -0.804900
vn 0.000000 0.582133 -0.813094
vn 0.000000 0.953191 0.302368
vn 0.000000 0.953191 0.302368
vn 0.000000 0.582133 -0.813094
vn -1.000000 0.000000 0.000000
vn -1.000000 0.000000 0.000000
vn -1.000000 0.000000 0.000000
vn -1.000000 0.000000 0.000000
vn -1.000000 0.000000 0.000000
vn -1.000000 0.000000 0.000000
vn -1.000000 0.000000 0.000000
vn -1.000000 0.000000 0.000000
vn -1.000000 0.000000 0.000000
vn 1.000000 0.000000 0.000000
vn 1.000000 -0.000000 0.000000
vn 1.000000 -0.000000 0.000000
vn 1.000000 -0.000000 0.000000
vn 1.000000 -0.000000 0.000000
vn 1.000000 -0.000000 0.000000
vn 1.000000 -0.000000 0.000000
vn 1.000000 0.000000 0.000000
vn 1.000000 -0.000000 0.000000
vn 0.000000 0.953191 0.302368
vn 0.000000 0.006987 0.999976
vn 0.000000 0.006987 0.999976
vn 0.000000 0.953191 0.302368
vn 0.000000 0.006987 0.999976
vn 0.000000 -0.948875 0.315652
vn 0.000000 -0.948875 0.315652
vn 0.000000 0.006987 0.999976
vn 0.000000 -0.948875 0.315652
vn 0.000000 -0.593411 -0.804900
vn 0.000000 -0.593411 -0.804900
vn 0.000000 -0.948875 0.315652
vn 0.000000 -0.593411 -0.804900
vn 0.000000 0.582133 -0.813094
vn 0.000000 0.582133 -0.813094
vn 0.000000 -0.593411 -0.804900
vn 0.000000 0.582133 -0.813094
vn 0.000000 0.953191 0.302368
vn 0.000000 0.953191 0.302368
vn 0.000000 0.582133 -0.813094
vn -1.000000 0.000000 0.000000
vn -1.000000 0.000000 0.000000
vn -1.000000 0.000000 0.000000
vn -1.000000 0.000000 0.000000
vn -1.000000 0.000000 0.000000
vn -1.000000 0.000000 0.000000
vn -1.000000 0.000000 0.000000
vn -1.000000 0.000000 0.000000
vn -1.000000 0.000000 0.000000
vn 1.000000 0.000000 0.000000
vn 1.000000 0.000000 0.000000
vn 1.000000 0.000000 0.000000
vn 1.000000 0.000000 0.000000
vn 1.000000 0.000000 0.000000
vn 1.000000 0.000000 0.000000
vn 1.000000 0.000000 0.000000
vn 1.000000 0.000000 0.000000
vn 1.000000 0.000000 0.000000
vn -0.205933 0.886100 0.415232
vn 0.126293 0.893473 0.430994
vn 0.150463 0.988039 -0.033764
vn -0.265869 0.962178 -0.059395
vn 0.288978 0.956765 -0.033062
vn 0.150463 0.988039 -0.033764
vn 0.126293 0.893473 0.430994
vn 0.273569 0.882200 0.383254
vn 0.099979 0.829197 -0.549943
vn 0.140910 0.754462 -0.641039
vn 0.154608 0.863697 -0.479712
vn 0.176118 0.884374 -0.432279
vn 0.154608 0.863697 -0.479712
vn 0.140910 0.754462 -0.641039
vn -0.253799 0.797400 -0.547484
vn -0.267580 0.850731 -0.452391
vn 0.182396 0.983034 -0.019410
vn 0.288978 0.956765 -0.033062
vn 0.273569 0.882200 0.383254
vn 0.218754 0.905175 0.364425
vn -0.145670 0.884426 -0.443363
vn 0.099979 0.829197 -0.549943
vn 0.176118 0.884374 -0.432279
vn -0.036756 0.924731 -0.378842
vn -0.267580 0.850731 -0.452391
vn -0.253799 0.797400 -0.547484
vn -0.433682 0.792137 -0.429464
vn -0.439564 0.793147 -0.421547
vn -0.325631 0.865106 0.381518
vn -0.205933 0.886100 0.415232
vn -0.265869 0.962178 -0.059395
vn -0.428178 0.898308 -0.098522
vn -0.278913 0.803814 0.525444
vn -0.174370 0.796010 0.579623
vn -0.205933 0.886100 0.415232
vn -0.325631 0.865106 0.381518
vn -0.174370 0.796010 0.579623
vn 0.118942 0.782122 0.611668
vn 0.126293 0.893473 0.430994
vn -0.205933 0.886100 0.415232
vn 0.273569 0.882200 0.383254
vn 0.126293 0.893473 0.430994
vn 0.118942 0.782122 0.611668
vn 0.232179 0.823189 0.518124
vn 0.218754 0.905175 0.364425
vn 0.273569 0.882200 0.383254
vn 0.232179 0.823189 0.518124
vn 0.160412 0.876586 0.453723
vn -0.265869 0.962178 -0.059395
vn -0.267580 0.850731 -0.452391
vn -0.439564 0.793147 -0.421547
vn -0.428178 0.898308 -0.098522
vn 0.150463 0.988039 -0.033764
vn 0.154608 0.863697 -0.479712
vn -0.267580 0.850731 -0.452391
vn -0.265869 0.962178 -0.059395
vn 0.176118 0.884374 -0.432279
vn 0.154608 0.863697 -0.479712
vn 0.150463 0.988039 -0.033764
vn 0.288978 0.956765 -0.033062
vn -0.036756 0.924731 -0.378842
vn 0.176118 0.884374 -0.432279
vn 0.288978 0.956765 -0.033062
vn 0.182396 0.983034 -0.019410
s 1
f 3/5/1 4/6/2 1/4/3
f 4/6/2 2/1/4 1/4/3
f 2/1/4 11/2/5 1/4/3
f 11/2/5 9/3/6 1/4/3
f 9/3/6 10/7/7 1/4/3
f 1/4/3 10/7/7 5/8/8
f 2/1/4 4/6/2 6/10/9
f 6/10/9 4/6/2 7/9/10
f 1/4/3 5/8/8 3/5/1
f 3/5/1 5/8/8 8/11/11
f 4/6/2 3/5/1 7/9/10
f 7/9/10 3/5/1 8/11/11
s off
f 8/12/12 5/13/13 7/17/14
f 7/17/15 5/13/16 6/16/17
f 5/13/18 10/14/19 6/16/20
f 10/14/21 12/15/22 6/16/23
s 1
f 12/18/24 10/7/7 11/2/5
f 11/2/5 10/7/7 9/3/6
f 11/2/5 2/1/4 12/18/24
f 12/18/24 2/1/4 6/10/9
s off
f 21/19/25 22/20/26 14/21/27 13/22/28
f 22/23/29 23/24/30 17/25/31 14/26/32
f 25/27/33 26/28/34 16/29/35 15/30/36
f 28/31/37 21/32/38 13/33/39 18/34/40
f 18/35/41 13/36/42 14/37/43 17/38/44
f 24/39/45 25/27/46 15/30/47 20/40/48
f 16/41/49 19/42/50 20/43/51 15/44/52
f 26/45/53 27/46/54 19/47/55 16/48/56
f 20/40/57 17/25/58 23/24/59 24/39/60
f 18/35/61 17/38/62 20/43/63 19/42/64
f 27/46/65 28/31/66 18/34/67 19/47/68
f 34/49/69 33/50/70 35/51/71 36/52/72
f 28/53/73 27/54/74 29/55/75 30/56/76
f 27/54/77 26/57/78 29/55/79
f 26/57/80 25/58/81 31/59/82 29/55/83
f 25/58/84 24/60/85 31/59/86
f 24/60/87 23/61/88 32/62/89 31/59/90
f 23/61/91 22/63/92 32/62/93
f 22/63/94 21/64/95 30/56/96 32/62/97
f 21/64/98 28/53/99 30/56/100
f 30/65/101 29/66/102 33/50/103 34/49/104
f 29/67/105 31/68/106 35/69/107 33/70/108
f 31/71/109 32/72/110 36/73/111 35/74/112
f 32/75/113 30/76/114 34/77/115 36/78/116
f 37/79/117 38/80/118 43/81/119 42/82/120
f 38/80/121 39/83/122 44/84/123 43/81/124
f 39/83/125 40/85/126 45/86/127 44/84/128
f 40/87/129 41/88/130 46/89/131 45/90/132
f 41/88/133 37/79/134 42/82/135 46/89/136
f 38/91/137 37/92/138 41/93/139
f 39/94/140 38/91/141 41/93/142
f 40/95/143 39/94/144 41/93/145
f 44/96/146 45/97/147 43/98/148
f 45/97/149 46/99/150 43/98/151
f 46/99/152 42/100/153 43/98/154
f 47/101/155 48/102/156 53/103/157 52/104/158
f 48/102/159 49/105/160 54/106/161 53/103/162
f 49/105/163 50/107/164 55/108/165 54/106/166
f 50/109/167 51/110/168 56/111/169 55/112/170
f 51/110/171 47/101/172 52/104/173 56/111/174
f 48/113/175 47/114/176 51/115/177
f 49/116/178 48/113/179 51/115/180
f 50/117/181 49/116/182 51/115/183
f 54/118/184 55/119/185 53/120/186
f 55/119/187 56/121/188 53/120/189
f 56/121/190 52/122/191 53/120/192
f 73/123/193 74/124/194 64/125/195 70/126/196
f 67/127/197 64/125/198 74/124/199 75/128/200
f 68/129/201 62/130/202 79/131/203 80/132/204
f 79/131/205 62/130/206 69/133/207 78/134/208
f 63/135/209 67/127/210 75/128/211 76/136/212
f 59/137/213 68/129/214 80/132/215 81/138/216
f 78/134/217 69/133/218 60/139/219 77/140/220
f 72/141/221 73/123/222 70/126/223 65/142/224
f 58/143/225 71/144/226 73/123/227 72/141/228
f 71/144/229 61/145/230 74/124/231 73/123/232
f 75/128/233 74/124/234 61/145/235 66/146/236
f 76/136/237 75/128/238 66/146/239 57/147/240
f 70/126/241 78/134/242 77/140/243 65/142/244
f 64/125/245 79/131/246 78/134/247 70/126/248
f 80/132/249 79/131/250 64/125/251 67/127/252
f 81/138/253 80/132/254 67/127/255 63/135/256
