# This file uses centimeters as units for non-parametric coordinates.

v -1.091576 -0.002785 0.425314
v 1.061154 -0.002785 0.678230
v -0.200871 -0.002785 -0.776918
v 1.121634 -0.002785 0.091794
v -0.059682 -0.002785 0.738713
v -1.104607 -0.002785 -0.083714
v -1.091576 0.973225 0.425314
v -0.059682 0.973225 0.738713
v -0.200871 0.973225 -0.776918
v 1.121634 0.973225 0.091794
v -1.104607 0.973225 -0.083714
v 1.061154 0.973225 0.678230
vt 0.375000 0.750000
vt 0.625000 0.750000
vt 0.375000 1.000000
vt 0.625000 1.000000
vt 0.456525 1.000000
vt 0.375000 0.862874
vt 0.000000 0.000000
vt 1.000000 0.000000
vt 1.000000 1.000000
vt 0.000000 1.000000
vt 0.000000 0.000000
vt 1.000000 0.000000
vt 1.000000 1.000000
vt 0.000000 1.000000
vt 0.000000 0.000000
vt 1.000000 0.000000
vt 1.000000 1.000000
vt 0.000000 1.000000
vt 0.000000 0.000000
vt 1.000000 0.000000
vt 1.000000 1.000000
vt 0.000000 1.000000
vt 0.000000 0.000000
vt 1.000000 0.000000
vt 1.000000 1.000000
vt 0.000000 1.000000
vt 0.000000 0.000000
vt 1.000000 0.000000
vt 1.000000 1.000000
vt 0.000000 1.000000
vt 0.000000 0.000000
vt 0.000000 0.000000
vt 0.000000 0.000000
vt 0.000000 0.000000
vt 0.000000 0.000000
vt 0.000000 0.000000
vn 0.000000 -1.000000 0.000000
vn 0.000000 -1.000000 0.000000
vn 0.000000 -1.000000 0.000000
vn 0.000000 -1.000000 0.000000
vn 0.000000 -1.000000 0.000000
vn 0.000000 -1.000000 0.000000
vn -0.290605 0.000000 0.956843
vn -0.290605 0.000000 0.956843
vn -0.290605 0.000000 0.956843
vn -0.290605 0.000000 0.956843
vn 0.549018 0.000000 -0.835811
vn 0.549018 0.000000 -0.835811
vn 0.549018 0.000000 -0.835811
vn 0.549018 0.000000 -0.835811
vn -0.608619 0.000000 -0.793462
vn -0.608619 0.000000 -0.793462
vn -0.608619 0.000000 -0.793462
vn -0.608619 0.000000 -0.793462
vn 0.994724 0.000000 0.102587
vn 0.994724 0.000000 0.102587
vn 0.994724 0.000000 0.102587
vn 0.994724 0.000000 0.102587
vn 0.053884 0.000000 0.998547
vn 0.053884 0.000000 0.998547
vn 0.053884 0.000000 0.998547
vn 0.053884 0.000000 0.998547
vn -0.999672 0.000000 0.025592
vn -0.999672 0.000000 0.025592
vn -0.999672 0.000000 0.025592
vn -0.999672 0.000000 0.025592
vn 0.000000 1.000000 -0.000000
vn 0.000000 1.000000 -0.000000
vn 0.000000 1.000000 -0.000000
vn 0.000000 1.000000 -0.000000
vn 0.000000 1.000000 -0.000000
vn 0.000000 1.000000 -0.000000
s off
f 3/1/1 4/2/2 2/4/3 5/5/4 1/3/5 6/6/6
f 1/7/7 5/8/8 8/9/9 7/10/10
f 4/11/11 3/12/12 9/13/13 10/14/14
f 3/15/15 6/16/16 11/17/17 9/18/18
f 2/19/19 4/20/20 10/21/21 12/22/22
f 5/23/23 2/24/24 12/25/25 8/26/26
f 6/27/27 1/28/28 7/29/29 11/30/30
f 11/36/31 7/31/32 8/35/33 12/34/34 10/32/35 9/33/36
