# This file uses centimeters as units for non-parametric coordinates.

v -0.881256 -0.163535 1.142455
v 1.191617 -0.163535 1.209793
v -1.987519 -0.163535 -0.913099
v 1.845754 -0.163535 -0.519066
v 0.094770 -0.163535 -1.703666
v -0.881256 1.611760 1.142455
v 1.191617 1.611760 1.209793
v 1.845754 1.611760 -0.519066
v 0.094770 1.611760 -1.703666
v -1.987519 1.611760 -0.913099
vt 0.000000 0.000000
vt 1.000000 0.000000
vt 0.000000 0.859155
vt 1.000000 0.518702
vt 0.819470 0.859155
vt 0.000000 0.000000
vt 1.000000 0.000000
vt 1.000000 0.518702
vt 0.819470 0.859155
vt 0.000000 0.859155
vt 0.000000 0.000000
vt 1.000000 0.000000
vt 1.000000 0.518702
vt 0.819470 0.859155
vt 0.000000 0.859155
vn 0.000000 1.000000 0.000000
vn 0.000000 1.000000 0.000000
vn 0.000000 1.000000 0.000000
vn 0.000000 1.000000 0.000000
vn 0.000000 1.000000 0.000000
vn 0.000000 -1.000000 0.000000
vn 0.000000 -1.000000 0.000000
vn 0.000000 -1.000000 0.000000
vn 0.000000 -1.000000 0.000000
vn 0.000000 -1.000000 0.000000
vn -0.032468 0.000000 0.999473
vn -0.032468 0.000000 0.999473
vn -0.032468 0.000000 0.999473
vn -0.032468 0.000000 0.999473
vn 0.935291 0.000000 0.353880
vn 0.935291 0.000000 0.353880
vn 0.935291 0.000000 0.353880
vn 0.935291 0.000000 0.353880
vn 0.560345 0.000000 -0.828259
vn 0.560345 0.000000 -0.828259
vn 0.560345 0.000000 -0.828259
vn 0.560345 0.000000 -0.828259
vn -0.354942 0.000000 -0.934888
vn -0.354942 0.000000 -0.934888
vn -0.354942 0.000000 -0.934888
vn -0.354942 0.000000 -0.934888
vn -0.880574 0.000000 0.473909
vn -0.880574 0.000000 0.473909
vn -0.880574 0.000000 0.473909
vn -0.880574 0.000000 0.473909
s off
f 6/11/1 7/12/2 8/13/3 9/14/4 10/15/5
f 1/6/6 3/10/7 5/9/8 4/8/9 2/7/10
f 1/1/11 2/2/12 7/12/13 6/11/14
f 2/2/15 4/4/16 8/13/17 7/12/18
f 4/4/19 5/5/20 9/14/21 8/13/22
f 5/5/23 3/3/24 10/15/25 9/14/26
f 3/3/27 1/1/28 6/11/29 10/15/30
