# This file uses centimeters as units for non-parametric coordinates.

v -0.880522 0.000000 2.138074
v 1.105139 0.000000 2.203140
v -1.521888 0.000000 -1.646204
v 2.387872 0.000000 0.649707
v -1.658729 -0.000000 0.423739
v 0.164062 0.000000 -2.130214
v -1.521888 1.245146 -1.646204
v 0.164062 1.245146 -2.130214
v 2.387872 1.245146 0.649707
v 1.105139 1.245146 2.203140
v -0.880522 1.245146 2.138074
v -1.658729 1.245146 0.423739
vt 0.375000 0.750000
vt 0.625000 0.750000
vt 0.375000 1.000000
vt 0.625000 1.000000
vt 0.375000 0.872494
vt 0.563152 0.750000
vt 0.375000 0.750000
vt 0.563152 0.750000
vt 0.625000 0.750000
vt 0.625000 1.000000
vt 0.375000 1.000000
vt 0.375000 0.872494
vt 0.375000 0.750000
vt 0.563152 0.750000
vt 0.625000 0.750000
vt 0.625000 1.000000
vt 0.375000 1.000000
vt 0.375000 0.872494
vn -0.000000 1.000000 -0.000000
vn -0.000000 1.000000 -0.000000
vn -0.000000 1.000000 -0.000000
vn -0.000000 1.000000 -0.000000
vn -0.000000 1.000000 -0.000000
vn -0.000000 1.000000 -0.000000
vn 0.000000 -1.000000 0.000000
vn 0.000000 -1.000000 0.000000
vn 0.000000 -1.000000 0.000000
vn 0.000000 -1.000000 0.000000
vn 0.000000 -1.000000 0.000000
vn 0.000000 -1.000000 0.000000
vn -0.275939 0.000000 -0.961175
vn -0.275939 0.000000 -0.961175
vn -0.275939 0.000000 -0.961175
vn -0.275939 0.000000 -0.961175
vn 0.780886 0.000000 -0.624673
vn 0.780886 0.000000 -0.624673
vn 0.780886 0.000000 -0.624673
vn 0.780886 0.000000 -0.624673
vn 0.771093 0.000000 0.636723
vn 0.771093 0.000000 0.636723
vn 0.771093 0.000000 0.636723
vn 0.771093 0.000000 0.636723
vn -0.032750 0.000000 0.999464
vn -0.032750 0.000000 0.999464
vn -0.032750 0.000000 0.999464
vn -0.032750 0.000000 0.999464
vn -0.910574 0.000000 0.413347
vn -0.910574 0.000000 0.413347
vn -0.910574 0.000000 0.413347
vn -0.910574 0.000000 0.413347
vn -0.997822 0.000000 -0.065964
vn -0.997822 0.000000 -0.065964
vn -0.997822 0.000000 -0.065964
vn -0.997822 0.000000 -0.065964
s off
f 7/13/1 12/18/2 11/17/3 10/16/4 9/15/5 8/14/6
f 3/7/7 6/8/8 4/9/9 2/10/10 1/11/11 5/12/12
f 3/1/13 7/13/14 8/14/15 6/6/16
f 6/6/17 8/14/18 9/15/19 4/2/20
f 4/2/21 9/15/22 10/16/23 2/4/24
f 2/4/25 10/16/26 11/17/27 1/3/28
f 1/3/29 11/17/30 12/18/31 5/5/32
f 5/5/33 12/18/34 7/13/35 3/1/36
