# This file uses centimeters as units for non-parametric coordinates.

v -1.528142 -0.000000 -0.267329
v 1.553236 -0.000000 0.322574
v -1.583661 -0.000000 -1.155654
v 1.199293 -0.000000 -1.613697
v 0.054868 -0.000000 1.608173
v -1.528142 1.602672 -0.267329
v 0.054868 1.602672 1.608173
v 1.553236 1.602672 0.322574
v 1.199293 1.602672 -1.613697
v -1.583661 1.602672 -1.155654
vt 0.000000 0.000000
vt 1.000000 0.000000
vt 0.000000 0.924797
vt 1.000000 0.924797
vt 0.317074 0.000000
vt 0.000000 0.000000
vt 0.317074 0.000000
vt 1.000000 0.000000
vt 1.000000 0.924797
vt 0.000000 0.924797
vt 0.000000 0.000000
vt 0.317074 0.000000
vt 1.000000 0.000000
vt 1.000000 0.924797
vt 0.000000 0.924797
vn 0.000000 1.000000 -0.000000
vn 0.000000 1.000000 -0.000000
vn 0.000000 1.000000 -0.000000
vn 0.000000 1.000000 -0.000000
vn 0.000000 1.000000 -0.000000
vn 0.000000 -1.000000 -0.000000
vn 0.000000 -1.000000 -0.000000
vn 0.000000 -1.000000 -0.000000
vn 0.000000 -1.000000 -0.000000
vn 0.000000 -1.000000 -0.000000
vn -0.764180 0.000000 0.645003
vn -0.764180 0.000000 0.645003
vn -0.764180 0.000000 0.645003
vn -0.764180 0.000000 0.645003
vn 0.651166 0.000000 0.758935
vn 0.651166 0.000000 0.758935
vn 0.651166 0.000000 0.758935
vn 0.651166 0.000000 0.758935
vn 0.983700 0.000000 -0.179817
vn 0.983700 0.000000 -0.179817
vn 0.983700 0.000000 -0.179817
vn 0.983700 0.000000 -0.179817
vn -0.162404 0.000000 -0.986724
vn -0.162404 0.000000 -0.986724
vn -0.162404 0.000000 -0.986724
vn -0.162404 0.000000 -0.986724
vn -0.998053 0.000000 0.062376
vn -0.998053 0.000000 0.062376
vn -0.998053 0.000000 0.062376
vn -0.998053 0.000000 0.062376
s off
f 6/11/1 7/12/2 8/13/3 9/14/4 10/15/5
f 1/6/6 3/10/7 4/9/8 2/8/9 5/7/10
f 1/1/11 5/5/12 7/12/13 6/11/14
f 5/5/15 2/2/16 8/13/17 7/12/18
f 2/2/19 4/4/20 9/14/21 8/13/22
f 4/4/23 3/3/24 10/15/25 9/14/26
f 3/3/27 1/1/28 6/11/29 10/15/30
