# This file uses centimeters as units for non-parametric coordinates.

v -0.512926 -0.180062 2.355658
v 2.615305 -0.180062 0.379932
v -2.210024 -0.180062 -0.658589
v 0.842218 -0.180062 -2.001069
v -2.210024 1.693916 -0.658589
v 0.842218 1.693916 -2.001069
v 2.615305 1.693916 0.379932
v -0.512926 1.693916 2.355658
vt 0.375000 0.750000
vt 0.625000 0.750000
vt 0.375000 1.000000
vt 0.625000 1.000000
vt 0.375000 0.750000
vt 0.625000 0.750000
vt 0.625000 1.000000
vt 0.375000 1.000000
vt 0.375000 0.750000
vt 0.625000 0.750000
vt 0.625000 1.000000
vt 0.375000 1.000000
vn 0.000000 1.000000 0.000000
vn 0.000000 1.000000 0.000000
vn 0.000000 1.000000 0.000000
vn 0.000000 1.000000 0.000000
vn 0.000000 -1.000000 0.000000
vn 0.000000 -1.000000 0.000000
vn 0.000000 -1.000000 0.000000
vn 0.000000 -1.000000 0.000000
vn -0.402611 0.000000 -0.915371
vn -0.402611 0.000000 -0.915371
vn -0.402611 0.000000 -0.915371
vn -0.402611 0.000000 -0.915371
vn 0.802043 0.000000 -0.597266
vn 0.802043 0.000000 -0.597266
vn 0.802043 0.000000 -0.597266
vn 0.802043 0.000000 -0.597266
vn 0.533993 0.000000 0.845489
vn 0.533993 0.000000 0.845489
vn 0.533993 0.000000 0.845489
vn 0.533993 0.000000 0.845489
vn -0.871380 0.000000 0.490609
vn -0.871380 0.000000 0.490609
vn -0.871380 0.000000 0.490609
vn -0.871380 0.000000 0.490609
s off
f 5/9/1 8/12/2 7/11/3 6/10/4
f 3/5/5 4/6/6 2/7/7 1/8/8
f 3/1/9 5/9/10 6/10/11 4/2/12
f 4/2/13 6/10/14 7/11/15 2/4/16
f 2/4/17 7/11/18 8/12/19 1/3/20
f 1/3/21 8/12/22 5/9/23 3/1/24
