# This file uses centimeters as units for non-parametric coordinates.

v -0.488830 -0.000000 0.679188
v 0.795406 -0.000000 0.339705
v -0.756844 -0.000000 -0.269315
v 0.195056 -0.000000 -0.655253
v -0.488830 0.855997 0.679188
v 0.795406 0.855997 0.339705
v -0.756844 0.855997 -0.269315
v 0.195056 0.855997 -0.655253
vt 0.375000 0.750000
vt 0.625000 0.750000
vt 0.375000 1.000000
vt 0.625000 1.000000
vt 0.000000 0.000000
vt 1.000000 0.000000
vt 1.000000 1.000000
vt 0.000000 1.000000
vt 0.000000 0.000000
vt 1.000000 0.000000
vt 1.000000 1.000000
vt 0.000000 1.000000
vt 0.000000 0.000000
vt 1.000000 0.000000
vt 1.000000 1.000000
vt 0.000000 1.000000
vt 0.000000 0.000000
vt 1.000000 0.000000
vt 1.000000 1.000000
vt 0.000000 1.000000
vt 0.000000 0.000000
vt 0.000000 0.000000
vt 0.000000 0.000000
vt 0.000000 0.000000
vn 0.000000 -1.000000 0.000000
vn 0.000000 -1.000000 0.000000
vn 0.000000 -1.000000 0.000000
vn 0.000000 -1.000000 0.000000
vn 0.255568 0.000000 0.966791
vn 0.255568 0.000000 0.966791
vn 0.255568 0.000000 0.966791
vn 0.255568 0.000000 0.966791
vn -0.375733 0.000000 -0.926728
vn -0.375733 0.000000 -0.926728
vn -0.375733 0.000000 -0.926728
vn -0.375733 0.000000 -0.926728
vn -0.962320 0.000000 0.271918
vn -0.962320 0.000000 0.271918
vn -0.962320 0.000000 0.271918
vn -0.962320 0.000000 0.271918
vn 0.856209 0.000000 -0.516630
vn 0.856209 0.000000 -0.516630
vn 0.856209 0.000000 -0.516630
vn 0.856209 0.000000 -0.516630
vn 0.000000 1.000000 0.000000
vn 0.000000 1.000000 0.000000
vn 0.000000 1.000000 0.000000
vn 0.000000 1.000000 0.000000
s off
f 3/1/1 4/2/2 2/4/3 1/3/4
f 1/5/5 2/6/6 6/7/7 5/8/8
f 4/9/9 3/10/10 7/11/11 8/12/12
f 3/13/13 1/14/14 5/15/15 7/16/16
f 2/17/17 4/18/18 8/19/19 6/20/20
f 8/22/21 7/23/22 5/21/23 6/24/24
