# This file uses centimeters as units for non-parametric coordinates.

v -2.999998 -1.559620 -0.168030
v -2.999998 -1.559620 0.167365
v -2.999998 -2.817017 -0.168695
v -2.999996 -2.817017 0.168699
v 2.840410 2.415714 -0.168029
v 2.840410 1.158318 -0.168695
v 2.840410 1.158318 0.168699
v 2.840410 2.415714 0.167365
vt 0.140236 0.138924
vt 0.142973 0.114828
vt 0.019398 0.121075
vt 0.016661 0.145171
vt 0.022157 0.141198
vt 0.145732 0.134952
vt 0.148512 0.110824
vt 0.024937 0.117071
vt 0.141604 0.126876
vt 0.147122 0.122888
vt 0.023547 0.129135
vt 0.018030 0.133123
vn 0.318779 0.604369 0.730149
vn -0.769359 0.407331 0.492106
vn -0.320025 -0.603180 0.730587
vn 0.769397 -0.406683 0.492583
vn 0.319091 0.604072 -0.730259
vn -0.769370 0.407170 -0.492223
vn -0.319713 -0.603480 -0.730476
vn 0.769387 -0.406845 -0.492464
s 1
f 8/12/1 2/9/2 4/2/3 7/3/4
f 2/1/2 8/4/1 5/5/5 1/6/6
f 3/7/7 4/2/3 2/9/2 1/10/6
f 3/7/7 6/8/8 7/3/4 4/2/3
f 3/7/7 1/10/6 5/11/5 6/8/8
f 8/12/1 7/3/4 6/8/8 5/11/5
