# This file uses centimeters as units for non-parametric coordinates.

v 11.920715 -7.568407 -11.693027
v 11.918510 -7.568407 -12.027753
v 6.114601 -4.943071 -10.126365
v 5.948128 -4.943071 -10.416764
v 11.897823 -8.885476 -11.678722
v 5.702343 -6.090657 -9.877203
v 11.881866 -8.885475 -12.015737
v 5.522768 -6.090657 -10.162840
v 8.916454 -6.255739 -11.284757
v 8.829254 -6.255739 -11.607927
v 8.353325 -7.403325 -11.470444
v 8.454411 -7.403325 -11.148548
v 9.870754 -8.059660 -11.841836
v 9.929764 -8.059660 -11.509641
v 10.405453 -6.912073 -11.585523
v 10.360378 -6.912073 -11.917207
v 7.478268 -5.599405 -10.795683
v 7.350376 -5.599405 -11.105018
v 6.895988 -6.746991 -10.907686
v 7.037483 -6.746991 -10.601396
v 1.828703 -2.317734 -5.907776
v 1.540976 -2.317734 -6.078823
v 1.592190 -3.465321 -5.488133
v 1.295395 -3.465320 -5.648591
v 3.699142 -3.630402 -8.293927
v 3.464334 -3.630403 -8.532483
v 3.117474 -4.777989 -8.178793
v 3.363745 -4.777989 -7.948172
v 4.256304 -5.434323 -9.248182
v 4.470997 -5.434323 -8.987908
v 4.847933 -4.286737 -9.287838
v 4.645624 -4.286736 -9.554514
v 2.687172 -2.974068 -7.161015
v 2.423733 -2.974068 -7.367517
v 2.125051 -4.121655 -6.972299
v 2.398840 -4.121654 -6.775134
v 0.170334 0.307603 -0.127186
v -0.164309 0.307603 -0.134689
v 0.170675 -0.839984 0.354518
v -0.166664 -0.839984 0.360693
v 0.626110 -1.005066 -3.124607
v 0.304359 -1.005066 -3.216913
v 0.176184 -2.152652 -2.738394
v 0.504015 -2.152652 -2.658634
v 0.642181 -2.808986 -4.229492
v 0.957092 -2.808986 -4.108385
v 1.137888 -1.661400 -4.554872
v 0.830614 -1.661400 -4.687643
v 0.301809 -0.348732 -1.640557
v -0.029114 -0.348732 -1.690876
v -0.094923 -1.496318 -1.199878
v 0.240427 -1.496318 -1.162780
vt 0.885664 0.355153
vt 0.885662 0.383420
vt 0.885677 0.254336
vt 0.885680 0.229060
vt 0.594651 0.355153
vt 0.594653 0.383418
vt 0.594637 0.254338
vt 0.594634 0.229062
vt 0.594579 0.383411
vt 0.594579 0.355139
vt 0.594579 0.254336
vt 0.594579 0.229068
vt 0.742226 0.254337
vt 0.742224 0.229065
vt 0.742234 0.383415
vt 0.742233 0.355146
vt 0.742671 0.383415
vt 0.742672 0.355146
vt 0.742678 0.254336
vt 0.742680 0.229064
vt 0.448138 0.355146
vt 0.448139 0.383415
vt 0.448129 0.229065
vt 0.448131 0.254337
vt 0.742678 0.254336
vt 0.885677 0.254336
vt 0.742680 0.229064
vt 0.885680 0.229060
vt 0.885664 0.355153
vt 0.742672 0.355146
vt 0.885662 0.383420
vt 0.742671 0.383415
vt 0.594579 0.355139
vt 0.594579 0.383411
vt 0.448139 0.383415
vt 0.448138 0.355146
vt 0.594579 0.254336
vt 0.448131 0.254337
vt 0.594579 0.229068
vt 0.448129 0.229065
vt 0.742226 0.254337
vt 0.594637 0.254338
vt 0.742224 0.229065
vt 0.594634 0.229062
vt 0.742233 0.355146
vt 0.742234 0.383415
vt 0.594653 0.383418
vt 0.594651 0.355153
vt 0.742678 0.254336
vt 0.885677 0.254336
vt 0.742680 0.229064
vt 0.885680 0.229060
vt 0.885664 0.355153
vt 0.742672 0.355146
vt 0.885662 0.383420
vt 0.742671 0.383415
vt 0.594579 0.355139
vt 0.594579 0.383411
vt 0.448139 0.383415
vt 0.448138 0.355146
vt 0.594579 0.254336
vt 0.448131 0.254337
vt 0.594579 0.229068
vt 0.448129 0.229065
vt 0.742226 0.254337
vt 0.594637 0.254338
vt 0.742224 0.229065
vt 0.594634 0.229062
vt 0.742233 0.355146
vt 0.742234 0.383415
vt 0.594653 0.383418
vt 0.594651 0.355153
vn -0.600661 -0.653567 -0.460496
vn -0.536707 -0.653567 -0.533663
vn 0.031948 -0.648378 0.760648
vn 0.129146 -0.648378 0.750284
vn 0.601542 0.649072 0.465674
vn 0.536917 0.649072 0.538911
vn -0.027092 0.654259 -0.755785
vn -0.123707 0.654260 -0.746084
vn 0.069969 0.654260 -0.753026
vn 0.463440 0.649073 0.603265
vn 0.379430 0.653039 0.655418
vn 0.168033 0.650404 -0.740769
vn -0.065776 -0.648377 0.758472
vn -0.463905 -0.653567 -0.598032
vn -0.377179 -0.659029 -0.650705
vn -0.161157 -0.645889 0.746228
vn 0.361509 -0.653564 -0.664955
vn 0.457645 -0.601102 0.655163
vn 0.747385 0.463352 0.476153
vn 0.689208 0.465265 -0.555446
vn -0.749449 -0.653566 -0.105721
vn -0.729726 -0.653566 -0.200876
vn 0.401757 -0.648378 0.646682
vn 0.481304 -0.648379 0.589874
vn 0.752761 0.649072 0.109800
vn 0.732488 0.649072 0.205346
vn -0.395139 0.654261 -0.644832
vn -0.474505 0.654260 -0.588888
vn -0.309258 0.654261 -0.690147
vn 0.700140 0.649072 0.297506
vn 0.656250 0.649072 0.384763
vn -0.218282 0.654260 -0.724083
vn 0.315587 -0.648378 0.692828
vn -0.697973 -0.653566 -0.292721
vn -0.654713 -0.653567 -0.379739
vn 0.224214 -0.648378 0.727553
vn -0.601350 -0.311613 0.735715
vn -0.734211 -0.653566 0.183807
vn 0.667770 -0.648378 0.365636
vn 0.552634 -0.297962 0.778341
vn 0.581373 0.740967 0.336115
vn 0.738812 0.649073 -0.181275
vn -0.661096 0.654261 -0.367280
vn -0.570022 0.774851 0.273277
vn -0.608588 0.654260 -0.448959
vn 0.755950 0.649072 -0.085118
vn 0.760626 0.649071 0.012443
vn -0.546047 0.654260 -0.523237
vn 0.615416 -0.648378 0.448184
vn -0.751710 -0.653566 0.088220
vn -0.756818 -0.653566 -0.008824
vn 0.552918 -0.648379 0.523342
s 1
f 8/3/1 19/19/2 20/20/3 6/4/4
f 3/2/5 17/17/6 18/18/7 4/1/8
f 10/10/9 9/9/10 15/22/11 16/21/12
f 12/12/13 11/11/14 13/24/15 14/23/16
f 14/14/16 13/13/15 7/7/17 5/8/18
f 16/16/12 15/15/11 1/6/19 2/5/20
f 18/18/7 17/17/6 9/9/10 10/10/9
f 20/20/3 19/19/2 11/11/14 12/12/13
f 24/26/21 35/25/22 36/27/23 23/28/24
f 21/31/25 33/32/26 34/30/27 22/29/28
f 26/33/29 25/34/30 31/35/31 32/36/32
f 28/39/33 27/37/34 29/38/35 30/40/36
f 30/43/36 29/41/35 8/42/1 6/44/4
f 32/45/32 31/46/31 3/47/5 4/48/8
f 34/30/27 33/32/26 25/34/30 26/33/29
f 36/27/23 35/25/22 27/37/34 28/39/33
f 40/50/37 51/49/38 52/51/39 39/52/40
f 37/55/41 49/56/42 50/54/43 38/53/44
f 42/57/45 41/58/46 47/59/47 48/60/48
f 44/63/49 43/61/50 45/62/51 46/64/52
f 46/67/52 45/65/51 24/66/21 23/68/24
f 48/69/48 47/70/47 21/71/25 22/72/28
f 50/54/43 49/56/42 41/58/46 42/57/45
f 52/51/39 51/49/38 43/61/50 44/63/49
f 14/14/16 5/8/18 1/6/19 15/15/11
f 5/8/18 7/7/17 2/5/20 1/6/19
f 7/7/17 13/13/15 16/16/12 2/5/20
f 13/24/15 11/11/14 10/10/9 16/21/12
f 11/11/14 19/19/2 18/18/7 10/10/9
f 19/19/2 8/3/1 4/1/8 18/18/7
f 8/42/1 29/41/35 32/45/32 4/48/8
f 29/38/35 27/37/34 26/33/29 32/36/32
f 27/37/34 35/25/22 34/30/27 26/33/29
f 35/25/22 24/26/21 22/29/28 34/30/27
f 24/66/21 45/65/51 48/69/48 22/72/28
f 45/62/51 43/61/50 42/57/45 48/60/48
f 43/61/50 51/49/38 50/54/43 42/57/45
f 51/49/38 40/50/37 38/53/44 50/54/43
f 40/50/37 39/52/40 37/55/41 38/53/44
f 39/52/40 52/51/39 49/56/42 37/55/41
f 52/51/39 44/63/49 41/58/46 49/56/42
f 44/63/49 46/64/52 47/59/47 41/58/46
f 46/67/52 23/68/24 21/71/25 47/70/47
f 23/28/24 36/27/23 33/32/26 21/31/25
f 36/27/23 28/39/33 25/34/30 33/32/26
f 28/39/33 30/40/36 31/35/31 25/34/30
f 30/43/36 6/44/4 3/47/5 31/46/31
f 6/4/4 20/20/3 17/17/6 3/2/5
f 20/20/3 12/12/13 9/9/10 17/17/6
f 12/12/13 14/23/16 15/22/11 9/9/10
