# This file uses centimeters as units for non-parametric coordinates.

v 6.114489 -7.709923 -5.823171
v 6.105674 -7.706155 -6.157879
v 1.994215 -3.667871 -4.189562
v 1.758716 -3.665041 -4.427508
v 5.900009 -9.100808 -5.826424
v 1.453054 -4.659161 -3.595447
v 5.847745 -9.097021 -6.159839
v 1.185789 -4.656698 -3.801435
v 3.885539 -5.718843 -5.403718
v 3.754508 -5.715273 -5.711827
v 2.983527 -6.634562 -5.341834
v 3.156470 -6.637951 -5.052047
v 0.174505 0.331787 -0.092717
v -0.159838 0.331980 -0.108781
v 0.700174 -1.665170 -2.370600
v 0.394217 -1.663527 -2.506414
v 0.095633 -2.685720 -1.716575
v 0.419413 -2.686865 -1.621666
v -0.141062 -1.166795 0.079392
v 0.194910 -1.166781 0.079392
vt 0.043558 0.045208
vt 0.031507 0.034439
vt 0.035982 0.030797
vt 0.047385 0.042462
vt 0.046311 0.043271
vt 0.035511 0.031770
vt 0.031276 0.035430
vt 0.042692 0.046083
vt 0.020361 0.020998
vt 0.020152 0.019998
vt 0.018835 0.026366
vt 0.019268 0.027334
vt 0.059382 0.073117
vt 0.053288 0.058317
vt 0.055945 0.056265
vt 0.059723 0.067946
vt 0.051916 0.058957
vt 0.057694 0.073436
vt 0.058003 0.068221
vt 0.054423 0.056801
vn -0.188468 0.549351 -0.814060
vn 0.121763 0.542062 -0.831470
vn -0.714436 -0.566744 -0.410344
vn -0.822704 -0.556278 -0.117098
vn 0.230270 -0.530264 0.815963
vn -0.084749 -0.523278 0.847938
vn 0.715927 0.539068 0.443683
vn 0.836449 0.527536 0.148522
vn 0.412699 -0.579113 0.703070
vn 0.083333 -0.750484 -0.655614
vn 0.718707 0.296117 -0.629106
vn 0.888176 0.297625 0.350090
vn -0.675427 0.726012 0.129248
vn -0.470085 0.559755 -0.682418
vn -0.817516 -0.546463 0.181783
vn -0.575864 -0.320920 0.751925
vn 0.834336 0.529792 -0.152327
vn 0.728582 0.569066 0.381225
vn 0.401612 -0.310059 0.861726
vn 0.499947 -0.535984 0.680275
s 1
f 4/1/1 10/2/2 11/3/3 8/4/4
f 6/5/5 8/4/4 11/3/3 12/6/6
f 9/7/7 3/8/8 6/5/5 12/6/6
f 4/1/1 3/8/8 9/7/7 10/2/2
f 5/9/9 7/10/10 2/11/11 1/12/12
f 10/2/2 9/7/7 1/12/12 2/11/11
f 10/2/2 2/11/11 7/10/10 11/3/3
f 12/6/6 11/3/3 7/10/10 5/9/9
f 5/9/9 1/12/12 9/7/7 12/6/6
f 14/13/13 16/14/14 17/15/15 19/16/16
f 15/17/17 13/18/18 20/19/19 18/20/20
f 14/13/13 13/18/18 15/17/17 16/14/14
f 16/14/14 15/17/17 3/8/8 4/1/1
f 16/14/14 4/1/1 8/4/4 17/15/15
f 18/20/20 17/15/15 8/4/4 6/5/5
f 6/5/5 3/8/8 15/17/17 18/20/20
f 20/19/19 19/16/16 17/15/15 18/20/20
f 14/13/13 19/16/16 20/19/19 13/18/18
