# This file uses centimeters as units for non-parametric coordinates.

v -11.920715 -7.568407 -11.693027
v -11.918510 -7.568407 -12.027753
v -6.114601 -4.943071 -10.126365
v -5.948128 -4.943071 -10.416764
v -11.897823 -8.885476 -11.678722
v -5.702343 -6.090657 -9.877203
v -11.881866 -8.885475 -12.015737
v -5.522768 -6.090657 -10.162840
v -8.916454 -6.255739 -11.284757
v -8.829254 -6.255739 -11.607927
v -8.353325 -7.403325 -11.470444
v -8.454411 -7.403325 -11.148548
v -9.870754 -8.059660 -11.841836
v -9.929764 -8.059660 -11.509641
v -10.405453 -6.912073 -11.585523
v -10.360378 -6.912073 -11.917207
v -7.478268 -5.599405 -10.795683
v -7.350376 -5.599405 -11.105018
v -6.895988 -6.746991 -10.907686
v -7.037483 -6.746991 -10.601396
v -1.828703 -2.317734 -5.907776
v -1.540976 -2.317734 -6.078823
v -1.592190 -3.465321 -5.488133
v -1.295395 -3.465320 -5.648591
v -3.699142 -3.630402 -8.293927
v -3.464334 -3.630403 -8.532483
v -3.117474 -4.777989 -8.178793
v -3.363745 -4.777989 -7.948172
v -4.256304 -5.434323 -9.248182
v -4.470997 -5.434323 -8.987908
v -4.847933 -4.286737 -9.287838
v -4.645624 -4.286736 -9.554514
v -2.687172 -2.974068 -7.161015
v -2.423733 -2.974068 -7.367517
v -2.125051 -4.121655 -6.972299
v -2.398840 -4.121654 -6.775134
v -0.170334 0.307603 -0.127186
v 0.164309 0.307603 -0.134689
v -0.170675 -0.839984 0.354518
v 0.166664 -0.839984 0.360693
v -0.626110 -1.005066 -3.124607
v -0.304359 -1.005066 -3.216913
v -0.176184 -2.152652 -2.738394
v -0.504015 -2.152652 -2.658634
v -0.642181 -2.808986 -4.229492
v -0.957092 -2.808986 -4.108385
v -1.137888 -1.661400 -4.554872
v -0.830614 -1.661400 -4.687643
v -0.301809 -0.348732 -1.640557
v 0.029114 -0.348732 -1.690876
v 0.094923 -1.496318 -1.199878
v -0.240427 -1.496318 -1.162780
vt 0.885677 0.254336
vt 0.742678 0.254336
vt 0.742680 0.229064
vt 0.885680 0.229060
vt 0.885662 0.383420
vt 0.742671 0.383415
vt 0.742672 0.355146
vt 0.885664 0.355153
vt 0.594579 0.355139
vt 0.594579 0.383411
vt 0.448139 0.383415
vt 0.448138 0.355146
vt 0.594579 0.229068
vt 0.594579 0.254336
vt 0.448131 0.254337
vt 0.448129 0.229065
vt 0.742224 0.229065
vt 0.742226 0.254337
vt 0.594637 0.254338
vt 0.594634 0.229062
vt 0.742233 0.355146
vt 0.742234 0.383415
vt 0.594653 0.383418
vt 0.594651 0.355153
vt 0.885677 0.254336
vt 0.742678 0.254336
vt 0.742680 0.229064
vt 0.885680 0.229060
vt 0.885662 0.383420
vt 0.742671 0.383415
vt 0.742672 0.355146
vt 0.885664 0.355153
vt 0.594579 0.355139
vt 0.594579 0.383411
vt 0.448139 0.383415
vt 0.448138 0.355146
vt 0.594579 0.229068
vt 0.594579 0.254336
vt 0.448131 0.254337
vt 0.448129 0.229065
vt 0.742224 0.229065
vt 0.742226 0.254337
vt 0.594637 0.254338
vt 0.594634 0.229062
vt 0.742233 0.355146
vt 0.742234 0.383415
vt 0.594653 0.383418
vt 0.594651 0.355153
vt 0.885677 0.254336
vt 0.742678 0.254336
vt 0.742680 0.229064
vt 0.885680 0.229060
vt 0.885662 0.383420
vt 0.742671 0.383415
vt 0.742672 0.355146
vt 0.885664 0.355153
vt 0.594579 0.355139
vt 0.594579 0.383411
vt 0.448139 0.383415
vt 0.448138 0.355146
vt 0.594579 0.229068
vt 0.594579 0.254336
vt 0.448131 0.254337
vt 0.448129 0.229065
vt 0.742224 0.229065
vt 0.742226 0.254337
vt 0.594637 0.254338
vt 0.594634 0.229062
vt 0.742233 0.355146
vt 0.742234 0.383415
vt 0.594653 0.383418
vt 0.594651 0.355153
vn 0.600661 -0.653567 -0.460496
vn -0.129146 -0.648378 0.750284
vn -0.031948 -0.648378 0.760648
vn 0.536707 -0.653567 -0.533663
vn -0.601542 0.649072 0.465674
vn 0.123707 0.654260 -0.746084
vn 0.027092 0.654259 -0.755785
vn -0.536917 0.649072 0.538911
vn -0.069969 0.654260 -0.753026
vn -0.168033 0.650404 -0.740769
vn -0.379430 0.653039 0.655418
vn -0.463440 0.649073 0.603265
vn 0.065776 -0.648377 0.758472
vn 0.161157 -0.645889 0.746228
vn 0.377179 -0.659029 -0.650705
vn 0.463905 -0.653567 -0.598032
vn 0.161157 -0.645889 0.746228
vn -0.457645 -0.601102 0.655163
vn -0.361509 -0.653564 -0.664955
vn 0.377179 -0.659029 -0.650705
vn -0.168033 0.650404 -0.740769
vn -0.689208 0.465265 -0.555446
vn -0.747385 0.463352 0.476153
vn -0.379430 0.653039 0.655418
vn 0.027092 0.654259 -0.755785
vn -0.069969 0.654260 -0.753026
vn -0.463440 0.649073 0.603265
vn -0.536917 0.649072 0.538911
vn -0.031948 -0.648378 0.760648
vn 0.065776 -0.648377 0.758472
vn 0.463905 -0.653567 -0.598032
vn 0.536707 -0.653567 -0.533663
vn 0.749449 -0.653566 -0.105721
vn -0.481304 -0.648379 0.589874
vn -0.401757 -0.648378 0.646682
vn 0.729726 -0.653566 -0.200876
vn -0.752761 0.649072 0.109800
vn 0.474505 0.654260 -0.588888
vn 0.395139 0.654261 -0.644832
vn -0.732488 0.649072 0.205346
vn 0.309258 0.654261 -0.690147
vn 0.218282 0.654260 -0.724083
vn -0.656250 0.649072 0.384763
vn -0.700140 0.649072 0.297506
vn -0.315587 -0.648378 0.692828
vn -0.224214 -0.648378 0.727553
vn 0.654713 -0.653567 -0.379739
vn 0.697973 -0.653566 -0.292721
vn -0.224214 -0.648378 0.727553
vn -0.129146 -0.648378 0.750284
vn 0.600661 -0.653567 -0.460496
vn 0.654713 -0.653567 -0.379739
vn 0.218282 0.654260 -0.724083
vn 0.123707 0.654260 -0.746084
vn -0.601542 0.649072 0.465674
vn -0.656250 0.649072 0.384763
vn 0.395139 0.654261 -0.644832
vn 0.309258 0.654261 -0.690147
vn -0.700140 0.649072 0.297506
vn -0.732488 0.649072 0.205346
vn -0.401757 -0.648378 0.646682
vn -0.315587 -0.648378 0.692828
vn 0.697973 -0.653566 -0.292721
vn 0.729726 -0.653566 -0.200876
vn 0.601350 -0.311613 0.735715
vn -0.552634 -0.297962 0.778341
vn -0.667770 -0.648378 0.365636
vn 0.734211 -0.653566 0.183807
vn -0.581373 0.740967 0.336115
vn 0.570022 0.774851 0.273277
vn 0.661096 0.654261 -0.367280
vn -0.738812 0.649073 -0.181275
vn 0.608588 0.654260 -0.448959
vn 0.546047 0.654260 -0.523237
vn -0.760626 0.649071 0.012443
vn -0.755950 0.649072 -0.085118
vn -0.615416 -0.648378 0.448184
vn -0.552918 -0.648379 0.523342
vn 0.756818 -0.653566 -0.008824
vn 0.751710 -0.653566 0.088220
vn -0.552918 -0.648379 0.523342
vn -0.481304 -0.648379 0.589874
vn 0.749449 -0.653566 -0.105721
vn 0.756818 -0.653566 -0.008824
vn 0.546047 0.654260 -0.523237
vn 0.474505 0.654260 -0.588888
vn -0.752761 0.649072 0.109800
vn -0.760626 0.649071 0.012443
vn 0.661096 0.654261 -0.367280
vn 0.608588 0.654260 -0.448959
vn -0.755950 0.649072 -0.085118
vn -0.738812 0.649073 -0.181275
vn -0.667770 -0.648378 0.365636
vn -0.615416 -0.648378 0.448184
vn 0.751710 -0.653566 0.088220
vn 0.734211 -0.653566 0.183807
vn 0.161157 -0.645889 0.746228
vn -0.379430 0.653039 0.655418
vn -0.747385 0.463352 0.476153
vn -0.457645 -0.601102 0.655163
vn -0.457645 -0.601102 0.655163
vn -0.747385 0.463352 0.476153
vn -0.689208 0.465265 -0.555446
vn -0.361509 -0.653564 -0.664955
vn -0.361509 -0.653564 -0.664955
vn -0.689208 0.465265 -0.555446
vn -0.168033 0.650404 -0.740769
vn 0.377179 -0.659029 -0.650705
vn 0.377179 -0.659029 -0.650705
vn -0.168033 0.650404 -0.740769
vn -0.069969 0.654260 -0.753026
vn 0.463905 -0.653567 -0.598032
vn 0.463905 -0.653567 -0.598032
vn -0.069969 0.654260 -0.753026
vn 0.027092 0.654259 -0.755785
vn 0.536707 -0.653567 -0.533663
vn 0.536707 -0.653567 -0.533663
vn 0.027092 0.654259 -0.755785
vn 0.123707 0.654260 -0.746084
vn 0.600661 -0.653567 -0.460496
vn 0.600661 -0.653567 -0.460496
vn 0.123707 0.654260 -0.746084
vn 0.218282 0.654260 -0.724083
vn 0.654713 -0.653567 -0.379739
vn 0.654713 -0.653567 -0.379739
vn 0.218282 0.654260 -0.724083
vn 0.309258 0.654261 -0.690147
vn 0.697973 -0.653566 -0.292721
vn 0.697973 -0.653566 -0.292721
vn 0.309258 0.654261 -0.690147
vn 0.395139 0.654261 -0.644832
vn 0.729726 -0.653566 -0.200876
vn 0.729726 -0.653566 -0.200876
vn 0.395139 0.654261 -0.644832
vn 0.474505 0.654260 -0.588888
vn 0.749449 -0.653566 -0.105721
vn 0.749449 -0.653566 -0.105721
vn 0.474505 0.654260 -0.588888
vn 0.546047 0.654260 -0.523237
vn 0.756818 -0.653566 -0.008824
vn 0.756818 -0.653566 -0.008824
vn 0.546047 0.654260 -0.523237
vn 0.608588 0.654260 -0.448959
vn 0.751710 -0.653566 0.088220
vn 0.751710 -0.653566 0.088220
vn 0.608588 0.654260 -0.448959
vn 0.661096 0.654261 -0.367280
vn 0.734211 -0.653566 0.183807
vn 0.734211 -0.653566 0.183807
vn 0.661096 0.654261 -0.367280
vn 0.570022 0.774851 0.273277
vn 0.601350 -0.311613 0.735715
vn 0.601350 -0.311613 0.735715
vn 0.570022 0.774851 0.273277
vn -0.581373 0.740967 0.336115
vn -0.552634 -0.297962 0.778341
vn -0.552634 -0.297962 0.778341
vn -0.581373 0.740967 0.336115
vn -0.738812 0.649073 -0.181275
vn -0.667770 -0.648378 0.365636
vn -0.667770 -0.648378 0.365636
vn -0.738812 0.649073 -0.181275
vn -0.755950 0.649072 -0.085118
vn -0.615416 -0.648378 0.448184
vn -0.615416 -0.648378 0.448184
vn -0.755950 0.649072 -0.085118
vn -0.760626 0.649071 0.012443
vn -0.552918 -0.648379 0.523342
vn -0.552918 -0.648379 0.523342
vn -0.760626 0.649071 0.012443
vn -0.752761 0.649072 0.109800
vn -0.481304 -0.648379 0.589874
vn -0.481304 -0.648379 0.589874
vn -0.752761 0.649072 0.109800
vn -0.732488 0.649072 0.205346
vn -0.401757 -0.648378 0.646682
vn -0.401757 -0.648378 0.646682
vn -0.732488 0.649072 0.205346
vn -0.700140 0.649072 0.297506
vn -0.315587 -0.648378 0.692828
vn -0.315587 -0.648378 0.692828
vn -0.700140 0.649072 0.297506
vn -0.656250 0.649072 0.384763
vn -0.224214 -0.648378 0.727553
vn -0.224214 -0.648378 0.727553
vn -0.656250 0.649072 0.384763
vn -0.601542 0.649072 0.465674
vn -0.129146 -0.648378 0.750284
vn -0.129146 -0.648378 0.750284
vn -0.601542 0.649072 0.465674
vn -0.536917 0.649072 0.538911
vn -0.031948 -0.648378 0.760648
vn -0.031948 -0.648378 0.760648
vn -0.536917 0.649072 0.538911
vn -0.463440 0.649073 0.603265
vn 0.065776 -0.648377 0.758472
vn 0.065776 -0.648377 0.758472
vn -0.463440 0.649073 0.603265
vn -0.379430 0.653039 0.655418
vn 0.161157 -0.645889 0.746228
s off
f 8/1/1 6/4/2 20/3/3 19/2/4
f 3/5/5 4/8/6 18/7/7 17/6/8
f 10/9/9 16/12/10 15/11/11 9/10/12
f 12/13/13 14/16/14 13/15/15 11/14/16
f 14/17/17 5/20/18 7/19/19 13/18/20
f 16/21/21 2/24/22 1/23/23 15/22/24
f 18/7/25 10/9/26 9/10/27 17/6/28
f 20/3/29 12/13/30 11/14/31 19/2/32
f 24/25/33 23/28/34 36/27/35 35/26/36
f 21/29/37 22/32/38 34/31/39 33/30/40
f 26/33/41 32/36/42 31/35/43 25/34/44
f 28/37/45 30/40/46 29/39/47 27/38/48
f 30/41/49 6/44/50 8/43/51 29/42/52
f 32/45/53 4/48/54 3/47/55 31/46/56
f 34/31/57 26/33/58 25/34/59 33/30/60
f 36/27/61 28/37/62 27/38/63 35/26/64
f 40/49/65 39/52/66 52/51/67 51/50/68
f 37/53/69 38/56/70 50/55/71 49/54/72
f 42/57/73 48/60/74 47/59/75 41/58/76
f 44/61/77 46/64/78 45/63/79 43/62/80
f 46/65/81 23/68/82 24/67/83 45/66/84
f 48/69/85 22/72/86 21/71/87 47/70/88
f 50/55/89 42/57/90 41/58/91 49/54/92
f 52/51/93 44/61/94 43/62/95 51/50/96
f 14/17/97 15/22/98 1/23/99 5/20/100
f 5/20/101 1/23/102 2/24/103 7/19/104
f 7/19/105 2/24/106 16/21/107 13/18/108
f 13/15/109 16/12/110 10/9/111 11/14/112
f 11/14/113 10/9/114 18/7/115 19/2/116
f 19/2/117 18/7/118 4/8/119 8/1/120
f 8/43/121 4/48/122 32/45/123 29/42/124
f 29/39/125 32/36/126 26/33/127 27/38/128
f 27/38/129 26/33/130 34/31/131 35/26/132
f 35/26/133 34/31/134 22/32/135 24/25/136
f 24/67/137 22/72/138 48/69/139 45/66/140
f 45/63/141 48/60/142 42/57/143 43/62/144
f 43/62/145 42/57/146 50/55/147 51/50/148
f 51/50/149 50/55/150 38/56/151 40/49/152
f 40/49/153 38/56/154 37/53/155 39/52/156
f 39/52/157 37/53/158 49/54/159 52/51/160
f 52/51/161 49/54/162 41/58/163 44/61/164
f 44/61/165 41/58/166 47/59/167 46/64/168
f 46/65/169 47/70/170 21/71/171 23/68/172
f 23/28/173 21/29/174 33/30/175 36/27/176
f 36/27/177 33/30/178 25/34/179 28/37/180
f 28/37/181 25/34/182 31/35/183 30/40/184
f 30/41/185 31/46/186 3/47/187 6/44/188
f 6/4/189 3/5/190 17/6/191 20/3/192
f 20/3/193 17/6/194 9/10/195 12/13/196
f 12/13/197 9/10/198 15/11/199 14/16/200
