# This file uses centimeters as units for non-parametric coordinates.

v 11.920715 -6.570910 -11.792019
v 11.918510 -6.570910 -12.126745
v 6.114601 -3.945574 -10.126364
v 5.948128 -3.945574 -10.416764
v 11.897823 -8.885475 -11.777715
v 5.702343 -6.090658 -9.877203
v 11.881866 -8.885475 -12.114730
v 5.522768 -6.090656 -10.162840
v 8.916454 -5.258242 -11.284756
v 8.829254 -5.258242 -11.607927
v 8.353325 -7.403326 -11.470444
v 8.454411 -7.403326 -11.148548
v 1.828703 -1.320236 -5.907776
v 1.540976 -1.320236 -6.078823
v 1.592190 -3.465321 -5.488133
v 1.295395 -3.465321 -5.648592
v 3.699142 -2.632906 -8.293927
v 3.464334 -2.632906 -8.532482
v 3.117474 -4.777988 -8.178793
v 3.363745 -4.777988 -7.948172
v 0.170334 1.305099 -0.127186
v -0.164309 1.305099 -0.134689
v 0.170675 -0.839983 0.354518
v -0.166664 -0.839983 0.360693
v 0.626110 -0.007568 -3.124607
v 0.304359 -0.007568 -3.216913
v 0.176184 -2.152653 -2.738394
v 0.504015 -2.152653 -2.658634
vt 0.030963 0.026293
vt 0.019991 0.021262
vt 0.021761 0.015174
vt 0.032639 0.020471
vt 0.032214 0.021146
vt 0.021638 0.015891
vt 0.019918 0.021976
vt 0.030588 0.026973
vt 0.009078 0.018635
vt 0.009169 0.011997
vt 0.008982 0.011285
vt 0.008845 0.017934
vt 0.049559 0.041031
vt 0.041039 0.032946
vt 0.042511 0.027366
vt 0.050730 0.035655
vt 0.049804 0.036118
vt 0.041813 0.027955
vt 0.040387 0.033546
vt 0.048672 0.041513
vt 0.060193 0.055156
vt 0.059828 0.060292
vt 0.055962 0.050266
vt 0.056756 0.045041
vt 0.059004 0.055289
vt 0.055663 0.045349
vt 0.058658 0.060451
vt 0.054899 0.050597
vn -0.514687 0.000568 -0.857378
vn -0.291378 -0.006010 -0.956589
vn -0.291378 -0.006010 -0.956589
vn -0.514687 0.000568 -0.857378
vn -0.330081 -0.920861 0.207513
vn -0.330081 -0.920861 0.207513
vn -0.368641 -0.922278 0.116218
vn -0.368641 -0.922278 0.116218
vn 0.515096 0.000565 0.857132
vn 0.292148 0.007179 0.956346
vn 0.292148 0.007179 0.956346
vn 0.515096 0.000565 0.857132
vn 0.338254 0.920861 -0.193905
vn 0.338254 0.920861 -0.193905
vn 0.375715 0.921163 -0.101474
vn 0.375715 0.921163 -0.101474
vn 0.999550 -0.013009 -0.027025
vn 0.999550 -0.013009 -0.027025
vn 0.999550 -0.013009 -0.027025
vn 0.999550 -0.013009 -0.027025
vn 0.387635 0.920307 -0.052678
vn 0.387635 0.920307 -0.052678
vn -0.178206 -0.012501 -0.983914
vn -0.178206 -0.012501 -0.983914
vn -0.379920 -0.922554 0.067486
vn -0.379920 -0.922554 0.067486
vn 0.179319 0.013700 0.983696
vn 0.179319 0.013700 0.983696
vn -0.869689 0.000568 -0.493599
vn -0.715687 0.000568 -0.698421
vn -0.715687 0.000568 -0.698421
vn -0.869689 0.000568 -0.493599
vn -0.185426 -0.920861 0.342975
vn -0.185426 -0.920861 0.342975
vn -0.266504 -0.920861 0.284588
vn -0.266504 -0.920861 0.284588
vn 0.869925 0.000565 0.493184
vn 0.716021 0.000565 0.698079
vn 0.716021 0.000565 0.698079
vn 0.869925 0.000565 0.493184
vn 0.199234 0.920861 -0.335143
vn 0.199234 0.920861 -0.335143
vn 0.277867 0.920861 -0.273504
vn 0.277867 0.920861 -0.273504
vn -0.991461 0.000563 -0.130404
vn -0.991461 0.000563 -0.130404
vn -0.966580 0.000568 -0.256364
vn -0.966580 0.000568 -0.256364
vn -0.043172 -0.919695 0.390253
vn -0.043172 -0.919695 0.390253
vn -0.092171 -0.920861 0.378840
vn -0.092171 -0.920861 0.378840
vn 0.991523 0.000562 0.129930
vn 0.991523 0.000562 0.129930
vn 0.966703 0.000566 0.255902
vn 0.966703 0.000566 0.255902
vn 0.059024 0.919695 -0.388171
vn 0.059024 0.919695 -0.388171
vn 0.107517 0.920861 -0.374773
vn 0.107517 0.920861 -0.374773
vn -0.001927 0.222064 0.975030
vn -0.001927 0.222064 0.975030
vn -0.001927 0.222064 0.975030
vn -0.001927 0.222064 0.975030
s 1
f 4/1/1 10/2/2 11/3/3 8/4/4
s 2
f 6/5/5 8/4/6 11/3/7 12/6/8
s 3
f 6/5/9 12/6/10 9/7/11 3/8/12
s 4
f 4/1/13 3/8/14 9/7/15 10/2/16
s off
f 1/9/17 5/10/18 7/11/19 2/12/20
s 4
f 10/2/16 9/7/15 1/9/21 2/12/22
s 1
f 10/2/2 2/12/23 7/11/24 11/3/3
s 2
f 12/6/8 11/3/7 7/11/25 5/10/26
s 3
f 12/6/10 5/10/27 1/9/28 9/7/11
s 1
f 14/13/29 18/14/30 19/15/31 16/16/32
s 2
f 15/17/33 16/16/34 19/15/35 20/18/36
s 3
f 15/17/37 20/18/38 17/19/39 13/20/40
s 4
f 14/13/41 13/20/42 17/19/43 18/14/44
f 18/14/44 17/19/43 3/8/14 4/1/13
s 1
f 18/14/30 4/1/1 8/4/4 19/15/31
s 2
f 20/18/36 19/15/35 8/4/6 6/5/5
s 3
f 20/18/38 6/5/9 3/8/12 17/19/39
s 1
f 24/21/45 22/22/46 26/23/47 27/24/48
s 2
f 23/25/49 24/21/50 27/24/51 28/26/52
s 3
f 21/27/53 23/25/54 28/26/55 25/28/56
s 4
f 22/22/57 21/27/58 25/28/59 26/23/60
s off
f 24/21/61 23/25/62 21/27/63 22/22/64
s 4
f 26/23/60 25/28/59 13/20/42 14/13/41
s 1
f 26/23/47 14/13/29 16/16/32 27/24/48
s 2
f 28/26/52 27/24/51 16/16/34 15/17/33
s 3
f 28/26/55 15/17/37 13/20/40 25/28/56
