# This file uses centimeters as units for non-parametric coordinates.

v -2.157013 1.000000 -2.278486
v -0.778419 1.000000 3.081633
v 0.267933 -1.000000 3.000004
v -1.234467 -1.000000 -2.773943
v -1.234459 1.000000 -2.773947
v 0.267941 1.000000 3.000006
v -0.778419 -1.000000 3.081635
v -0.965836 1.000000 1.251211
v 0.066486 -1.000000 1.068823
v 0.066498 1.000000 1.068823
v -1.450619 1.000000 -0.595140
v -0.457813 -1.000000 -0.932726
v -0.457806 1.000000 -0.932728
v -5.894493 1.000000 -6.174219
v -5.377068 -1.000000 -7.075586
v -5.377064 1.000000 -7.075592
v -3.143398 1.000000 -3.756855
v -2.325054 -1.000000 -4.396097
v -2.325047 1.000000 -4.396103
v -4.394104 1.000000 -5.174120
v -3.731495 -1.000000 -5.944221
v -3.731491 1.000000 -5.944227
v -7.117874 -1.000000 -7.971413
v -8.488567 -1.000000 -8.489870
v -6.706635 1.000000 -6.626385
v -6.317867 1.000000 -7.566322
v -7.117870 0.430054 -7.971420
v -9.859085 -1.000000 -8.809204
v -8.488567 -0.411996 -8.489872
v -2.157013 -1.000000 -2.278486
v -1.450619 -1.000000 -0.595140
v -0.965836 -1.000000 1.251211
v -5.894493 -1.000000 -6.174219
v -4.394104 -1.000000 -5.174120
v -3.143398 -1.000000 -3.756855
v -6.706635 -1.000000 -6.626385
v -8.715820 -0.411996 -7.436974
v -10.036694 -1.000000 -7.741205
v -7.415947 0.430054 -6.942348
v -8.715820 -1.000000 -7.436974
v -7.415947 -1.000000 -6.942348
vt 2.586142 0.817559
vt 2.255746 1.010324
vt 1.662066 0.686735
vt 1.935194 0.464073
vt 1.935191 -0.233447
vt 2.586138 0.120039
vt 3.606834 0.980241
vt 3.207510 1.117732
vt 3.207509 1.815253
vt 3.606837 1.677762
vt 3.167004 1.237893
vt 2.792017 1.397938
vt 3.167000 0.540372
vt -0.544917 0.174859
vt -0.507962 -0.099368
vt 0.354895 -0.013852
vt 0.235951 0.245296
vt -0.507963 -0.796888
vt 0.354896 -0.711372
vt 1.200712 0.198443
vt 0.995672 0.443801
vt 1.200711 -0.499076
vt -2.004335 -0.784941
vt -2.004335 -0.579869
vt -2.606838 -0.706955
vt -1.364640 -0.316508
vt -1.364641 -0.815252
vt -0.972175 -0.110871
vt -0.950966 0.158091
vt 1.662066 -0.010787
vt 2.255746 0.312803
vt 2.792017 0.700417
vt -0.544917 -0.522663
vt 0.235951 -0.452225
vt 0.995672 -0.253720
vt -0.950966 -0.539431
vt -2.478098 -0.431119
vt -1.898078 -0.302054
vt -1.290884 -0.036417
vt -1.898078 -0.507127
vt -1.290884 -0.535164
vn 0.668627 0.708009 -0.227290
vn 0.620606 0.708747 -0.335448
vn -0.621528 0.708721 0.333794
vn -0.668800 0.707980 0.226873
vn 0.620603 -0.708750 -0.335447
vn 0.620606 0.708747 -0.335448
vn 0.668627 0.708009 -0.227290
vn 0.668624 -0.708012 -0.227289
vn 0.624591 -0.582437 0.520243
vn 0.624593 0.582434 0.520245
vn -0.525228 0.572753 0.629357
vn -0.525228 -0.572753 0.629357
vn 0.694667 0.708130 -0.126454
vn -0.694715 0.708165 0.125987
vn -0.525228 0.572753 0.629357
vn 0.624593 0.582434 0.520245
vn 0.694663 -0.708133 -0.126453
vn 0.694667 0.708130 -0.126454
vn 0.624593 0.582434 0.520245
vn 0.624591 -0.582437 0.520243
vn 0.668627 0.708009 -0.227290
vn -0.668800 0.707980 0.226873
vn -0.694715 0.708165 0.125987
vn 0.694667 0.708130 -0.126454
vn 0.668624 -0.708012 -0.227289
vn 0.668627 0.708009 -0.227290
vn 0.694667 0.708130 -0.126454
vn 0.694663 -0.708133 -0.126453
vn -0.368226 0.707389 0.603333
vn -0.463133 0.710092 0.530356
vn 0.463533 0.709465 -0.530845
vn 0.364148 0.707758 -0.605371
vn 0.350229 -0.707984 -0.613268
vn 0.364148 0.707758 -0.605371
vn 0.463533 0.709465 -0.530845
vn 0.463531 -0.709468 -0.530843
vn 0.555832 0.708042 -0.435576
vn -0.559825 0.707909 0.430652
vn -0.621528 0.708721 0.333794
vn 0.620606 0.708747 -0.335448
vn 0.555830 -0.708045 -0.435574
vn 0.555832 0.708042 -0.435576
vn 0.620606 0.708747 -0.335448
vn 0.620603 -0.708750 -0.335447
vn 0.555832 0.708042 -0.435576
vn 0.463533 0.709465 -0.530845
vn -0.463133 0.710092 0.530356
vn -0.559825 0.707909 0.430652
vn 0.463531 -0.709468 -0.530843
vn 0.463533 0.709465 -0.530845
vn 0.555832 0.708042 -0.435576
vn 0.555830 -0.708045 -0.435574
vn 0.205536 -0.707887 -0.675760
vn -0.148781 -0.075314 -0.985998
vn -0.107817 0.641454 -0.759548
vn -0.080241 0.616715 -0.783086
vn 0.142165 0.673533 -0.725356
vn 0.350229 -0.707984 -0.613268
vn 0.286416 -0.708053 -0.645466
vn 0.350229 -0.707984 -0.613268
vn 0.142165 0.673533 -0.725356
vn 0.364148 0.707758 -0.605371
vn 0.286416 -0.708053 -0.645466
vn 0.205536 -0.707887 -0.675760
vn -0.107817 0.641454 -0.759548
vn -0.080241 0.616715 -0.783086
vn -0.506843 0.647999 0.568513
vn -0.368226 0.707389 0.603333
vn 0.364148 0.707758 -0.605371
vn 0.142165 0.673533 -0.725356
vn -0.621528 -0.708721 0.333794
vn -0.668800 -0.707980 0.226873
vn -0.668800 0.707980 0.226873
vn -0.621528 0.708721 0.333794
vn -0.694715 -0.708165 0.125987
vn -0.525228 -0.572753 0.629357
vn -0.525228 0.572753 0.629357
vn -0.694715 0.708165 0.125987
vn -0.668800 -0.707980 0.226873
vn -0.694715 -0.708165 0.125987
vn -0.694715 0.708165 0.125987
vn -0.668800 0.707980 0.226873
vn -0.368226 -0.707389 0.603333
vn -0.463133 -0.710092 0.530356
vn -0.463133 0.710092 0.530356
vn -0.368226 0.707389 0.603333
vn -0.559825 -0.707909 0.430652
vn -0.621528 -0.708721 0.333794
vn -0.621528 0.708721 0.333794
vn -0.559825 0.707909 0.430652
vn -0.463133 -0.710092 0.530356
vn -0.559825 -0.707909 0.430652
vn -0.559825 0.707909 0.430652
vn -0.463133 0.710092 0.530356
vn -0.316004 -0.707457 0.632176
vn -0.368226 -0.707389 0.603333
vn -0.368226 0.707389 0.603333
vn -0.506843 0.647999 0.568513
vn -0.558749 -0.073349 0.826087
vn -0.509028 0.620583 0.596463
vn -0.107817 0.641454 -0.759548
vn -0.148781 -0.075314 -0.985998
vn -0.617734 0.580946 0.530006
vn -0.506843 0.647999 0.568513
vn 0.142165 0.673533 -0.725356
vn -0.080241 0.616715 -0.783086
vn -0.509028 0.620583 0.596463
vn -0.617734 0.580946 0.530006
vn -0.080241 0.616715 -0.783086
vn -0.107817 0.641454 -0.759548
vn -0.558749 -0.073349 0.826087
vn -0.205334 -0.707939 0.675766
vn -0.509028 0.620583 0.596463
vn -0.617734 0.580946 0.530006
vn -0.269653 -0.707243 0.653525
vn -0.316004 -0.707457 0.632176
vn -0.506843 0.647999 0.568513
vn -0.509028 0.620583 0.596463
vn -0.205334 -0.707939 0.675766
vn -0.269653 -0.707243 0.653525
vn -0.617734 0.580946 0.530006
vn 0.205536 -0.707887 -0.675760
vn -0.205334 -0.707939 0.675766
vn -0.558749 -0.073349 0.826087
vn -0.148781 -0.075314 -0.985998
vn 0.286416 -0.708053 -0.645466
vn -0.269653 -0.707243 0.653525
vn -0.205334 -0.707939 0.675766
vn 0.205536 -0.707887 -0.675760
vn 0.350229 -0.707984 -0.613268
vn -0.316004 -0.707457 0.632176
vn -0.269653 -0.707243 0.653525
vn 0.286416 -0.708053 -0.645466
vn -0.316004 -0.707457 0.632176
vn 0.350229 -0.707984 -0.613268
vn -0.368226 -0.707389 0.603333
vn 0.463531 -0.709468 -0.530843
vn -0.463133 -0.710092 0.530356
vn -0.368226 -0.707389 0.603333
vn 0.350229 -0.707984 -0.613268
vn 0.555830 -0.708045 -0.435574
vn -0.559825 -0.707909 0.430652
vn -0.463133 -0.710092 0.530356
vn 0.463531 -0.709468 -0.530843
vn -0.525228 -0.572753 0.629357
vn -0.694715 -0.708165 0.125987
vn 0.694663 -0.708133 -0.126453
vn 0.624591 -0.582437 0.520243
vn -0.694715 -0.708165 0.125987
vn -0.668800 -0.707980 0.226873
vn 0.668624 -0.708012 -0.227289
vn 0.694663 -0.708133 -0.126453
vn -0.668800 -0.707980 0.226873
vn -0.621528 -0.708721 0.333794
vn 0.620603 -0.708750 -0.335447
vn 0.668624 -0.708012 -0.227289
vn -0.621528 -0.708721 0.333794
vn -0.559825 -0.707909 0.430652
vn 0.555830 -0.708045 -0.435574
vn 0.620603 -0.708750 -0.335447
s off
f 13/1/1 5/4/2 1/3/3 11/2/4
f 4/5/5 5/4/6 13/1/7 12/6/8
f 3/7/9 6/10/10 2/9/11 7/8/12
f 10/11/13 8/12/14 2/9/15 6/10/16
f 9/13/17 10/11/18 6/10/19 3/7/20
f 13/1/21 11/2/22 8/12/23 10/11/24
f 12/6/25 13/1/26 10/11/27 9/13/28
f 14/14/29 20/17/30 22/16/31 16/15/32
f 15/18/33 16/15/34 22/16/35 21/19/36
f 19/20/37 17/21/38 1/3/39 5/4/40
f 18/22/41 19/20/42 5/4/43 4/5/44
f 19/20/45 22/16/46 20/17/47 17/21/48
f 21/19/49 22/16/50 19/20/51 18/22/52
f 24/23/53 28/25/54 29/24/55
f 27/26/56 26/28/57 15/18/58 23/27/59
f 15/18/60 26/28/61 16/15/62
f 23/27/63 24/23/64 29/24/65 27/26/66
f 25/29/67 14/14/68 16/15/69 26/28/70
f 30/30/71 31/31/72 11/2/73 1/3/74
f 32/32/75 7/8/76 2/9/77 8/12/78
f 31/31/79 32/32/80 8/12/81 11/2/82
f 33/33/83 34/34/84 20/17/85 14/14/86
f 35/35/87 30/30/88 1/3/89 17/21/90
f 34/34/91 35/35/92 17/21/93 20/17/94
f 36/36/95 33/33/96 14/14/97 25/29/98
f 38/37/99 37/38/100 29/24/101 28/25/102
f 39/39/103 25/29/104 26/28/105 27/26/106
f 37/38/107 39/39/108 27/26/109 29/24/110
f 38/37/111 40/40/112 37/38/113
f 39/39/114 41/41/115 36/36/116 25/29/117
f 37/38/118 40/40/119 41/41/120 39/39/121
f 24/23/122 40/40/123 38/37/124 28/25/125
f 23/27/126 41/41/127 40/40/128 24/23/129
f 15/18/130 36/36/131 41/41/132 23/27/133
f 36/36/134 15/18/135 33/33/136
f 21/19/137 34/34/138 33/33/139 15/18/140
f 18/22/141 35/35/142 34/34/143 21/19/144
f 7/8/145 32/32/146 9/13/147 3/7/148
f 32/32/149 31/31/150 12/6/151 9/13/152
f 31/31/153 30/30/154 4/5/155 12/6/156
f 30/30/157 35/35/158 18/22/159 4/5/160
