# This file uses centimeters as units for non-parametric coordinates.

v 2.157013 1.000000 -2.278486
v 0.778419 1.000000 3.081633
v -0.267933 -1.000000 3.000004
v 1.234467 -1.000000 -2.773943
v 1.234459 1.000000 -2.773947
v -0.267941 1.000000 3.000006
v 0.778419 -1.000000 3.081635
v 0.965836 1.000000 1.251211
v -0.066486 -1.000000 1.068823
v -0.066498 1.000000 1.068823
v 1.450619 1.000000 -0.595140
v 0.457813 -1.000000 -0.932726
v 0.457806 1.000000 -0.932728
v 5.894493 1.000000 -6.174219
v 5.377068 -1.000000 -7.075586
v 5.377064 1.000000 -7.075592
v 3.143398 1.000000 -3.756855
v 2.325054 -1.000000 -4.396097
v 2.325047 1.000000 -4.396103
v 4.394104 1.000000 -5.174120
v 3.731495 -1.000000 -5.944221
v 3.731491 1.000000 -5.944227
v 7.117874 -1.000000 -7.971413
v 8.488567 -1.000000 -8.489870
v 6.706635 1.000000 -6.626385
v 6.317867 1.000000 -7.566322
v 7.117870 0.430054 -7.971420
v 9.859085 -1.000000 -8.809204
v 8.488567 -0.411996 -8.489872
v 2.157013 -1.000000 -2.278486
v 1.450619 -1.000000 -0.595140
v 0.965836 -1.000000 1.251211
v 5.894493 -1.000000 -6.174219
v 4.394104 -1.000000 -5.174120
v 3.143398 -1.000000 -3.756855
v 6.706635 -1.000000 -6.626385
v 8.715820 -0.411996 -7.436974
v 10.036694 -1.000000 -7.741205
v 7.415947 0.430054 -6.942348
v 8.715820 -1.000000 -7.436974
v 7.415947 -1.000000 -6.942348
vt 2.586142 0.817559
vt 2.255746 1.010324
vt 1.662066 0.686735
vt 1.935194 0.464073
vt 1.935191 -0.233447
vt 2.586138 0.120039
vt 3.606834 0.980241
vt 3.207510 1.117732
vt 3.207509 1.815253
vt 3.606837 1.677762
vt 3.167004 1.237893
vt 2.792017 1.397938
vt 3.167000 0.540372
vt -0.544917 0.174859
vt -0.507962 -0.099368
vt 0.354895 -0.013852
vt 0.235951 0.245296
vt -0.507963 -0.796888
vt 0.354896 -0.711372
vt 1.200712 0.198443
vt 0.995672 0.443801
vt 1.200711 -0.499076
vt -2.004335 -0.784941
vt -2.004335 -0.579869
vt -2.606838 -0.706955
vt -1.364640 -0.316508
vt -1.364641 -0.815252
vt -0.972175 -0.110871
vt -0.950966 0.158091
vt 1.662066 -0.010787
vt 2.255746 0.312803
vt 2.792017 0.700417
vt -0.544917 -0.522663
vt 0.235951 -0.452225
vt 0.995672 -0.253720
vt -0.950966 -0.539431
vt -2.478098 -0.431119
vt -1.898078 -0.302054
vt -1.290884 -0.036417
vt -1.898078 -0.507127
vt -1.290884 -0.535164
vn -0.668627 0.708009 -0.227290
vn 0.668800 0.707980 0.226873
vn 0.621528 0.708721 0.333794
vn -0.620606 0.708747 -0.335448
vn -0.620603 -0.708750 -0.335447
vn -0.668624 -0.708012 -0.227289
vn -0.624591 -0.582437 0.520243
vn 0.525228 -0.572753 0.629357
vn 0.525228 0.572753 0.629357
vn -0.624593 0.582434 0.520245
vn -0.694667 0.708130 -0.126454
vn 0.694715 0.708165 0.125987
vn -0.694663 -0.708133 -0.126453
vn 0.368226 0.707389 0.603333
vn -0.364148 0.707758 -0.605371
vn -0.463533 0.709465 -0.530845
vn 0.463133 0.710092 0.530356
vn -0.350229 -0.707984 -0.613268
vn -0.463531 -0.709468 -0.530843
vn -0.555832 0.708042 -0.435576
vn 0.559825 0.707909 0.430652
vn -0.555830 -0.708045 -0.435574
vn -0.205536 -0.707887 -0.675760
vn 0.107817 0.641454 -0.759548
vn 0.148781 -0.075314 -0.985998
vn 0.080241 0.616715 -0.783086
vn -0.286416 -0.708053 -0.645466
vn -0.142165 0.673533 -0.725356
vn 0.506843 0.647999 0.568513
vn 0.621528 -0.708721 0.333794
vn 0.668800 -0.707980 0.226873
vn 0.694715 -0.708165 0.125987
vn 0.368226 -0.707389 0.603333
vn 0.463133 -0.710092 0.530356
vn 0.559825 -0.707909 0.430652
vn 0.316004 -0.707457 0.632176
vn 0.558749 -0.073349 0.826087
vn 0.509028 0.620583 0.596463
vn 0.617734 0.580946 0.530006
vn 0.205334 -0.707939 0.675766
vn 0.269653 -0.707243 0.653525
s 1
f 13/1/1 11/2/2 1/3/3 5/4/4
f 4/5/5 12/6/6 13/1/1 5/4/4
f 3/7/7 7/8/8 2/9/9 6/10/10
f 10/11/11 6/10/10 2/9/9 8/12/12
f 9/13/13 3/7/7 6/10/10 10/11/11
f 13/1/1 10/11/11 8/12/12 11/2/2
f 12/6/6 9/13/13 10/11/11 13/1/1
f 14/14/14 16/15/15 22/16/16 20/17/17
f 15/18/18 21/19/19 22/16/16 16/15/15
f 19/20/20 5/4/4 1/3/3 17/21/21
f 18/22/22 4/5/5 5/4/4 19/20/20
f 19/20/20 17/21/21 20/17/17 22/16/16
f 21/19/19 18/22/22 19/20/20 22/16/16
f 24/23/23 29/24/24 28/25/25
f 27/26/26 23/27/27 15/18/18 26/28/28
f 15/18/18 16/15/15 26/28/28
f 23/27/27 27/26/26 29/24/24 24/23/23
f 25/29/29 26/28/28 16/15/15 14/14/14
f 30/30/30 1/3/3 11/2/2 31/31/31
f 32/32/32 8/12/12 2/9/9 7/8/8
f 31/31/31 11/2/2 8/12/12 32/32/32
f 33/33/33 14/14/14 20/17/17 34/34/34
f 35/35/35 17/21/21 1/3/3 30/30/30
f 34/34/34 20/17/17 17/21/21 35/35/35
f 36/36/36 25/29/29 14/14/14 33/33/33
f 38/37/37 28/25/25 29/24/24 37/38/38
f 39/39/39 27/26/26 26/28/28 25/29/29
f 37/38/38 29/24/24 27/26/26 39/39/39
f 38/37/37 37/38/38 40/40/40
f 39/39/39 25/29/29 36/36/36 41/41/41
f 37/38/38 39/39/39 41/41/41 40/40/40
f 24/23/23 28/25/25 38/37/37 40/40/40
f 23/27/27 24/23/23 40/40/40 41/41/41
f 15/18/18 23/27/27 41/41/41 36/36/36
f 36/36/36 33/33/33 15/18/18
f 21/19/19 15/18/18 33/33/33 34/34/34
f 18/22/22 21/19/19 34/34/34 35/35/35
f 7/8/8 3/7/7 9/13/13 32/32/32
f 32/32/32 9/13/13 12/6/6 31/31/31
f 31/31/31 12/6/6 4/5/5 30/30/30
f 30/30/30 4/5/5 18/22/22 35/35/35
