# Blender v2.74 (sub 0) OBJ File: ''
# www.blender.org
mtllib Stair_Pool_Collider_03.mtl
o Stair_Pool_Collider_03
v -2.999992 2.000004 1.237200
v -2.999992 2.000000 3.000000
v -1.383842 1.999996 0.843704
v 1.240387 2.000005 -3.000000
v 0.908176 2.000002 -1.524979
v 3.000010 2.000000 -3.000000
v 3.000010 2.000000 3.000000
v 0.110027 1.999997 -0.173441
v -3.000000 -0.202413 -2.052734
v -2.562798 -0.202415 -2.171066
v -2.050591 -0.202413 -3.000000
v -2.203163 -0.202414 -2.501343
v 3.000010 -0.203085 -3.000000
v 3.000010 -0.203085 3.000000
v -2.999992 -0.202682 3.000000
vt 0.049171 0.063483
vt 0.050903 0.068342
vt 0.039990 0.063393
vt 0.021162 0.052249
vt 0.024755 0.057052
vt 0.013557 0.053351
vt 0.020471 0.072749
vt 0.030704 0.061067
vt 0.045081 0.043180
vt 0.042727 0.043118
vt 0.039173 0.040814
vt 0.040522 0.042314
vt 0.013557 0.044521
vt 0.020471 0.063920
vt 0.050903 0.059514
vn -0.746100 0.637400 -0.192700
vn -0.408300 0.816500 0.408300
vn -0.105500 0.955800 -0.274300
vn -0.193400 0.639300 -0.744300
vn -0.275500 0.956000 -0.100900
vn 0.666700 0.666700 -0.333400
vn 0.218200 0.872900 0.436400
vn -0.249300 0.936700 -0.245800
vn -0.709300 0.359000 -0.606700
vn -0.486200 -0.301100 -0.820300
vn -0.601400 0.361400 -0.712500
vn -0.817400 0.279900 -0.503500
vn 0.218100 -0.872900 -0.436500
vn 0.816500 -0.408200 0.408300
vn -0.485100 -0.727600 0.485000
usemtl None
s 1
f 1/1/1 2/2/2 3/3/3
f 4/4/4 5/5/5 6/6/6
f 6/6/6 5/5/5 7/7/7
f 2/2/2 7/7/7 3/3/3
f 5/5/5 8/8/8 7/7/7
f 7/7/7 8/8/8 3/3/3
f 1/1/1 3/3/3 9/9/9
f 9/9/9 3/3/3 10/10/10
f 4/4/4 11/11/11 5/5/5
f 5/5/5 11/11/11 12/12/12
f 8/8/8 5/5/5 12/12/12
f 3/3/3 8/8/8 10/10/10
f 10/10/10 8/8/8 12/12/12
f 11/11/11 4/4/4 13/13/13
f 13/13/13 4/4/4 6/6/6
f 7/7/7 14/14/14 6/6/6
f 6/6/6 14/14/14 13/13/13
f 2/2/2 15/15/15 7/7/7
f 7/7/7 15/15/15 14/14/14
f 9/9/9 15/15/15 1/1/1
f 1/1/1 15/15/15 2/2/2
f 14/14/14 15/15/15 13/13/13
f 11/11/11 13/13/13 12/12/12
f 9/9/9 10/10/10 15/15/15
f 15/15/15 10/10/10 13/13/13
f 10/10/10 12/12/12 13/13/13
