# This file uses centimeters as units for non-parametric coordinates.

v 4.329211 1.000000 -1.956658
v -1.956657 1.000000 4.329211
v -2.000004 -1.000000 3.732067
v 3.732067 -1.000000 -1.999996
v 3.732067 1.000000 -1.999996
v -2.000004 1.000000 3.732067
v -1.956659 -1.000000 4.329211
v 4.329211 -1.000000 -1.956656
v 2.475429 1.000000 2.475429
v 2.036255 1.000000 2.071781
v 2.036255 -1.000000 2.071781
v 3.481257 1.000000 1.164606
v 2.958984 1.000000 0.875334
v 2.958984 -1.000000 0.875334
v -0.513409 -1.000000 3.535952
v -0.361872 1.000000 4.113541
v -0.513409 1.000000 3.535952
v 4.113549 1.000000 -0.361880
v 3.533867 1.000000 -0.504616
v 3.533867 -1.000000 -0.504616
v 1.164605 1.000000 3.481257
v 0.862797 1.000000 2.966011
v 0.862797 -1.000000 2.966011
v 4.113549 -1.000000 -0.361880
v 2.475429 -1.000000 2.475429
v 1.164605 -1.000000 3.481257
v 3.481257 -1.000000 1.164606
v -0.361872 -1.000000 4.113541
vt 0.895361 0.906545
vt 0.885619 0.926963
vt 0.640465 0.884930
vt 0.660692 0.866277
vt 0.660692 0.571793
vt 0.895361 0.612061
vt 0.127846 0.367521
vt 0.127846 0.073037
vt 0.171425 0.077601
vt 0.171425 0.372085
vt 0.885619 0.632479
vt 0.192631 0.604372
vt 0.299216 0.711267
vt 0.259434 0.720772
vt 0.149522 0.609833
vt 0.192631 0.309888
vt 0.299216 0.416783
vt 0.149295 0.489419
vt 0.104640 0.489345
vt 0.149295 0.194935
vt 0.457570 0.799401
vt 0.426886 0.814602
vt 0.457570 0.504918
vt 0.104640 0.194861
vt 0.259434 0.426288
vt 0.426886 0.520118
vt 0.149522 0.315349
vt 0.640465 0.590446
vn 0.000000 0.267141 -0.963657
vn -0.509080 0.589649 0.627019
vn 0.183442 0.710057 0.679830
vn -0.182296 0.710130 -0.680061
vn -0.182296 -0.710130 -0.680061
vn 0.009654 0.004937 -0.999941
vn 0.627014 0.589650 -0.509084
vn 0.627014 -0.589650 -0.509084
vn -0.999990 0.004410 0.001034
vn -0.935073 0.354456 0.000000
vn -0.509080 -0.589648 0.627019
vn -0.608938 0.710147 -0.353392
vn -0.496392 0.710158 -0.499270
vn 0.497847 0.710138 0.497847
vn 0.609736 0.710138 0.352031
vn -0.608937 -0.710148 -0.353392
vn -0.496392 -0.710158 -0.499270
vn -0.679781 0.710165 -0.183206
vn 0.679830 0.710057 0.183441
vn -0.679780 -0.710165 -0.183206
vn -0.351034 0.710063 -0.610399
vn 0.352030 0.710138 0.609736
vn -0.351033 -0.710063 -0.610399
vn 0.679830 -0.710057 0.183441
vn 0.497847 -0.710138 0.497847
vn 0.352030 -0.710138 0.609737
vn 0.609736 -0.710138 0.352031
vn 0.183442 -0.710057 0.679830
s 1
f 6/1/1 2/2/2 16/3/3 17/4/4
f 15/5/5 3/6/6 6/1/1 17/4/4
f 1/7/7 8/8/8 4/9/9 5/10/10
f 3/6/6 7/11/11 2/2/2 6/1/1
f 13/12/12 10/13/13 9/14/14 12/15/15
f 14/16/16 11/17/17 10/13/13 13/12/12
f 19/18/18 13/12/12 12/15/15 18/19/19
f 20/20/20 14/16/16 13/12/12 19/18/18
f 22/21/21 17/4/4 16/3/3 21/22/22
f 23/23/23 15/5/5 17/4/4 22/21/21
f 18/19/19 1/7/7 5/10/10 19/18/18
f 4/9/9 20/20/20 19/18/18 5/10/10
f 21/22/22 9/14/14 10/13/13 22/21/21
f 11/17/17 23/23/23 22/21/21 10/13/13
f 8/8/8 1/7/7 18/19/19 24/24/24
f 25/25/25 9/14/14 21/22/22 26/26/26
f 27/27/27 12/15/15 9/14/14 25/25/25
f 28/28/28 16/3/3 2/2/2 7/11/11
f 24/24/24 18/19/19 12/15/15 27/27/27
f 26/26/26 21/22/22 16/3/3 28/28/28
f 28/28/28 7/11/11 3/6/6 15/5/5
f 26/26/26 28/28/28 15/5/5 23/23/23
f 4/9/9 8/8/8 24/24/24 20/20/20
f 20/20/20 24/24/24 27/27/27 14/16/16
f 14/16/16 27/27/27 25/25/25 11/17/17
f 11/17/17 25/25/25 26/26/26 23/23/23
