# This file uses centimeters as units for non-parametric coordinates.

v -0.000002 0.635102 0.418756
v -0.000002 1.457358 0.504824
v 1.613951 -1.457358 0.418756
v 1.588621 -0.873149 0.418756
v 1.029631 0.121011 0.418756
v 0.556559 0.443302 0.418756
v 1.395426 -0.339116 0.418756
v 2.422924 -1.445843 0.504824
v 2.389009 -0.706868 0.504824
v 1.590637 0.685813 0.504824
v 0.924797 1.150532 0.504824
v 2.127627 0.007357 0.504824
v -1.613951 -1.457358 0.418756
v -1.588621 -0.873149 0.418756
v -1.029634 0.121011 0.418756
v -0.556562 0.443302 0.418756
v -1.395430 -0.339116 0.418756
v -2.422924 -1.445843 0.504824
v -2.389009 -0.706869 0.504824
v -1.590645 0.685813 0.504824
v -0.924801 1.150532 0.504824
v -2.127635 0.007356 0.504824
v -0.000002 0.635102 -0.418756
v -0.000002 1.457358 -0.504824
v 1.613951 -1.457358 -0.418756
v 1.588621 -0.873149 -0.418756
v 1.029631 0.121011 -0.418756
v 0.556559 0.443302 -0.418756
v 1.395426 -0.339116 -0.418756
v 2.422924 -1.445843 -0.504824
v 2.389009 -0.706868 -0.504824
v 1.590637 0.685813 -0.504824
v 0.924797 1.150532 -0.504824
v 2.127627 0.007357 -0.504824
v 2.033950 -1.457358 -0.504824
v 2.001436 -0.774725 -0.504824
v 1.782418 -0.155609 -0.504824
v 1.320995 0.425359 -0.504824
v 0.741628 0.826312 -0.504824
v -0.000002 1.093833 -0.504824
v 1.949216 -1.457358 -0.467291
v 1.918143 -0.795712 -0.467291
v 1.704850 -0.194899 -0.467291
v 1.262706 0.361714 -0.467291
v 0.705140 0.746686 -0.467291
v -0.000002 0.999475 -0.467291
v 1.863501 -1.457358 -0.375124
v 1.833887 -0.816161 -0.375124
v 1.626034 -0.233074 -0.375124
v 1.203406 0.298884 -0.375124
v 0.667644 0.667769 -0.375124
v -0.000002 0.905279 -0.375124
v 1.727336 -1.457358 -0.376162
v 1.700059 -0.847251 -0.376162
v 1.500203 -0.290925 -0.376162
v 1.108583 0.201838 -0.376162
v 0.607029 0.545300 -0.376162
v -0.000002 0.757867 -0.376162
v 1.691750 -1.457358 -0.417352
v 1.665115 -0.852598 -0.417352
v 1.466081 -0.300474 -0.417352
v 1.082589 0.181989 -0.417352
v 0.589100 0.519077 -0.417352
v -0.000002 0.723787 -0.417352
v -1.613951 -1.457358 -0.418756
v -1.588621 -0.873149 -0.418756
v -1.029634 0.121011 -0.418756
v -0.556562 0.443302 -0.418756
v -1.395430 -0.339116 -0.418756
v -2.422924 -1.445843 -0.504824
v -2.389009 -0.706869 -0.504824
v -1.590645 0.685813 -0.504824
v -0.924801 1.150532 -0.504824
v -2.127635 0.007356 -0.504824
v -2.033950 -1.457358 -0.504824
v -2.001436 -0.774725 -0.504824
v -1.782418 -0.155609 -0.504824
v -1.320999 0.425359 -0.504824
v -0.741632 0.826312 -0.504824
v -1.949224 -1.457358 -0.467291
v -1.918143 -0.795712 -0.467291
v -1.704850 -0.194899 -0.467291
v -1.262710 0.361714 -0.467291
v -0.705144 0.746686 -0.467291
v -1.863509 -1.457358 -0.375124
v -1.833887 -0.816161 -0.375124
v -1.626034 -0.233074 -0.375124
v -1.203409 0.298884 -0.375124
v -0.667648 0.667769 -0.375124
v -1.727343 -1.457358 -0.376162
v -1.700067 -0.847251 -0.376162
v -1.500203 -0.290925 -0.376162
v -1.108587 0.201838 -0.376162
v -0.607032 0.545300 -0.376162
v -1.691750 -1.457358 -0.417352
v -1.665115 -0.852598 -0.417352
v -1.466081 -0.300474 -0.417352
v -1.082593 0.181989 -0.417352
v -0.589104 0.519077 -0.417352
vt 0.272354 0.232667
vt 0.272295 0.173527
vt 0.272355 0.173527
vt 0.272355 0.118899
vt 0.272355 0.232699
vt 0.272354 0.064210
vt 0.272354 0.005860
vt 0.272355 0.118899
vt 0.232806 0.232667
vt 0.232806 0.173527
vt 0.232806 0.064210
vt 0.232806 0.005860
vt 0.232806 0.118899
vt 0.232806 0.173527
vt 0.232806 0.118899
vt 0.232806 0.232699
vt 0.272354 0.232667
vt 0.272295 0.173527
vt 0.272355 0.173527
vt 0.272355 0.118899
vt 0.272355 0.232699
vt 0.272354 0.064210
vt 0.272354 0.005860
vt 0.272355 0.118899
vt 0.232806 0.232667
vt 0.232806 0.173527
vt 0.232806 0.005860
vt 0.232806 0.064210
vt 0.232806 0.118899
vt 0.232806 0.118899
vt 0.232806 0.173527
vt 0.232806 0.232699
vt 0.272354 0.232667
vt 0.268650 0.232667
vt 0.268656 0.173527
vt 0.272295 0.173527
vt 0.272355 0.173527
vt 0.268651 0.173527
vt 0.268651 0.118899
vt 0.272355 0.118899
vt 0.268651 0.232699
vt 0.272355 0.232699
vt 0.272354 0.064210
vt 0.268650 0.064210
vt 0.268650 0.005860
vt 0.272354 0.005860
vt 0.272355 0.118899
vt 0.268651 0.118899
vt 0.176275 0.173527
vt 0.232806 0.173527
vt 0.232806 0.232667
vt 0.176169 0.232667
vt 0.232806 0.005860
vt 0.232806 0.064210
vt 0.176170 0.064210
vt 0.176169 0.005860
vt 0.232806 0.118899
vt 0.176170 0.118899
vt 0.232806 0.118899
vt 0.232806 0.173527
vt 0.176170 0.173527
vt 0.176170 0.118899
vt 0.232806 0.232699
vt 0.176170 0.232699
vt 0.246680 0.173527
vt 0.246751 0.232667
vt 0.246751 0.005860
vt 0.246752 0.064210
vt 0.246753 0.118899
vt 0.246753 0.118899
vt 0.246753 0.173527
vt 0.246753 0.232699
vt 0.251132 0.232667
vt 0.251071 0.173527
vt 0.251133 0.064210
vt 0.251132 0.005860
vt 0.251133 0.118899
vt 0.251133 0.173527
vt 0.251133 0.118899
vt 0.251133 0.232699
vt 0.256104 0.232667
vt 0.256111 0.173527
vt 0.256104 0.064210
vt 0.256104 0.005860
vt 0.256105 0.118899
vt 0.256105 0.173527
vt 0.256105 0.118899
vt 0.256105 0.232699
vt 0.264913 0.232667
vt 0.264885 0.173527
vt 0.264914 0.064210
vt 0.264913 0.005860
vt 0.264915 0.118899
vt 0.264915 0.173527
vt 0.264915 0.118899
vt 0.264915 0.232699
vt 0.305901 0.173527
vt 0.305958 0.232667
vt 0.305960 0.118899
vt 0.305960 0.173527
vt 0.305960 0.232699
vt 0.305958 0.005860
vt 0.305958 0.064210
vt 0.305960 0.118899
vt 0.272354 0.232667
vt 0.272295 0.173527
vt 0.268656 0.173527
vt 0.268650 0.232667
vt 0.272355 0.173527
vt 0.272355 0.118899
vt 0.268651 0.118899
vt 0.268651 0.173527
vt 0.268651 0.232699
vt 0.272355 0.232699
vt 0.272354 0.064210
vt 0.272354 0.005860
vt 0.268650 0.005860
vt 0.268650 0.064210
vt 0.272355 0.118899
vt 0.268651 0.118899
vt 0.176275 0.173527
vt 0.176169 0.232667
vt 0.232806 0.232667
vt 0.232806 0.173527
vt 0.232806 0.005860
vt 0.176169 0.005860
vt 0.176170 0.064210
vt 0.232806 0.064210
vt 0.176170 0.118899
vt 0.232806 0.118899
vt 0.232806 0.118899
vt 0.176170 0.118899
vt 0.176170 0.173527
vt 0.232806 0.173527
vt 0.176170 0.232699
vt 0.232806 0.232699
vt 0.246751 0.232667
vt 0.246680 0.173527
vt 0.246752 0.064210
vt 0.246751 0.005860
vt 0.246753 0.118899
vt 0.246753 0.173527
vt 0.246753 0.118899
vt 0.246753 0.232699
vt 0.251132 0.232667
vt 0.251071 0.173527
vt 0.251133 0.064210
vt 0.251132 0.005860
vt 0.251133 0.118899
vt 0.251133 0.173527
vt 0.251133 0.118899
vt 0.251133 0.232699
vt 0.256104 0.232667
vt 0.256111 0.173527
vt 0.256104 0.064210
vt 0.256104 0.005860
vt 0.256105 0.118899
vt 0.256105 0.173527
vt 0.256105 0.118899
vt 0.256105 0.232699
vt 0.264913 0.232667
vt 0.264885 0.173527
vt 0.264914 0.064210
vt 0.264913 0.005860
vt 0.264915 0.118899
vt 0.264915 0.173527
vt 0.264915 0.118899
vt 0.264915 0.232699
vt 0.305958 0.232667
vt 0.305901 0.173527
vt 0.305960 0.173527
vt 0.305960 0.118899
vt 0.305960 0.232699
vt 0.305958 0.064210
vt 0.305958 0.005860
vt 0.305960 0.118899
vn -0.102707 -0.020499 0.994501
vn -0.105833 -0.004739 0.994373
vn -0.105833 -0.004739 0.994373
vn -0.102707 -0.020499 0.994501
vn -0.048309 -0.096451 0.994165
vn -0.073342 -0.078363 0.994224
vn -0.073342 -0.078363 0.994224
vn -0.048309 -0.096451 0.994165
vn 0.000000 -0.103547 0.994625
vn 0.000000 -0.103547 0.994625
vn -0.092237 -0.051790 0.994389
vn -0.092237 -0.051790 0.994389
vn 0.102707 -0.020499 0.994501
vn 0.105833 -0.004739 0.994373
vn 0.105833 -0.004739 0.994373
vn 0.102707 -0.020499 0.994501
vn 0.092236 -0.051790 0.994389
vn 0.092236 -0.051790 0.994389
vn 0.073342 -0.078362 0.994223
vn 0.073342 -0.078362 0.994223
vn 0.048309 -0.096451 0.994165
vn 0.048309 -0.096451 0.994165
vn 0.017381 0.003405 -0.999843
vn 0.414781 0.081989 -0.906220
vn 0.425381 0.018870 -0.904818
vn 0.018097 0.000791 -0.999836
vn 0.007676 0.015190 -0.999855
vn 0.202060 0.399987 -0.893970
vn 0.301587 0.324731 -0.896435
vn 0.011835 0.012703 -0.999849
vn 0.000000 0.430734 -0.902479
vn -0.000000 0.015983 -0.999872
vn 0.015257 0.008513 -0.999847
vn 0.375687 0.210513 -0.902521
vn 0.998949 0.045847 0.000000
vn 0.998949 0.045847 0.000000
vn 0.980394 0.197047 0.000000
vn 0.980394 0.197047 0.000000
vn 0.872658 0.488333 0.000000
vn 0.872658 0.488333 0.000000
vn 0.685512 0.728062 0.000000
vn 0.685512 0.728062 0.000000
vn 0.448286 0.893890 0.000000
vn 0.448286 0.893890 0.000000
vn 0.000000 1.000000 0.000000
vn 0.000000 1.000000 0.000000
vn -0.000000 0.000000 -1.000000
vn 0.000000 0.000000 -1.000000
vn -0.207430 -0.009812 -0.978201
vn -0.200209 -0.039097 -0.978973
vn -0.000000 0.000000 -1.000000
vn -0.177157 -0.098272 -0.979264
vn -0.000000 0.000000 -1.000000
vn -0.138870 -0.148267 -0.979149
vn -0.000000 0.000000 -1.000000
vn -0.092049 -0.178373 -0.979648
vn -0.000000 0.000000 -1.000000
vn 0.000000 -0.188770 -0.982021
vn -0.564167 -0.110470 -0.818237
vn -0.581228 -0.027224 -0.813285
vn -0.500933 -0.278135 -0.819577
vn -0.392796 -0.419912 -0.818160
vn -0.260968 -0.507601 -0.821120
vn 0.000000 -0.546647 -0.837363
vn -0.384152 -0.075333 -0.920191
vn -0.396351 -0.018467 -0.917913
vn -0.341284 -0.189579 -0.920644
vn -0.267922 -0.286611 -0.919822
vn -0.178093 -0.347092 -0.920766
vn 0.000000 -0.370799 -0.928713
vn 0.410228 0.081100 -0.908370
vn 0.420648 0.018671 -0.907032
vn 0.371746 0.208317 -0.904660
vn 0.298598 0.321522 -0.898589
vn 0.200161 0.396194 -0.896084
vn 0.000000 0.426645 -0.904419
vn -0.999061 -0.043316 0.000000
vn -0.999061 -0.043316 0.000000
vn -0.981004 -0.193987 0.000000
vn -0.981004 -0.193987 0.000000
vn -0.680601 -0.732654 0.000000
vn -0.448386 -0.893840 0.000000
vn -0.448386 -0.893840 0.000000
vn -0.680601 -0.732654 0.000000
vn 0.000000 -1.000000 0.000000
vn 0.000000 -1.000000 0.000000
vn -0.873038 -0.487652 0.000000
vn -0.873038 -0.487652 0.000000
vn -0.017381 0.003405 -0.999843
vn -0.018097 0.000791 -0.999836
vn -0.425333 0.018868 -0.904841
vn -0.414746 0.081985 -0.906236
vn -0.007676 0.015190 -0.999855
vn -0.011835 0.012703 -0.999849
vn -0.301588 0.324730 -0.896435
vn -0.202060 0.399987 -0.893970
vn -0.015257 0.008513 -0.999847
vn -0.375677 0.210509 -0.902526
vn -0.998949 0.045846 0.000000
vn -0.980395 0.197042 0.000000
vn -0.980395 0.197042 0.000000
vn -0.998949 0.045846 0.000000
vn -0.872660 0.488328 0.000000
vn -0.872660 0.488328 0.000000
vn -0.685511 0.728063 0.000000
vn -0.685511 0.728063 0.000000
vn -0.448285 0.893891 0.000000
vn -0.448285 0.893891 0.000000
vn 0.000000 0.000000 -1.000000
vn 0.200213 -0.039098 -0.978972
vn 0.207438 -0.009814 -0.978199
vn 0.000000 0.000000 -1.000000
vn -0.000000 0.000000 -1.000000
vn 0.177157 -0.098272 -0.979264
vn -0.000000 0.000000 -1.000000
vn 0.138870 -0.148266 -0.979149
vn -0.000000 0.000000 -1.000000
vn 0.092049 -0.178373 -0.979648
vn 0.564170 -0.110473 -0.818235
vn 0.581235 -0.027230 -0.813280
vn 0.500934 -0.278134 -0.819577
vn 0.392797 -0.419911 -0.818160
vn 0.260968 -0.507601 -0.821119
vn 0.384152 -0.075336 -0.920191
vn 0.396351 -0.018472 -0.917913
vn 0.341285 -0.189578 -0.920644
vn 0.267923 -0.286611 -0.919822
vn 0.178093 -0.347092 -0.920766
vn -0.410193 0.081096 -0.908386
vn -0.420600 0.018669 -0.907054
vn -0.371736 0.208313 -0.904665
vn -0.298599 0.321521 -0.898589
vn -0.200161 0.396193 -0.896084
vn 0.448386 -0.893840 0.000000
vn 0.448386 -0.893840 0.000000
vn 0.680601 -0.732654 0.000000
vn 0.680601 -0.732654 0.000000
vn 0.873040 -0.487649 0.000000
vn 0.873040 -0.487649 0.000000
vn 0.981005 -0.193984 0.000000
vn 0.981005 -0.193984 0.000000
vn 0.999061 -0.043316 0.000000
vn 0.999061 -0.043316 0.000000
s 1
f 4/1/1 3/2/2 8/10/3 9/9/4
f 6/3/5 5/4/6 10/15/7 11/14/8
f 1/5/9 6/3/5 11/14/8 2/16/10
f 7/6/11 4/7/1 9/12/4 12/11/12
f 5/8/6 7/6/11 12/11/12 10/13/7
f 19/25/13 18/26/14 13/18/15 14/17/16
f 22/28/17 19/27/13 14/23/16 17/22/18
f 20/29/19 22/28/17 17/22/18 15/24/20
f 21/31/21 20/30/19 15/20/20 16/19/22
f 1/21/9 2/32/10 21/31/21 16/19/22
s 4
f 26/33/23 60/34/24 59/35/25 25/36/26
f 28/37/27 63/38/28 62/39/29 27/40/30
f 64/41/31 63/38/28 28/37/27 23/42/32
f 29/43/33 61/44/34 60/45/24 26/46/23
f 27/47/30 62/48/29 61/44/34 29/43/33
s 6
f 8/49/35 30/50/36 31/51/37 9/52/38
f 31/53/37 34/54/39 12/55/40 9/56/38
f 34/54/39 32/57/41 10/58/42 12/55/40
f 32/59/41 33/60/43 11/61/44 10/62/42
f 33/60/43 24/63/45 2/64/46 11/61/44
s 4
f 31/51/47 30/50/48 35/65/49 36/66/50
f 34/54/51 31/53/47 36/67/50 37/68/52
f 32/57/53 34/54/51 37/68/52 38/69/54
f 33/60/55 32/59/53 38/70/54 39/71/56
f 24/63/57 33/60/55 39/71/56 40/72/58
f 42/73/59 36/66/50 35/65/49 41/74/60
f 43/75/61 37/68/52 36/67/50 42/76/59
f 44/77/62 38/69/54 37/68/52 43/75/61
f 45/78/63 39/71/56 38/70/54 44/79/62
f 40/72/58 39/71/56 45/78/63 46/80/64
f 48/81/65 42/73/59 41/74/60 47/82/66
f 49/83/67 43/75/61 42/76/59 48/84/65
f 50/85/68 44/77/62 43/75/61 49/83/67
f 51/86/69 45/78/63 44/79/62 50/87/68
f 46/80/64 45/78/63 51/86/69 52/88/70
f 54/89/71 48/81/65 47/82/66 53/90/72
f 55/91/73 49/83/67 48/84/65 54/92/71
f 56/93/74 50/85/68 49/83/67 55/91/73
f 57/94/75 51/86/69 50/87/68 56/95/74
f 52/88/70 51/86/69 57/94/75 58/96/76
f 60/34/24 54/89/71 53/90/72 59/35/25
f 61/44/34 55/91/73 54/92/71 60/45/24
f 62/48/29 56/93/74 55/91/73 61/44/34
f 63/38/28 57/94/75 56/95/74 62/39/29
f 58/96/76 57/94/75 63/38/28 64/41/31
s 8
f 25/36/77 3/97/78 4/98/79 26/33/80
f 5/99/81 6/100/82 28/37/83 27/40/84
f 6/100/82 1/101/85 23/42/86 28/37/83
f 4/102/79 7/103/87 29/43/88 26/46/80
f 7/103/87 5/104/81 27/47/84 29/43/88
s 4
f 66/105/89 65/106/90 95/107/91 96/108/92
f 68/109/93 67/110/94 98/111/95 99/112/96
f 64/113/31 23/114/32 68/109/93 99/112/96
f 69/115/97 66/116/89 96/117/92 97/118/98
f 67/119/94 69/115/97 97/118/98 98/120/95
s 6
f 18/121/99 19/122/100 71/123/101 70/124/102
f 71/125/101 19/126/100 22/127/103 74/128/104
f 74/128/104 22/127/103 20/129/105 72/130/106
f 72/131/106 20/132/105 21/133/107 73/134/108
f 73/134/108 21/133/107 2/135/46 24/136/45
s 4
f 71/123/109 76/137/110 75/138/111 70/124/112
f 74/128/113 77/139/114 76/140/110 71/125/109
f 72/130/115 78/141/116 77/139/114 74/128/113
f 73/134/117 79/142/118 78/143/116 72/131/115
f 24/136/57 40/144/58 79/142/118 73/134/117
f 81/145/119 80/146/120 75/138/111 76/137/110
f 82/147/121 81/148/119 76/140/110 77/139/114
f 83/149/122 82/147/121 77/139/114 78/141/116
f 84/150/123 83/151/122 78/143/116 79/142/118
f 40/144/58 46/152/64 84/150/123 79/142/118
f 86/153/124 85/154/125 80/146/120 81/145/119
f 87/155/126 86/156/124 81/148/119 82/147/121
f 88/157/127 87/155/126 82/147/121 83/149/122
f 89/158/128 88/159/127 83/151/122 84/150/123
f 46/152/64 52/160/70 89/158/128 84/150/123
f 91/161/129 90/162/130 85/154/125 86/153/124
f 92/163/131 91/164/129 86/156/124 87/155/126
f 93/165/132 92/163/131 87/155/126 88/157/127
f 94/166/133 93/167/132 88/159/127 89/158/128
f 52/160/70 58/168/76 94/166/133 89/158/128
f 96/108/92 95/107/91 90/162/130 91/161/129
f 97/118/98 96/117/92 91/164/129 92/163/131
f 98/120/95 97/118/98 92/163/131 93/165/132
f 99/112/96 98/111/95 93/167/132 94/166/133
f 58/168/76 64/113/31 99/112/96 94/166/133
s 8
f 68/109/134 23/114/86 1/173/85 16/171/135
f 67/110/136 68/109/134 16/171/135 15/172/137
f 69/115/138 67/119/136 15/176/137 17/174/139
f 66/116/140 69/115/138 17/174/139 14/175/141
f 13/170/142 65/106/143 66/105/140 14/169/141
