# This file uses centimeters as units for non-parametric coordinates.

v 0.829453 3.640781 0.340247
v 0.310616 3.640781 0.840805
v 0.416611 3.640781 0.942772
v 0.833603 3.640781 0.942772
v 0.931358 3.640781 0.840805
v 0.931358 3.640781 0.452053
v 0.826996 3.640781 -0.340331
v 0.310616 3.640781 -0.848525
v 0.416611 3.640781 -0.951680
v 0.833603 3.640781 -0.951680
v 0.931358 3.640781 -0.851828
v 0.931358 3.640781 -0.448960
v -0.827385 3.640781 -0.340331
v -0.320488 3.640781 -0.848525
v -0.827385 3.640781 0.340247
v -0.931358 3.640781 -0.448960
v -0.931358 3.640781 -0.851828
v -0.831512 3.640781 -0.951680
v -0.428642 3.640781 -0.951680
v -0.320488 3.640781 0.840805
v -0.428642 3.640781 0.942772
v -0.831512 3.640781 0.942772
v -0.931358 3.640781 0.840805
v -0.931358 3.640781 0.452053
v 0.829453 -0.007067 0.340247
v 0.310616 -0.007067 0.840805
v 0.416611 -0.007067 0.942772
v 0.833603 -0.007067 0.942772
v 0.931358 -0.007067 0.840805
v 0.931358 -0.007067 0.452053
v 0.826996 -0.007067 -0.340331
v 0.310616 -0.007067 -0.848525
v 0.416611 -0.007067 -0.951680
v 0.833603 -0.007067 -0.951680
v 0.931358 -0.007067 -0.851828
v 0.931358 -0.007067 -0.448960
v -0.827385 -0.007067 -0.340331
v -0.320488 -0.007067 -0.848525
v -0.827385 -0.007067 0.340247
v -0.931358 -0.007067 -0.448960
v -0.931358 -0.007067 -0.851828
v -0.831512 -0.007067 -0.951680
v -0.428642 -0.007067 -0.951680
v -0.320488 -0.007067 0.840805
v -0.428642 -0.007067 0.942772
v -0.831512 -0.007067 0.942772
v -0.931358 -0.007067 0.840805
v -0.931358 -0.007067 0.452053
v 0.829453 -4.007067 0.340247
v 0.310616 -4.007067 0.840805
v 0.416611 -4.007067 0.942772
v 0.833603 -4.007067 0.942772
v 0.931358 -4.007067 0.840805
v 0.931358 -4.007067 0.452053
v 0.826996 -4.007067 -0.340331
v 0.310616 -4.007067 -0.848525
v 0.416611 -4.007067 -0.951680
v 0.833603 -4.007067 -0.951680
v 0.931358 -4.007067 -0.851828
v 0.931358 -4.007067 -0.448960
v -0.827385 -4.007067 -0.340331
v -0.320488 -4.007067 -0.848525
v -0.827385 -4.007067 0.340247
v -0.931358 -4.007067 -0.448960
v -0.931358 -4.007067 -0.851828
v -0.831512 -4.007067 -0.951680
v -0.428642 -4.007067 -0.951680
v -0.320488 -4.007067 0.840805
v -0.428642 -4.007067 0.942772
v -0.831512 -4.007067 0.942772
v -0.931358 -4.007067 0.840805
v -0.931358 -4.007067 0.452053
v -1.069633 4.007066 -1.085193
v -1.069633 3.716853 -1.085193
v -0.944576 3.605689 -0.961169
v 1.069633 4.007066 -1.085193
v 1.069633 3.716853 -1.085193
v 0.944576 3.605689 -0.961169
v 1.068604 4.007066 1.085193
v 1.069633 3.716853 1.084168
v 0.944576 3.605689 0.959631
v -1.068604 4.007066 1.084681
v -1.069633 3.716853 1.083655
v -0.944576 3.605689 0.959631
vt 0.907648 0.948938
vt 0.907648 0.689403
vt 0.916920 0.689403
vt 0.916920 0.948938
vt 0.961576 0.689403
vt 0.961576 0.948938
vt 0.927898 0.948938
vt 0.927898 0.689403
vt 0.971368 0.689403
vt 0.970255 0.948938
vt 0.927898 0.689403
vt 0.927898 0.948938
vt 0.953522 0.948938
vt 0.953522 0.689403
vt 0.906130 0.689403
vt 0.906130 0.948938
vt 0.917661 0.948938
vt 0.917661 0.689403
vt 0.907648 0.948938
vt 0.916920 0.948938
vt 0.916920 0.689403
vt 0.907648 0.689403
vt 0.961576 0.689403
vt 0.927898 0.689403
vt 0.927898 0.948938
vt 0.961576 0.948938
vt 0.971368 0.689403
vt 0.970255 0.948938
vt 0.927898 0.689403
vt 0.953522 0.689403
vt 0.953522 0.948938
vt 0.927898 0.948938
vt 0.906130 0.689403
vt 0.917661 0.689403
vt 0.917661 0.948938
vt 0.906130 0.948938
vt 0.451135 0.554472
vt 0.492274 0.554472
vt 0.492274 0.841891
vt 0.451135 0.841891
vt 0.602314 0.841891
vt 0.602314 0.554472
vt 0.656970 0.554472
vt 0.656970 0.841891
vt 0.475303 0.554472
vt 0.519961 0.554472
vt 0.519961 0.841891
vt 0.475303 0.841891
vt 0.907648 0.948938
vt 0.916920 0.948938
vt 0.916920 0.689403
vt 0.907648 0.689403
vt 0.961576 0.689403
vt 0.927898 0.689403
vt 0.927898 0.948938
vt 0.961576 0.948938
vt 0.971368 0.689403
vt 0.970255 0.948938
vt 0.927898 0.689403
vt 0.953522 0.689403
vt 0.953522 0.948938
vt 0.927898 0.948938
vt 0.906130 0.689403
vt 0.917661 0.689403
vt 0.917661 0.948938
vt 0.906130 0.948938
vt 0.907648 0.948938
vt 0.916920 0.948938
vt 0.916920 0.689403
vt 0.907648 0.689403
vt 0.961576 0.689403
vt 0.927898 0.689403
vt 0.927898 0.948938
vt 0.961576 0.948938
vt 0.971368 0.689403
vt 0.970255 0.948938
vt 0.927898 0.689403
vt 0.953522 0.689403
vt 0.953522 0.948938
vt 0.927898 0.948938
vt 0.906130 0.689403
vt 0.917661 0.689403
vt 0.917661 0.948938
vt 0.906130 0.948938
vt 0.907648 0.948938
vt 0.907648 0.689403
vt 0.916920 0.689403
vt 0.916920 0.948938
vt 0.961576 0.689403
vt 0.961576 0.948938
vt 0.927898 0.948938
vt 0.927898 0.689403
vt 0.971368 0.689403
vt 0.970255 0.948938
vt 0.927898 0.689403
vt 0.927898 0.948938
vt 0.953522 0.948938
vt 0.953522 0.689403
vt 0.906130 0.689403
vt 0.906130 0.948938
vt 0.917661 0.948938
vt 0.917661 0.689403
vt 0.907648 0.948938
vt 0.916920 0.948938
vt 0.916920 0.689403
vt 0.907648 0.689403
vt 0.961576 0.689403
vt 0.927898 0.689403
vt 0.927898 0.948938
vt 0.961576 0.948938
vt 0.971368 0.689403
vt 0.970255 0.948938
vt 0.927898 0.689403
vt 0.953522 0.689403
vt 0.953522 0.948938
vt 0.927898 0.948938
vt 0.906130 0.689403
vt 0.917661 0.689403
vt 0.917661 0.948938
vt 0.906130 0.948938
vt 0.451135 0.554472
vt 0.492274 0.554472
vt 0.492274 0.841891
vt 0.451135 0.841891
vt 0.602314 0.841891
vt 0.602314 0.554472
vt 0.656970 0.554472
vt 0.656970 0.841891
vt 0.475303 0.554472
vt 0.519961 0.554472
vt 0.519961 0.841891
vt 0.475303 0.841891
vt 0.907648 0.948938
vt 0.916920 0.948938
vt 0.916920 0.689403
vt 0.907648 0.689403
vt 0.961576 0.689403
vt 0.927898 0.689403
vt 0.927898 0.948938
vt 0.961576 0.948938
vt 0.971368 0.689403
vt 0.970255 0.948938
vt 0.927898 0.689403
vt 0.953522 0.689403
vt 0.953522 0.948938
vt 0.927898 0.948938
vt 0.906130 0.689403
vt 0.917661 0.689403
vt 0.917661 0.948938
vt 0.906130 0.948938
vt 0.907648 0.948938
vt 0.916920 0.948938
vt 0.916920 0.689403
vt 0.907648 0.689403
vt 0.961576 0.689403
vt 0.927898 0.689403
vt 0.927898 0.948938
vt 0.961576 0.948938
vt 0.971368 0.689403
vt 0.970255 0.948938
vt 0.927898 0.689403
vt 0.953522 0.689403
vt 0.953522 0.948938
vt 0.927898 0.948938
vt 0.906130 0.689403
vt 0.917661 0.689403
vt 0.917661 0.948938
vt 0.906130 0.948938
vt 0.859080 0.025807
vt 0.875817 0.025807
vt 0.875817 0.114399
vt 0.859080 0.114399
vt 0.850807 0.101397
vt 0.850807 0.039251
vt 0.876048 0.131990
vt 0.876048 0.114247
vt 0.964757 0.114247
vt 0.964757 0.131990
vt 0.859080 0.025807
vt 0.859080 0.114399
vt 0.850807 0.101397
vt 0.850807 0.039251
vt 0.964757 0.008453
vt 0.964757 0.025916
vt 0.876048 0.025916
vt 0.876048 0.008453
vt 0.859080 0.025807
vt 0.859080 0.114399
vt 0.850807 0.101397
vt 0.850807 0.039251
vt 0.983163 0.114247
vt 0.964757 0.114247
vt 0.983163 0.025916
vt 0.859080 0.025807
vt 0.859080 0.114399
vt 0.850807 0.101397
vt 0.850807 0.039251
vt 0.876048 0.114247
vt 0.470312 0.418264
vt 0.455468 0.418264
vt 0.455468 0.403322
vt 0.470312 0.403322
vt 0.451135 0.554472
vt 0.451135 0.841891
vt 0.492274 0.841891
vt 0.492274 0.554472
vt 0.451135 0.554472
vt 0.451135 0.841891
vt 0.492274 0.841891
vt 0.492274 0.554472
vn -0.693283 0.000000 0.720665
vn -0.693283 0.000000 0.720665
vn -0.373721 0.000000 0.927541
vn -0.373721 0.000000 0.927541
vn 0.392403 0.000000 0.919793
vn 0.392403 0.000000 0.919793
vn 0.927863 0.000000 0.372921
vn 0.927863 0.000000 0.372921
vn 0.932489 0.000000 -0.361199
vn 0.932489 0.000000 -0.361199
vn 0.739071 0.000000 -0.673628
vn 0.739071 0.000000 -0.673628
vn -0.697440 0.000000 -0.716643
vn -0.376402 0.000000 -0.926457
vn -0.376402 0.000000 -0.926457
vn -0.697440 0.000000 -0.716643
vn 0.387580 0.000000 -0.921836
vn 0.387580 0.000000 -0.921836
vn 0.925897 0.000000 -0.377776
vn 0.925897 0.000000 -0.377776
vn 0.927665 0.000000 0.373414
vn 0.927665 0.000000 0.373414
vn 0.721124 0.000000 0.692806
vn 0.721124 0.000000 0.692806
vn 0.000000 0.000000 -1.000000
vn 0.000000 0.000000 -1.000000
vn 0.000000 0.000000 -1.000000
vn 0.000000 0.000000 -1.000000
vn 0.999994 0.000000 -0.003610
vn 0.999994 0.000000 -0.003610
vn 0.999994 0.000000 -0.003610
vn 0.999994 0.000000 -0.003610
vn -1.000000 0.000000 0.000000
vn -1.000000 0.000000 0.000000
vn -1.000000 0.000000 0.000000
vn -1.000000 0.000000 0.000000
vn -0.722416 0.000000 0.691459
vn -0.928013 0.000000 0.372548
vn -0.928013 0.000000 0.372548
vn -0.722416 0.000000 0.691459
vn -0.923886 0.000000 -0.382669
vn -0.923886 0.000000 -0.382668
vn -0.382698 0.000000 -0.923873
vn -0.382698 0.000000 -0.923873
vn 0.371730 0.000000 -0.928341
vn 0.371730 0.000000 -0.928341
vn 0.690184 0.000000 -0.723634
vn 0.690184 0.000000 -0.723634
vn 0.685991 0.000000 0.727610
vn 0.369046 0.000000 0.929411
vn 0.369046 0.000000 0.929411
vn 0.685991 0.000000 0.727610
vn -0.387535 0.000000 0.921855
vn -0.387535 0.000000 0.921855
vn -0.925879 0.000000 0.377821
vn -0.925879 0.000000 0.377821
vn -0.930670 0.000000 -0.365861
vn -0.930670 0.000000 -0.365861
vn -0.732292 0.000000 -0.680991
vn -0.732292 0.000000 -0.680991
vn -0.693283 0.000000 0.720665
vn -0.373721 0.000000 0.927541
vn 0.392403 0.000000 0.919793
vn 0.927863 0.000000 0.372921
vn 0.932489 0.000000 -0.361199
vn 0.739071 0.000000 -0.673628
vn -0.376402 0.000000 -0.926457
vn -0.697440 0.000000 -0.716643
vn 0.387580 0.000000 -0.921836
vn 0.925897 0.000000 -0.377777
vn 0.927665 0.000000 0.373414
vn 0.721124 0.000000 0.692806
vn 0.000000 0.000000 -1.000000
vn 0.000000 0.000000 -1.000000
vn 0.999994 0.000000 -0.003610
vn 0.999994 0.000000 -0.003610
vn -1.000000 0.000000 0.000000
vn -1.000000 0.000000 0.000000
vn -0.928013 0.000000 0.372548
vn -0.722416 0.000000 0.691459
vn -0.923886 0.000000 -0.382669
vn -0.382698 0.000000 -0.923873
vn 0.371730 0.000000 -0.928341
vn 0.690184 0.000000 -0.723634
vn 0.369046 0.000000 0.929411
vn 0.685991 0.000000 0.727610
vn -0.387535 0.000000 0.921855
vn -0.925879 0.000000 0.377821
vn -0.930670 0.000000 -0.365861
vn -0.732292 0.000000 -0.680991
vn 0.000000 0.000000 -1.000000
vn 0.000000 0.000000 -1.000000
vn 0.000000 0.000000 -1.000000
vn 0.000000 0.000000 -1.000000
vn 0.000000 -0.744658 -0.667446
vn 0.000000 -0.744658 -0.667446
vn 0.000000 -0.744658 -0.667446
vn 0.000000 -0.744658 -0.667446
vn 0.999998 0.001774 0.000237
vn 0.999998 0.001774 0.000237
vn 0.999998 0.001774 0.000237
vn 0.999998 0.001774 0.000237
vn 0.664372 -0.747402 0.000000
vn 0.664372 -0.747402 0.000000
vn 0.664372 -0.747402 0.000000
vn 0.664372 -0.747402 0.000000
vn -0.999998 0.001774 0.000237
vn -0.999998 0.001774 0.000237
vn -0.999998 0.001774 0.000237
vn -0.999998 0.001774 0.000237
vn -0.376522 -0.845879 0.377783
vn -0.664372 -0.747402 0.000000
vn -0.664372 -0.747402 0.000000
vn -0.376522 -0.845879 0.377783
vn -0.000240 -0.003533 0.999994
vn -0.000240 -0.003533 0.999994
vn -0.000240 -0.003533 0.999994
vn -0.000240 -0.003533 0.999994
vn -0.000085 -0.745342 0.666682
vn -0.000085 -0.745342 0.666682
vn 0.000000 1.000000 -0.000000
vn 0.000000 1.000000 -0.000000
vn 0.000000 1.000000 -0.000000
vn 0.000000 1.000000 -0.000000
vn 0.000000 -1.000000 0.000000
vn 0.000000 -1.000000 0.000000
vn 0.000000 -1.000000 0.000000
vn 0.000000 -1.000000 0.000000
vn 0.000000 0.000000 1.000000
vn 0.000000 0.000000 1.000000
vn 0.000000 0.000000 1.000000
vn 0.000000 0.000000 1.000000
vn 0.000000 0.000000 1.000000
vn 0.000000 0.000000 1.000000
s 1
f 2/1/1 26/2/2 27/3/3 3/4/4
f 28/5/5 4/6/6 3/7/4 27/8/3
f 29/9/7 5/10/8 4/6/6 28/5/5
f 30/11/9 6/12/10 5/13/8 29/14/7
f 25/15/11 1/16/12 6/17/10 30/18/9
s 2
f 8/19/13 9/20/14 33/21/15 32/22/16
f 34/23/17 33/24/15 9/25/14 10/26/18
f 35/27/19 34/23/17 10/26/18 11/28/20
f 36/29/21 35/30/19 11/31/20 12/32/22
f 31/33/23 36/34/21 12/35/22 7/36/24
s 3
f 32/37/25 38/38/26 14/39/27 8/40/28
s 4
f 1/41/29 25/42/30 31/43/31 7/44/32
s 5
f 37/45/33 39/46/34 15/47/35 13/48/36
s 6
f 13/49/37 16/50/38 40/51/39 37/52/40
f 41/53/41 40/54/39 16/55/38 17/56/42
f 42/57/43 41/53/41 17/56/42 18/58/44
f 43/59/45 42/60/43 18/61/44 19/62/46
f 38/63/47 43/64/45 19/65/46 14/66/48
s 7
f 20/67/49 21/68/50 45/69/51 44/70/52
f 46/71/53 45/72/51 21/73/50 22/74/54
f 47/75/55 46/71/53 22/74/54 23/76/56
f 48/77/57 47/78/55 23/79/56 24/80/58
f 39/81/59 48/82/57 24/83/58 15/84/60
s 1
f 26/85/2 50/86/61 51/87/62 27/88/3
f 52/89/63 28/90/5 27/91/3 51/92/62
f 53/93/64 29/94/7 28/90/5 52/89/63
f 54/95/65 30/96/9 29/97/7 53/98/64
f 49/99/66 25/100/11 30/101/9 54/102/65
s 2
f 32/103/16 33/104/15 57/105/67 56/106/68
f 58/107/69 57/108/67 33/109/15 34/110/17
f 59/111/70 58/107/69 34/110/17 35/112/19
f 60/113/71 59/114/70 35/115/19 36/116/21
f 55/117/72 60/118/71 36/119/21 31/120/23
s 3
f 56/121/73 62/122/74 38/123/26 32/124/25
s 4
f 25/125/30 49/126/75 55/127/76 31/128/31
s 5
f 61/129/77 63/130/78 39/131/34 37/132/33
s 6
f 37/133/40 40/134/39 64/135/79 61/136/80
f 65/137/81 64/138/79 40/139/39 41/140/41
f 66/141/82 65/137/81 41/140/41 42/142/43
f 67/143/83 66/144/82 42/145/43 43/146/45
f 62/147/84 67/148/83 43/149/45 38/150/47
s 7
f 44/151/52 45/152/51 69/153/85 68/154/86
f 70/155/87 69/156/85 45/157/51 46/158/53
f 71/159/88 70/155/87 46/158/53 47/160/55
f 72/161/89 71/162/88 47/163/55 48/164/57
f 63/165/90 72/166/89 48/167/57 39/168/59
s off
f 74/169/91 73/170/92 76/171/93 77/172/94
f 74/169/95 77/172/96 78/173/97 75/174/98
f 77/175/99 76/176/100 79/177/101 80/178/102
f 77/179/103 80/180/104 81/181/105 78/182/106
f 83/183/107 82/184/108 73/185/109 74/186/110
s 8
f 83/187/111 74/188/112 75/189/113 84/190/114
s off
f 80/191/115 79/192/116 82/184/117 83/193/118
s 8
f 80/194/119 83/195/111 84/196/114 81/197/120
s off
f 79/192/121 76/198/122 73/185/123 82/184/124
f 84/199/125 75/200/126 78/201/127 81/202/128
s 9
f 26/203/129 2/204/130 20/205/131 44/206/132
f 50/207/133 26/208/129 44/209/132 68/210/134
