# This file uses centimeters as units for non-parametric coordinates.

v 0.829453 3.626837 0.348796
v 0.310616 3.626837 0.849354
v 0.416611 3.626837 0.951322
v 0.833603 3.626837 0.951322
v 0.931358 3.626837 0.849354
v 0.931358 3.626837 0.460602
v 0.826996 3.626837 -0.331782
v 0.310616 3.626837 -0.839976
v 0.416611 3.626837 -0.943131
v 0.833603 3.626837 -0.943131
v 0.931358 3.626837 -0.843279
v 0.931358 3.626837 -0.440410
v -0.827385 3.626837 -0.331782
v -0.320488 3.626837 -0.839976
v -0.827385 3.626837 0.348796
v -0.931358 3.626837 -0.440410
v -0.931358 3.626837 -0.843279
v -0.831512 3.626837 -0.943131
v -0.428642 3.626837 -0.943131
v -0.320488 3.626837 0.849354
v -0.428642 3.626837 0.951322
v -0.831512 3.626837 0.951322
v -0.931358 3.626837 0.849354
v -0.931358 3.626837 0.460602
v 0.829453 -0.021011 0.348796
v 0.310616 -0.021011 0.849354
v 0.416611 -0.021011 0.951322
v 0.833603 -0.021011 0.951322
v 0.931358 -0.021011 0.849354
v 0.931358 -0.021011 0.460602
v 0.826996 -0.021011 -0.331782
v 0.310616 -0.021011 -0.839976
v 0.416611 -0.021011 -0.943131
v 0.833603 -0.021011 -0.943131
v 0.931358 -0.021011 -0.843279
v 0.931358 -0.021011 -0.440410
v -0.827385 -0.021011 -0.331782
v -0.320488 -0.021011 -0.839976
v -0.827385 -0.021011 0.348796
v -0.931358 -0.021011 -0.440410
v -0.931358 -0.021011 -0.843279
v -0.831512 -0.021011 -0.943131
v -0.428642 -0.021011 -0.943131
v -0.320488 -0.021011 0.849354
v -0.428642 -0.021011 0.951322
v -0.831512 -0.021011 0.951322
v -0.931358 -0.021011 0.849354
v -0.931358 -0.021011 0.460602
v 0.829453 -4.021011 0.348796
v 0.310616 -4.021011 0.849354
v 0.416611 -4.021011 0.951322
v 0.833603 -4.021011 0.951322
v 0.931358 -4.021011 0.849354
v 0.931358 -4.021011 0.460602
v 0.826996 -4.021011 -0.331782
v 0.310616 -4.021011 -0.839976
v 0.416611 -4.021011 -0.943131
v 0.833603 -4.021011 -0.943131
v 0.931358 -4.021011 -0.843279
v 0.931358 -4.021011 -0.440410
v -0.827385 -4.021011 -0.331782
v -0.320488 -4.021011 -0.839976
v -0.827385 -4.021011 0.348796
v -0.931358 -4.021011 -0.440410
v -0.931358 -4.021011 -0.843279
v -0.831512 -4.021011 -0.943131
v -0.428642 -4.021011 -0.943131
v -0.320488 -4.021011 0.849354
v -0.428642 -4.021011 0.951322
v -0.831512 -4.021011 0.951322
v -0.931358 -4.021011 0.849354
v -0.931358 -4.021011 0.460602
v -0.983398 3.621948 0.984982
v 0.983398 3.621948 0.984982
v 0.804108 4.886586 -0.804108
v 1.084221 4.886586 -1.084216
v 0.742706 5.133303 -0.742702
v 0.867752 4.076617 -0.867756
v 1.032402 4.551814 -1.032392
v 0.868889 4.323851 -0.868886
v -0.804108 4.886586 -0.804108
v -1.084221 4.886586 -1.084216
v -0.742706 5.133303 -0.742702
v -0.867752 4.076617 -0.867756
v -1.032394 4.551814 -1.032392
v -0.868889 4.323851 -0.868886
v -0.984192 3.621948 -0.984189
v -1.037308 3.992859 -1.037316
v 0.984184 3.621948 -0.984189
v 1.037308 3.992859 -1.037316
v 1.037033 3.992859 1.037577
v -1.037025 3.992859 1.037577
v -0.804108 4.886586 0.804108
v -1.084221 4.886586 1.084217
v -0.742706 5.133303 0.742707
v -0.867645 4.076617 0.867882
v -1.032394 4.551814 1.032397
v -0.868889 4.323851 0.868891
v 0.804108 4.886586 0.804108
v 1.084221 4.886586 1.084217
v 0.742706 5.133303 0.742707
v 0.867645 4.076617 0.867882
v 1.032402 4.551814 1.032397
v 0.868889 4.323851 0.868891
vt 0.907648 0.948938
vt 0.907648 0.689403
vt 0.916920 0.689403
vt 0.916920 0.948938
vt 0.961576 0.689403
vt 0.961576 0.948938
vt 0.927898 0.948938
vt 0.927898 0.689403
vt 0.971368 0.689403
vt 0.970255 0.948938
vt 0.927898 0.689403
vt 0.927898 0.948938
vt 0.953522 0.948938
vt 0.953522 0.689403
vt 0.906130 0.689403
vt 0.906130 0.948938
vt 0.917661 0.948938
vt 0.917661 0.689403
vt 0.907648 0.948938
vt 0.916920 0.948938
vt 0.916920 0.689403
vt 0.907648 0.689403
vt 0.961576 0.689403
vt 0.927898 0.689403
vt 0.927898 0.948938
vt 0.961576 0.948938
vt 0.971368 0.689403
vt 0.970255 0.948938
vt 0.927898 0.689403
vt 0.953522 0.689403
vt 0.953522 0.948938
vt 0.927898 0.948938
vt 0.906130 0.689403
vt 0.917661 0.689403
vt 0.917661 0.948938
vt 0.906130 0.948938
vt 0.451135 0.554472
vt 0.492274 0.554472
vt 0.492274 0.841891
vt 0.451135 0.841891
vt 0.602314 0.841891
vt 0.602314 0.554472
vt 0.656970 0.554472
vt 0.656970 0.841891
vt 0.475303 0.554472
vt 0.519961 0.554472
vt 0.519961 0.841891
vt 0.475303 0.841891
vt 0.907648 0.948938
vt 0.916920 0.948938
vt 0.916920 0.689403
vt 0.907648 0.689403
vt 0.961576 0.689403
vt 0.927898 0.689403
vt 0.927898 0.948938
vt 0.961576 0.948938
vt 0.971368 0.689403
vt 0.970255 0.948938
vt 0.927898 0.689403
vt 0.953522 0.689403
vt 0.953522 0.948938
vt 0.927898 0.948938
vt 0.906130 0.689403
vt 0.917661 0.689403
vt 0.917661 0.948938
vt 0.906130 0.948938
vt 0.907648 0.948938
vt 0.916920 0.948938
vt 0.916920 0.689403
vt 0.907648 0.689403
vt 0.961576 0.689403
vt 0.927898 0.689403
vt 0.927898 0.948938
vt 0.961576 0.948938
vt 0.971368 0.689403
vt 0.970255 0.948938
vt 0.927898 0.689403
vt 0.953522 0.689403
vt 0.953522 0.948938
vt 0.927898 0.948938
vt 0.906130 0.689403
vt 0.917661 0.689403
vt 0.917661 0.948938
vt 0.906130 0.948938
vt 0.907648 0.948938
vt 0.907648 0.689403
vt 0.916920 0.689403
vt 0.916920 0.948938
vt 0.961576 0.689403
vt 0.961576 0.948938
vt 0.927898 0.948938
vt 0.927898 0.689403
vt 0.971368 0.689403
vt 0.970255 0.948938
vt 0.927898 0.689403
vt 0.927898 0.948938
vt 0.953522 0.948938
vt 0.953522 0.689403
vt 0.906130 0.689403
vt 0.906130 0.948938
vt 0.917661 0.948938
vt 0.917661 0.689403
vt 0.907648 0.948938
vt 0.916920 0.948938
vt 0.916920 0.689403
vt 0.907648 0.689403
vt 0.961576 0.689403
vt 0.927898 0.689403
vt 0.927898 0.948938
vt 0.961576 0.948938
vt 0.971368 0.689403
vt 0.970255 0.948938
vt 0.927898 0.689403
vt 0.953522 0.689403
vt 0.953522 0.948938
vt 0.927898 0.948938
vt 0.906130 0.689403
vt 0.917661 0.689403
vt 0.917661 0.948938
vt 0.906130 0.948938
vt 0.451135 0.554472
vt 0.492274 0.554472
vt 0.492274 0.841891
vt 0.451135 0.841891
vt 0.602314 0.841891
vt 0.602314 0.554472
vt 0.656970 0.554472
vt 0.656970 0.841891
vt 0.475303 0.554472
vt 0.519961 0.554472
vt 0.519961 0.841891
vt 0.475303 0.841891
vt 0.907648 0.948938
vt 0.916920 0.948938
vt 0.916920 0.689403
vt 0.907648 0.689403
vt 0.961576 0.689403
vt 0.927898 0.689403
vt 0.927898 0.948938
vt 0.961576 0.948938
vt 0.971368 0.689403
vt 0.970255 0.948938
vt 0.927898 0.689403
vt 0.953522 0.689403
vt 0.953522 0.948938
vt 0.927898 0.948938
vt 0.906130 0.689403
vt 0.917661 0.689403
vt 0.917661 0.948938
vt 0.906130 0.948938
vt 0.907648 0.948938
vt 0.916920 0.948938
vt 0.916920 0.689403
vt 0.907648 0.689403
vt 0.961576 0.689403
vt 0.927898 0.689403
vt 0.927898 0.948938
vt 0.961576 0.948938
vt 0.971368 0.689403
vt 0.970255 0.948938
vt 0.927898 0.689403
vt 0.953522 0.689403
vt 0.953522 0.948938
vt 0.927898 0.948938
vt 0.906130 0.689403
vt 0.917661 0.689403
vt 0.917661 0.948938
vt 0.906130 0.948938
vt 0.365023 0.206100
vt 0.453629 0.206100
vt 0.450246 0.214381
vt 0.368407 0.214381
vt 0.349590 0.190667
vt 0.469062 0.190667
vt 0.349736 0.180389
vt 0.468916 0.180389
vt 0.361454 0.165421
vt 0.457198 0.165421
vt 0.361636 0.156107
vt 0.457017 0.156107
vt 0.459414 0.430986
vt 0.500470 0.430986
vt 0.500454 0.389914
vt 0.459431 0.389914
vt 0.256581 0.276994
vt 0.256581 0.292533
vt 0.143828 0.292533
vt 0.143828 0.276994
vt 0.365023 0.206100
vt 0.453629 0.206100
vt 0.450246 0.214381
vt 0.368407 0.214381
vt 0.349590 0.190667
vt 0.469062 0.190667
vt 0.349736 0.180389
vt 0.468916 0.180389
vt 0.361454 0.165421
vt 0.457198 0.165421
vt 0.361636 0.156107
vt 0.457017 0.156107
vt 0.365023 0.206100
vt 0.453629 0.206100
vt 0.450246 0.214381
vt 0.368407 0.214381
vt 0.349590 0.190667
vt 0.469062 0.190667
vt 0.349736 0.180389
vt 0.468916 0.180389
vt 0.361454 0.165421
vt 0.457198 0.165421
vt 0.361636 0.156107
vt 0.457017 0.156107
vt 0.365023 0.206100
vt 0.453629 0.206100
vt 0.450246 0.214381
vt 0.368407 0.214381
vt 0.349590 0.190667
vt 0.469062 0.190667
vt 0.349736 0.180389
vt 0.468916 0.180389
vt 0.361454 0.165421
vt 0.457198 0.165421
vt 0.361636 0.156107
vt 0.457017 0.156107
vt 0.875912 0.114370
vt 0.875912 0.025474
vt 0.964809 0.025474
vt 0.964809 0.114370
vt 0.256581 0.276994
vt 0.256581 0.292533
vt 0.143828 0.292533
vt 0.143828 0.276994
vt 0.256581 0.276994
vt 0.256581 0.292533
vt 0.143828 0.292533
vt 0.143828 0.276994
vt 0.256581 0.276994
vt 0.256581 0.292533
vt 0.143828 0.292533
vt 0.143828 0.276994
vt 0.150459 0.298384
vt 0.143790 0.292533
vt 0.256542 0.292533
vt 0.249874 0.298384
vt 0.150459 0.298384
vt 0.143790 0.292533
vt 0.256542 0.292533
vt 0.249874 0.298384
vt 0.150459 0.298384
vt 0.143790 0.292533
vt 0.256542 0.292533
vt 0.249874 0.298384
vt 0.150459 0.298384
vt 0.143790 0.292533
vt 0.256542 0.292533
vt 0.249874 0.298384
vt 0.451135 0.554472
vt 0.492274 0.554472
vt 0.492274 0.841891
vt 0.451135 0.841891
vt 0.451135 0.554472
vt 0.492274 0.554472
vt 0.492274 0.841891
vt 0.451135 0.841891
vn -0.693283 0.000000 0.720665
vn -0.693283 0.000000 0.720665
vn -0.373721 0.000000 0.927541
vn -0.373721 0.000000 0.927541
vn 0.392403 0.000000 0.919793
vn 0.392404 0.000000 0.919793
vn 0.927863 0.000000 0.372921
vn 0.927863 0.000000 0.372921
vn 0.932489 0.000000 -0.361199
vn 0.932489 0.000000 -0.361199
vn 0.739071 0.000000 -0.673628
vn 0.739071 0.000000 -0.673628
vn -0.697440 0.000000 -0.716643
vn -0.376402 0.000000 -0.926457
vn -0.376402 0.000000 -0.926457
vn -0.697440 0.000000 -0.716643
vn 0.387580 0.000000 -0.921836
vn 0.387580 0.000000 -0.921836
vn 0.925897 0.000000 -0.377776
vn 0.925897 0.000000 -0.377776
vn 0.927665 0.000000 0.373414
vn 0.927665 0.000000 0.373414
vn 0.721124 0.000000 0.692806
vn 0.721124 0.000000 0.692806
vn 0.000000 0.000000 -1.000000
vn 0.000000 0.000000 -1.000000
vn 0.000000 0.000000 -1.000000
vn 0.000000 0.000000 -1.000000
vn 0.999994 0.000000 -0.003610
vn 0.999994 0.000000 -0.003610
vn 0.999994 0.000000 -0.003610
vn 0.999994 0.000000 -0.003610
vn -1.000000 0.000000 0.000000
vn -1.000000 0.000000 0.000000
vn -1.000000 0.000000 0.000000
vn -1.000000 0.000000 0.000000
vn -0.722416 0.000000 0.691459
vn -0.928013 0.000000 0.372548
vn -0.928013 0.000000 0.372548
vn -0.722416 0.000000 0.691459
vn -0.923886 0.000000 -0.382669
vn -0.923886 0.000000 -0.382669
vn -0.382698 0.000000 -0.923873
vn -0.382698 0.000000 -0.923873
vn 0.371730 0.000000 -0.928341
vn 0.371730 0.000000 -0.928341
vn 0.690184 0.000000 -0.723634
vn 0.690184 0.000000 -0.723634
vn 0.685991 0.000000 0.727610
vn 0.369046 0.000000 0.929411
vn 0.369046 0.000000 0.929411
vn 0.685991 0.000000 0.727610
vn -0.387535 0.000000 0.921855
vn -0.387535 0.000000 0.921855
vn -0.925879 0.000000 0.377821
vn -0.925879 0.000000 0.377821
vn -0.930670 0.000000 -0.365861
vn -0.930670 0.000000 -0.365861
vn -0.732292 0.000000 -0.680991
vn -0.732292 0.000000 -0.680991
vn -0.693283 0.000000 0.720665
vn -0.373721 0.000000 0.927541
vn 0.392403 0.000000 0.919793
vn 0.927863 0.000000 0.372921
vn 0.932489 0.000000 -0.361199
vn 0.739071 0.000000 -0.673628
vn -0.376402 0.000000 -0.926457
vn -0.697440 0.000000 -0.716643
vn 0.387580 0.000000 -0.921836
vn 0.925897 0.000000 -0.377777
vn 0.927665 0.000000 0.373414
vn 0.721124 0.000000 0.692806
vn 0.000000 0.000000 -1.000000
vn 0.000000 0.000000 -1.000000
vn 0.999994 0.000000 -0.003610
vn 0.999994 0.000000 -0.003610
vn -1.000000 0.000000 0.000000
vn -1.000000 0.000000 0.000000
vn -0.928013 0.000000 0.372548
vn -0.722416 0.000000 0.691459
vn -0.923886 0.000000 -0.382669
vn -0.382698 0.000000 -0.923873
vn 0.371730 0.000000 -0.928341
vn 0.690184 0.000000 -0.723634
vn 0.369046 0.000000 0.929411
vn 0.685991 0.000000 0.727610
vn -0.387535 0.000000 0.921855
vn -0.925879 0.000000 0.377821
vn -0.930670 0.000000 -0.365861
vn -0.732292 0.000000 -0.680991
vn 0.000000 0.241521 -0.970396
vn 0.000000 0.241521 -0.970396
vn 0.000000 0.241521 -0.970396
vn 0.000000 0.241521 -0.970396
vn 0.000000 1.000000 -0.000000
vn 0.000000 1.000000 -0.000000
vn 0.000000 1.000000 -0.000000
vn 0.000000 1.000000 -0.000000
vn 0.000000 -0.152983 -0.988229
vn 0.000000 -0.152983 -0.988229
vn 0.000000 -0.152983 -0.988229
vn 0.000000 -0.152983 -0.988229
vn 0.496418 -0.712132 -0.496425
vn -0.496428 -0.712123 -0.496427
vn -0.496428 -0.712123 -0.496427
vn 0.496418 -0.712132 -0.496425
vn 0.000000 -0.004567 -0.999990
vn 0.000000 -0.004567 -0.999990
vn 0.000000 -0.004567 -0.999990
vn 0.000000 -0.004567 -0.999990
vn 0.000000 -1.000000 -0.000000
vn 0.000000 -1.000000 -0.000000
vn 0.000000 -1.000000 -0.000000
vn 0.000000 -1.000000 -0.000000
vn 0.000000 -0.141787 -0.989897
vn 0.000000 -0.141787 -0.989897
vn 0.000000 -0.141787 -0.989897
vn 0.000000 -0.141787 -0.989897
vn -0.970399 0.241506 0.000000
vn -0.970399 0.241506 0.000000
vn -0.970399 0.241506 0.000000
vn -0.970399 0.241506 0.000000
vn 0.000000 1.000000 0.000000
vn 0.000000 1.000000 0.000000
vn -0.988228 -0.152989 0.000000
vn -0.988228 -0.152989 0.000000
vn -0.988228 -0.152989 0.000000
vn -0.988228 -0.152989 0.000000
vn -0.496428 -0.712123 0.496427
vn -0.496428 -0.712123 0.496427
vn -0.999988 -0.004814 0.000031
vn -0.999988 -0.004814 0.000031
vn -0.999988 -0.004814 0.000031
vn -0.999988 -0.004814 0.000031
vn 0.000000 0.241503 0.970400
vn 0.000000 0.241503 0.970400
vn 0.000000 0.241503 0.970400
vn 0.000000 0.241503 0.970400
vn 0.000000 1.000000 0.000000
vn 0.000000 1.000000 0.000000
vn 0.000000 -0.152969 0.988231
vn 0.000000 -0.152969 0.988231
vn 0.000000 -0.152969 0.988231
vn 0.000000 -0.152969 0.988231
vn 0.496418 -0.712131 0.496425
vn 0.496418 -0.712131 0.496425
vn 0.000000 -0.004079 0.999992
vn 0.000000 -0.004079 0.999992
vn 0.000000 -0.004079 0.999992
vn 0.000000 -0.004079 0.999992
vn 0.970399 0.241506 0.000000
vn 0.970399 0.241506 0.000000
vn 0.970399 0.241506 0.000000
vn 0.970399 0.241506 0.000000
vn 0.988231 -0.152967 0.000000
vn 0.988231 -0.152967 0.000000
vn 0.988231 -0.152967 0.000000
vn 0.988231 -0.152967 0.000000
vn 0.999988 -0.004814 0.000031
vn 0.999988 -0.004814 0.000031
vn 0.999988 -0.004814 0.000031
vn 0.999988 -0.004814 0.000031
vn 0.000000 1.000000 0.000000
vn 0.000000 1.000000 0.000000
vn 0.000000 1.000000 0.000000
vn 0.000000 1.000000 0.000000
vn 0.989803 -0.142446 0.000260
vn 0.989803 -0.142446 0.000260
vn 0.989803 -0.142446 0.000260
vn 0.989803 -0.142446 0.000260
vn -0.989805 -0.142426 0.000263
vn -0.989805 -0.142426 0.000263
vn -0.989805 -0.142426 0.000263
vn -0.989805 -0.142426 0.000263
vn 0.000000 -0.140396 0.990095
vn 0.000000 -0.140396 0.990095
vn 0.000000 -0.140396 0.990095
vn 0.000000 -0.140396 0.990095
vn 0.233276 0.944045 -0.233155
vn 0.233276 0.944045 -0.233155
vn -0.233280 0.944044 -0.233155
vn -0.233280 0.944044 -0.233155
vn -0.233269 0.944075 0.233042
vn -0.233269 0.944075 0.233042
vn 0.233265 0.944076 0.233042
vn 0.233265 0.944076 0.233042
vn 0.000000 0.000000 1.000000
vn 0.000000 0.000000 1.000000
vn 0.000000 0.000000 1.000000
vn 0.000000 0.000000 1.000000
vn 0.000000 0.000000 1.000000
vn 0.000000 0.000000 1.000000
s 1
f 2/1/1 26/2/2 27/3/3 3/4/4
f 28/5/5 4/6/6 3/7/4 27/8/3
f 29/9/7 5/10/8 4/6/6 28/5/5
f 30/11/9 6/12/10 5/13/8 29/14/7
f 25/15/11 1/16/12 6/17/10 30/18/9
s 2
f 8/19/13 9/20/14 33/21/15 32/22/16
f 34/23/17 33/24/15 9/25/14 10/26/18
f 35/27/19 34/23/17 10/26/18 11/28/20
f 36/29/21 35/30/19 11/31/20 12/32/22
f 31/33/23 36/34/21 12/35/22 7/36/24
s 3
f 32/37/25 38/38/26 14/39/27 8/40/28
s 4
f 1/41/29 25/42/30 31/43/31 7/44/32
s 5
f 37/45/33 39/46/34 15/47/35 13/48/36
s 6
f 13/49/37 16/50/38 40/51/39 37/52/40
f 41/53/41 40/54/39 16/55/38 17/56/42
f 42/57/43 41/53/41 17/56/42 18/58/44
f 43/59/45 42/60/43 18/61/44 19/62/46
f 38/63/47 43/64/45 19/65/46 14/66/48
s 7
f 20/67/49 21/68/50 45/69/51 44/70/52
f 46/71/53 45/72/51 21/73/50 22/74/54
f 47/75/55 46/71/53 22/74/54 23/76/56
f 48/77/57 47/78/55 23/79/56 24/80/58
f 39/81/59 48/82/57 24/83/58 15/84/60
s 1
f 26/85/2 50/86/61 51/87/62 27/88/3
f 52/89/63 28/90/5 27/91/3 51/92/62
f 53/93/64 29/94/7 28/90/5 52/89/63
f 54/95/65 30/96/9 29/97/7 53/98/64
f 49/99/66 25/100/11 30/101/9 54/102/65
s 2
f 32/103/16 33/104/15 57/105/67 56/106/68
f 58/107/69 57/108/67 33/109/15 34/110/17
f 59/111/70 58/107/69 34/110/17 35/112/19
f 60/113/71 59/114/70 35/115/19 36/116/21
f 55/117/72 60/118/71 36/119/21 31/120/23
s 3
f 56/121/73 62/122/74 38/123/26 32/124/25
s 4
f 25/125/30 49/126/75 55/127/76 31/128/31
s 5
f 61/129/77 63/130/78 39/131/34 37/132/33
s 6
f 37/133/40 40/134/39 64/135/79 61/136/80
f 65/137/81 64/138/79 40/139/39 41/140/41
f 66/141/82 65/137/81 41/140/41 42/142/43
f 67/143/83 66/144/82 42/145/43 43/146/45
f 62/147/84 67/148/83 43/149/45 38/150/47
s 7
f 44/151/52 45/152/51 69/153/85 68/154/86
f 70/155/87 69/156/85 45/157/51 46/158/53
f 71/159/88 70/155/87 46/158/53 47/160/55
f 72/161/89 71/162/88 47/163/55 48/164/57
f 63/165/90 72/166/89 48/167/57 39/168/59
s off
f 75/169/91 81/170/92 83/171/93 77/172/94
s 8
f 76/173/95 82/174/96 81/170/97 75/169/98
s off
f 79/175/99 85/176/100 82/174/101 76/173/102
s 9
f 80/177/103 86/178/104 85/176/105 79/175/106
s off
f 80/177/107 78/179/108 84/180/109 86/178/110
f 87/181/111 89/182/112 74/183/113 73/184/114
f 87/185/115 88/186/116 90/187/117 89/188/118
f 81/189/119 93/190/120 95/191/121 83/192/122
s 8
f 82/193/96 94/194/123 93/190/124 81/189/97
s off
f 85/195/125 97/196/126 94/194/127 82/193/128
s 9
f 86/197/104 98/198/129 97/196/130 85/195/105
s off
f 86/197/131 84/199/132 96/200/133 98/198/134
f 93/201/135 99/202/136 101/203/137 95/204/138
s 8
f 94/205/123 100/206/139 99/202/140 93/201/124
s off
f 97/207/141 103/208/142 100/206/143 94/205/144
s 9
f 98/209/129 104/210/145 103/208/146 97/207/130
s off
f 98/209/147 96/211/148 102/212/149 104/210/150
f 99/213/151 75/214/152 77/215/153 101/216/154
s 8
f 100/217/139 76/218/95 75/214/98 99/213/140
s off
f 103/219/155 79/220/156 76/218/157 100/217/158
s 9
f 104/221/145 80/222/103 79/220/106 103/219/146
s off
f 104/221/159 102/223/160 78/224/161 80/222/162
f 101/225/163 77/226/164 83/227/165 95/228/166
f 89/229/167 90/230/168 91/231/169 74/232/170
f 73/233/171 92/234/172 88/235/173 87/236/174
f 74/237/175 91/238/176 92/239/177 73/240/178
s 10
f 78/241/179 90/242/180 88/243/181 84/244/182
f 84/245/182 88/246/181 92/247/183 96/248/184
f 96/249/184 92/250/183 91/251/185 102/252/186
f 102/253/186 91/254/185 90/255/180 78/256/179
s 11
f 26/257/187 2/260/188 20/259/189 44/258/190
f 50/261/191 26/264/187 44/263/190 68/262/192
