# This file uses centimeters as units for non-parametric coordinates.

v 0.000000 3.699399 3.274453
v -0.636257 3.764582 3.221334
v -0.636257 3.355516 3.325686
v -0.521036 3.160574 3.350874
v 0.000000 -0.793388 -2.674746
v 0.000000 2.137591 1.199436
v -0.636257 -0.728664 -2.728496
v -0.636257 2.202727 1.146249
v -0.636257 -1.047143 -2.486665
v -0.636257 1.872000 1.362634
v -0.521036 -2.513904 -4.096738
v -0.521036 -1.185420 -2.375432
v -0.521036 1.726282 1.458217
v 0.627258 0.818806 3.390621
v 0.627258 -5.144676 -2.989654
v 0.627258 -2.105400 -1.124769
v 0.627258 0.078322 1.633554
v -0.627266 0.818806 3.390622
v -0.521036 1.539434 3.350509
v -0.627266 -5.144676 -2.989654
v -0.627266 -2.105400 -1.124769
v -0.627266 0.078322 1.633554
v -0.521036 -4.858725 -3.605529
v -0.521036 -1.659158 -1.653013
v -0.521036 0.690724 1.334791
v -0.627266 1.486382 3.350509
v -0.627266 0.649351 1.363014
v -0.627266 -1.691334 -1.615038
v -0.627266 -4.891983 -3.566276
v -0.521036 -0.373222 -0.282340
v -0.521036 -3.153103 -2.770160
v -0.518316 -6.838394 -4.197138
v 0.627258 -0.904115 0.152267
v -0.627266 -0.904115 0.152267
v -0.627266 -0.411549 -0.251204
v -0.627266 -6.857523 -4.152299
v -0.627266 -7.002419 -3.553194
v 0.627258 -7.002419 -3.553185
v -0.627266 -3.183001 -2.729446
v -0.627266 -3.505221 -2.183089
v 0.627258 -3.505221 -2.183089
v -0.314831 -0.728669 -2.728494
v -0.314831 2.202726 1.146251
v -0.314831 3.764582 3.221334
v -0.239632 3.699270 3.271665
v -0.239632 2.137425 1.196597
v -0.239632 -0.793869 -2.678013
v -0.518316 -9.350466 -4.778432
v -0.627266 -9.340508 -4.726006
v -0.627266 -9.351936 -4.054079
v 0.627258 -9.351932 -4.054059
v -0.521036 -1.180408 -1.142715
v 0.636257 3.764582 3.221334
v 0.636257 3.355516 3.325686
v 0.521036 3.160574 3.350874
v 0.636257 -0.728664 -2.728496
v 0.636257 2.202727 1.146249
v 0.636257 -1.047143 -2.486665
v 0.636257 1.872000 1.362634
v 0.521036 -2.513904 -4.096738
v 0.521036 -1.185420 -2.375433
v 0.521036 1.726282 1.458217
v 0.521036 1.539434 3.350509
v 0.521036 -4.858725 -3.605529
v 0.521036 -1.659158 -1.653013
v 0.521036 0.690724 1.334791
v 0.627258 1.486382 3.350509
v 0.627258 0.649351 1.363014
v 0.627258 -1.691334 -1.615038
v 0.627258 -4.891983 -3.566276
v 0.521036 -0.373222 -0.282340
v 0.521036 -3.153103 -2.770160
v 0.518307 -6.838394 -4.197138
v 0.627258 -0.411549 -0.251204
v 0.627258 -6.857523 -4.152299
v 0.627258 -3.183001 -2.729446
v 0.314823 -0.728669 -2.728494
v 0.314823 2.202726 1.146251
v 0.314823 3.764582 3.221334
v 0.239632 3.699270 3.271665
v 0.239632 2.137425 1.196597
v 0.239632 -0.793869 -2.678013
v 0.518307 -9.350466 -4.778432
v 0.627258 -9.340508 -4.726006
v 0.521036 -1.180408 -1.142716
v 0.000000 -1.964412 -4.236145
v -0.645134 -1.863699 -4.236145
v -0.646311 -2.284902 -4.096738
v -0.323730 -1.863706 -4.236145
v -0.248758 -1.964164 -4.236145
v 0.645134 -1.863699 -4.236145
v 0.646311 -2.284902 -4.096738
v 0.323727 -1.863705 -4.236145
v 0.248751 -1.964164 -4.236145
vt 0.218191 0.231968
vt 0.218190 0.006279
vt 0.221898 0.006279
vt 0.221899 0.231968
vt 0.221899 0.006545
vt 0.221899 0.119113
vt 0.218191 0.119113
vt 0.218191 0.006545
vt 0.218191 0.231857
vt 0.221899 0.231857
vt 0.279177 0.232683
vt 0.268728 0.232683
vt 0.279178 0.232683
vt 0.268728 0.232683
vt 0.268728 0.006279
vt 0.279177 0.006279
vt 0.279178 0.119113
vt 0.268728 0.119113
vt 0.268728 0.006279
vt 0.279178 0.006279
vt 0.290602 0.232683
vt 0.279177 0.232683
vt 0.290602 0.119113
vt 0.290601 0.232683
vt 0.279178 0.232683
vt 0.279177 0.006279
vt 0.290602 0.006279
vt 0.290601 0.119113
vt 0.279178 0.119113
vt 0.279178 0.006279
vt 0.290601 0.006279
vt 0.279191 0.232683
vt 0.279192 0.119113
vt 0.305014 0.119113
vt 0.305014 0.232683
vt 0.279192 0.119113
vt 0.279192 0.006279
vt 0.305014 0.006279
vt 0.305014 0.119113
vt 0.279192 0.119113
vt 0.279191 0.006279
vt 0.305014 0.006279
vt 0.305014 0.119113
vt 0.279191 0.119399
vt 0.305014 0.119399
vt 0.305014 0.232683
vt 0.279191 0.232683
vt 0.288698 0.232683
vt 0.268728 0.232683
vt 0.268728 0.119399
vt 0.288698 0.119399
vt 0.288698 0.232683
vt 0.268728 0.232683
vt 0.268728 0.119113
vt 0.288699 0.119113
vt 0.288699 0.119113
vt 0.268728 0.119113
vt 0.268728 0.006279
vt 0.288698 0.006279
vt 0.288700 0.119113
vt 0.268728 0.119113
vt 0.268728 0.006279
vt 0.288700 0.006279
vt 0.270794 0.119113
vt 0.276632 0.119113
vt 0.276632 0.006279
vt 0.270794 0.006279
vt 0.270794 0.119113
vt 0.276632 0.119113
vt 0.276596 0.048270
vt 0.276632 0.006279
vt 0.270795 0.006279
vt 0.270795 0.232683
vt 0.276632 0.232683
vt 0.276632 0.119113
vt 0.270795 0.119113
vt 0.270794 0.232683
vt 0.276632 0.232683
vt 0.276632 0.119399
vt 0.270794 0.119399
vt 0.279174 0.006279
vt 0.304971 0.006279
vt 0.268728 0.006279
vt 0.288643 0.006279
vt 0.276582 0.006279
vt 0.270773 0.006279
vt 0.279192 0.232683
vt 0.305014 0.232683
vt 0.288700 0.232683
vt 0.268728 0.232683
vt 0.276632 0.232683
vt 0.270794 0.232683
vt 0.270795 0.119113
vt 0.276632 0.119113
vt 0.276632 0.006279
vt 0.270795 0.006279
vt 0.288699 0.119113
vt 0.268728 0.119113
vt 0.268728 0.006279
vt 0.288700 0.006279
vt 0.279192 0.119113
vt 0.279192 0.006279
vt 0.305014 0.006279
vt 0.305014 0.119113
vt 0.232869 0.231857
vt 0.221899 0.231857
vt 0.221899 0.231968
vt 0.221898 0.006279
vt 0.232868 0.006279
vt 0.232869 0.231968
vt 0.232869 0.006545
vt 0.232869 0.119113
vt 0.221899 0.119113
vt 0.221899 0.006545
vt 0.206376 0.119113
vt 0.206376 0.006545
vt 0.206376 0.006279
vt 0.206376 0.231968
vt 0.206376 0.231857
vt 0.465905 0.760485
vt 0.495035 0.615794
vt 0.544575 0.721043
vt 0.567983 0.842462
vt 0.886647 0.741346
vt 0.886672 0.852600
vt 0.761844 0.754169
vt 0.753704 0.683102
vt 0.610825 0.813229
vt 0.647048 0.610086
vt 0.509001 0.554348
vt 0.590303 0.554691
vt 0.459951 0.493636
vt 0.641087 0.842771
vt 0.218191 0.231968
vt 0.221899 0.231968
vt 0.221898 0.006279
vt 0.218190 0.006279
vt 0.221899 0.006545
vt 0.218191 0.006545
vt 0.218191 0.119113
vt 0.221899 0.119113
vt 0.218191 0.231857
vt 0.221899 0.231857
vt 0.268728 0.232683
vt 0.279177 0.232683
vt 0.279178 0.232683
vt 0.279177 0.006279
vt 0.268728 0.006279
vt 0.268728 0.232683
vt 0.279178 0.119113
vt 0.279178 0.006279
vt 0.268728 0.006279
vt 0.268728 0.119113
vt 0.290602 0.232683
vt 0.290602 0.119113
vt 0.279177 0.232683
vt 0.290601 0.232683
vt 0.290602 0.006279
vt 0.279177 0.006279
vt 0.279178 0.232683
vt 0.290601 0.119113
vt 0.290601 0.006279
vt 0.279178 0.006279
vt 0.279178 0.119113
vt 0.288698 0.232683
vt 0.288698 0.119399
vt 0.268728 0.119399
vt 0.268728 0.232683
vt 0.288698 0.232683
vt 0.288699 0.119113
vt 0.268728 0.119113
vt 0.268728 0.232683
vt 0.288699 0.119113
vt 0.288698 0.006279
vt 0.268728 0.006279
vt 0.268728 0.119113
vt 0.288700 0.119113
vt 0.288700 0.006279
vt 0.268728 0.006279
vt 0.268728 0.119113
vt 0.270794 0.119113
vt 0.270794 0.006279
vt 0.276632 0.006279
vt 0.276632 0.119113
vt 0.270794 0.119113
vt 0.270795 0.006279
vt 0.276632 0.006279
vt 0.276596 0.048270
vt 0.276632 0.119113
vt 0.270795 0.232683
vt 0.270795 0.119113
vt 0.276632 0.119113
vt 0.276632 0.232683
vt 0.270794 0.232683
vt 0.270794 0.119399
vt 0.276632 0.119399
vt 0.276632 0.232683
vt 0.288643 0.006279
vt 0.268728 0.006279
vt 0.270773 0.006279
vt 0.276582 0.006279
vt 0.288700 0.232683
vt 0.268728 0.232683
vt 0.276632 0.232683
vt 0.270794 0.232683
vt 0.270795 0.119113
vt 0.270795 0.006279
vt 0.276632 0.006279
vt 0.276632 0.119113
vt 0.288699 0.119113
vt 0.288700 0.006279
vt 0.268728 0.006279
vt 0.268728 0.119113
vt 0.232869 0.231857
vt 0.221899 0.231857
vt 0.221899 0.231968
vt 0.232869 0.231968
vt 0.232868 0.006279
vt 0.221898 0.006279
vt 0.232869 0.006545
vt 0.221899 0.006545
vt 0.221899 0.119113
vt 0.232869 0.119113
vt 0.206376 0.006545
vt 0.206376 0.119113
vt 0.206376 0.006279
vt 0.206376 0.231968
vt 0.206376 0.231857
vt 0.465905 0.760485
vt 0.567983 0.842462
vt 0.544575 0.721043
vt 0.495035 0.615794
vt 0.886647 0.741346
vt 0.753704 0.683102
vt 0.761844 0.754169
vt 0.886672 0.852600
vt 0.610825 0.813229
vt 0.647048 0.610086
vt 0.509001 0.554348
vt 0.590303 0.554691
vt 0.459951 0.493636
vt 0.641087 0.842771
vt 0.206376 0.124516
vt 0.206376 0.124516
vt 0.268592 0.129550
vt 0.232833 0.127621
vt 0.279441 0.123330
vt 0.279432 0.124695
vt 0.221915 0.127791
vt 0.221880 0.127621
vt 0.218182 0.124544
vt 0.232833 0.127621
vt 0.268592 0.129550
vt 0.279432 0.124695
vt 0.279441 0.123330
vt 0.221880 0.127621
vt 0.221915 0.127791
vt 0.218182 0.124544
vn 0.738855 0.537901 -0.405902
vn 0.736580 0.538939 -0.408649
vn 0.736580 0.538939 -0.408649
vn 0.738855 0.537901 -0.405902
vn 0.738848 0.538406 -0.405243
vn 0.738848 0.538406 -0.405243
vn 0.734291 0.540477 -0.410732
vn 0.734291 0.540477 -0.410732
vn -1.000000 0.000000 0.000000
vn -1.000000 0.000000 0.000000
vn -0.999997 0.001695 0.001746
vn -0.999997 0.001695 0.001746
vn -1.000000 0.000000 0.000000
vn -1.000000 0.000000 0.000000
vn -0.833247 -0.438608 0.336635
vn -0.833247 -0.438608 0.336635
vn -0.830343 -0.440245 0.341637
vn -0.830343 -0.440245 0.341637
vn -0.833670 -0.440149 0.333560
vn -0.833670 -0.440149 0.333560
vn -0.831203 -0.443335 0.335493
vn -0.831203 -0.443335 0.335493
vn 0.000000 -0.668102 0.744070
vn 0.000000 -0.524629 0.851331
vn 0.000000 -0.524629 0.851331
vn 0.000000 -0.668102 0.744070
vn 0.000000 -0.921510 0.388354
vn 0.000000 -0.881280 0.472595
vn 0.000000 -0.881280 0.472595
vn 0.000000 -0.921510 0.388354
vn 0.000000 -0.783678 0.621168
vn 0.000000 -0.783678 0.621168
vn -0.000007 -0.249613 0.968346
vn -0.000007 -0.249613 0.968346
vn -0.000001 -0.367076 0.930191
vn -0.000001 -0.367076 0.930191
vn -1.000000 0.000000 0.000000
vn -1.000000 0.000000 0.000000
vn -1.000000 0.000000 0.000000
vn -1.000000 0.000000 0.000000
vn -1.000000 -0.000000 0.000000
vn -1.000000 -0.000000 0.000000
vn -1.000000 0.000000 0.000000
vn -1.000000 0.000000 0.000000
vn -1.000000 -0.000000 0.000000
vn -1.000000 -0.000000 0.000000
vn -1.000000 0.000000 0.000000
vn -1.000000 0.000000 0.000000
vn -1.000000 -0.000000 0.000000
vn -1.000000 -0.000000 0.000000
vn -0.418775 0.836915 -0.352422
vn -0.418775 0.836915 -0.352422
vn -0.422388 0.799752 -0.426598
vn -0.422388 0.799752 -0.426598
vn -0.423491 0.711378 -0.560889
vn -0.423491 0.711378 -0.560889
vn -0.421326 0.661368 -0.620545
vn -0.425269 0.603335 -0.674636
vn -0.425269 0.603335 -0.674636
vn -0.427006 0.471539 -0.771568
vn -0.427006 0.471539 -0.771568
vn -0.416350 0.330646 -0.846951
vn -0.416350 0.330646 -0.846951
vn -0.406135 0.233608 -0.883448
vn -0.406135 0.233608 -0.883448
vn -0.000011 -0.208499 0.978023
vn -0.000011 -0.208499 0.978023
vn -1.000000 0.000000 0.000000
vn -1.000000 0.000000 0.000000
vn -0.406088 0.205873 -0.890342
vn -0.406088 0.205873 -0.890342
vn 0.000013 0.798198 -0.602395
vn 0.000013 0.798198 -0.602395
vn 0.000016 0.798905 -0.601457
vn 0.000016 0.798905 -0.601457
vn 0.000007 0.798233 -0.602349
vn 0.000007 0.798233 -0.602349
vn 0.000004 0.798975 -0.601365
vn 0.000004 0.798975 -0.601365
vn 0.006569 0.798957 -0.601353
vn 0.000000 0.798974 -0.601366
vn 0.000000 0.798232 -0.602350
vn 0.006590 0.798215 -0.602337
vn -0.000000 0.798641 -0.601808
vn 0.005121 0.798630 -0.601800
vn -0.000000 0.799789 -0.600281
vn 0.003633 0.799784 -0.600277
vn -0.999999 -0.000283 -0.001351
vn -0.999999 -0.000283 -0.001351
vn -1.000000 -0.000000 0.000000
vn -1.000000 -0.000000 0.000000
vn -1.000000 0.000000 0.000000
vn -1.000000 0.000000 0.000000
vn -1.000000 -0.000000 0.000000
vn -1.000000 -0.000000 0.000000
vn -1.000000 -0.000000 0.000000
vn -1.000000 -0.000000 0.000000
vn -1.000000 0.000000 0.000000
vn -0.999996 -0.000566 -0.002703
vn -0.738889 0.537871 -0.405879
vn -0.738889 0.537871 -0.405879
vn -0.736602 0.538920 -0.408634
vn -0.736602 0.538920 -0.408634
vn -0.738883 0.538376 -0.405220
vn -0.738883 0.538376 -0.405220
vn -0.734301 0.540469 -0.410725
vn -0.734301 0.540469 -0.410725
vn 1.000000 -0.000000 0.000000
vn 0.999997 0.001695 0.001746
vn 0.999997 0.001695 0.001746
vn 1.000000 -0.000000 0.000000
vn 1.000000 -0.000000 0.000000
vn 1.000000 -0.000000 0.000000
vn 0.833247 -0.438608 0.336635
vn 0.830343 -0.440245 0.341637
vn 0.830343 -0.440245 0.341637
vn 0.833247 -0.438608 0.336635
vn 0.833670 -0.440149 0.333560
vn 0.833670 -0.440149 0.333560
vn 0.831203 -0.443334 0.335493
vn 0.831203 -0.443334 0.335493
vn 1.000000 -0.000000 0.000000
vn 1.000000 -0.000000 0.000000
vn 1.000000 -0.000000 0.000000
vn 1.000000 -0.000000 0.000000
vn 1.000000 0.000000 0.000000
vn 1.000000 -0.000000 0.000000
vn 1.000000 -0.000000 0.000000
vn 1.000000 0.000000 0.000000
vn 1.000000 0.000000 0.000000
vn 1.000000 0.000000 0.000000
vn 1.000000 -0.000000 0.000000
vn 1.000000 -0.000000 0.000000
vn 1.000000 -0.000000 0.000000
vn 1.000000 -0.000000 0.000000
vn 0.418800 0.836904 -0.352418
vn 0.422413 0.799742 -0.426592
vn 0.422413 0.799742 -0.426592
vn 0.418800 0.836904 -0.352418
vn 0.423516 0.711369 -0.560882
vn 0.425295 0.603327 -0.674627
vn 0.425295 0.603327 -0.674627
vn 0.421351 0.661360 -0.620537
vn 0.423516 0.711369 -0.560882
vn 0.427032 0.471533 -0.771557
vn 0.427032 0.471533 -0.771557
vn 0.416369 0.330642 -0.846943
vn 0.406137 0.233608 -0.883448
vn 0.406137 0.233608 -0.883448
vn 0.416369 0.330642 -0.846943
vn 1.000000 0.000000 0.000000
vn 1.000000 0.000000 0.000000
vn 0.406080 0.205873 -0.890345
vn 0.406080 0.205873 -0.890345
vn -0.000013 0.798198 -0.602395
vn -0.000016 0.798905 -0.601457
vn -0.000016 0.798905 -0.601457
vn -0.000013 0.798198 -0.602395
vn -0.000007 0.798233 -0.602349
vn -0.000007 0.798233 -0.602349
vn -0.000004 0.798975 -0.601365
vn -0.000004 0.798975 -0.601365
vn -0.006569 0.798957 -0.601353
vn -0.006589 0.798215 -0.602337
vn -0.005121 0.798630 -0.601800
vn -0.003633 0.799784 -0.600277
vn 0.999999 -0.000284 -0.001356
vn 1.000000 -0.000000 0.000000
vn 1.000000 -0.000000 0.000000
vn 0.999999 -0.000284 -0.001356
vn 1.000000 0.000000 0.000000
vn 1.000000 0.000000 0.000000
vn 1.000000 0.000000 0.000000
vn 1.000000 0.000000 0.000000
vn 1.000000 0.000000 0.000000
vn 1.000000 -0.000000 0.000000
vn 1.000000 -0.000000 0.000000
vn 0.999996 -0.000568 -0.002712
vn -0.999988 0.003391 0.003491
vn -0.999988 0.003391 0.003491
vn 0.999988 0.003391 0.003491
vn 0.999988 0.003391 0.003491
s 1
f 46/1/1 47/2/2 42/3/3 43/4/4
f 43/5/4 44/6/5 45/7/6 46/8/1
f 47/9/2 90/251/7 89/249/8 42/10/3
s 2
f 10/13/9 8/14/10 7/15/11 9/16/12
f 3/17/13 2/18/14 8/19/10 10/20/9
s 3
f 12/21/15 9/22/16 88/248/17 11/23/18
f 13/24/19 10/25/20 9/26/16 12/27/15
f 4/28/21 3/29/22 10/30/20 13/31/19
s 4
f 21/32/23 40/33/24 41/34/25 16/35/26
f 18/36/27 22/37/28 17/38/29 14/39/30
f 34/40/31 21/41/23 16/42/26 33/43/32
f 37/44/33 38/45/34 15/46/35 20/47/36
s 7
f 20/48/37 29/49/38 36/50/39 37/51/40
f 21/52/41 28/53/42 39/54/43 40/55/44
f 34/56/45 35/57/46 28/58/42 21/59/41
f 18/60/47 26/61/48 27/62/49 22/63/50
s 9
f 26/64/51 19/65/52 25/66/53 27/67/54
f 35/68/55 30/69/56 52/70/57 24/71/58 28/72/59
f 28/73/59 24/74/58 31/75/60 39/76/61
f 29/77/62 23/78/63 32/79/64 36/80/65
s 4
f 38/45/34 37/44/33 50/81/66 51/82/67
s 7
f 36/50/39 49/83/68 50/84/69 37/51/40
s 9
f 32/79/64 48/85/70 49/86/71 36/80/65
s 4
f 22/87/28 34/40/31 33/43/32 17/88/29
s 7
f 22/89/50 27/90/49 35/57/46 34/56/45
s 9
f 25/91/53 30/69/56 35/68/55 27/92/54
f 39/93/61 31/94/60 23/95/63 29/96/62
s 7
f 40/97/44 39/98/43 29/99/38 20/100/37
s 4
f 40/101/24 20/102/36 15/103/35 41/104/25
s 10
f 7/105/72 42/106/73 89/250/74 87/246/75
f 43/107/76 42/108/73 7/109/72 8/110/77
f 8/111/77 2/112/78 44/113/79 43/114/76
s 11
f 45/7/80 1/115/81 6/116/82 46/8/83
f 5/117/84 47/2/85 46/1/83 6/118/82
f 47/9/85 5/119/84 86/244/86 90/251/87
s 12
f 11/120/88 23/121/89 31/122/90 12/123/91
f 19/124/92 4/125/93 13/126/94 25/127/95
f 31/122/90 24/128/96 12/123/91
f 30/129/97 25/127/95 13/126/94 12/130/91
f 12/130/91 52/131/98 30/129/97
f 11/120/88 32/132/99 23/121/89
f 12/123/91 24/128/96 52/133/98
s 14
f 81/134/100 78/135/101 77/136/102 82/137/103
f 78/138/101 81/139/100 80/140/104 79/141/105
f 82/142/103 77/143/102 93/257/106 94/258/107
s 15
f 59/146/108 58/147/109 56/148/110 57/149/111
f 54/150/112 59/151/108 57/152/111 53/153/113
s 16
f 61/154/114 60/155/115 92/254/116 58/156/117
f 62/157/118 61/158/114 58/159/117 59/160/119
f 55/161/120 62/162/118 59/163/119 54/164/121
s 17
f 15/165/122 38/166/123 75/167/124 70/168/125
f 16/169/126 41/170/127 76/171/128 69/172/129
f 33/173/130 16/174/126 69/175/129 74/176/131
f 14/177/132 17/178/133 68/179/134 67/180/135
s 18
f 67/181/136 68/182/137 66/183/138 63/184/139
f 74/185/140 69/186/141 65/187/142 85/188/143 71/189/144
f 69/190/141 76/191/145 72/192/146 65/193/142
f 70/194/147 75/195/148 73/196/149 64/197/150
s 17
f 75/167/124 38/166/123 51/198/151 84/199/152
s 18
f 73/196/149 75/195/148 84/200/153 83/201/154
s 17
f 17/202/133 33/173/130 74/176/131 68/203/134
s 18
f 66/204/138 68/205/137 74/185/140 71/189/144
f 76/206/145 70/207/147 64/208/150 72/209/146
s 17
f 41/210/127 15/211/122 70/212/125 76/213/128
s 21
f 56/214/155 91/252/156 93/256/157 77/215/158
f 78/216/159 57/217/160 56/218/155 77/219/158
f 57/220/160 78/221/159 79/222/161 53/223/162
s 11
f 80/140/163 81/139/164 6/224/82 1/225/81
f 5/226/84 6/227/82 81/134/164 82/137/165
f 82/142/165 94/258/166 86/243/86 5/228/84
s 22
f 60/229/167 61/230/168 72/231/169 64/232/170
f 63/233/171 66/234/172 62/235/173 55/236/174
f 72/231/169 61/230/168 65/237/175
f 71/238/176 61/239/168 62/235/173 66/234/172
f 61/239/168 71/238/176 85/240/177
f 60/229/167 64/232/170 73/241/178
f 61/230/168 85/242/177 65/237/175
s 2
f 87/245/179 88/247/180 9/11/12 7/12/11
s 15
f 92/255/181 91/253/182 56/144/110 58/145/109
