# This file uses centimeters as units for non-parametric coordinates.

v -0.238408 0.419243 0.238409
v -0.238408 0.419243 -0.238412
v 0.238408 0.419243 -0.238409
v -0.256580 -0.131854 0.256577
v -0.256584 -0.131854 -0.256580
v 0.256580 -0.131854 -0.256577
v -0.202499 -0.145622 0.202499
v -0.202511 -0.145622 -0.202507
v 0.202499 -0.145622 -0.202499
v -0.189430 -0.411146 0.189432
v -0.189444 -0.411146 -0.189442
v 0.189430 -0.411146 -0.189432
v -0.257677 -0.425946 0.257669
v -0.257696 -0.425946 -0.257679
v 0.257677 -0.425946 -0.257669
v -0.190954 -0.985902 0.190958
v -0.190971 -0.985902 -0.190968
v 0.190954 -0.985902 -0.190958
v -0.125950 -1.077234 0.125946
v -0.125969 -1.077234 -0.125954
v 0.125950 -1.077234 -0.125946
v 0.125950 -1.077234 0.125946
v 0.238408 0.419243 0.238412
v 0.256584 -0.131854 0.256580
v 0.202511 -0.145622 0.202507
v 0.189444 -0.411146 0.189442
v 0.257696 -0.425946 0.257679
v 0.190971 -0.985902 0.190968
v -0.282489 0.343627 -0.282492
v -0.282488 0.343627 0.282489
v 0.282489 0.343627 0.282492
v 0.282488 0.343627 -0.282489
vt 0.931573 0.353847
vt 0.968235 0.353847
vt 0.894913 0.353847
vt 0.931573 0.311933
vt 0.968235 0.311933
vt 0.894913 0.311933
vt 0.931573 0.192406
vt 0.931573 0.229597
vt 0.894913 0.229597
vt 0.894913 0.192406
vt 0.931573 0.307287
vt 0.968235 0.307287
vt 0.894913 0.307287
vt 0.931573 0.282557
vt 0.968235 0.282741
vt 0.894913 0.282713
vt 0.931573 0.276907
vt 0.968235 0.276907
vt 0.894913 0.276907
vt 0.931573 0.237678
vt 0.968235 0.237678
vt 0.894913 0.237678
vt 0.968235 0.229597
vt 0.931573 0.353847
vt 0.968235 0.353847
vt 0.894913 0.353847
vt 0.931573 0.311933
vt 0.968235 0.311933
vt 0.894913 0.311933
vt 0.931573 0.307287
vt 0.968235 0.307287
vt 0.894913 0.307287
vt 0.931573 0.282557
vt 0.968235 0.282741
vt 0.894913 0.282713
vt 0.931573 0.276907
vt 0.968235 0.276907
vt 0.894913 0.276907
vt 0.931573 0.237678
vt 0.968235 0.237678
vt 0.894913 0.237678
vt 0.931573 0.229597
vt 0.968235 0.229597
vt 0.894913 0.229597
vt 0.935917 0.183532
vt 0.894499 0.183532
vt 0.894499 0.141300
vt 0.935917 0.141300
vt 0.931573 0.349521
vt 0.894913 0.349521
vt 0.968235 0.349521
vt 0.931573 0.349521
vt 0.894913 0.349521
vt 0.968235 0.349521
vt 0.968235 0.349521
vt 0.894913 0.349521
vt 0.931573 0.349521
vt 0.931573 0.349521
vt 0.968235 0.349521
vt 0.894913 0.349521
vn -0.863922 0.503625 0.000000
vn -0.863922 0.503625 0.000000
vn -0.972122 0.234476 0.000002
vn -0.972122 0.234476 0.000002
vn 0.000005 0.503623 -0.863924
vn 0.000005 0.503623 -0.863924
vn 0.000006 0.234469 -0.972124
vn 0.000006 0.234469 -0.972124
vn 0.000000 -1.000000 0.000000
vn 0.000000 -1.000000 0.000000
vn 0.000000 -1.000000 0.000000
vn 0.000000 -1.000000 0.000000
vn -0.125285 -0.984178 0.125289
vn -0.125282 -0.984179 -0.125285
vn -0.125282 -0.984179 -0.125285
vn -0.125285 -0.984178 0.125289
vn 0.125285 -0.984178 -0.125289
vn 0.125285 -0.984178 -0.125289
vn -0.998791 -0.049157 0.000032
vn -0.998791 -0.049157 0.000032
vn -0.998791 -0.049157 0.000032
vn -0.998791 -0.049157 0.000032
vn 0.000022 -0.049150 -0.998791
vn 0.000022 -0.049150 -0.998791
vn 0.000022 -0.049150 -0.998791
vn 0.000022 -0.049150 -0.998791
vn -0.107176 0.988444 0.107196
vn -0.107171 0.988446 -0.107188
vn -0.107171 0.988446 -0.107188
vn -0.107176 0.988444 0.107196
vn 0.107176 0.988444 -0.107196
vn 0.107176 0.988444 -0.107196
vn -0.992975 -0.118322 0.000040
vn -0.992975 -0.118322 0.000040
vn -0.992975 -0.118322 0.000040
vn -0.992975 -0.118322 0.000040
vn 0.000021 -0.118300 -0.992978
vn 0.000021 -0.118300 -0.992978
vn 0.000021 -0.118300 -0.992978
vn 0.000021 -0.118300 -0.992978
vn -0.814717 -0.579859 0.000047
vn -0.814717 -0.579859 0.000047
vn -0.814717 -0.579859 0.000047
vn -0.814717 -0.579859 0.000047
vn 0.000022 -0.579915 -0.814677
vn 0.000022 -0.579915 -0.814677
vn 0.000022 -0.579915 -0.814677
vn 0.000022 -0.579915 -0.814677
vn 0.863922 0.503625 -0.000000
vn 0.863922 0.503625 -0.000000
vn 0.972122 0.234476 -0.000002
vn 0.972122 0.234476 -0.000002
vn -0.000005 0.503623 0.863924
vn -0.000005 0.503623 0.863924
vn -0.000006 0.234469 0.972124
vn -0.000006 0.234469 0.972124
vn 0.125282 -0.984179 0.125285
vn 0.125282 -0.984179 0.125285
vn 0.998791 -0.049157 -0.000032
vn 0.998791 -0.049157 -0.000032
vn 0.998791 -0.049157 -0.000032
vn 0.998791 -0.049157 -0.000032
vn -0.000022 -0.049150 0.998791
vn -0.000022 -0.049150 0.998791
vn -0.000022 -0.049150 0.998791
vn -0.000022 -0.049150 0.998791
vn 0.107171 0.988446 0.107188
vn 0.107171 0.988446 0.107188
vn 0.992975 -0.118322 -0.000040
vn 0.992975 -0.118322 -0.000040
vn 0.992975 -0.118322 -0.000040
vn 0.992975 -0.118322 -0.000040
vn -0.000021 -0.118300 0.992978
vn -0.000021 -0.118300 0.992978
vn -0.000021 -0.118300 0.992978
vn -0.000021 -0.118300 0.992978
vn 0.814677 -0.579915 -0.000022
vn 0.814677 -0.579915 -0.000022
vn 0.814677 -0.579915 -0.000022
vn 0.814677 -0.579915 -0.000022
vn -0.000012 -0.579938 0.814661
vn -0.000012 -0.579938 0.814661
vn -0.000012 -0.579938 0.814661
vn -0.000012 -0.579938 0.814661
vn 0.000000 1.000000 0.000000
vn 0.000000 1.000000 0.000000
vn 0.000000 1.000000 0.000000
vn 0.000000 1.000000 0.000000
vn -0.998519 -0.054404 0.000004
vn -0.998519 -0.054404 0.000004
vn -0.000006 -0.054416 0.998518
vn -0.000006 -0.054416 0.998518
vn 0.998519 -0.054404 -0.000004
vn 0.998519 -0.054404 -0.000004
vn 0.000006 -0.054416 -0.998518
vn 0.000006 -0.054416 -0.998518
s 1
f 1/2/1 2/1/2 29/49/3 30/59/4
s 2
f 2/1/5 3/3/6 32/56/7 29/49/8
s off
f 19/7/9 20/8/10 21/9/11 22/10/12
s 3
f 4/5/13 5/4/14 8/11/15 7/12/16
f 5/4/14 6/6/17 9/13/18 8/11/15
s off
f 7/12/19 8/11/20 11/14/21 10/15/22
f 8/11/23 9/13/24 12/16/25 11/14/26
s 4
f 10/15/27 11/14/28 14/17/29 13/18/30
f 11/14/28 12/16/31 15/19/32 14/17/29
s off
f 13/18/33 14/17/34 17/20/35 16/21/36
f 14/17/37 15/19/38 18/22/39 17/20/40
f 16/21/41 17/20/42 20/8/43 19/23/44
f 17/20/45 18/22/46 21/9/47 20/8/48
s 5
f 3/25/49 23/24/50 31/58/51 32/55/52
s 6
f 23/24/53 1/26/54 30/60/55 31/58/56
s 3
f 6/28/17 24/27/57 25/30/58 9/31/18
f 24/27/57 4/29/13 7/32/16 25/30/58
s off
f 9/31/59 25/30/60 26/33/61 12/34/62
f 25/30/63 7/32/64 10/35/65 26/33/66
s 4
f 12/34/31 26/33/67 27/36/68 15/37/32
f 26/33/67 10/35/27 13/38/30 27/36/68
s off
f 15/37/69 27/36/70 28/39/71 18/40/72
f 27/36/73 13/38/74 16/41/75 28/39/76
f 18/40/77 28/39/78 22/42/79 21/43/80
f 28/39/81 16/41/82 19/44/83 22/42/84
f 1/45/85 23/46/86 3/47/87 2/48/88
s 1
f 30/51/4 29/57/3 5/4/89 4/5/90
s 6
f 31/52/56 30/50/55 4/29/91 24/27/92
s 5
f 32/54/52 31/52/51 24/27/93 6/28/94
s 2
f 29/57/8 32/53/7 6/6/95 5/4/96
