# This file uses centimeters as units for non-parametric coordinates.

v -1.000000 0.334320 0.167362
v -1.000000 0.334320 -0.167364
v -1.000000 -0.107747 -0.205256
v -1.000000 -0.107747 -0.132187
v -1.000000 -0.448579 -0.132187
v -1.000000 -0.448579 -0.192373
v -1.000000 -0.912942 0.168695
v -1.000000 -0.912942 -0.168699
v -1.000000 0.263607 -0.222673
v -1.000000 -0.107747 0.205254
v -1.000000 -0.107747 0.132187
v -1.000000 -0.448579 0.132187
v -1.000000 -0.448579 0.192369
v -1.000000 0.263607 0.222670
v 1.150894 1.123406 -0.150900
v 1.150894 1.123406 0.150892
v 1.201500 0.454165 -0.201506
v 1.201508 0.454165 0.201498
v 1.167747 0.331579 -0.164892
v 1.167747 0.331579 0.164886
v 1.108177 0.468950 -0.108179
v 1.108177 0.468950 0.108175
v 1.092865 1.169414 0.093613
v 1.092865 1.169414 -0.093620
v 1.084839 0.883039 0.084829
v 1.084831 0.883039 -0.084837
v 0.849106 1.123406 0.150896
v 0.798500 0.454165 0.201502
v 0.832260 0.331579 0.164888
v 0.891823 0.468950 0.108175
v 0.907135 1.169414 0.093616
v 0.915169 0.883039 0.084833
v 0.849106 1.123406 -0.150896
v 0.798492 0.454165 -0.201502
v 0.832253 0.331579 -0.164888
v 0.891823 0.468950 -0.108179
v 0.907135 1.169414 -0.093616
v 0.915161 0.883039 -0.084833
v 0.150894 1.123406 0.150894
v -0.150894 1.123406 0.150898
v 0.201508 0.454165 0.201500
v -0.201500 0.454165 0.201504
v 0.164886 0.331579 0.167744
v -0.164886 0.331579 0.167746
v 0.108177 0.468950 0.108177
v -0.108177 0.468950 0.108177
v -0.093613 1.169414 0.092865
v 0.093620 1.169414 0.092861
v -0.084831 0.883039 0.084835
v 0.084839 0.883039 0.084831
v -0.150894 1.123406 -0.150894
v -0.201508 0.454165 -0.201500
v -0.164886 0.331579 -0.167744
v -0.108177 0.468950 -0.108177
v -0.093620 1.169414 -0.092863
v -0.084839 0.883039 -0.084831
v 0.150894 1.123406 -0.150898
v 0.201500 0.454165 -0.201504
v 0.164886 0.331579 -0.167747
v 0.108177 0.468950 -0.108177
v 0.093613 1.169414 -0.092865
v 0.084831 0.883039 -0.084835
v 2.000000 1.322790 0.161579
v 2.000000 1.322790 -0.161579
v 2.000000 1.240058 0.161579
v 2.000000 1.240058 -0.161579
v -1.000000 1.322790 0.161579
v -1.000000 1.322790 -0.161579
v -1.000000 1.240058 0.161579
v -1.000000 1.240058 -0.161579
v 2.000000 1.378627 0.107290
v 2.000000 1.378627 -0.107290
v -1.000000 1.378627 0.107288
v -1.000000 1.378627 -0.107292
v 2.000000 1.169414 0.096226
v 2.000000 1.169414 -0.096226
v -1.000000 1.169414 0.096226
v -1.000000 1.169414 -0.096226
v 2.000000 0.334320 0.167362
v 2.000000 0.334320 -0.167364
v 2.000000 0.263607 -0.222673
v 2.000000 -0.107747 -0.205256
v 2.000000 -0.107747 -0.132187
v 2.000000 -0.448579 -0.132187
v 2.000000 -0.448579 -0.192373
v 2.000000 -0.912942 -0.168699
v 2.000000 -0.912942 0.168695
v 2.000000 -0.448579 0.192370
v 2.000000 -0.448579 0.132187
v 2.000000 -0.107747 0.132187
v 2.000000 -0.107747 0.205254
v 2.000000 0.263607 0.222671
vt 0.884338 0.355153
vt 0.884336 0.383420
vt 0.884344 0.319836
vt 0.884344 0.315842
vt 0.884347 0.292921
vt 0.884348 0.288156
vt 0.884352 0.254336
vt 0.884355 0.229060
vt 0.884340 0.345472
vt 0.884340 0.345472
vt 0.884344 0.319836
vt 0.884344 0.315842
vt 0.884347 0.292921
vt 0.884348 0.288156
vt 0.884352 0.254336
vt 0.884338 0.355153
vt 0.965886 0.400574
vt 0.994452 0.400681
vt 0.987820 0.407369
vt 0.972474 0.407314
vt 0.967172 0.391936
vt 0.993227 0.392023
vt 0.974037 0.435585
vt 0.986053 0.435627
vt 0.990673 0.454774
vt 0.968915 0.454697
vt 0.987426 0.458646
vt 0.972510 0.458611
vt 0.969671 0.379164
vt 0.998237 0.379057
vt 0.991604 0.372370
vt 0.976259 0.372425
vt 0.970957 0.387802
vt 0.997012 0.387716
vt 0.977822 0.344153
vt 0.989838 0.344111
vt 0.994079 0.324965
vt 0.973079 0.325041
vt 0.991211 0.321093
vt 0.976294 0.321128
vt 0.969671 0.379164
vt 0.998237 0.379057
vt 0.991604 0.372370
vt 0.976259 0.372425
vt 0.970957 0.387802
vt 0.997012 0.387716
vt 0.977822 0.344153
vt 0.989838 0.344111
vt 0.993510 0.324965
vt 0.973079 0.325041
vt 0.991211 0.321093
vt 0.976294 0.321128
vt 0.965886 0.400574
vt 0.994452 0.400681
vt 0.987820 0.407369
vt 0.972474 0.407314
vt 0.967172 0.391936
vt 0.993227 0.392023
vt 0.974037 0.435585
vt 0.986053 0.435627
vt 0.990673 0.454774
vt 0.968346 0.454697
vt 0.987426 0.458646
vt 0.972510 0.458611
vt 0.965886 0.400574
vt 0.994452 0.400681
vt 0.987820 0.407369
vt 0.972474 0.407314
vt 0.967172 0.391936
vt 0.993227 0.392023
vt 0.974037 0.435585
vt 0.986053 0.435627
vt 0.990673 0.454774
vt 0.968915 0.454697
vt 0.987426 0.458646
vt 0.972510 0.458611
vt 0.969671 0.379164
vt 0.998237 0.379057
vt 0.991604 0.372370
vt 0.976259 0.372425
vt 0.970957 0.387802
vt 0.997012 0.387716
vt 0.977822 0.344153
vt 0.989838 0.344111
vt 0.994079 0.324965
vt 0.973079 0.325041
vt 0.991211 0.321093
vt 0.976294 0.321128
vt 0.969671 0.379164
vt 0.998237 0.379057
vt 0.991604 0.372370
vt 0.976259 0.372425
vt 0.970957 0.387802
vt 0.997012 0.387716
vt 0.977822 0.344153
vt 0.989838 0.344111
vt 0.993510 0.324965
vt 0.973079 0.325041
vt 0.991211 0.321093
vt 0.976294 0.321128
vt 0.965886 0.400574
vt 0.994452 0.400681
vt 0.987820 0.407369
vt 0.972474 0.407314
vt 0.967172 0.391936
vt 0.993227 0.392023
vt 0.974037 0.435585
vt 0.986053 0.435627
vt 0.990673 0.454774
vt 0.968346 0.454697
vt 0.987426 0.458646
vt 0.972510 0.458611
vt 0.650429 0.146178
vt 0.883737 0.146178
vt 0.883738 0.168465
vt 0.650428 0.168465
vt 0.883738 0.210078
vt 0.883737 0.216489
vt 0.650429 0.216489
vt 0.650427 0.210078
vt 0.650427 0.181003
vt 0.650428 0.174581
vt 0.883738 0.174581
vt 0.883738 0.181003
vt 0.883212 0.187056
vt 0.883212 0.204025
vt 0.650423 0.203964
vt 0.650423 0.187117
vt 0.883738 0.174581
vt 0.883738 0.168465
vt 0.650428 0.168465
vt 0.650428 0.174581
vt 0.772275 0.295864
vt 0.755543 0.295864
vt 0.749861 0.302005
vt 0.749861 0.309198
vt 0.754581 0.314053
vt 0.773237 0.314053
vt 0.777956 0.302005
vt 0.777956 0.309198
vt 0.466209 0.388186
vt 0.464151 0.428557
vt 0.469383 0.428557
vt 0.495542 0.388186
vt 0.492368 0.428557
vt 0.497600 0.428557
vt 0.469383 0.455583
vt 0.492368 0.455583
vt 0.463031 0.455583
vt 0.461517 0.487869
vt 0.498720 0.455583
vt 0.500235 0.487869
vt 0.466325 0.494016
vt 0.495426 0.494016
vt 0.669024 0.292159
vt 0.653826 0.292159
vt 0.653826 0.311752
vt 0.669024 0.311752
vt 0.595687 0.355153
vt 0.595687 0.383419
vt 0.595687 0.355153
vt 0.595686 0.345472
vt 0.595687 0.319836
vt 0.595687 0.315842
vt 0.645651 0.292921
vt 0.595686 0.288157
vt 0.595686 0.254337
vt 0.595686 0.229061
vt 0.595686 0.254337
vt 0.595686 0.288157
vt 0.595686 0.292921
vt 0.645652 0.315842
vt 0.595687 0.319836
vt 0.595686 0.345472
vt 0.645652 0.315842
vt 0.884344 0.315842
vt 0.595686 0.292921
vt 0.884347 0.292921
vt 0.595687 0.315842
vt 0.884344 0.315842
vt 0.645651 0.292921
vt 0.884347 0.292921
vt 0.772275 0.295864
vt 0.755543 0.295864
vt 0.749861 0.302005
vt 0.749861 0.309198
vt 0.754581 0.314053
vt 0.773237 0.314053
vt 0.777956 0.302005
vt 0.777956 0.309198
vt 0.466209 0.388186
vt 0.464151 0.428557
vt 0.469383 0.428557
vt 0.495542 0.388186
vt 0.492368 0.428557
vt 0.497600 0.428557
vt 0.669024 0.292159
vt 0.653826 0.292159
vt 0.653826 0.311752
vt 0.669024 0.311752
vt 0.469383 0.455583
vt 0.463031 0.455583
vt 0.461517 0.487869
vt 0.492368 0.455583
vt 0.498720 0.455583
vt 0.500235 0.487869
vt 0.466325 0.494016
vt 0.495426 0.494016
vn 0.000000 -0.046852 -0.998902
vn 0.000000 -0.046852 -0.998902
vn 0.000000 0.303583 -0.952805
vn 0.000000 0.303583 -0.952805
vn 0.000000 -1.000000 0.000000
vn 0.000000 -1.000000 0.000000
vn 0.000000 -1.000000 0.000000
vn 0.000000 -1.000000 0.000000
vn 0.000000 0.000000 -1.000000
vn 0.000000 0.000000 -1.000000
vn 0.000000 0.000000 -1.000000
vn 0.000000 0.000000 -1.000000
vn 0.000000 1.000000 0.000000
vn 0.000000 1.000000 0.000000
vn 0.000000 1.000000 0.000000
vn 0.000000 1.000000 0.000000
vn 0.000000 -0.050916 -0.998703
vn 0.000000 -0.050916 -0.998703
vn 0.000000 -0.050916 -0.998703
vn 0.000000 -0.050916 -0.998703
vn 0.000000 -1.000000 0.000000
vn 0.000000 -1.000000 0.000000
vn 0.000000 -1.000000 0.000000
vn 0.000000 -1.000000 0.000000
vn 0.000000 0.616092 -0.787674
vn 0.000000 0.616092 -0.787674
vn -0.000000 -0.046848 0.998902
vn -0.000000 -0.046848 0.998902
vn -0.000000 0.303579 0.952806
vn -0.000000 0.303579 0.952806
vn 0.000000 -1.000000 0.000000
vn 0.000000 -1.000000 0.000000
vn 0.000000 -1.000000 0.000000
vn 0.000000 -1.000000 0.000000
vn 0.000000 0.000000 1.000000
vn 0.000000 0.000000 1.000000
vn 0.000000 0.000000 1.000000
vn 0.000000 0.000000 1.000000
vn 0.000000 1.000000 0.000000
vn 0.000000 1.000000 0.000000
vn 0.000000 1.000000 0.000000
vn 0.000000 1.000000 0.000000
vn -0.000000 -0.050917 0.998703
vn -0.000000 -0.050917 0.998703
vn -0.000000 -0.050917 0.998703
vn -0.000000 -0.050917 0.998703
vn -0.000000 0.616082 0.787682
vn -0.000000 0.616082 0.787682
vn 0.000000 1.000000 0.000000
vn 0.000000 1.000000 0.000000
vn 0.000000 1.000000 0.000000
vn 0.000000 1.000000 0.000000
vn 0.078718 0.993784 0.078718
vn 0.078718 0.993784 0.078718
vn 0.078717 0.993784 -0.078720
vn 0.078717 0.993784 -0.078720
vn 0.964115 -0.265486 -0.000010
vn 0.964115 -0.265486 -0.000010
vn 0.964115 -0.265486 -0.000010
vn 0.964115 -0.265486 -0.000010
vn 0.964248 -0.265000 -0.000016
vn 0.994393 -0.105749 -0.000018
vn 0.994393 -0.105749 -0.000018
vn 0.964248 -0.265000 -0.000016
vn 0.621262 0.783603 0.000000
vn 0.621262 0.783603 0.000000
vn 0.621262 0.783603 0.000000
vn 0.621262 0.783603 0.000000
vn 0.998415 0.056281 -0.000020
vn 0.998415 0.056281 -0.000020
vn -0.078717 0.993784 0.078720
vn -0.078717 0.993784 0.078720
vn 0.000007 -0.286176 0.958177
vn 0.000007 -0.286176 0.958177
vn 0.000007 -0.286176 0.958177
vn 0.000007 -0.286176 0.958177
vn 0.000016 -0.265015 0.964244
vn 0.000013 -0.105754 0.994392
vn 0.000013 -0.105754 0.994392
vn 0.000016 -0.265015 0.964244
vn 0.000010 0.779650 0.626216
vn 0.000010 0.779650 0.626216
vn 0.000010 0.779650 0.626216
vn 0.000010 0.779650 0.626216
vn 0.000010 0.056285 0.998415
vn 0.000010 0.056285 0.998415
vn -0.078718 0.993784 -0.078718
vn -0.078718 0.993784 -0.078718
vn -0.000010 -0.286183 -0.958175
vn -0.000010 -0.286183 -0.958175
vn -0.000010 -0.286183 -0.958175
vn -0.000010 -0.286183 -0.958175
vn -0.000016 -0.265015 -0.964244
vn -0.000013 -0.105754 -0.994392
vn -0.000013 -0.105754 -0.994392
vn -0.000016 -0.265015 -0.964244
vn -0.000010 0.779650 -0.626216
vn -0.000010 0.779650 -0.626216
vn -0.000010 0.779650 -0.626216
vn -0.000010 0.779650 -0.626216
vn -0.000010 0.056285 -0.998415
vn -0.000010 0.056285 -0.998415
vn -0.964107 -0.265514 0.000020
vn -0.964107 -0.265514 0.000020
vn -0.964107 -0.265514 0.000020
vn -0.964107 -0.265514 0.000020
vn -0.964248 -0.265001 0.000016
vn -0.994393 -0.105749 0.000018
vn -0.994393 -0.105749 0.000018
vn -0.964248 -0.265001 0.000016
vn -0.621262 0.783603 0.000000
vn -0.621262 0.783603 0.000000
vn -0.621262 0.783603 0.000000
vn -0.621262 0.783603 0.000000
vn -0.998415 0.056281 0.000020
vn -0.998415 0.056281 0.000020
vn -0.078717 0.993784 0.078720
vn -0.078717 0.993784 0.078720
vn 0.078718 0.993784 0.078718
vn 0.078718 0.993784 0.078718
vn 0.000008 -0.265493 0.964113
vn 0.000008 -0.265493 0.964113
vn 0.000008 -0.265493 0.964113
vn 0.000008 -0.265493 0.964113
vn 0.000016 -0.265015 0.964244
vn 0.000013 -0.105754 0.994392
vn 0.000013 -0.105754 0.994392
vn 0.000016 -0.265015 0.964244
vn 0.000010 0.783623 0.621237
vn 0.000010 0.783623 0.621237
vn 0.000010 0.783623 0.621237
vn 0.000010 0.783623 0.621237
vn 0.000010 0.056285 0.998415
vn 0.000010 0.056285 0.998415
vn -0.078718 0.993784 -0.078718
vn -0.078718 0.993784 -0.078718
vn -0.958167 -0.286210 0.000010
vn -0.958167 -0.286210 0.000010
vn -0.958167 -0.286210 0.000010
vn -0.958167 -0.286210 0.000010
vn -0.964248 -0.265001 0.000016
vn -0.994393 -0.105749 0.000018
vn -0.994393 -0.105749 0.000018
vn -0.964248 -0.265001 0.000016
vn -0.626229 0.779639 0.000010
vn -0.626229 0.779639 0.000010
vn -0.626229 0.779639 0.000010
vn -0.626229 0.779639 0.000010
vn -0.998415 0.056280 0.000020
vn -0.998415 0.056280 0.000020
vn 0.078717 0.993784 -0.078720
vn 0.078717 0.993784 -0.078720
vn 0.958167 -0.286210 -0.000010
vn 0.958167 -0.286210 -0.000010
vn 0.958167 -0.286210 -0.000010
vn 0.958167 -0.286210 -0.000010
vn 0.964248 -0.265001 -0.000016
vn 0.994393 -0.105749 -0.000018
vn 0.994393 -0.105749 -0.000018
vn 0.964248 -0.265001 -0.000016
vn 0.626229 0.779639 -0.000010
vn 0.626229 0.779639 -0.000010
vn 0.626229 0.779639 -0.000010
vn 0.626229 0.779639 -0.000010
vn 0.998415 0.056280 -0.000020
vn 0.998415 0.056280 -0.000020
vn -0.000010 -0.265486 -0.964115
vn -0.000010 -0.265486 -0.964115
vn -0.000010 -0.265486 -0.964115
vn -0.000010 -0.265486 -0.964115
vn -0.000016 -0.265015 -0.964244
vn -0.000013 -0.105754 -0.994392
vn -0.000013 -0.105754 -0.994392
vn -0.000016 -0.265015 -0.964244
vn -0.000007 0.783618 -0.621244
vn -0.000007 0.783618 -0.621244
vn -0.000007 0.783618 -0.621244
vn -0.000007 0.783618 -0.621244
vn -0.000010 0.056285 -0.998415
vn -0.000010 0.056285 -0.998415
vn 0.000000 -0.916265 -0.400572
vn 0.000000 -1.000000 0.000000
vn 0.000000 -1.000000 0.000000
vn 0.000000 -0.916265 -0.400572
vn -0.000000 0.376184 0.926545
vn -0.000000 0.376184 0.926545
vn 0.000000 0.000000 1.000000
vn 0.000000 0.000000 1.000000
vn 0.000000 0.376176 -0.926548
vn 0.000000 0.376176 -0.926548
vn 0.000000 -0.364650 -0.931145
vn 0.000000 -0.364650 -0.931145
vn 0.000000 1.000000 0.000000
vn 0.000000 1.000000 0.000000
vn 0.000000 1.000000 0.000000
vn 0.000000 1.000000 0.000000
vn -0.000000 0.697103 0.716971
vn -0.000000 0.697103 0.716971
vn 0.000000 0.697090 -0.716983
vn 0.000000 0.697090 -0.716983
vn 0.000000 -0.679084 0.734060
vn 0.000000 -0.679084 0.734060
vn 0.000000 -0.679084 0.734060
vn 0.000000 -0.679084 0.734060
vn -1.000000 0.000000 0.000000
vn -1.000000 0.000000 0.000000
vn -1.000000 0.000000 0.000000
vn -1.000000 0.000000 0.000000
vn -1.000000 0.000000 0.000000
vn -1.000000 0.000000 0.000000
vn -1.000000 0.000000 0.000000
vn -1.000000 0.000000 0.000000
vn -1.000000 0.000000 0.000000
vn -1.000000 0.000000 0.000000
vn -1.000000 0.000000 0.000000
vn -1.000000 0.000000 0.000000
vn -1.000000 0.000000 0.000000
vn -1.000000 0.000000 0.000000
vn -1.000000 0.000000 0.000000
vn -1.000000 0.000000 0.000000
vn -1.000000 0.000000 0.000000
vn -1.000000 0.000000 0.000000
vn -1.000000 0.000000 0.000000
vn -1.000000 0.000000 0.000000
vn -1.000000 0.000000 0.000000
vn -1.000000 0.000000 0.000000
vn 1.000000 0.000000 0.000000
vn 1.000000 0.000000 0.000000
vn 1.000000 0.000000 0.000000
vn 1.000000 0.000000 0.000000
vn 1.000000 0.000000 0.000000
vn 1.000000 0.000000 0.000000
vn 1.000000 0.000000 0.000000
vn 1.000000 0.000000 0.000000
vn 1.000000 0.000000 0.000000
vn 1.000000 0.000000 0.000000
vn 1.000000 0.000000 0.000000
vn 1.000000 0.000000 0.000000
vn 1.000000 0.000000 0.000000
vn 1.000000 0.000000 0.000000
vn 1.000000 0.000000 0.000000
vn 1.000000 0.000000 0.000000
vn 1.000000 0.000000 0.000000
vn 1.000000 0.000000 0.000000
vn 1.000000 0.000000 0.000000
vn 1.000000 0.000000 0.000000
vn 1.000000 0.000000 0.000000
vn 1.000000 0.000000 0.000000
s 1
f 82/163/1 3/3/2 9/9/3 81/162/4
s off
f 4/4/5 3/3/6 82/163/7 83/164/8
f 5/5/9 4/176/10 83/175/11 84/165/12
f 6/6/13 5/178/14 84/177/15 85/166/16
f 8/7/17 6/6/18 85/166/19 86/167/20
f 7/8/21 8/7/22 86/167/23 87/168/24
s 1
f 9/9/3 2/1/25 80/161/26 81/162/4
s 2
f 10/11/27 91/173/28 92/174/29 14/10/30
s off
f 90/179/31 91/173/32 10/11/33 11/180/34
f 89/181/35 90/172/36 11/12/37 12/182/38
f 88/170/39 89/171/40 12/13/41 13/14/42
f 7/15/43 87/169/44 88/170/45 13/14/46
s 2
f 14/10/30 92/174/29 79/159/47 1/16/48
s off
f 80/161/49 2/1/50 1/2/51 79/160/52
s 3
f 22/20/53 18/17/54 17/18/55 21/19/56
s off
f 19/22/57 17/18/58 18/17/59 20/21/60
s 4
f 16/26/61 25/23/62 26/24/63 15/25/64
s off
f 15/25/65 24/27/66 23/28/67 16/26/68
s 4
f 25/23/62 22/20/69 21/19/70 26/24/63
s 3
f 30/32/71 28/29/72 18/30/54 22/31/53
s off
f 20/34/73 18/30/74 28/29/75 29/33/76
s 5
f 27/38/77 32/35/78 25/36/79 16/37/80
s off
f 16/37/81 23/39/82 31/40/83 27/38/84
s 5
f 32/35/78 30/32/85 22/31/86 25/36/79
s 3
f 21/44/56 17/41/55 34/42/87 36/43/88
s off
f 35/46/89 34/42/90 17/41/91 19/45/92
s 6
f 15/50/93 26/47/94 38/48/95 33/49/96
s off
f 33/49/97 37/51/98 24/52/99 15/50/100
s 6
f 26/47/94 21/44/101 36/43/102 38/48/95
s 3
f 36/56/88 34/53/87 28/54/72 30/55/71
s off
f 29/58/103 28/54/104 34/53/105 35/57/106
s 7
f 33/62/107 38/59/108 32/60/109 27/61/110
s off
f 27/61/111 31/63/112 37/64/113 33/62/114
s 7
f 38/59/108 36/56/115 30/55/116 32/60/109
s 8
f 46/68/117 42/65/118 41/66/119 45/67/120
s off
f 43/70/121 41/66/122 42/65/123 44/69/124
s 9
f 40/74/125 49/71/126 50/72/127 39/73/128
s off
f 39/73/129 48/75/130 47/76/131 40/74/132
s 9
f 49/71/126 46/68/133 45/67/134 50/72/127
s 8
f 54/80/135 52/77/136 42/78/118 46/79/117
s off
f 44/82/137 42/78/138 52/77/139 53/81/140
s 10
f 51/86/141 56/83/142 49/84/143 40/85/144
s off
f 40/85/145 47/87/146 55/88/147 51/86/148
s 10
f 56/83/142 54/80/149 46/79/150 49/84/143
s 8
f 45/92/120 41/89/119 58/90/151 60/91/152
s off
f 59/94/153 58/90/154 41/89/155 43/93/156
s 11
f 39/98/157 50/95/158 62/96/159 57/97/160
s off
f 57/97/161 61/99/162 48/100/163 39/98/164
s 11
f 50/95/158 45/92/165 60/91/166 62/96/159
s 8
f 60/104/152 58/101/151 52/102/136 54/103/135
s off
f 53/106/167 52/102/168 58/101/169 59/105/170
s 12
f 57/110/171 62/107/172 56/108/173 51/109/174
s off
f 51/109/175 55/111/176 61/112/177 57/110/178
s 12
f 62/107/172 60/104/179 54/103/180 56/108/173
s 13
f 76/116/181 75/113/182 77/114/183 78/115/184
s 14
f 63/120/185 67/117/186 69/118/187 65/119/188
s 13
f 68/124/189 64/121/190 66/122/191 70/123/192
s off
f 72/128/193 74/125/194 73/126/195 71/127/196
s 14
f 73/126/197 67/117/186 63/120/185 71/127/198
s 13
f 72/128/199 64/121/190 68/124/189 74/125/200
f 78/115/184 70/123/192 66/122/191 76/116/181
s off
f 65/132/201 69/129/202 77/130/203 75/131/204
s 16
f 78/133/205 77/134/206 69/135/207 67/136/208
f 78/133/205 67/136/208 73/137/209 74/138/210
f 70/139/211 78/133/205 74/138/210 68/140/212
s 17
f 7/141/213 13/142/214 12/143/215 8/144/216
f 5/145/217 6/146/218 8/144/216 12/143/215
f 5/155/217 12/156/215 11/157/219 4/158/220
f 11/147/219 10/149/221 14/150/222 4/148/220
f 3/151/223 4/148/220 9/152/224
f 9/152/224 4/148/220 14/150/222 1/153/225
f 1/153/225 2/154/226 9/152/224
s 18
f 76/183/227 63/186/228 65/185/229 75/184/230
f 76/183/227 72/188/231 71/187/232 63/186/228
f 66/189/233 64/190/234 72/188/231 76/183/227
s 19
f 87/191/235 86/194/236 89/193/237 88/192/238
f 84/195/239 89/193/237 86/194/236 85/196/240
f 84/197/239 83/200/241 90/199/242 89/198/237
f 90/201/242 83/204/241 92/203/243 91/202/244
f 82/205/245 81/206/246 83/204/241
f 81/206/246 79/207/247 92/203/243 83/204/241
f 79/207/247 81/206/246 80/208/248
