# This file uses centimeters as units for non-parametric coordinates.

v 1.470493 1.000000 -2.647142
v 0.000000 1.000000 3.000000
v -0.267933 -1.000000 3.000004
v 1.234467 -1.000000 -2.773943
v 1.321037 0.961555 -2.727438
v -0.169662 0.961555 3.000002
v 1.234459 0.821297 -2.773947
v -0.267941 0.821297 3.000006
v 0.000000 -1.000000 3.000004
v 0.030548 0.961555 1.084333
v 0.198086 1.000000 1.111120
v -0.066486 -1.000000 1.068823
v -0.066498 0.821297 1.068823
v 0.550842 0.961555 -0.901073
v 0.711460 1.000000 -0.846420
v 0.457813 -1.000000 -0.932726
v 0.457806 0.821297 -0.932728
v 5.427734 1.000000 -6.974514
v 5.377068 -1.000000 -7.075586
v 5.377064 0.821297 -7.075592
v 2.403194 0.961555 -4.336512
v 2.525204 1.000000 -4.233725
v 2.325054 -1.000000 -4.396097
v 2.325047 0.821297 -4.396103
v 3.798470 0.961555 -5.872311
v 3.882832 1.000000 -5.758682
v 3.731495 -1.000000 -5.944221
v 3.731491 0.821297 -5.944227
v 7.117874 -1.000000 -7.971413
v 8.488567 -1.000000 -8.489870
v 5.992901 1.000000 -7.287334
v 6.317867 0.821297 -7.566322
v 7.117870 0.430054 -7.971420
v 9.859085 -1.000000 -8.809204
v 8.488567 -0.411996 -8.489872
v 5.385132 0.953854 -7.042082
v 6.060703 0.962714 -7.345545
vt 0.883724 0.537376
vt 0.883724 0.554567
vt 0.883724 0.386498
vt 0.449444 0.554567
vt 0.449444 0.537376
vt 0.449444 0.386499
vt 0.449444 0.523101
vt 0.883724 0.523101
vt 0.464955 0.386404
vt 0.464955 0.535677
vt 0.480306 0.533577
vt 0.489197 0.523297
vt 0.489197 0.386404
vt 0.744066 0.537376
vt 0.744066 0.554567
vt 0.744066 0.386498
vt 0.744066 0.523101
vt 0.594805 0.537376
vt 0.594805 0.554567
vt 0.594805 0.386498
vt 0.594805 0.523101
vt 0.594805 0.537376
vt 0.594805 0.554567
vt 0.449444 0.541940
vt 0.449444 0.523101
vt 0.594805 0.523101
vt 0.594805 0.386498
vt 0.449444 0.386499
vt 0.883724 0.537376
vt 0.883724 0.554567
vt 0.744066 0.554567
vt 0.744066 0.537376
vt 0.883724 0.386498
vt 0.883724 0.523101
vt 0.744066 0.523101
vt 0.744066 0.386498
vt 0.639113 0.386501
vt 0.883724 0.542706
vt 0.883724 0.386498
vt 0.883724 0.523101
vt 0.744066 0.386498
vt 0.836400 0.542706
vt 0.808124 0.523101
vt 0.744066 0.493757
vt 0.537454 0.386503
vt 0.639113 0.430599
vt 0.883724 0.538971
vt 0.449444 0.538403
vt 0.830500 0.539688
vn -0.527754 0.830235 -0.179404
vn -0.209439 0.975226 -0.071197
vn -0.197219 0.974543 -0.106631
vn -0.490903 0.829817 -0.265365
vn -0.838813 0.301367 -0.453400
vn -0.902957 0.300752 -0.306948
vn -0.946791 -0.000005 -0.321848
vn -0.879715 -0.000005 -0.475501
vn 0.000010 0.000001 1.000000
vn 0.000010 0.000001 1.000000
vn 0.000010 0.000001 1.000000
vn 0.000010 0.000001 1.000000
vn 0.000010 0.000001 1.000000
vn -0.555334 0.829602 -0.058016
vn -0.220513 0.975111 -0.023085
vn -0.217545 0.975244 -0.039667
vn -0.548254 0.830327 -0.099872
vn -0.994604 -0.000005 -0.103749
vn -0.948761 0.300084 -0.099009
vn -0.938247 0.300849 -0.170828
vn -0.983832 -0.000005 -0.179092
vn -0.412095 0.781513 -0.468418
vn -0.200766 0.953069 -0.226613
vn -0.255145 0.864445 -0.433170
vn -0.379397 0.669052 -0.639083
vn -0.501189 0.210638 -0.839310
vn -0.635748 0.261147 -0.726380
vn -0.657735 -0.000004 -0.753249
vn -0.513236 -0.000852 -0.858247
vn -0.187886 0.971119 -0.147060
vn -0.444574 0.825244 -0.348319
vn -0.750642 0.300803 -0.588263
vn -0.787108 -0.000005 -0.616815
vn -0.290993 -0.000004 -0.956725
vn -0.290993 -0.000004 -0.956725
vn -0.226923 -0.000003 -0.973913
vn -0.441547 0.200621 -0.874521
vn -0.406488 -0.000852 -0.913656
vn -0.406488 -0.000852 -0.913656
vn -0.357460 0.599281 -0.716299
vn -0.288005 0.770438 -0.568752
s 1
f 14/18/1 15/19/2 1/4/3 5/5/4
f 7/7/5 17/21/6 14/18/1 5/5/4
f 16/20/7 17/21/6 7/7/5 4/6/8
s off
f 9/9/9 2/10/10 6/11/11 8/12/12 3/13/13
s 1
f 6/1/14 2/2/15 11/15/16 10/14/17
f 3/3/18 8/8/19 13/17/20 12/16/21
f 10/14/17 13/17/20 8/8/19 6/1/14
f 10/14/17 11/15/16 15/19/2 14/18/1
f 12/16/21 13/17/20 17/21/6 16/20/7
f 14/18/1 17/21/6 13/17/20 10/14/17
f 25/22/22 26/23/23 18/24/24 36/48/25
f 20/25/26 28/26/27 25/22/22 36/48/25
f 27/27/28 28/26/27 20/25/26 19/28/29
f 5/29/4 1/30/3 22/31/30 21/32/31
f 4/33/8 7/34/5 24/35/32 23/36/33
f 21/32/31 24/35/32 7/34/5 5/29/4
f 21/32/31 22/31/30 26/23/23 25/22/22
f 23/36/33 24/35/32 28/26/27 27/27/28
f 25/22/22 28/26/27 24/35/32 21/32/31
f 30/37/34 35/46/35 34/45/36
f 19/39/29 20/40/26 32/43/37 33/44/38 29/41/39
f 29/41/39 33/44/38 35/46/35 30/37/34
f 37/49/40 32/43/37 20/40/26 36/47/25
f 31/42/41 37/49/40 36/47/25 18/38/24
