# This file uses centimeters as units for non-parametric coordinates.

v 2.000000 -4.000000 -2.000050
v 2.000000 0.000000 -2.000074
v -3.000000 0.000000 -2.000074
v -3.000000 -4.000000 -2.000074
v -3.000000 -4.000000 -3.000000
v -3.000000 0.000000 -3.000000
v 2.000000 -4.000000 -3.000000
v 2.000000 4.000000 -2.000050
v -3.000000 4.000000 -2.000074
v -3.000000 4.000000 -3.000000
v 2.000000 4.000000 -3.000000
v -1.450478 -4.000000 -2.998808
v -1.450478 0.001251 -3.000000
v -1.021660 0.864729 -3.000000
v 0.000000 1.500795 -3.000000
v 1.450478 -4.000000 -2.998808
v 1.450478 0.001251 -3.000000
v 1.021660 0.864729 -3.000000
v -1.450478 0.001251 -2.000595
v 0.000000 1.500795 -2.000595
v -1.021660 0.864729 -2.000595
v -1.450478 -4.000000 -1.999405
v 1.450478 0.001251 -2.000595
v 1.021660 0.864729 -2.000595
v 1.450478 -4.000000 -1.999405
v 3.000000 0.000000 -3.000000
v 3.000000 4.000000 -3.000000
v 3.000000 -4.000000 -3.000000
v 2.999926 4.000000 3.000000
v 2.999926 0.000000 3.000000
v 2.000000 0.000000 3.000000
v 2.000000 4.000000 3.000000
v 2.999926 -4.000000 3.000000
v 2.000000 -4.000000 3.000000
v 2.999926 4.000000 -2.000000
v 2.999926 -4.000000 -2.000000
v 2.998659 -4.000000 -1.450478
v 2.999851 0.001251 -1.450478
v 2.999851 0.864729 -1.021660
v 2.999851 1.500795 0.000000
v 2.998659 -4.000000 1.450478
v 2.999851 0.001251 1.450478
v 2.999851 0.864729 1.021660
v 2.000446 0.001251 -1.450478
v 2.000446 1.500795 0.000000
v 2.000446 0.864729 -1.021660
v 1.999256 -4.000000 -1.450478
v 2.000446 0.001251 1.450478
v 2.000446 0.864729 1.021660
v 1.999256 -4.000000 1.450478
vt 0.885194 0.554213
vt 0.885194 0.841947
vt 0.521981 0.554215
vt 0.446027 0.996047
vt 0.059337 0.996044
vt 0.059337 0.924867
vt 0.446028 0.924863
vt 0.885194 0.554213
vt 0.885194 0.841947
vt 0.521985 0.841947
vt 0.772640 0.554214
vt 0.772639 0.842036
vt 0.772635 0.554304
vt 0.741484 0.616417
vt 0.667269 0.662171
vt 0.561898 0.554215
vt 0.561898 0.842036
vt 0.561902 0.554305
vt 0.593053 0.616417
vt 0.816466 0.642183
vt 0.816466 0.698465
vt 0.757424 0.698465
vt 0.757424 0.642187
vt 0.816466 0.769604
vt 0.757424 0.769601
vt 0.786030 0.558093
vt 0.853877 0.558092
vt 0.853965 0.842653
vt 0.786117 0.842652
vt 0.816466 0.642183
vt 0.757424 0.642187
vt 0.757424 0.698465
vt 0.816466 0.698465
vt 0.757424 0.769601
vt 0.816466 0.769604
vt 0.786030 0.558093
vt 0.786117 0.842652
vt 0.853965 0.842653
vt 0.853877 0.558092
vt 0.772701 0.554227
vt 0.772701 0.842047
vt 0.812617 0.841956
vt 0.812617 0.554228
vt 0.449347 0.841932
vt 0.561958 0.554303
vt 0.449417 0.554215
vt 0.449285 0.554237
vt 0.449286 0.841968
vt 0.561836 0.842058
vt 0.561835 0.554237
vt 0.812551 0.841932
vt 0.667269 0.662131
vt 0.741464 0.616398
vt 0.593073 0.616398
vt 0.772579 0.554304
vt 0.812492 0.554215
vt 0.642554 0.554214
vt 0.642554 0.841946
vt 0.708481 0.841947
vt 0.708481 0.554213
vt 0.521985 0.841947
vt 0.449343 0.841947
vt 0.449343 0.554213
vt 0.642554 0.554214
vt 0.642554 0.841946
vt 0.708481 0.841947
vt 0.708481 0.554213
vt 0.199862 0.996305
vt 0.126877 0.996310
vt 0.199858 0.923325
vt 0.642554 0.554214
vt 0.642554 0.841946
vt 0.708481 0.841947
vt 0.708481 0.554213
vt 0.885194 0.554215
vt 0.642554 0.554214
vt 0.642554 0.841946
vt 0.708481 0.841947
vt 0.708481 0.554213
vt 1.746453 0.793905
vt 1.746454 0.841468
vt 1.699036 0.841468
vt 0.885194 0.554215
vt 0.885194 0.841946
vt 0.812552 0.554215
vt 0.126877 0.923325
vt 0.885194 0.841946
vt 0.521985 0.554214
vt 0.449343 0.841947
vt 0.449343 0.554213
vt 1.699038 0.793905
vt 0.561898 0.554215
vt 0.561898 0.842036
vt 0.449343 0.841947
vt 0.449343 0.554213
vt 0.812552 0.841946
vt 0.772635 0.554304
vt 0.772639 0.842036
vt 0.772640 0.554214
vt 0.449343 0.841947
vt 0.667269 0.662171
vt 0.593053 0.616417
vt 0.741484 0.616417
vt 0.561902 0.554305
vt 0.449343 0.554213
vt 0.816466 0.642183
vt 0.816466 0.698465
vt 0.757424 0.698465
vt 0.757424 0.642187
vt 0.816466 0.769604
vt 0.757424 0.769601
vt 0.786030 0.558093
vt 0.853877 0.558092
vt 0.853965 0.842653
vt 0.786117 0.842652
vt 0.816466 0.642183
vt 0.757424 0.642187
vt 0.757424 0.698465
vt 0.816466 0.698465
vt 0.757424 0.769601
vt 0.816466 0.769604
vt 0.786030 0.558093
vt 0.786117 0.842652
vt 0.853965 0.842653
vt 0.853877 0.558092
vt 0.772701 0.554227
vt 0.885252 0.554227
vt 0.885251 0.841957
vt 0.772701 0.842047
vt 0.521984 0.841929
vt 0.522045 0.554214
vt 0.561958 0.554303
vt 0.521920 0.554238
vt 0.561835 0.554237
vt 0.561836 0.842058
vt 0.521920 0.841967
vt 0.667269 0.662131
vt 0.885188 0.841935
vt 0.741464 0.616398
vt 0.593073 0.616398
vt 0.772579 0.554304
vt 0.885120 0.554215
vt 0.367595 0.924399
vt 0.367595 0.995183
vt 0.006923 0.995186
vt 0.006922 0.924395
vn -0.000284 -0.000039 -1.000000
vn -0.000568 -0.000078 -1.000000
vn -0.000189 -0.000026 -1.000000
vn -0.000142 -0.000020 -1.000000
vn 0.000000 0.000000 -1.000000
vn 0.000128 -0.000050 -1.000000
vn 0.000192 -0.000074 -1.000000
vn 0.000385 -0.000149 -1.000000
vn 0.000385 -0.000149 -1.000000
vn 0.000000 0.000000 -1.000000
vn 0.000000 0.000000 -1.000000
vn 0.000000 0.000000 -1.000000
vn 0.000000 0.000000 -1.000000
vn 0.973559 -0.228434 0.000000
vn 0.740194 -0.672394 0.000000
vn 0.740194 -0.672394 0.000000
vn 0.973559 -0.228434 0.000000
vn 0.000000 -1.000000 0.000000
vn 0.000000 -1.000000 0.000000
vn 1.000000 -0.000000 0.000000
vn 1.000000 -0.000000 0.000000
vn -0.973559 -0.228434 0.000000
vn -0.973559 -0.228434 0.000000
vn -0.740194 -0.672394 0.000000
vn -0.740194 -0.672394 0.000000
vn -1.000000 0.000000 0.000000
vn -1.000000 0.000000 0.000000
vn 0.000113 0.000152 1.000000
vn 0.000113 0.000152 1.000000
vn -0.000417 0.000073 1.000000
vn -0.000350 0.000013 1.000000
vn 0.000138 -0.000102 1.000000
vn 0.000144 0.000074 1.000000
vn 0.000145 0.000025 1.000000
vn -0.000048 0.000149 1.000000
vn -0.000048 0.000149 1.000000
vn -0.000007 -0.000160 1.000000
vn -0.000315 -0.000118 1.000000
vn -0.000153 -0.000126 1.000000
vn 0.000111 -0.000096 1.000000
vn 0.000000 1.000000 0.000000
vn 0.000000 1.000000 0.000000
vn 0.000000 1.000000 0.000000
vn 0.000000 1.000000 0.000000
vn -1.000000 0.000000 0.000000
vn -1.000000 0.000000 0.000000
vn -1.000000 0.000000 0.000000
vn -1.000000 0.000000 0.000000
vn 0.000000 0.000000 -1.000000
vn -1.000000 0.000000 0.000000
vn -1.000000 0.000000 0.000000
vn 0.000000 1.000000 0.000000
vn 0.000000 1.000000 0.000000
vn 0.000000 0.000000 1.000000
vn 0.000000 0.000000 1.000000
vn 0.000000 0.000000 1.000000
vn 0.000000 0.000000 1.000000
vn 1.000000 -0.000019 0.000217
vn 1.000000 -0.000014 0.000042
vn 1.000000 -0.000023 0.000202
vn 0.000000 0.000000 1.000000
vn 0.000000 0.000000 1.000000
vn 0.000000 -1.000000 0.000000
vn 0.000000 -1.000000 0.000000
vn 0.000000 -1.000000 0.000000
vn 1.000000 -0.000050 0.000481
vn 1.000000 -0.000050 0.000481
vn 1.000000 -0.000050 0.000481
vn 1.000000 0.000000 0.000074
vn 0.000000 0.000000 -1.000000
vn 0.000000 -1.000000 0.000000
vn 1.000000 -0.000149 -0.000433
vn 1.000000 -0.000053 -0.000167
vn 1.000000 -0.000074 -0.000240
vn 1.000000 -0.000149 -0.000433
vn 1.000000 -0.000014 -0.000020
vn 1.000000 -0.000022 0.000001
vn 1.000000 -0.000014 -0.000016
vn 1.000000 -0.000017 0.000021
vn 0.000000 -0.228434 0.973559
vn 0.000000 -0.672394 0.740194
vn 0.000000 -0.672394 0.740194
vn 0.000000 -0.228434 0.973559
vn 0.000000 -1.000000 0.000000
vn 0.000000 -1.000000 0.000000
vn 0.000000 0.000000 1.000000
vn 0.000000 0.000000 1.000000
vn 0.000000 -0.228434 -0.973559
vn 0.000000 -0.228434 -0.973559
vn 0.000000 -0.672394 -0.740194
vn 0.000000 -0.672394 -0.740194
vn 0.000000 0.000000 -1.000000
vn 0.000000 0.000000 -1.000000
vn -1.000000 0.000149 0.000096
vn -1.000000 0.000149 0.000096
vn -1.000000 0.000074 -0.000096
vn -1.000000 0.000029 -0.000106
vn -1.000000 -0.000096 0.000266
vn -1.000000 0.000074 0.000271
vn -1.000000 0.000020 0.000239
vn -1.000000 0.000149 -0.000271
vn -1.000000 0.000149 -0.000271
vn -1.000000 -0.000133 0.000004
vn -1.000000 -0.000086 -0.000119
vn -1.000000 -0.000082 -0.000095
vn -1.000000 -0.000103 0.000125
vn 0.000000 1.000000 0.000000
vn 0.000000 1.000000 0.000000
s 1
f 7/3/1 16/16/2 17/17/3 26/89/4
f 10/9/5 13/13/6 6/8/7
f 5/1/8 6/2/7 13/12/6 12/11/9
f 10/9/5 11/10/10 15/15/11
f 15/15/11 11/10/10 18/19/12
f 10/9/5 15/15/11 14/14/13
f 18/19/12 11/10/10 17/18/3
f 10/9/5 14/14/13 13/13/6
f 17/18/3 11/61/10 26/63/4
s 4
f 13/20/14 14/21/15 21/22/16 19/23/17
f 14/21/15 15/24/18 20/25/19 21/22/16
f 22/26/20 12/27/21 13/28/14 19/29/17
f 17/30/22 23/31/23 24/32/24 18/33/25
f 18/33/25 24/32/24 20/34/19 15/35/18
f 25/36/26 23/37/23 17/38/22 16/39/27
s 6
f 25/40/28 1/43/29 2/42/30 23/41/31
f 9/44/32 3/46/33 19/45/34
f 4/47/35 22/50/36 19/49/34 3/48/33
f 9/44/32 20/52/37 8/51/38
f 20/52/37 24/53/39 8/51/38
f 9/44/32 21/54/40 20/52/37
f 24/53/39 23/55/31 8/51/38
f 9/44/32 19/45/34 21/54/40
f 23/55/31 2/56/30 8/51/38
s 9
f 10/7/41 9/4/42 8/5/43 11/6/44
s 10
f 3/57/45 9/58/46 10/59/47 6/60/48
s 1
f 11/61/10 27/62/49 26/63/4
s 10
f 4/64/50 3/65/45 6/66/48 5/67/51
s 9
f 35/68/52 27/69/53 8/70/43
s 11
f 30/71/54 29/72/55 32/73/56 31/74/57
s 12
f 26/75/58 35/96/59 38/97/60
s 11
f 33/76/61 30/77/54 31/78/57 34/79/62
s 13
f 1/80/63 7/81/64 28/82/65
s 12
f 36/85/66 28/83/67 26/84/58 38/98/60 37/99/68
s 9
f 8/70/43 27/69/53 11/86/44
s 12
f 26/75/58 27/87/69 35/96/59
s 1
f 7/88/1 26/89/4 28/90/70
s 13
f 1/80/63 28/82/65 36/91/71
s 12
f 41/92/72 42/93/73 30/94/74 33/95/75
f 35/96/59 29/100/76 40/101/77
f 40/101/77 29/100/76 43/102/78
f 35/96/59 40/101/77 39/103/79
f 43/102/78 29/100/76 42/104/73
f 35/96/59 39/103/79 38/97/60
f 42/104/73 29/100/76 30/105/74
s 16
f 38/106/80 39/107/81 46/108/82 44/109/83
f 39/107/81 40/110/84 45/111/85 46/108/82
f 47/112/86 37/113/87 38/114/80 44/115/83
f 42/116/88 48/117/89 49/118/90 43/119/91
f 43/119/91 49/118/90 45/120/85 40/121/84
f 50/122/92 48/123/89 42/124/88 41/125/93
s 18
f 50/126/94 34/127/95 31/128/96 48/129/97
f 8/130/98 2/131/99 44/132/100
f 1/133/101 47/134/102 44/135/100 2/136/99
f 8/130/98 45/137/103 32/138/104
f 45/137/103 49/139/105 32/138/104
f 8/130/98 46/140/106 45/137/103
f 49/139/105 48/141/97 32/138/104
f 8/130/98 44/132/100 46/140/106
f 48/141/97 31/142/96 32/138/104
s 9
f 35/143/52 8/144/43 32/145/107 29/146/108
