# This file uses centimeters as units for non-parametric coordinates.

v -3.000000 4.000000 -2.000000
v -3.000000 0.000000 -2.000000
v -3.000000 0.000000 -3.000000
v -3.000000 4.000000 -3.000000
v 3.000000 0.000000 -3.000000
v 3.000000 4.000000 -3.000000
v -3.000000 -4.000000 -2.000000
v -3.000000 -4.000000 -3.000000
v 3.000000 -4.000000 -3.000000
v 2.000000 4.000000 -3.000000
v 2.000000 4.000000 -2.000000
v 2.000000 0.000000 -2.000000
v 2.000000 -4.000000 -2.000000
v 2.999926 4.000000 3.000000
v 2.999926 0.000000 3.000000
v 2.000000 0.000000 3.000000
v 2.000000 4.000000 3.000000
v 2.999926 -4.000000 3.000000
v 2.000000 -4.000000 3.000000
v 2.999926 4.000000 -2.000000
v 2.998659 -4.000000 -1.450478
v 2.999851 0.001251 -1.450478
v 2.999851 0.864729 -1.021660
v 2.999851 1.500795 0.000000
v 2.998659 -4.000000 1.450478
v 2.999851 0.001251 1.450478
v 2.999851 0.864729 1.021660
v 2.000446 0.001251 -1.450478
v 2.000446 1.500795 0.000000
v 2.000446 0.864729 -1.021660
v 1.999256 -4.000000 -1.450478
v 2.000446 0.001251 1.450478
v 2.000446 0.864729 1.021660
v 1.999256 -4.000000 1.450478
vt 0.409419 0.996310
vt 0.642554 0.841946
vt 0.642554 0.554214
vt 0.885194 0.554213
vt 0.885194 0.841947
vt 0.449343 0.554215
vt 0.449343 0.554213
vt 0.449343 0.841947
vt 0.409419 0.923325
vt 0.708481 0.841947
vt 0.708481 0.554213
vt 0.449343 0.841946
vt 0.642554 0.554214
vt 0.642554 0.841946
vt 0.708481 0.841947
vt 0.708481 0.554213
vt 1.699036 0.556095
vt 1.746454 0.556095
vt 0.885194 0.554213
vt 0.885194 0.841947
vt 0.449343 0.841947
vt 0.449343 0.554214
vt 0.449343 0.841946
vt 0.449343 0.554215
vt 0.521985 0.841947
vt 0.045628 0.923327
vt 0.045628 0.996308
vt 0.812551 0.841946
vt 0.812551 0.841946
vt 0.812551 0.554215
vt 1.699037 0.793905
vt 0.812551 0.554215
vt 1.746451 0.841467
vt 0.094595 0.996310
vt 0.094595 0.923325
vt 0.642554 0.554214
vt 0.642554 0.841946
vt 0.708481 0.841947
vt 0.708481 0.554213
vt 0.812551 0.841946
vt 0.885194 0.554215
vt 0.885194 0.841946
vt 0.642554 0.554214
vt 0.642554 0.841946
vt 0.708481 0.841947
vt 0.708481 0.554213
vt 1.699039 0.841468
vt 1.746453 0.793905
vt 0.885194 0.554215
vt 0.885194 0.841946
vt 0.021836 0.923327
vt 0.021836 0.996309
vt 0.772640 0.554214
vt 0.561898 0.554215
vt 0.561898 0.842036
vt 0.449343 0.841947
vt 0.449343 0.554213
vt 0.812552 0.841947
vt 0.772635 0.554304
vt 0.772639 0.842036
vt 0.449343 0.841947
vt 0.667269 0.662171
vt 0.593053 0.616417
vt 0.741484 0.616417
vt 0.561902 0.554305
vt 0.449343 0.554213
vt 0.816466 0.642183
vt 0.816466 0.698465
vt 0.757424 0.698465
vt 0.757424 0.642187
vt 0.816466 0.769604
vt 0.757424 0.769601
vt 0.786030 0.558093
vt 0.853877 0.558092
vt 0.853965 0.842653
vt 0.786117 0.842652
vt 0.816466 0.642183
vt 0.757424 0.642187
vt 0.757424 0.698465
vt 0.816466 0.698465
vt 0.757424 0.769601
vt 0.816466 0.769604
vt 0.786030 0.558093
vt 0.786117 0.842652
vt 0.853965 0.842653
vt 0.853877 0.558092
vt 0.772701 0.554227
vt 0.885252 0.554227
vt 0.885251 0.841957
vt 0.772701 0.842047
vt 0.521984 0.841929
vt 0.522045 0.554214
vt 0.561958 0.554303
vt 0.521920 0.554238
vt 0.561835 0.554237
vt 0.561836 0.842058
vt 0.521920 0.841967
vt 0.667269 0.662131
vt 0.885188 0.841935
vt 0.741464 0.616398
vt 0.593073 0.616398
vt 0.772579 0.554304
vt 0.885120 0.554215
vt 0.408898 0.923703
vt 0.408898 0.996450
vt 0.018311 0.996454
vt 0.018310 0.923699
vt 1.699108 0.767782
vt 1.746489 0.767777
vt 0.729806 0.705435
vt 0.729806 0.763603
vt 0.639620 0.763677
vt 0.639620 0.705479
vn -1.000000 0.000000 0.000000
vn -1.000000 0.000000 0.000000
vn -1.000000 0.000000 0.000000
vn -1.000000 0.000000 0.000000
vn 0.000000 0.000000 -1.000000
vn 0.000000 0.000000 -1.000000
vn 0.000000 0.000000 -1.000000
vn -1.000000 0.000000 0.000000
vn -1.000000 0.000000 0.000000
vn 0.000000 0.000000 -1.000000
vn 0.000000 0.000000 -1.000000
vn 0.000000 0.000000 -1.000000
vn 0.000000 1.000000 0.000000
vn 0.000000 1.000000 0.000000
vn 0.000000 1.000000 0.000000
vn 0.000000 1.000000 0.000000
vn 0.000000 0.000000 1.000000
vn 0.000000 0.000000 1.000000
vn 0.000000 0.000000 1.000000
vn 0.000000 0.000000 1.000000
vn 0.000000 0.000000 1.000000
vn 0.000000 0.000000 1.000000
vn 0.000000 -1.000000 0.000000
vn 0.000000 -1.000000 0.000000
vn 0.000000 -1.000000 0.000000
vn 0.000000 -1.000000 0.000000
vn 0.000000 1.000000 0.000000
vn 0.000000 1.000000 0.000000
vn 0.000000 0.000000 1.000000
vn 0.000000 0.000000 1.000000
vn 0.000000 0.000000 1.000000
vn 0.000000 0.000000 1.000000
vn 1.000000 -0.000052 0.000217
vn 1.000000 -0.000014 0.000042
vn 1.000000 -0.000056 0.000202
vn 0.000000 0.000000 1.000000
vn 0.000000 0.000000 1.000000
vn 0.000000 -1.000000 0.000000
vn 0.000000 -1.000000 0.000000
vn 1.000000 -0.000149 0.000481
vn 1.000000 -0.000149 0.000481
vn 0.000000 0.000000 -1.000000
vn 1.000000 0.000000 0.000074
vn 1.000000 -0.000149 -0.000433
vn 1.000000 -0.000053 -0.000167
vn 1.000000 -0.000074 -0.000240
vn 1.000000 -0.000149 -0.000433
vn 1.000000 -0.000014 -0.000020
vn 1.000000 -0.000022 0.000001
vn 1.000000 -0.000014 -0.000016
vn 1.000000 -0.000017 0.000021
vn 0.000000 -0.228434 0.973559
vn 0.000000 -0.672394 0.740194
vn 0.000000 -0.672394 0.740194
vn 0.000000 -0.228434 0.973559
vn 0.000000 -1.000000 0.000000
vn 0.000000 -1.000000 0.000000
vn 0.000000 0.000000 1.000000
vn 0.000000 0.000000 1.000000
vn 0.000000 -0.228434 -0.973559
vn 0.000000 -0.228434 -0.973559
vn 0.000000 -0.672394 -0.740194
vn 0.000000 -0.672394 -0.740194
vn 0.000000 0.000000 -1.000000
vn 0.000000 0.000000 -1.000000
vn -1.000000 0.000149 0.000096
vn -1.000000 0.000149 0.000096
vn -1.000000 0.000074 -0.000096
vn -1.000000 0.000029 -0.000106
vn -1.000000 -0.000096 0.000266
vn -1.000000 0.000074 0.000271
vn -1.000000 0.000020 0.000239
vn -1.000000 0.000149 -0.000271
vn -1.000000 0.000149 -0.000271
vn -1.000000 -0.000133 0.000004
vn -1.000000 -0.000086 -0.000119
vn -1.000000 -0.000082 -0.000095
vn -1.000000 -0.000103 0.000125
vn 0.000000 1.000000 0.000000
vn 0.000000 1.000000 0.000000
vn 0.000000 -1.000000 0.000000
vn 0.000000 -1.000000 0.000000
vn 0.000000 -1.000000 0.000000
vn 0.000000 -1.000000 0.000000
s 1
f 2/3/1 1/2/2 4/10/3 3/11/4
s 2
f 10/25/5 6/8/6 5/7/7
s 1
f 7/13/8 2/14/1 3/15/4 8/16/9
s 2
f 9/22/10 8/19/11 3/20/12 5/21/7
s 3
f 1/1/13 11/27/14 10/26/15 4/9/16
s 4
f 1/12/17 2/6/18 12/30/19 11/28/20
f 2/23/18 7/24/21 13/32/22 12/29/19
s 5
f 9/33/23 13/31/24 7/17/25 8/18/26
s 3
f 20/52/27 6/34/28 11/51/14
s 6
f 15/36/29 14/37/30 17/38/31 16/39/32
s 7
f 5/41/33 20/58/34 22/59/35
s 6
f 18/43/36 15/44/29 16/45/32 19/46/37
s 5
f 13/48/24 9/47/23 21/108/38 31/109/39
s 7
f 21/53/40 9/49/41 5/50/33 22/60/35
s 3
f 11/51/14 6/34/28 10/35/15
s 2
f 3/4/12 4/5/42 10/25/5 5/7/7
s 7
f 5/41/33 6/42/43 20/40/34
f 25/54/44 26/55/45 15/56/46 18/57/47
f 20/58/34 14/61/48 24/62/49
f 24/62/49 14/61/48 27/63/50
f 20/58/34 24/62/49 23/64/51
f 27/63/50 14/61/48 26/65/45
f 20/58/34 23/64/51 22/59/35
f 26/65/45 14/61/48 15/66/46
s 10
f 22/67/52 23/68/53 30/69/54 28/70/55
f 23/68/53 24/71/56 29/72/57 30/69/54
f 31/73/58 21/74/59 22/75/52 28/76/55
f 26/77/60 32/78/61 33/79/62 27/80/63
f 27/80/63 33/79/62 29/81/57 24/82/56
f 34/83/64 32/84/61 26/85/60 25/86/65
s 12
f 34/87/66 19/88/67 16/89/68 32/90/69
f 11/91/70 12/92/71 28/93/72
f 13/94/73 31/95/74 28/96/72 12/97/71
f 11/91/70 29/98/75 17/99/76
f 29/98/75 33/100/77 17/99/76
f 11/91/70 30/101/78 29/98/75
f 33/100/77 32/102/69 17/99/76
f 11/91/70 28/93/72 30/101/78
f 32/102/69 16/103/68 17/99/76
s 3
f 20/104/27 11/105/14 17/106/79 14/107/80
s off
f 34/110/81 25/111/82 18/112/83 19/113/84
