# This file uses centimeters as units for non-parametric coordinates.

v -3.000000 4.000000 -2.000076
v -3.000000 0.000000 -2.000076
v -3.000000 0.000000 -3.000000
v -3.000000 4.000000 -3.000000
v 3.000000 0.000000 -3.000000
v 3.000000 4.000000 -3.000000
v -3.000000 -4.000000 -2.000076
v -3.000000 -4.000000 -3.000000
v 3.000000 -4.000000 -3.000000
v 2.000000 4.000000 -3.000000
v 2.000000 4.000000 -2.000076
v 2.000000 0.000000 -2.000076
v 2.000000 -4.000000 -2.000076
v 2.000000 -4.000000 -3.000000
v 3.000000 4.000000 3.000000
v 3.000000 0.000000 3.000000
v 2.000000 0.000000 3.000000
v 2.000000 4.000000 3.000000
v 3.000000 -4.000000 3.000000
v 2.000000 -4.000000 3.000000
v 3.000000 4.000000 -2.000000
v -1.860329 -4.000000 -2.998810
v -1.860329 0.001251 -3.000000
v -1.174026 0.982620 -3.000000
v 0.000000 1.500795 -3.000000
v 1.860329 -4.000000 -2.998810
v 1.860329 0.001251 -3.000000
v 1.174026 0.982620 -3.000000
v -1.860329 0.001251 -2.000595
v 0.000000 1.500795 -2.000595
v -1.174026 0.982620 -2.000595
v -1.860329 -4.000000 -1.999405
v 1.860329 0.001251 -2.000595
v 1.174026 0.982620 -2.000595
v 1.860329 -4.000000 -1.999405
vt 0.642554 0.841946
vt 0.642554 0.554214
vt 0.449343 0.554213
vt 0.449343 0.841947
vt 0.708481 0.841947
vt 0.708481 0.554213
vt 0.642554 0.554214
vt 0.642554 0.841946
vt 0.708481 0.841947
vt 0.708481 0.554213
vt 0.449343 0.841947
vt 0.449343 0.554213
vt 0.521985 0.841947
vt 0.521985 0.554214
vt 0.046824 0.996309
vt 0.095790 0.996310
vt 0.095790 0.923325
vt 0.046824 0.923327
vt 0.642554 0.554214
vt 0.642554 0.841946
vt 0.708481 0.841947
vt 0.708481 0.554213
vt 0.812551 0.841946
vt 0.885194 0.554215
vt 0.885194 0.841946
vt 0.642554 0.554214
vt 0.642554 0.841946
vt 0.708481 0.841947
vt 0.708481 0.554213
vt 0.885194 0.554215
vt 0.885194 0.841946
vt 0.410614 0.996310
vt 0.410614 0.923325
vt 0.449343 0.841946
vt 0.449343 0.554215
vt 0.449343 0.841946
vt 0.449343 0.554215
vt 0.885194 0.554213
vt 0.885194 0.841947
vt 0.521985 0.841947
vt 0.521985 0.554214
vt 0.885194 0.554213
vt 0.885194 0.841947
vt 0.521985 0.841947
vt 0.521985 0.554214
vt 0.023032 0.923327
vt 0.023032 0.996309
vt 0.532127 0.554216
vt 0.532125 0.842035
vt 0.521981 0.554215
vt 0.885194 0.841947
vt 0.802407 0.554305
vt 0.885194 0.554213
vt 0.885194 0.554213
vt 0.885194 0.841947
vt 0.802411 0.842036
vt 0.802411 0.554215
vt 0.521985 0.841947
vt 0.667269 0.662171
vt 0.581985 0.624898
vt 0.752552 0.624898
vt 0.532130 0.554305
vt 0.802468 0.554228
vt 0.812617 0.554228
vt 0.812617 0.841956
vt 0.802468 0.842046
vt 0.449347 0.841932
vt 0.449417 0.554215
vt 0.532189 0.554302
vt 0.449285 0.554237
vt 0.532065 0.554238
vt 0.532065 0.842057
vt 0.449286 0.841968
vt 0.667269 0.662131
vt 0.812551 0.841932
vt 0.752520 0.624883
vt 0.582012 0.624879
vt 0.802340 0.554308
vt 0.812492 0.554215
vt 0.444914 0.555379
vt 0.444913 0.628919
vt 0.079546 0.628915
vt 0.079546 0.555383
vt 0.816466 0.625297
vt 0.816466 0.697350
vt 0.757424 0.697349
vt 0.757424 0.625300
vt 0.816466 0.769604
vt 0.757424 0.769601
vt 0.786030 0.555106
vt 0.853878 0.555105
vt 0.853965 0.842575
vt 0.786117 0.842574
vt 0.816466 0.625297
vt 0.757424 0.625300
vt 0.757424 0.697349
vt 0.816466 0.697350
vt 0.757424 0.769601
vt 0.816466 0.769604
vt 0.786030 0.555106
vt 0.786117 0.842574
vt 0.853965 0.842575
vt 0.853878 0.555105
vn -1.000000 0.000000 0.000000
vn -1.000000 0.000000 0.000000
vn -1.000000 0.000000 0.000000
vn -1.000000 0.000000 0.000000
vn 0.000000 0.000000 -1.000000
vn 0.000000 0.000000 -1.000000
vn -0.000233 -0.000008 -1.000000
vn -1.000000 0.000000 0.000000
vn -1.000000 0.000000 0.000000
vn 0.000000 1.000000 0.000000
vn 0.000000 1.000000 0.000000
vn 0.000000 1.000000 0.000000
vn 0.000000 0.000000 1.000000
vn 0.000000 0.000000 1.000000
vn 0.000000 0.000000 1.000000
vn 0.000000 0.000000 1.000000
vn 1.000000 0.000000 0.000000
vn 1.000000 0.000000 0.000000
vn 1.000000 0.000000 0.000000
vn 1.000000 0.000000 0.000000
vn 0.000000 0.000000 1.000000
vn 0.000000 0.000000 1.000000
vn 1.000000 0.000000 0.000000
vn 1.000000 0.000000 0.000000
vn 0.000000 1.000000 0.000000
vn 0.000000 1.000000 0.000000
vn -1.000000 0.000000 0.000000
vn -1.000000 0.000000 0.000000
vn -1.000000 0.000000 0.000000
vn -1.000000 0.000000 0.000000
vn -1.000000 0.000000 0.000000
vn -1.000000 0.000000 0.000000
vn 0.000000 1.000000 0.000000
vn 1.000000 0.000000 0.000000
vn -0.000465 -0.000016 -1.000000
vn 0.000000 0.000000 -1.000000
vn -0.000930 -0.000032 -1.000000
vn -0.000310 -0.000011 -1.000000
vn 0.000000 0.000000 -1.000000
vn 0.000174 -0.000050 -1.000000
vn 0.000261 -0.000074 -1.000000
vn 0.000522 -0.000149 -1.000000
vn 0.000522 -0.000149 -1.000000
vn 0.000000 0.000000 -1.000000
vn 0.000000 0.000000 -1.000000
vn 0.000000 0.000000 -1.000000
vn 0.000546 0.000149 1.000000
vn 0.000546 0.000149 1.000000
vn -0.001584 0.000074 0.999999
vn -0.001115 0.000008 0.999999
vn 0.000162 -0.000109 1.000000
vn 0.000194 0.000074 1.000000
vn 0.000173 0.000019 1.000000
vn -0.000067 0.000149 1.000000
vn -0.000067 0.000149 1.000000
vn -0.000003 -0.000166 1.000000
vn -0.000990 -0.000121 1.000000
vn -0.000122 -0.000138 1.000000
vn 0.000096 -0.000114 1.000000
vn 0.000000 1.000000 0.000000
vn 0.000000 1.000000 0.000000
vn 0.000000 1.000000 0.000000
vn 0.000000 1.000000 0.000000
vn 0.953805 -0.300425 0.000000
vn 0.635059 -0.772464 0.000000
vn 0.635059 -0.772464 0.000000
vn 0.953805 -0.300425 0.000000
vn 0.000000 -1.000000 0.000000
vn 0.000000 -1.000000 0.000000
vn 1.000000 -0.000000 0.000000
vn 1.000000 -0.000000 0.000000
vn -0.953805 -0.300425 0.000000
vn -0.953805 -0.300425 0.000000
vn -0.635059 -0.772464 0.000000
vn -0.635059 -0.772464 0.000000
vn -1.000000 0.000000 0.000000
vn -1.000000 0.000000 0.000000
s 1
f 2/2/1 1/1/2 4/5/3 3/6/4
s 2
f 10/13/5 6/4/6 5/3/7
s 1
f 7/7/8 2/8/1 3/9/4 8/10/9
s 3
f 21/47/10 6/16/11 11/46/12
s 4
f 16/19/13 15/20/14 18/21/15 17/22/16
s 5
f 5/24/17 21/23/18 15/34/19 16/35/20
s 4
f 19/26/21 16/27/13 17/28/16 20/29/22
s 5
f 9/30/23 5/31/17 16/36/20 19/37/24
s 3
f 15/32/25 21/15/10 11/18/12 18/33/26
s 6
f 20/38/27 17/39/28 12/40/29 13/41/30
f 17/42/28 18/43/31 11/44/32 12/45/29
s 3
f 11/46/12 6/16/11 10/17/33
s 5
f 5/24/17 6/25/34 21/23/18
s 2
f 14/14/35 5/11/7 9/12/36
f 14/50/35 26/48/37 27/49/38 5/11/7
f 4/51/39 23/52/40 3/53/41
f 8/54/42 3/55/41 23/56/40 22/57/43
f 4/51/39 10/58/5 25/59/44
f 25/59/44 10/58/5 28/60/45
f 4/51/39 25/59/44 24/61/46
f 28/60/45 10/58/5 27/62/38
f 4/51/39 24/61/46 23/52/40
f 5/3/7 27/62/38 10/13/5
s 10
f 35/63/47 13/64/48 12/65/49 33/66/50
f 1/67/51 2/68/52 29/69/53
f 7/70/54 32/71/55 29/72/53 2/73/52
f 1/67/51 30/74/56 11/75/57
f 30/74/56 34/76/58 11/75/57
f 1/67/51 31/77/59 30/74/56
f 34/76/58 33/78/50 11/75/57
f 1/67/51 29/69/53 31/77/59
f 33/78/50 12/79/49 11/75/57
s off
f 4/80/60 1/81/61 11/82/62 10/83/63
s 13
f 23/84/64 24/85/65 31/86/66 29/87/67
f 24/85/65 25/88/68 30/89/69 31/86/66
f 32/90/70 22/91/71 23/92/64 29/93/67
f 27/94/72 33/95/73 34/96/74 28/97/75
f 28/97/75 34/96/74 30/98/69 25/99/68
f 35/100/76 33/101/73 27/102/72 26/103/77
